%FSTAX23Y23*%
%MOIN*%
%SFA1B1*%

%IPPOS*%
%ADD64R,0.039400X0.037300*%
%ADD65R,0.039400X0.037400*%
%ADD66R,0.027600X0.011900*%
%ADD67R,0.029600X0.031600*%
%ADD68R,0.015800X0.008000*%
%ADD69R,0.019800X0.019800*%
%ADD70R,0.037300X0.039400*%
%ADD71R,0.037400X0.039400*%
%ADD72R,0.011900X0.027600*%
%ADD73R,0.150100X0.050100*%
%ADD74R,0.051300X0.061100*%
%ADD75O,0.067000X0.011900*%
%ADD76R,0.051300X0.059100*%
%ADD77R,0.031600X0.029600*%
%ADD78R,0.078800X0.043400*%
%ADD79R,0.031600X0.031600*%
%ADD80R,0.035500X0.027600*%
%ADD81R,0.040100X0.030100*%
%ADD82R,0.059100X0.051300*%
%ADD83R,0.043400X0.078800*%
%ADD84R,0.031600X0.031600*%
%ADD85R,0.008000X0.015800*%
%ADD86R,0.019800X0.019800*%
%ADD87R,0.047300X0.098500*%
%LNvapeixshield-1*%
%LPD*%
G54D64*
X03104Y04373D03*
Y03874D03*
X03247Y04063D03*
X03357Y04582D03*
G54D65*
X03104Y04322D03*
Y03823D03*
X03247Y04114D03*
X03357Y04633D03*
G54D66*
X03155Y04309D03*
Y04335D03*
Y04386D03*
Y0436D03*
X03083D03*
Y04386D03*
Y04335D03*
Y04309D03*
X03155Y03811D03*
Y03836D03*
Y03887D03*
Y03862D03*
X03083D03*
Y03887D03*
Y03836D03*
Y03811D03*
X03196Y04127D03*
Y04101D03*
Y0405D03*
Y04076D03*
X03268D03*
Y0405D03*
Y04101D03*
Y04127D03*
X03306Y04646D03*
Y0462D03*
Y04569D03*
Y04595D03*
X03379D03*
Y04569D03*
Y0462D03*
Y04646D03*
G54D67*
X03368Y04784D03*
X03315D03*
X02885Y04565D03*
X02939D03*
X03092Y04735D03*
X03145D03*
X02713Y04563D03*
X02766D03*
X02885Y04654D03*
X02939D03*
X03386Y04173D03*
X0344D03*
X03386Y04232D03*
X0344D03*
X03386Y04114D03*
X0344D03*
X03386Y03957D03*
X0344D03*
X03386Y04016D03*
X0344D03*
X03386Y03898D03*
X0344D03*
X02943Y03701D03*
X0289D03*
X02943Y0376D03*
X0289D03*
X02943Y03914D03*
X0289D03*
X02943Y03819D03*
X0289D03*
X02943Y03973D03*
X0289D03*
X02943Y04032D03*
X0289D03*
X02943Y04118D03*
X0289D03*
X02943Y04177D03*
X0289D03*
X02943Y04236D03*
X0289D03*
X02943Y0439D03*
X0289D03*
X02943Y04331D03*
X0289D03*
X02943Y04449D03*
X0289D03*
X02983Y03397D03*
X0293D03*
X0289Y03291D03*
X02837D03*
X03235Y03592D03*
X03181D03*
X0336D03*
X03307D03*
X04207Y03503D03*
X04154D03*
X0422Y03287D03*
X04167D03*
G54D68*
X03007Y0326D03*
Y03276D03*
X02964Y03308D03*
Y03292D03*
G54D69*
X02976Y03268D03*
X02993Y03301D03*
G54D70*
X02984Y03529D03*
G54D71*
X02933Y03529D03*
G54D72*
X0292Y03478D03*
X02946D03*
X02997D03*
X02971D03*
Y03551D03*
X02997D03*
X02946D03*
X0292D03*
G54D73*
X04649Y04005D03*
X04474D03*
X04649Y04105D03*
X04474D03*
X04649Y04205D03*
X04474D03*
G54D74*
X04281Y04103D03*
Y04416D03*
X04104D03*
Y04103D03*
X03945D03*
Y04416D03*
X03768D03*
Y04103D03*
G54D75*
X03203Y04576D03*
Y04596D03*
Y04616D03*
Y04635D03*
Y04655D03*
X03042Y04576D03*
Y04596D03*
Y04616D03*
Y04635D03*
Y04655D03*
G54D76*
X02887Y04764D03*
X02954D03*
G54D77*
X02742Y04778D03*
Y04725D03*
X03236Y03497D03*
Y03443D03*
X0324Y03297D03*
Y03351D03*
X03249Y04758D03*
Y04705D03*
X03923Y03747D03*
Y038D03*
Y03629D03*
Y03576D03*
X03103Y03253D03*
Y03306D03*
Y03424D03*
Y0337D03*
G54D78*
X03147Y0482D03*
X04207Y03789D03*
G54D79*
X03072Y0482D03*
X04132Y03789D03*
G54D80*
X02778Y03986D03*
Y03947D03*
X02719Y03986D03*
Y03947D03*
X02778Y04199D03*
Y0416D03*
X02719Y04199D03*
Y0416D03*
X02778Y03773D03*
Y03734D03*
X02719Y03773D03*
Y03734D03*
X02778Y04412D03*
Y04372D03*
X02719Y04412D03*
Y04372D03*
X03551Y04144D03*
Y04183D03*
X0361Y04144D03*
Y04183D03*
X03551Y03923D03*
Y03962D03*
X0361Y03923D03*
Y03962D03*
G54D81*
X04137Y03667D03*
X04219Y03704D03*
Y03629D03*
G54D82*
X03893Y03303D03*
Y0337D03*
G54D83*
X03793Y03316D03*
X02839Y03532D03*
X03103Y03559D03*
G54D84*
X03793Y03391D03*
X02839Y03457D03*
X03103Y03484D03*
G54D85*
X03808Y0373D03*
X03824D03*
X03792Y03687D03*
X03776D03*
G54D86*
X03817Y03701D03*
X03784Y03717D03*
G54D87*
X02426Y04801D03*
X0223D03*
X02328Y05018D03*
M02*