%FSTAX23Y23*%
%MOIN*%
%SFA1B1*%

%IPPOS*%
%AMD47*
4,1,8,0.016700,0.068900,-0.016700,0.068900,-0.033400,0.052200,-0.033400,-0.052200,-0.016700,-0.068900,0.016700,-0.068900,0.033400,-0.052200,0.033400,0.052200,0.016700,0.068900,0.0*
1,1,0.033400,0.016700,0.052200*
1,1,0.033400,-0.016700,0.052200*
1,1,0.033400,-0.016700,-0.052200*
1,1,0.033400,0.016700,-0.052200*
%
%AMD48*
4,1,8,0.068900,-0.016700,0.068900,0.016700,0.052200,0.033400,-0.052200,0.033400,-0.068900,0.016700,-0.068900,-0.016700,-0.052200,-0.033400,0.052200,-0.033400,0.068900,-0.016700,0.0*
1,1,0.033400,0.052200,-0.016700*
1,1,0.033400,0.052200,0.016700*
1,1,0.033400,-0.052200,0.016700*
1,1,0.033400,-0.052200,-0.016700*
%
%ADD19R,0.150000X0.050000*%
%ADD35C,0.011800*%
%ADD36C,0.019700*%
%ADD37C,0.039400*%
%ADD39C,0.008000*%
%ADD41C,0.059100*%
%ADD44C,0.051200*%
%ADD45C,0.078700*%
%ADD46R,0.078700X0.078700*%
G04~CAMADD=47~8~0.0~0.0~669.0~1378.0~167.0~0.0~15~0.0~0.0~0.0~0.0~0~0.0~0.0~0.0~0.0~0~0.0~0.0~0.0~0.0~669.0~1378.0*
%ADD47D47*%
G04~CAMADD=48~8~0.0~0.0~669.0~1378.0~167.0~0.0~15~0.0~0.0~0.0~0.0~0~0.0~0.0~0.0~0.0~0~0.0~0.0~0.0~270.0~1378.0~668.0*
%ADD48D48*%
%ADD49C,0.027600*%
%ADD50C,0.019700*%
%ADD56R,0.190600X0.101400*%
%LNvapeixshield-1*%
%LPD*%
G36*
X02042Y05093D02*
X02047D01*
X04567*
X04626Y05034*
Y0456*
X04627Y04555*
X0463Y04551*
X04741Y04439*
Y03261*
X0463Y0315*
X04627Y03146*
X04626Y03141*
Y03042*
X04624Y03036*
X04616Y03026*
X04606Y03018*
X04602Y03016*
X02057*
X02056*
X02052Y03017*
X02049Y03017*
X02044Y03017*
X0204Y03017*
X02037Y03018*
X02035Y03019*
X02031Y0302*
X02023Y03025*
X02018Y03033*
X02016Y03042*
X02016Y03043*
X02016Y03044*
Y03045*
X02016Y03045*
Y0507*
X02016*
X02017Y05078*
X02023Y05086*
X02031Y05091*
X02037Y05093*
X02042Y05093*
X02042*
G37*
%LNvapeixshield-2*%
%LPC*%
G36*
X03543Y05053D02*
X03531Y05051D01*
X03519Y05046*
X03509Y05039*
X03502Y05029*
X03497Y05018*
X03496Y05017*
X03493*
X03492Y05018*
X03488Y05029*
X0348Y05039*
X0347Y05046*
X03459Y05051*
X03446Y05053*
X03434Y05051*
X03422Y05046*
X03413Y05039*
X03405Y05029*
X034Y05017*
X034Y05012*
X03395*
X03394Y05017*
X03389Y05029*
X03382Y05039*
X03372Y05046*
X0336Y05051*
X03348Y05053*
X03336Y05051*
X03324Y05046*
X03314Y05039*
X03307Y05029*
X03302Y05017*
X033Y05005*
X03302Y04993*
X03307Y04981*
X03314Y04971*
X03324Y04964*
X03336Y04959*
X03348Y04957*
X0336Y04959*
X03372Y04964*
X03382Y04971*
X03389Y04981*
X03394Y04993*
X03395Y04998*
X034*
X034Y04993*
X03405Y04981*
X03413Y04971*
X03422Y04964*
X03434Y04959*
X03446Y04957*
X03459Y04959*
X0347Y04964*
X0348Y04971*
X03488Y04981*
X03492Y04992*
X03493Y04993*
X03496*
X03497Y04992*
X03502Y04981*
X03509Y04971*
X03519Y04964*
X03531Y04959*
X03543Y04957*
X03556Y04959*
X03567Y04964*
X03577Y04971*
X03584Y04981*
X03589Y04993*
X03591Y05005*
X03589Y05017*
X03584Y05029*
X03577Y05039*
X03567Y05046*
X03556Y05051*
X03543Y05053*
G37*
G36*
X04403D02*
X04391Y05051D01*
X04379Y05046*
X04369Y05039*
X04362Y05029*
X04357Y05018*
X04356Y05017*
X04353*
X04352Y05018*
X04348Y05029*
X0434Y05039*
X0433Y05046*
X04319Y05051*
X04306Y05053*
X04294Y05051*
X04282Y05046*
X04273Y05039*
X04265Y05029*
X0426Y05017*
X0426Y05012*
X04255*
X04254Y05017*
X04249Y05029*
X04242Y05039*
X04232Y05046*
X0422Y05051*
X04208Y05053*
X04196Y05051*
X04184Y05046*
X04174Y05039*
X04167Y05029*
X04162Y05017*
X0416Y05005*
X04162Y04993*
X04167Y04981*
X04174Y04971*
X04184Y04964*
X04196Y04959*
X04208Y04957*
X0422Y04959*
X04232Y04964*
X04242Y04971*
X04249Y04981*
X04254Y04993*
X04255Y04998*
X0426*
X0426Y04993*
X04265Y04981*
X04273Y04971*
X04282Y04964*
X04294Y04959*
X04306Y04957*
X04319Y04959*
X0433Y04964*
X0434Y04971*
X04348Y04981*
X04352Y04992*
X04353Y04993*
X04356*
X04357Y04992*
X04362Y04981*
X04369Y04971*
X04379Y04964*
X04391Y04959*
X04403Y04957*
X04416Y04959*
X04427Y04964*
X04437Y04971*
X04444Y04981*
X04449Y04993*
X04451Y05005*
X04449Y05017*
X04444Y05029*
X04437Y05039*
X04427Y05046*
X04416Y05051*
X04403Y05053*
G37*
G36*
X04106D02*
X04094Y05051D01*
X04082Y05046*
X04073Y05039*
X04065Y05029*
X0406Y05017*
X04059Y05009*
X04059Y05006*
X04054*
X04054Y05009*
X04052Y05017*
X04048Y05029*
X0404Y05039*
X0403Y05046*
X04019Y05051*
X04006Y05053*
X03994Y05051*
X03982Y05046*
X03973Y05039*
X03965Y05029*
X0396Y05017*
X03959Y05009*
X03959Y05006*
X03954*
X03954Y05009*
X03952Y05017*
X03948Y05029*
X0394Y05039*
X0393Y05046*
X03919Y05051*
X03906Y05053*
X03894Y05051*
X03882Y05046*
X03873Y05039*
X03865Y05029*
X0386Y05017*
X03859Y05009*
X03859Y05006*
X03854*
X03854Y05009*
X03852Y05017*
X03848Y05029*
X0384Y05039*
X0383Y05046*
X03819Y05051*
X03806Y05053*
X03794Y05051*
X03782Y05046*
X03773Y05039*
X03765Y05029*
X0376Y05017*
X03759Y05005*
X0376Y04993*
X03765Y04981*
X03773Y04971*
X03782Y04964*
X03794Y04959*
X03806Y04957*
X03819Y04959*
X0383Y04964*
X0384Y04971*
X03848Y04981*
X03852Y04993*
X03854Y05001*
X03854Y05004*
X03859*
X03859Y05001*
X0386Y04993*
X03865Y04981*
X03873Y04971*
X03882Y04964*
X03894Y04959*
X03906Y04957*
X03919Y04959*
X0393Y04964*
X0394Y04971*
X03948Y04981*
X03952Y04993*
X03954Y05001*
X03954Y05004*
X03959*
X03959Y05001*
X0396Y04993*
X03965Y04981*
X03973Y04971*
X03982Y04964*
X03994Y04959*
X04006Y04957*
X04019Y04959*
X0403Y04964*
X0404Y04971*
X04048Y04981*
X04052Y04993*
X04054Y05001*
X04054Y05004*
X04059*
X04059Y05001*
X0406Y04993*
X04065Y04981*
X04073Y04971*
X04082Y04964*
X04094Y04959*
X04106Y04957*
X04119Y04959*
X0413Y04964*
X0414Y04971*
X04148Y04981*
X04152Y04993*
X04154Y05005*
X04152Y05017*
X04148Y05029*
X0414Y05039*
X0413Y05046*
X04119Y05051*
X04106Y05053*
G37*
G36*
X0369Y05052D02*
X03596D01*
Y04958*
X0369*
Y05052*
G37*
G36*
X0455Y05052D02*
X04456D01*
Y04958*
X0455*
Y05052*
G37*
G36*
X03204Y05086D02*
X02316D01*
X0231Y05085*
X02306Y05082*
X02269Y05045*
X02267Y05045*
X02259Y05043*
X02252Y05039*
X02247Y05032*
X02245Y05023*
X02247Y05015*
X02252Y05007*
X02259Y05003*
X02267Y05001*
X02276Y05003*
X02283Y05007*
X02288Y05015*
X02289Y05023*
X02289Y05025*
X02322Y05058*
X0236*
X02362Y05055*
X02362Y05053*
X02059Y04749*
X02056Y04745*
X02054Y04739*
Y03227*
X02056Y03221*
X02059Y03217*
X02115Y0316*
X0212Y03157*
X02125Y03156*
X02246*
X02246Y03151*
X02244Y03151*
X02238Y03148*
X02232Y03144*
X02228Y03138*
X02225Y03132*
X02224Y03125*
Y03113*
X02303*
X02383*
Y03125*
X02382Y03132*
X02379Y03138*
X02375Y03144*
X02369Y03148*
X02363Y03151*
X02361Y03151*
X02361Y03156*
X02985*
X0299Y03157*
X02995Y0316*
X03068Y03233*
X03155*
X03156Y03231*
X03163Y03227*
X03171Y03225*
X0318Y03227*
X03187Y03231*
X03192Y03238*
X03194Y03247*
X03192Y03255*
X03187Y03263*
X0318Y03267*
X03171Y03269*
X03163Y03267*
X03156Y03263*
X03155Y03261*
X03062*
X03057Y0326*
X03052Y03257*
X02979Y03184*
X02802*
X028Y03189*
X02802Y0319*
X02835Y03223*
X02837Y03222*
X02845Y03224*
X02852Y03229*
X02857Y03236*
X02859Y03245*
X02857Y03253*
X02852Y0326*
X02845Y03265*
X02837Y03267*
X02828Y03265*
X02821Y0326*
X02816Y03253*
X02815Y03245*
X02815Y03243*
X02786Y03214*
X02211*
X0221Y03219*
X02215Y03221*
X02221Y03226*
X02225Y03231*
X02228Y03238*
X02229Y03245*
Y03292*
X02142*
Y03245*
X02142Y03238*
X02145Y03231*
X02149Y03226*
X02155Y03221*
X0216Y03219*
X02159Y03214*
X0215*
X02129Y03235*
Y04719*
X02176Y04766*
X02178Y04766*
X02186Y04767*
X02194Y04772*
X02198Y04779*
X022Y04788*
X02198Y04796*
X02194Y04803*
X02186Y04808*
X02178Y0481*
X0217Y04808*
X02162Y04803*
X02158Y04796*
X02156Y04788*
X02156Y04786*
X02105Y04735*
X02102Y0473*
X02101Y04725*
Y03229*
X02102Y03224*
X02105Y03219*
X02133Y03191*
X02132Y03187*
X02131Y03186*
X02129Y03186*
X02083Y03232*
Y04733*
X02378Y05029*
X02434*
X02436Y05027*
X02436Y05025*
X02434Y05021*
X02429Y05018*
X02264Y04852*
X0226Y04846*
X02258Y04839*
Y04611*
X02253Y04606*
X02247Y04599*
X02244Y04591*
X02243Y04583*
X02244Y04574*
X02247Y04566*
X02253Y04559*
X0226Y04553*
X02268Y0455*
X02276Y04549*
X02285Y0455*
X02293Y04553*
X02293Y04553*
X02297Y0455*
X02284Y04537*
X02276Y04538*
X02268Y04536*
X0226Y04533*
X02253Y04528*
X02247Y04521*
X02244Y04513*
X02243Y04504*
X02244Y04495*
X02247Y04487*
X02253Y0448*
X0226Y04475*
X02268Y04471*
X02276Y0447*
X02285Y04471*
X02293Y04475*
X023Y0448*
X02306Y04487*
X02309Y04495*
X0231Y04504*
X02309Y04511*
X02373Y04575*
X02377Y04581*
X02379Y04588*
Y04793*
X02477Y04891*
X02751*
X02758Y04893*
X02764Y04897*
X02828Y04961*
X02834Y04959*
X02846Y04957*
X02859Y04959*
X0287Y04964*
X0288Y04971*
X02888Y04981*
X02892Y04993*
X02894Y05002*
X02894Y05004*
X02899*
X02899Y05002*
X029Y04993*
X02905Y04981*
X02913Y04971*
X02922Y04964*
X02934Y04959*
X02946Y04957*
X02959Y04959*
X0297Y04964*
X0298Y04971*
X02988Y04981*
X02992Y04993*
X02993Y04996*
X02998*
X02998Y04992*
X03003Y0498*
X03011Y0497*
X03021Y04962*
X03033Y04957*
X03041Y04956*
Y05005*
X03051*
Y04956*
X03059Y04957*
X03071Y04962*
X03082Y0497*
X03089Y0498*
X03094Y04992*
X03095Y04996*
X031*
X031Y04993*
X03105Y04981*
X03113Y04971*
X03122Y04964*
X03132Y0496*
Y04923*
X03133Y04917*
X03136Y04913*
X03157Y04891*
X03162Y04888*
X03167Y04887*
X03226*
X03287Y04827*
X03284Y04823*
X03284Y04823*
X03277Y04824*
X02929*
X02922Y04823*
X02916Y0482*
X0291Y04816*
X02815Y04721*
X02811Y04715*
X02808Y04709*
X02807Y04701*
Y04593*
X02808Y04586*
X02811Y04579*
X02815Y04574*
X02818Y04571*
X02817Y04566*
X0281Y04565*
X02803Y0456*
X02802Y04559*
X0276*
X02711Y04607*
Y0465*
X02713Y04651*
X02717Y04658*
X02719Y04666*
X02717Y04675*
X02713Y04682*
X02705Y04687*
X02697Y04688*
X02689Y04687*
X02681Y04682*
X02677Y04675*
X02675Y04666*
X02677Y04658*
X02681Y04651*
X02683Y0465*
Y04601*
X02684Y04596*
X02687Y04591*
X02744Y04535*
X02748Y04532*
X02754Y04531*
X02802*
X02803Y04529*
X0281Y04524*
X02819Y04522*
X02827Y04524*
X02834Y04529*
X02839Y04536*
X02841Y04545*
X02839Y04553*
X02834Y0456*
X02834Y04561*
X02835Y04564*
X02835Y04565*
X02842Y04566*
X02849Y04569*
X02855Y04574*
X02859Y04579*
X02862Y04586*
X02863Y04593*
Y0469*
X02941Y04768*
X03265*
X03306Y04727*
Y04727*
X03303Y04723*
X03302Y04724*
X03298Y04727*
X03289Y04729*
X03281Y04727*
X03273Y04722*
X03269Y04715*
X03267Y04707*
X03269Y04698*
X03273Y04691*
X03275Y0469*
Y04492*
X03276Y04486*
X03279Y04482*
X03356Y04405*
X03361Y04402*
X03366Y04401*
X03431*
Y04396*
X03421Y04394*
X03412Y04391*
X03404Y04385*
X03381Y04361*
X03292*
X03187Y04467*
X03181Y04471*
X03175Y04474*
X03167Y04475*
X0316Y04474*
X03154Y04471*
X03148Y04467*
X03143Y04461*
X03141Y04454*
X0314Y04447*
X03141Y0444*
X03143Y04433*
X03148Y04428*
X03261Y04314*
X03267Y0431*
X03274Y04307*
X03281Y04306*
X03369*
Y04094*
Y03886*
Y0366*
X03278Y03568*
X03001*
X02921Y03648*
Y03714*
X02926Y03716*
X02926Y03715*
X02947Y03695*
X02951Y03692*
X02957Y03691*
X03005*
X03011Y03692*
X03015Y03695*
X03031Y03711*
X03034Y03716*
X03035Y03721*
Y0377*
X03037Y03771*
X03042Y03778*
X03044Y03786*
X03042Y03795*
X03038Y03801*
X03039Y03805*
X03039Y03806*
X03044Y03809*
X03048Y03813*
X0305Y03813*
X03058Y03815*
X03065Y03819*
X0307Y03826*
X03072Y03835*
X0307Y03843*
X03065Y03851*
X03064Y03852*
Y03912*
X03076Y03924*
X03079Y03928*
X0308Y03934*
Y04009*
Y04208*
Y04407*
X03079Y04412*
X03076Y04417*
X03034Y04459*
X03029Y04462*
X03024Y04463*
X02991*
X0299Y04465*
X02983Y04469*
X02975Y04471*
X02966Y04469*
X02959Y04465*
X02954Y04457*
X02952Y04449*
X02954Y04441*
X02959Y04433*
X02966Y04429*
X02975Y04427*
X02983Y04429*
X0299Y04433*
X02991Y04435*
X03018*
X03052Y04401*
Y04248*
X03051Y04248*
X03047Y04247*
X03043Y04249*
X03038Y0425*
X02991*
X0299Y04252*
X02983Y04257*
X02975Y04258*
X02966Y04257*
X02959Y04252*
X02955Y04247*
X0295Y04248*
Y04287*
X02973Y04309*
X02975Y04309*
X02983Y0431*
X0299Y04315*
X02995Y04322*
X02997Y04331*
X02995Y04339*
X0299Y04346*
X02983Y04351*
X02975Y04353*
X02966Y04351*
X02959Y04346*
X02954Y04339*
X02952Y04331*
X02953Y04329*
X02926Y04303*
X02926Y04302*
X02921Y04304*
Y04362*
X0292Y04372*
X02916Y04381*
X0291Y04389*
X02861Y04438*
X02853Y04444*
X02844Y04448*
X02834Y04449*
X02584*
X02575Y04448*
X02566Y04444*
X02558Y04438*
X02512Y04393*
X02506Y04385*
X02502Y04376*
X02501Y04366*
Y03816*
X02459Y03774*
X0228*
X02271Y03773*
X02262Y03769*
X02254Y03763*
X02248Y03756*
X02244Y03747*
X02243Y03737*
X02244Y03727*
X02248Y03718*
X02254Y0371*
X02262Y03704*
X02271Y037*
X0228Y03699*
X02475*
X02485Y037*
X02494Y03704*
X02502Y0371*
X02537Y03746*
X0281*
X02817Y03747*
X02824Y03749*
X02829Y03754*
X02834Y0376*
X02837Y03766*
X02837Y03773*
X02837Y03781*
X02834Y03787*
X02829Y03793*
X02824Y03798*
X02817Y038*
X0281Y03801*
X02577*
Y03958*
X0281*
X02817Y03959*
X02824Y03962*
X02829Y03966*
X02834Y03972*
X02837Y03979*
X02837Y03986*
X02837Y03993*
X02834Y04*
X02829Y04006*
X02824Y0401*
X02817Y04013*
X0281Y04014*
X02577*
Y04171*
X0281*
X02817Y04172*
X02824Y04175*
X02829Y04179*
X02834Y04185*
X02837Y04192*
X02837Y04199*
X02837Y04206*
X02834Y04213*
X02829Y04219*
X02824Y04223*
X02817Y04226*
X0281Y04227*
X02577*
Y0435*
X026Y04374*
X02818*
X02846Y04346*
Y03648*
X028Y03602*
X02794Y03594*
X0279Y03585*
X02789Y03575*
Y0336*
X0279Y03351*
X02794Y03342*
X028Y03334*
X02808Y03328*
X02817Y03324*
X02827Y03323*
X02837Y03324*
X02846Y03328*
X02853Y03334*
X02859Y03342*
X02863Y03351*
X02865Y0336*
Y0356*
X02884Y03579*
X02958Y03504*
X02966Y03498*
X02975Y03494*
X02985Y03493*
X03005*
Y03488*
X03Y03487*
X02995Y03484*
X02967Y03456*
X02964Y03451*
X02963Y03446*
Y03255*
X02961Y03254*
X02956Y03247*
X02955Y03239*
X02956Y0323*
X02961Y03223*
X02968Y03218*
X02977Y03217*
X02985Y03218*
X02992Y03223*
X02997Y0323*
X02999Y03239*
X02997Y03247*
X02992Y03254*
X02991Y03255*
Y0344*
X03011Y0346*
X03021*
X03022Y03458*
X03029Y03454*
X03038Y03452*
X03046Y03454*
X03053Y03458*
X03058Y03466*
X0306Y03474*
X03058Y03482*
X03054Y03488*
X03056Y03493*
X03075*
Y03425*
X03076Y03418*
X03078Y03411*
X03083Y03406*
X03115Y03373*
X03121Y03369*
X03128Y03366*
X03135Y03365*
X03178*
X03186Y03366*
X03192Y03369*
X03198Y03373*
X03203Y03379*
X03205Y03386*
X03206Y03393*
X03205Y034*
X03203Y03407*
X03198Y03413*
X03192Y03417*
X03186Y0342*
X03178Y03421*
X03146*
X0313Y03437*
Y03493*
X03227*
X03234Y03492*
X03923*
X03933Y03493*
X03942Y03497*
X0395Y03503*
X03956Y03511*
X0396Y0352*
X03961Y0353*
X0396Y0354*
X03956Y03549*
X0395Y03556*
X03942Y03562*
X03933Y03566*
X03923Y03567*
X0339*
X03388Y03572*
X03433Y03618*
X03439Y03625*
X03443Y03635*
X03444Y03644*
Y03855*
X03543*
X0355Y03856*
X03557Y03859*
X03563Y03864*
X03565Y03866*
X03567Y03868*
X03571Y03875*
X03573Y03883*
X03571Y03892*
X03567Y03899*
X03565Y039*
X03563Y03903*
X03557Y03907*
X0355Y0391*
X03543Y03911*
X03444*
Y04069*
X03539*
X03541Y04068*
X03551Y04067*
X03561Y04068*
X0357Y04072*
X03578Y04078*
X03584Y04085*
X03587Y04094*
X03589Y04104*
X03587Y04114*
X03584Y04123*
X03578Y04131*
X03575Y04133*
X03567Y04139*
X03558Y04143*
X03549Y04144*
X03545Y04144*
X0354Y04144*
X03444*
Y04318*
X03447Y0432*
X04221*
Y03961*
X04222Y03951*
X04226Y03942*
X04232Y03934*
X04292Y03873*
X043Y03867*
X04309Y03863*
X04319Y03862*
X04514*
X04561Y03815*
Y03506*
X0453Y03474*
X04515*
Y03515*
X04514Y03525*
X0451Y03534*
X04504Y03542*
X04496Y03548*
X04487Y03552*
X04477Y03553*
X04467Y03552*
X04458Y03548*
X04451Y03542*
X04445Y03534*
X04441Y03525*
X0444Y03515*
Y03437*
X04441Y03427*
X04445Y03418*
X04451Y0341*
X04458Y03404*
X04467Y034*
X04477Y03399*
X04545*
X04555Y034*
X04564Y03404*
X04572Y0341*
X04626Y03464*
X04632Y03471*
X04635Y0348*
X04637Y0349*
Y03831*
X04635Y03841*
X04632Y0385*
X04626Y03858*
X04557Y03926*
X04549Y03932*
X0454Y03936*
X0453Y03938*
X04335*
X04296Y03976*
Y0432*
X0461*
Y04256*
X04612Y04246*
X04613Y04242*
X0461Y04238*
X04565*
Y04172*
X04628*
X0463Y04167*
X04628Y04164*
X04627Y04156*
X04628Y04147*
X0463Y04144*
Y04138*
X04565*
Y04072*
X04731*
Y04138*
X04666*
Y04143*
X04669Y04147*
X04671Y04156*
X04669Y04164*
X04667Y04167*
X0467Y04172*
X04731*
Y04238*
X04686*
X04683Y04242*
X04685Y04246*
X04686Y04256*
Y04407*
X04685Y04411*
Y04443*
X04684Y04453*
X0468Y04462*
X04674Y0447*
X04346Y04798*
X04338Y04804*
X04329Y04808*
X04319Y04809*
X03419*
X03409Y04808*
X034Y04804*
X03392Y04798*
X03386Y0479*
X03382Y04781*
X03382Y04778*
X03377Y04776*
X03242Y04911*
X03238Y04914*
X03232Y04915*
X03173*
X0316Y04928*
Y0496*
X0317Y04964*
X0318Y04971*
X03188Y04981*
X03192Y04993*
X03194Y05002*
X03194Y05004*
X03199*
X03199Y05002*
X032Y04993*
X03205Y04981*
X03213Y04971*
X03222Y04964*
X03234Y04959*
X03246Y04957*
X03259Y04959*
X0327Y04964*
X0328Y04971*
X03288Y04981*
X03292Y04993*
X03294Y05005*
X03292Y05017*
X03288Y05029*
X0328Y05039*
X0327Y05046*
X03259Y05051*
X03246Y05053*
X03243Y05052*
X03214Y05082*
X03209Y05085*
X03204Y05086*
G37*
G36*
X03036Y04933D02*
X02924D01*
X02917Y04932*
X0291Y0493*
X02904Y04925*
X029Y04919*
X02897Y04913*
X02896Y04905*
X02897Y04898*
X029Y04892*
X02904Y04886*
X0291Y04881*
X02917Y04879*
X02924Y04878*
X03025*
X03053Y0485*
X03058Y04845*
X03065Y04842*
X03072Y04841*
X0308Y04842*
X03086Y04845*
X03092Y0485*
X03096Y04855*
X03099Y04862*
X031Y04869*
X03099Y04876*
X03096Y04883*
X03092Y04889*
X03056Y04925*
X0305Y0493*
X03043Y04932*
X03036Y04933*
G37*
G36*
X03208Y04717D02*
X032Y04715D01*
X03192Y0471*
X03188Y04703*
X03186Y04695*
X03188Y04686*
X03192Y04679*
X032Y04674*
X03208Y04673*
X03216Y04674*
X03224Y04679*
X03228Y04686*
X0323Y04695*
X03228Y04703*
X03224Y0471*
X03216Y04715*
X03208Y04717*
G37*
G36*
X03273Y04469D02*
X03264Y04468D01*
X03257Y04463*
X03252Y04456*
X03251Y04447*
X03252Y04439*
X03257Y04432*
X03264Y04427*
X03273Y04425*
X03281Y04427*
X03288Y04432*
X03293Y04439*
X03295Y04447*
X03293Y04456*
X03288Y04463*
X03281Y04468*
X03273Y04469*
G37*
G36*
X02276Y04459D02*
X02268Y04458D01*
X0226Y04454*
X02253Y04449*
X02247Y04442*
X02244Y04434*
X02243Y04425*
X02244Y04416*
X02247Y04408*
X02253Y04401*
X0226Y04396*
X02268Y04393*
X02276Y04391*
X02285Y04393*
X02293Y04396*
X023Y04401*
X02306Y04408*
X02309Y04416*
X0231Y04425*
X02309Y04434*
X02306Y04442*
X023Y04449*
X02293Y04454*
X02285Y04458*
X02276Y04459*
G37*
G36*
X02281Y04382D02*
Y04351D01*
X02312*
X02311Y04356*
X02307Y04364*
X02302Y04372*
X02294Y04377*
X02286Y04381*
X02281Y04382*
G37*
G36*
X02271D02*
X02267Y04381D01*
X02258Y04377*
X02251Y04372*
X02245Y04364*
X02242Y04356*
X02241Y04351*
X02271*
Y04382*
G37*
G36*
X02312Y04341D02*
X02281D01*
Y04311*
X02286Y04312*
X02294Y04315*
X02302Y04321*
X02307Y04328*
X02311Y04337*
X02312Y04341*
G37*
G36*
X02271D02*
X02241D01*
X02242Y04337*
X02245Y04328*
X02251Y04321*
X02258Y04315*
X02267Y04312*
X02271Y04311*
Y04341*
G37*
G36*
X03204Y04344D02*
X03195Y04342D01*
X03188Y04337*
X03184Y0433*
X03182Y04322*
X03184Y04313*
X03188Y04306*
X03195Y04301*
X03204Y04299*
X03212Y04301*
X0322Y04306*
X03224Y04313*
X03226Y04322*
X03224Y0433*
X0322Y04337*
X03212Y04342*
X03204Y04344*
G37*
G36*
X04556Y04238D02*
X0439D01*
Y04223*
X04369*
X04365Y04225*
X04357Y04227*
X04348Y04225*
X04341Y04221*
X04336Y04213*
X04335Y04205*
X04336Y04197*
X04341Y04189*
X04348Y04185*
X04357Y04183*
X04365Y04185*
X04369Y04187*
X0439*
Y04172*
X04556*
Y04238*
G37*
G36*
X03224Y04226D02*
X03216Y04224D01*
X03209Y0422*
X03204Y04212*
X03202Y04204*
X03204Y04195*
X03209Y04188*
X03216Y04184*
X03224Y04182*
X03233Y04184*
X0324Y04188*
X03245Y04195*
X03246Y04204*
X03245Y04212*
X0324Y0422*
X03233Y04224*
X03224Y04226*
G37*
G36*
X0333Y04254D02*
X03321Y04253D01*
X03314Y04248*
X03309Y04241*
X03308Y04232*
X03309Y04224*
X03314Y04217*
X03316Y04216*
Y04136*
X03311Y04133*
X0331Y04134*
X03301Y04136*
X03293Y04134*
X03292Y04134*
X03288Y04138*
X03291Y0414*
X03294Y04145*
X03295Y0415*
Y04191*
X03297Y04192*
X03301Y042*
X03303Y04208*
X03301Y04216*
X03297Y04224*
X03289Y04228*
X03281Y0423*
X03273Y04228*
X03265Y04224*
X03261Y04216*
X03259Y04208*
X03261Y042*
X03265Y04192*
X03267Y04191*
Y04156*
X03232Y04121*
X0318*
X03179Y04122*
X03172Y04127*
X03163Y04129*
X03155Y04127*
X03148Y04122*
X03143Y04115*
X03141Y04107*
X03143Y04098*
X03148Y04091*
X03155Y04086*
X03163Y04085*
X03172Y04086*
X03179Y04091*
X0318Y04093*
X03238*
X03243Y04094*
X03248Y04097*
X03278Y04127*
X03282Y04124*
X03281Y04123*
X03279Y04114*
X03281Y04106*
X03283Y04102*
Y04006*
X03282Y04005*
X03277Y03997*
X03275Y03989*
X03277Y03981*
X0328Y03975*
X03279Y0397*
X03279Y03969*
X03278Y03969*
X03273Y03973*
X03265Y03975*
X03256Y03973*
X03249Y03968*
X03244Y03961*
X03243Y03953*
X03244Y03944*
X03249Y03937*
X03256Y03932*
X03265Y0393*
X03273Y03932*
X0328Y03937*
X03281Y03938*
X03317*
X03318Y03937*
X03325Y03932*
X03334Y0393*
X03342Y03932*
X03349Y03937*
X03354Y03944*
X03356Y03953*
X03354Y03961*
X03349Y03968*
X03342Y03973*
X03334Y03975*
X03325Y03973*
X03318Y03968*
X03317Y03967*
X03312*
X0331Y03972*
X03313Y03973*
X03318Y03981*
X03319Y03989*
X03319Y03993*
X03319Y03994*
X03323Y03997*
X0333Y03995*
X03338Y03997*
X03345Y04002*
X0335Y04009*
X03352Y04017*
X0335Y04026*
X03345Y04033*
X03344Y04034*
Y04216*
X03345Y04217*
X0335Y04224*
X03352Y04232*
X0335Y04241*
X03345Y04248*
X03338Y04253*
X0333Y04254*
G37*
G36*
X04556Y04138D02*
X0439D01*
Y04123*
X04368*
X04365Y04125*
X04356Y04127*
X04348Y04125*
X04341Y04121*
X04336Y04113*
X04334Y04105*
X04336Y04097*
X04341Y04089*
X04348Y04085*
X04356Y04083*
X04365Y04085*
X04368Y04087*
X0439*
Y04072*
X04556*
Y04138*
G37*
G36*
X02279Y04117D02*
X02271Y04116D01*
X02263Y04113*
X02256Y04108*
X0225Y04101*
X02247Y04092*
X02246Y04084*
X02247Y04075*
X0225Y04067*
X02256Y0406*
X02263Y04054*
X02271Y04051*
X02279Y0405*
X02288Y04051*
X02296Y04054*
X02303Y0406*
X02309Y04067*
X02312Y04075*
X02313Y04084*
X02312Y04092*
X02309Y04101*
X02303Y04108*
X02296Y04113*
X02288Y04116*
X02279Y04117*
G37*
G36*
X04556Y04038D02*
X0439D01*
Y04023*
X04368*
X04364Y04026*
X04356Y04027*
X04347Y04026*
X0434Y04021*
X04335Y04014*
X04333Y04005*
X04335Y03997*
X0434Y0399*
X04347Y03985*
X04356Y03983*
X04364Y03985*
X04368Y03987*
X0439*
Y03972*
X04556*
Y04038*
G37*
G36*
X04733Y0404D02*
X04653D01*
Y0401*
X04733*
Y0404*
G37*
G36*
X04643D02*
X04563D01*
Y0401*
X04643*
Y0404*
G37*
G36*
X02284Y0404D02*
Y0401D01*
X02315*
X02314Y04014*
X02311Y04023*
X02305Y0403*
X02297Y04036*
X02289Y0404*
X02284Y0404*
G37*
G36*
X02274D02*
X0227Y0404D01*
X02262Y04036*
X02254Y0403*
X02248Y04023*
X02245Y04014*
X02244Y0401*
X02274*
Y0404*
G37*
G36*
X03196Y04039D02*
X03187Y04038D01*
X0318Y04033*
X03175Y04026*
X03174Y04017*
X03175Y04009*
X0318Y04002*
X03187Y03997*
X03196Y03995*
X03204Y03997*
X03211Y04002*
X03216Y04009*
X03218Y04017*
X03216Y04026*
X03211Y04033*
X03204Y04038*
X03196Y04039*
G37*
G36*
X04145Y04027D02*
X04136Y04026D01*
X04129Y04021*
X04124Y04014*
X04123Y04005*
X04124Y03997*
X04129Y0399*
X04136Y03985*
X04145Y03983*
X04153Y03985*
X0416Y0399*
X04165Y03997*
X04167Y04005*
X04165Y04014*
X0416Y04021*
X04153Y04026*
X04145Y04027*
G37*
G36*
X04733Y04D02*
X04653D01*
Y0397*
X04733*
Y04*
G37*
G36*
X04643D02*
X04563D01*
Y0397*
X04643*
Y04*
G37*
G36*
X02315Y04D02*
X02284D01*
Y0397*
X02289Y0397*
X02297Y03974*
X02305Y0398*
X02311Y03987*
X02314Y03996*
X02315Y04*
G37*
G36*
X02274D02*
X02244D01*
X02245Y03996*
X02248Y03987*
X02254Y0398*
X02262Y03974*
X0227Y0397*
X02274Y0397*
Y04*
G37*
G36*
X03167Y03942D02*
X03159Y0394D01*
X03152Y03936*
X03151Y03934*
X03119*
X03113Y03933*
X03109Y0393*
X03089Y0391*
X03086Y03905*
X03084Y039*
Y03804*
X03068Y03788*
X03066Y03788*
X03058Y03786*
X0305Y03782*
X03046Y03774*
X03044Y03766*
X03046Y03758*
X0305Y0375*
X03058Y03746*
X03066Y03744*
X03074Y03746*
X03082Y0375*
X03086Y03758*
X03088Y03766*
X03088Y03768*
X03108Y03789*
X03111Y03793*
X03113Y03798*
Y03894*
X03125Y03906*
X03151*
X03152Y03904*
X03159Y039*
X03167Y03898*
X03176Y039*
X03183Y03904*
X03188Y03912*
X0319Y0392*
X03188Y03929*
X03183Y03936*
X03176Y0394*
X03167Y03942*
G37*
G36*
X02705Y03861D02*
X02697Y03859D01*
X0269Y03855*
X02685Y03847*
X02683Y03839*
X02685Y03831*
X0269Y03823*
X02697Y03819*
X02705Y03817*
X02714Y03819*
X02721Y03823*
X02726Y03831*
X02727Y03839*
X02726Y03847*
X02721Y03855*
X02714Y03859*
X02705Y03861*
G37*
G36*
X03808Y03792D02*
X038Y0379D01*
X03793Y03786*
X03788Y03778*
X03786Y0377*
X03788Y03762*
X03793Y03754*
X038Y0375*
X03808Y03748*
X03817Y0375*
X03824Y03754*
X03829Y03762*
X0383Y0377*
X03829Y03778*
X03824Y03786*
X03817Y0379*
X03808Y03792*
G37*
G36*
X03849Y03723D02*
X0384Y03721D01*
X03833Y03717*
X03828Y0371*
X03827Y03701*
X03828Y03693*
X03833Y03685*
X0384Y03681*
X03849Y03679*
X03857Y03681*
X03864Y03685*
X03869Y03693*
X03871Y03701*
X03869Y0371*
X03864Y03717*
X03857Y03721*
X03849Y03723*
G37*
G36*
X02285Y03693D02*
Y03663D01*
X02316*
X02315Y03667*
X02312Y03676*
X02306Y03683*
X02298Y03689*
X0229Y03693*
X02285Y03693*
G37*
G36*
X02275D02*
X02271Y03693D01*
X02262Y03689*
X02255Y03683*
X02249Y03676*
X02246Y03667*
X02245Y03663*
X02275*
Y03693*
G37*
G36*
X04234Y03818D02*
X04092D01*
X04085Y03817*
X04078Y03814*
X04072Y0381*
X04068Y03804*
X04065Y03797*
X04064Y0379*
X04065Y03783*
X04068Y03776*
X04072Y03771*
X04078Y03766*
X04085Y03763*
X04092Y03763*
X04222*
X04332Y03653*
X04337Y03649*
X04344Y03646*
X04351Y03645*
X04459*
X0446Y03644*
X04469Y0364*
X04477Y03639*
X04486Y0364*
X04494Y03644*
X04501Y03649*
X04506Y03656*
X0451Y03664*
X04511Y03673*
X0451Y03682*
X04506Y0369*
X04501Y03697*
X04494Y03702*
X04486Y03705*
X04477Y03707*
X04469Y03705*
X0446Y03702*
X04459Y03701*
X04363*
X04254Y0381*
X04248Y03814*
X04241Y03817*
X04234Y03818*
G37*
G36*
X02275Y03653D02*
X02245D01*
X02246Y03649*
X02249Y0364*
X02255Y03633*
X02262Y03627*
X02271Y03623*
X02275Y03623*
Y03653*
G37*
G36*
X02316D02*
X02285D01*
Y03623*
X0229Y03623*
X02298Y03627*
X02306Y03633*
X02312Y0364*
X02315Y03649*
X02316Y03653*
G37*
G36*
X03249Y03662D02*
X0324Y03661D01*
X03233Y03656*
X03228Y03649*
X03226Y0364*
X03228Y03632*
X03233Y03625*
X0324Y0362*
X03249Y03618*
X03257Y0362*
X03264Y03625*
X03269Y03632*
X03271Y0364*
X03269Y03649*
X03264Y03656*
X03257Y03661*
X03249Y03662*
G37*
G36*
X03613Y03622D02*
X03605Y0362D01*
X03598Y03615*
X03593Y03608*
X03591Y036*
X03593Y03591*
X03598Y03584*
X03605Y03579*
X03613Y03578*
X03622Y03579*
X03629Y03584*
X03634Y03591*
X03636Y036*
X03634Y03608*
X03629Y03615*
X03622Y0362*
X03613Y03622*
G37*
G36*
X03865Y03651D02*
X03856Y03649D01*
X03849Y03645*
X03845Y03638*
X03843Y03629*
X03845Y03621*
X03849Y03613*
X03856Y03609*
X03865Y03607*
X03873Y03609*
X03877Y03611*
X04128*
X04158Y03581*
X04164Y03577*
X04171Y03576*
X04449*
X04453Y0357*
X0446Y03565*
X04469Y03562*
X04477Y0356*
X04486Y03562*
X04494Y03565*
X04501Y0357*
X04506Y03577*
X0451Y03585*
X04511Y03594*
X0451Y03603*
X04506Y03611*
X04501Y03618*
X04494Y03623*
X04486Y03627*
X04477Y03628*
X04469Y03627*
X0446Y03623*
X04453Y03618*
X04449Y03612*
X04178*
X04148Y03642*
X04143Y03646*
X04136Y03647*
X03877*
X03873Y03649*
X03865Y03651*
G37*
G36*
X03176Y03488D02*
X03167Y03486D01*
X0316Y03482*
X03155Y03474*
X03153Y03466*
X03155Y03457*
X0316Y0345*
X03167Y03445*
X03176Y03444*
X03184Y03445*
X03191Y0345*
X03196Y03457*
X03198Y03466*
X03196Y03474*
X03191Y03482*
X03184Y03486*
X03176Y03488*
G37*
G36*
X03411Y03476D02*
X03402Y03474D01*
X03395Y03469*
X0339Y03462*
X03389Y03454*
X0339Y03445*
X03395Y03438*
X03402Y03433*
X03406Y03433*
X03479Y0336*
X03485Y03356*
X03492Y03355*
X03995*
X03998Y03352*
X04007Y03351*
X04015Y03352*
X04022Y03357*
X04027Y03364*
X04029Y03373*
X04027Y03381*
X04022Y03388*
X04015Y03393*
X04007Y03395*
X03998Y03393*
X03995Y03391*
X03499*
X03432Y03458*
X03431Y03462*
X03426Y03469*
X03419Y03474*
X03411Y03476*
G37*
G36*
X02202Y03376D02*
X0219D01*
Y03302*
X02229*
Y03349*
X02228Y03356*
X02225Y03362*
X02221Y03368*
X02215Y03372*
X02209Y03375*
X02202Y03376*
G37*
G36*
X0218D02*
X02169D01*
X02162Y03375*
X02155Y03372*
X02149Y03368*
X02145Y03362*
X02142Y03356*
X02142Y03349*
Y03302*
X0218*
Y03376*
G37*
G36*
X0337Y03342D02*
X03362Y0334D01*
X03355Y03336*
X0335Y03328*
X03348Y0332*
X0335Y03311*
X03355Y03304*
X03362Y033*
X0337Y03298*
X03379Y033*
X03386Y03304*
X03391Y03311*
X03392Y0332*
X03391Y03328*
X03386Y03336*
X03379Y0334*
X0337Y03342*
G37*
G36*
X04128Y0331D02*
X0412Y03308D01*
X04113Y03303*
X04108Y03296*
X04106Y03287*
X04108Y03279*
X04113Y03272*
X0412Y03267*
X04128Y03265*
X04137Y03267*
X04144Y03272*
X04149Y03279*
X04151Y03287*
X04149Y03296*
X04144Y03303*
X04137Y03308*
X04128Y0331*
G37*
G36*
X03285Y03277D02*
X03278Y03276D01*
X03272Y03272*
X03268Y03266*
X03267Y03259*
X03268Y03252*
X03272Y03246*
X03278Y03242*
X03285Y03241*
X03292Y03242*
X03298Y03246*
X03302Y03252*
X03303Y03259*
X03302Y03266*
X03298Y03272*
X03292Y03276*
X03285Y03277*
G37*
G36*
X02438Y03374D02*
X02405D01*
X02395Y03372*
X02387Y03367*
X02382Y03359*
X0238Y03349*
Y03245*
X02382Y03235*
X02387Y03227*
X02395Y03221*
X02405Y0322*
X02438*
X02448Y03221*
X02456Y03227*
X02461Y03235*
X02463Y03245*
Y03349*
X02461Y03359*
X02456Y03367*
X02448Y03372*
X02438Y03374*
G37*
G36*
X03601Y03154D02*
X03593Y03153D01*
X03581Y03148*
X03571Y0314*
X03563Y0313*
X03559Y03119*
X03556Y03118*
X03553Y03119*
X03549Y03129*
X03542Y03139*
X03532Y03146*
X0352Y03151*
X03508Y03153*
X03496Y03151*
X03484Y03146*
X03474Y03139*
X03467Y03129*
X03462Y03117*
X0346Y03105*
X03462Y03093*
X03467Y03081*
X03474Y03071*
X03484Y03064*
X03496Y03059*
X03508Y03057*
X0352Y03059*
X03532Y03064*
X03542Y03071*
X03549Y03081*
X03553Y03091*
X03556Y03092*
X03559Y03091*
X03563Y0308*
X03571Y0307*
X03581Y03062*
X03593Y03057*
X03601Y03056*
Y03105*
Y03154*
G37*
G36*
X04403Y03153D02*
X04391Y03151D01*
X04379Y03146*
X04369Y03139*
X04362Y03129*
X04357Y03118*
X04356Y03117*
X04353*
X04352Y03118*
X04348Y03129*
X0434Y03139*
X0433Y03146*
X04319Y03151*
X04306Y03153*
X04294Y03151*
X04282Y03146*
X04273Y03139*
X04265Y03129*
X0426Y03117*
X0426Y03112*
X04255*
X04254Y03117*
X04249Y03129*
X04242Y03139*
X04232Y03146*
X0422Y03151*
X04208Y03153*
X04196Y03151*
X04184Y03146*
X04174Y03139*
X04167Y03129*
X04162Y03117*
X0416Y03105*
X04162Y03093*
X04167Y03081*
X04174Y03071*
X04184Y03064*
X04196Y03059*
X04208Y03057*
X0422Y03059*
X04232Y03064*
X04242Y03071*
X04249Y03081*
X04254Y03093*
X04255Y03098*
X0426*
X0426Y03093*
X04265Y03081*
X04273Y03071*
X04282Y03064*
X04294Y03059*
X04306Y03057*
X04319Y03059*
X0433Y03064*
X0434Y03071*
X04348Y03081*
X04352Y03092*
X04353Y03093*
X04356*
X04357Y03092*
X04362Y03081*
X04369Y03071*
X04379Y03064*
X04391Y03059*
X04403Y03057*
X04416Y03059*
X04427Y03064*
X04437Y03071*
X04444Y03081*
X04449Y03093*
X04451Y03105*
X04449Y03117*
X04444Y03129*
X04437Y03139*
X04427Y03146*
X04416Y03151*
X04403Y03153*
G37*
G36*
X04106D02*
X04094Y03151D01*
X04082Y03146*
X04073Y03139*
X04065Y03129*
X0406Y03117*
X04059Y03109*
X04059Y03106*
X04054*
X04054Y03109*
X04052Y03117*
X04048Y03129*
X0404Y03139*
X0403Y03146*
X04019Y03151*
X04006Y03153*
X03994Y03151*
X03982Y03146*
X03973Y03139*
X03965Y03129*
X0396Y03117*
X03959Y03105*
X0396Y03093*
X03965Y03081*
X03973Y03071*
X03982Y03064*
X03994Y03059*
X04006Y03057*
X04019Y03059*
X0403Y03064*
X0404Y03071*
X04048Y03081*
X04052Y03093*
X04054Y03101*
X04054Y03104*
X04059*
X04059Y03101*
X0406Y03093*
X04065Y03081*
X04073Y03071*
X04082Y03064*
X04094Y03059*
X04106Y03057*
X04119Y03059*
X0413Y03064*
X0414Y03071*
X04148Y03081*
X04152Y03093*
X04154Y03105*
X04152Y03117*
X04148Y03129*
X0414Y03139*
X0413Y03146*
X04119Y03151*
X04106Y03153*
G37*
G36*
X03406D02*
X03394Y03151D01*
X03382Y03146*
X03373Y03139*
X03365Y03129*
X0336Y03117*
X03359Y03109*
X03359Y03106*
X03354*
X03354Y03109*
X03352Y03117*
X03348Y03129*
X0334Y03139*
X0333Y03146*
X03319Y03151*
X03306Y03153*
X03294Y03151*
X03282Y03146*
X03273Y03139*
X03265Y03129*
X0326Y03117*
X03259Y03109*
X03259Y03106*
X03254*
X03254Y03109*
X03252Y03117*
X03248Y03129*
X0324Y03139*
X0323Y03146*
X03219Y03151*
X03206Y03153*
X03194Y03151*
X03182Y03146*
X03173Y03139*
X03165Y03129*
X0316Y03117*
X03159Y03109*
X03159Y03106*
X03154*
X03154Y03109*
X03152Y03117*
X03148Y03129*
X0314Y03139*
X0313Y03146*
X03119Y03151*
X03106Y03153*
X03094Y03151*
X03082Y03146*
X03073Y03139*
X03065Y03129*
X0306Y03117*
X03059Y03105*
X0306Y03093*
X03065Y03081*
X03073Y03071*
X03082Y03064*
X03094Y03059*
X03106Y03057*
X03119Y03059*
X0313Y03064*
X0314Y03071*
X03148Y03081*
X03152Y03093*
X03154Y03101*
X03154Y03104*
X03159*
X03159Y03101*
X0316Y03093*
X03165Y03081*
X03173Y03071*
X03182Y03064*
X03194Y03059*
X03206Y03057*
X03219Y03059*
X0323Y03064*
X0324Y03071*
X03248Y03081*
X03252Y03093*
X03254Y03101*
X03254Y03104*
X03259*
X03259Y03101*
X0326Y03093*
X03265Y03081*
X03273Y03071*
X03282Y03064*
X03294Y03059*
X03306Y03057*
X03319Y03059*
X0333Y03064*
X0334Y03071*
X03348Y03081*
X03352Y03093*
X03354Y03101*
X03354Y03104*
X03359*
X03359Y03101*
X0336Y03093*
X03365Y03081*
X03373Y03071*
X03382Y03064*
X03394Y03059*
X03406Y03057*
X03419Y03059*
X0343Y03064*
X0344Y03071*
X03448Y03081*
X03452Y03093*
X03454Y03105*
X03452Y03117*
X03448Y03129*
X0344Y03139*
X0343Y03146*
X03419Y03151*
X03406Y03153*
G37*
G36*
X02383Y03103D02*
X02308D01*
Y03064*
X02356*
X02363Y03065*
X02369Y03068*
X02375Y03072*
X02379Y03078*
X02382Y03084*
X02383Y03091*
Y03103*
G37*
G36*
X02298D02*
X02224D01*
Y03091*
X02225Y03084*
X02228Y03078*
X02232Y03072*
X02238Y03068*
X02244Y03065*
X02251Y03064*
X02298*
Y03103*
G37*
G36*
X0455Y03152D02*
X04456D01*
Y03058*
X0455*
Y03152*
G37*
G36*
X03708Y03154D02*
Y03105D01*
Y03056*
X03716Y03057*
X03728Y03062*
X03738Y0307*
X03746Y0308*
X03751Y03092*
X03756Y03091*
Y03058*
X0385*
Y03152*
X03756*
Y03119*
X03751Y03118*
X03746Y0313*
X03738Y0314*
X03728Y03148*
X03716Y03153*
X03708Y03154*
G37*
G36*
X03611D02*
Y03105D01*
Y03056*
X03619Y03057*
X03631Y03062*
X03642Y0307*
X03649Y0308*
X03652Y03086*
X03657*
X0366Y0308*
X03668Y0307*
X03678Y03062*
X0369Y03057*
X03698Y03056*
Y03105*
Y03154*
X0369Y03153*
X03678Y03148*
X03668Y0314*
X0366Y0313*
X03657Y03124*
X03652*
X03649Y0313*
X03642Y0314*
X03631Y03148*
X03619Y03153*
X03611Y03154*
G37*
%LNvapeixshield-3*%
%LPD*%
G54D19*
X04473Y04005D03*
Y04105D03*
Y04205D03*
X04648Y04005D03*
Y04105D03*
Y04205D03*
G54D35*
X03376Y04754D02*
X03609Y0452D01*
X03609*
X03376Y04754D02*
Y04758D01*
X03232Y04901D02*
X03376Y04758D01*
X04396Y04415D02*
X04445Y04463D01*
X03366Y04415D02*
X04396D01*
X03289Y04492D02*
X03366Y04415D01*
X03289Y04492D02*
Y04707D01*
X03005Y03474D02*
X03038D01*
X02977Y03446D02*
X03005Y03474D01*
X02977Y03239D02*
Y03446D01*
X03265Y03953D02*
X03334D01*
X03281Y0415D02*
Y04208D01*
X03238Y04107D02*
X03281Y0415D01*
X03297Y0411D02*
X03301Y04114D01*
X03297Y03989D02*
Y0411D01*
X0333Y04017D02*
Y04232D01*
X03163Y04107D02*
X03238D01*
X03119Y0392D02*
X03167D01*
X03098Y039D02*
X03119Y0392D01*
X03098Y03798D02*
Y039D01*
X03066Y03766D02*
X03098Y03798D01*
X0305Y03918D02*
X03066Y03934D01*
X0305Y03835D02*
Y03918D01*
X03034Y03819D02*
X0305Y03835D01*
X03066Y03934D02*
Y04009D01*
X02697Y04601D02*
Y04666D01*
Y04601D02*
X02754Y04545D01*
X02819*
X04473Y04005D02*
X04473Y04005D01*
X02936Y04119D02*
Y04293D01*
Y03725D02*
Y04119D01*
X02937Y04118*
X02975*
X02936Y04293D02*
X02975Y04331D01*
X02936Y03725D02*
X02957Y03705D01*
X03066Y04208D02*
Y04407D01*
Y04009D02*
Y04208D01*
X03038Y04236D02*
X03066Y04208D01*
X02975Y04236D02*
X03038D01*
X03024Y04449D02*
X03066Y04407D01*
X02975Y04449D02*
X03024D01*
X03044Y04032D02*
X03066Y04009D01*
X02975Y04032D02*
X03044D01*
X02975Y03819D02*
X03034D01*
X02957Y03705D02*
X03005D01*
X03021Y03721*
Y03786*
X03146Y04923D02*
Y05005D01*
Y04923D02*
X03167Y04901D01*
X03232*
X02373Y05043D02*
X02454D01*
X03246Y05005D02*
Y05029D01*
X02068Y04739D02*
X02373Y05043D01*
X02267Y05023D02*
X02316Y05072D01*
X03204*
X03246Y05029*
X02985Y0317D02*
X03062Y03247D01*
X03171*
X02792Y032D02*
X02837Y03245D01*
X02115Y04725D02*
X02178Y04788D01*
X02144Y032D02*
X02792D01*
X02115Y03229D02*
X02144Y032D01*
X02115Y03229D02*
Y04725D01*
X02068Y03227D02*
Y04739D01*
Y03227D02*
X02125Y0317D01*
X02985*
G54D36*
X03492Y03373D02*
X04007D01*
X03865Y03629D02*
X04136D01*
X04171Y03594*
X04477*
X04356Y04005D02*
X04473D01*
X04648Y04105D02*
Y04155D01*
X04356Y04105D02*
X04473D01*
X04357Y04205D02*
X04473D01*
X03508Y03105D02*
X03512Y03109D01*
X04648Y04048D02*
X04649Y04049D01*
X04648Y04005D02*
Y04048D01*
X02276Y04583D02*
Y04839D01*
X02442Y05005*
X02746*
X02751Y0491D02*
X02846Y05005D01*
X0247Y0491D02*
X02751D01*
X0236Y048D02*
X0247Y0491D01*
X02276Y04504D02*
X0236Y04588D01*
Y048*
X03411Y03454D02*
X03492Y03373D01*
G54D37*
X02929Y04796D02*
X03236D01*
X02835Y04701D02*
X02929Y04796D01*
X02835Y04593D02*
Y04701D01*
X04615Y04358D02*
X04648Y0439D01*
X03715Y04492D02*
Y04561D01*
X03682Y04459D02*
X03715Y04492D01*
X03419Y04459D02*
X03682D01*
X03342Y04536D02*
X03419Y04459D01*
X03281Y04334D02*
X03407D01*
X03167Y04447D02*
X03281Y04334D01*
X04092Y0379D02*
X04234D01*
X04351Y03673*
X04477*
X03036Y04905D02*
X03072Y04869D01*
X02924Y04905D02*
X03036D01*
X02506Y03773D02*
X0281D01*
X02544Y03986D02*
X0281D01*
X02546Y04199D02*
X0281D01*
X04468Y03515D02*
X04477D01*
X03409Y03883D02*
X03543D01*
X03236Y04796D02*
X03277D01*
X03492Y04581*
Y04508D02*
Y04581D01*
X03135Y03393D02*
X03178D01*
X03103Y03425D02*
X03135Y03393D01*
X03103Y03425D02*
Y03531D01*
G54D39*
X04356Y04204D02*
X04357Y04205D01*
G54D41*
X04258Y04358D02*
X04615D01*
X04648Y0439D02*
Y04443D01*
X04258Y03961D02*
Y04358D01*
X03407Y04334D02*
X03431Y04358D01*
X04258*
X02884Y03632D02*
X02985Y03531D01*
X02834Y04412D02*
X02884Y04362D01*
Y03632D02*
Y04362D01*
X03234Y0353D02*
X03923D01*
X0281Y04412D02*
X02834D01*
X04545Y03437D02*
X04599Y0349D01*
X04477Y03437D02*
X04545D01*
X02584Y04412D02*
X0281D01*
X02539Y04366D02*
X02584Y04412D01*
X02539Y03801D02*
Y04366D01*
X02475Y03737D02*
X02539Y03801D01*
X03549Y04107D02*
X03551Y04104D01*
X0228Y03737D02*
X02475D01*
X04477Y03437D02*
Y03515D01*
X04319Y039D02*
X0453D01*
X04599Y03831*
Y0349D02*
Y03831D01*
X04258Y03961D02*
X04319Y039D01*
X03419Y04107D02*
X0354D01*
X03407Y04094D02*
X03419Y04107D01*
X03407Y04094D02*
Y04334D01*
Y03886D02*
Y04094D01*
Y03886D02*
X03409Y03883D01*
X04648Y04256D02*
Y04407D01*
X03419Y04772D02*
X04319D01*
X04648Y04443*
X03293Y03531D02*
X03407Y03644D01*
Y03886*
X02827Y0336D02*
Y03575D01*
X02884Y03632*
X02985Y03531D02*
X03103D01*
X03293*
G54D44*
X04477Y03594D03*
Y03673D03*
Y03515D03*
Y03437D03*
X02279Y04084D03*
Y04005D03*
X0228Y03737D03*
Y03658D03*
X02276Y04583D03*
Y04504D03*
Y04346D03*
Y04425D03*
G54D45*
X03146Y05005D03*
X03246D03*
X03348D03*
X03446D03*
X03543D03*
X03046D03*
X02946D03*
X02846D03*
X02746D03*
X03806D03*
X03906D03*
X04403D03*
X04306D03*
X04208D03*
X04106D03*
X04006D03*
X03106Y03105D03*
X03206D03*
X03703D03*
X03606D03*
X03508D03*
X03406D03*
X03306D03*
X04006D03*
X04106D03*
X04208D03*
X04306D03*
X04403D03*
G54D46*
X03643Y05005D03*
X04503D03*
X03803Y03105D03*
X04503D03*
G54D47*
X02185Y03297D03*
X02421D03*
G54D48*
X02303Y03108D03*
G54D49*
X03609Y0452D03*
X03715Y04561D03*
X03342Y04536D03*
X03249Y0364D03*
X03167Y04447D03*
X03273D03*
X03334Y03953D03*
X03265D03*
X03196Y03889D03*
X03176Y03807D03*
X0333Y04017D03*
X03297Y03989D03*
X03301Y04114D03*
X03224Y04204D03*
X03163Y04107D03*
X03167Y0392D03*
X03281Y04208D03*
X03196Y04148D03*
Y04017D03*
X03155Y04273D03*
X03204Y04322D03*
X03193Y0436D03*
X0333Y04232D03*
X0305Y03835D03*
X03034Y0394D03*
X02697Y04666D03*
X02819Y04545D03*
X04128Y03287D03*
X03411Y03454D03*
X04007Y03373D03*
X04092Y0379D03*
X03865Y03629D03*
X03923Y03531D03*
X04356Y04005D03*
X04145D03*
X04648Y04256D03*
X04649Y04156D03*
X04356Y04105D03*
X04357Y04205D03*
X02705Y03839D03*
X03042Y04545D03*
X03072Y04869D03*
X02924Y04905D03*
X02835Y04593D03*
X03066Y03766D03*
X03551Y03883D03*
Y04104D03*
X04649Y04049D03*
X03178Y03393D03*
X02827Y0336D03*
X02927Y03323D03*
X02975Y0376D03*
Y03819D03*
Y04032D03*
Y04118D03*
Y04236D03*
Y04331D03*
Y04449D03*
X0281Y03773D03*
Y03986D03*
Y04199D03*
Y04412D03*
X02669Y04563D03*
X03021Y03786D03*
X03236Y04796D03*
X03208Y04695D03*
X03419Y04772D03*
X03492Y04508D03*
X03289Y04707D03*
X03159Y04062D03*
X04445Y04463D03*
X02267Y05023D03*
X03171Y03247D03*
X02454Y05043D03*
X02837Y03245D03*
X02178Y04788D03*
X03176Y03466D03*
X03849Y03701D03*
X02977Y03239D03*
X03038Y03474D03*
X0337Y0332D03*
X03613Y036D03*
X03808Y0377D03*
X03776Y03656D03*
X03853Y03742D03*
G54D50*
X03285Y03259D03*
G54D56*
X03652Y03103D03*
M02*