%FSTAX23Y23*%
%MOIN*%
%SFA1B1*%

%IPPOS*%
%AMD92*
4,1,8,0.016700,0.068900,-0.016700,0.068900,-0.033500,0.052100,-0.033500,-0.052100,-0.016700,-0.068900,0.016700,-0.068900,0.033500,-0.052100,0.033500,0.052100,0.016700,0.068900,0.0*
1,1,0.033600,0.016700,0.052100*
1,1,0.033600,-0.016700,0.052100*
1,1,0.033600,-0.016700,-0.052100*
1,1,0.033600,0.016700,-0.052100*
%
%AMD93*
4,1,8,0.068900,-0.016700,0.068900,0.016700,0.052100,0.033500,-0.052100,0.033500,-0.068900,0.016700,-0.068900,-0.016700,-0.052100,-0.033500,0.052100,-0.033500,0.068900,-0.016700,0.0*
1,1,0.033600,0.052100,-0.016700*
1,1,0.033600,0.052100,0.016700*
1,1,0.033600,-0.052100,0.016700*
1,1,0.033600,-0.052100,-0.016700*
%
%ADD73R,0.150100X0.050100*%
%ADD89C,0.051300*%
%ADD90C,0.078800*%
%ADD91R,0.078800X0.078800*%
G04~CAMADD=92~8~0.0~0.0~670.0~1379.0~168.0~0.0~15~0.0~0.0~0.0~0.0~0~0.0~0.0~0.0~0.0~0~0.0~0.0~0.0~0.0~670.0~1379.0*
%ADD92D92*%
G04~CAMADD=93~8~0.0~0.0~670.0~1379.0~168.0~0.0~15~0.0~0.0~0.0~0.0~0~0.0~0.0~0.0~0.0~0~0.0~0.0~0.0~270.0~1378.0~669.0*
%ADD93D93*%
%ADD94C,0.011800*%
%LNvapeixshield-1*%
%LPD*%
G54D73*
X04473Y04005D03*
Y04105D03*
Y04205D03*
X04648Y04005D03*
Y04105D03*
Y04205D03*
G54D89*
X04477Y03594D03*
Y03673D03*
Y03515D03*
Y03437D03*
X02279Y04084D03*
Y04005D03*
X0228Y03737D03*
Y03658D03*
X02276Y04583D03*
Y04504D03*
Y04346D03*
Y04425D03*
G54D90*
X03146Y05005D03*
X03246D03*
X03348D03*
X03446D03*
X03543D03*
X03046D03*
X02946D03*
X02846D03*
X02746D03*
X03806D03*
X03906D03*
X04403D03*
X04306D03*
X04208D03*
X04106D03*
X04006D03*
X03106Y03105D03*
X03206D03*
X03703D03*
X03606D03*
X03508D03*
X03406D03*
X03306D03*
X04006D03*
X04106D03*
X04208D03*
X04306D03*
X04403D03*
G54D91*
X03643Y05005D03*
X04503D03*
X03803Y03105D03*
X04503D03*
G54D92*
X02185Y03297D03*
X02421D03*
G54D93*
X02303Y03108D03*
G54D94*
X03609Y0452D03*
X03715Y04561D03*
X03342Y04536D03*
X03249Y0364D03*
X03167Y04447D03*
X03273D03*
X03334Y03953D03*
X03265D03*
X03196Y03889D03*
X03176Y03807D03*
X0333Y04017D03*
X03297Y03989D03*
X03301Y04114D03*
X03224Y04204D03*
X03163Y04107D03*
X03167Y0392D03*
X03281Y04208D03*
X03196Y04148D03*
Y04017D03*
X03155Y04273D03*
X03204Y04322D03*
X03193Y0436D03*
X0333Y04232D03*
X0305Y03835D03*
X03034Y0394D03*
X02697Y04666D03*
X02819Y04545D03*
X04128Y03287D03*
X03411Y03454D03*
X04007Y03373D03*
X04092Y0379D03*
X03865Y03629D03*
X03923Y03531D03*
X04356Y04005D03*
X04145D03*
X04648Y04256D03*
X04649Y04156D03*
X04356Y04105D03*
X04357Y04205D03*
X02705Y03839D03*
X03042Y04545D03*
X03072Y04869D03*
X02924Y04905D03*
X02835Y04593D03*
X03066Y03766D03*
X03551Y03883D03*
Y04104D03*
X04649Y04049D03*
X03178Y03393D03*
X02827Y0336D03*
X02927Y03323D03*
X02975Y0376D03*
Y03819D03*
Y04032D03*
Y04118D03*
Y04236D03*
Y04331D03*
Y04449D03*
X0281Y03773D03*
Y03986D03*
Y04199D03*
Y04412D03*
X02669Y04563D03*
X03021Y03786D03*
X03236Y04796D03*
X03208Y04695D03*
X03419Y04772D03*
X03492Y04508D03*
X03289Y04707D03*
X03159Y04062D03*
X04445Y04463D03*
X02267Y05023D03*
X03171Y03247D03*
X02454Y05043D03*
X02837Y03245D03*
X02178Y04788D03*
X03176Y03466D03*
X03849Y03701D03*
X02977Y03239D03*
X03038Y03474D03*
X03285Y03259D03*
X0337Y0332D03*
X03613Y036D03*
X03808Y0377D03*
X03776Y03656D03*
X03853Y03742D03*
M02*