%FSTAX23Y23*%
%MOIN*%
%SFA1B1*%

%IPPOS*%
%AMD47*
4,1,8,0.016700,0.068900,-0.016700,0.068900,-0.033400,0.052200,-0.033400,-0.052200,-0.016700,-0.068900,0.016700,-0.068900,0.033400,-0.052200,0.033400,0.052200,0.016700,0.068900,0.0*
1,1,0.033400,0.016700,0.052200*
1,1,0.033400,-0.016700,0.052200*
1,1,0.033400,-0.016700,-0.052200*
1,1,0.033400,0.016700,-0.052200*
%
%AMD48*
4,1,8,0.068900,-0.016700,0.068900,0.016700,0.052200,0.033400,-0.052200,0.033400,-0.068900,0.016700,-0.068900,-0.016700,-0.052200,-0.033400,0.052200,-0.033400,0.068900,-0.016700,0.0*
1,1,0.033400,0.052200,-0.016700*
1,1,0.033400,0.052200,0.016700*
1,1,0.033400,-0.052200,0.016700*
1,1,0.033400,-0.052200,-0.016700*
%
%ADD10R,0.039400X0.037200*%
%ADD11R,0.039400X0.037300*%
%ADD12R,0.027600X0.011800*%
%ADD13R,0.029500X0.031500*%
%ADD14R,0.015700X0.007900*%
%ADD15R,0.019700X0.019700*%
%ADD16R,0.037200X0.039400*%
%ADD17R,0.037300X0.039400*%
%ADD18R,0.011800X0.027600*%
%ADD19R,0.150000X0.050000*%
%ADD20R,0.051200X0.061000*%
%ADD21O,0.066900X0.011800*%
%ADD22R,0.051200X0.059100*%
%ADD23R,0.031500X0.029500*%
%ADD24R,0.078700X0.043300*%
%ADD25R,0.031500X0.031500*%
%ADD26R,0.035400X0.027600*%
%ADD27C,0.039400*%
%ADD28R,0.040000X0.030000*%
%ADD29R,0.059100X0.051200*%
%ADD30R,0.043300X0.078700*%
%ADD31R,0.031500X0.031500*%
%ADD32R,0.007900X0.015700*%
%ADD33R,0.019700X0.019700*%
%ADD34R,0.047200X0.098400*%
%ADD35C,0.011800*%
%ADD36C,0.019700*%
%ADD37C,0.039400*%
%ADD38C,0.007900*%
%ADD39C,0.008000*%
%ADD40C,0.078700*%
%ADD41C,0.059100*%
%ADD42C,0.010000*%
%ADD43C,0.090600*%
%ADD44C,0.051200*%
%ADD45C,0.078700*%
%ADD46R,0.078700X0.078700*%
G04~CAMADD=47~8~0.0~0.0~669.0~1378.0~167.0~0.0~15~0.0~0.0~0.0~0.0~0~0.0~0.0~0.0~0.0~0~0.0~0.0~0.0~0.0~669.0~1378.0*
%ADD47D47*%
G04~CAMADD=48~8~0.0~0.0~669.0~1378.0~167.0~0.0~15~0.0~0.0~0.0~0.0~0~0.0~0.0~0.0~0.0~0~0.0~0.0~0.0~270.0~1378.0~668.0*
%ADD48D48*%
%ADD49C,0.027600*%
%ADD50C,0.019700*%
%LNvapeixshield-1*%
%LPD*%
G36*
X02042Y05093D02*
X02047D01*
X04567*
X04626Y05034*
Y0456*
X04627Y04555*
X0463Y04551*
X04741Y04439*
Y03261*
X0463Y0315*
X04627Y03146*
X04626Y03141*
Y03042*
X04624Y03036*
X04616Y03026*
X04606Y03018*
X04602Y03016*
X02057*
X02056*
X02052Y03017*
X02049Y03017*
X02044Y03017*
X0204Y03017*
X02037Y03018*
X02035Y03019*
X02031Y0302*
X02023Y03025*
X02018Y03033*
X02016Y03042*
X02016Y03043*
X02016Y03044*
Y03045*
X02016Y03045*
Y0507*
X02016*
X02017Y05078*
X02023Y05086*
X02031Y05091*
X02037Y05093*
X02042Y05093*
X02042*
G37*
%LNvapeixshield-2*%
%LPC*%
G36*
X0236Y05075D02*
X02297D01*
Y05037*
X02284*
X02283Y05039*
X02276Y05043*
X02267Y05045*
X02259Y05043*
X02252Y05039*
X02247Y05032*
X02245Y05023*
X02247Y05015*
X02252Y05007*
X02259Y05003*
X02267Y05001*
X02276Y05003*
X02283Y05007*
X02284Y05009*
X02297*
Y04961*
X0236*
Y05075*
G37*
G36*
X02454Y05065D02*
X02445Y05064D01*
X02438Y05059*
X02433Y05052*
X02432Y05043*
X02432Y05041*
X02417Y05026*
X02413Y05021*
X02412Y05016*
Y04858*
X02395*
Y04744*
X02458*
Y04858*
X0244*
Y0501*
X02452Y05022*
X02454Y05021*
X02462Y05023*
X02469Y05028*
X02474Y05035*
X02476Y05043*
X02474Y05052*
X02469Y05059*
X02462Y05064*
X02454Y05065*
G37*
G36*
X03543Y05053D02*
X03531Y05051D01*
X03519Y05046*
X03509Y05039*
X03502Y05029*
X03497Y05018*
X03496Y05017*
X03493*
X03492Y05018*
X03488Y05029*
X0348Y05039*
X0347Y05046*
X03459Y05051*
X03446Y05053*
X03434Y05051*
X03422Y05046*
X03413Y05039*
X03405Y05029*
X034Y05017*
X034Y05012*
X03395*
X03394Y05017*
X03389Y05029*
X03382Y05039*
X03372Y05046*
X0336Y05051*
X03348Y05053*
X03336Y05051*
X03324Y05046*
X03314Y05039*
X03307Y05029*
X03302Y05017*
X033Y05005*
X03302Y04993*
X03307Y04981*
X03314Y04971*
X03324Y04964*
X03336Y04959*
X03348Y04957*
X0336Y04959*
X03372Y04964*
X03382Y04971*
X03389Y04981*
X03394Y04993*
X03395Y04998*
X034*
X034Y04993*
X03405Y04981*
X03413Y04971*
X03422Y04964*
X03434Y04959*
X03446Y04957*
X03459Y04959*
X0347Y04964*
X0348Y04971*
X03488Y04981*
X03492Y04992*
X03493Y04993*
X03496*
X03497Y04992*
X03502Y04981*
X03509Y04971*
X03519Y04964*
X03529Y0496*
Y04679*
X03405Y04555*
X03404Y04555*
X034Y04557*
Y0456*
Y04607*
Y04637*
X03438Y04675*
X03443Y04681*
X03446Y04688*
X03447Y04695*
Y04837*
X03446Y04844*
X03443Y0485*
X03438Y04856*
X03353Y04941*
X03348Y04946*
X03341Y04949*
X03334Y04949*
X03025*
X03018Y04949*
X03012Y04946*
X03006Y04941*
X02934Y04869*
X02929Y04864*
X02927Y04857*
X02926Y0485*
Y04807*
X02922Y04803*
X02892*
Y04764*
Y04724*
X02922*
Y04726*
X02987*
Y04745*
X03014*
X03023Y04736*
Y04669*
X03014*
X03009Y04668*
X03004Y04665*
X03001Y04661*
X03001Y04657*
X02995Y04655*
X02987Y04664*
X02982Y04667*
X02977Y04668*
X02961*
Y04678*
X02916*
Y04636*
X02911Y04634*
X0291Y04635*
Y04649*
X02885*
X02861*
Y04643*
X02856Y04641*
X02849Y04648*
Y0472*
X02851Y04724*
X02882*
Y04764*
Y04803*
X02851*
Y04765*
X02846Y04764*
X02845Y04765*
X02822Y04788*
X02818Y04791*
X02812Y04792*
X02765*
Y04801*
X02718*
Y04792*
X02715*
X0271Y04791*
X02706Y04788*
X02687Y04769*
X02684Y04765*
X02683Y04759*
Y04683*
X02681Y04682*
X02677Y04675*
X02675Y04666*
X02677Y04658*
X02681Y04651*
X02689Y04646*
X02697Y04644*
X02705Y04646*
X02713Y04651*
X02717Y04658*
X02719Y04666*
X02717Y04675*
X02713Y04682*
X02711Y04683*
Y04754*
X02715Y04757*
X02718Y04755*
X02765*
Y04764*
X02807*
X02821Y0475*
Y04713*
X02816Y04711*
X02789Y04738*
X02783Y04741*
X02776Y04743*
X02765*
Y04747*
X02718*
Y04702*
X02765*
Y04703*
X0277Y04705*
X02788Y04687*
Y04622*
X0279Y04615*
X02794Y04609*
X02814Y04589*
X02815Y04585*
X02819Y04578*
X02826Y04573*
X02835Y04571*
X02843Y04573*
X02851Y04578*
X02855Y04585*
X02856Y04586*
X02861Y04586*
Y0457*
X0288*
Y04591*
X02862*
X02858Y04592*
X02857Y04593*
X02857Y04598*
X0286Y04602*
X02861Y04602*
X02949*
X02951Y04597*
X02942Y04588*
X02916*
Y04541*
X02961*
Y04568*
X02976Y04582*
X02995*
X02996Y04581*
X03042*
X03085*
X03084Y04583*
X03081Y04588*
X03081Y04588*
X03082Y04591*
X03083Y04596*
X03082Y04601*
X03079Y04606*
X03082Y0461*
X03083Y04616*
X03082Y04621*
X03079Y04626*
X03082Y0463*
X03083Y04635*
X03082Y04641*
X03079Y04645*
X03082Y0465*
X03083Y04655*
X03082Y04661*
X03079Y04665*
X03075Y04668*
X03069Y04669*
X03059*
Y04744*
X03058Y04751*
X03054Y04756*
X03034Y04776*
X03028Y0478*
X03021Y04782*
X02987*
Y04801*
X02981*
Y04838*
X03037Y04894*
X03051*
X03053Y04889*
X03048Y04883*
X03045Y04876*
X03045Y04869*
Y0482*
X03045Y04813*
X03048Y04806*
X03049Y04806*
Y04797*
X03058*
X03058Y04796*
X03065Y04793*
X03072Y04793*
X0308Y04793*
X03086Y04796*
X03087Y04797*
X03096*
X031Y04794*
Y04791*
X03131*
Y04759*
X03123*
Y04734*
X03122Y04734*
X03117Y04737*
Y04761*
X03097*
Y04735*
Y04709*
X03101Y04704*
X03101Y04703*
Y0465*
X03102Y04645*
X03105Y0464*
X03139Y04606*
X03144Y04603*
X03149Y04602*
X03158*
X03162Y04597*
X03162Y04596*
X03163Y04591*
X03166Y04586*
X03163Y04582*
X03162Y04576*
X03163Y04571*
X03166Y04566*
X0317Y04563*
X03176Y04562*
X03189*
Y04521*
X03166Y04498*
X02816*
X0278Y04534*
Y0454*
X02788*
Y04587*
X02743*
Y0454*
X02752*
Y04528*
X02753Y04523*
X02756Y04519*
X02801Y04474*
X02805Y04471*
X02811Y0447*
X02867*
Y04463*
X02731*
X02726Y04462*
X02721Y04459*
X02709Y04447*
X02706Y04442*
X02705Y04437*
Y04433*
X02694*
Y0439*
Y04351*
X02705*
Y04348*
X02706Y04343*
X02709Y04338*
X02726Y04321*
X02731Y04318*
X02736Y04317*
X02867*
Y04307*
X02912*
Y04354*
X02867*
Y04345*
X02746*
X02745Y04346*
X02745Y04351*
Y0439*
Y04432*
X02749Y04434*
X02753Y04432*
Y0439*
Y04351*
X02804*
Y04358*
X02841*
X02846Y04359*
X02851Y04362*
X02862Y04373*
X02867Y04371*
Y04366*
X02912*
Y04414*
X02867*
Y04404*
X02859*
X02853Y04403*
X02849Y044*
X02835Y04386*
X0282*
X02818Y04391*
X02818Y04391*
X02825Y04396*
X0283Y04403*
X02832Y04412*
X0283Y0442*
X02825Y04427*
X02821Y0443*
X02823Y04435*
X02867*
Y04425*
X02912*
Y0447*
X0292*
Y04425*
X02965*
X0297Y04428*
X02975Y04427*
X02983Y04429*
X0299Y04433*
X02995Y04441*
X02997Y04449*
X02995Y04457*
X0299Y04465*
X0299Y04465*
X02991Y0447*
X03153*
X03155Y04465*
X03152Y04463*
X03147Y04456*
X03145Y04447*
X03147Y04439*
X03152Y04432*
X03159Y04427*
X03167Y04425*
X03176Y04427*
X03183Y04432*
X03184Y04433*
X03195*
X032Y04434*
X03205Y04437*
X03256Y04489*
X03261Y04487*
Y04465*
X03257Y04463*
X03252Y04456*
X03251Y04447*
X03252Y04439*
X03257Y04432*
X03264Y04427*
X03269Y04426*
X03271Y0442*
X03252Y04402*
X03157*
X03152Y04401*
X0315Y044*
X03137*
X03134*
X03132Y044*
X03104*
Y044*
X03093*
X03091Y044*
X02965*
Y04414*
X0292*
Y04366*
X02965*
Y04372*
X02995*
Y04348*
X0299Y04346*
X0299Y04346*
X02983Y04351*
X02975Y04353*
X0297Y04352*
X02965Y04354*
X0292*
Y04307*
X02965*
X0297Y0431*
X02975Y04309*
X02983Y0431*
X0299Y04315*
X0299Y04315*
X02995Y04314*
Y04253*
X0299Y04252*
X0299Y04252*
X02983Y04257*
X02975Y04258*
X0297Y04258*
X02965Y0426*
X0292*
Y04213*
X02965*
X0297Y04215*
X02975Y04214*
X02983Y04216*
X0299Y04221*
X0299Y04221*
X02995Y04219*
Y04194*
X0299Y04191*
X02987Y04191*
X02965*
Y04201*
X0292*
Y04154*
X02965*
Y04163*
X02981*
X02995Y04149*
Y04135*
X0299Y04134*
X0299Y04134*
X02983Y04139*
X02975Y0414*
X0297Y0414*
X02965Y04142*
X0292*
Y04095*
X02965*
X0297Y04097*
X02975Y04096*
X02983Y04098*
X0299Y04103*
X0299Y04103*
X02995Y04101*
Y04088*
X02717*
X02712Y04087*
X02707Y04084*
X02667Y04044*
X02664Y04039*
X02663Y04034*
Y03867*
X02664Y03862*
X02667Y03857*
X02683Y03841*
X02683Y03839*
X02685Y03831*
X0269Y03823*
X02697Y03819*
X02705Y03817*
X02708Y03812*
X02706Y0381*
X02705Y03804*
Y03795*
X02694*
Y03752*
Y03713*
X02705*
Y03711*
X02706Y03706*
X02709Y03701*
X0272Y03691*
X0272Y03691*
X02719Y03686*
X02707*
X02576Y03817*
Y04346*
X02574Y0436*
X02569Y04373*
X02561Y04384*
X02481Y04463*
X0247Y04472*
X02457Y04477*
X02443Y04479*
X02306*
X02303Y04484*
X02306Y04487*
X02309Y04495*
X0231Y04504*
X02309Y04513*
X02306Y04521*
X023Y04528*
X02293Y04533*
X02285Y04536*
X02276Y04538*
X02268Y04536*
X0226Y04533*
X02253Y04528*
X02247Y04521*
X02244Y04513*
X02243Y04504*
X02244Y04495*
X02247Y04487*
X02253Y0448*
X02255Y04478*
X02254Y04473*
X0225Y04472*
X02238Y04463*
X0223Y04452*
X02225Y04439*
X02223Y04425*
X02225Y04411*
X0223Y04398*
X02238Y04387*
X0225Y04379*
X02252Y04378*
X02252Y04373*
X02251Y04372*
X02245Y04364*
X02242Y04356*
X02241Y04351*
X02276*
X02312*
X02311Y04356*
X02307Y04364*
X02305Y04367*
X02308Y04372*
X02421*
X02469Y04324*
Y03794*
X02471Y0378*
X02476Y03768*
X02485Y03756*
X02635Y03606*
X02646Y03598*
X02659Y03593*
X02673Y03591*
X02674Y03591*
X02679Y0359*
X02927*
X0294Y03577*
X02939Y03572*
X02906*
Y0356*
X02877*
X02873Y03566*
X02868Y03569*
Y03579*
X02842*
X02839Y0358*
X02755*
X02742Y03578*
X02731Y03573*
X02721Y03566*
X02691Y03535*
X02282*
X02163Y03654*
Y03979*
X02214Y0403*
X02248*
X0225Y04026*
X02248Y04023*
X02245Y04014*
X02244Y0401*
X02279*
X02315*
X02314Y04014*
X02311Y04023*
X02305Y0403*
X02303Y04031*
X02304Y04036*
X02306Y04037*
X02317Y04046*
X02326Y04057*
X02331Y0407*
X02333Y04084*
X02331Y04098*
X02326Y0411*
X02317Y04122*
X02306Y0413*
X02293Y04135*
X02279Y04137*
X02192*
X02178Y04135*
X0217Y04132*
X02165Y0413*
X02154Y04122*
X02071Y04039*
X02063Y04028*
X02057Y04015*
X02055Y04001*
Y03632*
X02057Y03618*
X02063Y03605*
X02071Y03594*
X02221Y03444*
X02233Y03435*
X02238Y03433*
X02245Y0343*
X02259Y03428*
X02705*
X02719Y0343*
X02732Y03435*
X02743Y03444*
X02751Y03455*
X02755Y03465*
X02774Y03484*
X02809*
X02813Y03483*
Y03479*
Y03462*
X02839*
X02865*
Y03482*
X02868Y03485*
Y03486*
Y03495*
X02873Y03498*
X02877Y03504*
X02905*
X02906Y035*
Y03479*
X02906Y03478*
Y03438*
X02907Y03432*
X0291Y03428*
X02912Y03426*
X0291Y03421*
X02907*
Y034*
X02886Y03379*
X02839*
X02835Y03381*
X02827Y03383*
X02818Y03381*
X02811Y03376*
X02806Y03369*
X02805Y0336*
X02806Y03352*
X02811Y03345*
X02818Y0334*
X02827Y03338*
X02835Y0334*
X02839Y03342*
X02893*
X029Y03344*
X02906Y03348*
X02932Y03373*
X02953*
Y03411*
X02957Y03413*
X0296Y0341*
Y03373*
X02969*
Y03362*
X0297Y03357*
X02973Y03352*
X02979Y03347*
Y03322*
X02969*
Y03308*
X02959*
Y03322*
X02946*
Y03304*
X02912*
Y03315*
X02867*
Y03268*
X02912*
Y0328*
X02959*
Y03251*
X02956Y03247*
X02955Y03239*
X02956Y0323*
X02961Y03223*
X02968Y03218*
X02977Y03217*
X02985Y03218*
X02992Y03223*
X02997Y0323*
X02999Y03239*
X02998Y03242*
X03001Y03246*
X03002*
Y0326*
X03012*
Y03246*
X03025*
Y03256*
X0303Y03258*
X03044Y03244*
X03047Y03242*
X03052Y03241*
X03079*
Y0323*
X03126*
Y03275*
X03079*
Y03265*
X03057*
X03037Y03285*
X03033Y03287*
X03029Y03288*
X0301*
Y03318*
X03007*
Y03353*
X03006Y03358*
X03003Y03363*
X02997Y03368*
Y03373*
X03006*
Y03402*
X0301Y03404*
X03054Y0336*
X03058Y03357*
X03064Y03356*
X03079*
Y03348*
X0312*
X03121Y03346*
X03121Y03343*
X03117Y0334*
X03105Y03329*
X03079*
Y03283*
X03126*
Y0331*
X03133Y03316*
X03147*
X03147Y03314*
X03152Y03308*
X03157Y03304*
Y03264*
X03156Y03263*
X03151Y03255*
X03149Y03247*
X03151Y03238*
X03156Y03231*
X03163Y03227*
X03171Y03225*
X0318Y03227*
X03187Y03231*
X03192Y03238*
X03194Y03247*
X03192Y03255*
X03187Y03263*
X03186Y03264*
Y03304*
X03191Y03308*
X03196Y03314*
X03198Y03321*
X03199Y03328*
X03198Y03335*
X03196Y03342*
X03191Y03348*
X03185Y03352*
X03179Y03355*
X03171Y03356*
X03164Y03355*
X03158Y03352*
X03152Y03348*
X03149Y03344*
X0313*
X03127Y03348*
X0313Y03352*
X03141*
X03148Y03354*
X03154Y03358*
X03169Y03373*
X0317Y03372*
X03178Y03371*
X03187Y03372*
X0319Y03375*
X03212*
X03217Y03373*
Y0337*
Y03328*
X03228*
X03233Y03327*
X03237Y03328*
X03264*
Y03336*
X03301*
X03303Y03333*
X03307Y03328*
X03313Y03323*
X03319Y0332*
X03327Y03319*
X03334Y0332*
X03341Y03323*
X03344Y03326*
X03349Y03323*
X03348Y0332*
X0335Y03311*
X03355Y03304*
X03362Y033*
X0337Y03298*
X03379Y033*
X03386Y03304*
X03391Y03311*
X03392Y0332*
X03391Y03328*
X03386Y03336*
X03384Y03337*
X03383Y03342*
X0338Y03346*
X03369Y03357*
X03364Y0336*
X03359Y03361*
X03351*
X03346Y03367*
X03341Y03371*
X03334Y03374*
X03327Y03375*
X03319Y03374*
X03313Y03371*
X03307Y03367*
X03305Y03365*
X03264*
Y03373*
X03232*
X0323Y03378*
X03233Y0338*
X03249Y03396*
X03253Y03402*
X03254Y03409*
Y03421*
X0326*
Y03466*
X03213*
Y03421*
X03216*
X03217Y03416*
X03213Y03411*
X0319*
X03187Y03413*
X03178Y03415*
X0317Y03413*
X03166Y03411*
X03163*
X03156Y0341*
X03151Y03406*
X03133Y03388*
X03126*
Y03393*
X03079*
Y03384*
X0307*
X03002Y03452*
X03004Y03456*
X0301*
Y03464*
X03018*
X03022Y03458*
X03024Y03457*
Y03446*
X03025Y0344*
X03028Y03436*
X0305Y03414*
X03054Y03411*
X0306Y03409*
X03079*
Y03401*
X03126*
Y03446*
X03079*
Y03438*
X03066*
X03052Y03451*
Y03457*
X03053Y03458*
X03058Y03466*
X0306Y03474*
X03058Y03482*
X03053Y0349*
X03046Y03494*
X03038Y03496*
X03029Y03494*
X03027Y03493*
X03024Y03493*
X03024Y03495*
X03024Y03499*
X03032Y03505*
X0304Y03515*
X03045Y03527*
X03045Y03531*
X03073*
Y03512*
X03077Y03509*
Y03507*
Y03489*
X03103*
X03128*
Y03509*
X03132Y03512*
Y03513*
Y03606*
X03073*
Y03587*
X03055*
X03052Y03591*
X03052Y03593*
X03053Y036*
X03052Y03607*
X0305Y03614*
X03045Y03619*
X03039Y03624*
X03033Y03627*
X03025Y03628*
X03025Y03627*
X0298Y03672*
X02971Y03679*
X02965Y03681*
Y03687*
X02993*
X02998Y03688*
X03003Y03691*
X03031Y0372*
X03034Y03724*
X03035Y03729*
Y0377*
X03037Y03771*
X03042Y03778*
X03044Y03786*
X03042Y03795*
X03037Y03802*
X03035Y03803*
Y03813*
X0304Y03815*
X03041Y03815*
X0305Y03813*
X03056Y03814*
X03061Y03811*
Y03797*
X03077*
X03131*
Y03795*
X0315*
Y03811*
X03155*
Y03816*
X03179*
Y03822*
X03205*
X0321Y03823*
X03215Y03826*
X03237Y03848*
X0324Y03853*
X03241Y03858*
Y03909*
X0324Y03914*
X03237Y03919*
X03223Y03933*
X03225Y03938*
X03248*
X03249Y03937*
X03256Y03932*
X03265Y0393*
X03273Y03932*
X03278Y03935*
X03283Y03933*
Y03924*
X03284Y03919*
X03287Y03914*
X03314Y03888*
X03318Y03885*
X03324Y03883*
X03364*
Y03874*
X03409*
Y03921*
X03364*
Y03912*
X0333*
X03311Y0393*
Y03938*
X03316Y0394*
X03318Y03937*
X03325Y03932*
X03334Y0393*
X03342Y03932*
X03349Y03937*
X03353Y03943*
X03364*
Y03933*
X03409*
Y0398*
X03364*
Y03971*
X03346*
X03342Y03973*
X03334Y03975*
X03325Y03973*
X03318Y03968*
X03316Y03965*
X03311Y03967*
Y03972*
X03313Y03973*
X03318Y03981*
X03319Y03989*
X03319Y03993*
X03319Y03994*
X03323Y03997*
X0333Y03995*
X03338Y03997*
X03345Y04002*
X03364*
Y03992*
X03409*
Y04039*
X03364*
Y0403*
X03347*
X03345Y04033*
X03338Y04038*
X03336Y04038*
X03335Y04043*
Y04043*
X03334Y04043*
X03333Y04045*
X03332Y04047*
Y04048*
X03331*
X03319Y0406*
X03314Y04063*
X03309Y04064*
X0329*
Y0409*
X03295Y04093*
X03301Y04092*
X0331Y04094*
X03317Y04098*
X03318Y041*
X03364*
Y0409*
X03409*
Y04138*
X03364*
Y04128*
X03318*
X03317Y0413*
X0331Y04134*
X03301Y04136*
X03295Y04135*
X0329Y04138*
Y04141*
X03274*
X0322*
Y04143*
X03201*
Y04127*
X03191*
Y04143*
X03177*
X03174*
X03171Y04148*
X03185Y04161*
X03364*
Y0415*
X03409*
Y04197*
X03364*
Y04189*
X03301*
X03298Y04194*
X03301Y042*
X03303Y04208*
X03301Y04216*
X03297Y04224*
X03289Y04228*
X03281Y0423*
X03274Y04229*
X03273Y04229*
X03271Y04231*
X0327Y04233*
X03271Y04236*
Y0434*
X03591Y0466*
X03812*
X03818Y04661*
X03822Y04664*
X04016Y04859*
X04019Y04863*
X0402Y04868*
Y0496*
X0403Y04964*
X0404Y04971*
X04048Y04981*
X04052Y04993*
X04054Y05001*
X04054Y05004*
X04059*
X04059Y05001*
X0406Y04993*
X04065Y04981*
X04073Y04971*
X04082Y04964*
X04088Y04961*
Y04893*
X03755Y04559*
X03751Y04553*
X03749Y04546*
Y04454*
X03734*
Y04378*
X03749*
Y04141*
X03734*
Y04065*
X03801*
Y04141*
X03786*
Y04378*
X03801*
Y04454*
X03786*
Y04539*
X04119Y04872*
X04123Y04878*
X04124Y04885*
Y04961*
X0413Y04964*
X0414Y04971*
X04148Y04981*
X04152Y04993*
X04154Y05005*
X04152Y05017*
X04148Y05029*
X0414Y05039*
X0413Y05046*
X04119Y05051*
X04106Y05053*
X04094Y05051*
X04082Y05046*
X04073Y05039*
X04065Y05029*
X0406Y05017*
X04059Y05009*
X04059Y05006*
X04054*
X04054Y05009*
X04052Y05017*
X04048Y05029*
X0404Y05039*
X0403Y05046*
X04019Y05051*
X04006Y05053*
X03994Y05051*
X03982Y05046*
X03973Y05039*
X03965Y05029*
X0396Y05017*
X03959Y05009*
X03959Y05006*
X03954*
X03954Y05009*
X03952Y05017*
X03948Y05029*
X0394Y05039*
X0393Y05046*
X03919Y05051*
X03906Y05053*
X03894Y05051*
X03882Y05046*
X03873Y05039*
X03865Y05029*
X0386Y05017*
X03859Y05009*
X03859Y05006*
X03854*
X03854Y05009*
X03852Y05017*
X03848Y05029*
X0384Y05039*
X0383Y05046*
X03819Y05051*
X03806Y05053*
X03794Y05051*
X03782Y05046*
X03773Y05039*
X03765Y05029*
X0376Y05017*
X03759Y05005*
X0376Y04993*
X03765Y04981*
X03773Y04971*
X03782Y04964*
X03794Y04959*
X03806Y04957*
X03819Y04959*
X0383Y04964*
X0384Y04971*
X03848Y04981*
X03852Y04993*
X03854Y05001*
X03854Y05004*
X03859*
X03859Y05001*
X0386Y04993*
X03865Y04981*
X03873Y04971*
X03882Y04964*
X03894Y04959*
X03906Y04957*
X03919Y04959*
X0393Y04964*
X0394Y04971*
X03948Y04981*
X03952Y04993*
X03954Y05001*
X03954Y05004*
X03959*
X03959Y05001*
X0396Y04993*
X03965Y04981*
X03973Y04971*
X03982Y04964*
X03992Y0496*
Y04874*
X03806Y04688*
X03585*
X0358Y04687*
X03575Y04684*
X03562Y04671*
X03558Y04673*
X03557Y04673*
Y0496*
X03567Y04964*
X03577Y04971*
X03584Y04981*
X03589Y04993*
X03591Y05005*
X03589Y05017*
X03584Y05029*
X03577Y05039*
X03567Y05046*
X03556Y05051*
X03543Y05053*
G37*
G36*
X04403D02*
X04391Y05051D01*
X04379Y05046*
X04369Y05039*
X04362Y05029*
X04357Y05018*
X04356Y05017*
X04353*
X04352Y05018*
X04348Y05029*
X0434Y05039*
X0433Y05046*
X04319Y05051*
X04306Y05053*
X04294Y05051*
X04282Y05046*
X04273Y05039*
X04265Y05029*
X0426Y05017*
X0426Y05012*
X04255*
X04254Y05017*
X04249Y05029*
X04242Y05039*
X04232Y05046*
X0422Y05051*
X04208Y05053*
X04196Y05051*
X04184Y05046*
X04174Y05039*
X04167Y05029*
X04162Y05017*
X0416Y05005*
X04162Y04993*
X04167Y04981*
X04174Y04971*
X04184Y04964*
X04196Y04959*
X04208Y04957*
X0422Y04959*
X04232Y04964*
X04242Y04971*
X04249Y04981*
X04254Y04993*
X04255Y04998*
X0426*
X0426Y04993*
X04265Y04981*
X04273Y04971*
X04282Y04964*
X04288Y04961*
Y049*
X04091Y04703*
X04087Y04697*
X04086Y0469*
Y04454*
X04071*
Y04378*
X04086*
Y04141*
X04071*
Y04065*
X04137*
Y04141*
X04122*
Y04378*
X04137*
Y04454*
X04122*
Y04683*
X04319Y0488*
X04323Y04886*
X04324Y04893*
Y04961*
X0433Y04964*
X0434Y04971*
X04348Y04981*
X04352Y04992*
X04353Y04993*
X04356*
X04357Y04992*
X04362Y04981*
X04369Y04971*
X04379Y04964*
X04391Y04959*
X04403Y04957*
X04416Y04959*
X04427Y04964*
X04437Y04971*
X04444Y04981*
X04449Y04993*
X04451Y05005*
X04449Y05017*
X04444Y05029*
X04437Y05039*
X04427Y05046*
X04416Y05051*
X04403Y05053*
G37*
G36*
X03041Y05054D02*
X03033Y05053D01*
X03021Y05048*
X03011Y0504*
X03003Y0503*
X02998Y05018*
X02998Y05015*
X02993*
X02992Y05017*
X02988Y05029*
X0298Y05039*
X0297Y05046*
X02959Y05051*
X02946Y05053*
X02934Y05051*
X02922Y05046*
X02913Y05039*
X02905Y05029*
X029Y05017*
X02899Y05009*
X02899Y05006*
X02894*
X02894Y05009*
X02892Y05017*
X02888Y05029*
X0288Y05039*
X0287Y05046*
X02859Y05051*
X02846Y05053*
X02834Y05051*
X02822Y05046*
X02813Y05039*
X02805Y05029*
X028Y05017*
X02799Y05009*
X02799Y05006*
X02794*
X02794Y05009*
X02792Y05017*
X02788Y05029*
X0278Y05039*
X0277Y05046*
X02759Y05051*
X02746Y05053*
X02734Y05051*
X02722Y05046*
X02713Y05039*
X02705Y05029*
X027Y05017*
X02699Y05005*
X027Y04993*
X02705Y04981*
X02713Y04971*
X02722Y04964*
X02734Y04959*
X02746Y04957*
X02759Y04959*
X0277Y04964*
X0278Y04971*
X02788Y04981*
X02792Y04993*
X02794Y05002*
X02794Y05004*
X02799*
X02799Y05002*
X028Y04993*
X02805Y04981*
X02813Y04971*
X02822Y04964*
X02834Y04959*
X02846Y04957*
X02859Y04959*
X0287Y04964*
X0288Y04971*
X02888Y04981*
X02892Y04993*
X02894Y05002*
X02894Y05004*
X02899*
X02899Y05002*
X029Y04993*
X02905Y04981*
X02913Y04971*
X02922Y04964*
X02934Y04959*
X02946Y04957*
X02959Y04959*
X0297Y04964*
X0298Y04971*
X02988Y04981*
X02992Y04993*
X02993Y04996*
X02998*
X02998Y04992*
X03003Y0498*
X03011Y0497*
X03021Y04962*
X03033Y04957*
X03041Y04956*
Y05005*
Y05054*
G37*
G36*
X0369Y05052D02*
X03596D01*
Y04958*
X0369*
Y05052*
G37*
G36*
X0455Y05052D02*
X04456D01*
Y04958*
X0455*
Y05052*
G37*
G36*
X03051Y05054D02*
Y05005D01*
Y04956*
X03059Y04957*
X03071Y04962*
X03082Y0497*
X03089Y0498*
X03094Y04992*
X03095Y04996*
X031*
X031Y04993*
X03105Y04981*
X03113Y04971*
X03122Y04964*
X03134Y04959*
X03146Y04957*
X03159Y04959*
X0317Y04964*
X0318Y04971*
X03188Y04981*
X03192Y04993*
X03194Y05002*
X03194Y05004*
X03199*
X03199Y05002*
X032Y04993*
X03205Y04981*
X03213Y04971*
X03222Y04964*
X03234Y04959*
X03246Y04957*
X03259Y04959*
X0327Y04964*
X0328Y04971*
X03288Y04981*
X03292Y04993*
X03294Y05005*
X03292Y05017*
X03288Y05029*
X0328Y05039*
X0327Y05046*
X03259Y05051*
X03246Y05053*
X03234Y05051*
X03222Y05046*
X03213Y05039*
X03205Y05029*
X032Y05017*
X03199Y05009*
X03199Y05006*
X03194*
X03194Y05009*
X03192Y05017*
X03188Y05029*
X0318Y05039*
X0317Y05046*
X03159Y05051*
X03146Y05053*
X03134Y05051*
X03122Y05046*
X03113Y05039*
X03105Y05029*
X031Y05017*
X031Y05015*
X03095*
X03094Y05018*
X03089Y0503*
X03082Y0504*
X03071Y05048*
X03059Y05053*
X03051Y05054*
G37*
G36*
X02924Y04928D02*
X02916Y04926D01*
X02909Y04921*
X02904Y04914*
X02902Y04905*
X02904Y04897*
X02909Y0489*
X02916Y04885*
X02924Y04883*
X02933Y04885*
X0294Y0489*
X02945Y04897*
X02946Y04905*
X02945Y04914*
X0294Y04921*
X02933Y04926*
X02924Y04928*
G37*
G36*
X02261Y04858D02*
X02198D01*
Y04815*
X02191*
X02186Y04814*
X02181Y04811*
X0218Y0481*
X02178Y0481*
X0217Y04808*
X02162Y04803*
X02158Y04796*
X02156Y04788*
X02158Y04779*
X02162Y04772*
X0217Y04767*
X02178Y04766*
X02186Y04767*
X02193Y04772*
X02198Y04771*
Y04744*
X02261*
Y04858*
G37*
G36*
X03087Y04761D02*
X03067D01*
Y0474*
X03087*
Y04761*
G37*
G36*
Y0473D02*
X03067D01*
Y04709*
X03087*
Y0473*
G37*
G36*
X0291Y0468D02*
X0289D01*
Y04659*
X0291*
Y0468*
G37*
G36*
X0288D02*
X02861D01*
Y04659*
X0288*
Y0468*
G37*
G36*
X0291Y04591D02*
X0289D01*
Y0457*
X0291*
Y04591*
G37*
G36*
X02737Y04589D02*
X02718D01*
Y04568*
X02737*
Y04589*
G37*
G36*
X02708D02*
X02688D01*
Y04568*
X02708*
Y04589*
G37*
G36*
X03085Y04571D02*
X03047D01*
Y0456*
X03069*
X03076Y04561*
X03081Y04565*
X03084Y0457*
X03085Y04571*
G37*
G36*
X03037D02*
X02999D01*
X02999Y0457*
X03003Y04565*
X03008Y04561*
X03014Y0456*
X03037*
Y04571*
G37*
G36*
X02276Y04616D02*
X02268Y04615D01*
X0226Y04612*
X02253Y04606*
X02247Y04599*
X02244Y04591*
X02243Y04583*
X02244Y04574*
X02247Y04566*
X02253Y04559*
X0226Y04553*
X02268Y0455*
X02276Y04549*
X02285Y0455*
X02293Y04553*
X023Y04559*
X02306Y04566*
X02309Y04574*
X0231Y04583*
X02309Y04591*
X02306Y04599*
X023Y04606*
X02293Y04612*
X02285Y04615*
X02276Y04616*
G37*
G36*
X0291Y0456D02*
X0289D01*
Y04539*
X0291*
Y0456*
G37*
G36*
X0288D02*
X02861D01*
Y04539*
X0288*
Y0456*
G37*
G36*
X03715Y04583D02*
X03706Y04581D01*
X03699Y04576*
X03694Y04569*
X03693Y04561*
X03694Y04552*
X03699Y04545*
X03706Y0454*
X03715Y04539*
X03723Y0454*
X0373Y04545*
X03735Y04552*
X03737Y04561*
X03735Y04569*
X0373Y04576*
X03723Y04581*
X03715Y04583*
G37*
G36*
X02737Y04558D02*
X02718D01*
Y04538*
X02737*
Y04558*
G37*
G36*
X02708D02*
X02688D01*
Y04538*
X02708*
Y04558*
G37*
G36*
X02819Y04567D02*
X0281Y04565D01*
X02803Y0456*
X02798Y04553*
X02797Y04545*
X02798Y04536*
X02803Y04529*
X0281Y04524*
X02819Y04522*
X02827Y04524*
X02834Y04529*
X02839Y04536*
X02841Y04545*
X02839Y04553*
X02834Y0456*
X02827Y04565*
X02819Y04567*
G37*
G36*
X04445Y04486D02*
X04436Y04484D01*
X04429Y04479*
X04424Y04472*
X04423Y04463*
X04424Y04455*
X04429Y04448*
X04436Y04443*
X04445Y04441*
X04453Y04443*
X0446Y04448*
X04465Y04455*
X04467Y04463*
X04465Y04472*
X0446Y04479*
X04453Y04484*
X04445Y04486*
G37*
G36*
X04317Y04457D02*
X04286D01*
Y04421*
X04317*
Y04457*
G37*
G36*
X04276D02*
X04246D01*
Y04421*
X04276*
Y04457*
G37*
G36*
X0398D02*
X0395D01*
Y04421*
X0398*
Y04457*
G37*
G36*
X0394D02*
X03909D01*
Y04421*
X0394*
Y04457*
G37*
G36*
X04317Y04411D02*
X04286D01*
Y04376*
X04317*
Y04411*
G37*
G36*
X04276D02*
X04246D01*
Y04376*
X04276*
Y04411*
G37*
G36*
X0398D02*
X0395D01*
Y04375*
X0398*
Y04411*
G37*
G36*
X0394D02*
X03909D01*
Y04375*
X0394*
Y04411*
G37*
G36*
X02312Y04341D02*
X02281D01*
Y04311*
X02286Y04312*
X02294Y04315*
X02302Y04321*
X02307Y04328*
X02311Y04337*
X02312Y04341*
G37*
G36*
X02271D02*
X02241D01*
X02242Y04337*
X02245Y04328*
X02251Y04321*
X02258Y04315*
X02267Y04312*
X02271Y04311*
Y04341*
G37*
G36*
X03609Y04542D02*
X03601Y04541D01*
X03594Y04536*
X03589Y04529*
X03587Y0452*
X03589Y04512*
X03594Y04505*
X03601Y045*
X03609Y04498*
X03611Y04499*
X03701Y04409*
Y04264*
X03696Y04263*
X03694Y04266*
X0369Y04272*
X0352Y04443*
Y04508*
X03519Y04515*
X03516Y04522*
X03511Y04528*
X03506Y04532*
X03499Y04535*
X03492Y04536*
X03485Y04535*
X03478Y04532*
X03472Y04528*
X03468Y04522*
X03465Y04515*
X03464Y04508*
Y04431*
X03465Y04424*
X03468Y04417*
X03472Y04411*
X03642Y04241*
Y03441*
X03387Y03185*
X03382Y03179*
X03379Y03173*
X03379Y03165*
Y03143*
X03373Y03139*
X03365Y03129*
X0336Y03117*
X03359Y03109*
X03359Y03106*
X03354*
X03354Y03109*
X03352Y03117*
X03348Y03129*
X0334Y03139*
X0333Y03146*
X03319Y03151*
X03306Y03153*
X03294Y03151*
X03282Y03146*
X03273Y03139*
X03265Y03129*
X0326Y03117*
X03259Y03109*
X03259Y03106*
X03254*
X03254Y03109*
X03252Y03117*
X03248Y03129*
X0324Y03139*
X0323Y03146*
X03219Y03151*
X03206Y03153*
X03194Y03151*
X03182Y03146*
X03173Y03139*
X03165Y03129*
X0316Y03117*
X03159Y03109*
X03159Y03106*
X03154*
X03154Y03109*
X03152Y03117*
X03148Y03129*
X0314Y03139*
X0313Y03146*
X03119Y03151*
X03106Y03153*
X03094Y03151*
X03082Y03146*
X03073Y03139*
X03065Y03129*
X0306Y03117*
X03059Y03105*
X0306Y03093*
X03065Y03081*
X03073Y03071*
X03082Y03064*
X03094Y03059*
X03106Y03057*
X03119Y03059*
X0313Y03064*
X0314Y03071*
X03148Y03081*
X03152Y03093*
X03154Y03101*
X03154Y03104*
X03159*
X03159Y03101*
X0316Y03093*
X03165Y03081*
X03173Y03071*
X03182Y03064*
X03194Y03059*
X03206Y03057*
X03219Y03059*
X0323Y03064*
X0324Y03071*
X03248Y03081*
X03252Y03093*
X03254Y03101*
X03254Y03104*
X03259*
X03259Y03101*
X0326Y03093*
X03265Y03081*
X03273Y03071*
X03282Y03064*
X03294Y03059*
X03306Y03057*
X03319Y03059*
X0333Y03064*
X0334Y03071*
X03348Y03081*
X03352Y03093*
X03354Y03101*
X03354Y03104*
X03359*
X03359Y03101*
X0336Y03093*
X03365Y03081*
X03373Y03071*
X03382Y03064*
X03394Y03059*
X03406Y03057*
X03419Y03059*
X0343Y03064*
X0344Y03071*
X03448Y03081*
X03452Y03093*
X03454Y03105*
X03452Y03117*
X03448Y03129*
X0344Y03139*
X03434Y03143*
Y03154*
X0369Y0341*
X03694Y03415*
X03697Y03422*
X03698Y03429*
Y03936*
X03703Y03937*
X03705Y03934*
X03849Y0379*
X03854Y03787*
X03859Y03786*
X039*
Y03777*
X03947*
Y03823*
X039*
Y03814*
X03865*
X03729Y0395*
Y04415*
X03728Y0442*
X03725Y04425*
X03631Y04518*
X03632Y0452*
X0363Y04529*
X03625Y04536*
X03618Y04541*
X03609Y04542*
G37*
G36*
X03409Y04256D02*
X03364D01*
Y04246*
X03346*
X03345Y04248*
X03338Y04253*
X0333Y04254*
X03321Y04253*
X03314Y04248*
X03309Y04241*
X03308Y04232*
X03309Y04224*
X03314Y04217*
X03321Y04212*
X0333Y0421*
X03338Y04212*
X03345Y04217*
X03346Y04218*
X03364*
Y04209*
X03409*
Y04256*
G37*
G36*
X04556Y04238D02*
X04391D01*
Y04223*
X04369*
X04365Y04225*
X04357Y04227*
X04348Y04225*
X04341Y04221*
X04336Y04213*
X04335Y04205*
X04336Y04197*
X04341Y04189*
X04348Y04185*
X04357Y04183*
X04365Y04185*
X04369Y04187*
X04391*
Y04172*
X04556*
Y04238*
G37*
G36*
X02912Y0426D02*
X02867D01*
Y0425*
X02734*
X02728Y04249*
X02724Y04246*
X02709Y04232*
X02706Y04228*
X02705Y04222*
Y04221*
X02694*
Y04177*
Y04138*
X02705*
Y04133*
X02706Y04128*
X02709Y04123*
X02724Y04108*
X02729Y04105*
X02734Y04104*
X02867*
Y04095*
X02912*
Y04142*
X02867*
Y04132*
X02744*
X02743Y04133*
X02745Y04138*
Y04177*
Y04219*
X02749Y04221*
X02753Y04219*
Y04177*
Y04138*
X02804*
Y04146*
X02843*
X02849Y04147*
X02853Y0415*
X02862Y04158*
X02867Y04156*
Y04154*
X02912*
Y04201*
X02867*
Y04191*
X02861*
X02856Y0419*
X02851Y04187*
X02838Y04174*
X0282*
X02818Y04178*
X02818Y04179*
X02825Y04183*
X0283Y04191*
X02832Y04199*
X0283Y04207*
X02825Y04215*
X02821Y04217*
X02823Y04222*
X02867*
Y04213*
X02912*
Y0426*
G37*
G36*
X04556Y04138D02*
X04391D01*
Y04123*
X04368*
X04365Y04125*
X04356Y04127*
X04348Y04125*
X04341Y04121*
X04336Y04113*
X04334Y04105*
X04336Y04097*
X04341Y04089*
X04348Y04085*
X04356Y04083*
X04365Y04085*
X04368Y04087*
X04391*
Y04072*
X04556*
Y04138*
G37*
G36*
X04317Y04144D02*
X04286D01*
Y04108*
X04317*
Y04144*
G37*
G36*
X04276D02*
X04246D01*
Y04108*
X04276*
Y04144*
G37*
G36*
X0398D02*
X0395D01*
Y04108*
X0398*
Y04144*
G37*
G36*
X0394D02*
X03909D01*
Y04108*
X0394*
Y04144*
G37*
G36*
X03462Y04256D02*
X03417D01*
Y04209*
X03462*
Y04218*
X03582*
X03591Y04209*
X03589Y04205*
X03584*
Y04161*
Y04122*
X03596*
Y04097*
X03587Y04088*
X03572*
X0357Y04093*
X03571Y04096*
X03573Y04104*
X03571Y04113*
X03569Y04116*
Y04122*
X03577*
Y04161*
Y04205*
X03525*
Y04197*
X03503*
X03498Y04196*
X03493Y04193*
X03488Y04187*
X03462*
Y04197*
X03417*
Y0415*
X03462*
Y04159*
X03493*
X03499Y0416*
X03503Y04163*
X03509Y04169*
X03525*
Y04122*
X03533*
Y04116*
X03531Y04113*
X03529Y04104*
X03531Y04096*
X03532Y04093*
X0353Y04088*
X03465*
X03462Y04091*
Y04138*
X03417*
Y0409*
X03426*
X03427Y04089*
X0343Y04084*
X03449Y04064*
X03454Y04061*
X03459Y0406*
X03593*
X03599Y04061*
X03603Y04064*
X0362Y04081*
X03623Y04086*
X03624Y04091*
Y04122*
X03636*
Y04161*
Y04205*
X03624*
Y0421*
X03623Y04216*
X0362Y0422*
X03598Y04242*
X03593Y04245*
X03588Y04246*
X03462*
Y04256*
G37*
G36*
X04648Y04283D02*
X04641Y04282D01*
X04634Y0428*
X04628Y04275*
X04624Y04269*
X04621Y04263*
X0462Y04256*
Y04238*
X04566*
Y04172*
X04628*
X0463Y04167*
X04628Y04164*
X04627Y04156*
X04628Y04147*
X04631Y04144*
Y04138*
X04566*
Y04072*
X04731*
Y04138*
X04667*
Y04144*
X04669Y04147*
X04671Y04156*
X04669Y04164*
X04667Y04167*
X0467Y04172*
X04731*
Y04238*
X04676*
Y04256*
X04675Y04263*
X04672Y04269*
X04668Y04275*
X04662Y0428*
X04655Y04282*
X04648Y04283*
G37*
G36*
X04317Y04098D02*
X04286D01*
Y04063*
X04317*
Y04098*
G37*
G36*
X04276D02*
X04246D01*
Y04063*
X04276*
Y04098*
G37*
G36*
X0398D02*
X0395D01*
Y04063*
X0398*
Y04098*
G37*
G36*
X0394D02*
X03909D01*
Y04063*
X0394*
Y04098*
G37*
G36*
X04556Y04038D02*
X04391D01*
Y04023*
X04368*
X04364Y04026*
X04356Y04027*
X04347Y04026*
X04344Y04023*
X04157*
X04153Y04026*
X04145Y04027*
X04136Y04026*
X04129Y04021*
X04124Y04014*
X04123Y04005*
X04124Y03997*
X04129Y0399*
X04136Y03985*
X04145Y03983*
X04153Y03985*
X04157Y03987*
X04344*
X04347Y03985*
X04356Y03983*
X04364Y03985*
X04368Y03987*
X04391*
Y03972*
X04556*
Y04038*
G37*
G36*
X04734Y0404D02*
X04654D01*
Y0401*
X04734*
Y0404*
G37*
G36*
X04644D02*
X04564D01*
Y0401*
X04644*
Y0404*
G37*
G36*
X04734Y04D02*
X04654D01*
Y0397*
X04734*
Y04*
G37*
G36*
X04644D02*
X04564D01*
Y0397*
X04644*
Y04*
G37*
G36*
X02315Y04D02*
X02284D01*
Y0397*
X02289Y0397*
X02297Y03974*
X02305Y0398*
X02311Y03987*
X02314Y03996*
X02315Y04*
G37*
G36*
X02274D02*
X02244D01*
X02245Y03996*
X02248Y03987*
X02254Y0398*
X02262Y03974*
X0227Y0397*
X02274Y0397*
Y04*
G37*
G36*
X03462Y04039D02*
X03417D01*
Y03992*
X03462*
Y04002*
X03581*
X03594Y03989*
X03592Y03984*
X03584*
Y0394*
Y03901*
X03596*
Y0387*
X03587Y03861*
X03566*
X03564Y03866*
X03567Y03868*
X03571Y03875*
X03573Y03883*
X03571Y03892*
X03569Y03895*
Y03901*
X03577*
Y0394*
Y03984*
X03525*
Y03976*
X03501*
X03496Y03975*
X03491Y03972*
X0349Y03971*
X03462*
Y0398*
X03417*
Y03933*
X03462*
Y03943*
X03496*
X03501Y03944*
X03506Y03947*
X03507Y03948*
X03525*
Y03901*
X03533*
Y03895*
X03531Y03892*
X03529Y03883*
X03531Y03875*
X03535Y03868*
X03538Y03866*
X03536Y03861*
X03464*
X03456Y03869*
X03458Y03874*
X03462*
Y03921*
X03417*
Y03874*
X03425*
Y03865*
X03427Y0386*
X0343Y03855*
X03448Y03837*
X03452Y03834*
X03458Y03833*
X03593*
X03599Y03834*
X03603Y03837*
X0362Y03854*
X03623Y03859*
X03624Y03864*
Y03901*
X03636*
Y0394*
Y03984*
X03624*
Y03992*
X03623Y03998*
X0362Y04002*
X03597Y04026*
X03592Y04029*
X03587Y0403*
X03462*
Y04039*
G37*
G36*
X04308Y03826D02*
X04207D01*
X04197Y03825*
X04188Y03821*
X04184Y03818*
X04159*
Y03815*
X04155Y03812*
X04146*
X04146Y03813*
X04139Y03816*
X04132Y03817*
X04094*
X04086Y03816*
X0408Y03813*
X04074Y03808*
X04069Y03803*
X04067Y03796*
X04066Y03789*
X04067Y03782*
X04069Y03775*
X04074Y03769*
X0408Y03765*
X04086Y03762*
X04094Y03761*
X04109*
Y0369*
X04109*
Y03644*
X04121*
X04123Y03643*
X04129Y0364*
X04137Y03639*
X04144Y0364*
X0415Y03643*
X04152Y03644*
X04164*
Y0369*
Y03759*
X04184*
X04188Y03756*
X04197Y03752*
X04207Y03751*
X04293*
X04298Y03746*
Y03563*
X04299Y03553*
X04303Y03544*
X04309Y03537*
X04356Y03489*
X04364Y03483*
X04373Y03479*
X04383Y03478*
X04477*
X04487Y03479*
X04496Y03483*
X04504Y03489*
X0451Y03497*
X04514Y03506*
X04515Y03515*
X04514Y03525*
X0451Y03534*
X04504Y03542*
X04496Y03548*
X04487Y03552*
X04477Y03553*
X04399*
X04373Y03579*
Y03762*
X04372Y03772*
X04368Y03781*
X04362Y03789*
X04335Y03815*
X04327Y03821*
X04318Y03825*
X04308Y03826*
G37*
G36*
X03179Y03806D02*
X0316D01*
Y03795*
X03179*
Y03806*
G37*
G36*
X03808Y03792D02*
X038Y0379D01*
X03793Y03786*
X03788Y03778*
X03786Y0377*
X03788Y03762*
X03793Y03754*
X03796Y03752*
Y03735*
X03786*
X03784Y03735*
X03751*
X03744Y03734*
X03739Y0373*
X03722Y03714*
X03718Y03708*
X03717Y03701*
Y03632*
X03718Y03625*
X03722Y03619*
X03739Y03603*
X03744Y03599*
X03751Y03598*
X03852*
X03859Y03599*
X03865Y03603*
X03869Y03608*
X03873Y03609*
X03877Y03611*
X039*
Y03606*
X03947*
Y03652*
X03925*
X03923Y03654*
X03923Y03657*
X03932Y03666*
X03934Y0367*
X03935Y03674*
Y03724*
X03947*
Y03769*
X039*
Y03724*
X03911*
Y03679*
X03909Y03677*
X0386*
X03859Y03682*
X03864Y03685*
X03869Y03693*
X03871Y03701*
X03869Y0371*
X03864Y03717*
X03857Y03721*
X03849Y03723*
X03843Y03722*
X03839Y03725*
X03824*
Y03735*
X03838*
Y03747*
X03822*
X03821Y03752*
X03824Y03754*
X03829Y03762*
X0383Y0377*
X03829Y03778*
X03824Y03786*
X03817Y0379*
X03808Y03792*
G37*
G36*
X04249Y03729D02*
X04224D01*
Y03709*
X04249*
Y03729*
G37*
G36*
X04214D02*
X04189D01*
Y03709*
X04214*
Y03729*
G37*
G36*
X0228Y03771D02*
X02272Y03769D01*
X02264Y03766*
X02257Y03761*
X02251Y03754*
X02248Y03745*
X02247Y03737*
X02248Y03728*
X02251Y0372*
X02257Y03713*
X02264Y03708*
X02272Y03704*
X0228Y03703*
X02289Y03704*
X02297Y03708*
X02304Y03713*
X0231Y0372*
X02313Y03728*
X02314Y03737*
X02313Y03745*
X0231Y03754*
X02304Y03761*
X02297Y03766*
X02289Y03769*
X0228Y03771*
G37*
G36*
X03066Y03788D02*
X03058Y03786D01*
X0305Y03782*
X03046Y03774*
X03044Y03766*
X03046Y03758*
X0305Y0375*
X03052Y03749*
Y03725*
X03053Y0372*
X03056Y03716*
X0307Y03702*
X03074Y03699*
X0308Y03698*
X03086*
X0309Y03692*
X03096Y03688*
X03102Y03685*
X0311Y03684*
X03117Y03685*
X03124Y03688*
X03129Y03692*
X03134Y03698*
X03137Y03705*
X03137Y03712*
X03137Y03719*
X03134Y03726*
X03129Y03732*
X03124Y03736*
X03117Y03739*
X0311Y0374*
X03102Y03739*
X03096Y03736*
X0309Y03732*
X03089Y0373*
X03084Y0373*
X0308Y03734*
Y03749*
X03082Y0375*
X03086Y03758*
X03088Y03766*
X03086Y03774*
X03082Y03782*
X03074Y03786*
X03066Y03788*
G37*
G36*
X04249Y03699D02*
X04224D01*
Y03679*
X04249*
Y03699*
G37*
G36*
X04214D02*
X04189D01*
Y03679*
X04214*
Y03699*
G37*
G36*
X02285Y03693D02*
Y03663D01*
X02316*
X02315Y03667*
X02312Y03676*
X02306Y03683*
X02298Y03689*
X0229Y03693*
X02285Y03693*
G37*
G36*
X02275D02*
X02271Y03693D01*
X02262Y03689*
X02255Y03683*
X02249Y03676*
X02246Y03667*
X02245Y03663*
X02275*
Y03693*
G37*
G36*
X04477Y03707D02*
X04469Y03705D01*
X0446Y03702*
X04453Y03697*
X04448Y0369*
X04445Y03682*
X04443Y03673*
X04445Y03664*
X04448Y03656*
X04453Y03649*
X0446Y03644*
X04469Y0364*
X04477Y03639*
X04486Y0364*
X04494Y03644*
X04501Y03649*
X04506Y03656*
X0451Y03664*
X04511Y03673*
X0451Y03682*
X04506Y0369*
X04501Y03697*
X04494Y03702*
X04486Y03705*
X04477Y03707*
G37*
G36*
X02275Y03653D02*
X02245D01*
X02246Y03649*
X02249Y0364*
X02255Y03633*
X02262Y03627*
X02271Y03623*
X02275Y03623*
Y03653*
G37*
G36*
X02316D02*
X02285D01*
Y03623*
X0229Y03623*
X02298Y03627*
X02306Y03633*
X02312Y0364*
X02315Y03649*
X02316Y03653*
G37*
G36*
X0339Y0367D02*
X0333D01*
X03323Y03669*
X03317Y03665*
X03294Y03643*
X0329Y03637*
X03289Y0363*
Y03615*
X03284*
Y0361*
X03257*
Y03615*
Y03615*
X03257Y0362*
X03264Y03625*
X03269Y03632*
X03271Y0364*
X03269Y03649*
X03264Y03656*
X03257Y03661*
X03249Y03662*
X0324Y03661*
X03237Y03658*
X03196*
X03189Y03657*
X03183Y03653*
X03169Y03639*
X03165Y03633*
X03163Y03626*
Y03615*
X03159*
Y03568*
X03163*
Y03557*
X03165Y0355*
X03169Y03545*
X03179Y03534*
X03185Y0353*
X03192Y03529*
X03283*
X03298Y03514*
X03298Y03512*
X03299Y03504*
X03302Y03498*
X03306Y03492*
X03312Y03488*
X03318Y03485*
X03326Y03484*
X03333Y03485*
X0334Y03488*
X03345Y03492*
X0335Y03498*
X03353Y03504*
X03353Y03512*
X03353Y03519*
X0335Y03525*
X03345Y03531*
X0334Y03536*
X03333Y03538*
X03326Y03539*
X03324Y03539*
X03303Y0356*
X03298Y03563*
X03299Y03568*
X03306*
X03307Y03568*
X03309Y03568*
X0333*
Y03615*
X03325*
Y03622*
X03337Y03634*
X03383*
X03393Y03625*
Y03466*
X0339Y03462*
X0339Y03458*
X03378Y03447*
X03347*
X03345Y03448*
X0334Y03453*
X03333Y03456*
X03326Y03457*
X03318Y03456*
X03312Y03453*
X03306Y03448*
X03302Y03443*
X03299Y03436*
X03298Y03429*
X03299Y03422*
X03302Y03415*
X03306Y03409*
X03312Y03405*
X03318Y03402*
X03326Y03401*
X03333Y03402*
X0334Y03405*
X03345Y03409*
X03347Y03411*
X03386*
X03393Y03412*
X03399Y03416*
X03415Y03433*
X03419Y03433*
X03426Y03438*
X03431Y03445*
X03433Y03454*
X03431Y03462*
X03429Y03466*
Y03632*
X03427Y03639*
X03424Y03645*
X03403Y03665*
X03397Y03669*
X0339Y0367*
G37*
G36*
X03385Y03617D02*
X03365D01*
Y03597*
X03385*
Y03617*
G37*
G36*
X03355D02*
X03335D01*
Y03597*
X03355*
Y03617*
G37*
G36*
X03385Y03587D02*
X03365D01*
Y03566*
X03385*
Y03587*
G37*
G36*
X03355D02*
X03335D01*
Y03566*
X03355*
Y03587*
G37*
G36*
X04477Y03628D02*
X04469Y03627D01*
X0446Y03623*
X04453Y03618*
X04448Y03611*
X04445Y03603*
X04443Y03594*
X04445Y03585*
X04448Y03577*
X04453Y0357*
X0446Y03565*
X04469Y03562*
X04477Y0356*
X04486Y03562*
X04494Y03565*
X04501Y0357*
X04506Y03577*
X0451Y03585*
X04511Y03594*
X0451Y03603*
X04506Y03611*
X04501Y03618*
X04494Y03623*
X04486Y03627*
X04477Y03628*
G37*
G36*
X04247Y03652D02*
X04191D01*
Y03606*
X04201*
Y03576*
X04195Y0357*
X04191Y03564*
X04189Y03557*
Y03527*
X04185*
Y0348*
X0423*
Y03527*
X04225*
Y03549*
X04232Y03556*
X04236Y03562*
X04237Y03569*
Y03606*
X04247*
Y03652*
G37*
G36*
X04177Y03527D02*
X04132D01*
Y03517*
X04105*
X041Y03516*
X04095Y03513*
X04062Y0348*
X04059Y03475*
X04058Y0347*
Y03263*
X04059Y03258*
X04062Y03253*
X04092Y03223*
Y0315*
X04082Y03146*
X04073Y03139*
X04065Y03129*
X0406Y03117*
X04059Y03109*
X04059Y03106*
X04054*
X04054Y03109*
X04052Y03117*
X04048Y03129*
X0404Y03139*
X0403Y03146*
X04024Y03149*
Y0336*
X04027Y03364*
X04029Y03373*
X04027Y03381*
X04022Y03388*
X04015Y03393*
X04007Y03395*
X03998Y03393*
X03991Y03388*
X03986Y03381*
X03985Y03373*
X03986Y03364*
X03988Y03361*
Y03149*
X03982Y03146*
X03973Y03139*
X03965Y03129*
X0396Y03117*
X03959Y03105*
X0396Y03093*
X03965Y03081*
X03973Y03071*
X03982Y03064*
X03994Y03059*
X04006Y03057*
X04019Y03059*
X0403Y03064*
X0404Y03071*
X04048Y03081*
X04052Y03093*
X04054Y03101*
X04054Y03104*
X04059*
X04059Y03101*
X0406Y03093*
X04065Y03081*
X04073Y03071*
X04082Y03064*
X04094Y03059*
X04106Y03057*
X04119Y03059*
X0413Y03064*
X0414Y03071*
X04148Y03081*
X04152Y03093*
X04154Y03105*
X04152Y03117*
X04148Y03129*
X0414Y03139*
X0413Y03146*
X0412Y0315*
Y03229*
X04119Y03234*
X04116Y03238*
X04086Y03269*
Y03464*
X04111Y03489*
X04132*
Y0348*
X04177*
Y03527*
G37*
G36*
X0326Y03519D02*
X03213D01*
Y03511*
X03186*
X03181Y03509*
X03176Y03506*
X03166Y03496*
X03163Y03492*
X03161Y03486*
Y03483*
X0316Y03482*
X03155Y03474*
X03153Y03466*
X03155Y03457*
X0316Y0345*
X03167Y03445*
X03176Y03444*
X03184Y03445*
X03191Y0345*
X03196Y03457*
X03198Y03466*
X03196Y03474*
X03194Y03477*
X03197Y03482*
X03213*
Y03474*
X0326*
Y03519*
G37*
G36*
X03128Y03479D02*
X03108D01*
Y03459*
X03128*
Y03479*
G37*
G36*
X03098D02*
X03077D01*
Y03459*
X03098*
Y03479*
G37*
G36*
X02865Y03452D02*
X02844D01*
Y03431*
X02865*
Y03452*
G37*
G36*
X02834D02*
X02813D01*
Y03431*
X02834*
Y03452*
G37*
G36*
X04477Y0347D02*
X04469Y03469D01*
X0446Y03466*
X04453Y0346*
X04448Y03454*
X04445Y03445*
X04443Y03437*
X04445Y03428*
X04448Y0342*
X04453Y03413*
X0446Y03407*
X04469Y03404*
X04477Y03403*
X04486Y03404*
X04494Y03407*
X04501Y03413*
X04506Y0342*
X0451Y03428*
X04511Y03437*
X0451Y03445*
X04506Y03454*
X04501Y0346*
X04494Y03466*
X04486Y03469*
X04477Y0347*
G37*
G36*
X03947Y03599D02*
X039D01*
Y03553*
X03905*
Y03543*
X03903Y0354*
X03901Y03531*
X03903Y03523*
X03905Y03519*
Y03475*
X03878Y03447*
X03804*
X03797Y03446*
X03791Y03442*
X0378Y03431*
X03776Y03425*
X03775Y03418*
Y03414*
X03769*
Y03368*
Y03367*
X03767Y03363*
X03763*
Y03334*
X03638*
X03631Y03333*
X03625Y03329*
X03495Y03199*
X03491Y03193*
X0349Y03186*
Y03149*
X03484Y03146*
X03474Y03139*
X03467Y03129*
X03462Y03117*
X0346Y03105*
X03462Y03093*
X03467Y03081*
X03474Y03071*
X03484Y03064*
X03496Y03059*
X03508Y03057*
X0352Y03059*
X03532Y03064*
X03542Y03071*
X03549Y03081*
X03553Y03091*
X03556Y03092*
X03559Y03091*
X03563Y0308*
X03571Y0307*
X03581Y03062*
X03593Y03057*
X03601Y03056*
Y03105*
Y03154*
X03593Y03153*
X03581Y03148*
X03571Y0314*
X03563Y0313*
X03559Y03119*
X03556Y03118*
X03553Y03119*
X03549Y03129*
X03542Y03139*
X03532Y03146*
X03526Y03149*
Y03178*
X03646Y03298*
X03763*
Y03269*
X03822*
Y03363*
X03819*
X03816Y03367*
Y03368*
Y03411*
X03875*
Y03403*
X03856*
Y03338*
X03854*
Y03308*
X03933*
Y03338*
X03931*
Y03403*
X03911*
Y03421*
X0391Y03428*
X0391Y03428*
X03936Y03455*
X0394Y03461*
X03941Y03467*
Y03519*
X03944Y03523*
X03945Y03531*
X03944Y0354*
X03941Y03543*
Y03553*
X03947*
Y03599*
G37*
G36*
X04189Y03311D02*
X04144D01*
Y03309*
X04139Y03306*
X04137Y03308*
X04128Y0331*
X0412Y03308*
X04113Y03303*
X04108Y03296*
X04106Y03287*
X04108Y03279*
X04113Y03272*
X0412Y03267*
X04128Y03265*
X04137Y03267*
X04139Y03268*
X04144Y03266*
Y03264*
X04189*
Y03311*
G37*
G36*
X02202Y03376D02*
X0219D01*
Y03302*
X02229*
Y03349*
X02228Y03356*
X02225Y03362*
X02221Y03368*
X02215Y03372*
X02209Y03375*
X02202Y03376*
G37*
G36*
X0218D02*
X02169D01*
X02162Y03375*
X02155Y03372*
X02149Y03368*
X02145Y03362*
X02142Y03356*
X02142Y03349*
Y03302*
X0218*
Y03376*
G37*
G36*
X03326Y03295D02*
X03318Y03294D01*
X03312Y03291*
X03306Y03287*
X03302Y03281*
X03299Y03276*
X03295Y03275*
X03294*
X03292Y03276*
X03285Y03277*
X03278Y03276*
X03272Y03272*
X03268Y03266*
X03267Y03259*
X03268Y03252*
X03272Y03246*
X03278Y03242*
X03285Y03241*
X03292Y03242*
X03296Y03245*
X03309*
X03312Y03243*
X03318Y0324*
X03326Y03239*
X03333Y0324*
X0334Y03243*
X03345Y03248*
X0335Y03253*
X03353Y0326*
X03353Y03267*
X03353Y03274*
X0335Y03281*
X03345Y03287*
X0334Y03291*
X03333Y03294*
X03326Y03295*
G37*
G36*
X03933Y03298D02*
X03898D01*
Y03267*
X03933*
Y03298*
G37*
G36*
X03888D02*
X03854D01*
Y03267*
X03888*
Y03298*
G37*
G36*
X02755Y03318D02*
X02748Y03317D01*
X02741Y03314*
X02735Y0331*
X02731Y03304*
X02728Y03298*
X02727Y0329*
X02728Y03283*
X02731Y03277*
X02735Y03271*
X02741Y03266*
X02748Y03264*
X02755Y03263*
X02762Y03264*
X02769Y03266*
X02774Y03271*
X02779Y03277*
X02779Y03277*
X02814*
Y03268*
X02823*
Y03261*
X02821Y0326*
X02816Y03253*
X02815Y03245*
X02816Y03236*
X02821Y03229*
X02828Y03224*
X02837Y03222*
X02845Y03224*
X02852Y03229*
X02857Y03236*
X02859Y03245*
X02857Y03253*
X02852Y0326*
X02851Y03261*
Y03268*
X02859*
Y03315*
X02814*
Y03305*
X02778*
X02774Y0331*
X02769Y03314*
X02762Y03317*
X02755Y03318*
G37*
G36*
X02438Y03374D02*
X02405D01*
X02395Y03372*
X02387Y03367*
X02382Y03359*
X0238Y03349*
Y03245*
X02382Y03235*
X02387Y03227*
X02395Y03221*
X02405Y0322*
X02438*
X02448Y03221*
X02456Y03227*
X02461Y03235*
X02463Y03245*
Y03349*
X02461Y03359*
X02456Y03367*
X02448Y03372*
X02438Y03374*
G37*
G36*
X02229Y03292D02*
X0219D01*
Y03218*
X02202*
X02209Y03219*
X02215Y03221*
X02221Y03226*
X02225Y03231*
X02228Y03238*
X02229Y03245*
Y03292*
G37*
G36*
X0218D02*
X02142D01*
Y03245*
X02142Y03238*
X02145Y03231*
X02149Y03226*
X02155Y03221*
X02162Y03219*
X02169Y03218*
X0218*
Y03292*
G37*
G36*
X03613Y03622D02*
X03605Y0362D01*
X03598Y03615*
X03593Y03608*
X03591Y036*
X03593Y03591*
X03598Y03584*
X03599Y03583*
Y03464*
X03352Y03216*
X03271*
X03254Y03232*
Y03275*
X03264*
Y0332*
X03217*
Y03275*
X03226*
Y03227*
X03227Y03221*
X0323Y03217*
X03255Y03192*
X03259Y03189*
X03265Y03188*
X03358*
X03363Y03189*
X03368Y03192*
X03623Y03448*
X03626Y03452*
X03628Y03458*
Y03583*
X03629Y03584*
X03634Y03591*
X03636Y036*
X03634Y03608*
X03629Y03615*
X03622Y0362*
X03613Y03622*
G37*
G36*
X02356Y03152D02*
X02308D01*
Y03113*
X02383*
Y03125*
X02382Y03132*
X02379Y03138*
X02375Y03144*
X02369Y03148*
X02363Y03151*
X02356Y03152*
G37*
G36*
X02298D02*
X02251D01*
X02244Y03151*
X02238Y03148*
X02232Y03144*
X02228Y03138*
X02225Y03132*
X02224Y03125*
Y03113*
X02298*
Y03152*
G37*
G36*
X02383Y03103D02*
X02308D01*
Y03064*
X02356*
X02363Y03065*
X02369Y03068*
X02375Y03072*
X02379Y03078*
X02382Y03084*
X02383Y03091*
Y03103*
G37*
G36*
X02298D02*
X02224D01*
Y03091*
X02225Y03084*
X02228Y03078*
X02232Y03072*
X02238Y03068*
X02244Y03065*
X02251Y03064*
X02298*
Y03103*
G37*
G36*
X0455Y03152D02*
X04456D01*
Y03058*
X0455*
Y03152*
G37*
G36*
X03708Y03154D02*
Y03105D01*
Y03056*
X03716Y03057*
X03728Y03062*
X03738Y0307*
X03746Y0308*
X03751Y03092*
X03756Y03091*
Y03058*
X0385*
Y03152*
X03756*
Y03119*
X03751Y03118*
X03746Y0313*
X03738Y0314*
X03728Y03148*
X03716Y03153*
X03708Y03154*
G37*
G36*
X04242Y03311D02*
X04197D01*
Y03264*
X04206*
Y03194*
X04198Y03186*
X04195Y03182*
X04194Y03176*
Y0315*
X04184Y03146*
X04174Y03139*
X04167Y03129*
X04162Y03117*
X0416Y03105*
X04162Y03093*
X04167Y03081*
X04174Y03071*
X04184Y03064*
X04196Y03059*
X04208Y03057*
X0422Y03059*
X04232Y03064*
X04242Y03071*
X04249Y03081*
X04254Y03093*
X04255Y03098*
X0426*
X0426Y03093*
X04265Y03081*
X04273Y03071*
X04282Y03064*
X04294Y03059*
X04306Y03057*
X04319Y03059*
X0433Y03064*
X0434Y03071*
X04348Y03081*
X04352Y03092*
X04353Y03093*
X04356*
X04357Y03092*
X04362Y03081*
X04369Y03071*
X04379Y03064*
X04391Y03059*
X04403Y03057*
X04416Y03059*
X04427Y03064*
X04437Y03071*
X04444Y03081*
X04449Y03093*
X04451Y03105*
X04449Y03117*
X04444Y03129*
X04437Y03139*
X04427Y03146*
X04416Y03151*
X04403Y03153*
X04391Y03151*
X04379Y03146*
X04369Y03139*
X04362Y03129*
X04357Y03118*
X04356Y03117*
X04353*
X04352Y03118*
X04348Y03129*
X0434Y03139*
X0433Y03146*
X04319Y03151*
X04306Y03153*
X04294Y03151*
X04282Y03146*
X04273Y03139*
X04265Y03129*
X0426Y03117*
X0426Y03112*
X04255*
X04254Y03117*
X04249Y03129*
X04242Y03139*
X04232Y03146*
X04222Y0315*
Y0317*
X0423Y03178*
X04233Y03183*
X04234Y03188*
Y03264*
X04242*
Y03311*
G37*
G36*
X03611Y03154D02*
Y03105D01*
Y03056*
X03619Y03057*
X03631Y03062*
X03642Y0307*
X03649Y0308*
X03652Y03086*
X03657*
X0366Y0308*
X03668Y0307*
X03678Y03062*
X0369Y03057*
X03698Y03056*
Y03105*
Y03154*
X0369Y03153*
X03678Y03148*
X03668Y0314*
X0366Y0313*
X03657Y03124*
X03652*
X03649Y0313*
X03642Y0314*
X03631Y03148*
X03619Y03153*
X03611Y03154*
G37*
%LNvapeixshield-3*%
%LPD*%
G36*
X03186Y04309D02*
X03187Y04308D01*
X03188Y04306*
X03195Y04301*
X03204Y04299*
X03212Y04301*
X03214Y04302*
X03218Y043*
Y04283*
X03129Y04194*
X03123Y04194*
X03121Y04196*
X03115Y042*
X03109Y04203*
X03101Y04204*
X03094Y04203*
X03088Y042*
X03082Y04196*
X03077Y0419*
X03075Y04183*
X03074Y04176*
X03075Y04169*
X03077Y04162*
X03082Y04157*
X03088Y04152*
X03094Y04149*
X03101Y04148*
X03109Y04149*
X03115Y04152*
X03121Y04157*
X03125Y04162*
X03132*
X03137Y04163*
X03142Y04166*
X03238Y04262*
X03243Y0426*
Y04242*
X03226Y04226*
X03224Y04226*
X03216Y04224*
X03209Y0422*
X03204Y04212*
X03202Y04204*
X03204Y04195*
X03205Y04194*
X03202Y04189*
X03179*
X03174Y04188*
X0317Y04185*
X03088Y04104*
X03052Y04141*
Y04159*
Y04287*
X0306Y04295*
X03083*
X03084Y04296*
X03131*
Y04293*
X0315*
Y04309*
X0316*
Y04293*
X03179*
Y04307*
X03184Y0431*
X03186Y04309*
G37*
G36*
X03142Y04111D02*
X03141Y04107D01*
X03143Y04098*
X03148Y04091*
X03155Y04086*
X03163Y04085*
X03167Y04085*
X03172Y04081*
Y04081*
X03196*
Y04071*
X03172*
Y0406*
X03174*
Y04037*
X03177*
X03177Y04036*
X03179Y04032*
X03175Y04026*
X03175Y04024*
X0317Y04022*
X03108Y04084*
X03138Y04114*
X03142Y04111*
G37*
G36*
X03762Y03696D02*
Y03692D01*
X03776*
Y03687*
X0378*
Y03676*
X0378Y03675*
Y03671*
X03781*
Y03669*
X03783*
X03784Y03668*
X03795Y03656*
X03799Y03653*
X03804Y03653*
X03852*
X03854Y03648*
X03849Y03645*
X03845Y03638*
X03844Y03634*
X03759*
X03753Y0364*
Y03694*
X03757Y03698*
X03762Y03696*
G37*
%LNvapeixshield-4*%
%LPC*%
G36*
X03771Y03682D02*
X03762D01*
Y03669*
X03771*
Y03682*
G37*
%LNvapeixshield-5*%
%LPD*%
G54D10*
X03104Y04373D03*
Y03874D03*
X03247Y04063D03*
X03357Y04582D03*
G54D11*
X03104Y04322D03*
Y03823D03*
X03247Y04114D03*
X03357Y04633D03*
G54D12*
X03155Y04309D03*
Y04335D03*
Y04386D03*
Y0436D03*
X03083D03*
Y04386D03*
Y04335D03*
Y04309D03*
X03155Y03811D03*
Y03836D03*
Y03887D03*
Y03862D03*
X03083D03*
Y03887D03*
Y03836D03*
Y03811D03*
X03196Y04127D03*
Y04101D03*
Y0405D03*
Y04076D03*
X03268D03*
Y0405D03*
Y04101D03*
Y04127D03*
X03306Y04646D03*
Y0462D03*
Y04569D03*
Y04595D03*
X03379D03*
Y04569D03*
Y0462D03*
Y04646D03*
G54D13*
X03368Y04784D03*
X03315D03*
X02885Y04565D03*
X02939D03*
X03092Y04735D03*
X03145D03*
X02713Y04563D03*
X02766D03*
X02885Y04654D03*
X02939D03*
X03386Y04173D03*
X0344D03*
X03386Y04232D03*
X0344D03*
X03386Y04114D03*
X0344D03*
X03386Y03957D03*
X0344D03*
X03386Y04016D03*
X0344D03*
X03386Y03898D03*
X0344D03*
X02943Y03701D03*
X0289D03*
X02943Y0376D03*
X0289D03*
X02943Y03914D03*
X0289D03*
X02943Y03819D03*
X0289D03*
X02943Y03973D03*
X0289D03*
X02943Y04032D03*
X0289D03*
X02943Y04118D03*
X0289D03*
X02943Y04177D03*
X0289D03*
X02943Y04236D03*
X0289D03*
X02943Y0439D03*
X0289D03*
X02943Y04331D03*
X0289D03*
X02943Y04449D03*
X0289D03*
X02983Y03397D03*
X0293D03*
X0289Y03291D03*
X02837D03*
X03235Y03592D03*
X03181D03*
X0336D03*
X03307D03*
X04207Y03503D03*
X04154D03*
X0422Y03287D03*
X04167D03*
G54D14*
X03007Y0326D03*
Y03276D03*
X02964Y03308D03*
Y03292D03*
G54D15*
X02976Y03268D03*
X02993Y03301D03*
G54D16*
X02984Y03529D03*
G54D17*
X02933Y03529D03*
G54D18*
X0292Y03478D03*
X02946D03*
X02997D03*
X02971D03*
Y03551D03*
X02997D03*
X02946D03*
X0292D03*
G54D19*
X04649Y04005D03*
X04474D03*
X04649Y04105D03*
X04474D03*
X04649Y04205D03*
X04474D03*
G54D20*
X04281Y04103D03*
Y04416D03*
X04104D03*
Y04103D03*
X03945D03*
Y04416D03*
X03768D03*
Y04103D03*
G54D21*
X03203Y04576D03*
Y04596D03*
Y04616D03*
Y04635D03*
Y04655D03*
X03042Y04576D03*
Y04596D03*
Y04616D03*
Y04635D03*
Y04655D03*
G54D22*
X02887Y04764D03*
X02954D03*
G54D23*
X02742Y04778D03*
Y04725D03*
X03236Y03497D03*
Y03443D03*
X0324Y03297D03*
Y03351D03*
X03249Y04758D03*
Y04705D03*
X03923Y03747D03*
Y038D03*
Y03629D03*
Y03576D03*
X03103Y03253D03*
Y03306D03*
Y03424D03*
Y0337D03*
G54D24*
X03147Y0482D03*
X04207Y03789D03*
G54D25*
X03072Y0482D03*
X04132Y03789D03*
G54D26*
X02778Y03986D03*
Y03947D03*
X02719Y03986D03*
Y03947D03*
X02778Y04199D03*
Y0416D03*
X02719Y04199D03*
Y0416D03*
X02778Y03773D03*
Y03734D03*
X02719Y03773D03*
Y03734D03*
X02778Y04412D03*
Y04372D03*
X02719Y04412D03*
Y04372D03*
X03551Y04144D03*
Y04183D03*
X0361Y04144D03*
Y04183D03*
X03551Y03923D03*
Y03962D03*
X0361Y03923D03*
Y03962D03*
G54D27*
X0311Y03712D03*
X03101Y04176D03*
Y04008D03*
X02755Y03532D03*
Y0329D03*
X03327Y03347D03*
X03326Y03429D03*
Y03512D03*
Y03267D03*
X03171Y03328D03*
X03025Y036D03*
G54D28*
X04137Y03667D03*
X04219Y03704D03*
Y03629D03*
G54D29*
X03893Y03303D03*
Y0337D03*
G54D30*
X03793Y03316D03*
X02839Y03532D03*
X03103Y03559D03*
G54D31*
X03793Y03391D03*
X02839Y03457D03*
X03103Y03484D03*
G54D32*
X03808Y0373D03*
X03824D03*
X03792Y03687D03*
X03776D03*
G54D33*
X03817Y03701D03*
X03784Y03717D03*
G54D34*
X02426Y04801D03*
X0223D03*
X02328Y05018D03*
G54D35*
X02835Y04642D02*
Y04755D01*
X02812Y04778D02*
X02835Y04755D01*
X02742Y04778D02*
X02812D01*
X02835Y04642D02*
X02861Y04616D01*
X03613Y03458D02*
Y036D01*
X03358Y03202D02*
X03613Y03458D01*
X03265Y03202D02*
X03358D01*
X03186Y03497D02*
X03236D01*
X03176Y03486D02*
X03186Y03497D01*
X03176Y03466D02*
Y03486D01*
X03218Y04705D02*
X03249D01*
Y04758D02*
X03275D01*
X03145Y04733D02*
Y04818D01*
X03115Y04703D02*
X03145Y04733D01*
Y04818D02*
X03155Y04828D01*
X03271D02*
X03315Y04784D01*
X03155Y04828D02*
X03271D01*
X0306Y03424D02*
X03103D01*
X03038Y03446D02*
X0306Y03424D01*
X03038Y03446D02*
Y03474D01*
X03064Y0337D02*
X03103D01*
Y03306D02*
X03127Y0333D01*
X03609Y0452D02*
X03715Y04415D01*
X03167Y04447D02*
X03195D01*
X03253Y04505*
Y04573*
X03275Y04595*
X03306*
X03334Y03953D02*
X03338Y03957D01*
X03386*
X03297Y03924D02*
Y03989D01*
X0322Y03953D02*
X03265D01*
X03128Y04008D02*
X03227Y03909D01*
Y03858D02*
Y03909D01*
X03101Y04008D02*
X03128D01*
X03155Y03836D02*
X03205D01*
X03227Y03858*
X03176Y03864D02*
X03196Y03883D01*
X03157Y03864D02*
X03176D01*
X03155Y03862D02*
X03157Y03864D01*
X03301Y04114D02*
X03386D01*
X03247D02*
X03301D01*
X03309Y0405D02*
X03322Y04038D01*
X03268Y0405D02*
X03309D01*
X03322Y04038D02*
X0333Y04017D01*
X03323Y04016D02*
X0333Y04017D01*
X03297Y03924D02*
X03324Y03898D01*
X03386*
X03323Y04016D02*
X03386D01*
X03175Y04074D02*
X03194D01*
X03196Y04076*
X03088Y04084D02*
X03179Y04175D01*
X03167Y04103D02*
X03194D01*
X03163Y04107D02*
X03167Y04103D01*
X03179Y04175D02*
X03384D01*
X03386Y04173*
X03224Y04204D02*
D01*
X03257Y04236*
X03194Y04103D02*
X03196Y04101D01*
X03155Y03908D02*
X03167Y0392D01*
X03155Y03887D02*
Y03908D01*
X03257Y04236D02*
Y04346D01*
X03192Y04322D02*
X03204D01*
X03178Y04335D02*
X03192Y04322D01*
X03155Y04335D02*
X03178D01*
X03157Y04388D02*
X03254D01*
X03256Y04386*
X03155D02*
X03157Y04388D01*
X03232Y04362D02*
X03256Y04386D01*
X03543Y04673*
X03054Y04309D02*
X03083D01*
X02947Y04386D02*
X03091D01*
X02943Y0439D02*
X02947Y04386D01*
X03247Y04114D02*
X03247Y04114D01*
X03247Y04063D02*
X0326Y0405D01*
X03268*
X03322Y04232D02*
X03386D01*
X0308Y03712D02*
X0311D01*
X03066Y03725D02*
X0308Y03712D01*
X03066Y03725D02*
Y03766D01*
X0305Y03835D02*
X03093D01*
X03104Y03823D02*
Y03825D01*
Y03819D02*
Y03823D01*
X03093Y03835D02*
X03104Y03823D01*
X03021Y03786D02*
Y03888D01*
X02996Y03914D02*
X03021Y03888D01*
X02943Y03914D02*
X02996D01*
X03095Y0387D02*
X03096D01*
X03083Y03883D02*
X03096Y0387D01*
X03082Y03884D02*
X03083Y03883D01*
X03021Y03884D02*
X03082D01*
X03096Y0387D02*
X03104D01*
X03034Y0394D02*
Y03989D01*
X03053Y04008*
X03091Y04386D02*
X03104Y04373D01*
X02811Y04484D02*
X03171D01*
X02715Y04778D02*
X02742D01*
X02697Y04759D02*
X02715Y04778D01*
X02697Y04666D02*
Y04759D01*
X03092Y04587D02*
Y04735D01*
X03082Y04576D02*
X03092Y04587D01*
X02861Y04616D02*
X03042D01*
X03149D02*
X03203D01*
X03115Y0465D02*
X03149Y04616D01*
X03115Y0465D02*
Y04703D01*
X03042Y04576D02*
X03082D01*
X03203Y04515D02*
Y04574D01*
X03171Y04484D02*
X03203Y04515D01*
X03503Y04183D02*
X03551D01*
X03493Y04173D02*
X03503Y04183D01*
X0344Y04173D02*
X03493D01*
X03812Y04674D02*
X04006Y04868D01*
X03585Y04674D02*
X03812D01*
X03257Y04346D02*
X03585Y04674D01*
X02766Y04528D02*
X02811Y04484D01*
X04105Y03503D02*
X04154D01*
X04072Y0347D02*
X04105Y03503D01*
X04072Y03263D02*
Y0347D01*
Y03263D02*
X04106Y03229D01*
Y03105D02*
Y03229D01*
X0422Y03188D02*
Y03287D01*
X04208Y03176D02*
X0422Y03188D01*
X04208Y03105D02*
Y03176D01*
X04473Y04005D02*
X04474Y04005D01*
X02677Y03867D02*
X02705Y03839D01*
X02677Y03867D02*
Y04034D01*
X02717Y04074*
X03009Y03996D02*
Y04074D01*
X02717D02*
X03009D01*
Y04155*
X03042Y04545D02*
Y04576D01*
X02766Y04528D02*
Y04563D01*
X03543Y04673D02*
Y05005D01*
X03501Y03962D02*
X03551D01*
X03496Y03957D02*
X03501Y03962D01*
X0344Y03957D02*
X03496D01*
X0361Y03864D02*
Y03923D01*
X03593Y03847D02*
X0361Y03864D01*
X03458Y03847D02*
X03593D01*
X0344Y03865D02*
X03458Y03847D01*
X0344Y03865D02*
Y03898D01*
X0361Y03962D02*
Y03992D01*
X03587Y04016D02*
X0361Y03992D01*
X0344Y04016D02*
X03587D01*
X0361Y04091D02*
Y04144D01*
X0344Y04094D02*
X03459Y04074D01*
X0344Y04094D02*
Y04114D01*
X03053Y04008D02*
X03101D01*
X02943Y0376D02*
X02975D01*
X02943Y03819D02*
X02975D01*
X02943Y04032D02*
X02975D01*
X02943Y04118D02*
X02975D01*
X02943Y04236D02*
X02975D01*
X02943Y04331D02*
X02975D01*
X02943Y04449D02*
X02975D01*
X03009Y04155D02*
Y04386D01*
X02943Y03973D02*
X02986D01*
X03009Y03996*
X02987Y04177D02*
X03009Y04155D01*
X02943Y04177D02*
X02987D01*
X02734Y04236D02*
X0289D01*
X02719Y04222D02*
X02734Y04236D01*
X02719Y04199D02*
Y04222D01*
X02734Y04118D02*
X0289D01*
X02719Y04133D02*
X02734Y04118D01*
X02719Y04133D02*
Y0416D01*
X02732Y04032D02*
X0289D01*
X02719Y04019D02*
X02732Y04032D01*
X02719Y03986D02*
Y04019D01*
X02734Y03819D02*
X0289D01*
X02719Y03804D02*
X02734Y03819D01*
X02719Y03773D02*
Y03804D01*
X0273Y03701D02*
X0289D01*
X02719Y03711D02*
X0273Y03701D01*
X02719Y03711D02*
Y03734D01*
X02865Y0376D02*
X0289D01*
X0284Y03734D02*
X02865Y0376D01*
X02778Y03734D02*
X0284D01*
X02732Y03914D02*
X0289D01*
X02719Y03926D02*
X02732Y03914D01*
X02719Y03926D02*
Y03947D01*
X02863Y03973D02*
X0289D01*
X02837Y03947D02*
X02863Y03973D01*
X02778Y03947D02*
X02837D01*
X02861Y04177D02*
X0289D01*
X02843Y0416D02*
X02861Y04177D01*
X02778Y0416D02*
X02843D01*
X02736Y04331D02*
X0289D01*
X02731Y04449D02*
X0289D01*
X02719Y04348D02*
X02736Y04331D01*
X02859Y0439D02*
X0289D01*
X02841Y04372D02*
X02859Y0439D01*
X02778Y04372D02*
X02841D01*
X02719Y04348D02*
Y04372D01*
Y04437D02*
X02731Y04449D01*
X02719Y04412D02*
Y04437D01*
X02939Y04654D02*
X02977D01*
X02995Y04635*
X03042*
X02939Y04565D02*
X0297Y04596D01*
X03042*
X0344Y04232D02*
X03588D01*
X0361Y0421*
Y04183D02*
Y0421D01*
X03459Y04074D02*
X03593D01*
X0361Y04091*
X02943Y03701D02*
X02993D01*
X03021Y03729*
Y03786*
X04006Y04868D02*
Y05005D01*
X03203Y04596D02*
X03243D01*
X03268Y0462*
X03306*
X03203Y04635D02*
X03246D01*
X03257Y04646*
X03306*
X03208Y04695D02*
X03218Y04705D01*
X03306Y04646D02*
Y04667D01*
X03368Y04729D02*
Y04784D01*
X03306Y04667D02*
X03368Y04729D01*
X03289Y04707D02*
Y04743D01*
X03275Y04758D02*
X03289Y04743D01*
X03163Y04062D02*
X03175Y04074D01*
X03159Y04062D02*
X03163D01*
X03038Y04159D02*
Y04293D01*
X03054Y04309*
X03101Y04176D02*
X03132D01*
X03232Y04277*
Y04362*
X03038Y04135D02*
Y04159D01*
Y04135D02*
X0322Y03953D01*
X02267Y05023D02*
X02323D01*
X02328Y05018*
X03171Y03247D02*
Y03328D01*
X02426Y04801D02*
Y05016D01*
X02454Y05043*
X02755Y03291D02*
X02837D01*
Y03245D02*
Y03291D01*
X02178Y04788D02*
X02191Y04801D01*
X0223*
X02983Y03362D02*
Y03397D01*
Y03362D02*
X02993Y03353D01*
Y03301D02*
Y03353D01*
X02976Y03239D02*
Y03268D01*
Y03239D02*
X02977Y03239D01*
X0292Y03438D02*
Y03478D01*
Y03438D02*
X0293Y03428D01*
Y03397D02*
Y03428D01*
X02997Y03478D02*
X03034D01*
X03038Y03474*
X02946Y03444D02*
Y03478D01*
Y03444D02*
X02983Y03407D01*
Y03397D02*
Y03407D01*
X02971Y03463D02*
Y03478D01*
Y03463D02*
X03064Y0337D01*
X03127Y0333D02*
X03169D01*
X03171Y03328*
X0324Y03351D02*
X03323D01*
X03327Y03347*
X03285Y03259D02*
X03318D01*
X03327Y03347D02*
X03359D01*
X0337Y03336*
Y0332D02*
Y03336D01*
X0324Y03227D02*
Y03297D01*
Y03227D02*
X03265Y03202D01*
X03808Y0377D02*
X03808Y0377D01*
X03715Y03944D02*
Y04415D01*
Y03944D02*
X03859Y038D01*
X03923*
G54D36*
X03885Y03429D02*
X03893Y03421D01*
X03638Y03316D02*
X03793D01*
X03508Y03186D02*
X03638Y03316D01*
X03508Y03105D02*
Y03186D01*
X03103Y0337D02*
X03141D01*
X03163Y03393*
X03342Y04536D02*
X03357Y04552D01*
Y04582*
X03196Y0364D02*
X03249D01*
X03181Y03626D02*
X03196Y0364D01*
X03181Y03592D02*
Y03626D01*
X03196Y03883D02*
Y03889D01*
X03159Y03807D02*
X03176D01*
X03155Y03811D02*
X03159Y03807D01*
X03196Y04127D02*
Y04148D01*
X03155Y04273D02*
Y04309D01*
Y0436D02*
X03193D01*
X03021Y04524D02*
X03042Y04545D01*
X029Y04524D02*
X03021D01*
X02885Y04539D02*
X029Y04524D01*
X02885Y04539D02*
Y04565D01*
Y04762D02*
X02887Y04764D01*
X02885Y04654D02*
Y04762D01*
X02807Y04622D02*
X02835Y04593D01*
X02807Y04622D02*
Y04695D01*
X02776Y04725D02*
X02807Y04695D01*
X02742Y04725D02*
X02776D01*
X04167Y03287D02*
D01*
X04128D02*
X04167D01*
X04006Y03105D02*
Y03372D01*
X04132Y03789D02*
X04137Y03784D01*
X04092Y0379D02*
X04094Y03789D01*
X04219Y03569D02*
Y03629D01*
X04207Y03557D02*
X04219Y03569D01*
X04207Y03503D02*
Y03557D01*
X03923Y03467D02*
Y03531D01*
X03885Y03429D02*
X03923Y03467D01*
X03893Y0337D02*
Y03421D01*
X03804Y03429D02*
X03885D01*
X03793Y03418D02*
X03804Y03429D01*
X03793Y03391D02*
Y03418D01*
X04356Y04005D02*
X04473D01*
X04145D02*
X04356D01*
X04357Y04205D02*
X04474D01*
X04649Y04105D02*
Y04156D01*
X04356Y04105D02*
X04474D01*
X03551Y03883D02*
Y03923D01*
Y04104D02*
Y04144D01*
X04649Y04005D02*
Y04049D01*
X02827Y0336D02*
X02893D01*
X03041Y0466D02*
Y04744D01*
X03021Y04764D02*
X03041Y04744D01*
X02954Y04764D02*
X03021D01*
X02669Y04563D02*
X02713D01*
X03768Y04416D02*
Y04546D01*
X04106Y04885*
Y05005*
X03768Y04103D02*
Y04416D01*
X04104D02*
Y0469D01*
X04306Y04893*
Y05005*
X04104Y04103D02*
Y04416D01*
X03923Y03531D02*
Y03576D01*
X02893Y0336D02*
X0293Y03397D01*
X03012Y03529D02*
X03042Y03559D01*
X0293Y03532D02*
X02933Y03529D01*
X02984D02*
X03012D01*
X03178Y03393D02*
X0322D01*
X03236Y03409*
Y03443*
X03181Y03557D02*
Y03592D01*
Y03557D02*
X03192Y03547D01*
X0329*
X03326Y03512*
X03235Y03592D02*
X03307D01*
X03163Y03393D02*
X03178D01*
X03326Y03429D02*
X03386D01*
X03411Y03454*
X03307Y03586D02*
Y03592D01*
Y0363D02*
X0333Y03652D01*
X03307Y03592D02*
Y0363D01*
X0333Y03652D02*
X0339D01*
X03411Y03632*
Y03454D02*
Y03632D01*
X03852Y03616D02*
X03865Y03629D01*
X03923*
X03735Y03632D02*
X03751Y03616D01*
X03852*
X03735Y03632D02*
Y03701D01*
X03751Y03717*
X03784*
G54D37*
X0367Y03429D02*
Y04253D01*
X03406Y03165D02*
X0367Y03429D01*
X03406Y03105D02*
Y03165D01*
X03492Y04431D02*
X0367Y04253D01*
X04137Y03667D02*
Y03784D01*
X04094Y03789D02*
X04132D01*
X04648Y04206D02*
X04649Y04205D01*
X04648Y04206D02*
Y04256D01*
X03072Y0482D02*
Y04869D01*
X03357Y04633D02*
X03419Y04695D01*
X02954Y04764D02*
Y0485D01*
X03945Y04103D02*
Y04416D01*
X04281Y04103D02*
Y04416D01*
X03419Y04695D02*
Y04837D01*
X03492Y04431D02*
Y04508D01*
X02954Y0485D02*
X03025Y04922D01*
X03334*
X03419Y04837*
X03042Y03559D02*
X03103D01*
X02839Y03532D02*
X0293D01*
G54D38*
X03052Y03253D02*
X03103D01*
X03029Y03276D02*
X03052Y03253D01*
X03007Y03276D02*
X03029D01*
X03273Y04447D02*
Y04561D01*
X03281Y04569*
X03306*
X03817Y03701D02*
X03848D01*
X03849Y03701*
X02891Y03292D02*
X02964D01*
X0289Y03291D02*
X02891Y03292D01*
X03318Y03259D02*
X03326Y03267D01*
X03808Y0373D02*
Y0377D01*
X03923Y03674D02*
Y03747D01*
X03914Y03665D02*
X03923Y03674D01*
X03776Y03657D02*
Y03687D01*
X03792Y03676D02*
Y03687D01*
X03804Y03665D02*
X03914D01*
X03792Y03676D02*
X03804Y03665D01*
X03824Y0373D02*
X03841D01*
X03853Y03742*
G54D39*
X03196Y04017D02*
Y0405D01*
X03231Y03341D02*
X03233Y03339D01*
X02927Y03323D02*
X02942Y03308D01*
X02964*
G54D40*
X02755Y03532D02*
X02839D01*
X02999Y03539D02*
Y03586D01*
X02705Y03482D02*
X02755Y03532D01*
X02947Y03638D02*
X02999Y03586D01*
X02673Y03644D02*
X02679Y03638D01*
X02947*
G54D41*
X04383Y03515D02*
X04477D01*
X04335Y03563D02*
X04383Y03515D01*
X04207Y03789D02*
X04308D01*
X04335Y03762*
Y03563D02*
Y03762D01*
G54D42*
X03042Y04576D02*
Y04576D01*
G54D43*
X02276Y04425D02*
X02443D01*
X02259Y03482D02*
X02705D01*
X02109Y03632D02*
X02259Y03482D01*
X02109Y03632D02*
Y04001D01*
X02192Y04084*
X02279*
X02443Y04425D02*
X02523Y04346D01*
Y03794D02*
Y04346D01*
Y03794D02*
X02673Y03644D01*
G54D44*
X04477Y03594D03*
Y03673D03*
Y03515D03*
Y03437D03*
X02279Y04084D03*
Y04005D03*
X0228Y03737D03*
Y03658D03*
X02276Y04583D03*
Y04504D03*
Y04346D03*
Y04425D03*
G54D45*
X03146Y05005D03*
X03246D03*
X03348D03*
X03446D03*
X03543D03*
X03046D03*
X02946D03*
X02846D03*
X02746D03*
X03806D03*
X03906D03*
X04403D03*
X04306D03*
X04208D03*
X04106D03*
X04006D03*
X03106Y03105D03*
X03206D03*
X03703D03*
X03606D03*
X03508D03*
X03406D03*
X03306D03*
X04006D03*
X04106D03*
X04208D03*
X04306D03*
X04403D03*
G54D46*
X03643Y05005D03*
X04503D03*
X03803Y03105D03*
X04503D03*
G54D47*
X02185Y03297D03*
X02421D03*
G54D48*
X02303Y03108D03*
G54D49*
X03609Y0452D03*
X03715Y04561D03*
X03342Y04536D03*
X03249Y0364D03*
X03167Y04447D03*
X03273D03*
X03334Y03953D03*
X03265D03*
X03196Y03889D03*
X03176Y03807D03*
X0333Y04017D03*
X03297Y03989D03*
X03301Y04114D03*
X03224Y04204D03*
X03163Y04107D03*
X03167Y0392D03*
X03281Y04208D03*
X03196Y04148D03*
Y04017D03*
X03155Y04273D03*
X03204Y04322D03*
X03193Y0436D03*
X0333Y04232D03*
X0305Y03835D03*
X03034Y0394D03*
X02697Y04666D03*
X02819Y04545D03*
X04128Y03287D03*
X03411Y03454D03*
X04007Y03373D03*
X04092Y0379D03*
X03865Y03629D03*
X03923Y03531D03*
X04356Y04005D03*
X04145D03*
X04648Y04256D03*
X04649Y04156D03*
X04356Y04105D03*
X04357Y04205D03*
X02705Y03839D03*
X03042Y04545D03*
X03072Y04869D03*
X02924Y04905D03*
X02835Y04593D03*
X03066Y03766D03*
X03551Y03883D03*
Y04104D03*
X04649Y04049D03*
X03178Y03393D03*
X02827Y0336D03*
X02927Y03323D03*
X02975Y0376D03*
Y03819D03*
Y04032D03*
Y04118D03*
Y04236D03*
Y04331D03*
Y04449D03*
X0281Y03773D03*
Y03986D03*
Y04199D03*
Y04412D03*
X02669Y04563D03*
X03021Y03786D03*
X03236Y04796D03*
X03208Y04695D03*
X03419Y04772D03*
X03492Y04508D03*
X03289Y04707D03*
X03159Y04062D03*
X04445Y04463D03*
X02267Y05023D03*
X03171Y03247D03*
X02454Y05043D03*
X02837Y03245D03*
X02178Y04788D03*
X03176Y03466D03*
X03849Y03701D03*
X02977Y03239D03*
X03038Y03474D03*
X0337Y0332D03*
X03613Y036D03*
X03808Y0377D03*
X03776Y03656D03*
X03853Y03742D03*
G54D50*
X03285Y03259D03*
M02*