%FSTAX23Y23*%
%MOIN*%
%SFA1B1*%

%IPPOS*%
%AMD47*
4,1,8,0.016700,0.068900,-0.016700,0.068900,-0.033400,0.052200,-0.033400,-0.052200,-0.016700,-0.068900,0.016700,-0.068900,0.033400,-0.052200,0.033400,0.052200,0.016700,0.068900,0.0*
1,1,0.033400,0.016700,0.052200*
1,1,0.033400,-0.016700,0.052200*
1,1,0.033400,-0.016700,-0.052200*
1,1,0.033400,0.016700,-0.052200*
%
%AMD48*
4,1,8,0.068900,-0.016700,0.068900,0.016700,0.052200,0.033400,-0.052200,0.033400,-0.068900,0.016700,-0.068900,-0.016700,-0.052200,-0.033400,0.052200,-0.033400,0.068900,-0.016700,0.0*
1,1,0.033400,0.052200,-0.016700*
1,1,0.033400,0.052200,0.016700*
1,1,0.033400,-0.052200,0.016700*
1,1,0.033400,-0.052200,-0.016700*
%
%ADD10R,0.039400X0.037200*%
%ADD11R,0.039400X0.037300*%
%ADD12R,0.027600X0.011800*%
%ADD13R,0.029500X0.031500*%
%ADD14R,0.015700X0.007900*%
%ADD15R,0.019700X0.019700*%
%ADD16R,0.037200X0.039400*%
%ADD17R,0.037300X0.039400*%
%ADD18R,0.011800X0.027600*%
%ADD19R,0.150000X0.050000*%
%ADD20R,0.051200X0.061000*%
%ADD21O,0.066900X0.011800*%
%ADD22R,0.051200X0.059100*%
%ADD23R,0.031500X0.029500*%
%ADD24R,0.078700X0.043300*%
%ADD25R,0.031500X0.031500*%
%ADD26R,0.035400X0.027600*%
%ADD27C,0.039400*%
%ADD28R,0.040000X0.030000*%
%ADD29R,0.059100X0.051200*%
%ADD30R,0.043300X0.078700*%
%ADD31R,0.031500X0.031500*%
%ADD32R,0.007900X0.015700*%
%ADD33R,0.019700X0.019700*%
%ADD34R,0.047200X0.098400*%
%ADD44C,0.051200*%
%ADD45C,0.078700*%
%ADD46R,0.078700X0.078700*%
G04~CAMADD=47~8~0.0~0.0~669.0~1378.0~167.0~0.0~15~0.0~0.0~0.0~0.0~0~0.0~0.0~0.0~0.0~0~0.0~0.0~0.0~0.0~669.0~1378.0*
%ADD47D47*%
G04~CAMADD=48~8~0.0~0.0~669.0~1378.0~167.0~0.0~15~0.0~0.0~0.0~0.0~0~0.0~0.0~0.0~0.0~0~0.0~0.0~0.0~270.0~1378.0~668.0*
%ADD48D48*%
%LNvapeixshield-1*%
%LPD*%
G54D10*
X03104Y04373D03*
Y03874D03*
X03247Y04063D03*
X03357Y04582D03*
G54D11*
X03104Y04322D03*
Y03823D03*
X03247Y04114D03*
X03357Y04633D03*
G54D12*
X03155Y04309D03*
Y04335D03*
Y04386D03*
Y0436D03*
X03083D03*
Y04386D03*
Y04335D03*
Y04309D03*
X03155Y03811D03*
Y03836D03*
Y03887D03*
Y03862D03*
X03083D03*
Y03887D03*
Y03836D03*
Y03811D03*
X03196Y04127D03*
Y04101D03*
Y0405D03*
Y04076D03*
X03268D03*
Y0405D03*
Y04101D03*
Y04127D03*
X03306Y04646D03*
Y0462D03*
Y04569D03*
Y04595D03*
X03379D03*
Y04569D03*
Y0462D03*
Y04646D03*
G54D13*
X03368Y04784D03*
X03315D03*
X02885Y04565D03*
X02939D03*
X03092Y04735D03*
X03145D03*
X02713Y04563D03*
X02766D03*
X02885Y04654D03*
X02939D03*
X03386Y04173D03*
X0344D03*
X03386Y04232D03*
X0344D03*
X03386Y04114D03*
X0344D03*
X03386Y03957D03*
X0344D03*
X03386Y04016D03*
X0344D03*
X03386Y03898D03*
X0344D03*
X02943Y03701D03*
X0289D03*
X02943Y0376D03*
X0289D03*
X02943Y03914D03*
X0289D03*
X02943Y03819D03*
X0289D03*
X02943Y03973D03*
X0289D03*
X02943Y04032D03*
X0289D03*
X02943Y04118D03*
X0289D03*
X02943Y04177D03*
X0289D03*
X02943Y04236D03*
X0289D03*
X02943Y0439D03*
X0289D03*
X02943Y04331D03*
X0289D03*
X02943Y04449D03*
X0289D03*
X02983Y03397D03*
X0293D03*
X0289Y03291D03*
X02837D03*
X03235Y03592D03*
X03181D03*
X0336D03*
X03307D03*
X04207Y03503D03*
X04154D03*
X0422Y03287D03*
X04167D03*
G54D14*
X03007Y0326D03*
Y03276D03*
X02964Y03308D03*
Y03292D03*
G54D15*
X02976Y03268D03*
X02993Y03301D03*
G54D16*
X02984Y03529D03*
G54D17*
X02933Y03529D03*
G54D18*
X0292Y03478D03*
X02946D03*
X02997D03*
X02971D03*
Y03551D03*
X02997D03*
X02946D03*
X0292D03*
G54D19*
X04649Y04005D03*
X04474D03*
X04649Y04105D03*
X04474D03*
X04649Y04205D03*
X04474D03*
G54D20*
X04281Y04103D03*
Y04416D03*
X04104D03*
Y04103D03*
X03945D03*
Y04416D03*
X03768D03*
Y04103D03*
G54D21*
X03203Y04576D03*
Y04596D03*
Y04616D03*
Y04635D03*
Y04655D03*
X03042Y04576D03*
Y04596D03*
Y04616D03*
Y04635D03*
Y04655D03*
G54D22*
X02887Y04764D03*
X02954D03*
G54D23*
X02742Y04778D03*
Y04725D03*
X03236Y03497D03*
Y03443D03*
X0324Y03297D03*
Y03351D03*
X03249Y04758D03*
Y04705D03*
X03923Y03747D03*
Y038D03*
Y03629D03*
Y03576D03*
X03103Y03253D03*
Y03306D03*
Y03424D03*
Y0337D03*
G54D24*
X03147Y0482D03*
X04207Y03789D03*
G54D25*
X03072Y0482D03*
X04132Y03789D03*
G54D26*
X02778Y03986D03*
Y03947D03*
X02719Y03986D03*
Y03947D03*
X02778Y04199D03*
Y0416D03*
X02719Y04199D03*
Y0416D03*
X02778Y03773D03*
Y03734D03*
X02719Y03773D03*
Y03734D03*
X02778Y04412D03*
Y04372D03*
X02719Y04412D03*
Y04372D03*
X03551Y04144D03*
Y04183D03*
X0361Y04144D03*
Y04183D03*
X03551Y03923D03*
Y03962D03*
X0361Y03923D03*
Y03962D03*
G54D27*
X0311Y03712D03*
X03101Y04176D03*
Y04008D03*
X02755Y03532D03*
Y0329D03*
X03327Y03347D03*
X03326Y03429D03*
Y03512D03*
Y03267D03*
X03171Y03328D03*
X03025Y036D03*
G54D28*
X04137Y03667D03*
X04219Y03704D03*
Y03629D03*
G54D29*
X03893Y03303D03*
Y0337D03*
G54D30*
X03793Y03316D03*
X02839Y03532D03*
X03103Y03559D03*
G54D31*
X03793Y03391D03*
X02839Y03457D03*
X03103Y03484D03*
G54D32*
X03808Y0373D03*
X03824D03*
X03792Y03687D03*
X03776D03*
G54D33*
X03817Y03701D03*
X03784Y03717D03*
G54D34*
X02426Y04801D03*
X0223D03*
X02328Y05018D03*
G54D44*
X04477Y03594D03*
Y03673D03*
Y03515D03*
Y03437D03*
X02279Y04084D03*
Y04005D03*
X0228Y03737D03*
Y03658D03*
X02276Y04583D03*
Y04504D03*
Y04346D03*
Y04425D03*
G54D45*
X03146Y05005D03*
X03246D03*
X03348D03*
X03446D03*
X03543D03*
X03046D03*
X02946D03*
X02846D03*
X02746D03*
X03806D03*
X03906D03*
X04403D03*
X04306D03*
X04208D03*
X04106D03*
X04006D03*
X03106Y03105D03*
X03206D03*
X03703D03*
X03606D03*
X03508D03*
X03406D03*
X03306D03*
X04006D03*
X04106D03*
X04208D03*
X04306D03*
X04403D03*
G54D46*
X03643Y05005D03*
X04503D03*
X03803Y03105D03*
X04503D03*
G54D47*
X02185Y03297D03*
X02421D03*
G54D48*
X02303Y03108D03*
M02*