%FSTAX24Y24*%
%MOIN*%
%SFA1B1*%

%IPPOS*%
%AMD43*
4,1,8,0.016700,0.068900,-0.016700,0.068900,-0.033400,0.052200,-0.033400,-0.052200,-0.016700,-0.068900,0.016700,-0.068900,0.033400,-0.052200,0.033400,0.052200,0.016700,0.068900,0.0*
1,1,0.033400,0.016700,0.052200*
1,1,0.033400,-0.016700,0.052200*
1,1,0.033400,-0.016700,-0.052200*
1,1,0.033400,0.016700,-0.052200*
%
%AMD44*
4,1,8,0.068900,-0.016700,0.068900,0.016700,0.052200,0.033400,-0.052200,0.033400,-0.068900,0.016700,-0.068900,-0.016700,-0.052200,-0.033400,0.052200,-0.033400,0.068900,-0.016700,0.0*
1,1,0.033400,0.052200,-0.016700*
1,1,0.033400,0.052200,0.016700*
1,1,0.033400,-0.052200,0.016700*
1,1,0.033400,-0.052200,-0.016700*
%
%ADD12R,0.029500X0.031500*%
%ADD21R,0.031500X0.029500*%
%ADD22R,0.150000X0.050000*%
%ADD27R,0.078700X0.043300*%
%ADD28R,0.031500X0.031500*%
%ADD31R,0.031500X0.031500*%
%ADD32R,0.043300X0.078700*%
%ADD34C,0.008000*%
%ADD36C,0.019700*%
%ADD37C,0.011800*%
%ADD38C,0.039400*%
%ADD39C,0.031500*%
%ADD40C,0.051200*%
%ADD41C,0.078700*%
%ADD42R,0.078700X0.078700*%
G04~CAMADD=43~8~0.0~0.0~669.0~1378.0~167.0~0.0~15~0.0~0.0~0.0~0.0~0~0.0~0.0~0.0~0.0~0~0.0~0.0~0.0~0.0~669.0~1378.0*
%ADD43D43*%
G04~CAMADD=44~8~0.0~0.0~669.0~1378.0~167.0~0.0~15~0.0~0.0~0.0~0.0~0~0.0~0.0~0.0~0.0~0~0.0~0.0~0.0~270.0~1378.0~668.0*
%ADD44D44*%
%ADD45C,0.019700*%
%ADD46C,0.027600*%
%ADD47R,0.030000X0.040000*%
%ADD48R,0.040000X0.030000*%
%ADD49R,0.059100X0.051200*%
%ADD50C,0.059100*%
%ADD51R,0.190600X0.101400*%
%LNvapeixshield-1*%
%LPD*%
G36*
X000429Y020936D02*
X000471D01*
X025679*
X026269Y020346*
Y015604*
X026279Y015553*
X026307Y015511*
X027419Y014399*
Y002615*
X026306Y001503*
X026278Y00146*
X026268Y00141*
Y000429*
X02624Y000362*
X026162Y00026*
X02606Y000182*
X026027Y000168*
X000577*
X000569*
X00052Y00017*
X000494Y000171*
X000445Y000175*
X000407Y000179*
X000375Y000187*
X00035Y000195*
X000315Y000202*
X000234Y000256*
X00018Y000337*
X000162Y000429*
X000163Y000436*
X000164Y000445*
Y000452*
X000163Y000456*
Y020708*
X000164*
X000179Y020784*
X000233Y020865*
X000314Y020919*
X000374Y020932*
X000422Y020936*
X000429*
G37*
%LNvapeixshield-2*%
%LPC*%
G36*
X015436Y020532D02*
X015313Y020515D01*
X015198Y020468*
X015099Y020392*
X015024Y020293*
X014978Y020183*
X014966Y020178*
X014938*
X014926Y020183*
X01488Y020293*
X014805Y020392*
X014706Y020468*
X014591Y020515*
X014468Y020532*
X014344Y020515*
X014229Y020468*
X014131Y020392*
X014055Y020293*
X014007Y020178*
X014001Y020128*
X01395*
X013944Y020178*
X013896Y020293*
X01382Y020392*
X013722Y020468*
X013607Y020515*
X013483Y020532*
X01336Y020515*
X013245Y020468*
X013147Y020392*
X013071Y020293*
X013023Y020178*
X013007Y020055*
X013023Y019932*
X013071Y019817*
X013147Y019718*
X013245Y019642*
X01336Y019595*
X013483Y019579*
X013607Y019595*
X013722Y019642*
X01382Y019718*
X013896Y019817*
X013944Y019932*
X01395Y019982*
X014001*
X014007Y019932*
X014055Y019817*
X014131Y019718*
X014229Y019642*
X014344Y019595*
X014468Y019579*
X014591Y019595*
X014706Y019642*
X014805Y019718*
X01488Y019817*
X014926Y019927*
X014938Y019932*
X014966*
X014978Y019927*
X015024Y019817*
X015099Y019718*
X015198Y019642*
X015313Y019595*
X015436Y019579*
X01556Y019595*
X015674Y019642*
X015773Y019718*
X015849Y019817*
X015897Y019932*
X015913Y020055*
X015897Y020178*
X015849Y020293*
X015773Y020392*
X015674Y020468*
X01556Y020515*
X015436Y020532*
G37*
G36*
X024036D02*
X023913Y020515D01*
X023798Y020468*
X023699Y020392*
X023624Y020293*
X023578Y020183*
X023565Y020178*
X023538*
X023526Y020183*
X02348Y020293*
X023405Y020392*
X023306Y020468*
X023191Y020515*
X023068Y020532*
X022944Y020515*
X022829Y020468*
X022731Y020392*
X022655Y020293*
X022607Y020178*
X022601Y020128*
X02255*
X022544Y020178*
X022496Y020293*
X02242Y020392*
X022322Y020468*
X022207Y020515*
X022083Y020532*
X02196Y020515*
X021845Y020468*
X021746Y020392*
X021671Y020293*
X021623Y020178*
X021607Y020055*
X021623Y019932*
X021671Y019817*
X021746Y019718*
X021845Y019642*
X02196Y019595*
X022083Y019578*
X022207Y019595*
X022322Y019642*
X02242Y019718*
X022496Y019817*
X022544Y019932*
X02255Y019982*
X022601*
X022607Y019932*
X022655Y019817*
X022731Y019718*
X022829Y019642*
X022944Y019595*
X023068Y019578*
X023191Y019595*
X023306Y019642*
X023405Y019718*
X02348Y019817*
X023526Y019927*
X023538Y019932*
X023565*
X023578Y019927*
X023624Y019817*
X023699Y019718*
X023798Y019642*
X023913Y019595*
X024036Y019578*
X02416Y019595*
X024274Y019642*
X024373Y019718*
X024449Y019817*
X024496Y019932*
X024513Y020055*
X024496Y020178*
X024449Y020293*
X024373Y020392*
X024274Y020468*
X02416Y020515*
X024036Y020532*
G37*
G36*
X010418Y020547D02*
X010339Y020536D01*
X010219Y020486*
X010116Y020407*
X010036Y020304*
X009987Y020184*
X009982Y02015*
X009932*
X009928Y020178*
X00988Y020293*
X009805Y020392*
X009706Y020468*
X009591Y020515*
X009468Y020532*
X009344Y020515*
X009229Y020468*
X009131Y020392*
X009055Y020293*
X009007Y020178*
X008996Y020091*
X008993Y020068*
X008942*
X00894Y020091*
X008928Y020178*
X00888Y020293*
X008805Y020392*
X008706Y020468*
X008591Y020515*
X008468Y020532*
X008344Y020515*
X008229Y020468*
X008131Y020392*
X008055Y020293*
X008007Y020178*
X007996Y020091*
X007993Y020068*
X007943*
X00794Y020091*
X007928Y020178*
X00788Y020293*
X007805Y020392*
X007706Y020468*
X007591Y020515*
X007468Y020532*
X007344Y020515*
X007229Y020468*
X007131Y020392*
X007055Y020293*
X007007Y020178*
X006991Y020055*
X007007Y019932*
X007055Y019817*
X007131Y019718*
X007229Y019642*
X007344Y019595*
X007468Y019579*
X007591Y019595*
X007706Y019642*
X007805Y019718*
X00788Y019817*
X007928Y019932*
X00794Y02002*
X007943Y020042*
X007993*
X007996Y02002*
X008007Y019932*
X008055Y019817*
X008131Y019718*
X008229Y019642*
X008287Y019619*
Y01937*
X007711Y018794*
X002311*
X002242Y01878*
X002184Y018741*
X001332Y017889*
X001293Y017831*
X001279Y017761*
Y013361*
X001293Y013291*
X001332Y013233*
X001838Y012727*
X001897Y012688*
X001966Y012674*
X003568*
X003638Y012688*
X003696Y012727*
X004223Y013254*
X004263Y013313*
X004276Y013382*
Y01424*
X00486Y014823*
X010347*
X011011Y014159*
Y006648*
X010988Y006613*
X010971Y006529*
X010988Y006444*
X011036Y006373*
X011108Y006325*
X011192Y006308*
X011277Y006325*
X011348Y006373*
X011396Y006444*
X011413Y006529*
X011396Y006613*
X011373Y006648*
Y014233*
X011359Y014303*
X01132Y014361*
X010549Y015132*
X010491Y015171*
X010422Y015185*
X004785*
X004716Y015171*
X004657Y015132*
X003968Y014442*
X003929Y014384*
X003915Y014315*
Y013457*
X003494Y013035*
X002041*
X00164Y013435*
Y017687*
X002386Y018432*
X007786*
X007855Y018446*
X007914Y018485*
X008595Y019167*
X008635Y019226*
X008648Y019295*
Y019619*
X008706Y019642*
X008805Y019718*
X00888Y019817*
X008928Y019932*
X00894Y02002*
X008942Y020042*
X008993*
X008996Y02002*
X009007Y019932*
X009055Y019817*
X009131Y019718*
X009229Y019642*
X009344Y019595*
X009468Y019579*
X009591Y019595*
X009706Y019642*
X009805Y019718*
X00988Y019817*
X009928Y019932*
X009932Y019961*
X009982*
X009987Y019926*
X010036Y019806*
X010116Y019703*
X010219Y019624*
X010339Y019574*
X010418Y019564*
Y020055*
Y020547*
G37*
G36*
X021068Y020532D02*
X020944Y020515D01*
X020829Y020468*
X020731Y020392*
X020655Y020293*
X020607Y020178*
X020596Y020091*
X020593Y020068*
X020542*
X02054Y020091*
X020528Y020178*
X02048Y020293*
X020405Y020392*
X020306Y020468*
X020191Y020515*
X020068Y020532*
X019944Y020515*
X019829Y020468*
X019731Y020392*
X019655Y020293*
X019607Y020178*
X019596Y020091*
X019593Y020068*
X019542*
X01954Y020091*
X019528Y020178*
X01948Y020293*
X019405Y020392*
X019306Y020468*
X019191Y020515*
X019068Y020532*
X018944Y020515*
X018829Y020468*
X018731Y020392*
X018655Y020293*
X018607Y020178*
X018596Y020091*
X018593Y020068*
X018542*
X01854Y020091*
X018528Y020178*
X01848Y020293*
X018405Y020392*
X018306Y020468*
X018191Y020515*
X018068Y020532*
X017944Y020515*
X017829Y020468*
X017731Y020392*
X017655Y020293*
X017607Y020178*
X017591Y020055*
X017607Y019932*
X017655Y019817*
X017731Y019718*
X017829Y019642*
X017944Y019595*
X018068Y019578*
X018191Y019595*
X018306Y019642*
X018405Y019718*
X01848Y019817*
X018528Y019932*
X01854Y020019*
X018542Y020042*
X018593*
X018596Y020019*
X018607Y019932*
X018655Y019817*
X018731Y019718*
X018829Y019642*
X018944Y019595*
X019068Y019578*
X019191Y019595*
X019306Y019642*
X019405Y019718*
X01948Y019817*
X019528Y019932*
X01954Y020019*
X019542Y020042*
X019593*
X019596Y020019*
X019607Y019932*
X019655Y019817*
X019731Y019718*
X019829Y019642*
X019944Y019595*
X020068Y019578*
X020191Y019595*
X020306Y019642*
X020405Y019718*
X02048Y019817*
X020528Y019932*
X02054Y020019*
X020542Y020042*
X020593*
X020596Y020019*
X020607Y019932*
X020655Y019817*
X020731Y019718*
X020829Y019642*
X020927Y019602*
Y018896*
X02038Y018348*
X008777*
X008652Y018473*
X008655Y018491*
X008639Y018576*
X008591Y018647*
X008519Y018695*
X008435Y018712*
X00835Y018695*
X008279Y018647*
X008231Y018576*
X008214Y018491*
X008231Y018407*
X008279Y018335*
X00835Y018287*
X008435Y018271*
X008453Y018274*
X008619Y018108*
X008665Y018078*
X008719Y018067*
X020438*
X020492Y018078*
X020537Y018108*
X021167Y018738*
X021198Y018784*
X021208Y018837*
Y019602*
X021306Y019642*
X021405Y019718*
X02148Y019817*
X021528Y019932*
X021544Y020055*
X021528Y020178*
X02148Y020293*
X021405Y020392*
X021306Y020468*
X021191Y020515*
X021068Y020532*
G37*
G36*
X016909Y020528D02*
X015964D01*
Y019583*
X016909*
Y020528*
G37*
G36*
X025509Y020527D02*
X024564D01*
Y019583*
X025509*
Y020527*
G37*
G36*
X010518Y020547D02*
Y020055D01*
Y019564*
X010597Y019574*
X010717Y019624*
X01082Y019703*
X010899Y019806*
X010949Y019926*
X010953Y019961*
X011004*
X011007Y019932*
X011055Y019817*
X011131Y019718*
X011229Y019642*
X011344Y019595*
X011468Y019579*
X011591Y019595*
X011706Y019642*
X011805Y019718*
X01188Y019817*
X011928Y019932*
X01194Y02002*
X011942Y020042*
X011993*
X011996Y02002*
X012007Y019932*
X012055Y019817*
X012131Y019718*
X012229Y019642*
X012344Y019595*
X012468Y019579*
X012591Y019595*
X012706Y019642*
X012805Y019718*
X01288Y019817*
X012928Y019932*
X012944Y020055*
X012928Y020178*
X01288Y020293*
X012805Y020392*
X012706Y020468*
X012591Y020515*
X012468Y020532*
X012344Y020515*
X012229Y020468*
X012131Y020392*
X012055Y020293*
X012007Y020178*
X011996Y020091*
X011993Y020068*
X011942*
X01194Y020091*
X011928Y020178*
X01188Y020293*
X011805Y020392*
X011706Y020468*
X011591Y020515*
X011468Y020532*
X011344Y020515*
X011229Y020468*
X011131Y020392*
X011055Y020293*
X011007Y020178*
X011004Y02015*
X010953*
X010949Y020184*
X010899Y020304*
X01082Y020407*
X010717Y020486*
X010597Y020536*
X010518Y020547*
G37*
G36*
X010366Y019337D02*
X009246D01*
X009174Y019328*
X009107Y0193*
X009049Y019256*
X009005Y019198*
X008977Y019131*
X008968Y019059*
X008977Y018987*
X009005Y01892*
X009049Y018863*
X009107Y018818*
X009174Y018791*
X009246Y018781*
X01025*
X010531Y0185*
X010589Y018456*
X010656Y018428*
X010728Y018419*
X0108Y018428*
X010867Y018456*
X010925Y0185*
X010969Y018558*
X010996Y018625*
X011006Y018697*
X010996Y018769*
X010969Y018836*
X010925Y018893*
X010562Y019256*
X010505Y0193*
X010437Y019328*
X010366Y019337*
G37*
G36*
X011111Y016117D02*
X011027Y0161D01*
X010955Y016052*
X010907Y015981*
X01089Y015896*
X010907Y015812*
X010955Y01574*
X011027Y015692*
X011111Y015675*
X011196Y015692*
X011267Y01574*
X011315Y015812*
X011332Y015896*
X011315Y015981*
X011267Y016052*
X011196Y0161*
X011111Y016117*
G37*
G36*
X013065Y015549D02*
X01298Y015532D01*
X012909Y015484*
X012861Y015413*
X012844Y015328*
X012861Y015244*
X012909Y015172*
X01298Y015124*
X013065Y015108*
X013149Y015124*
X013221Y015172*
X013269Y015244*
X013286Y015328*
X013269Y015413*
X013221Y015484*
X013149Y015532*
X013065Y015549*
G37*
G36*
X012571D02*
X012486Y015532D01*
X012415Y015484*
X012367Y015413*
X01235Y015328*
X012367Y015244*
X012415Y015172*
X012486Y015124*
X012571Y015108*
X012655Y015124*
X012727Y015172*
X012775Y015244*
X012792Y015328*
X012775Y015413*
X012727Y015484*
X012655Y015532*
X012571Y015549*
G37*
G36*
X002768Y014593D02*
X002681Y014582D01*
X0026Y014548*
X00253Y014495*
X002476Y014425*
X002442Y014343*
X002431Y014256*
X002442Y014169*
X002476Y014087*
X00253Y014017*
X0026Y013964*
X002681Y01393*
X002768Y013918*
X002856Y01393*
X002937Y013964*
X003007Y014017*
X003061Y014087*
X003094Y014169*
X003106Y014256*
X003094Y014343*
X003061Y014425*
X003007Y014495*
X002937Y014548*
X002856Y014582*
X002768Y014593*
G37*
G36*
X013666Y014333D02*
X013581Y014316D01*
X01351Y014268*
X013499Y014252*
X012814*
X01276Y014242*
X012715Y014211*
X012269Y013765*
X012238Y01372*
X012228Y013666*
Y0103*
X012238Y010246*
X012269Y010201*
X012408Y010062*
X012453Y010031*
X012507Y010021*
X012665*
X012684Y009991*
X012763Y009939*
X012855Y00992*
X012947Y009939*
X013025Y009991*
X013077Y010069*
X013096Y010161*
X013077Y010253*
X013025Y010331*
X012947Y010384*
X012855Y010402*
X012763Y010384*
X012684Y010331*
X012665Y010302*
X012565*
X012509Y010358*
Y013608*
X012872Y013971*
X013499*
X01351Y013956*
X013581Y013908*
X013666Y013891*
X01375Y013908*
X013822Y013956*
X01387Y014027*
X013887Y014112*
X01387Y014196*
X013822Y014268*
X01375Y014316*
X013666Y014333*
G37*
G36*
X002768Y013806D02*
X002681Y013795D01*
X0026Y013761*
X00253Y013707*
X002476Y013637*
X002442Y013556*
X002431Y013469*
X002442Y013381*
X002476Y0133*
X00253Y01323*
X0026Y013176*
X002681Y013142*
X002768Y013131*
X002856Y013142*
X002937Y013176*
X003007Y01323*
X003061Y0133*
X003094Y013381*
X003106Y013469*
X003094Y013556*
X003061Y013637*
X003007Y013707*
X002937Y013761*
X002856Y013795*
X002768Y013806*
G37*
G36*
X00975Y014715D02*
X009665Y014698D01*
X009593Y01465*
X009546Y014579*
X009529Y014494*
X009546Y01441*
X009593Y014338*
X009665Y01429*
X00975Y014273*
X009834Y01429*
X009906Y014338*
X009916Y014354*
X010184*
X010524Y014013*
Y012486*
X010518Y012483*
X010474Y012471*
X010434Y012498*
X010381Y012509*
X009916*
X009906Y012524*
X009834Y012572*
X00975Y012589*
X009665Y012572*
X009593Y012524*
X009558Y012471*
X009508Y012486*
Y012873*
X009731Y013096*
X00975Y013092*
X009834Y013109*
X009906Y013157*
X009954Y013229*
X00997Y013313*
X009954Y013397*
X009906Y013469*
X009834Y013517*
X00975Y013534*
X009665Y013517*
X009593Y013469*
X009546Y013397*
X009529Y013313*
X009532Y013295*
X009268Y01303*
X009238Y012984*
X009227Y012931*
Y011192*
Y007259*
X009238Y007205*
X009268Y007159*
X009471Y006957*
X009516Y006926*
X00957Y006915*
X009976*
X010029Y006926*
X010075Y006957*
X010237Y007119*
X010268Y007164*
X010278Y007218*
Y0077*
X010294Y007711*
X010342Y007782*
X010359Y007867*
X010342Y007951*
X010306Y008004*
X01033Y008054*
X010344*
X010398Y008065*
X010443Y008096*
X010764Y008416*
X010794Y008462*
X010805Y008515*
Y009038*
X010821Y009049*
X010869Y00912*
X010885Y009205*
X010869Y009289*
X010821Y009361*
X010805Y009371*
Y010098*
Y012084*
Y014072*
X010794Y014125*
X010764Y014171*
X010341Y014593*
X010296Y014624*
X010242Y014635*
X009916*
X009906Y01465*
X009834Y014698*
X00975Y014715*
G37*
G36*
X023804Y013179D02*
X023719Y013162D01*
X023647Y013114*
X0236Y013042*
X023583Y012958*
X0236Y012873*
X023647Y012802*
X023719Y012754*
X023804Y012737*
X023888Y012754*
X02396Y012802*
X024008Y012873*
X024024Y012958*
X024008Y013042*
X02396Y013114*
X023888Y013162*
X023804Y013179*
G37*
G36*
X025565Y012384D02*
X023907D01*
Y012236*
X023691*
X023656Y012259*
X023572Y012276*
X023487Y012259*
X023415Y012211*
X023368Y012139*
X023351Y012055*
X023368Y011971*
X023415Y011899*
X023487Y011851*
X023572Y011834*
X023656Y011851*
X023691Y011874*
X023907*
Y011726*
X025565*
Y012384*
G37*
G36*
X023195Y017999D02*
X014031D01*
X013959Y017989*
X013892Y017962*
X013834Y017917*
X01379Y01786*
X013762Y017793*
X013753Y017721*
X013762Y017649*
X01379Y017582*
X013834Y017524*
X013892Y01748*
X013928Y017465*
X013918Y017415*
X003001*
X002947Y017405*
X002901Y017374*
X002172Y016644*
X002141Y016599*
X00213Y016545*
Y015541*
X002141Y015487*
X002172Y015441*
X002454Y015159*
X002442Y015131*
X002431Y015043*
X002442Y014956*
X002476Y014875*
X00253Y014805*
X0026Y014751*
X002681Y014717*
X002768Y014706*
X002856Y014717*
X002937Y014751*
X003007Y014805*
X003061Y014875*
X003094Y014956*
X003106Y015043*
X003094Y015131*
X003061Y015212*
X003007Y015282*
X002937Y015336*
X002856Y015369*
X002768Y015381*
X002681Y015369*
X002653Y015358*
X002411Y015599*
Y015687*
X002461Y015697*
X002476Y015662*
X00253Y015592*
X0026Y015538*
X002681Y015505*
X002768Y015493*
X002856Y015505*
X002937Y015538*
X003007Y015592*
X003061Y015662*
X003094Y015743*
X003106Y015831*
X003094Y015918*
X003061Y015999*
X003007Y016069*
X002937Y016123*
X002909Y016135*
Y016416*
X003305Y016813*
X008766*
X008786Y016763*
X008157Y016133*
X008113Y016076*
X008085Y016009*
X008076Y015937*
X008085Y015865*
X008113Y015798*
X008157Y01574*
X008215Y015696*
X008282Y015668*
X008354Y015659*
X008425Y015668*
X008493Y015696*
X00855Y01574*
X009118Y016307*
X015629*
X01651Y015426*
Y015409*
X01652Y015338*
X016547Y01527*
X016592Y015213*
X016648Y01517*
Y015166*
X016637Y01512*
X015572*
X0155Y01511*
X015433Y015082*
X015375Y015038*
X01381Y013473*
X01373Y013462*
X013639Y013425*
X013561Y013365*
X013501Y013287*
X013464Y013196*
X013451Y013098*
Y011812*
X013401Y011807*
X013398Y01182*
X01335Y011892*
X013279Y01194*
X013194Y011957*
X01311Y01194*
X013038Y011892*
X01299Y01182*
X012973Y011736*
X01299Y011651*
X013038Y01158*
X01311Y011532*
X013194Y011515*
X013279Y011532*
X01335Y01158*
X013398Y011651*
X013401Y011665*
X013451Y01166*
Y01107*
Y010911*
X013401Y010906*
X013398Y010919*
X01335Y010991*
X013279Y011039*
X013194Y011056*
X01311Y011039*
X013038Y010991*
X01299Y010919*
X012973Y010835*
X01299Y01075*
X013038Y010679*
X01311Y010631*
X013194Y010614*
X013279Y010631*
X01335Y010679*
X013398Y01075*
X013401Y010763*
X013451Y010758*
Y008862*
X013454Y008836*
X013451Y008811*
Y006523*
X012658Y00573*
X00997*
X009136Y006563*
Y013706*
X009123Y013804*
X009086Y013895*
X009026Y013973*
X008611Y014388*
X008533Y014448*
X008442Y014485*
X008344Y014498*
X005849*
X005751Y014485*
X00566Y014448*
X005582Y014388*
X005127Y013932*
X005067Y013854*
X005029Y013763*
X005016Y013666*
Y008169*
X004597Y007749*
X002809*
X002711Y007736*
X00262Y007699*
X002542Y007639*
X002482Y007561*
X002444Y00747*
X002432Y007372*
X002444Y007274*
X002482Y007183*
X002542Y007105*
X00262Y007045*
X002711Y007008*
X002809Y006995*
X004753*
X00485Y007008*
X004941Y007045*
X00502Y007105*
X005376Y007461*
X007823*
Y005263*
X007549Y004988*
X007505Y004931*
X007477Y004864*
X007467Y004792*
Y004136*
X007477Y004064*
X007505Y003997*
X007549Y00394*
X008076Y003413*
X008133Y003368*
X008201Y003341*
X008272Y003331*
X009124*
X009196Y003341*
X009263Y003368*
X009321Y003413*
X009726Y003818*
X010613*
X010685Y003827*
X010752Y003855*
X010809Y003899*
X010854Y003957*
X010881Y004024*
X010891Y004096*
X010881Y004168*
X010854Y004235*
X010809Y004292*
X010752Y004336*
X010685Y004364*
X010613Y004374*
X009611*
X009539Y004364*
X009472Y004336*
X009414Y004292*
X009009Y003887*
X008388*
X008023Y004251*
Y004677*
X008298Y004951*
X008342Y005009*
X00837Y005076*
X008379Y005148*
Y006216*
X008429Y006226*
X008432Y006218*
X008492Y00614*
X009547Y005086*
X009625Y005026*
X009716Y004988*
X009813Y004976*
X012814*
X012912Y004988*
X012998Y005024*
X015669*
X015861Y004832*
Y004238*
X015765*
Y004147*
X015715Y004126*
X01556Y004282*
X015501Y004321*
X015432Y004335*
X015362*
Y004391*
X014889*
Y003929*
Y003918*
X014864Y003879*
X01483*
Y002934*
X014945*
Y001509*
X014845Y001468*
X014746Y001392*
X014671Y001293*
X014623Y001178*
X014607Y001055*
X014623Y000932*
X014671Y000817*
X014746Y000718*
X014845Y000642*
X01496Y000595*
X015083Y000578*
X015207Y000595*
X015322Y000642*
X01542Y000718*
X015496Y000817*
X015538Y000918*
X01556Y000922*
X01559Y000918*
X015636Y000806*
X015716Y000703*
X015819Y000624*
X015939Y000574*
X016018Y000564*
Y001055*
Y001546*
X015939Y001536*
X015819Y001486*
X015716Y001407*
X015636Y001304*
X01559Y001192*
X01556Y001188*
X015538Y001192*
X015496Y001293*
X01542Y001392*
X015322Y001468*
X015306Y001474*
Y002934*
X015421*
Y003839*
X015471Y00386*
X015555Y003775*
X015614Y003736*
X015683Y003722*
X015765*
Y00359*
X015744*
Y003284*
X016139*
X016535*
Y00359*
X016513*
Y004238*
X016417*
Y004947*
X016408Y005019*
X01638Y005086*
X016336Y005144*
X015981Y005499*
X015924Y005543*
X015857Y00557*
X015785Y00558*
X01364*
X013621Y005626*
X014095Y0061*
X014155Y006178*
X014192Y006269*
X014205Y006367*
Y008558*
X01519*
X015262Y008568*
X015329Y008596*
X015386Y00864*
X015818Y009071*
X017973*
X018012Y009044*
Y008591*
X018484*
Y008637*
X019818*
X020382Y008073*
X020361Y008023*
X018694*
X018622Y008014*
X018555Y007986*
X018498Y007942*
X018139Y007583*
X018095Y007526*
X018067Y007459*
X018058Y007387*
Y006883*
Y006238*
X018067Y006167*
X018095Y006099*
X018139Y006042*
X018419Y005762*
X018476Y005718*
X018543Y00569*
X018615Y005681*
X018639*
Y00568*
X019096*
Y005804*
X019108Y00582*
X019136Y005887*
X019146Y005959*
X019136Y006031*
X019108Y006098*
X019096Y006113*
Y006238*
X018729*
X018614Y006354*
Y006587*
X018986*
X019727Y005846*
X019785Y005801*
X019852Y005774*
X019924Y005764*
X023688*
X024491Y004962*
X024499Y004955*
Y004558*
X024485Y00454*
X024451Y004458*
X024439Y004371*
X024451Y004283*
X024485Y004202*
X024538Y004132*
X024608Y004078*
X02469Y004045*
X024777Y004033*
X024864Y004045*
X024946Y004078*
X024964Y004093*
X025457*
X025529Y004102*
X025596Y00413*
X025654Y004174*
X02619Y00471*
X026234Y004768*
X026262Y004835*
X026271Y004907*
Y008313*
X026262Y008385*
X026234Y008452*
X02619Y00851*
X0255Y009199*
X025443Y009243*
X025376Y009271*
X025304Y00928*
X02331*
X022865Y009726*
Y013834*
X024974*
X024989Y013784*
X024986Y013781*
X024938Y01371*
X024921Y013625*
X024938Y013541*
X024986Y013469*
X025057Y013421*
X025142Y013404*
X025226Y013421*
X025298Y013469*
X025346Y013541*
X025363Y013625*
X025346Y01371*
X025298Y013781*
X025294Y013784*
X025309Y013834*
X026208*
Y012384*
X025657*
Y011726*
X02628*
X026307Y011676*
X026287Y011646*
X02627Y011562*
X026287Y011477*
X026305Y011449*
Y011384*
X025657*
Y010726*
X027315*
Y011384*
X026666*
Y011435*
X026695Y011477*
X026711Y011562*
X026695Y011646*
X026674Y011676*
X026701Y011726*
X027315*
Y012384*
X026764*
Y01443*
X026754Y014502*
X026727Y014569*
X026682Y014627*
X023392Y017917*
X023334Y017962*
X023267Y017989*
X023195Y017999*
G37*
G36*
X025565Y011384D02*
X023907D01*
Y011236*
X023686*
X023651Y011259*
X023567Y011276*
X023482Y011259*
X023411Y011211*
X023363Y011139*
X023346Y011055*
X023363Y010971*
X023411Y010899*
X023482Y010851*
X023567Y010834*
X023651Y010851*
X023686Y010874*
X023907*
Y010726*
X025565*
Y011384*
G37*
G36*
X002799Y011179D02*
X002712Y011167D01*
X002631Y011134*
X002561Y01108*
X002507Y01101*
X002473Y010929*
X002462Y010841*
X002473Y010754*
X002507Y010673*
X002561Y010603*
X002631Y010549*
X002712Y010515*
X002799Y010504*
X002887Y010515*
X002968Y010549*
X003038Y010603*
X003092Y010673*
X003126Y010754*
X003137Y010841*
X003126Y010929*
X003092Y01101*
X003038Y01108*
X002968Y011134*
X002887Y011167*
X002799Y011179*
G37*
G36*
X025565Y010384D02*
X023907D01*
Y010237*
X02368*
X023645Y010261*
X02356Y010277*
X023476Y010261*
X023404Y010213*
X023356Y010141*
X023339Y010057*
X023356Y009972*
X023404Y009901*
X023476Y009853*
X02356Y009836*
X023645Y009853*
X02368Y009876*
X023907*
Y009726*
X025565*
Y010384*
G37*
G36*
X027336Y010405D02*
X026536D01*
Y010105*
X027336*
Y010405*
G37*
G36*
X026436D02*
X025636D01*
Y010105*
X026436*
Y010405*
G37*
G36*
X002849Y010406D02*
Y010104D01*
X003152*
X003146Y010147*
X00311Y010234*
X003053Y010308*
X002979Y010365*
X002892Y010401*
X002849Y010406*
G37*
G36*
X002749D02*
X002707Y010401D01*
X00262Y010365*
X002546Y010308*
X002489Y010234*
X002453Y010147*
X002447Y010104*
X002749*
Y010406*
G37*
G36*
X027336Y010005D02*
X026536D01*
Y009705*
X027336*
Y010005*
G37*
G36*
X026436D02*
X025636D01*
Y009705*
X026436*
Y010005*
G37*
G36*
X003152Y010004D02*
X002849D01*
Y009702*
X002892Y009707*
X002979Y009743*
X003053Y0098*
X00311Y009875*
X003146Y009961*
X003152Y010004*
G37*
G36*
X002749D02*
X002447D01*
X002453Y009961*
X002489Y009875*
X002546Y0098*
X00262Y009743*
X002707Y009707*
X002749Y009702*
Y010004*
G37*
G36*
X012855Y009811D02*
X012763Y009793D01*
X012684Y00974*
X012632Y009662*
X012614Y00957*
X012632Y009478*
X012684Y0094*
X012763Y009348*
X012855Y009329*
X012947Y009348*
X013025Y0094*
X013077Y009478*
X013096Y00957*
X013077Y009662*
X013025Y00974*
X012947Y009793*
X012855Y009811*
G37*
G36*
X010665Y007885D02*
X01058Y007868D01*
X010508Y00782*
X010461Y007749*
X010444Y007664*
X010461Y00758*
X010508Y007508*
X01058Y00746*
X010665Y007443*
X010749Y00746*
X010821Y007508*
X010869Y00758*
X010885Y007664*
X010869Y007749*
X010821Y00782*
X010749Y007868*
X010665Y007885*
G37*
G36*
X016626Y007114D02*
X016542Y007098D01*
X01647Y00705*
X016422Y006978*
X016405Y006894*
X016422Y006809*
X01647Y006738*
X016542Y00669*
X016626Y006673*
X01671Y00669*
X016782Y006738*
X01683Y006809*
X016847Y006894*
X01683Y006978*
X016782Y00705*
X01671Y007098*
X016626Y007114*
G37*
G36*
X002859Y006937D02*
Y006635D01*
X003161*
X003156Y006678*
X00312Y006764*
X003063Y006838*
X002988Y006895*
X002902Y006931*
X002859Y006937*
G37*
G36*
X002759D02*
X002716Y006931D01*
X002629Y006895*
X002555Y006838*
X002498Y006764*
X002462Y006678*
X002456Y006635*
X002759*
Y006937*
G37*
G36*
Y006535D02*
X002456D01*
X002462Y006492*
X002498Y006405*
X002555Y006331*
X002629Y006274*
X002716Y006238*
X002759Y006232*
Y006535*
G37*
G36*
X003161D02*
X002859D01*
Y006232*
X002902Y006238*
X002988Y006274*
X003063Y006331*
X00312Y006405*
X003156Y006492*
X003161Y006535*
G37*
G36*
X023317Y005695D02*
X023232Y005678D01*
X023161Y005631*
X023113Y005559*
X023096Y005474*
X023113Y00539*
X023161Y005318*
X023232Y00527*
X023317Y005254*
X023401Y00527*
X023473Y005318*
X023521Y00539*
X023538Y005474*
X023521Y005559*
X023473Y005631*
X023401Y005678*
X023317Y005695*
G37*
G36*
X018744Y005432D02*
X018544D01*
Y005182*
X018744*
Y005432*
G37*
G36*
X018444D02*
X018244D01*
Y005182*
X018444*
Y005432*
G37*
G36*
X018744Y005082D02*
X018544D01*
Y004832*
X018744*
Y005082*
G37*
G36*
X018444D02*
X018244D01*
Y004832*
X018444*
Y005082*
G37*
G36*
X011585Y003779D02*
X0115Y003762D01*
X011428Y003714*
X011381Y003642*
X011364Y003558*
X011381Y003473*
X011428Y003402*
X0115Y003354*
X011585Y003337*
X011669Y003354*
X011741Y003402*
X011789Y003473*
X011805Y003558*
X011789Y003642*
X011741Y003714*
X011669Y003762*
X011585Y003779*
G37*
G36*
X002025Y003764D02*
X001907D01*
Y003022*
X002294*
Y003494*
X002285Y003564*
X002258Y003629*
X002215Y003685*
X002159Y003728*
X002094Y003755*
X002025Y003764*
G37*
G36*
X001807D02*
X00169D01*
X00162Y003755*
X001555Y003728*
X001499Y003685*
X001456Y003629*
X001429Y003564*
X00142Y003494*
Y003022*
X001807*
Y003764*
G37*
G36*
X016535Y003184D02*
X016189D01*
Y002878*
X016535*
Y003184*
G37*
G36*
X016089D02*
X015744D01*
Y002878*
X016089*
Y003184*
G37*
G36*
X021817Y004114D02*
X021732Y004097D01*
X02166Y004049*
X021613Y003977*
X021596Y003893*
X021613Y003808*
X021636Y003774*
Y003082*
X02165Y003013*
X021689Y002954*
X021932Y002711*
X021991Y002672*
X02206Y002658*
X022298*
Y002602*
X02275*
Y003075*
X022298*
Y003019*
X022135*
X021997Y003157*
Y003774*
X022021Y003808*
X022037Y003893*
X022021Y003977*
X021973Y004049*
X021901Y004097*
X021817Y004114*
G37*
G36*
X005393Y006567D02*
X005301Y006549D01*
X005223Y006496*
X005171Y006418*
X005152Y006326*
X005171Y006234*
X005213Y006171*
Y004663*
X005226Y004594*
X005266Y004536*
X007496Y002305*
X007554Y002266*
X007624Y002252*
X008559*
X008593Y002229*
X008678Y002212*
X008762Y002229*
X008834Y002277*
X008882Y002349*
X008899Y002433*
X008882Y002518*
X008834Y002589*
X008762Y002637*
X008678Y002654*
X008593Y002637*
X008559Y002614*
X007698*
X005574Y004738*
Y006171*
X005616Y006234*
X005634Y006326*
X005616Y006418*
X005564Y006496*
X005485Y006549*
X005393Y006567*
G37*
G36*
X004387Y003745D02*
X004052D01*
X003956Y003726*
X003875Y003672*
X00382Y00359*
X003801Y003494*
Y002451*
X00382Y002355*
X003875Y002273*
X003956Y002219*
X004052Y0022*
X004387*
X004483Y002219*
X004564Y002273*
X004619Y002355*
X004638Y002451*
Y003494*
X004619Y00359*
X004564Y003672*
X004483Y003726*
X004387Y003745*
G37*
G36*
X002294Y002922D02*
X001907D01*
Y002181*
X002025*
X002094Y00219*
X002159Y002217*
X002215Y00226*
X002258Y002316*
X002285Y002381*
X002294Y002451*
Y002922*
G37*
G36*
X001807D02*
X00142D01*
Y002451*
X001429Y002381*
X001456Y002316*
X001499Y00226*
X001555Y002217*
X00162Y00219*
X00169Y002181*
X001807*
Y002922*
G37*
G36*
X00356Y00152D02*
X003088D01*
Y001133*
X00383*
Y00125*
X00382Y00132*
X003794Y001385*
X003751Y001441*
X003695Y001484*
X00363Y00151*
X00356Y00152*
G37*
G36*
X002988D02*
X002517D01*
X002447Y00151*
X002382Y001484*
X002326Y001441*
X002283Y001385*
X002256Y00132*
X002247Y00125*
Y001133*
X002988*
Y00152*
G37*
G36*
X023282Y003075D02*
X022829D01*
Y002602*
X022915*
Y001503*
X022829Y001468*
X022731Y001392*
X022655Y001293*
X022607Y001178*
X022601Y001128*
X02255*
X022544Y001178*
X022496Y001293*
X02242Y001392*
X022322Y001468*
X022207Y001515*
X022083Y001532*
X02196Y001515*
X021845Y001468*
X021746Y001392*
X021671Y001293*
X021623Y001178*
X021607Y001055*
X021623Y000932*
X021671Y000817*
X021746Y000718*
X021845Y000642*
X02196Y000595*
X022083Y000578*
X022207Y000595*
X022322Y000642*
X02242Y000718*
X022496Y000817*
X022544Y000932*
X02255Y000982*
X022601*
X022607Y000932*
X022655Y000817*
X022731Y000718*
X022829Y000642*
X022944Y000595*
X023068Y000578*
X023191Y000595*
X023306Y000642*
X023405Y000718*
X02348Y000817*
X023526Y000927*
X023538Y000932*
X023565*
X023578Y000927*
X023624Y000817*
X023699Y000718*
X023798Y000642*
X023913Y000595*
X024036Y000578*
X02416Y000595*
X024274Y000642*
X024373Y000718*
X024449Y000817*
X024496Y000932*
X024513Y001055*
X024496Y001178*
X024449Y001293*
X024373Y001392*
X024274Y001468*
X02416Y001515*
X024036Y001532*
X023913Y001515*
X023798Y001468*
X023699Y001392*
X023624Y001293*
X023578Y001183*
X023565Y001178*
X023538*
X023526Y001183*
X02348Y001293*
X023405Y001392*
X023306Y001468*
X023196Y001513*
Y002602*
X023282*
Y003075*
G37*
G36*
X01947Y005411D02*
X019013D01*
Y004853*
X019061*
Y004429*
X019002*
Y003976*
X019116*
X019126Y003926*
X019086Y00391*
X01907Y003898*
X019002*
Y003831*
X018984Y003808*
X018956Y003741*
X018947Y003669*
X018956Y003597*
X018984Y00353*
X019002Y003506*
Y003445*
X019064*
X019086Y003428*
X019153Y0034*
X019225Y003391*
X019898*
X02079Y002499*
Y001437*
X020731Y001392*
X020655Y001293*
X020607Y001178*
X020596Y001091*
X020593Y001068*
X020542*
X02054Y001091*
X020528Y001178*
X02048Y001293*
X020405Y001392*
X020306Y001468*
X020191Y001515*
X020068Y001532*
X019944Y001515*
X019829Y001468*
X019731Y001392*
X019655Y001293*
X019607Y001178*
X019591Y001055*
X019607Y000932*
X019655Y000817*
X019731Y000718*
X019829Y000642*
X019944Y000595*
X020068Y000578*
X020191Y000595*
X020306Y000642*
X020405Y000718*
X02048Y000817*
X020528Y000932*
X02054Y001019*
X020542Y001042*
X020593*
X020596Y001019*
X020607Y000932*
X020655Y000817*
X020731Y000718*
X020829Y000642*
X020944Y000595*
X021068Y000578*
X021191Y000595*
X021306Y000642*
X021405Y000718*
X02148Y000817*
X021528Y000932*
X021544Y001055*
X021528Y001178*
X02148Y001293*
X021405Y001392*
X021346Y001437*
Y002614*
X021336Y002686*
X021308Y002753*
X021264Y002811*
X02021Y003865*
X020152Y00391*
X020085Y003937*
X020013Y003947*
X019512*
X019475Y003976*
Y003997*
Y004429*
X019422*
Y004853*
X01947*
Y005411*
G37*
G36*
X014068Y001532D02*
X013944Y001515D01*
X013829Y001468*
X013731Y001392*
X013655Y001293*
X013607Y001178*
X013596Y001091*
X013593Y001068*
X013542*
X01354Y001091*
X013528Y001178*
X01348Y001293*
X013405Y001392*
X013306Y001468*
X013191Y001515*
X013068Y001532*
X012944Y001515*
X012829Y001468*
X012731Y001392*
X012655Y001293*
X012607Y001178*
X012596Y001091*
X012593Y001068*
X012542*
X01254Y001091*
X012528Y001178*
X01248Y001293*
X012405Y001392*
X012306Y001468*
X012191Y001515*
X012068Y001532*
X011944Y001515*
X011829Y001468*
X011731Y001392*
X011655Y001293*
X011607Y001178*
X011596Y001091*
X011593Y001068*
X011542*
X01154Y001091*
X011528Y001178*
X01148Y001293*
X011405Y001392*
X011306Y001468*
X011191Y001515*
X011068Y001532*
X010944Y001515*
X010829Y001468*
X010731Y001392*
X010655Y001293*
X010607Y001178*
X010591Y001055*
X010607Y000932*
X010655Y000817*
X010731Y000718*
X010829Y000642*
X010944Y000595*
X011068Y000578*
X011191Y000595*
X011306Y000642*
X011405Y000718*
X01148Y000817*
X011528Y000932*
X01154Y001019*
X011542Y001042*
X011593*
X011596Y001019*
X011607Y000932*
X011655Y000817*
X011731Y000718*
X011829Y000642*
X011944Y000595*
X012068Y000578*
X012191Y000595*
X012306Y000642*
X012405Y000718*
X01248Y000817*
X012528Y000932*
X01254Y001019*
X012542Y001042*
X012593*
X012596Y001019*
X012607Y000932*
X012655Y000817*
X012731Y000718*
X012829Y000642*
X012944Y000595*
X013068Y000578*
X013191Y000595*
X013306Y000642*
X013405Y000718*
X01348Y000817*
X013528Y000932*
X01354Y001019*
X013542Y001042*
X013593*
X013596Y001019*
X013607Y000932*
X013655Y000817*
X013731Y000718*
X013829Y000642*
X013944Y000595*
X014068Y000578*
X014191Y000595*
X014306Y000642*
X014405Y000718*
X01448Y000817*
X014528Y000932*
X014544Y001055*
X014528Y001178*
X01448Y001293*
X014405Y001392*
X014306Y001468*
X014191Y001515*
X014068Y001532*
G37*
G36*
X00383Y001033D02*
X003088D01*
Y000646*
X00356*
X00363Y000655*
X003695Y000682*
X003751Y000725*
X003794Y000781*
X00382Y000846*
X00383Y000915*
Y001033*
G37*
G36*
X002988D02*
X002247D01*
Y000915*
X002256Y000846*
X002283Y000781*
X002326Y000725*
X002382Y000682*
X002447Y000655*
X002517Y000646*
X002988*
Y001033*
G37*
G36*
X025509Y001527D02*
X024564D01*
Y000583*
X025509*
Y001527*
G37*
G36*
X017086Y001546D02*
Y001055D01*
Y000564*
X017165Y000574*
X017285Y000624*
X017388Y000703*
X017467Y000806*
X017517Y000926*
X017564Y000914*
Y000583*
X018509*
Y001527*
X017564*
Y001196*
X017517Y001184*
X017467Y001304*
X017388Y001407*
X017285Y001486*
X017165Y001536*
X017086Y001546*
G37*
G36*
X016118D02*
Y001055D01*
Y000564*
X016197Y000574*
X016317Y000624*
X01642Y000703*
X016499Y000806*
X016525Y000869*
X016579*
X016605Y000806*
X016684Y000703*
X016787Y000624*
X016907Y000574*
X016986Y000564*
Y001055*
Y001546*
X016907Y001536*
X016787Y001486*
X016684Y001407*
X016605Y001304*
X016579Y001241*
X016525*
X016499Y001304*
X01642Y001407*
X016317Y001486*
X016197Y001536*
X016118Y001546*
G37*
%LNvapeixshield-3*%
%LPD*%
G36*
X022309Y013997D02*
Y009611D01*
X022319Y009539*
X022346Y009472*
X02239Y009414*
X022999Y008806*
X023056Y008762*
X023123Y008734*
X023195Y008724*
X025189*
X025715Y008198*
Y005022*
X025342Y004649*
X025055*
Y004971*
X025069Y004989*
X025103Y005071*
X025115Y005158*
X025103Y005246*
X025069Y005327*
X025016Y005397*
X024946Y005451*
X024864Y005484*
X024777Y005496*
X024747Y005492*
X024662Y005577*
X02469Y00562*
X024777Y005608*
X024864Y00562*
X024946Y005653*
X025016Y005707*
X02506Y005765*
X025167*
X025236Y005779*
X025295Y005818*
X025594Y006117*
X025633Y006176*
X025647Y006245*
Y007989*
X025633Y008058*
X025594Y008116*
X025401Y008309*
X025343Y008348*
X025274Y008362*
X0227*
X022676Y008406*
X022688Y008424*
X022706Y008516*
X022688Y008608*
X022636Y008686*
X022558Y008738*
X022465Y008757*
X022373Y008738*
X022295Y008686*
X022243Y008608*
X022225Y008516*
X022243Y008424*
X022255Y008406*
X022231Y008362*
X020604*
X020047Y008918*
Y00982*
X020145*
Y010278*
X019588*
Y00982*
X019686*
Y008998*
X018484*
Y009044*
X018362*
X018352Y009094*
X018387Y009108*
X018406Y009123*
X018484*
Y009204*
X018489Y00921*
X018517Y009277*
X018526Y009349*
X018517Y009421*
X018498Y009465*
X018502Y009472*
X018536Y009505*
X018589Y009494*
X018761*
Y009446*
X019319*
Y009904*
X018761*
Y009856*
X018664*
X018429Y010091*
Y010173*
X018484*
Y010626*
X018012*
Y010173*
X018067*
Y010016*
X018081Y009947*
X01812Y009888*
X018349Y00966*
X018321Y009617*
X01832Y009618*
X018248Y009627*
X015703*
X015631Y009618*
X015564Y00959*
X015506Y009546*
X015075Y009114*
X014205*
Y010693*
X015066*
X015092Y010682*
X01519Y01067*
X015287Y010682*
X015378Y01072*
X015457Y01078*
X015516Y010858*
X015554Y010949*
X015567Y011047*
X015554Y011144*
X015516Y011235*
X015457Y011314*
X015433Y011337*
X015355Y011397*
X015264Y011435*
X015166Y011448*
X014205*
Y013082*
X015687Y014564*
X021742*
X022309Y013997*
G37*
%LNvapeixshield-4*%
%LPC*%
G36*
X021208Y014505D02*
X021124Y014488D01*
X021052Y01444*
X021004Y014369*
X020987Y014284*
X020995Y014244*
X02096Y014209*
X020951Y014211*
X020909Y014203*
X020753Y01436*
X020713Y014386*
X020667Y014395*
X019725*
X019702Y01443*
X01963Y014478*
X019546Y014495*
X019461Y014478*
X01939Y01443*
X019342Y014359*
X019325Y014274*
X019342Y01419*
X01939Y014118*
X019461Y01407*
X019546Y014053*
X01963Y01407*
X019702Y014118*
X019725Y014153*
X020617*
X020738Y014032*
X02073Y01399*
X020747Y013906*
X020795Y013834*
X020866Y013786*
X020951Y013769*
X021035Y013786*
X021107Y013834*
X021155Y013906*
X021172Y01399*
X021164Y01403*
X021199Y014065*
X021208Y014063*
X021293Y01408*
X021364Y014128*
X021412Y0142*
X021429Y014284*
X021412Y014369*
X021364Y01444*
X021293Y014488*
X021208Y014505*
G37*
G36*
X021817Y01413D02*
X021732Y014113D01*
X02166Y014065*
X021613Y013994*
X021596Y013909*
X021613Y013825*
X02166Y013753*
X021732Y013705*
X021817Y013688*
X021901Y013705*
X021973Y013753*
X022021Y013825*
X022037Y013909*
X022021Y013994*
X021973Y014065*
X021901Y014113*
X021817Y01413*
G37*
G36*
X016788Y01439D02*
X016716Y01438D01*
X016649Y014353*
X016592Y014308*
X016547Y014251*
X01652Y014184*
X01651Y014112*
Y013504*
X01652Y013432*
X016547Y013365*
X016592Y013307*
X016957Y012942*
X017014Y012898*
X017081Y01287*
X017153Y012861*
X017225Y01287*
X017292Y012898*
X01735Y012942*
X017394Y013*
X017422Y013067*
X017431Y013139*
X017422Y013211*
X017394Y013278*
X01735Y013335*
X017066Y013619*
Y014112*
X017057Y014184*
X017029Y014251*
X016985Y014308*
X016927Y014353*
X01686Y01438*
X016788Y01439*
G37*
G36*
X018248Y011941D02*
X018194Y01193D01*
X018193Y011929*
X018164Y011923*
X018092Y011875*
X018044Y011804*
X018027Y011719*
X018044Y011635*
X018092Y011563*
X018108Y011553*
Y011157*
X018012*
Y010704*
X018484*
Y011157*
X018389*
Y011553*
X018404Y011563*
X018452Y011635*
X018469Y011719*
X018452Y011804*
X018404Y011875*
X018333Y011923*
X018304Y011929*
X018302Y01193*
X018248Y011941*
G37*
G36*
X021857Y011581D02*
X021765Y011563D01*
X021687Y01151*
X021635Y011432*
X021616Y01134*
X021635Y011248*
X021687Y01117*
X021742Y011133*
Y011075*
X021687Y011038*
X021635Y01096*
X021616Y010868*
X021635Y010776*
X021687Y010697*
X021765Y010645*
X021857Y010627*
X021949Y010645*
X022027Y010697*
X02208Y010776*
X022098Y010868*
X02208Y01096*
X022027Y011038*
X021972Y011075*
Y011133*
X022027Y01117*
X02208Y011248*
X022098Y01134*
X02208Y011432*
X022027Y01151*
X021949Y011563*
X021857Y011581*
G37*
G36*
X01934Y010673D02*
X01909D01*
Y010473*
X01934*
Y010673*
G37*
G36*
X01899D02*
X01874D01*
Y010473*
X01899*
Y010673*
G37*
G36*
X01934Y010373D02*
X01909D01*
Y010173*
X01934*
Y010373*
G37*
G36*
X01899D02*
X01874D01*
Y010173*
X01899*
Y010373*
G37*
G36*
X021452Y010277D02*
X021367Y010261D01*
X021295Y010213*
X021248Y010141*
X021231Y010057*
X021248Y009972*
X021295Y009901*
X021367Y009853*
X021452Y009836*
X021536Y009853*
X021608Y009901*
X021656Y009972*
X021672Y010057*
X021656Y010141*
X021608Y010213*
X021536Y010261*
X021452Y010277*
G37*
%LNvapeixshield-5*%
%LPD*%
G54D12*
X023056Y002839D03*
X022524D03*
G54D21*
X019238Y004203D03*
Y003671D03*
X018248Y008818D03*
Y009349D03*
Y010399D03*
Y010931D03*
G54D22*
X024736Y010055D03*
Y011055D03*
Y012055D03*
X026486Y010055D03*
Y011055D03*
Y012055D03*
G54D27*
X019084Y006883D03*
G54D28*
X018336Y006883D03*
G54D31*
X015126Y004154D03*
G54D32*
X015126Y003406D03*
G54D34*
X019546Y014274D02*
X020667D01*
X020951Y01399*
X02356Y012044D02*
X023572Y012055D01*
G54D36*
X019867Y008843D02*
X020529Y008181D01*
X025274D02*
X025466Y007989D01*
X02356Y010057D02*
X024734D01*
X026486Y011055D02*
Y011557D01*
X023567Y011055D02*
X024731D01*
X023572Y012055D02*
X024736D01*
X004785Y015004D02*
X010422D01*
X004096Y014315D02*
X004785Y015004D01*
X004096Y013382D02*
Y014315D01*
X001966Y012855D02*
X003568D01*
X004096Y013382*
X00146Y013361D02*
X001966Y012855D01*
X00146Y013361D02*
Y017761D01*
X011192Y006529D02*
Y014233D01*
X010422Y015004D02*
X011192Y014233D01*
X020529Y008181D02*
X025274D01*
X007786Y018613D02*
X008468Y019295D01*
X002311Y018613D02*
X007786D01*
X00146Y017761D02*
X002311Y018613D01*
X015083Y001055D02*
X015126Y001097D01*
Y003406*
X007624Y002433D02*
X008678D01*
X005393Y004663D02*
X007624Y002433D01*
X005393Y004663D02*
Y006326D01*
X02206Y002839D02*
X022524D01*
X021817Y003082D02*
X02206Y002839D01*
X021817Y003082D02*
Y003893D01*
X008468Y019295D02*
Y020055D01*
X019867Y008818D02*
Y010049D01*
X018248Y008818D02*
X019867D01*
X026486Y010487D02*
X026491Y010492D01*
X026486Y010055D02*
Y010487D01*
X018589Y009675D02*
X01904D01*
X018248Y010016D02*
X018589Y009675D01*
X018248Y010016D02*
Y010399D01*
X015683Y003903D02*
X016139D01*
X015432Y004154D02*
X015683Y003903D01*
X015126Y004154D02*
X015432D01*
X019242Y004203D02*
Y005132D01*
X025167Y005946D02*
X025466Y006245D01*
X024777Y005946D02*
X025167D01*
X025466Y006245D02*
Y007989D01*
G54D37*
X024734Y010057D02*
X024736Y010055D01*
X024006Y01622D02*
X025142Y015085D01*
X023844Y015896D02*
X024615Y015126D01*
X023114Y015896D02*
X023844D01*
X022057Y016953D02*
X023114Y015896D01*
X023276Y01622D02*
X024006D01*
X022222Y017275D02*
X023276Y01622D01*
X003001Y017275D02*
X022222D01*
X012507Y010161D02*
X012855D01*
X009367Y011192D02*
Y012931D01*
Y007259D02*
Y011192D01*
X009372Y011187*
X00975*
X009367Y012931D02*
X00975Y013313D01*
X009367Y007259D02*
X00957Y007056D01*
X010138Y007218D02*
Y007867D01*
X009976Y007056D02*
X010138Y007218D01*
X00957Y007056D02*
X009976D01*
X003247Y016953D02*
X022057D01*
X002768Y016475D02*
X003247Y016953D01*
X002768Y015831D02*
Y016475D01*
X021068Y018837D02*
Y020055D01*
X020438Y018207D02*
X021068Y018837D01*
X008719Y018207D02*
X020438D01*
X008435Y018491D02*
X008719Y018207D01*
X002271Y016545D02*
X003001Y017275D01*
X002271Y015541D02*
Y016545D01*
X012368Y0103D02*
X012507Y010161D01*
X012814Y014112D02*
X013666D01*
X012368Y013666D02*
X012814Y014112D01*
X012368Y0103D02*
Y013666D01*
X010665Y012084D02*
Y014072D01*
Y010098D02*
Y012084D01*
X010381Y012368D02*
X010665Y012084D01*
X00975Y012368D02*
X010381D01*
X010242Y014494D02*
X010665Y014072D01*
X00975Y014494D02*
X010242D01*
X010665Y009205D02*
Y010098D01*
X010441Y010321D02*
X010665Y010098D01*
X00975Y010321D02*
X010441D01*
X010665Y008515D02*
Y009205D01*
X010344Y008195D02*
X010665Y008515D01*
X00975Y008195D02*
X010344D01*
X002271Y015541D02*
X002768Y015043D01*
X023056Y001067D02*
X023068Y001055D01*
X023056Y001067D02*
Y002839D01*
X018248Y010931D02*
Y011719D01*
Y0118*
G54D38*
X016788Y015409D02*
Y015541D01*
X015744Y016585D02*
X016788Y015541D01*
X009002Y016585D02*
X015744D01*
X015572Y014842D02*
X021857D01*
X022587Y014112*
X013828Y013098D02*
X015572Y014842D01*
X023195Y017721D02*
X026486Y01443D01*
Y012055D02*
Y01443D01*
X022587Y014112D02*
X026439D01*
X022587Y009611D02*
Y014112D01*
X014031Y017721D02*
X023195D01*
X016788Y013504D02*
X017153Y013139D01*
X016788Y013504D02*
Y014112D01*
X01904Y010423D02*
X019059Y010442D01*
Y012976*
X018615Y005959D02*
X018868D01*
X018336Y006238D02*
X018615Y005959D01*
X018336Y006238D02*
Y006883D01*
X018694Y007745D02*
X022506D01*
X018336Y007387D02*
X018694Y007745D01*
X018336Y006883D02*
Y007387D01*
X023518Y006733D02*
X024777D01*
X022506Y007745D02*
X023518Y006733D01*
X025457Y004371D02*
X025993Y004907D01*
X024777Y004371D02*
X025457D01*
X010366Y019059D02*
X010728Y018697D01*
X009246Y019059D02*
X010366D01*
X008354Y015937D02*
X009002Y016585D01*
X015703Y009349D02*
X018248D01*
X01519Y008836D02*
X015703Y009349D01*
X007745Y004792D02*
X008101Y005148D01*
X007745Y004136D02*
Y004792D01*
Y004136D02*
X008272Y003609D01*
X012347Y005302D02*
X015785D01*
X013854Y008836D02*
X01519D01*
X005069Y007739D02*
X008101D01*
X009611Y004096D02*
X010613D01*
X009124Y003609D02*
X009611Y004096D01*
X008272Y003609D02*
X009124D01*
X008101Y005148D02*
Y007739D01*
X005444Y009864D02*
X008101D01*
X005466Y011995D02*
X008101D01*
X021068Y001055D02*
Y002614D01*
X020013Y003669D02*
X021068Y002614D01*
X019225Y003669D02*
X020013D01*
X016139Y003903D02*
Y004947D01*
X015785Y005302D02*
X016139Y004947D01*
X024777Y004371D02*
Y005158D01*
X023195Y009002D02*
X025304D01*
X025993Y008313*
Y004907D02*
Y008313D01*
X024687Y005158D02*
X024777D01*
X023804Y006042D02*
X024687Y005158D01*
X019924Y006042D02*
X023804D01*
X019084Y006883D02*
X019924Y006042D01*
X022587Y009611D02*
X023195Y009002D01*
G54D39*
X021857Y010868D03*
Y01134D03*
X012855Y010161D03*
Y00957D03*
X022465Y008516D03*
X005393Y006326D03*
G54D40*
X024777Y005946D03*
Y006733D03*
Y005158D03*
Y004371D03*
X002799Y010841D03*
Y010054D03*
X002809Y007372D03*
Y006585D03*
X002768Y015831D03*
Y015043D03*
Y013469D03*
Y014256D03*
G54D41*
X011468Y020055D03*
X012468D03*
X013483D03*
X014468D03*
X015436D03*
X010468D03*
X009468D03*
X008468D03*
X007468D03*
X018068D03*
X019068D03*
X024036D03*
X023068D03*
X022083D03*
X021068D03*
X020068D03*
X011068Y001055D03*
X012068D03*
X017036D03*
X016068D03*
X015083D03*
X014068D03*
X013068D03*
X020068D03*
X021068D03*
X022083D03*
X023068D03*
X024036D03*
G54D42*
X016436Y020055D03*
X025036D03*
X018036Y001055D03*
X025036D03*
G54D43*
X001857Y002972D03*
X004219D03*
G54D44*
X003038Y001083D03*
G54D45*
X020372Y013441D03*
G54D46*
X021817Y013909D03*
X02356Y010057D03*
X021452D03*
X016788Y015409D03*
X025142Y013625D03*
Y015085D03*
X024615Y015126D03*
X019546Y014274D03*
X021208Y014284D03*
X020951Y01399D03*
X016788Y014112D03*
X017153Y013139D03*
X010097Y009408D03*
X023804Y012958D03*
X026485Y01256D03*
X026491Y011562D03*
X023567Y011055D03*
X023572Y012055D03*
X007056Y008394D03*
X010138Y007867D03*
X013065Y015328D03*
X010422Y01545D03*
X011435Y015288D03*
X010728Y018697D03*
X009246Y019059D03*
X023317Y005474D03*
X014031Y017721D03*
X012571Y015328D03*
X013194Y010835D03*
Y011736D03*
X010746Y002616D03*
X008354Y015937D03*
X013666Y014112D03*
X008435Y018491D03*
X011111Y015896D03*
X011585Y003558D03*
X010665Y007664D03*
X011192Y006529D03*
X008678Y002433D03*
X021817Y003893D03*
X011864Y009733D03*
X01519Y008836D03*
Y011047D03*
X026491Y010492D03*
X012431Y00643D03*
X010613Y004096D03*
X008272Y003609D03*
X010665Y009205D03*
X009651Y003244D03*
X00975Y007604D03*
Y008195D03*
Y010321D03*
Y011187D03*
Y012368D03*
Y013313D03*
Y014494D03*
X008101Y007739D03*
Y009864D03*
Y011995D03*
Y014121D03*
X006691Y015637D03*
X016626Y006894D03*
X019059Y012976D03*
X018248Y011719D03*
G54D47*
X018868Y005959D03*
X018494Y005132D03*
X019242D03*
G54D48*
X019867Y010049D03*
X01904Y010423D03*
Y009675D03*
G54D49*
X016139Y003234D03*
Y003903D03*
G54D50*
X013828Y01107D02*
Y013098D01*
X008759Y006407D02*
Y013706D01*
X008344Y014121D02*
X008759Y013706D01*
X008101Y014121D02*
X008344D01*
X008759Y006407D02*
X009813Y005353D01*
X013828Y01107D02*
X015166D01*
X013828Y008862D02*
Y01107D01*
X005849Y014121D02*
X008101D01*
X005393Y013666D02*
X005849Y014121D01*
X005393Y008013D02*
Y013666D01*
X013828Y008811D02*
X013854Y008836D01*
X013828Y006367D02*
Y008811D01*
X004753Y007372D02*
X005393Y008013D01*
X009813Y005353D02*
X012814D01*
X013828Y006367*
X015166Y01107D02*
X01519Y011047D01*
X002809Y007372D02*
X004753D01*
G54D51*
X016525Y001034D03*
M02*