%FSTAX24Y24*%
%MOIN*%
%SFA1B1*%

%IPPOS*%
%ADD33C,0.007900*%
%ADD35C,0.010000*%
%ADD52C,0.003900*%
%ADD53C,0.009800*%
%ADD54C,0.020000*%
%ADD55C,0.005900*%
%ADD56C,0.006000*%
%ADD57C,0.007000*%
%ADD58C,0.001000*%
%LNvapeixshield-1*%
%LPD*%
G36*
X038368Y042541D02*
X038376Y04254D01*
X038382Y042538*
X038388Y042535*
X038392Y042533*
X038396Y042531*
X038398Y04253*
X038399Y042529*
X038406Y042523*
X038412Y042515*
X038418Y042505*
X038424Y042497*
X038429Y042488*
X038433Y042481*
X038436Y042476*
X038437*
Y042533*
X038519*
Y042125*
X03843*
Y042251*
Y042268*
Y042284*
X038429Y042298*
Y042311*
X038428Y042324*
Y042335*
X038427Y042344*
Y042352*
Y04236*
X038426Y042366*
Y042371*
X038425Y042376*
Y042378*
X038424Y042381*
Y042382*
X038422Y042395*
X038418Y042405*
X038415Y042414*
X038412Y042421*
X038409Y042426*
X038407Y042429*
X038405Y042431*
X038404*
X038398Y042436*
X038393Y04244*
X038387Y042442*
X038382Y042444*
X038378Y042445*
X038375Y042446*
X038372*
X038364Y042445*
X038357Y042443*
X03835Y04244*
X038344Y042436*
X038338Y042433*
X038334Y04243*
X038332Y042428*
X038331Y042427*
X038303Y042519*
X038173Y042125*
X038093*
X037959Y042533*
X03805*
X038114Y042324*
X038133Y042255*
X038152Y042324*
X038214Y042533*
X038307*
X038304Y042522*
X038313Y042528*
X038323Y042533*
X038333Y042537*
X038342Y04254*
X03835Y042541*
X038356Y042542*
X038361*
X038368Y042541*
G37*
G36*
X045923Y043273D02*
X04594Y043271D01*
X045955Y043267*
X04597Y043263*
X045983Y043257*
X045996Y043252*
X046007Y043245*
X046017Y043239*
X046026Y043232*
X046035Y043226*
X046041Y04322*
X046047Y043214*
X046051Y04321*
X046055Y043207*
X046056Y043204*
X046057Y043203*
X046069Y043187*
X046079Y04317*
X046087Y043153*
X046095Y043134*
X046101Y043115*
X046106Y043097*
X04611Y043078*
X046114Y04306*
X046116Y043043*
X046119Y043028*
X04612Y043014*
X046121Y043002*
Y042993*
X046122Y042985*
Y04298*
Y042979*
Y042978*
X046121Y042953*
X04612Y04293*
X046116Y042908*
X046112Y042887*
X046107Y042868*
X046102Y04285*
X046096Y042833*
X04609Y042819*
X046084Y042806*
X046078Y042794*
X046073Y042784*
X046068Y042777*
X046064Y04277*
X04606Y042765*
X046059Y042763*
X046058Y042762*
X046047Y042749*
X046035Y042739*
X046024Y04273*
X046011Y042722*
X045999Y042715*
X045987Y042709*
X045976Y042705*
X045964Y042701*
X045953Y042699*
X045943Y042696*
X045934Y042695*
X045926Y042694*
X04592*
X045916Y042693*
X045911*
X045898Y042694*
X045886*
X045862Y042699*
X045841Y042706*
X045832Y04271*
X045824Y042714*
X045816Y042719*
X04581Y042723*
X045804Y042726*
X0458Y042729*
X045796Y042732*
X045793Y042734*
X045791Y042735*
Y042736*
X045781Y042745*
X045773Y042754*
X045759Y042776*
X045746Y042799*
X045736Y042822*
X045732Y042833*
X045729Y042843*
X045726Y042852*
X045724Y042859*
X045722Y042866*
X045721Y042871*
X04572Y042874*
Y042875*
X045811Y04291*
X045816Y042888*
X045822Y042869*
X045828Y042853*
X045835Y042841*
X045841Y042831*
X045846Y042824*
X045849Y04282*
X04585Y042818*
X04586Y042809*
X045871Y042802*
X045881Y042797*
X045891Y042793*
X0459Y042792*
X045907Y042791*
X045911Y04279*
X045913*
X045922Y042791*
X045931Y042792*
X045947Y042797*
X045961Y042804*
X045972Y042813*
X045982Y04282*
X045989Y042828*
X045993Y042833*
X045995*
Y042834*
X046Y042843*
X046005Y042853*
X046009Y042865*
X046012Y042877*
X046018Y042902*
X046021Y042927*
X046023Y042938*
X046024Y042949*
X046025Y042959*
Y042968*
X046026Y042975*
Y04298*
Y042984*
Y042985*
Y043003*
X046024Y043021*
X046022Y043037*
X046021Y043051*
X046018Y043064*
X046016Y043077*
X046013Y043088*
X04601Y043097*
X046006Y043105*
X046004Y043113*
X046001Y043118*
X045999Y043123*
X045996Y043127*
Y04313*
X045994Y043131*
Y043132*
X045987Y04314*
X045981Y043147*
X045974Y043153*
X045967Y043158*
X045953Y043166*
X04594Y043171*
X045928Y043174*
X045919Y043176*
X045916Y043177*
X045911*
X045897Y043176*
X045886Y043173*
X045876Y043169*
X045866Y043164*
X045859Y04316*
X045853Y043156*
X04585Y043153*
X045849Y043152*
X04584Y043142*
X045832Y043131*
X045826Y043119*
X045821Y043108*
X045817Y043098*
X045815Y043089*
X045814Y043086*
Y043083*
X045813*
Y043082*
X045721Y043108*
X045724Y043122*
X045728Y043134*
X045732Y043146*
X045736Y043158*
X045741Y043168*
X045746Y043177*
X045751Y043184*
X045755Y043192*
X045759Y043198*
X045763Y043204*
X045766Y043209*
X04577Y043213*
X045772Y043216*
X045774Y043218*
X045775Y04322*
X045776*
X045786Y043229*
X045796Y043237*
X045807Y043245*
X045818Y043252*
X045829Y043257*
X04584Y043261*
X045861Y043267*
X04587Y04327*
X045878Y043272*
X045886*
X045892Y043273*
X045898Y043274*
X045906*
X045923Y043273*
G37*
G36*
X039725Y032818D02*
X039742Y032815D01*
X039756Y032812*
X039769Y032807*
X039779Y032802*
X039787Y032798*
X039792Y032795*
X039793Y032794*
X039794*
X039807Y032784*
X03982Y032772*
X039831Y03276*
X03984Y032747*
X039847Y032737*
X039852Y032728*
X039854Y032725*
X039856Y032722*
X039857Y032721*
Y03272*
X039864Y032701*
X03987Y032682*
X039874Y032664*
X039877Y032647*
X039878Y032632*
X039879Y032627*
X03988Y032621*
Y032617*
Y032613*
Y032612*
Y032611*
X039879Y032592*
X039877Y032574*
X039876Y032557*
X039872Y032542*
X039868Y032527*
X039864Y032513*
X03986Y032502*
X039855Y032491*
X039851Y032481*
X039847Y032472*
X039842Y032466*
X039838Y03246*
X039835Y032455*
X039833Y032452*
X039832Y03245*
X039831Y032449*
X039822Y032439*
X039812Y032431*
X039801Y032423*
X039791Y032417*
X03978Y032411*
X03977Y032407*
X039751Y0324*
X039742Y032398*
X039733Y032396*
X039726Y032394*
X03972Y032393*
X039715*
X039708*
X03969*
X039674Y032397*
X03966Y032401*
X039647Y032405*
X039637Y03241*
X039628Y032413*
X039623Y032417*
Y032418*
X039622*
X039608Y032428*
X039595Y03244*
X039584Y032453*
X039575Y032466*
X039568Y032477*
X039563Y032486*
X039561Y032489*
X039559Y032492*
X039558Y032493*
Y032494*
X03955Y032513*
X039544Y032533*
X03954Y032552*
X039538Y03257*
X039535Y032585*
Y032592*
X039534Y032597*
Y032602*
Y032605*
Y032607*
X039535Y032623*
X039536Y032638*
X039542Y032667*
X039545Y03268*
X039549Y032692*
X039553Y032703*
X039558Y032713*
X039562Y032723*
X039566Y032732*
X03957Y032738*
X039573Y032745*
X039577Y032749*
X039579Y032753*
X03958Y032755*
X039581Y032756*
X03959Y032767*
X039599Y032777*
X039609Y032785*
X03962Y032792*
X039631Y032798*
X039641Y032803*
X039652Y032808*
X039662Y032812*
X039671Y032814*
X039679Y032816*
X039688Y032817*
X039694Y032818*
X0397Y032819*
X039708*
X039725Y032818*
G37*
G36*
X039116D02*
X039133Y032815D01*
X039147Y032812*
X03916Y032807*
X03917Y032802*
X039179Y032798*
X039184Y032795*
Y032794*
X039185*
X039199Y032784*
X039211Y032772*
X039222Y03276*
X039231Y032747*
X039238Y032737*
X039244Y032728*
X039245Y032725*
X039247Y032722*
X039248Y032721*
Y03272*
X039255Y032701*
X039261Y032682*
X039265Y032664*
X039268Y032647*
X039269Y032632*
X03927Y032627*
X039271Y032621*
Y032617*
Y032613*
Y032612*
Y032611*
X03927Y032592*
X039269Y032574*
X039267Y032557*
X039264Y032542*
X039259Y032527*
X039255Y032513*
X039251Y032502*
X039246Y032491*
X039242Y032481*
X039238Y032472*
X039234Y032466*
X039229Y03246*
X039226Y032455*
X039224Y032452*
X039223Y03245*
X039222Y032449*
X039213Y032439*
X039203Y032431*
X039192Y032423*
X039182Y032417*
X039171Y032411*
X039161Y032407*
X039142Y0324*
X039133Y032398*
X039124Y032396*
X039117Y032394*
X039111Y032393*
X039106*
X039099*
X039081*
X039065Y032397*
X039051Y032401*
X039038Y032405*
X039028Y03241*
X039019Y032413*
X039014Y032417*
Y032418*
X039013*
X038999Y032428*
X038986Y03244*
X038975Y032453*
X038966Y032466*
X038959Y032477*
X038954Y032486*
X038952Y032489*
X03895Y032492*
X038949Y032493*
Y032494*
X038941Y032513*
X038935Y032533*
X038931Y032552*
X038929Y03257*
X038926Y032585*
Y032592*
X038925Y032597*
Y032602*
Y032605*
Y032607*
X038926Y032623*
X038927Y032638*
X038933Y032667*
X038936Y03268*
X03894Y032692*
X038944Y032703*
X038949Y032713*
X038953Y032723*
X038957Y032732*
X038961Y032738*
X038964Y032745*
X038968Y032749*
X03897Y032753*
X038971Y032755*
X038972Y032756*
X038981Y032767*
X03899Y032777*
X039Y032785*
X039011Y032792*
X039022Y032798*
X039032Y032803*
X039043Y032808*
X039053Y032812*
X039062Y032814*
X03907Y032816*
X039079Y032817*
X039085Y032818*
X039091Y032819*
X039099*
X039116Y032818*
G37*
G36*
X040235Y042125D02*
X040142D01*
Y042337*
X040066*
X040052Y042338*
X040038Y042339*
X040027Y04234*
X040016Y042341*
X040007Y042342*
X039998Y042344*
X03999Y042346*
X039983Y042347*
X039978Y042349*
X039973Y04235*
X039969Y042351*
X039966Y042352*
X039964Y042353*
X039963Y042354*
X03995Y042361*
X039938Y04237*
X039928Y04238*
X03992Y042389*
X039913Y042397*
X039908Y042405*
X039905Y04241*
X039904Y042411*
X039897Y042428*
X039891Y042445*
X039887Y042462*
X039884Y042478*
X039882Y042492*
Y042499*
X039881Y042504*
Y042508*
Y042511*
Y042513*
Y042514*
X039882Y042538*
X039885Y04256*
X039889Y042578*
X039894Y042594*
X039898Y042601*
X0399Y042607*
X039902Y042612*
X039904Y042616*
X039906Y04262*
X039908Y042622*
Y042623*
Y042624*
X039919Y042639*
X03993Y04265*
X039942Y04266*
X039952Y042668*
X039962Y042673*
X039969Y042677*
X039974Y042679*
X039975Y04268*
X039976*
X039982Y042681*
X039988Y042682*
X039996Y042684*
X040004Y042685*
X040022Y042686*
X040041Y042687*
X040058Y042688*
X040235*
Y042125*
G37*
G36*
X039805D02*
X039717D01*
Y042233*
X039805*
Y042125*
G37*
G36*
X038981D02*
X038806D01*
X038786Y042126*
X038767Y042127*
X038751Y04213*
X038738Y042133*
X038727Y042136*
X03872Y042138*
X038715Y04214*
X038713Y042141*
X0387Y042147*
X038688Y042155*
X038678Y042162*
X038669Y04217*
X038662Y042176*
X038656Y042182*
X038653Y042186*
X038652Y042187*
X038643Y0422*
X038635Y042214*
X038627Y042228*
X038622Y042242*
X038617Y042254*
X038613Y042264*
X038612Y042268*
X038611Y042271*
X03861Y042272*
Y042273*
X038604Y042294*
X0386Y042316*
X038597Y042337*
X038595Y042357*
Y042366*
X038594Y042375*
Y042382*
X038593Y042388*
Y042393*
Y042397*
Y0424*
Y042401*
X038594Y04243*
X038596Y042456*
X038597Y042468*
X038598Y042479*
X0386Y042489*
X038601Y042498*
X038602Y042506*
X038604Y042514*
X038606Y04252*
X038607Y042525*
Y04253*
X038608Y042533*
X038609Y042535*
X038616Y042555*
X038622Y042573*
X03863Y042588*
X038637Y0426*
X038643Y042611*
X038648Y042619*
X038652Y042623*
X038653Y042625*
X038664Y042636*
X038674Y042646*
X038685Y042655*
X038694Y042661*
X038702Y042666*
X038708Y04267*
X038712Y042672*
X038714Y042673*
X038727Y042678*
X038743Y042681*
X038759Y042685*
X038775Y042686*
X038789Y042687*
X038795*
X0388Y042688*
X038981*
Y042125*
G37*
G36*
X039625D02*
X039434D01*
X039419Y042126*
X039405*
X039393*
X039382Y042127*
X039373*
X039365Y042128*
X039358Y042129*
X039352Y04213*
X039348*
X039344Y042131*
X039341*
X03934*
X039338*
X039324Y042136*
X03931Y042144*
X039298Y042152*
X039288Y042161*
X03928Y04217*
X039273Y042177*
X03927Y042182*
X039268Y042183*
Y042184*
X039258Y042201*
X03925Y042218*
X039245Y042236*
X039241Y042252*
X03924Y042266*
X039239Y042272*
Y042278*
X039238Y042282*
Y042286*
Y042287*
Y042288*
X039239Y042306*
X039241Y042323*
X039245Y042337*
X03925Y04235*
X039254Y042361*
X039258Y042368*
X03926Y042372*
X039261Y042374*
X03927Y042386*
X039281Y042397*
X039292Y042406*
X039302Y042412*
X039312Y042417*
X03932Y042421*
X039325Y042423*
Y042424*
X039326*
X039315Y042431*
X039306Y042438*
X039299Y042446*
X039291Y042454*
X039286Y042461*
X039282Y042467*
X03928Y04247*
X039279Y042472*
X039273Y042485*
X039268Y042498*
X039265Y04251*
X039263Y042522*
X039261Y042531*
X03926Y04254*
Y042545*
Y042546*
X039261Y042562*
X039264Y042577*
X039267Y04259*
X039271Y042602*
X039275Y042611*
X039279Y042619*
X039281Y042623*
X039282Y042625*
X03929Y042637*
X039299Y042647*
X039308Y042655*
X039315Y042662*
X039323Y042667*
X039329Y042671*
X039332Y042673*
X039334Y042674*
X03934Y042676*
X039347Y042679*
X039364Y042682*
X039381Y042685*
X039399Y042686*
X039415Y042687*
X039422Y042688*
X039625*
Y042125*
G37*
G36*
X039461Y032891D02*
Y03281D01*
X039502*
Y032724*
X039461*
Y032546*
Y032533*
Y032522*
X03946Y032512*
Y032502*
Y032494*
X039459Y032487*
Y032481*
X039458Y032475*
Y032466*
X039457Y03246*
X039456Y032456*
Y032455*
X039453Y032444*
X039449Y032435*
X039444Y032427*
X03944Y03242*
X039436Y032415*
X039433Y032412*
X03943Y032409*
X039429Y032408*
X039421Y032403*
X039412Y032399*
X039403Y032397*
X039394Y032394*
X039386Y032393*
X03938*
X039374*
X03936*
X039347Y032395*
X039335Y032398*
X039324Y032401*
X039316Y032403*
X039309Y032406*
X039306Y032408*
X039304*
X039313Y032492*
X039321Y032489*
X039328Y032487*
X039334Y032485*
X039339Y032484*
X039343Y032483*
X039345Y032482*
X039348*
X039353Y032483*
X039358Y032485*
X039362Y032487*
X039364Y03249*
X039368Y032495*
X039369Y032497*
Y0325*
X03937Y032502*
X039371Y032511*
Y032521*
X039372Y032532*
Y032542*
Y032551*
Y032554*
Y032557*
Y032558*
Y032559*
Y032724*
X039312*
Y03281*
X039372*
Y032954*
X039461Y032891*
G37*
G36*
X037813Y032818D02*
X037821Y032817D01*
X037827Y032815*
X037833Y032812*
X037837Y03281*
X037841Y032808*
X037843Y032807*
X037844Y032806*
X037851Y0328*
X037857Y032792*
X037863Y032782*
X037869Y032774*
X037874Y032765*
X037878Y032758*
X037881Y032753*
X037882Y032752*
Y03281*
X037964*
Y032402*
X037875*
Y032527*
Y032545*
Y032561*
X037874Y032575*
Y032588*
X037873Y032601*
Y032612*
X037872Y032621*
Y032629*
Y032637*
X037871Y032642*
Y032648*
X03787Y032652*
Y032655*
X037869Y032657*
Y032659*
X037867Y032672*
X037863Y032682*
X03786Y032691*
X037857Y032697*
X037854Y032702*
X037852Y032706*
X03785Y032707*
X037849Y032708*
X037843Y032713*
X037838Y032717*
X037832Y032719*
X037827Y032721*
X037823Y032722*
X03782*
X037817*
X037809*
X037802Y03272*
X037795Y032717*
X037789Y032713*
X037783Y03271*
X037779Y032707*
X037777Y032705*
X037776Y032704*
X037748Y032796*
X037618Y032402*
X037538*
X037404Y03281*
X037495*
X037559Y032601*
X037578Y032532*
X037597Y032601*
X037659Y03281*
X037752*
X037749Y032799*
X037758Y032805*
X037768Y03281*
X037778Y032814*
X037787Y032817*
X037795Y032818*
X037801Y032819*
X037806*
X037813Y032818*
G37*
G36*
X040397Y032402D02*
X040311D01*
Y032846*
X040219Y032402*
X04013*
X040037Y032846*
Y032402*
X03995*
Y032965*
X040091*
X040174Y032579*
X040258Y032965*
X040397*
Y032402*
G37*
G36*
X045497Y043273D02*
X045515Y043271D01*
X04553Y043268*
X045543Y043265*
X045554Y043261*
X045562Y043258*
X045567Y043256*
X045568Y043255*
X045569*
X045582Y043247*
X045593Y043238*
X045603Y043229*
X045612Y04322*
X045618Y043212*
X045622Y043205*
X045626Y043201*
X045627Y0432*
Y043199*
X045633Y043185*
X045638Y043171*
X045642Y043157*
X045645Y043144*
X045646Y043133*
X045647Y043124*
Y043121*
Y043118*
Y043117*
X045646Y043103*
X045645Y043088*
X045642Y043076*
X045639Y043065*
X045637Y043056*
X045634Y043048*
X045632Y043044*
X045631Y043043*
X045625Y04303*
X045617Y043019*
X04561Y04301*
X045603Y043003*
X045597Y042996*
X045592Y042992*
X045588Y042988*
X045587*
X045576Y04298*
X045562Y042973*
X045547Y042966*
X045533Y04296*
X04552Y042955*
X045515Y042953*
X04551Y042952*
X045506Y04295*
X045502Y042949*
X045501Y042948*
X0455*
X045488Y042945*
X045477Y042942*
X045467Y042938*
X045459Y042935*
X045451Y042933*
X045444Y04293*
X045438Y042928*
X045433Y042927*
X045426Y042923*
X04542Y042921*
X045417Y04292*
Y042919*
X045411Y042916*
X045405Y042913*
X045401Y042908*
X045397Y042905*
X045392Y0429*
X045391Y042898*
X045387Y042893*
X045386Y042887*
X045382Y042877*
Y042872*
Y042868*
Y042866*
Y042865*
Y042853*
X045386Y042843*
X045389Y042833*
X045394Y042825*
X045398Y042819*
X045402Y042814*
X045406Y042811*
X045407Y04281*
X045417Y042803*
X045427Y042798*
X045438Y042793*
X045448Y042791*
X045458Y042789*
X045466*
X045472*
X045487*
X045502Y042793*
X045513Y042798*
X045524Y042805*
X045534Y042813*
X045542Y042823*
X045549Y042833*
X045555Y042843*
X04556Y042853*
X045564Y042863*
X045567Y042872*
X04557Y04288*
X045572Y042887*
Y042892*
X045573Y042896*
Y042897*
X045664Y042886*
X045661Y042868*
X045659Y042852*
X045655Y042837*
X045651Y042822*
X045645Y042808*
X045639Y042796*
X045633Y042785*
X045627Y042774*
X045619Y042764*
X045612Y042755*
X045596Y04274*
X045579Y042727*
X045562Y042717*
X045546Y042709*
X04553Y042703*
X045515Y042699*
X045502Y042696*
X045491Y042694*
X045482Y042693*
X045475*
X045457Y042694*
X045442Y042695*
X045427Y042697*
X045412Y0427*
X0454Y042704*
X045388Y042709*
X045377Y042713*
X045368Y042718*
X045361Y042722*
X045353Y042726*
X045347Y04273*
X045342Y042734*
X045339Y042738*
X045337Y042739*
X045335Y042741*
X045334Y042742*
X045326Y042752*
X045319Y042762*
X045312Y042772*
X045307Y042782*
X045299Y042803*
X045294Y042823*
X045292Y042831*
X045291Y042839*
X04529Y042847*
X045289Y042853*
X045288Y042858*
Y042862*
Y042864*
Y042865*
X045289Y042883*
X045291Y0429*
X045293Y042915*
X045297Y042928*
X0453Y042938*
X045302Y042945*
X045304Y04295*
X045305Y042952*
X045312Y042964*
X045319Y042976*
X045327Y042986*
X045335Y042994*
X045342Y043001*
X045348Y043005*
X045352Y043008*
X045353Y043009*
X045359Y043013*
X045367Y043018*
X045382Y043026*
X045399Y043033*
X045416Y043039*
X045431Y043045*
X045437Y043047*
X045443Y043049*
X045448Y043051*
X045452Y043052*
X045454Y043053*
X045455*
X045467Y043056*
X045477Y043059*
X045487Y043063*
X045496Y043066*
X045504Y043069*
X045511Y043072*
X045517Y043075*
X045522Y043078*
X045531Y043082*
X045536Y043085*
X045539Y043087*
X04554Y043088*
X045546Y043093*
X045551Y0431*
X045554Y043106*
X045556Y043112*
X045557Y043118*
X045558Y043122*
Y043124*
Y043125*
X045557Y043133*
X045555Y043141*
X045552Y043148*
X045548Y043153*
X045545Y043158*
X045542Y043162*
X045539Y043163*
X045538Y043164*
X04553Y043169*
X04552Y043173*
X045511Y043176*
X045502Y043178*
X045493Y043179*
X045486Y04318*
X04548*
X045467Y043179*
X045455Y043178*
X045445Y043174*
X045437Y043171*
X04543Y043168*
X045425Y043164*
X045422Y043163*
Y043162*
X045414Y043153*
X045408Y043144*
X045404Y043133*
X0454Y043123*
X045397Y043113*
X045396Y043106*
X045395Y043103*
X045394Y0431*
Y043099*
Y043098*
X045301Y043103*
X045302Y043118*
X045304Y043133*
X045307Y043145*
X04531Y043158*
X045313Y043168*
X045317Y043179*
X045322Y043188*
X045327Y043197*
X045331Y043204*
X045335Y043211*
X045339Y043217*
X045342Y043221*
X045346Y043224*
X045348Y043227*
X045349Y043228*
X04535Y043229*
X045359Y043237*
X045368Y043244*
X045379Y04325*
X045389Y043255*
X045411Y043263*
X045431Y043268*
X045441Y043271*
X045449Y043272*
X045457*
X045464Y043273*
X04547Y043274*
X045477*
X045497Y043273*
G37*
G36*
X038709Y032818D02*
X038716Y032817D01*
X038723Y032815*
X038729Y032812*
X038733Y03281*
X038736Y032808*
X038739Y032807*
X03874Y032806*
X038746Y0328*
X038752Y032792*
X038759Y032782*
X038765Y032774*
X03877Y032765*
X038774Y032758*
X038776Y032753*
X038777Y032752*
Y03281*
X03886*
Y032402*
X03877*
Y032527*
Y032545*
Y032561*
Y032575*
Y032588*
X038769Y032601*
Y032612*
X038768Y032621*
X038767Y032629*
Y032637*
X038766Y032642*
Y032648*
X038765Y032652*
Y032655*
Y032657*
Y032659*
X038762Y032672*
X038759Y032682*
X038755Y032691*
X038752Y032697*
X03875Y032702*
X038747Y032706*
X038745Y032707*
Y032708*
X038739Y032713*
X038734Y032717*
X038728Y032719*
X038723Y032721*
X038719Y032722*
X038715*
X038712*
X038705*
X038698Y03272*
X03869Y032717*
X038685Y032713*
X038679Y03271*
X038675Y032707*
X038672Y032705*
X038671Y032704*
X038643Y032798*
X038654Y032805*
X038664Y03281*
X038674Y032814*
X038683Y032817*
X03869Y032818*
X038696Y032819*
X038701*
X038709Y032818*
G37*
G36*
X038426Y032402D02*
X038251D01*
X038231Y032403*
X038212Y032404*
X038196Y032407*
X038183Y03241*
X038172Y032413*
X038165Y032415*
X03816Y032417*
X038158Y032418*
X038145Y032424*
X038133Y032432*
X038123Y032439*
X038114Y032447*
X038107Y032453*
X038101Y032459*
X038098Y032462*
X038097Y032464*
X038088Y032477*
X03808Y032491*
X038072Y032505*
X038067Y032519*
X038062Y032531*
X038058Y032541*
X038057Y032545*
X038056Y032547*
X038055Y032549*
Y03255*
X038049Y032571*
X038045Y032592*
X038042Y032614*
X03804Y032634*
Y032643*
X038039Y032652*
Y032659*
X038038Y032665*
Y03267*
Y032674*
Y032677*
X038039Y032707*
X038041Y032732*
X038042Y032745*
X038043Y032756*
X038045Y032766*
X038046Y032775*
X038047Y032783*
X038049Y032791*
X038051Y032797*
X038052Y032802*
Y032807*
X038053Y03281*
X038054Y032812*
X038061Y032832*
X038067Y03285*
X038075Y032865*
X038082Y032877*
X038088Y032888*
X038093Y032896*
X038096Y0329*
X038098Y032901*
X038109Y032913*
X038119Y032923*
X03813Y032931*
X038139Y032938*
X038147Y032943*
X038153Y032947*
X038157Y032949*
X038159Y03295*
X038172Y032955*
X038188Y032958*
X038204Y032961*
X03822Y032963*
X038234Y032964*
X03824*
X038245Y032965*
X038426*
Y032402*
G37*
G36*
X04521Y042702D02*
X045117D01*
Y042914*
X045041*
X045027Y042915*
X045013Y042916*
X045002Y042917*
X044991Y042918*
X044982Y042919*
X044973Y042921*
X044965Y042923*
X044958Y042924*
X044953Y042926*
X044948Y042927*
X044944Y042928*
X044941Y042929*
X044939Y04293*
X044938Y042931*
X044925Y042938*
X044913Y042947*
X044903Y042957*
X044895Y042966*
X044888Y042974*
X044883Y042982*
X04488Y042987*
X044879Y042988*
X044872Y043005*
X044866Y043022*
X044862Y043039*
X044858Y043055*
X044857Y043069*
Y043076*
X044856Y043081*
Y043085*
Y043088*
Y04309*
Y043091*
X044857Y043115*
X04486Y043137*
X044864Y043155*
X044869Y043171*
X044873Y043178*
X044875Y043184*
X044877Y043189*
X044879Y043193*
X044881Y043197*
X044883Y043199*
Y0432*
Y043201*
X044894Y043216*
X044905Y043227*
X044917Y043237*
X044927Y043245*
X044937Y04325*
X044944Y043254*
X044949Y043256*
X04495Y043257*
X044951*
X044957Y043258*
X044963Y043259*
X044971Y043261*
X044979Y043262*
X044997Y043263*
X045016Y043264*
X045033Y043265*
X04521*
Y042702*
G37*
G36*
X046288D02*
X046195D01*
Y043265*
X046288*
Y042702*
G37*
%LNvapeixshield-2*%
%LPC*%
G36*
X039709Y032731D02*
X039708D01*
X039696Y032729*
X039684Y032726*
X039675Y032721*
X039666Y032715*
X039659Y032708*
X039654Y032703*
X039651Y0327*
X03965Y032698*
X039642Y032685*
X039636Y032671*
X039631Y032655*
X039628Y03264*
X039627Y032627*
X039626Y032621*
X039625Y032616*
Y032612*
Y032608*
Y032607*
Y032606*
X039626Y032584*
X039628Y032565*
X039633Y032549*
X039637Y032536*
X039642Y032526*
X039645Y032518*
X039648Y032514*
X039649Y032512*
X039658Y032502*
X039668Y032494*
X039678Y032488*
X039687Y032485*
X039695Y032482*
X039701*
X039705Y032481*
X039707*
X039719Y032482*
X03973Y032486*
X03974Y032491*
X039748Y032497*
X039756Y032502*
X039761Y032507*
X039764Y03251*
X039765Y032512*
X039773Y032525*
X039779Y03254*
X039783Y032555*
X039786Y032571*
X039787Y032584*
X039788Y03259*
X039789Y032596*
Y0326*
Y032603*
Y032605*
Y032606*
X039788Y032627*
X039786Y032646*
X039782Y032662*
X039777Y032675*
X039773Y032685*
X039769Y032692*
X039767Y032697*
X039766Y032698*
X039757Y032709*
X039747Y032717*
X039737Y032723*
X039728Y032727*
X039719Y032729*
X039713Y03273*
X039709Y032731*
G37*
G36*
X0391D02*
X039099D01*
X039087Y032729*
X039075Y032726*
X039066Y032721*
X039057Y032715*
X03905Y032708*
X039045Y032703*
X039042Y0327*
X039041Y032698*
X039033Y032685*
X039027Y032671*
X039022Y032655*
X039019Y03264*
X039018Y032627*
X039017Y032621*
X039016Y032616*
Y032612*
Y032608*
Y032607*
Y032606*
X039017Y032584*
X039019Y032565*
X039024Y032549*
X039028Y032536*
X039033Y032526*
X039036Y032518*
X039039Y032514*
X03904Y032512*
X039049Y032502*
X039059Y032494*
X039069Y032488*
X039078Y032485*
X039086Y032482*
X039092*
X039096Y032481*
X039098*
X03911Y032482*
X039121Y032486*
X039131Y032491*
X039139Y032497*
X039147Y032502*
X039152Y032507*
X039155Y03251*
X039156Y032512*
X039164Y032525*
X03917Y03254*
X039174Y032555*
X039177Y032571*
X039179Y032584*
Y03259*
X03918Y032596*
Y0326*
Y032603*
Y032605*
Y032606*
X039179Y032627*
X039177Y032646*
X039173Y032662*
X039169Y032675*
X039164Y032685*
X03916Y032692*
X039158Y032697*
X039157Y032698*
X039148Y032709*
X039138Y032717*
X039128Y032723*
X039119Y032727*
X03911Y032729*
X039104Y03273*
X0391Y032731*
G37*
G36*
X040142Y042593D02*
X040077D01*
X040068Y042592*
X04006*
X040047Y042591*
X040037Y04259*
X040029Y042589*
X040024Y042587*
X040022Y042586*
X040021*
X040014Y042583*
X040008Y04258*
X040003Y042575*
X039998Y04257*
X039995Y042566*
X039993Y042563*
X039991Y04256*
X03999*
X039986Y042552*
X039983Y042544*
X039981Y042536*
X039979Y042529*
X039978Y042522*
Y042517*
Y042514*
Y042512*
Y042502*
X039979Y042493*
X039982Y042485*
X039983Y042479*
X039986Y042473*
X039988Y042469*
X039989Y042466*
X03999*
X039995Y042459*
X04Y042453*
X040005Y042449*
X04001Y042445*
X040014Y042442*
X040018Y042441*
X04002Y042439*
X040021*
X040029Y042436*
X040039Y042435*
X040051Y042434*
X040063Y042433*
X040073Y042432*
X040142*
Y042593*
G37*
G36*
X038887D02*
X038826D01*
X03881Y042592*
X038797Y042591*
X038786Y04259*
X038779*
X038774Y042589*
X038771Y042588*
X03877*
X038761Y042585*
X038752Y042581*
X038745Y042576*
X038738Y042572*
X038733Y042567*
X038729Y042564*
X038726Y042561*
Y04256*
X038719Y042552*
X038714Y042543*
X038709Y042533*
X038706Y042524*
X038702Y042515*
X038701Y042509*
X038699Y042505*
Y042504*
Y042503*
X038696Y042489*
X038694Y042472*
X038692Y042456*
X038691Y042441*
Y042426*
X03869Y042421*
Y042415*
Y042411*
Y042407*
Y042406*
Y042405*
Y042383*
X038691Y042364*
X038692Y042347*
X038694Y042333*
X038696Y042322*
X038697Y042314*
X038698Y042309*
X038699Y042308*
Y042307*
X038702Y042295*
X038706Y042283*
X03871Y042274*
X038713Y042266*
X038716Y042261*
X038718Y042256*
X03872Y042254*
X038721Y042253*
X038731Y042242*
X038741Y042235*
X038746Y042231*
X03875Y04223*
X038752Y042229*
X038753Y042228*
X038761Y042226*
X038771Y042223*
X038782Y042221*
X038793*
X038803*
X038811Y04222*
X038887*
Y042593*
G37*
G36*
X039532Y042594D02*
X039443D01*
X039434Y042593*
X039425*
X039418Y042592*
X039406*
X039402Y042591*
X039398*
X039393Y04259*
X03939*
X039384Y042588*
X039379Y042585*
X03937Y042578*
X039367Y042575*
X039365Y042572*
X039364Y04257*
X039363*
X039359Y042564*
X039356Y042557*
X039353Y042545*
X039352Y042539*
X039351Y042535*
Y042531*
Y04253*
X039352Y04252*
X039354Y042511*
X039355Y042504*
X039358Y042497*
X039361Y042492*
X039363Y042489*
X039365Y042486*
Y042485*
X03937Y04248*
X039377Y042476*
X039383Y042472*
X039389Y04247*
X039394Y042468*
X039398Y042467*
X039401Y042466*
X039405*
X039409*
X03943*
X039441Y042465*
X039532*
Y042594*
G37*
G36*
Y042371D02*
X039436D01*
X039427Y04237*
X03942*
X039405Y042368*
X039395Y042367*
X039387Y042366*
X039382Y042364*
X039379Y042363*
X039378*
X039371Y04236*
X039365Y042356*
X03936Y042352*
X039355Y042348*
X039352Y042344*
X03935Y042341*
X039348Y042339*
X039347Y042338*
X039343Y042331*
X03934Y042324*
X039338Y042316*
X039336Y042309*
X039335Y042303*
Y042298*
Y042294*
Y042293*
Y042284*
X039336Y042275*
X039338Y042267*
X03934Y042261*
X039343Y042256*
X039345Y042252*
Y04225*
X039346Y042249*
X03935Y042243*
X039355Y042238*
X03936Y042234*
X039364Y042231*
X039368Y042228*
X039371Y042226*
X039373*
X039374*
X039377Y042225*
X039381Y042224*
X039392Y042222*
X039404Y042221*
X039416*
X039427Y04222*
X039532*
Y042371*
G37*
G36*
X038332Y03287D02*
X038271D01*
X038255Y032869*
X038242Y032868*
X038231Y032867*
X038224Y032866*
X038219*
X038216Y032865*
X038215*
X038206Y032861*
X038197Y032858*
X03819Y032853*
X038183Y032849*
X038178Y032844*
X038174Y032841*
X038171Y032838*
Y032837*
X038164Y032829*
X038159Y03282*
X038154Y03281*
X038151Y032801*
X038147Y032792*
X038146Y032786*
X038144Y032782*
Y032781*
Y03278*
X038141Y032766*
X038139Y032749*
X038137Y032733*
X038136Y032717*
Y032703*
X038135Y032697*
Y032692*
Y032687*
Y032684*
Y032682*
Y03266*
X038136Y032641*
X038137Y032624*
X038139Y03261*
X038141Y032599*
X038142Y032591*
X038143Y032586*
X038144Y032585*
Y032584*
X038147Y032572*
X038151Y03256*
X038155Y032551*
X038158Y032543*
X038161Y032537*
X038163Y032533*
X038165Y032531*
X038166Y03253*
X038176Y032519*
X038186Y032512*
X038191Y032508*
X038195Y032507*
X038197Y032506*
X038198Y032505*
X038206Y032502*
X038216Y0325*
X038227Y032498*
X038238Y032497*
X038248*
X038256*
X038332*
Y03287*
G37*
G36*
X045117Y04317D02*
X045052D01*
X045043Y043169*
X045035*
X045022Y043168*
X045012Y043167*
X045004Y043166*
X044999Y043164*
X044997Y043163*
X044996*
X044989Y04316*
X044983Y043157*
X044978Y043152*
X044973Y043148*
X04497Y043143*
X044968Y04314*
X044966Y043138*
X044965Y043137*
X044961Y043129*
X044958Y043121*
X044956Y043113*
X044954Y043106*
X044953Y043099*
Y043094*
Y043091*
Y043089*
Y043079*
X044954Y04307*
X044957Y043063*
X044958Y043056*
X044961Y04305*
X044963Y043046*
X044964Y043043*
X044965*
X04497Y043036*
X044975Y04303*
X04498Y043026*
X044985Y043022*
X044989Y043019*
X044993Y043018*
X044995Y043016*
X044996*
X045004Y043013*
X045014Y043012*
X045026Y043011*
X045038Y04301*
X045048Y043009*
X045117*
Y04317*
G37*
%LNvapeixshield-3*%
%LPD*%
G54D33*
X03912Y033898D02*
Y033976D01*
X039357Y033898D02*
Y033976D01*
X04275Y032957D02*
X042829D01*
X04275Y03272D02*
X042829D01*
X038366Y039044D02*
Y039123D01*
X03813Y039044D02*
Y039123D01*
X038366Y040626D02*
Y040704D01*
X03813Y040626D02*
Y040704D01*
G54D35*
X034558Y032595D02*
X036748D01*
Y034947*
X034558Y032595D02*
Y034623D01*
X034882Y034947*
X036748*
X041573Y03365D02*
X043925D01*
X041573Y032352D02*
Y03365D01*
X043925Y032352D02*
Y03365D01*
X041573Y032352D02*
X043925D01*
X03764Y038313D02*
Y041841D01*
X040316Y038313D02*
Y041841D01*
X03764D02*
X040316D01*
X03764Y038313D02*
X040316D01*
X03764Y033285D02*
X040316D01*
X03764Y037867D02*
X040316D01*
Y033285D02*
Y037867D01*
X03764Y033285D02*
Y037867D01*
X039594Y036673D02*
Y037108D01*
X034916Y032896D02*
X035351D01*
X045733Y051067D02*
X045734Y051066D01*
X044611Y039555D02*
Y042555D01*
X046611*
Y039555D02*
Y042555D01*
X044611Y039555D02*
X046611D01*
G54D52*
X038184Y036583D02*
X039479D01*
X038174Y037193D02*
X039469D01*
X034826Y033011D02*
Y034306D01*
X035436Y033021D02*
Y034316D01*
G54D53*
X039635Y035132D02*
D01*
X039634Y035134*
X039634Y035137*
X039634Y03514*
X039633Y035142*
X039632Y035145*
X039631Y035147*
X03963Y03515*
X039629Y035152*
X039627Y035154*
X039625Y035157*
X039624Y035159*
X039622Y03516*
X03962Y035162*
X039617Y035164*
X039615Y035165*
X039613Y035167*
X03961Y035168*
X039608Y035169*
X039605Y035169*
X039602Y03517*
X0396Y03517*
X039597Y03517*
X039594*
X039591Y03517*
X039589Y03517*
X039586Y035169*
X039583Y035169*
X039581Y035168*
X039578Y035167*
X039576Y035165*
X039574Y035164*
X039571Y035162*
X039569Y03516*
X039567Y035159*
X039566Y035157*
X039564Y035154*
X039562Y035152*
X039561Y03515*
X03956Y035147*
X039559Y035145*
X039558Y035142*
X039557Y03514*
X039557Y035137*
X039557Y035134*
X039557Y035132*
X039557Y035129*
X039557Y035126*
X039557Y035123*
X039558Y035121*
X039559Y035118*
X03956Y035116*
X039561Y035113*
X039562Y035111*
X039564Y035109*
X039566Y035106*
X039567Y035104*
X039569Y035103*
X039571Y035101*
X039574Y035099*
X039576Y035098*
X039578Y035096*
X039581Y035095*
X039583Y035094*
X039586Y035094*
X039589Y035093*
X039591Y035093*
X039594Y035093*
X039597*
X0396Y035093*
X039602Y035093*
X039605Y035094*
X039608Y035094*
X03961Y035095*
X039613Y035096*
X039615Y035098*
X039617Y035099*
X03962Y035101*
X039622Y035103*
X039624Y035104*
X039625Y035106*
X039627Y035109*
X039629Y035111*
X03963Y035113*
X039631Y035116*
X039632Y035118*
X039633Y035121*
X039634Y035123*
X039634Y035126*
X039634Y035129*
X039635Y035132*
X039079Y039321D02*
D01*
X039078Y039323*
X039078Y039326*
X039078Y039329*
X039077Y039331*
X039076Y039334*
X039075Y039336*
X039074Y039339*
X039073Y039341*
X039071Y039343*
X039069Y039346*
X039068Y039348*
X039066Y039349*
X039064Y039351*
X039061Y039353*
X039059Y039354*
X039057Y039356*
X039054Y039357*
X039052Y039358*
X039049Y039358*
X039046Y039359*
X039044Y039359*
X039041Y039359*
X039038*
X039035Y039359*
X039033Y039359*
X03903Y039358*
X039027Y039358*
X039025Y039357*
X039022Y039356*
X03902Y039354*
X039018Y039353*
X039015Y039351*
X039013Y039349*
X039011Y039348*
X03901Y039346*
X039008Y039343*
X039006Y039341*
X039005Y039339*
X039004Y039336*
X039003Y039334*
X039002Y039331*
X039001Y039329*
X039001Y039326*
X039001Y039323*
X039001Y039321*
X039001Y039318*
X039001Y039315*
X039001Y039312*
X039002Y03931*
X039003Y039307*
X039004Y039305*
X039005Y039302*
X039006Y0393*
X039008Y039298*
X03901Y039295*
X039011Y039293*
X039013Y039292*
X039015Y03929*
X039018Y039288*
X03902Y039287*
X039022Y039285*
X039025Y039284*
X039027Y039283*
X03903Y039283*
X039033Y039282*
X039035Y039282*
X039038Y039282*
X039041*
X039044Y039282*
X039046Y039282*
X039049Y039283*
X039052Y039283*
X039054Y039284*
X039057Y039285*
X039059Y039287*
X039061Y039288*
X039064Y03929*
X039066Y039292*
X039068Y039293*
X039069Y039295*
X039071Y039298*
X039073Y0393*
X039074Y039302*
X039075Y039305*
X039076Y039307*
X039077Y03931*
X039078Y039312*
X039078Y039315*
X039078Y039318*
X039079Y039321*
G54D54*
X044411Y042555D02*
D01*
X04441Y042561*
X04441Y042568*
X044408Y042575*
X044407Y042582*
X044404Y042589*
X044402Y042595*
X044399Y042601*
X044395Y042607*
X044391Y042613*
X044387Y042619*
X044382Y042624*
X044377Y042629*
X044372Y042633*
X044366Y042637*
X044361Y042641*
X044354Y042644*
X044348Y042647*
X044341Y04265*
X044335Y042652*
X044328Y042653*
X044321Y042654*
X044314Y042654*
X044307*
X0443Y042654*
X044293Y042653*
X044286Y042652*
X04428Y04265*
X044273Y042647*
X044267Y042644*
X044261Y042641*
X044255Y042637*
X044249Y042633*
X044244Y042629*
X044239Y042624*
X044234Y042619*
X04423Y042613*
X044226Y042607*
X044222Y042601*
X044219Y042595*
X044217Y042589*
X044214Y042582*
X044213Y042575*
X044211Y042568*
X044211Y042561*
X044211Y042555*
X044211Y042548*
X044211Y042541*
X044213Y042534*
X044214Y042527*
X044217Y04252*
X044219Y042514*
X044222Y042508*
X044226Y042502*
X04423Y042496*
X044234Y04249*
X044239Y042485*
X044244Y04248*
X044249Y042476*
X044255Y042472*
X044261Y042468*
X044267Y042465*
X044273Y042462*
X04428Y042459*
X044286Y042457*
X044293Y042456*
X0443Y042455*
X044307Y042455*
X044314*
X044321Y042455*
X044328Y042456*
X044335Y042457*
X044341Y042459*
X044348Y042462*
X044354Y042465*
X044361Y042468*
X044366Y042472*
X044372Y042476*
X044377Y04248*
X044382Y042485*
X044387Y04249*
X044391Y042496*
X044395Y042502*
X044399Y042508*
X044402Y042514*
X044404Y04252*
X044407Y042527*
X044408Y042534*
X04441Y042541*
X04441Y042548*
X044411Y042555*
G54D55*
X039084Y03592D02*
X039438D01*
X038297D02*
X038651D01*
X039438Y035408D02*
Y03592D01*
X038297Y035408D02*
Y03592D01*
X03873Y03529D02*
X039005D01*
X039827Y039478D02*
Y039832D01*
Y040265D02*
Y04062D01*
X039316Y039478D02*
X039827D01*
X039316Y04062D02*
X039827D01*
X039197Y039911D02*
Y040187D01*
X039509Y034521D02*
Y034758D01*
X039391*
X039351Y034718*
Y034639*
X039391Y0346*
X039509*
X03943D02*
X039351Y034521D01*
X039272Y034718D02*
X039233Y034758D01*
X039154*
X039115Y034718*
Y034679*
X039154Y034639*
X039194*
X039154*
X039115Y0346*
Y034561*
X039154Y034521*
X039233*
X039272Y034561*
X038879Y034758D02*
X038958Y034718D01*
X039036Y034639*
Y034561*
X038997Y034521*
X038918*
X038879Y034561*
Y0346*
X038918Y034639*
X039036*
X038507Y039627D02*
Y039863D01*
X038389*
X03835Y039824*
Y039745*
X038389Y039706*
X038507*
X038428D02*
X03835Y039627D01*
X038271Y039824D02*
X038232Y039863D01*
X038153*
X038113Y039824*
Y039785*
X038153Y039745*
X038192*
X038153*
X038113Y039706*
Y039667*
X038153Y039627*
X038232*
X038271Y039667*
X037877Y039863D02*
X038035D01*
Y039745*
X037956Y039785*
X037917*
X037877Y039745*
Y039667*
X037917Y039627*
X037995*
X038035Y039667*
X038517Y041286D02*
Y041522D01*
X038399*
X03836Y041483*
Y041404*
X038399Y041365*
X038517*
X038439D02*
X03836Y041286D01*
X038281Y041483D02*
X038242Y041522D01*
X038163*
X038124Y041483*
Y041443*
X038163Y041404*
X038203*
X038163*
X038124Y041365*
Y041325*
X038163Y041286*
X038242*
X038281Y041325*
X037927Y041286D02*
Y041522D01*
X038045Y041404*
X037888*
X039473Y036204D02*
Y036362D01*
X039512Y036401*
X039591*
X03963Y036362*
Y036204*
X039591Y036165*
X039512*
X039552Y036244D02*
X039473Y036165D01*
X039512D02*
X039473Y036204D01*
X039394Y036362D02*
X039355Y036401D01*
X039276*
X039237Y036362*
Y036322*
X039276Y036283*
X039237Y036244*
Y036204*
X039276Y036165*
X039355*
X039394Y036204*
Y036244*
X039355Y036283*
X039394Y036322*
Y036362*
X039355Y036283D02*
X039276D01*
X039622Y040864D02*
Y041021D01*
X039662Y04106*
X03974*
X03978Y041021*
Y040864*
X03974Y040824*
X039662*
X039701Y040903D02*
X039622Y040824D01*
X039662D02*
X039622Y040864D01*
X039543Y04106D02*
X039386D01*
Y041021*
X039543Y040864*
Y040824*
X039589Y037706D02*
Y03747D01*
X039471*
X039431Y037509*
Y037666*
X039471Y037706*
X039589*
X039235Y03747D02*
Y037706D01*
X039353Y037588*
X039195*
X047042Y039103D02*
Y039339D01*
X046924*
X046885Y0393*
Y039221*
X046924Y039182*
X047042*
X046649Y039339D02*
X046727Y0393D01*
X046806Y039221*
Y039143*
X046767Y039103*
X046688*
X046649Y039143*
Y039182*
X046688Y039221*
X046806*
X043105Y033232D02*
Y033468D01*
X042987*
X042947Y033429*
Y03335*
X042987Y033311*
X043105*
X043026D02*
X042947Y033232D01*
X042869Y033429D02*
X042829Y033468D01*
X042751*
X042711Y033429*
Y03339*
X042751Y03335*
X04279*
X042751*
X042711Y033311*
Y033272*
X042751Y033232*
X042829*
X042869Y033272*
X042632Y033232D02*
X042554D01*
X042593*
Y033468*
X042632Y033429*
X036144Y034739D02*
X036184Y034778D01*
X036262*
X036302Y034739*
Y034581*
X036262Y034542*
X036184*
X036144Y034581*
X035908Y034778D02*
X035987Y034739D01*
X036065Y03466*
Y034581*
X036026Y034542*
X035947*
X035908Y034581*
Y03462*
X035947Y03466*
X036065*
X035297Y034782D02*
Y034546D01*
X035179*
X03514Y034585*
Y034743*
X035179Y034782*
X035297*
X035061Y034743D02*
X035022Y034782D01*
X034943*
X034904Y034743*
Y034703*
X034943Y034664*
X034982*
X034943*
X034904Y034625*
Y034585*
X034943Y034546*
X035022*
X035061Y034585*
G54D56*
X039042Y0344D02*
X039435D01*
X039042Y033474D02*
X039435D01*
X039042Y034035D02*
Y0344D01*
Y033474D02*
Y033839D01*
X039435Y034035D02*
Y0344D01*
Y033474D02*
Y033839D01*
X042888Y033035D02*
X043252D01*
X042327D02*
X042691D01*
X042888Y032642D02*
X043252D01*
X042327D02*
X042691D01*
X043252D02*
Y033035D01*
X042327Y032642D02*
Y033035D01*
X038051Y038621D02*
X038445D01*
X038051Y039546D02*
X038445D01*
Y038621D02*
Y038985D01*
Y039182D02*
Y039546D01*
X038051Y038621D02*
Y038985D01*
Y039182D02*
Y039546D01*
Y040202D02*
X038445D01*
X038051Y041128D02*
X038445D01*
Y040202D02*
Y040567D01*
Y040763D02*
Y041128D01*
X038051Y040202D02*
Y040567D01*
Y040763D02*
Y041128D01*
G54D57*
X035758Y032899D02*
Y033268D01*
Y032899D02*
X035765Y032892D01*
X03652D02*
Y033268D01*
X035765Y032892D02*
X03652D01*
X035765Y034244D02*
X03652D01*
Y033868D02*
Y034244D01*
X035758Y034237D02*
X035765Y034244D01*
X035758Y033868D02*
Y034237D01*
G54D58*
X041812Y046333D02*
X041912D01*
X037742Y046343D02*
X037942D01*
X038752D02*
X038992D01*
X039112D02*
X039522D01*
X039642D02*
X039712D01*
X040052D02*
X040112D01*
X040232D02*
X040642D01*
X040912D02*
X040972D01*
X041302D02*
X041362D01*
X041782D02*
X041962D01*
X042612D02*
X042672D01*
X037742Y046353D02*
X037952D01*
X038712D02*
X038992D01*
X039112D02*
X039522D01*
X039652D02*
X039712D01*
X040052D02*
X040112D01*
X040232D02*
X040642D01*
X040912D02*
X040972D01*
X041302D02*
X041362D01*
X041752D02*
X041982D01*
X042612D02*
X042672D01*
X037752Y046363D02*
X037962D01*
X038692D02*
X038992D01*
X039112D02*
X039522D01*
X039652D02*
X039722D01*
X040052D02*
X040112D01*
X040232D02*
X040642D01*
X040912D02*
X040982D01*
X041292D02*
X041362D01*
X041732D02*
X042002D01*
X042612D02*
X042672D01*
X037752Y046373D02*
X037962D01*
X038662D02*
X038992D01*
X039112D02*
X039522D01*
X039662D02*
X039722D01*
X040052D02*
X040112D01*
X040232D02*
X040642D01*
X040902D02*
X040982D01*
X041292D02*
X041372D01*
X041722D02*
X042012D01*
X042612D02*
X042672D01*
X037762Y046383D02*
X037972D01*
X038652D02*
X038992D01*
X039112D02*
X039522D01*
X039672D02*
X039732D01*
X040052D02*
X040112D01*
X040232D02*
X040642D01*
X040902D02*
X040982D01*
X041292D02*
X041372D01*
X041712D02*
X041822D01*
X041912D02*
X042022D01*
X042612D02*
X042672D01*
X037772Y046393D02*
X037972D01*
X038642D02*
X038752D01*
X038942D02*
X038992D01*
X039462D02*
X039522D01*
X039672D02*
X039742D01*
X040052D02*
X040112D01*
X040582D02*
X040642D01*
X040902D02*
X040982D01*
X041292D02*
X041372D01*
X041702D02*
X041792D01*
X041942D02*
X042042D01*
X042612D02*
X042672D01*
X037772Y046403D02*
X037982D01*
X038622D02*
X038722D01*
X038942D02*
X038992D01*
X039462D02*
X039522D01*
X039682D02*
X039742D01*
X040052D02*
X040112D01*
X040582D02*
X040642D01*
X040902D02*
X040992D01*
X041282D02*
X041372D01*
X041692D02*
X041772D01*
X041962D02*
X042052D01*
X042612D02*
X042672D01*
X037782Y046413D02*
X037992D01*
X038612D02*
X038702D01*
X038942D02*
X038992D01*
X039462D02*
X039522D01*
X039682D02*
X039752D01*
X040052D02*
X040112D01*
X040582D02*
X040642D01*
X040892D02*
X040992D01*
X041282D02*
X041382D01*
X041682D02*
X041752D01*
X041982D02*
X042062D01*
X042612D02*
X042672D01*
X037792Y046423D02*
X037992D01*
X038602D02*
X038682D01*
X038942D02*
X038992D01*
X039462D02*
X039522D01*
X039692D02*
X039752D01*
X040052D02*
X040112D01*
X040582D02*
X040642D01*
X040892D02*
X040992D01*
X041282D02*
X041382D01*
X041672D02*
X041742D01*
X041992D02*
X042062D01*
X042612D02*
X042672D01*
X037792Y046433D02*
X038002D01*
X038592D02*
X038672D01*
X038942D02*
X038992D01*
X039462D02*
X039522D01*
X039702D02*
X039762D01*
X040052D02*
X040112D01*
X040582D02*
X040642D01*
X040892D02*
X040942D01*
X040952D02*
X041002D01*
X041272D02*
X041322D01*
X041332D02*
X041382D01*
X041662D02*
X041732D01*
X042002D02*
X042072D01*
X042612D02*
X042672D01*
X037802Y046443D02*
X038012D01*
X038592D02*
X038662D01*
X038942D02*
X038992D01*
X039462D02*
X039522D01*
X039702D02*
X039772D01*
X040052D02*
X040112D01*
X040582D02*
X040642D01*
X040892D02*
X040942D01*
X040952D02*
X041002D01*
X041272D02*
X041322D01*
X041332D02*
X041382D01*
X041662D02*
X041722D01*
X042012D02*
X042082D01*
X042612D02*
X042672D01*
X037802Y046453D02*
X038012D01*
X038582D02*
X038652D01*
X038942D02*
X038992D01*
X039462D02*
X039522D01*
X039712D02*
X039772D01*
X040052D02*
X040112D01*
X040582D02*
X040642D01*
X040882D02*
X040932D01*
X040952D02*
X041002D01*
X041272D02*
X041322D01*
X041332D02*
X041392D01*
X041652D02*
X041712D01*
X042022D02*
X042082D01*
X042612D02*
X042672D01*
X037812Y046463D02*
X038022D01*
X038572D02*
X038642D01*
X038942D02*
X038992D01*
X039462D02*
X039522D01*
X039712D02*
X039782D01*
X040052D02*
X040112D01*
X040582D02*
X040642D01*
X040882D02*
X040932D01*
X040952D02*
X041002D01*
X041262D02*
X041322D01*
X041342D02*
X041392D01*
X041642D02*
X041712D01*
X042032D02*
X042092D01*
X042612D02*
X042672D01*
X037822Y046473D02*
X038022D01*
X038572D02*
X038632D01*
X038942D02*
X038992D01*
X039462D02*
X039522D01*
X039722D02*
X039782D01*
X040052D02*
X040112D01*
X040582D02*
X040642D01*
X040882D02*
X040932D01*
X040962D02*
X041012D01*
X041262D02*
X041312D01*
X041342D02*
X041392D01*
X041642D02*
X041702D01*
X042032D02*
X042092D01*
X042612D02*
X042672D01*
X037822Y046483D02*
X038032D01*
X038562D02*
X038622D01*
X038942D02*
X038992D01*
X039462D02*
X039522D01*
X039732D02*
X039792D01*
X040052D02*
X040112D01*
X040582D02*
X040642D01*
X040882D02*
X040932D01*
X040962D02*
X041012D01*
X041262D02*
X041312D01*
X041342D02*
X041392D01*
X041642D02*
X041702D01*
X042042D02*
X042102D01*
X042612D02*
X042672D01*
X037832Y046493D02*
X038042D01*
X038552D02*
X038622D01*
X038942D02*
X038992D01*
X039462D02*
X039522D01*
X039732D02*
X039792D01*
X040052D02*
X040112D01*
X040582D02*
X040642D01*
X040872D02*
X040932D01*
X040962D02*
X041012D01*
X041262D02*
X041312D01*
X041342D02*
X041402D01*
X041632D02*
X041692D01*
X042042D02*
X042102D01*
X042612D02*
X042672D01*
X037832Y046503D02*
X038042D01*
X038552D02*
X038612D01*
X038942D02*
X038992D01*
X039462D02*
X039522D01*
X039742D02*
X039802D01*
X040052D02*
X040112D01*
X040582D02*
X040642D01*
X040872D02*
X040922D01*
X040962D02*
X041022D01*
X041252D02*
X041302D01*
X041342D02*
X041402D01*
X041632D02*
X041692D01*
X042052D02*
X042102D01*
X042612D02*
X042672D01*
X037842Y046513D02*
X038052D01*
X038552D02*
X038612D01*
X038942D02*
X038992D01*
X039462D02*
X039522D01*
X039742D02*
X039812D01*
X040052D02*
X040112D01*
X040582D02*
X040642D01*
X040872D02*
X040922D01*
X040972D02*
X041022D01*
X041252D02*
X041302D01*
X041352D02*
X041402D01*
X041632D02*
X041682D01*
X042052D02*
X042112D01*
X042612D02*
X042672D01*
X037852Y046523D02*
X038052D01*
X038542D02*
X038602D01*
X038942D02*
X038992D01*
X039462D02*
X039522D01*
X039752D02*
X039812D01*
X040052D02*
X040112D01*
X040582D02*
X040642D01*
X040872D02*
X040922D01*
X040972D02*
X041022D01*
X041252D02*
X041302D01*
X041352D02*
X041402D01*
X041622D02*
X041682D01*
X042052D02*
X042112D01*
X042612D02*
X042672D01*
X037852Y046533D02*
X038062D01*
X038542D02*
X038602D01*
X038942D02*
X038992D01*
X039462D02*
X039522D01*
X039762D02*
X039822D01*
X040052D02*
X040112D01*
X040582D02*
X040642D01*
X040862D02*
X040922D01*
X040972D02*
X041022D01*
X041242D02*
X041302D01*
X041352D02*
X041412D01*
X041622D02*
X041682D01*
X042062D02*
X042112D01*
X042612D02*
X042672D01*
X037862Y046543D02*
X038072D01*
X038542D02*
X038602D01*
X038942D02*
X038992D01*
X039462D02*
X039522D01*
X039762D02*
X039822D01*
X040052D02*
X040112D01*
X040582D02*
X040642D01*
X040862D02*
X040912D01*
X040982D02*
X041032D01*
X041242D02*
X041292D01*
X041352D02*
X041412D01*
X041622D02*
X041682D01*
X042062D02*
X042122D01*
X042612D02*
X042672D01*
X037872Y046553D02*
X038072D01*
X038532D02*
X038592D01*
X038942D02*
X038992D01*
X039462D02*
X039522D01*
X039772D02*
X039832D01*
X040052D02*
X040112D01*
X040582D02*
X040642D01*
X040862D02*
X040912D01*
X040982D02*
X041032D01*
X041242D02*
X041292D01*
X041362D02*
X041412D01*
X041622D02*
X041672D01*
X042062D02*
X042122D01*
X042612D02*
X042672D01*
X037872Y046563D02*
X038082D01*
X038532D02*
X038592D01*
X038942D02*
X038992D01*
X039462D02*
X039522D01*
X039772D02*
X039842D01*
X040052D02*
X040112D01*
X040582D02*
X040642D01*
X040852D02*
X040912D01*
X040982D02*
X041032D01*
X041232D02*
X041292D01*
X041362D02*
X041412D01*
X041612D02*
X041672D01*
X042062D02*
X042122D01*
X042612D02*
X042672D01*
X037882Y046573D02*
X038092D01*
X038532D02*
X038592D01*
X038942D02*
X038992D01*
X039462D02*
X039522D01*
X039782D02*
X039842D01*
X040052D02*
X040112D01*
X040582D02*
X040642D01*
X040852D02*
X040912D01*
X040982D02*
X041042D01*
X041232D02*
X041282D01*
X041362D02*
X041422D01*
X041612D02*
X041672D01*
X042062D02*
X042122D01*
X042612D02*
X042672D01*
X037882Y046583D02*
X038092D01*
X038532D02*
X038592D01*
X038942D02*
X038992D01*
X039462D02*
X039522D01*
X039782D02*
X039852D01*
X040052D02*
X040112D01*
X040582D02*
X040642D01*
X040852D02*
X040912D01*
X040992D02*
X041042D01*
X041232D02*
X041282D01*
X041362D02*
X041422D01*
X041612D02*
X041672D01*
X042062D02*
X042122D01*
X042612D02*
X042672D01*
X037892Y046593D02*
X038102D01*
X038532D02*
X038592D01*
X038942D02*
X038992D01*
X039462D02*
X039522D01*
X039792D02*
X039852D01*
X040052D02*
X040112D01*
X040582D02*
X040642D01*
X040852D02*
X040902D01*
X040992D02*
X041042D01*
X041232D02*
X041282D01*
X041372D02*
X041422D01*
X041612D02*
X041672D01*
X042072D02*
X042122D01*
X042612D02*
X042672D01*
X037902Y046603D02*
X038102D01*
X038532D02*
X038582D01*
X038942D02*
X038992D01*
X039462D02*
X039522D01*
X039802D02*
X039862D01*
X040052D02*
X040112D01*
X040582D02*
X040642D01*
X040842D02*
X040902D01*
X040992D02*
X041052D01*
X041222D02*
X041282D01*
X041372D02*
X041422D01*
X041612D02*
X041672D01*
X042072D02*
X042122D01*
X042612D02*
X042672D01*
X037902Y046613D02*
X038112D01*
X038532D02*
X038582D01*
X038942D02*
X038992D01*
X039462D02*
X039522D01*
X039802D02*
X040112D01*
X040582D02*
X040642D01*
X040842D02*
X040902D01*
X041002D02*
X041052D01*
X041222D02*
X041272D01*
X041372D02*
X041432D01*
X041612D02*
X041672D01*
X042072D02*
X042122D01*
X042372D02*
X042672D01*
X037912Y046623D02*
X038122D01*
X038532D02*
X038582D01*
X038942D02*
X038992D01*
X039462D02*
X039522D01*
X039802D02*
X040112D01*
X040582D02*
X040642D01*
X040842D02*
X040892D01*
X041002D02*
X041052D01*
X041222D02*
X041272D01*
X041372D02*
X041432D01*
X041612D02*
X041672D01*
X042072D02*
X042122D01*
X042332D02*
X042672D01*
X037922Y046633D02*
X038122D01*
X038532D02*
X038582D01*
X038942D02*
X038992D01*
X039462D02*
X039522D01*
X039782D02*
X040112D01*
X040582D02*
X040642D01*
X040842D02*
X040892D01*
X041002D02*
X041052D01*
X041212D02*
X041272D01*
X041382D02*
X041432D01*
X041612D02*
X041672D01*
X042072D02*
X042122D01*
X042312D02*
X042672D01*
X037922Y046643D02*
X038132D01*
X038532D02*
X038582D01*
X038942D02*
X038992D01*
X039462D02*
X039522D01*
X039762D02*
X040112D01*
X040582D02*
X040642D01*
X040832D02*
X040892D01*
X041002D02*
X041062D01*
X041212D02*
X041262D01*
X041382D02*
X041442D01*
X041612D02*
X041672D01*
X042072D02*
X042122D01*
X042292D02*
X042672D01*
X037932Y046653D02*
X038142D01*
X038532D02*
X038582D01*
X038942D02*
X038992D01*
X039162D02*
X039522D01*
X039752D02*
X040112D01*
X040282D02*
X040642D01*
X040832D02*
X040892D01*
X041012D02*
X041062D01*
X041212D02*
X041262D01*
X041382D02*
X041442D01*
X041612D02*
X041672D01*
X042072D02*
X042122D01*
X042282D02*
X042672D01*
X037932Y046663D02*
X038142D01*
X038532D02*
X038582D01*
X038942D02*
X038992D01*
X039162D02*
X039522D01*
X039732D02*
X039852D01*
X040052D02*
X040112D01*
X040272D02*
X040642D01*
X040832D02*
X040892D01*
X041012D02*
X041062D01*
X041212D02*
X041262D01*
X041382D02*
X041442D01*
X041612D02*
X041672D01*
X042072D02*
X042122D01*
X042272D02*
X042372D01*
X042612D02*
X042672D01*
X037942Y046673D02*
X038152D01*
X038532D02*
X038582D01*
X038942D02*
X038992D01*
X039162D02*
X039522D01*
X039722D02*
X039812D01*
X040052D02*
X040112D01*
X040272D02*
X040642D01*
X040832D02*
X040882D01*
X041012D02*
X041072D01*
X041202D02*
X041252D01*
X041392D02*
X041442D01*
X041612D02*
X041672D01*
X042072D02*
X042122D01*
X042262D02*
X042352D01*
X042612D02*
X042672D01*
X037952Y046683D02*
X038152D01*
X038532D02*
X038582D01*
X038942D02*
X038992D01*
X039162D02*
X039522D01*
X039712D02*
X039792D01*
X040052D02*
X040112D01*
X040272D02*
X040642D01*
X040822D02*
X040882D01*
X041022D02*
X041072D01*
X041202D02*
X041252D01*
X041392D02*
X041452D01*
X041612D02*
X041672D01*
X042072D02*
X042122D01*
X042262D02*
X042332D01*
X042612D02*
X042672D01*
X037952Y046693D02*
X038162D01*
X038532D02*
X038582D01*
X038942D02*
X038992D01*
X039162D02*
X039522D01*
X039712D02*
X039782D01*
X040052D02*
X040112D01*
X040272D02*
X040642D01*
X040822D02*
X040882D01*
X041022D02*
X041072D01*
X041202D02*
X041252D01*
X041392D02*
X041452D01*
X041612D02*
X041672D01*
X042072D02*
X042122D01*
X042252D02*
X042322D01*
X042612D02*
X042672D01*
X037962Y046703D02*
X038172D01*
X038532D02*
X038582D01*
X038942D02*
X038992D01*
X039462D02*
X039522D01*
X039702D02*
X039772D01*
X040052D02*
X040112D01*
X040582D02*
X040642D01*
X040822D02*
X040882D01*
X041022D02*
X041072D01*
X041192D02*
X041252D01*
X041392D02*
X041452D01*
X041612D02*
X041672D01*
X042072D02*
X042122D01*
X042242D02*
X042312D01*
X042612D02*
X042672D01*
X037972Y046713D02*
X038172D01*
X038532D02*
X038582D01*
X038942D02*
X038992D01*
X039462D02*
X039522D01*
X039692D02*
X039762D01*
X040052D02*
X040112D01*
X040582D02*
X040642D01*
X040822D02*
X040872D01*
X041032D02*
X041082D01*
X041192D02*
X041242D01*
X041402D02*
X041452D01*
X041612D02*
X041672D01*
X042072D02*
X042122D01*
X042242D02*
X042302D01*
X042612D02*
X042672D01*
X037972Y046723D02*
X038182D01*
X038532D02*
X038582D01*
X038942D02*
X038992D01*
X039462D02*
X039522D01*
X039692D02*
X039752D01*
X040052D02*
X040112D01*
X040582D02*
X040642D01*
X040812D02*
X040872D01*
X041032D02*
X041082D01*
X041192D02*
X041242D01*
X041402D02*
X041462D01*
X041612D02*
X041672D01*
X042072D02*
X042122D01*
X042232D02*
X042302D01*
X042612D02*
X042672D01*
X037982Y046733D02*
X038182D01*
X038532D02*
X038582D01*
X038942D02*
X038992D01*
X039462D02*
X039522D01*
X039682D02*
X039752D01*
X040052D02*
X040112D01*
X040582D02*
X040642D01*
X040812D02*
X040872D01*
X041032D02*
X041082D01*
X041182D02*
X041242D01*
X041402D02*
X041462D01*
X041612D02*
X041672D01*
X042072D02*
X042122D01*
X042232D02*
X042292D01*
X042612D02*
X042672D01*
X037982Y046743D02*
X038192D01*
X038532D02*
X038592D01*
X038942D02*
X038992D01*
X039462D02*
X039522D01*
X039682D02*
X039742D01*
X040052D02*
X040112D01*
X040582D02*
X040642D01*
X040812D02*
X040872D01*
X041032D02*
X041092D01*
X041182D02*
X041232D01*
X041402D02*
X041462D01*
X041612D02*
X041672D01*
X042072D02*
X042122D01*
X042232D02*
X042292D01*
X042612D02*
X042672D01*
X037992Y046753D02*
X038202D01*
X038532D02*
X038592D01*
X038942D02*
X038992D01*
X039462D02*
X039522D01*
X039682D02*
X039742D01*
X040052D02*
X040112D01*
X040582D02*
X040642D01*
X040812D02*
X040862D01*
X041042D02*
X041092D01*
X041182D02*
X041232D01*
X041412D02*
X041462D01*
X041612D02*
X041672D01*
X042062D02*
X042122D01*
X042232D02*
X042282D01*
X042612D02*
X042672D01*
X038002Y046763D02*
X038202D01*
X038532D02*
X038592D01*
X038942D02*
X038992D01*
X039462D02*
X039522D01*
X039682D02*
X039732D01*
X040052D02*
X040112D01*
X040582D02*
X040642D01*
X040802D02*
X040862D01*
X041042D02*
X041092D01*
X041182D02*
X041232D01*
X041412D02*
X041472D01*
X041612D02*
X041672D01*
X042062D02*
X042122D01*
X042222D02*
X042282D01*
X042612D02*
X042672D01*
X038002Y046773D02*
X038212D01*
X038532D02*
X038592D01*
X038942D02*
X038992D01*
X039462D02*
X039522D01*
X039672D02*
X039732D01*
X040052D02*
X040112D01*
X040582D02*
X040642D01*
X040802D02*
X040862D01*
X041042D02*
X041092D01*
X041172D02*
X041232D01*
X041412D02*
X041472D01*
X041612D02*
X041672D01*
X042062D02*
X042122D01*
X042222D02*
X042282D01*
X042612D02*
X042672D01*
X038012Y046783D02*
X038222D01*
X038542D02*
X038592D01*
X038942D02*
X038992D01*
X039462D02*
X039522D01*
X039672D02*
X039732D01*
X040052D02*
X040112D01*
X040582D02*
X040642D01*
X040802D02*
X040862D01*
X041052D02*
X041102D01*
X041172D02*
X041222D01*
X041412D02*
X041472D01*
X041622D02*
X041672D01*
X042062D02*
X042122D01*
X042222D02*
X042282D01*
X042612D02*
X042672D01*
X038022Y046793D02*
X038222D01*
X038542D02*
X038602D01*
X038942D02*
X038992D01*
X039462D02*
X039522D01*
X039672D02*
X039732D01*
X040052D02*
X040112D01*
X040582D02*
X040642D01*
X040802D02*
X040852D01*
X041052D02*
X041102D01*
X041172D02*
X041222D01*
X041422D02*
X041472D01*
X041622D02*
X041682D01*
X042062D02*
X042122D01*
X042222D02*
X042282D01*
X042612D02*
X042672D01*
X038022Y046803D02*
X038232D01*
X038542D02*
X038602D01*
X038942D02*
X038992D01*
X039462D02*
X039522D01*
X039672D02*
X039732D01*
X040052D02*
X040112D01*
X040582D02*
X040642D01*
X040792D02*
X040852D01*
X041052D02*
X041102D01*
X041162D02*
X041222D01*
X041422D02*
X041482D01*
X041622D02*
X041682D01*
X042052D02*
X042112D01*
X042222D02*
X042282D01*
X042612D02*
X042672D01*
X038032Y046813D02*
X038232D01*
X038542D02*
X038602D01*
X038942D02*
X038992D01*
X039462D02*
X039522D01*
X039672D02*
X039732D01*
X040052D02*
X040112D01*
X040582D02*
X040642D01*
X040792D02*
X040852D01*
X041052D02*
X041112D01*
X041162D02*
X041212D01*
X041422D02*
X041482D01*
X041622D02*
X041682D01*
X042052D02*
X042112D01*
X042222D02*
X042282D01*
X042612D02*
X042672D01*
X038032Y046823D02*
X038242D01*
X038552D02*
X038612D01*
X038942D02*
X038992D01*
X039462D02*
X039522D01*
X039672D02*
X039732D01*
X040052D02*
X040112D01*
X040582D02*
X040642D01*
X040792D02*
X040852D01*
X041062D02*
X041112D01*
X041162D02*
X041212D01*
X041422D02*
X041482D01*
X041632D02*
X041682D01*
X042052D02*
X042112D01*
X042222D02*
X042282D01*
X042612D02*
X042672D01*
X038042Y046833D02*
X038252D01*
X038552D02*
X038612D01*
X038942D02*
X038992D01*
X039462D02*
X039522D01*
X039672D02*
X039732D01*
X040052D02*
X040112D01*
X040582D02*
X040642D01*
X040792D02*
X040842D01*
X041062D02*
X041112D01*
X041152D02*
X041212D01*
X041432D02*
X041482D01*
X041632D02*
X041692D01*
X042042D02*
X042102D01*
X042222D02*
X042282D01*
X042612D02*
X042672D01*
X038052Y046843D02*
X038252D01*
X038562D02*
X038622D01*
X038942D02*
X038992D01*
X039462D02*
X039522D01*
X039682D02*
X039732D01*
X040052D02*
X040112D01*
X040582D02*
X040642D01*
X040782D02*
X040842D01*
X041062D02*
X041112D01*
X041152D02*
X041202D01*
X041432D02*
X041492D01*
X041632D02*
X041692D01*
X042042D02*
X042102D01*
X042232D02*
X042282D01*
X042612D02*
X042672D01*
X038052Y046853D02*
X038262D01*
X038562D02*
X038622D01*
X038942D02*
X038992D01*
X039462D02*
X039522D01*
X039682D02*
X039742D01*
X040052D02*
X040112D01*
X040582D02*
X040642D01*
X040782D02*
X040842D01*
X041072D02*
X041122D01*
X041152D02*
X041202D01*
X041432D02*
X041492D01*
X041642D02*
X041702D01*
X042032D02*
X042102D01*
X042232D02*
X042292D01*
X042612D02*
X042672D01*
X038062Y046863D02*
X038272D01*
X038572D02*
X038632D01*
X038942D02*
X038992D01*
X039462D02*
X039522D01*
X039682D02*
X039742D01*
X040052D02*
X040112D01*
X040582D02*
X040642D01*
X040782D02*
X040842D01*
X041072D02*
X041122D01*
X041152D02*
X041202D01*
X041432D02*
X041492D01*
X041642D02*
X041702D01*
X042032D02*
X042092D01*
X042232D02*
X042292D01*
X042612D02*
X042672D01*
X038072Y046873D02*
X038272D01*
X038572D02*
X038642D01*
X038942D02*
X038992D01*
X039462D02*
X039522D01*
X039682D02*
X039752D01*
X040052D02*
X040112D01*
X040582D02*
X040642D01*
X040782D02*
X040832D01*
X041072D02*
X041122D01*
X041142D02*
X041202D01*
X041442D02*
X041492D01*
X041652D02*
X041712D01*
X042022D02*
X042092D01*
X042232D02*
X042302D01*
X042612D02*
X042672D01*
X038072Y046883D02*
X038282D01*
X038582D02*
X038652D01*
X038942D02*
X038992D01*
X039462D02*
X039522D01*
X039692D02*
X039752D01*
X040052D02*
X040112D01*
X040582D02*
X040642D01*
X040772D02*
X040832D01*
X041072D02*
X041132D01*
X041142D02*
X041192D01*
X041442D02*
X041502D01*
X041652D02*
X041722D01*
X042022D02*
X042082D01*
X042242D02*
X042302D01*
X042612D02*
X042672D01*
X038082Y046893D02*
X038282D01*
X038592D02*
X038662D01*
X038942D02*
X038992D01*
X039462D02*
X039522D01*
X039692D02*
X039762D01*
X040052D02*
X040112D01*
X040582D02*
X040642D01*
X040772D02*
X040832D01*
X041082D02*
X041132D01*
X041142D02*
X041192D01*
X041442D02*
X041502D01*
X041662D02*
X041722D01*
X042012D02*
X042072D01*
X042242D02*
X042312D01*
X042612D02*
X042672D01*
X038082Y046903D02*
X038292D01*
X038602D02*
X038672D01*
X038942D02*
X038992D01*
X039462D02*
X039522D01*
X039702D02*
X039772D01*
X040052D02*
X040112D01*
X040582D02*
X040642D01*
X040772D02*
X040832D01*
X041082D02*
X041132D01*
X041142D02*
X041192D01*
X041442D02*
X041502D01*
X041662D02*
X041732D01*
X042002D02*
X042072D01*
X042252D02*
X042322D01*
X042612D02*
X042672D01*
X038092Y046913D02*
X038302D01*
X038602D02*
X038692D01*
X038942D02*
X038992D01*
X039462D02*
X039522D01*
X039702D02*
X039782D01*
X040052D02*
X040112D01*
X040582D02*
X040642D01*
X040762D02*
X040822D01*
X041082D02*
X041182D01*
X041452D02*
X041502D01*
X041672D02*
X041752D01*
X041992D02*
X042062D01*
X042262D02*
X042332D01*
X042612D02*
X042672D01*
X038102Y046923D02*
X038302D01*
X038612D02*
X038702D01*
X038942D02*
X038992D01*
X039462D02*
X039522D01*
X039712D02*
X039792D01*
X040052D02*
X040112D01*
X040582D02*
X040642D01*
X040762D02*
X040822D01*
X041092D02*
X041182D01*
X041452D02*
X041512D01*
X041682D02*
X041762D01*
X041972D02*
X042052D01*
X042262D02*
X042342D01*
X042612D02*
X042672D01*
X038102Y046933D02*
X038312D01*
X038632D02*
X038732D01*
X038942D02*
X038992D01*
X039462D02*
X039522D01*
X039722D02*
X039812D01*
X040052D02*
X040112D01*
X040582D02*
X040642D01*
X040762D02*
X040822D01*
X041092D02*
X041182D01*
X041452D02*
X041512D01*
X041692D02*
X041782D01*
X041962D02*
X042042D01*
X042272D02*
X042362D01*
X042612D02*
X042672D01*
X038112Y046943D02*
X038312D01*
X038642D02*
X038772D01*
X038942D02*
X038992D01*
X039462D02*
X039522D01*
X039732D02*
X039852D01*
X040052D02*
X040112D01*
X040582D02*
X040642D01*
X040762D02*
X040822D01*
X041092D02*
X041182D01*
X041452D02*
X041512D01*
X041702D02*
X041802D01*
X041942D02*
X042032D01*
X042282D02*
X042402D01*
X042612D02*
X042672D01*
X038112Y046953D02*
X038322D01*
X038652D02*
X038992D01*
X039112D02*
X039522D01*
X039742D02*
X040112D01*
X040232D02*
X040642D01*
X040752D02*
X040812D01*
X041102D02*
X041172D01*
X041462D02*
X041512D01*
X041712D02*
X041842D01*
X041892D02*
X042022D01*
X042292D02*
X042672D01*
X038122Y046963D02*
X038332D01*
X038672D02*
X038992D01*
X039112D02*
X039522D01*
X039762D02*
X040112D01*
X040232D02*
X040642D01*
X040752D02*
X040812D01*
X041102D02*
X041172D01*
X041462D02*
X041522D01*
X041722D02*
X042012D01*
X042312D02*
X042672D01*
X038132Y046973D02*
X038332D01*
X038692D02*
X038992D01*
X039112D02*
X039522D01*
X039782D02*
X040112D01*
X040232D02*
X040642D01*
X040752D02*
X040812D01*
X041102D02*
X041172D01*
X041462D02*
X041522D01*
X041742D02*
X041992D01*
X042332D02*
X042672D01*
X038132Y046983D02*
X038342D01*
X038722D02*
X038992D01*
X039112D02*
X039522D01*
X039802D02*
X040112D01*
X040232D02*
X040642D01*
X040752D02*
X040812D01*
X041102D02*
X041162D01*
X041462D02*
X041522D01*
X041762D02*
X041972D01*
X042352D02*
X042672D01*
X038142Y046993D02*
X038352D01*
X038772D02*
X038992D01*
X039112D02*
X039522D01*
X039852D02*
X040112D01*
X040232D02*
X040642D01*
X040752D02*
X040802D01*
X041112D02*
X041162D01*
X041472D02*
X041522D01*
X041792D02*
X041952D01*
X042402D02*
X042672D01*
X038152Y047003D02*
X038352D01*
X041842D02*
X041902D01*
X038152Y047013D02*
X038362D01*
X038162Y047023D02*
X038362D01*
X038162Y047033D02*
X038372D01*
X038172Y047043D02*
X038382D01*
X038182Y047053D02*
X038382D01*
X038182Y047063D02*
X038392D01*
X038192Y047073D02*
X038402D01*
X038202Y047083D02*
X038402D01*
X038202Y047093D02*
X038412D01*
X038212Y047103D02*
X038412D01*
X038212Y047113D02*
X038422D01*
X039042D02*
X039252D01*
X039452D02*
X039612D01*
X039822D02*
X040652D01*
X041652D02*
X041832D01*
X042012D02*
X042182D01*
X042982D02*
X043162D01*
X043632D02*
X043792D01*
X038222Y047123D02*
X038432D01*
X039042D02*
X039242D01*
X039452D02*
X039612D01*
X039822D02*
X040652D01*
X041652D02*
X041832D01*
X042012D02*
X042192D01*
X042982D02*
X043162D01*
X043632D02*
X043792D01*
X038232Y047133D02*
X038432D01*
X039032D02*
X039232D01*
X039452D02*
X039612D01*
X039822D02*
X040652D01*
X041652D02*
X041832D01*
X042022D02*
X042192D01*
X042982D02*
X043152D01*
X043632D02*
X043802D01*
X038232Y047143D02*
X038442D01*
X039022D02*
X039232D01*
X039452D02*
X039612D01*
X039822D02*
X040652D01*
X041652D02*
X041832D01*
X042022D02*
X042192D01*
X042972D02*
X043152D01*
X043622D02*
X043802D01*
X038242Y047153D02*
X038442D01*
X039022D02*
X039222D01*
X039452D02*
X039612D01*
X039822D02*
X040652D01*
X041652D02*
X041832D01*
X042022D02*
X042202D01*
X042972D02*
X043152D01*
X043622D02*
X043812D01*
X038252Y047163D02*
X038452D01*
X039012D02*
X039212D01*
X039452D02*
X039612D01*
X039822D02*
X040652D01*
X041652D02*
X041832D01*
X042032D02*
X042202D01*
X042972D02*
X043142D01*
X043622D02*
X043812D01*
X038252Y047173D02*
X038462D01*
X039002D02*
X039212D01*
X039452D02*
X039612D01*
X039822D02*
X040652D01*
X041652D02*
X041832D01*
X042032D02*
X042212D01*
X042962D02*
X043142D01*
X043612D02*
X043812D01*
X037602Y047183D02*
X037652D01*
X038262D02*
X038462D01*
X039002D02*
X039202D01*
X039452D02*
X039612D01*
X039822D02*
X040652D01*
X041652D02*
X041832D01*
X042032D02*
X042212D01*
X042962D02*
X043132D01*
X043612D02*
X043822D01*
X037562Y047193D02*
X037682D01*
X038262D02*
X038472D01*
X038992D02*
X039202D01*
X039452D02*
X039612D01*
X039822D02*
X040652D01*
X041652D02*
X041832D01*
X042042D02*
X042212D01*
X042962D02*
X043132D01*
X043602D02*
X043822D01*
X037542Y047203D02*
X037702D01*
X038272D02*
X038482D01*
X038982D02*
X039192D01*
X039452D02*
X039612D01*
X039822D02*
X040652D01*
X041652D02*
X041832D01*
X042042D02*
X042222D01*
X042952D02*
X043132D01*
X043602D02*
X043822D01*
X037532Y047213D02*
X037722D01*
X038282D02*
X038482D01*
X038982D02*
X039182D01*
X039452D02*
X039612D01*
X039822D02*
X040652D01*
X041652D02*
X041832D01*
X042052D02*
X042222D01*
X042952D02*
X043122D01*
X043602D02*
X043832D01*
X037522Y047223D02*
X037732D01*
X038282D02*
X038492D01*
X038972D02*
X039182D01*
X039452D02*
X039612D01*
X039822D02*
X040652D01*
X041652D02*
X041832D01*
X042052D02*
X042222D01*
X042942D02*
X043122D01*
X043592D02*
X043832D01*
X037512Y047233D02*
X037742D01*
X038292D02*
X038492D01*
X038972D02*
X039172D01*
X039452D02*
X039612D01*
X039822D02*
X040652D01*
X041652D02*
X041832D01*
X042052D02*
X042232D01*
X042942D02*
X043122D01*
X043592D02*
X043842D01*
X037502Y047243D02*
X037742D01*
X038302D02*
X038502D01*
X038962D02*
X039162D01*
X039452D02*
X039612D01*
X039822D02*
X040652D01*
X041652D02*
X041832D01*
X042062D02*
X042232D01*
X042942D02*
X043112D01*
X043592D02*
X043842D01*
X037492Y047253D02*
X037752D01*
X038302D02*
X038512D01*
X038952D02*
X039162D01*
X039452D02*
X039612D01*
X040482D02*
X040652D01*
X041652D02*
X041832D01*
X042062D02*
X042242D01*
X042932D02*
X043112D01*
X043582D02*
X043842D01*
X037492Y047263D02*
X037762D01*
X038312D02*
X038512D01*
X038952D02*
X039152D01*
X039452D02*
X039612D01*
X040482D02*
X040652D01*
X041652D02*
X041832D01*
X042072D02*
X042242D01*
X042932D02*
X043102D01*
X043582D02*
X043852D01*
X037482Y047273D02*
X037762D01*
X038312D02*
X038522D01*
X038942D02*
X039142D01*
X039452D02*
X039612D01*
X040482D02*
X040652D01*
X041652D02*
X041832D01*
X042072D02*
X042242D01*
X042932D02*
X043102D01*
X043572D02*
X043852D01*
X037482Y047283D02*
X037762D01*
X038322D02*
X038532D01*
X038932D02*
X039142D01*
X039452D02*
X039612D01*
X040482D02*
X040652D01*
X041652D02*
X041832D01*
X042072D02*
X042252D01*
X042922D02*
X043102D01*
X043572D02*
X043852D01*
X037482Y047293D02*
X037772D01*
X038332D02*
X038532D01*
X038932D02*
X039132D01*
X039452D02*
X039612D01*
X040482D02*
X040652D01*
X041652D02*
X041832D01*
X042082D02*
X042252D01*
X042922D02*
X043092D01*
X043572D02*
X043862D01*
X037482Y047303D02*
X037772D01*
X038332D02*
X038542D01*
X038922D02*
X039122D01*
X039452D02*
X039612D01*
X040482D02*
X040652D01*
X041652D02*
X041832D01*
X042082D02*
X042252D01*
X042922D02*
X043092D01*
X043562D02*
X043862D01*
X037472Y047313D02*
X037772D01*
X038342D02*
X038542D01*
X038912D02*
X039122D01*
X039452D02*
X039612D01*
X040482D02*
X040652D01*
X041652D02*
X041832D01*
X042082D02*
X042262D01*
X042912D02*
X043082D01*
X043562D02*
X043862D01*
X037472Y047323D02*
X037772D01*
X038342D02*
X038552D01*
X038912D02*
X039112D01*
X039452D02*
X039612D01*
X040482D02*
X040652D01*
X041652D02*
X041832D01*
X042092D02*
X042262D01*
X042912D02*
X043082D01*
X043562D02*
X043872D01*
X037462Y047333D02*
X037782D01*
X038352D02*
X038562D01*
X038902D02*
X039102D01*
X039452D02*
X039612D01*
X040482D02*
X040652D01*
X041652D02*
X041832D01*
X042092D02*
X042262D01*
X042902D02*
X043082D01*
X043552D02*
X043872D01*
X037432Y047343D02*
X037812D01*
X038362D02*
X038562D01*
X038892D02*
X039102D01*
X039452D02*
X039612D01*
X040482D02*
X040652D01*
X041652D02*
X041832D01*
X042102D02*
X042272D01*
X042902D02*
X043072D01*
X043552D02*
X043712D01*
X043722D02*
X043882D01*
X037412Y047353D02*
X037832D01*
X038362D02*
X038572D01*
X038892D02*
X039092D01*
X039452D02*
X039612D01*
X040482D02*
X040652D01*
X041652D02*
X041832D01*
X042102D02*
X042272D01*
X042902D02*
X043072D01*
X043542D02*
X043712D01*
X043722D02*
X043882D01*
X037392Y047363D02*
X037852D01*
X038372D02*
X038572D01*
X038882D02*
X039092D01*
X039452D02*
X039612D01*
X040482D02*
X040652D01*
X041652D02*
X041832D01*
X042102D02*
X042282D01*
X042892D02*
X043072D01*
X043542D02*
X043702D01*
X043722D02*
X043882D01*
X037372Y047373D02*
X037872D01*
X038382D02*
X038582D01*
X038872D02*
X039082D01*
X039452D02*
X039612D01*
X040482D02*
X040652D01*
X041652D02*
X041832D01*
X042112D02*
X042282D01*
X042892D02*
X043062D01*
X043542D02*
X043702D01*
X043732D02*
X043892D01*
X037362Y047383D02*
X037462D01*
X037482D02*
X037762D01*
X037782D02*
X037892D01*
X038382D02*
X038592D01*
X038872D02*
X039072D01*
X039452D02*
X039612D01*
X040482D02*
X040652D01*
X041652D02*
X041832D01*
X042112D02*
X042282D01*
X042892D02*
X043062D01*
X043532D02*
X043702D01*
X043732D02*
X043892D01*
X037342Y047393D02*
X037442D01*
X037492D02*
X037762D01*
X037812D02*
X037902D01*
X038392D02*
X038592D01*
X038862D02*
X039072D01*
X039452D02*
X039612D01*
X040482D02*
X040652D01*
X041652D02*
X041832D01*
X042112D02*
X042292D01*
X042882D02*
X043052D01*
X043532D02*
X043692D01*
X043732D02*
X043892D01*
X037332Y047403D02*
X037422D01*
X037492D02*
X037752D01*
X037832D02*
X037922D01*
X038392D02*
X038602D01*
X038862D02*
X039062D01*
X039452D02*
X039612D01*
X040482D02*
X040652D01*
X041652D02*
X041832D01*
X042122D02*
X042292D01*
X042882D02*
X043052D01*
X043532D02*
X043692D01*
X043742D02*
X043902D01*
X037312Y047413D02*
X037402D01*
X037502D02*
X037752D01*
X037852D02*
X037932D01*
X038402D02*
X038612D01*
X038852D02*
X039052D01*
X039452D02*
X039612D01*
X040482D02*
X040652D01*
X041652D02*
X041832D01*
X042122D02*
X042292D01*
X042882D02*
X043052D01*
X043522D02*
X043692D01*
X043742D02*
X043902D01*
X037302Y047423D02*
X037382D01*
X037512D02*
X037742D01*
X037862D02*
X037942D01*
X038412D02*
X038612D01*
X038842D02*
X039052D01*
X039452D02*
X039612D01*
X040482D02*
X040652D01*
X041652D02*
X041832D01*
X042132D02*
X042302D01*
X042872D02*
X043042D01*
X043522D02*
X043682D01*
X043742D02*
X043912D01*
X037292Y047433D02*
X037372D01*
X037522D02*
X037732D01*
X037882D02*
X037952D01*
X038412D02*
X038622D01*
X038842D02*
X039042D01*
X039452D02*
X039612D01*
X040482D02*
X040652D01*
X041652D02*
X041832D01*
X042132D02*
X042302D01*
X042872D02*
X043042D01*
X043512D02*
X043682D01*
X043752D02*
X043912D01*
X037282Y047443D02*
X037352D01*
X037532D02*
X037722D01*
X037892D02*
X037972D01*
X038422D02*
X038622D01*
X038832D02*
X039032D01*
X039452D02*
X039612D01*
X040482D02*
X040652D01*
X041652D02*
X041832D01*
X042132D02*
X042312D01*
X042862D02*
X043032D01*
X043512D02*
X043682D01*
X043752D02*
X043912D01*
X037272Y047453D02*
X037342D01*
X037542D02*
X037702D01*
X037912D02*
X037982D01*
X038432D02*
X038622D01*
X038822D02*
X039032D01*
X039452D02*
X039612D01*
X040482D02*
X040652D01*
X041652D02*
X041832D01*
X042142D02*
X043032D01*
X043512D02*
X043672D01*
X043752D02*
X043922D01*
X037262Y047463D02*
X037332D01*
X037562D02*
X037692D01*
X037922D02*
X037992D01*
X038432D02*
X038622D01*
X038822D02*
X039022D01*
X039452D02*
X039612D01*
X040482D02*
X040652D01*
X041652D02*
X041832D01*
X042142D02*
X043032D01*
X043502D02*
X043672D01*
X043762D02*
X043922D01*
X037252Y047473D02*
X037322D01*
X037582D02*
X037662D01*
X037932D02*
X037992D01*
X038442D02*
X038612D01*
X038812D02*
X039012D01*
X039452D02*
X039612D01*
X040482D02*
X040652D01*
X041652D02*
X041832D01*
X042152D02*
X043022D01*
X043502D02*
X043662D01*
X043762D02*
X043922D01*
X037242Y047483D02*
X037312D01*
X037942D02*
X038002D01*
X038442D02*
X038602D01*
X038802D02*
X039012D01*
X039452D02*
X039612D01*
X040482D02*
X040652D01*
X041652D02*
X041832D01*
X042152D02*
X043022D01*
X043502D02*
X043662D01*
X043762D02*
X043932D01*
X037232Y047493D02*
X037302D01*
X037952D02*
X038012D01*
X038452D02*
X038602D01*
X038802D02*
X039002D01*
X039452D02*
X039612D01*
X040482D02*
X040652D01*
X041652D02*
X041832D01*
X042152D02*
X043022D01*
X043492D02*
X043662D01*
X043772D02*
X043932D01*
X037232Y047503D02*
X037292D01*
X037962D02*
X038022D01*
X038462D02*
X038592D01*
X038792D02*
X039002D01*
X039452D02*
X039612D01*
X040482D02*
X040652D01*
X041652D02*
X041832D01*
X042162D02*
X043012D01*
X043492D02*
X043652D01*
X043772D02*
X043942D01*
X037222Y047513D02*
X037282D01*
X037972D02*
X038032D01*
X038462D02*
X038582D01*
X038782D02*
X038992D01*
X039452D02*
X039612D01*
X040482D02*
X040652D01*
X041652D02*
X041832D01*
X042162D02*
X043012D01*
X043482D02*
X043652D01*
X043782D02*
X043942D01*
X037212Y047523D02*
X037272D01*
X037982D02*
X038032D01*
X038472D02*
X038582D01*
X038782D02*
X038982D01*
X039452D02*
X039612D01*
X040482D02*
X040652D01*
X041652D02*
X041832D01*
X042172D02*
X043002D01*
X043482D02*
X043652D01*
X043782D02*
X043942D01*
X037202Y047533D02*
X037262D01*
X037982D02*
X038042D01*
X038482D02*
X038572D01*
X038772D02*
X038982D01*
X039452D02*
X039612D01*
X040482D02*
X040652D01*
X041652D02*
X041832D01*
X042172D02*
X043002D01*
X043482D02*
X043642D01*
X043782D02*
X043952D01*
X037202Y047543D02*
X037252D01*
X037992D02*
X038052D01*
X038482D02*
X038562D01*
X038762D02*
X038972D01*
X039452D02*
X039612D01*
X040482D02*
X040652D01*
X041652D02*
X041832D01*
X042172D02*
X043002D01*
X043472D02*
X043642D01*
X043792D02*
X043952D01*
X037192Y047553D02*
X037252D01*
X038002D02*
X038052D01*
X038492D02*
X038562D01*
X038762D02*
X038962D01*
X039452D02*
X039612D01*
X040482D02*
X040652D01*
X041652D02*
X041832D01*
X042182D02*
X042992D01*
X043472D02*
X043642D01*
X043792D02*
X043952D01*
X037192Y047563D02*
X037242D01*
X038002D02*
X038062D01*
X038492D02*
X038552D01*
X038752D02*
X038962D01*
X039452D02*
X039612D01*
X040482D02*
X040652D01*
X041652D02*
X041832D01*
X042182D02*
X042992D01*
X043472D02*
X043632D01*
X043792D02*
X043962D01*
X037182Y047573D02*
X037232D01*
X038012D02*
X038062D01*
X038502D02*
X038542D01*
X038752D02*
X038952D01*
X039452D02*
X039612D01*
X040482D02*
X040652D01*
X041652D02*
X041832D01*
X042182D02*
X042992D01*
X043462D02*
X043632D01*
X043802D02*
X043962D01*
X037182Y047583D02*
X037232D01*
X038022D02*
X038072D01*
X038512D02*
X038542D01*
X038742D02*
X038942D01*
X039452D02*
X039612D01*
X040482D02*
X040652D01*
X041652D02*
X041832D01*
X042192D02*
X042982D01*
X043462D02*
X043632D01*
X043802D02*
X043972D01*
X037172Y047593D02*
X037222D01*
X038022D02*
X038072D01*
X038512D02*
X038532D01*
X038732D02*
X038942D01*
X039452D02*
X039612D01*
X040482D02*
X040652D01*
X041652D02*
X041832D01*
X042192D02*
X042362D01*
X042802D02*
X042982D01*
X043462D02*
X043622D01*
X043802D02*
X043972D01*
X037172Y047603D02*
X037222D01*
X038032D02*
X038082D01*
X038732D02*
X038932D01*
X039452D02*
X039612D01*
X040482D02*
X040652D01*
X041652D02*
X041832D01*
X042202D02*
X042362D01*
X042812D02*
X042972D01*
X043452D02*
X043622D01*
X043812D02*
X043972D01*
X037162Y047613D02*
X037212D01*
X038032D02*
X038082D01*
X038722D02*
X038922D01*
X039452D02*
X039612D01*
X040482D02*
X040652D01*
X041652D02*
X041832D01*
X042202D02*
X042372D01*
X042802D02*
X042972D01*
X043452D02*
X043622D01*
X043812D02*
X043982D01*
X037162Y047623D02*
X037212D01*
X038042D02*
X038092D01*
X038712D02*
X038922D01*
X039452D02*
X039612D01*
X040482D02*
X040652D01*
X041302D02*
X041832D01*
X042202D02*
X042372D01*
X042802D02*
X042972D01*
X043442D02*
X043612D01*
X043812D02*
X043982D01*
X037152Y047633D02*
X037212D01*
X038042D02*
X038092D01*
X038712D02*
X038912D01*
X039452D02*
X039612D01*
X040482D02*
X040652D01*
X041212D02*
X041832D01*
X042212D02*
X042372D01*
X042792D02*
X042962D01*
X043442D02*
X043612D01*
X043822D02*
X043982D01*
X037152Y047643D02*
X037202D01*
X038042D02*
X038092D01*
X038702D02*
X038902D01*
X039452D02*
X039612D01*
X040482D02*
X040652D01*
X041162D02*
X041832D01*
X042212D02*
X042382D01*
X042792D02*
X042962D01*
X043442D02*
X043612D01*
X043822D02*
X043992D01*
X037142Y047653D02*
X037202D01*
X038052D02*
X038112D01*
X038692D02*
X038902D01*
X039452D02*
X039612D01*
X040482D02*
X040652D01*
X041132D02*
X041832D01*
X042222D02*
X042382D01*
X042792D02*
X042952D01*
X043432D02*
X043602D01*
X043822D02*
X043992D01*
X037102Y047663D02*
X037202D01*
X038042D02*
X038152D01*
X038692D02*
X038892D01*
X039452D02*
X039612D01*
X040482D02*
X040652D01*
X041102D02*
X041832D01*
X042222D02*
X042392D01*
X042782D02*
X042952D01*
X043432D02*
X043602D01*
X043832D02*
X044002D01*
X037072Y047673D02*
X037222D01*
X038022D02*
X038172D01*
X038682D02*
X038892D01*
X039452D02*
X039612D01*
X040482D02*
X040652D01*
X041082D02*
X041832D01*
X042222D02*
X042392D01*
X042782D02*
X042952D01*
X043432D02*
X043602D01*
X043832D02*
X044002D01*
X037062Y047683D02*
X037242D01*
X038012D02*
X038192D01*
X038672D02*
X038882D01*
X039452D02*
X039612D01*
X040482D02*
X040652D01*
X041062D02*
X041832D01*
X042232D02*
X042392D01*
X042782D02*
X042942D01*
X043422D02*
X043592D01*
X043832D02*
X044002D01*
X037052Y047693D02*
X037252D01*
X038002D02*
X038202D01*
X038672D02*
X038872D01*
X039452D02*
X039612D01*
X040482D02*
X040652D01*
X041042D02*
X041832D01*
X042232D02*
X042402D01*
X042772D02*
X042942D01*
X043422D02*
X043592D01*
X043842D02*
X044012D01*
X037042Y047703D02*
X037262D01*
X037992D02*
X038212D01*
X038662D02*
X038872D01*
X039452D02*
X039612D01*
X040482D02*
X040652D01*
X041032D02*
X041832D01*
X042232D02*
X042402D01*
X042772D02*
X042942D01*
X043412D02*
X043582D01*
X043842D02*
X044012D01*
X037032Y047713D02*
X037272D01*
X037982D02*
X038222D01*
X038652D02*
X038862D01*
X039452D02*
X039612D01*
X040482D02*
X040652D01*
X041012D02*
X041832D01*
X042242D02*
X042402D01*
X042772D02*
X042932D01*
X043412D02*
X043582D01*
X043842D02*
X044012D01*
X037022Y047723D02*
X037272D01*
X037972D02*
X038222D01*
X038652D02*
X038852D01*
X039452D02*
X039612D01*
X039912D02*
X040652D01*
X041002D02*
X041832D01*
X042242D02*
X042412D01*
X042762D02*
X042932D01*
X043412D02*
X043582D01*
X043852D02*
X044022D01*
X037022Y047733D02*
X037282D01*
X037962D02*
X038232D01*
X038642D02*
X038852D01*
X039452D02*
X039612D01*
X039912D02*
X040652D01*
X040992D02*
X041832D01*
X042252D02*
X042412D01*
X042762D02*
X042922D01*
X043402D02*
X043572D01*
X043852D02*
X044022D01*
X037012Y047743D02*
X037292D01*
X037962D02*
X038232D01*
X038642D02*
X038842D01*
X039452D02*
X039612D01*
X039912D02*
X040652D01*
X040982D02*
X041832D01*
X042252D02*
X042422D01*
X042752D02*
X042922D01*
X043402D02*
X043572D01*
X043852D02*
X044022D01*
X037012Y047753D02*
X037292D01*
X037962D02*
X038242D01*
X038632D02*
X038832D01*
X039452D02*
X039612D01*
X039912D02*
X040652D01*
X040972D02*
X041832D01*
X042252D02*
X042422D01*
X042752D02*
X042922D01*
X043402D02*
X043572D01*
X043862D02*
X044032D01*
X037002Y047763D02*
X037292D01*
X037952D02*
X038242D01*
X038622D02*
X038832D01*
X039452D02*
X039612D01*
X039912D02*
X040652D01*
X040962D02*
X041312D01*
X041652D02*
X041832D01*
X042262D02*
X042422D01*
X042752D02*
X042912D01*
X043392D02*
X043562D01*
X043862D02*
X044032D01*
X037002Y047773D02*
X037292D01*
X037952D02*
X038242D01*
X038632D02*
X038832D01*
X039452D02*
X039612D01*
X039912D02*
X040652D01*
X040952D02*
X041242D01*
X041652D02*
X041832D01*
X042262D02*
X042432D01*
X042742D02*
X042912D01*
X043392D02*
X043562D01*
X043872D02*
X044042D01*
X037002Y047783D02*
X037302D01*
X037952D02*
X038242D01*
X038632D02*
X038832D01*
X039452D02*
X039612D01*
X039912D02*
X040652D01*
X040952D02*
X041202D01*
X041652D02*
X041832D01*
X042272D02*
X042432D01*
X042742D02*
X042902D01*
X043382D02*
X043562D01*
X043872D02*
X044042D01*
X037002Y047793D02*
X037302D01*
X037952D02*
X038252D01*
X038642D02*
X038842D01*
X039452D02*
X039612D01*
X039912D02*
X040652D01*
X040942D02*
X041182D01*
X041652D02*
X041832D01*
X042272D02*
X042432D01*
X042742D02*
X042902D01*
X043382D02*
X043552D01*
X043872D02*
X044042D01*
X037002Y047803D02*
X037302D01*
X037952D02*
X038252D01*
X038652D02*
X038852D01*
X039452D02*
X039612D01*
X039912D02*
X040652D01*
X040932D02*
X041162D01*
X041652D02*
X041832D01*
X042272D02*
X042442D01*
X042732D02*
X042902D01*
X043382D02*
X043552D01*
X043882D02*
X044052D01*
X037002Y047813D02*
X037302D01*
X037952D02*
X038252D01*
X038652D02*
X038852D01*
X039452D02*
X039612D01*
X039912D02*
X040652D01*
X040932D02*
X041152D01*
X041652D02*
X041832D01*
X042282D02*
X042442D01*
X042732D02*
X042892D01*
X043372D02*
X043552D01*
X043882D02*
X044052D01*
X037002Y047823D02*
X037302D01*
X037952D02*
X038242D01*
X038662D02*
X038862D01*
X039452D02*
X039612D01*
X039912D02*
X040652D01*
X040922D02*
X041132D01*
X041652D02*
X041832D01*
X042282D02*
X042442D01*
X042732D02*
X042892D01*
X043372D02*
X043542D01*
X043882D02*
X044052D01*
X037002Y047833D02*
X037292D01*
X037952D02*
X038242D01*
X038672D02*
X038862D01*
X039452D02*
X039612D01*
X039912D02*
X040652D01*
X040922D02*
X041122D01*
X041652D02*
X041832D01*
X042282D02*
X042452D01*
X042722D02*
X042892D01*
X043372D02*
X043542D01*
X043892D02*
X044062D01*
X037012Y047843D02*
X037292D01*
X037952D02*
X038242D01*
X038672D02*
X038872D01*
X039452D02*
X039612D01*
X039912D02*
X040652D01*
X040912D02*
X041112D01*
X041652D02*
X041832D01*
X042292D02*
X042452D01*
X042722D02*
X042882D01*
X043362D02*
X043542D01*
X043892D02*
X044062D01*
X037012Y047853D02*
X037292D01*
X037962D02*
X038242D01*
X038682D02*
X038882D01*
X039452D02*
X039612D01*
X039912D02*
X040652D01*
X040912D02*
X041102D01*
X041652D02*
X041832D01*
X042292D02*
X042462D01*
X042712D02*
X042882D01*
X043362D02*
X043532D01*
X043892D02*
X044072D01*
X037012Y047863D02*
X037282D01*
X037962D02*
X038232D01*
X038682D02*
X038882D01*
X039452D02*
X039612D01*
X040482D02*
X040652D01*
X040902D02*
X041102D01*
X041652D02*
X041832D01*
X042302D02*
X042462D01*
X042712D02*
X042872D01*
X043352D02*
X043532D01*
X043902D02*
X044072D01*
X037022Y047873D02*
X037282D01*
X037972D02*
X038232D01*
X038692D02*
X038892D01*
X039452D02*
X039612D01*
X040482D02*
X040652D01*
X040902D02*
X041092D01*
X041652D02*
X041832D01*
X042302D02*
X042462D01*
X042712D02*
X042872D01*
X043352D02*
X043532D01*
X043902D02*
X044072D01*
X037022Y047883D02*
X037272D01*
X037972D02*
X038222D01*
X038702D02*
X038902D01*
X039452D02*
X039612D01*
X040482D02*
X040652D01*
X040902D02*
X041082D01*
X041652D02*
X041832D01*
X042302D02*
X042472D01*
X042702D02*
X042872D01*
X043352D02*
X043522D01*
X043902D02*
X044082D01*
X037032Y047893D02*
X037272D01*
X037982D02*
X038212D01*
X038702D02*
X038902D01*
X039452D02*
X039612D01*
X040482D02*
X040652D01*
X040892D02*
X041082D01*
X041652D02*
X041832D01*
X042312D02*
X042472D01*
X042702D02*
X042862D01*
X043342D02*
X043522D01*
X043912D02*
X044082D01*
X037042Y047903D02*
X037262D01*
X037992D02*
X038212D01*
X038712D02*
X038912D01*
X039452D02*
X039612D01*
X040482D02*
X040652D01*
X040892D02*
X041072D01*
X041652D02*
X041832D01*
X042312D02*
X042472D01*
X042702D02*
X042862D01*
X043342D02*
X043522D01*
X043912D02*
X044082D01*
X037052Y047913D02*
X037252D01*
X038002D02*
X038202D01*
X038722D02*
X038922D01*
X039452D02*
X039612D01*
X040482D02*
X040652D01*
X040892D02*
X041072D01*
X041652D02*
X041832D01*
X042312D02*
X042482D01*
X042692D02*
X042852D01*
X043342D02*
X043512D01*
X043912D02*
X044092D01*
X037062Y047923D02*
X037232D01*
X038012D02*
X038182D01*
X038722D02*
X038922D01*
X039452D02*
X039612D01*
X040482D02*
X040652D01*
X040892D02*
X041062D01*
X041652D02*
X041832D01*
X042322D02*
X042482D01*
X042692D02*
X042852D01*
X043332D02*
X043512D01*
X043922D02*
X044092D01*
X037082Y047933D02*
X037222D01*
X038032D02*
X038172D01*
X038522D02*
X038532D01*
X038732D02*
X038932D01*
X039452D02*
X039612D01*
X040482D02*
X040652D01*
X040892D02*
X041062D01*
X041652D02*
X041832D01*
X042322D02*
X042482D01*
X042692D02*
X042852D01*
X043332D02*
X043502D01*
X043922D02*
X044102D01*
X037102Y047943D02*
X037202D01*
X038052D02*
X038142D01*
X038512D02*
X038532D01*
X038742D02*
X038932D01*
X039452D02*
X039612D01*
X040482D02*
X040652D01*
X040882D02*
X041062D01*
X041652D02*
X041832D01*
X042332D02*
X042492D01*
X042682D02*
X042842D01*
X043322D02*
X043502D01*
X043922D02*
X044102D01*
X037152Y047953D02*
X037202D01*
X038052D02*
X038102D01*
X038512D02*
X038542D01*
X038742D02*
X038942D01*
X039452D02*
X039612D01*
X040482D02*
X040652D01*
X040882D02*
X041062D01*
X041652D02*
X041832D01*
X042332D02*
X042492D01*
X042682D02*
X042842D01*
X043322D02*
X043502D01*
X043932D02*
X044102D01*
X037152Y047963D02*
X037202D01*
X038042D02*
X038092D01*
X038502D02*
X038552D01*
X038752D02*
X038952D01*
X039452D02*
X039612D01*
X040482D02*
X040652D01*
X040882D02*
X041062D01*
X041652D02*
X041832D01*
X042332D02*
X042502D01*
X042672D02*
X042842D01*
X043322D02*
X043492D01*
X043932D02*
X044112D01*
X037162Y047973D02*
X037212D01*
X038042D02*
X038092D01*
X038492D02*
X038552D01*
X038752D02*
X038952D01*
X039452D02*
X039612D01*
X040482D02*
X040652D01*
X040882D02*
X041052D01*
X041652D02*
X041832D01*
X042342D02*
X042502D01*
X042672D02*
X042832D01*
X043312D02*
X043492D01*
X043932D02*
X044112D01*
X037162Y047983D02*
X037212D01*
X038032D02*
X038092D01*
X038492D02*
X038562D01*
X038762D02*
X038962D01*
X039452D02*
X039612D01*
X040482D02*
X040652D01*
X040882D02*
X041052D01*
X041652D02*
X041832D01*
X042342D02*
X042502D01*
X042672D02*
X042832D01*
X043312D02*
X043492D01*
X043942D02*
X044112D01*
X037162Y047993D02*
X037212D01*
X038032D02*
X038082D01*
X038482D02*
X038562D01*
X038772D02*
X038972D01*
X039452D02*
X039612D01*
X040482D02*
X040652D01*
X040882D02*
X041052D01*
X041652D02*
X041832D01*
X042352D02*
X042512D01*
X042662D02*
X042822D01*
X043312D02*
X043482D01*
X043942D02*
X044122D01*
X037172Y048003D02*
X037222D01*
X038032D02*
X038082D01*
X038482D02*
X038572D01*
X038772D02*
X038972D01*
X039452D02*
X039612D01*
X040482D02*
X040652D01*
X040882D02*
X041052D01*
X041652D02*
X041832D01*
X042352D02*
X042512D01*
X042662D02*
X042822D01*
X043302D02*
X043482D01*
X043942D02*
X044122D01*
X037172Y048013D02*
X037232D01*
X038022D02*
X038072D01*
X038472D02*
X038582D01*
X038782D02*
X038982D01*
X039452D02*
X039612D01*
X040482D02*
X040652D01*
X040882D02*
X041052D01*
X041652D02*
X041832D01*
X042352D02*
X042512D01*
X042662D02*
X042822D01*
X043302D02*
X043482D01*
X043952D02*
X044132D01*
X037182Y048023D02*
X037232D01*
X038012D02*
X038072D01*
X038462D02*
X038582D01*
X038792D02*
X038992D01*
X039452D02*
X039612D01*
X040482D02*
X040652D01*
X040882D02*
X041052D01*
X041652D02*
X041832D01*
X042362D02*
X042522D01*
X042652D02*
X042812D01*
X043292D02*
X043472D01*
X043952D02*
X044132D01*
X037182Y048033D02*
X037242D01*
X038012D02*
X038062D01*
X038462D02*
X038592D01*
X038792D02*
X038992D01*
X039452D02*
X039612D01*
X040482D02*
X040652D01*
X040882D02*
X041052D01*
X041652D02*
X041832D01*
X042362D02*
X042522D01*
X042652D02*
X042812D01*
X043292D02*
X043472D01*
X043962D02*
X044132D01*
X037192Y048043D02*
X037242D01*
X038002D02*
X038062D01*
X038452D02*
X038602D01*
X038802D02*
X039002D01*
X039452D02*
X039612D01*
X040482D02*
X040652D01*
X040882D02*
X041052D01*
X041652D02*
X041832D01*
X042362D02*
X042522D01*
X042642D02*
X042802D01*
X043292D02*
X043472D01*
X043962D02*
X044142D01*
X037192Y048053D02*
X037252D01*
X038002D02*
X038052D01*
X038442D02*
X038602D01*
X038812D02*
X039012D01*
X039452D02*
X039612D01*
X040482D02*
X040652D01*
X040882D02*
X041052D01*
X041652D02*
X041832D01*
X042372D02*
X042532D01*
X042642D02*
X042802D01*
X043282D02*
X043462D01*
X043962D02*
X044142D01*
X037202Y048063D02*
X037262D01*
X037992D02*
X038052D01*
X038442D02*
X038612D01*
X038812D02*
X039012D01*
X039452D02*
X039612D01*
X040482D02*
X040652D01*
X040882D02*
X041062D01*
X041652D02*
X041832D01*
X042372D02*
X042532D01*
X042642D02*
X042802D01*
X043282D02*
X043462D01*
X043972D02*
X044142D01*
X037212Y048073D02*
X037262D01*
X037982D02*
X038042D01*
X038432D02*
X038612D01*
X038822D02*
X039022D01*
X039452D02*
X039612D01*
X040482D02*
X040652D01*
X040882D02*
X041062D01*
X041652D02*
X041832D01*
X042382D02*
X042542D01*
X042632D02*
X042792D01*
X043282D02*
X043462D01*
X043972D02*
X044152D01*
X037212Y048083D02*
X037272D01*
X037972D02*
X038032D01*
X038422D02*
X038622D01*
X038822D02*
X039022D01*
X040482D02*
X040652D01*
X040882D02*
X041062D01*
X041652D02*
X041832D01*
X042382D02*
X042542D01*
X042632D02*
X042792D01*
X043272D02*
X043452D01*
X043972D02*
X044152D01*
X037222Y048093D02*
X037282D01*
X037972D02*
X038022D01*
X038422D02*
X038622D01*
X038832D02*
X039032D01*
X040482D02*
X040652D01*
X040882D02*
X041062D01*
X041652D02*
X041832D01*
X042382D02*
X042542D01*
X042632D02*
X042792D01*
X043272D02*
X043452D01*
X043982D02*
X044152D01*
X037232Y048103D02*
X037292D01*
X037962D02*
X038022D01*
X038412D02*
X038612D01*
X038842D02*
X039042D01*
X040482D02*
X040652D01*
X040892D02*
X041062D01*
X041652D02*
X041832D01*
X042392D02*
X042552D01*
X042622D02*
X042782D01*
X043272D02*
X043452D01*
X043982D02*
X044162D01*
X037242Y048113D02*
X037302D01*
X037952D02*
X038012D01*
X038402D02*
X038612D01*
X038842D02*
X039042D01*
X040482D02*
X040652D01*
X040892D02*
X041072D01*
X041652D02*
X041832D01*
X042392D02*
X042552D01*
X042622D02*
X042782D01*
X043262D02*
X043442D01*
X043982D02*
X044162D01*
X037242Y048123D02*
X037312D01*
X037942D02*
X038002D01*
X038402D02*
X038602D01*
X038852D02*
X039052D01*
X040482D02*
X040652D01*
X040892D02*
X041072D01*
X041652D02*
X041832D01*
X042402D02*
X042552D01*
X042622D02*
X042772D01*
X043262D02*
X043442D01*
X043992D02*
X044172D01*
X037252Y048133D02*
X037322D01*
X037572D02*
X037672D01*
X037932D02*
X037992D01*
X038392D02*
X038592D01*
X038862D02*
X039062D01*
X040482D02*
X040652D01*
X040892D02*
X041072D01*
X041652D02*
X041832D01*
X042402D02*
X042562D01*
X042612D02*
X042772D01*
X043252D02*
X043442D01*
X043992D02*
X044172D01*
X037262Y048143D02*
X037332D01*
X037552D02*
X037692D01*
X037912D02*
X037982D01*
X038392D02*
X038592D01*
X038862D02*
X039062D01*
X040482D02*
X040652D01*
X040902D02*
X041082D01*
X041652D02*
X041832D01*
X042402D02*
X042562D01*
X042612D02*
X042772D01*
X043252D02*
X043432D01*
X043992D02*
X044172D01*
X037272Y048153D02*
X037342D01*
X037542D02*
X037712D01*
X037902D02*
X037972D01*
X038382D02*
X038582D01*
X038872D02*
X039072D01*
X040482D02*
X040652D01*
X040902D02*
X041092D01*
X041652D02*
X041832D01*
X042412D02*
X042562D01*
X042602D02*
X042762D01*
X043252D02*
X043432D01*
X044002D02*
X044182D01*
X037282Y048163D02*
X037362D01*
X037522D02*
X037722D01*
X037892D02*
X037962D01*
X038372D02*
X038582D01*
X038882D02*
X039082D01*
X040482D02*
X040652D01*
X040902D02*
X041092D01*
X041652D02*
X041832D01*
X042412D02*
X042572D01*
X042602D02*
X042762D01*
X043242D02*
X043422D01*
X044002D02*
X044182D01*
X037292Y048173D02*
X037372D01*
X037512D02*
X037732D01*
X037882D02*
X037952D01*
X038372D02*
X038572D01*
X038882D02*
X039082D01*
X040482D02*
X040652D01*
X040912D02*
X041102D01*
X041652D02*
X041832D01*
X042412D02*
X042572D01*
X042602D02*
X042762D01*
X043242D02*
X043422D01*
X044002D02*
X044182D01*
X037312Y048183D02*
X037392D01*
X037502D02*
X037742D01*
X037862D02*
X037942D01*
X038362D02*
X038562D01*
X038892D02*
X039092D01*
X040482D02*
X040652D01*
X040912D02*
X041102D01*
X041652D02*
X041832D01*
X042422D02*
X042582D01*
X042592D02*
X042752D01*
X043242D02*
X043422D01*
X044012D02*
X044192D01*
X037322Y048193D02*
X037402D01*
X037502D02*
X037752D01*
X037842D02*
X037932D01*
X038352D02*
X038562D01*
X038892D02*
X039102D01*
X040482D02*
X040652D01*
X040912D02*
X041112D01*
X041652D02*
X041832D01*
X042422D02*
X042582D01*
X042592D02*
X042752D01*
X043232D02*
X043412D01*
X044012D02*
X044192D01*
X037332Y048203D02*
X037422D01*
X037492D02*
X037752D01*
X037822D02*
X037912D01*
X038352D02*
X038552D01*
X038902D02*
X039102D01*
X040482D02*
X040652D01*
X040922D02*
X041122D01*
X041652D02*
X041832D01*
X042432D02*
X042742D01*
X043232D02*
X043412D01*
X044012D02*
X044202D01*
X037352Y048213D02*
X037442D01*
X037492D02*
X037762D01*
X037802D02*
X037902D01*
X038342D02*
X038542D01*
X038912D02*
X039112D01*
X040482D02*
X040652D01*
X040932D02*
X041132D01*
X041652D02*
X041832D01*
X042432D02*
X042742D01*
X043222D02*
X043412D01*
X044022D02*
X044202D01*
X037362Y048223D02*
X037472D01*
X037482D02*
X037762D01*
X037782D02*
X037882D01*
X038332D02*
X038542D01*
X038912D02*
X039112D01*
X040482D02*
X040652D01*
X040932D02*
X041152D01*
X041652D02*
X041832D01*
X042432D02*
X042742D01*
X043222D02*
X043402D01*
X044022D02*
X044202D01*
X037382Y048233D02*
X037872D01*
X038332D02*
X038532D01*
X038922D02*
X039122D01*
X040482D02*
X040652D01*
X040942D02*
X041162D01*
X041652D02*
X041832D01*
X042442D02*
X042732D01*
X043222D02*
X043402D01*
X044022D02*
X044212D01*
X037402Y048243D02*
X037852D01*
X038322D02*
X038532D01*
X038932D02*
X039132D01*
X040482D02*
X040652D01*
X040942D02*
X041182D01*
X041652D02*
X041832D01*
X042442D02*
X042732D01*
X043212D02*
X043402D01*
X044032D02*
X044212D01*
X037422Y048253D02*
X037832D01*
X038322D02*
X038522D01*
X038932D02*
X039132D01*
X039492D02*
X039562D01*
X040482D02*
X040652D01*
X040952D02*
X041202D01*
X041652D02*
X041832D01*
X042452D02*
X042722D01*
X043212D02*
X043392D01*
X044032D02*
X044212D01*
X037442Y048263D02*
X037802D01*
X038312D02*
X038512D01*
X038942D02*
X039142D01*
X039472D02*
X039592D01*
X040482D02*
X040652D01*
X040962D02*
X041232D01*
X041652D02*
X041832D01*
X042452D02*
X042722D01*
X043212D02*
X043392D01*
X044032D02*
X044222D01*
X037472Y048273D02*
X037782D01*
X038302D02*
X038512D01*
X038952D02*
X039152D01*
X039462D02*
X039602D01*
X040482D02*
X040652D01*
X040972D02*
X041272D01*
X041652D02*
X041832D01*
X042452D02*
X042722D01*
X043202D02*
X043392D01*
X044042D02*
X044222D01*
X037472Y048283D02*
X037772D01*
X038302D02*
X038502D01*
X038952D02*
X039152D01*
X039452D02*
X039612D01*
X039832D02*
X040652D01*
X040972D02*
X041832D01*
X042462D02*
X042712D01*
X043202D02*
X043382D01*
X044042D02*
X044232D01*
X037472Y048293D02*
X037772D01*
X038292D02*
X038492D01*
X038962D02*
X039162D01*
X039442D02*
X039612D01*
X039832D02*
X040652D01*
X040982D02*
X041832D01*
X042462D02*
X042712D01*
X043192D02*
X043382D01*
X044052D02*
X044232D01*
X037482Y048303D02*
X037772D01*
X038282D02*
X038492D01*
X038962D02*
X039172D01*
X039442D02*
X039622D01*
X039832D02*
X040652D01*
X040992D02*
X041832D01*
X042462D02*
X042712D01*
X043192D02*
X043382D01*
X044052D02*
X044232D01*
X037482Y048313D02*
X037772D01*
X038282D02*
X038482D01*
X038972D02*
X039172D01*
X039432D02*
X039622D01*
X039832D02*
X040652D01*
X041002D02*
X041832D01*
X042472D02*
X042702D01*
X043192D02*
X043372D01*
X044052D02*
X044242D01*
X037482Y048323D02*
X037762D01*
X038272D02*
X038482D01*
X038982D02*
X039182D01*
X039432D02*
X039622D01*
X039832D02*
X040652D01*
X041022D02*
X041832D01*
X042472D02*
X042702D01*
X043182D02*
X043372D01*
X044062D02*
X044242D01*
X037492Y048333D02*
X037762D01*
X038262D02*
X038472D01*
X038982D02*
X039182D01*
X039432D02*
X039622D01*
X039832D02*
X040652D01*
X041032D02*
X041832D01*
X042482D02*
X042692D01*
X043182D02*
X043372D01*
X044062D02*
X044242D01*
X037492Y048343D02*
X037752D01*
X038262D02*
X038462D01*
X038992D02*
X039192D01*
X039432D02*
X039632D01*
X039832D02*
X040652D01*
X041042D02*
X041832D01*
X042482D02*
X042692D01*
X043182D02*
X043362D01*
X044062D02*
X044252D01*
X037502Y048353D02*
X037752D01*
X038252D02*
X038462D01*
X039002D02*
X039202D01*
X039432D02*
X039622D01*
X039832D02*
X040652D01*
X041062D02*
X041832D01*
X042482D02*
X042692D01*
X043172D02*
X043362D01*
X044072D02*
X044252D01*
X037502Y048363D02*
X037742D01*
X038242D02*
X038452D01*
X039002D02*
X039202D01*
X039432D02*
X039622D01*
X039832D02*
X040652D01*
X041082D02*
X041832D01*
X042492D02*
X042682D01*
X043172D02*
X043362D01*
X044072D02*
X044262D01*
X037512Y048373D02*
X037732D01*
X038242D02*
X038442D01*
X039012D02*
X039212D01*
X039432D02*
X039622D01*
X039832D02*
X040652D01*
X041102D02*
X041832D01*
X042492D02*
X042682D01*
X043162D02*
X043352D01*
X044072D02*
X044262D01*
X037522Y048383D02*
X037722D01*
X038232D02*
X038442D01*
X039022D02*
X039222D01*
X039442D02*
X039622D01*
X039832D02*
X040652D01*
X041122D02*
X041832D01*
X042502D02*
X042672D01*
X043162D02*
X043352D01*
X044082D02*
X044262D01*
X037532Y048393D02*
X037712D01*
X038232D02*
X038432D01*
X039022D02*
X039222D01*
X039442D02*
X039612D01*
X039832D02*
X040652D01*
X041152D02*
X041832D01*
X042502D02*
X042672D01*
X043162D02*
X043342D01*
X044082D02*
X044272D01*
X037552Y048403D02*
X037702D01*
X038222D02*
X038432D01*
X039032D02*
X039232D01*
X039452D02*
X039612D01*
X039832D02*
X040652D01*
X041192D02*
X041832D01*
X042502D02*
X042672D01*
X043152D02*
X043342D01*
X044082D02*
X044272D01*
X037572Y048413D02*
X037672D01*
X038212D02*
X038422D01*
X039032D02*
X039242D01*
X039462D02*
X039602D01*
X039832D02*
X040652D01*
X041242D02*
X041832D01*
X042512D02*
X042662D01*
X043152D02*
X043342D01*
X044092D02*
X044272D01*
X038212Y048423D02*
X038412D01*
X039472D02*
X039592D01*
X039492Y048433D02*
X039562D01*
M02*