%FSTAX24Y24*%
%MOIN*%
%SFA1B1*%

%IPPOS*%
%AMD42*
4,1,8,-0.016700,-0.068900,0.016700,-0.068900,0.033400,-0.052200,0.033400,0.052200,0.016700,0.068900,-0.016700,0.068900,-0.033400,0.052200,-0.033400,-0.052200,-0.016700,-0.068900,0.0*
1,1,0.033400,-0.016700,-0.052200*
1,1,0.033400,0.016700,-0.052200*
1,1,0.033400,0.016700,0.052200*
1,1,0.033400,-0.016700,0.052200*
%
%AMD43*
4,1,8,0.068900,-0.016700,0.068900,0.016700,0.052200,0.033400,-0.052200,0.033400,-0.068900,0.016700,-0.068900,-0.016700,-0.052200,-0.033400,0.052200,-0.033400,0.068900,-0.016700,0.0*
1,1,0.033400,0.052200,-0.016700*
1,1,0.033400,0.052200,0.016700*
1,1,0.033400,-0.052200,0.016700*
1,1,0.033400,-0.052200,-0.016700*
%
%ADD10R,0.031500X0.029500*%
%ADD11C,0.039400*%
%ADD12R,0.029500X0.031500*%
%ADD13R,0.043300X0.078700*%
%ADD14R,0.031500X0.031500*%
%ADD15R,0.035400X0.027600*%
%ADD16R,0.031500X0.031500*%
%ADD17R,0.078700X0.043300*%
%ADD18R,0.051200X0.059100*%
%ADD19O,0.066900X0.011800*%
%ADD20R,0.047200X0.098400*%
%ADD21R,0.061000X0.051200*%
%ADD22R,0.150000X0.050000*%
%ADD23R,0.027600X0.011800*%
%ADD24R,0.039400X0.037300*%
%ADD25R,0.039400X0.037200*%
%ADD26R,0.011800X0.027600*%
%ADD27R,0.037300X0.039400*%
%ADD28R,0.037200X0.039400*%
%ADD29R,0.015700X0.007900*%
%ADD30R,0.019700X0.019700*%
%ADD31R,0.039400X0.039400*%
%ADD32R,0.007900X0.025600*%
%ADD33C,0.010000*%
%ADD34C,0.019700*%
%ADD35C,0.039400*%
%ADD36C,0.007900*%
%ADD37C,0.011800*%
%ADD38C,0.008000*%
%ADD39C,0.051200*%
%ADD40R,0.078700X0.078700*%
%ADD41C,0.078700*%
G04~CAMADD=42~8~0.0~0.0~669.0~1378.0~167.0~0.0~15~0.0~0.0~0.0~0.0~0~0.0~0.0~0.0~0.0~0~0.0~0.0~0.0~180.0~668.0~1377.0*
%ADD42D42*%
G04~CAMADD=43~8~0.0~0.0~669.0~1378.0~167.0~0.0~15~0.0~0.0~0.0~0.0~0~0.0~0.0~0.0~0.0~0~0.0~0.0~0.0~270.0~1378.0~668.0*
%ADD43D43*%
%ADD44C,0.031500*%
%ADD45C,0.027600*%
%ADD46C,0.019700*%
%LNvapeixshield-1*%
%LPD*%
G36*
X000429Y020936D02*
X000471D01*
X025679*
X026269Y020346*
Y015604*
X026279Y015553*
X026307Y015511*
X027419Y014399*
Y002615*
X026306Y001503*
X026278Y00146*
X026268Y00141*
Y000429*
X02624Y000362*
X026162Y00026*
X02606Y000182*
X026027Y000168*
X000577*
X000569*
X00052Y00017*
X000494Y000171*
X000445Y000175*
X000407Y000179*
X000375Y000187*
X00035Y000195*
X000315Y000202*
X000234Y000256*
X00018Y000337*
X000162Y000429*
X000163Y000436*
X000164Y000445*
Y000452*
X000163Y000456*
Y020708*
X000164*
X000179Y020784*
X000233Y020865*
X000314Y020919*
X000374Y020932*
X000422Y020936*
X000429*
G37*
%LNvapeixshield-2*%
%LPC*%
G36*
X015436Y020532D02*
X015313Y020515D01*
X015198Y020468*
X015099Y020392*
X015024Y020293*
X014978Y020183*
X014966Y020178*
X014938*
X014926Y020183*
X01488Y020293*
X014805Y020392*
X014706Y020468*
X014591Y020515*
X014468Y020532*
X014344Y020515*
X014229Y020468*
X014131Y020392*
X014055Y020293*
X014007Y020178*
X014001Y020128*
X01395*
X013944Y020178*
X013896Y020293*
X01382Y020392*
X013722Y020468*
X013607Y020515*
X013483Y020532*
X01336Y020515*
X013245Y020468*
X013147Y020392*
X013071Y020293*
X013023Y020178*
X013007Y020055*
X013023Y019932*
X013071Y019817*
X013147Y019718*
X013245Y019642*
X01336Y019595*
X013483Y019579*
X013607Y019595*
X013722Y019642*
X01382Y019718*
X013896Y019817*
X013944Y019932*
X01395Y019982*
X014001*
X014007Y019932*
X014055Y019817*
X014131Y019718*
X014229Y019642*
X014344Y019595*
X014468Y019579*
X014591Y019595*
X014706Y019642*
X014805Y019718*
X01488Y019817*
X014926Y019927*
X014938Y019932*
X014966*
X014978Y019927*
X015024Y019817*
X015099Y019718*
X015198Y019642*
X015296Y019602*
Y016792*
X014078Y015574*
X014028Y015595*
Y015648*
X01384*
Y015539*
X013972*
X013992Y015489*
X012188Y013684*
X012157Y013638*
X012147Y013585*
Y012021*
X012033Y011907*
X011258*
X011215Y011963*
X011158Y012008*
X011091Y012035*
X011019Y012045*
X010947Y012035*
X01088Y012008*
X010822Y011963*
X010779Y011907*
X010594*
X01044Y012061*
Y012916*
X010448Y012963*
X01085*
X010881*
X010899Y012964*
X011173*
Y012963*
X011606*
Y013452*
X011627*
Y013562*
X01139*
Y013662*
X011627*
Y013707*
Y013817*
X01139*
Y013917*
X011627*
Y014026*
X011472*
X011225*
Y013739*
X011125*
Y014026*
X010878*
Y014004*
X010678*
X010665Y014007*
X009658*
Y01414*
X009206*
Y013667*
X009658*
Y013726*
X009957*
Y013483*
X009907Y013468*
X009906Y013469*
X009834Y013517*
X00975Y013534*
X009708Y013526*
X009658Y013549*
X009206*
Y013077*
X009658*
X009708Y0131*
X00975Y013092*
X009834Y013109*
X009906Y013157*
X009907Y013158*
X009957Y013143*
Y012538*
X009907Y012523*
X009906Y012524*
X009834Y012572*
X00975Y012589*
X009708Y012581*
X009658Y012604*
X009206*
Y012132*
X009658*
X009708Y012156*
X00975Y012147*
X009834Y012164*
X009906Y012212*
X009907Y012214*
X009957Y012198*
Y011945*
X009907Y011912*
X009877Y011918*
X009658*
Y012014*
X009206*
Y011541*
X009658*
Y011637*
X009819*
X009957Y011499*
Y011357*
X009907Y011342*
X009906Y011343*
X009834Y011391*
X00975Y011408*
X009708Y0114*
X009658Y011423*
X009206*
Y010951*
X009658*
X009708Y010974*
X00975Y010966*
X009834Y010983*
X009906Y011031*
X009907Y011032*
X009957Y011017*
Y010887*
X007178*
X007124Y010876*
X007078Y010845*
X006673Y01044*
X006642Y010394*
X006632Y010341*
Y008678*
X006642Y008624*
X006673Y008579*
X006839Y008413*
X006835Y008394*
X006852Y00831*
X0069Y008238*
X006971Y00819*
X007056Y008173*
X007085Y008128*
X007068Y008103*
X007057Y008049*
Y007956*
X006942*
Y007523*
Y00713*
X007057*
Y007117*
X007068Y007063*
X007098Y007018*
X007201Y006914*
X007247Y006884*
X007301Y006873*
X008674*
Y006778*
X009127*
Y00725*
X008674*
Y007154*
X008044*
Y007206*
X008401*
X008454Y007217*
X0085Y007247*
X008637Y007384*
X008674Y007368*
X009127*
Y007841*
X008674*
Y007745*
X008659*
X008605Y007734*
X008559Y007704*
X008343Y007487*
X008201*
X008187Y007533*
X008188Y007537*
X008257Y007583*
X008305Y007655*
X008322Y007739*
X008305Y007824*
X008257Y007896*
X008186Y007943*
X008101Y00796*
X008051Y00795*
X008044Y007956*
X007532*
Y007523*
Y007154*
X007454*
Y007523*
Y007956*
X007374*
X007353Y008006*
X007401Y008054*
X008674*
Y007959*
X009127*
Y008431*
X008674*
Y008335*
X007343*
X007315Y00833*
X007272Y008368*
X007277Y008394*
X00726Y008479*
X007212Y00855*
X00714Y008598*
X007056Y008615*
X007037Y008611*
X006913Y008736*
Y009217*
X006942Y009255*
X006963*
X007059*
X007068Y009212*
X007098Y009167*
X007225Y00904*
X00727Y00901*
X007324Y008999*
X008674*
Y008904*
X009127*
Y009376*
X008674*
Y00928*
X008044*
Y009331*
X008376*
X00843Y009341*
X008476Y009372*
X008628Y009524*
X008674Y009505*
Y009494*
X009127*
Y009967*
X008674*
Y009871*
X008635*
X008582Y00986*
X008536Y00983*
X008318Y009612*
X008202*
X008187Y009658*
X008188Y009662*
X008257Y009708*
X008305Y00978*
X008322Y009864*
X008305Y009949*
X008257Y01002*
X008186Y010068*
X008101Y010085*
X008051Y010075*
X008044Y010081*
X007532*
Y009648*
Y00928*
X007454*
Y009648*
Y010081*
X007338*
Y01014*
X007378Y01018*
X008674*
Y010085*
X009127*
Y010556*
Y010557*
X00913Y010606*
X009202*
X009206Y010557*
Y010085*
X009658*
X009708Y010108*
X00975Y0101*
X009834Y010117*
X009906Y010165*
X009907Y010166*
X009957Y010151*
Y010019*
X009809Y009871*
X009658*
Y009967*
X009206*
Y009494*
X009658*
Y00959*
X009867*
X009908Y009598*
X009911Y009595*
X009935Y009554*
X009893Y009492*
X009876Y009408*
X009893Y009323*
X009919Y009284*
X009883Y009248*
X009851Y00927*
X009798Y00928*
X009658*
Y009376*
X009206*
Y008904*
X009658*
Y008999*
X009739*
X009997Y008741*
Y008297*
X009994Y008296*
X009947Y008289*
X009906Y008351*
X009834Y008399*
X00975Y008416*
X009708Y008407*
X009658Y008431*
X009206*
Y007959*
X009658*
X009708Y007982*
X00975Y007974*
X009834Y007991*
X009906Y008039*
X009947Y008101*
X009994Y008094*
X009997Y008093*
Y008033*
X009982Y008023*
X009934Y007951*
X009917Y007867*
X009929Y007805*
X009884Y007775*
X009834Y007808*
X00975Y007825*
X009708Y007817*
X009658Y007841*
X009206*
Y007368*
X009658*
X009708Y007392*
X00975Y007384*
X009834Y0074*
X009906Y007448*
X009947Y00751*
X009994Y007503*
X009997Y007502*
Y007439*
X009713Y007154*
X009658*
Y00725*
X009206*
Y006778*
X009658*
Y006873*
X009771*
X009825Y006884*
X009871Y006914*
X010237Y007281*
X010268Y007327*
X010278Y00738*
Y0077*
X010294Y007711*
X010342Y007782*
X010359Y007867*
X010342Y007951*
X010294Y008023*
X010278Y008033*
Y008164*
X010448*
Y00791*
X010524*
Y007831*
X010508Y00782*
X010461Y007749*
X010444Y007664*
X010461Y00758*
X010508Y007508*
X010554Y007478*
X010565Y007461*
X010832Y007194*
X010823Y007124*
X010833Y007052*
X01086Y006985*
X010905Y006927*
X010962Y006883*
X011029Y006855*
X011101Y006846*
X011173Y006855*
X01124Y006883*
X011298Y006927*
X011342Y006985*
X01137Y007052*
X011379Y007124*
X01137Y007196*
X011342Y007263*
X011298Y00732*
X01124Y007364*
X011173Y007392*
X011101Y007402*
X011031Y007392*
X010859Y007565*
X010869Y00758*
X010885Y007664*
X010869Y007749*
X010821Y00782*
X010805Y007831*
Y00791*
X010878*
Y007891*
X011152*
Y007889*
X01134*
Y008048*
X01139*
Y008098*
X011627*
Y008145*
Y008254*
X01139*
Y008354*
X011627*
Y0084*
Y008509*
X01139*
Y008609*
X011627*
Y008655*
Y008764*
X01139*
Y008864*
X011627*
Y008973*
X011472*
X011225*
Y008687*
X011125*
Y008973*
X010878*
Y008952*
X010805*
Y009038*
X010821Y009049*
X010869Y00912*
X010885Y009205*
X010869Y009289*
X010821Y009361*
X010749Y009409*
X010665Y009426*
X01058Y009409*
X010531Y009376*
X010481Y009403*
Y009836*
X010588Y009943*
X010779*
X010822Y009887*
X01088Y009843*
X010947Y009815*
X011019Y009805*
X011091Y009815*
X011158Y009843*
X011215Y009887*
X01126Y009944*
X011287Y010012*
X011297Y010083*
X011287Y010155*
X01126Y010222*
X011215Y01028*
X011158Y010324*
X011091Y010352*
X011019Y010361*
X010947Y010352*
X01088Y010324*
X010822Y01028*
X010779Y010224*
X01053*
X010476Y010213*
X01043Y010183*
X010288Y01004*
X010238Y010061*
Y010746*
Y011557*
Y011801*
X010284Y011821*
X010437Y011668*
X010482Y011637*
X010536Y011626*
X010779*
X010822Y01157*
X01088Y011526*
X010947Y011498*
X011019Y011489*
X011091Y011498*
X011158Y011526*
X011215Y01157*
X011258Y011626*
X012091*
X012145Y011637*
X012191Y011668*
X012386Y011863*
X012398Y011881*
X012448Y011866*
Y011384*
X012376*
Y011404*
X012102*
Y011406*
X011914*
Y011247*
X011864*
Y011197*
X011626*
Y011088*
Y011041*
X011864*
Y010941*
X011626*
Y010832*
Y010786*
X011864*
Y010686*
X011626*
Y010577*
Y010531*
X011864*
Y010431*
X011626*
Y010322*
X011782*
Y010321*
X012029*
Y010608*
X012129*
Y010321*
X012376*
X012419Y010305*
Y009298*
X01243Y009244*
X01246Y009198*
X012796Y008862*
X012842Y008832*
X012895Y008821*
X013398*
Y008744*
X013851*
Y009216*
X013398*
Y009102*
X012953*
X012758Y009297*
X012783Y009344*
X012855Y009329*
X012947Y009348*
X013025Y0094*
X013045Y00943*
X013398*
Y009334*
X013851*
Y009807*
X013398*
Y009711*
X013045*
X013025Y00974*
X012947Y009793*
X012855Y009811*
X012763Y009793*
X012744Y00978*
X0127Y009804*
Y009927*
X012744Y009951*
X012763Y009939*
X012855Y00992*
X012947Y009939*
X013025Y009991*
X013045Y010021*
X013398*
Y009925*
X013851*
Y010397*
X013581*
X013562Y010443*
X013724Y010606*
X013755Y010651*
X013765Y010705*
Y010909*
X013851*
Y011381*
X013398*
Y011009*
X01336Y010994*
X013348Y010992*
X013279Y011039*
X013194Y011056*
X01311Y011039*
X013076Y011016*
X013031Y011046*
X013036Y01107*
Y011521*
X013086Y011548*
X01311Y011532*
X013194Y011515*
X013279Y011532*
X013348Y011579*
X013359Y011576*
X013398Y011562*
Y0115*
X013851*
Y011972*
X013398*
Y01191*
X013359Y011895*
X013348Y011893*
X013279Y01194*
X013194Y011957*
X01311Y01194*
X013086Y011924*
X013036Y011951*
Y013283*
X013647Y013895*
X013666Y013891*
X01375Y013908*
X013822Y013956*
X013832Y013971*
X013891*
X013931Y013932*
Y01344*
X013525Y013035*
X013495Y012989*
X013484Y012935*
Y012563*
X013398*
Y01209*
X013851*
Y012563*
X013765*
Y012877*
X014171Y013283*
X014201Y013328*
X014212Y013382*
Y01399*
X014201Y014044*
X014171Y014089*
X014049Y014211*
X014003Y014242*
X01395Y014252*
X013832*
X013822Y014268*
X01375Y014316*
X013703Y014325*
X013686Y01438*
X01491Y015604*
X016533*
X016555Y015559*
X016547Y015548*
X01652Y015481*
X01651Y015409*
Y014112*
X01652Y01404*
X016547Y013973*
X016592Y013915*
X016649Y013871*
X016716Y013843*
X016788Y013834*
X01686Y013843*
X016927Y013871*
X016985Y013915*
X017029Y013973*
X017057Y01404*
X017066Y014112*
Y015409*
X017057Y015481*
X017029Y015548*
X017021Y015559*
X017043Y015604*
X018753*
X018807Y015614*
X018852Y015645*
X020167Y01696*
X020198Y017005*
X020208Y017059*
Y019602*
X020306Y019642*
X020405Y019718*
X02048Y019817*
X020528Y019932*
X02054Y020019*
X020542Y020042*
X020593*
X020596Y020019*
X020607Y019932*
X020655Y019817*
X020731Y019718*
X020829Y019642*
X020944Y019595*
X021068Y019578*
X021191Y019595*
X021306Y019642*
X021405Y019718*
X02148Y019817*
X021528Y019932*
X021544Y020055*
X021528Y020178*
X02148Y020293*
X021405Y020392*
X021306Y020468*
X021191Y020515*
X021068Y020532*
X020944Y020515*
X020829Y020468*
X020731Y020392*
X020655Y020293*
X020607Y020178*
X020596Y020091*
X020593Y020068*
X020542*
X02054Y020091*
X020528Y020178*
X02048Y020293*
X020405Y020392*
X020306Y020468*
X020191Y020515*
X020068Y020532*
X019944Y020515*
X019829Y020468*
X019731Y020392*
X019655Y020293*
X019607Y020178*
X019596Y020091*
X019593Y020068*
X019542*
X01954Y020091*
X019528Y020178*
X01948Y020293*
X019405Y020392*
X019306Y020468*
X019191Y020515*
X019068Y020532*
X018944Y020515*
X018829Y020468*
X018731Y020392*
X018655Y020293*
X018607Y020178*
X018596Y020091*
X018593Y020068*
X018542*
X01854Y020091*
X018528Y020178*
X01848Y020293*
X018405Y020392*
X018306Y020468*
X018191Y020515*
X018068Y020532*
X017944Y020515*
X017829Y020468*
X017731Y020392*
X017655Y020293*
X017607Y020178*
X017591Y020055*
X017607Y019932*
X017655Y019817*
X017731Y019718*
X017829Y019642*
X017944Y019595*
X018068Y019578*
X018191Y019595*
X018306Y019642*
X018405Y019718*
X01848Y019817*
X018528Y019932*
X01854Y020019*
X018542Y020042*
X018593*
X018596Y020019*
X018607Y019932*
X018655Y019817*
X018731Y019718*
X018829Y019642*
X018944Y019595*
X019068Y019578*
X019191Y019595*
X019306Y019642*
X019405Y019718*
X01948Y019817*
X019528Y019932*
X01954Y020019*
X019542Y020042*
X019593*
X019596Y020019*
X019607Y019932*
X019655Y019817*
X019731Y019718*
X019829Y019642*
X019927Y019602*
Y017117*
X018695Y015885*
X014856*
X014848Y015895*
X014833Y015932*
X015536Y016635*
X015566Y01668*
X015577Y016734*
Y019602*
X015674Y019642*
X015773Y019718*
X015849Y019817*
X015897Y019932*
X015913Y020055*
X015897Y020178*
X015849Y020293*
X015773Y020392*
X015674Y020468*
X01556Y020515*
X015436Y020532*
G37*
G36*
X024036D02*
X023913Y020515D01*
X023798Y020468*
X023699Y020392*
X023624Y020293*
X023578Y020183*
X023565Y020178*
X023538*
X023526Y020183*
X02348Y020293*
X023405Y020392*
X023306Y020468*
X023191Y020515*
X023068Y020532*
X022944Y020515*
X022829Y020468*
X022731Y020392*
X022655Y020293*
X022607Y020178*
X022601Y020128*
X02255*
X022544Y020178*
X022496Y020293*
X02242Y020392*
X022322Y020468*
X022207Y020515*
X022083Y020532*
X02196Y020515*
X021845Y020468*
X021746Y020392*
X021671Y020293*
X021623Y020178*
X021607Y020055*
X021623Y019932*
X021671Y019817*
X021746Y019718*
X021845Y019642*
X02196Y019595*
X022083Y019578*
X022207Y019595*
X022322Y019642*
X02242Y019718*
X022496Y019817*
X022544Y019932*
X02255Y019982*
X022601*
X022607Y019932*
X022655Y019817*
X022731Y019718*
X022829Y019642*
X022944Y019595*
X023068Y019578*
X023191Y019595*
X023306Y019642*
X023405Y019718*
X02348Y019817*
X023526Y019927*
X023538Y019932*
X023565*
X023578Y019927*
X023624Y019817*
X023699Y019718*
X023798Y019642*
X023913Y019595*
X024036Y019578*
X02416Y019595*
X024274Y019642*
X024373Y019718*
X024449Y019817*
X024496Y019932*
X024513Y020055*
X024496Y020178*
X024449Y020293*
X024373Y020392*
X024274Y020468*
X02416Y020515*
X024036Y020532*
G37*
G36*
X010418Y020547D02*
X010339Y020536D01*
X010219Y020486*
X010116Y020407*
X010036Y020304*
X009987Y020184*
X009982Y02015*
X009932*
X009928Y020178*
X00988Y020293*
X009805Y020392*
X009706Y020468*
X009591Y020515*
X009468Y020532*
X009344Y020515*
X009229Y020468*
X009131Y020392*
X009055Y020293*
X009007Y020178*
X008996Y020091*
X008993Y020068*
X008942*
X00894Y020091*
X008928Y020178*
X00888Y020293*
X008805Y020392*
X008706Y020468*
X008591Y020515*
X008468Y020532*
X008344Y020515*
X008229Y020468*
X008131Y020392*
X008055Y020293*
X008007Y020178*
X007996Y020091*
X007993Y020068*
X007943*
X00794Y020091*
X007928Y020178*
X00788Y020293*
X007805Y020392*
X007706Y020468*
X007591Y020515*
X007468Y020532*
X007344Y020515*
X007229Y020468*
X007131Y020392*
X007055Y020293*
X007007Y020178*
X006991Y020055*
X007007Y019932*
X007055Y019817*
X007131Y019718*
X007229Y019642*
X007344Y019595*
X007468Y019579*
X007591Y019595*
X007706Y019642*
X007805Y019718*
X00788Y019817*
X007928Y019932*
X00794Y02002*
X007943Y020042*
X007993*
X007996Y02002*
X008007Y019932*
X008055Y019817*
X008131Y019718*
X008229Y019642*
X008344Y019595*
X008468Y019579*
X008591Y019595*
X008706Y019642*
X008805Y019718*
X00888Y019817*
X008928Y019932*
X00894Y02002*
X008942Y020042*
X008993*
X008996Y02002*
X009007Y019932*
X009055Y019817*
X009131Y019718*
X009229Y019642*
X009344Y019595*
X009468Y019579*
X009591Y019595*
X009706Y019642*
X009805Y019718*
X00988Y019817*
X009928Y019932*
X009932Y019961*
X009982*
X009987Y019926*
X010036Y019806*
X010116Y019703*
X010219Y019624*
X010339Y019574*
X010418Y019564*
Y020055*
Y020547*
G37*
G36*
X003468Y020611D02*
X003182D01*
Y020069*
X003468*
Y020611*
G37*
G36*
X003081D02*
X002795D01*
Y020069*
X003081*
Y020611*
G37*
G36*
X016909Y020528D02*
X015964D01*
Y019583*
X016909*
Y020528*
G37*
G36*
X025509Y020527D02*
X024564D01*
Y019583*
X025509*
Y020527*
G37*
G36*
X010518Y020547D02*
Y020055D01*
Y019564*
X010597Y019574*
X010717Y019624*
X01082Y019703*
X010899Y019806*
X010949Y019926*
X010953Y019961*
X011004*
X011007Y019932*
X011055Y019817*
X011131Y019718*
X011229Y019642*
X011344Y019595*
X011468Y019579*
X011591Y019595*
X011706Y019642*
X011805Y019718*
X01188Y019817*
X011928Y019932*
X01194Y02002*
X011942Y020042*
X011993*
X011996Y02002*
X012007Y019932*
X012055Y019817*
X012131Y019718*
X012229Y019642*
X012344Y019595*
X012468Y019579*
X012591Y019595*
X012706Y019642*
X012805Y019718*
X01288Y019817*
X012928Y019932*
X012944Y020055*
X012928Y020178*
X01288Y020293*
X012805Y020392*
X012706Y020468*
X012591Y020515*
X012468Y020532*
X012344Y020515*
X012229Y020468*
X012131Y020392*
X012055Y020293*
X012007Y020178*
X011996Y020091*
X011993Y020068*
X011942*
X01194Y020091*
X011928Y020178*
X01188Y020293*
X011805Y020392*
X011706Y020468*
X011591Y020515*
X011468Y020532*
X011344Y020515*
X011229Y020468*
X011131Y020392*
X011055Y020293*
X011007Y020178*
X011004Y02015*
X010953*
X010949Y020184*
X010899Y020304*
X01082Y020407*
X010717Y020486*
X010597Y020536*
X010518Y020547*
G37*
G36*
X004431Y020589D02*
X003801D01*
Y019448*
X004431*
Y020589*
G37*
G36*
X002462D02*
X001832D01*
Y020199*
X001811*
X001742Y020185*
X001683Y020146*
X001332Y019795*
X001293Y019736*
X001279Y019667*
Y014031*
X001293Y013962*
X001332Y013903*
X001894Y013341*
X001953Y013302*
X002022Y013288*
X002485*
X00253Y01323*
X0026Y013176*
X002681Y013142*
X002768Y013131*
X002856Y013142*
X002937Y013176*
X003007Y01323*
X003061Y0133*
X003094Y013381*
X003106Y013469*
X003094Y013556*
X003061Y013637*
X003007Y013707*
X002937Y013761*
X002856Y013795*
X002768Y013806*
X002681Y013795*
X0026Y013761*
X00253Y013707*
X002485Y013649*
X002097*
X00164Y014106*
Y019592*
X001786Y019738*
X001832Y019719*
Y019448*
X002462*
Y020589*
G37*
G36*
X003468Y019969D02*
X003182D01*
Y019426*
X003468*
Y019969*
G37*
G36*
X003081D02*
X002795D01*
Y019426*
X003081*
Y019969*
G37*
G36*
X008435Y018712D02*
X00835Y018695D01*
X008279Y018647*
X008268Y018632*
X00734*
X007286Y018621*
X00724Y018591*
X006942Y018292*
X006912Y018247*
X006901Y018193*
Y01804*
X006805*
Y017587*
X007278*
Y01804*
X007182*
Y018135*
X007398Y018351*
X008268*
X008279Y018335*
X00835Y018287*
X008435Y018271*
X008519Y018287*
X008591Y018335*
X008639Y018407*
X008655Y018491*
X008639Y018576*
X008591Y018647*
X008519Y018695*
X008435Y018712*
G37*
G36*
X013422Y019321D02*
X010178D01*
X010109Y019307*
X010051Y019268*
X009412Y018629*
X009373Y018571*
X009359Y018502*
Y018014*
X009226*
Y018035*
X00892*
Y01764*
Y017244*
X009226*
Y017266*
X009874*
Y017459*
X010144*
X010237Y017367*
Y016696*
X010147*
X010093Y016686*
X010048Y016655*
X010017Y01661*
X01001Y016577*
X009959Y016557*
X009872Y016644*
X009827Y016675*
X009773Y016685*
X009616*
Y016781*
X009163*
Y016309*
X009616*
Y016404*
X009715*
X009859Y01626*
X009905Y016229*
X009959Y016219*
X009967*
X010008Y016169*
X010006Y016162*
X010008Y016156*
X009967Y016106*
X009702*
X009649Y016095*
X009603Y016065*
X009427Y015889*
X009163*
Y015417*
X009616*
Y01568*
X009761Y015825*
X009956*
X009962Y015819*
X010422*
X01085*
X010848Y015831*
X010813Y015883*
X01081Y015885*
X010828Y015912*
X010839Y015965*
X010862Y01597*
X010896Y015925*
X01089Y015896*
X010907Y015812*
X010955Y01574*
X010965Y015733*
Y015421*
X01081Y015266*
X008452*
X008198Y015521*
Y015727*
X008242Y015751*
X008269Y015733*
X008354Y015716*
X008438Y015733*
X00851Y015781*
X008558Y015852*
X008561Y015868*
X008611Y015863*
Y015703*
X008808*
Y01591*
X00862*
X008589Y015928*
X008573Y015941*
X008558Y016021*
X008534Y016056*
Y017244*
X00882*
Y01764*
Y018035*
X008515*
Y017724*
X008465Y017703*
X008226Y017942*
X008168Y017981*
X008098Y017994*
X007907*
Y01804*
X007435*
Y017587*
X007907*
Y017633*
X008024*
X008173Y017484*
Y016056*
X008159Y016035*
X008103Y016021*
X007926Y016198*
X00788Y016229*
X007826Y016239*
X007276*
X007182Y016334*
Y017056*
X007278*
Y017142*
X007435*
Y017056*
X007907*
Y017509*
X007435*
Y017423*
X007278*
Y017509*
X006805*
Y017056*
X006901*
Y016276*
X006912Y016222*
X006942Y016176*
X007119Y015999*
X007164Y015969*
X007218Y015958*
X007768*
X007807Y015919*
X007788Y015873*
X007436*
Y015401*
X007522*
Y015289*
X007533Y015236*
X007563Y01519*
X00797Y014783*
X008016Y014752*
X00807Y014742*
X008629*
X008674Y01473*
Y01467*
X008639Y014635*
X007317*
X007263Y014624*
X007217Y014593*
X007098Y014475*
X007068Y014429*
X007057Y014375*
Y014337*
X006942*
Y013904*
Y013511*
X007057*
Y013483*
X007068Y01343*
X007098Y013384*
X007269Y013214*
X007314Y013183*
X007368Y013173*
X008674*
Y013077*
X009127*
Y013549*
X008674*
Y013453*
X007464*
X007458Y013463*
X007454Y013511*
Y013904*
Y014322*
X007493Y014345*
X007532Y014322*
Y013904*
Y013511*
X008044*
Y013587*
X008416*
X008469Y013598*
X008515Y013629*
X008624Y013738*
X008674Y013717*
Y013667*
X009127*
Y01414*
X008674*
Y014044*
X008591*
X008538Y014033*
X008492Y014003*
X008357Y013868*
X008201*
X008187Y013915*
X008188Y013918*
X008257Y013965*
X008305Y014036*
X008322Y014121*
X008305Y014205*
X008257Y014277*
X008217Y014304*
X008233Y014354*
X008674*
Y014258*
X009127*
Y01471*
X009166Y014732*
X009206Y01471*
Y014258*
X009658*
X009708Y014282*
X00975Y014273*
X009834Y01429*
X009906Y014338*
X009954Y01441*
X00997Y014494*
X009954Y014579*
X009906Y01465*
X009843Y014692*
X009851Y014739*
X009852Y014742*
X011557*
X011611Y014752*
X011656Y014783*
X012135Y015261*
X012165Y015307*
X012176Y015361*
Y015628*
X012312*
X012366Y015639*
X01238Y015648*
X01243Y015622*
Y015495*
X012415Y015484*
X012367Y015413*
X01235Y015328*
X012367Y015244*
X012415Y015172*
X012486Y015124*
X012571Y015108*
X012655Y015124*
X012727Y015172*
X012775Y015244*
X012792Y015328*
X012775Y015413*
X012727Y015484*
X012711Y015495*
Y015676*
X012802Y015767*
X012848Y015747*
Y01556*
X012924*
Y015495*
X012909Y015484*
X012861Y015413*
X012844Y015328*
X012861Y015244*
X012909Y015172*
X01298Y015124*
X013065Y015108*
X013149Y015124*
X013221Y015172*
X013269Y015244*
X013286Y015328*
X013269Y015413*
X013221Y015484*
X013205Y015495*
Y01556*
X013278*
Y01554*
X013552*
Y015539*
X01374*
Y015698*
X01379*
Y015748*
X014028*
Y015795*
Y015904*
X01379*
Y016004*
X014028*
Y016113*
X014007*
Y016512*
X014158Y016664*
X014198Y016723*
X014211Y016792*
Y017601*
X014235Y017636*
X014251Y017721*
X014235Y017805*
X014211Y01784*
Y018532*
X014198Y018601*
X014158Y01866*
X01355Y019268*
X013492Y019307*
X013422Y019321*
G37*
G36*
X004431Y018424D02*
X003801D01*
Y017282*
X004431*
Y018424*
G37*
G36*
X009106Y016802D02*
X008908D01*
Y016595*
X009106*
Y016802*
G37*
G36*
X008808D02*
X008611D01*
Y016595*
X008808*
Y016802*
G37*
G36*
X009106Y016495D02*
X008908D01*
Y016287*
X009106*
Y016495*
G37*
G36*
X008808D02*
X008611D01*
Y016287*
X008808*
Y016495*
G37*
G36*
X009106Y01591D02*
X008908D01*
Y015703*
X009106*
Y01591*
G37*
G36*
X007379Y015894D02*
X007181D01*
Y015687*
X007379*
Y015894*
G37*
G36*
X007081D02*
X006883D01*
Y015687*
X007081*
Y015894*
G37*
G36*
X01085Y015718D02*
X010472D01*
Y015606*
X010698*
X01076Y015619*
X010813Y015654*
X010848Y015706*
X01085Y015718*
G37*
G36*
X010372D02*
X009995D01*
X009997Y015706*
X010032Y015654*
X010085Y015619*
X010147Y015606*
X010372*
Y015718*
G37*
G36*
X002768Y016168D02*
X002681Y016157D01*
X0026Y016123*
X00253Y016069*
X002476Y015999*
X002442Y015918*
X002431Y015831*
X002442Y015743*
X002476Y015662*
X00253Y015592*
X0026Y015538*
X002681Y015505*
X002768Y015493*
X002856Y015505*
X002937Y015538*
X003007Y015592*
X003061Y015662*
X003094Y015743*
X003106Y015831*
X003094Y015918*
X003061Y015999*
X003007Y016069*
X002937Y016123*
X002856Y016157*
X002768Y016168*
G37*
G36*
X009106Y015603D02*
X008908D01*
Y015395*
X009106*
Y015603*
G37*
G36*
X008808D02*
X008611D01*
Y015395*
X008808*
Y015603*
G37*
G36*
X007379Y015587D02*
X007181D01*
Y01538*
X007379*
Y015587*
G37*
G36*
X007081D02*
X006883D01*
Y01538*
X007081*
Y015587*
G37*
G36*
X021979Y015166D02*
D01*
X019911*
X019864Y015156*
X019825Y01513*
X01946Y014765*
X019434Y014726*
X019425Y01468*
Y014454*
X01939Y01443*
X019342Y014359*
X019325Y014274*
X019333Y014235*
X019331Y014221*
X019289Y014198*
X019278*
X019217*
X019198Y014213*
X019131Y014241*
X019059Y01425*
X017987*
X017915Y014241*
X017848Y014213*
X01779Y014169*
X016957Y013335*
X016912Y013278*
X016885Y013211*
X016875Y013139*
Y008306*
X013871Y005302*
X013827Y005245*
X013799Y005178*
X01379Y005106*
Y001437*
X013731Y001392*
X013655Y001293*
X013607Y001178*
X013596Y001091*
X013593Y001068*
X013542*
X01354Y001091*
X013528Y001178*
X01348Y001293*
X013405Y001392*
X013306Y001468*
X013191Y001515*
X013068Y001532*
X012944Y001515*
X012829Y001468*
X012731Y001392*
X012655Y001293*
X012607Y001178*
X012596Y001091*
X012593Y001068*
X012542*
X01254Y001091*
X012528Y001178*
X01248Y001293*
X012405Y001392*
X012306Y001468*
X012191Y001515*
X012068Y001532*
X011944Y001515*
X011829Y001468*
X011731Y001392*
X011655Y001293*
X011607Y001178*
X011596Y001091*
X011593Y001068*
X011542*
X01154Y001091*
X011528Y001178*
X01148Y001293*
X011405Y001392*
X011306Y001468*
X011191Y001515*
X011068Y001532*
X010944Y001515*
X010829Y001468*
X010731Y001392*
X010655Y001293*
X010607Y001178*
X010591Y001055*
X010607Y000932*
X010655Y000817*
X010731Y000718*
X010829Y000642*
X010944Y000595*
X011068Y000578*
X011191Y000595*
X011306Y000642*
X011405Y000718*
X01148Y000817*
X011528Y000932*
X01154Y001019*
X011542Y001042*
X011593*
X011596Y001019*
X011607Y000932*
X011655Y000817*
X011731Y000718*
X011829Y000642*
X011944Y000595*
X012068Y000578*
X012191Y000595*
X012306Y000642*
X012405Y000718*
X01248Y000817*
X012528Y000932*
X01254Y001019*
X012542Y001042*
X012593*
X012596Y001019*
X012607Y000932*
X012655Y000817*
X012731Y000718*
X012829Y000642*
X012944Y000595*
X013068Y000578*
X013191Y000595*
X013306Y000642*
X013405Y000718*
X01348Y000817*
X013528Y000932*
X01354Y001019*
X013542Y001042*
X013593*
X013596Y001019*
X013607Y000932*
X013655Y000817*
X013731Y000718*
X013829Y000642*
X013944Y000595*
X014068Y000578*
X014191Y000595*
X014306Y000642*
X014405Y000718*
X01448Y000817*
X014528Y000932*
X014544Y001055*
X014528Y001178*
X01448Y001293*
X014405Y001392*
X014346Y001437*
Y004991*
X016305Y00695*
X016352Y006927*
X016348Y006894*
Y005014*
X015517*
Y005071*
X01475*
Y004401*
X015517*
Y004458*
X01788*
Y004401*
X018647*
Y005071*
X01788*
Y005014*
X016904*
Y006894*
X016894Y006966*
X016867Y007033*
X016823Y00709*
X016765Y007134*
X016698Y007162*
X016626Y007172*
X016593Y007167*
X01657Y007215*
X01735Y007995*
X017394Y008052*
X017422Y008119*
X017431Y008191*
Y013023*
X018102Y013694*
X018754*
X018802Y013688*
Y013644*
Y013491*
X019317*
Y013688*
X01927*
X019249Y013738*
X019256Y013746*
X019295*
Y013827*
X0193Y013833*
X019307Y013851*
X019595*
X019668Y013778*
X019707Y013752*
X019754Y013742*
X019947*
Y013675*
X020085*
Y013206*
X019947*
Y01304*
X019943Y013034*
X019933Y012984*
Y012779*
X019737Y012583*
X019708Y01254*
X019698Y01249*
Y011638*
X019708Y011588*
X019737Y011545*
X020035Y011247*
X020077Y011219*
X020128Y011209*
X021336*
X021362Y01117*
X021418Y011133*
Y011075*
X021362Y011038*
X02131Y01096*
X021292Y010868*
X02131Y010776*
X021362Y010697*
X021441Y010645*
X021533Y010627*
X021625Y010645*
X021703Y010697*
X021729Y010736*
X022046*
X022152Y010631*
X022194Y010602*
X022244Y010592*
X022635*
Y010497*
X023107*
Y01095*
X022635*
Y010855*
X022299*
X022193Y010961*
X022151Y010989*
X0221Y010999*
X021729*
X021703Y011038*
X021648Y011075*
Y011133*
X021703Y01117*
X021755Y011248*
X021774Y01134*
X021755Y011432*
X021703Y01151*
X021664Y011537*
Y011868*
X021974Y012178*
X022635*
Y012083*
X023107*
Y012536*
X022635*
Y012441*
X02192*
X02187Y012431*
X021827Y012402*
X02144Y012015*
X021411Y011972*
X021401Y011922*
Y011537*
X021362Y01151*
X021336Y011471*
X020901*
X020886Y011521*
X02093Y011551*
X02097Y01161*
X020983Y011679*
X02097Y011748*
X02093Y011806*
X020914Y011817*
X020922Y011873*
X020942Y011879*
X020997Y011856*
X021069Y011847*
X02114Y011856*
X021207Y011884*
X021213Y011889*
X021295*
Y011967*
X021309Y011986*
X021337Y012053*
X021346Y012125*
Y012478*
X021463Y012595*
X021654*
X022425*
X022497Y012604*
X022564Y012632*
X022582Y012646*
X022661*
Y012728*
X022666Y012734*
X022693Y012801*
X022703Y012873*
X022693Y012945*
X022666Y013012*
X022661Y013018*
Y013099*
X022582*
X022564Y013114*
X022529Y013128*
X022539Y013178*
X022661*
Y013631*
X022546*
Y014598*
X022537Y014645*
X02251Y014684*
X022064Y01513*
X022025Y015156*
X021979Y015166*
G37*
G36*
X024615Y015346D02*
X02453Y01533D01*
X024458Y015282*
X024411Y01521*
X024394Y015126*
X024411Y015041*
X024458Y014969*
X02453Y014922*
X024615Y014905*
X024699Y014922*
X024771Y014969*
X024819Y015041*
X024835Y015126*
X024819Y01521*
X024771Y015282*
X024699Y01533*
X024615Y015346*
G37*
G36*
X002768Y015381D02*
X002681Y015369D01*
X0026Y015336*
X00253Y015282*
X002476Y015212*
X002442Y015131*
X002431Y015043*
X002442Y014956*
X002476Y014875*
X00253Y014805*
X0026Y014751*
X002681Y014717*
X002768Y014706*
X002856Y014717*
X002937Y014751*
X003007Y014805*
X003061Y014875*
X003094Y014956*
X003106Y015043*
X003094Y015131*
X003061Y015212*
X003007Y015282*
X002937Y015336*
X002856Y015369*
X002768Y015381*
G37*
G36*
X002462Y018424D02*
X001832D01*
Y017282*
X001967*
Y01456*
X00198Y014491*
X00202Y014432*
X002323Y014128*
X002382Y014089*
X002451Y014075*
X002485*
X00253Y014017*
X0026Y013964*
X002681Y01393*
X002768Y013918*
X002856Y01393*
X002937Y013964*
X003007Y014017*
X003061Y014087*
X003094Y014169*
X003106Y014256*
X003094Y014343*
X003061Y014425*
X003007Y014495*
X002937Y014548*
X002856Y014582*
X002768Y014593*
X002681Y014582*
X0026Y014548*
X00253Y014495*
X002526Y01449*
X002476Y014487*
X002328Y014635*
Y017282*
X002462*
Y018424*
G37*
G36*
X025142Y015306D02*
X025057Y015289D01*
X024986Y015241*
X024938Y01517*
X024921Y015085*
X024938Y015001*
X024986Y014929*
X025001Y014918*
Y013792*
X024986Y013781*
X024938Y01371*
X024921Y013625*
X024938Y013541*
X024986Y013469*
X025057Y013421*
X025142Y013404*
X025226Y013421*
X025298Y013469*
X025346Y013541*
X025363Y013625*
X025346Y01371*
X025298Y013781*
X025282Y013792*
Y014918*
X025298Y014929*
X025346Y015001*
X025363Y015085*
X025346Y01517*
X025298Y015241*
X025226Y015289*
X025142Y015306*
G37*
G36*
X019317Y013391D02*
X019109D01*
Y013193*
X019317*
Y013391*
G37*
G36*
X019009D02*
X018802D01*
Y013193*
X019009*
Y013391*
G37*
G36*
X025569Y012384D02*
X023912D01*
Y012236*
X023691*
X023656Y012259*
X023572Y012276*
X023487Y012259*
X023415Y012211*
X023368Y012139*
X023351Y012055*
X023368Y011971*
X023415Y011899*
X023487Y011851*
X023572Y011834*
X023656Y011851*
X023691Y011874*
X023912*
Y011726*
X025569*
Y012384*
G37*
G36*
X009127Y012604D02*
X008674D01*
Y012509*
X00734*
X007286Y012498*
X00724Y012467*
X007098Y012325*
X007068Y01228*
X007057Y012226*
Y012212*
X006942*
Y011778*
Y011385*
X007057*
Y011334*
X007068Y01128*
X007098Y011235*
X007246Y011088*
X007291Y011057*
X007345Y011047*
X008674*
Y010951*
X009127*
Y011423*
X008674*
Y011328*
X007441*
X007435Y011335*
X007454Y011385*
Y011778*
Y012196*
X007493Y012219*
X007532Y012196*
Y011778*
Y011385*
X008044*
Y011461*
X008439*
X008493Y011472*
X008538Y011503*
X008624Y011588*
X008674Y011568*
Y011541*
X009127*
Y012014*
X008674*
Y011918*
X008615*
X008561Y011907*
X008515Y011877*
X008381Y011742*
X008201*
X008187Y011789*
X008188Y011792*
X008257Y011839*
X008305Y01191*
X008322Y011995*
X008305Y012079*
X008257Y012151*
X008217Y012178*
X008233Y012228*
X008674*
Y012132*
X009127*
Y012604*
G37*
G36*
X023128Y012026D02*
X022921D01*
Y011828*
X023128*
Y012026*
G37*
G36*
X022821D02*
X022613D01*
Y011828*
X022821*
Y012026*
G37*
G36*
X018248Y01194D02*
X018164Y011923D01*
X018092Y011875*
X018044Y011804*
X018027Y011719*
X018044Y011635*
X018092Y011563*
X018164Y011515*
X018248Y011499*
X018333Y011515*
X018404Y011563*
X018452Y011635*
X018469Y011719*
X018452Y011804*
X018404Y011875*
X018333Y011923*
X018248Y01194*
G37*
G36*
X023128Y011728D02*
X022871D01*
X022613*
Y011553*
Y011517*
Y01148*
Y011305*
X023128*
Y01148*
Y011517*
Y011553*
Y011728*
G37*
G36*
X011814Y011406D02*
X011626D01*
Y011297*
X011814*
Y011406*
G37*
G36*
X025569Y011384D02*
X023912D01*
Y011236*
X023686*
X023651Y011259*
X023567Y011276*
X023482Y011259*
X023411Y011211*
X023363Y011139*
X023346Y011055*
X023363Y010971*
X023411Y010899*
X023482Y010851*
X023567Y010834*
X023651Y010851*
X023686Y010874*
X023912*
Y010726*
X025569*
Y011384*
G37*
G36*
X003446Y018424D02*
X002817D01*
Y017282*
X002951*
Y016617*
X002965Y016548*
X003004Y016489*
X003226Y016267*
Y011523*
X002872Y011169*
X002799Y011179*
X002712Y011167*
X002631Y011134*
X002561Y01108*
X002507Y01101*
X002473Y010929*
X002462Y010841*
X002472Y010769*
X001738Y010035*
X001698Y009976*
X001685Y009907*
Y005028*
X001698Y004959*
X001738Y004901*
X00282Y003818*
Y002311*
X002834Y002242*
X002873Y002184*
X0034Y001657*
X003459Y001617*
X003528Y001604*
X005839*
X005908Y001617*
X005967Y001657*
X006535Y002224*
X006574Y002283*
X006588Y002352*
Y004791*
X006939Y005143*
X007343*
X007355Y005127*
X007413Y005082*
X00748Y005055*
X007552Y005045*
X007572Y005048*
X007666Y004953*
X007725Y004914*
X007794Y0049*
X008461*
X008473Y004889*
X008461Y00483*
X008454Y004827*
X008417*
Y004383*
X008733*
X00905*
Y004827*
X009012*
X009005Y00483*
X008993Y004889*
X009005Y0049*
X009468*
X009503Y004865*
Y004765*
Y004715*
Y004543*
X0095Y00453*
Y004427*
X009394Y004321*
X009364Y004275*
X009353Y004222*
Y004135*
X009267*
Y003871*
X009145Y00375*
X008439*
X008429Y003765*
X008357Y003813*
X008272Y00383*
X008188Y003813*
X008116Y003765*
X008068Y003694*
X008052Y003609*
X008068Y003525*
X008116Y003453*
X008188Y003405*
X008272Y003388*
X008357Y003405*
X008429Y003453*
X008439Y003469*
X009204*
X009257Y003479*
X009303Y00351*
X009456Y003663*
X00972*
Y004135*
X009676*
X009655Y004185*
X009715Y004244*
X009732*
X009773Y004232*
X009797Y004197*
X009816Y004178*
X009798Y004135*
Y003663*
X010062*
X010173Y003552*
Y003232*
X010077*
Y003093*
X009977*
Y003232*
X009848*
Y003054*
X009433*
Y003151*
X00898*
Y002679*
X009433*
Y002812*
X009973*
Y002517*
X010009*
Y002421*
X01002Y002367*
X01005Y002322*
X010201Y002172*
X010246Y002141*
X0103Y00213*
X011963*
X012016Y002141*
X012062Y002172*
X012185Y002294*
X012215Y00234*
X012226Y002394*
Y002519*
X012282Y002562*
X012325Y002618*
X012572*
X012625Y002628*
X012671Y002659*
X012832Y00282*
X012863Y002866*
X012874Y00292*
Y003771*
X012863Y003825*
X012832Y003871*
X01263Y004073*
X012584Y004104*
X01253Y004115*
X012283*
X012266Y004165*
X012282Y004177*
X012325Y004233*
X012565*
X012619Y004244*
X012664Y004274*
X012832Y004442*
X012863Y004488*
X012874Y004542*
Y005515*
X012863Y005569*
X012832Y005614*
X012672Y005775*
X012679Y005825*
Y006033*
X012431*
X012183*
Y005858*
X012126*
Y006319*
X011673*
Y006223*
X0114*
Y006319*
X011373*
Y006409*
X011396Y006444*
X011413Y006529*
X011396Y006613*
X011348Y006685*
X011277Y006733*
X011192Y00675*
X011108Y006733*
X011036Y006685*
X010988Y006613*
X010971Y006529*
X010988Y006444*
X011011Y006409*
Y006319*
X010948*
Y005846*
X0114*
Y005942*
X011673*
Y005846*
X011762*
X01177Y005808*
X0118Y005762*
X011944Y005618*
X01199Y005588*
X012044Y005577*
X012472*
X012593Y005457*
Y0046*
X012507Y004514*
X012325*
X012282Y00457*
X012224Y004614*
X012157Y004642*
X012085Y004652*
X012013Y004642*
X011946Y004614*
X011889Y00457*
X011845Y004513*
X011817Y004446*
X011807Y004374*
X011817Y004302*
X011845Y004235*
X011889Y004177*
X011905Y004165*
X011888Y004115*
X011777*
X011738Y004154*
Y004785*
X011727Y004839*
X011697Y004884*
X011567Y005014*
X011575Y005042*
X011581Y005051*
X011589Y005061*
X011846*
X011889Y005005*
X011946Y004961*
X012013Y004933*
X012085Y004924*
X012157Y004933*
X012224Y004961*
X012282Y005005*
X012326Y005063*
X012354Y00513*
X012363Y005202*
X012354Y005274*
X012326Y005341*
X012282Y005398*
X012224Y005442*
X012157Y00547*
X012085Y00548*
X012013Y00547*
X011946Y005442*
X011889Y005398*
X011846Y005342*
X011645*
X011468Y005518*
X011423Y005549*
X011369Y00556*
X0108*
X010774Y00561*
X010783Y005655*
Y005846*
X010869*
Y006319*
X010416*
Y005846*
X010502*
Y005713*
X010308Y005518*
X010277Y005473*
Y005471*
X009503*
Y005316*
Y005262*
X008969*
Y005317*
X008497*
Y005262*
X007869*
X007827Y005303*
X00783Y005323*
X00782Y005395*
X007793Y005462*
X007749Y00552*
X007691Y005564*
X007624Y005592*
X007552Y005601*
X00748Y005592*
X007413Y005564*
X007355Y00552*
X007343Y005504*
X006864*
X006795Y00549*
X006736Y005451*
X006279Y004994*
X00624Y004935*
X006226Y004866*
Y002427*
X005765Y001965*
X003603*
X003181Y002386*
Y003893*
X003168Y003962*
X003129Y004021*
X002046Y005103*
Y009833*
X002426Y010212*
X002468Y010184*
X002453Y010147*
X002447Y010104*
X002749*
Y010406*
X002707Y010401*
X00267Y010386*
X002641Y010428*
X002727Y010513*
X002799Y010504*
X002887Y010515*
X002968Y010549*
X003038Y010603*
X003092Y010673*
X003126Y010754*
X003137Y010841*
X003127Y010914*
X003534Y011321*
X003573Y011379*
X003587Y011448*
Y016342*
X003573Y016411*
X003534Y01647*
X003312Y016692*
Y017282*
X003446*
Y018424*
G37*
G36*
X023128Y011205D02*
X022921D01*
Y011007*
X023128*
Y011205*
G37*
G36*
X022821D02*
X022613D01*
Y011007*
X022821*
Y011205*
G37*
G36*
X014383Y012563D02*
X01393D01*
Y01209*
X014383*
Y012186*
X015515*
X015599Y012102*
X015578Y012052*
X015524*
Y011619*
Y011226*
X01564*
Y010972*
X015554Y010887*
X015403*
X015376Y010937*
X015394Y010962*
X015411Y011047*
X015394Y011131*
X01537Y011166*
Y011226*
X015446*
Y011619*
Y012052*
X014934*
Y011976*
X014714*
X01466Y011965*
X014615Y011934*
X014557Y011876*
X014383*
Y011972*
X01393*
Y0115*
X014383*
Y011595*
X014615*
X014669Y011606*
X014714Y011636*
X014772Y011695*
X014934*
Y011226*
X015009*
Y011166*
X014986Y011131*
X014969Y011047*
X014986Y010962*
X015003Y010937*
X014976Y010887*
X014413*
X014383Y010917*
Y011381*
X01393*
Y010909*
X014023*
X014026Y010891*
X014057Y010846*
X014256Y010647*
X014301Y010616*
X014355Y010606*
X015612*
X015666Y010616*
X015712Y010647*
X01588Y010815*
X01591Y01086*
X015921Y010914*
Y011226*
X016036*
Y011619*
Y012052*
X015921*
Y012119*
X01591Y012173*
X01588Y012218*
X015672Y012426*
X015627Y012456*
X015573Y012467*
X014383*
Y012563*
G37*
G36*
X026485Y012838D02*
X026413Y012828D01*
X026346Y0128*
X026288Y012756*
X026244Y012699*
X026216Y012632*
X026207Y01256*
Y012384*
X025662*
Y011726*
X02628*
X026307Y011676*
X026287Y011646*
X02627Y011562*
X026287Y011477*
X02631Y011442*
Y011384*
X025662*
Y010726*
X027319*
Y011384*
X026671*
Y011442*
X026695Y011477*
X026711Y011562*
X026695Y011646*
X026674Y011676*
X026701Y011726*
X027319*
Y012384*
X026763*
Y01256*
X026753Y012632*
X026725Y012699*
X026681Y012756*
X026624Y0128*
X026557Y012828*
X026485Y012838*
G37*
G36*
X025569Y010384D02*
X023912D01*
Y010237*
X02368*
X023645Y010261*
X02356Y010277*
X023476Y010261*
X023441Y010237*
X021571*
X021536Y010261*
X021452Y010277*
X021367Y010261*
X021295Y010213*
X021248Y010141*
X021231Y010057*
X021248Y009972*
X021295Y009901*
X021367Y009853*
X021452Y009836*
X021536Y009853*
X021571Y009876*
X023441*
X023476Y009853*
X02356Y009836*
X023645Y009853*
X02368Y009876*
X023912*
Y009726*
X025569*
Y010384*
G37*
G36*
X027341Y010405D02*
X026541D01*
Y010105*
X027341*
Y010405*
G37*
G36*
X026441D02*
X025641D01*
Y010105*
X026441*
Y010405*
G37*
G36*
X002849Y010406D02*
Y010104D01*
X003152*
X003146Y010147*
X00311Y010234*
X003053Y010308*
X002979Y010365*
X002892Y010401*
X002849Y010406*
G37*
G36*
X027341Y010005D02*
X026541D01*
Y009705*
X027341*
Y010005*
G37*
G36*
X026441D02*
X025641D01*
Y009705*
X026441*
Y010005*
G37*
G36*
X003152Y010004D02*
X002849D01*
Y009702*
X002892Y009707*
X002979Y009743*
X003053Y0098*
X00311Y009875*
X003146Y009961*
X003152Y010004*
G37*
G36*
X002749D02*
X002447D01*
X002453Y009961*
X002489Y009875*
X002546Y0098*
X00262Y009743*
X002707Y009707*
X002749Y009702*
Y010004*
G37*
G36*
X023714Y008841D02*
X022946D01*
Y008784*
X020584*
Y008841*
X019816*
Y008171*
X020584*
Y008228*
X022946*
Y008171*
X023714*
Y008841*
G37*
G36*
X014383Y010397D02*
X01393D01*
Y009925*
X014383*
Y010021*
X01549*
X01562Y009891*
X015599Y009841*
X015524*
Y009408*
Y009015*
X01564*
Y008702*
X015554Y008616*
X015339*
X015324Y008666*
X015346Y00868*
X015394Y008752*
X015411Y008836*
X015394Y008921*
X01537Y008956*
Y009015*
X015446*
Y009408*
Y009841*
X014934*
Y009765*
X014693*
X01464Y009754*
X014594Y009724*
X014581Y009711*
X014383*
Y009807*
X01393*
Y009334*
X014383*
Y00943*
X014639*
X014693Y009441*
X014739Y009471*
X014752Y009484*
X014934*
Y009015*
X015009*
Y008956*
X014986Y008921*
X014969Y008836*
X014986Y008752*
X015034Y00868*
X015055Y008666*
X01504Y008616*
X014397*
X014319Y008694*
X01434Y008744*
X014383*
Y009216*
X01393*
Y008744*
X014016*
Y008658*
X014026Y008604*
X014057Y008559*
X01424Y008376*
X014285Y008345*
X014339Y008335*
X015612*
X015666Y008345*
X015712Y008376*
X01588Y008544*
X01591Y00859*
X015921Y008643*
Y009015*
X016036*
Y009408*
Y009841*
X015921*
Y009929*
X01591Y009983*
X01588Y010028*
X015648Y01026*
X015602Y010291*
X015548Y010302*
X014383*
Y010397*
G37*
G36*
X011627Y007998D02*
X01144D01*
Y007889*
X011627*
Y007998*
G37*
G36*
X002809Y00771D02*
X002722Y007698D01*
X00264Y007664*
X00257Y007611*
X002517Y007541*
X002483Y007459*
X002471Y007372*
X002483Y007285*
X002517Y007203*
X00257Y007133*
X00264Y00708*
X002722Y007046*
X002809Y007034*
X002896Y007046*
X002978Y00708*
X003048Y007133*
X003101Y007203*
X003135Y007285*
X003146Y007372*
X003135Y007459*
X003101Y007541*
X003048Y007611*
X002978Y007664*
X002896Y007698*
X002809Y00771*
G37*
G36*
X023735Y00709D02*
X02338D01*
Y006784*
X023735*
Y00709*
G37*
G36*
X02328D02*
X022925D01*
Y006784*
X02328*
Y00709*
G37*
G36*
X020605D02*
X02025D01*
Y006784*
X020605*
Y00709*
G37*
G36*
X02015D02*
X019795D01*
Y006784*
X02015*
Y00709*
G37*
G36*
X002859Y006937D02*
Y006635D01*
X003161*
X003156Y006678*
X00312Y006764*
X003063Y006838*
X002988Y006895*
X002902Y006931*
X002859Y006937*
G37*
G36*
X002759D02*
X002716Y006931D01*
X002629Y006895*
X002555Y006838*
X002498Y006764*
X002462Y006678*
X002456Y006635*
X002759*
Y006937*
G37*
G36*
X024777Y007071D02*
X02469Y007059D01*
X024608Y007025*
X024538Y006972*
X024485Y006902*
X024451Y00682*
X024439Y006733*
X024451Y006646*
X024485Y006564*
X024538Y006494*
X024608Y006441*
X02469Y006407*
X024777Y006395*
X024864Y006407*
X024946Y006441*
X025016Y006494*
X025069Y006564*
X025103Y006646*
X025115Y006733*
X025103Y00682*
X025069Y006902*
X025016Y006972*
X024946Y007025*
X024864Y007059*
X024777Y007071*
G37*
G36*
X023735Y006684D02*
X02338D01*
Y006378*
X023735*
Y006684*
G37*
G36*
X02328D02*
X022925D01*
Y006378*
X02328*
Y006684*
G37*
G36*
X020605D02*
X02025D01*
Y006378*
X020605*
Y006684*
G37*
G36*
X02015D02*
X019795D01*
Y006378*
X02015*
Y006684*
G37*
G36*
X002759Y006535D02*
X002456D01*
X002462Y006492*
X002498Y006405*
X002555Y006331*
X002629Y006274*
X002716Y006238*
X002759Y006232*
Y006535*
G37*
G36*
X003161D02*
X002859D01*
Y006232*
X002902Y006238*
X002988Y006274*
X003063Y006331*
X00312Y006405*
X003156Y006492*
X003161Y006535*
G37*
G36*
X012679Y00634D02*
X012481D01*
Y006133*
X012679*
Y00634*
G37*
G36*
X012381D02*
X012183D01*
Y006133*
X012381*
Y00634*
G37*
G36*
X005393Y006567D02*
X005301Y006549D01*
X005223Y006496*
X005171Y006418*
X005152Y006326*
X005171Y006234*
X005223Y006156*
X005301Y006103*
X005393Y006085*
X005485Y006103*
X005564Y006156*
X005616Y006234*
X005634Y006326*
X005616Y006418*
X005564Y006496*
X005485Y006549*
X005393Y006567*
G37*
G36*
X024777Y006283D02*
X02469Y006272D01*
X024608Y006238*
X024538Y006184*
X024485Y006114*
X024451Y006033*
X024439Y005946*
X024451Y005858*
X024485Y005777*
X024538Y005707*
X024608Y005653*
X02469Y00562*
X024777Y005608*
X024864Y00562*
X024946Y005653*
X025016Y005707*
X025069Y005777*
X025103Y005858*
X025115Y005946*
X025103Y006033*
X025069Y006114*
X025016Y006184*
X024946Y006238*
X024864Y006272*
X024777Y006283*
G37*
G36*
X023317Y005695D02*
X023232Y005678D01*
X023161Y005631*
X023113Y005559*
X023096Y005474*
X023113Y00539*
X023136Y005355*
Y005076*
X022958*
Y004922*
X020596*
Y005076*
X019828*
Y004407*
X020596*
Y004561*
X022958*
Y004407*
X023726*
Y005076*
X023498*
Y005355*
X023521Y00539*
X023538Y005474*
X023521Y005559*
X023473Y005631*
X023401Y005678*
X023317Y005695*
G37*
G36*
X024777Y005496D02*
X02469Y005484D01*
X024608Y005451*
X024538Y005397*
X024485Y005327*
X024451Y005246*
X024439Y005158*
X024451Y005071*
X024485Y004989*
X024538Y00492*
X024608Y004866*
X02469Y004832*
X024777Y004821*
X024864Y004832*
X024946Y004866*
X025016Y00492*
X025069Y004989*
X025103Y005071*
X025115Y005158*
X025103Y005246*
X025069Y005327*
X025016Y005397*
X024946Y005451*
X024864Y005484*
X024777Y005496*
G37*
G36*
X007602Y004429D02*
Y004186D01*
X007845*
X007841Y004214*
X007811Y004286*
X007764Y004348*
X007702Y004396*
X007629Y004425*
X007602Y004429*
G37*
G36*
X007502D02*
X007474Y004425D01*
X007402Y004396*
X00734Y004348*
X007293Y004286*
X007263Y004214*
X007259Y004186*
X007502*
Y004429*
G37*
G36*
X024777Y004708D02*
X02469Y004697D01*
X024608Y004663*
X024538Y004609*
X024485Y00454*
X024451Y004458*
X024439Y004371*
X024451Y004283*
X024485Y004202*
X024538Y004132*
X024608Y004078*
X02469Y004045*
X024777Y004033*
X024864Y004045*
X024946Y004078*
X025016Y004132*
X025069Y004202*
X025103Y004283*
X025115Y004371*
X025103Y004458*
X025069Y00454*
X025016Y004609*
X024946Y004663*
X024864Y004697*
X024777Y004708*
G37*
G36*
X007845Y004086D02*
X007602D01*
Y003843*
X007629Y003847*
X007702Y003877*
X007764Y003925*
X007811Y003987*
X007841Y004059*
X007845Y004086*
G37*
G36*
X007502D02*
X007259D01*
X007263Y004059*
X007293Y003987*
X00734Y003925*
X007402Y003877*
X007474Y003847*
X007502Y003843*
Y004086*
G37*
G36*
X00905Y004283D02*
X008783D01*
Y003839*
X00905*
Y004283*
G37*
G36*
X008683D02*
X008417D01*
Y003839*
X008683*
Y004283*
G37*
G36*
X021817Y004114D02*
X021732Y004097D01*
X02166Y004049*
X021613Y003977*
X021596Y003893*
X021613Y003808*
X02166Y003737*
X021732Y003689*
X021817Y003672*
X021901Y003689*
X021973Y003737*
X022021Y003808*
X022037Y003893*
X022021Y003977*
X021973Y004049*
X021901Y004097*
X021817Y004114*
G37*
G36*
X002025Y003764D02*
X001907D01*
Y003022*
X002294*
Y003494*
X002285Y003564*
X002258Y003629*
X002215Y003685*
X002159Y003728*
X002094Y003755*
X002025Y003764*
G37*
G36*
X001807D02*
X00169D01*
X00162Y003755*
X001555Y003728*
X001499Y003685*
X001456Y003629*
X001429Y003564*
X00142Y003494*
Y003022*
X001807*
Y003764*
G37*
G36*
X023747Y003326D02*
X023392D01*
Y00302*
X023747*
Y003326*
G37*
G36*
X023292D02*
X022937D01*
Y00302*
X023292*
Y003326*
G37*
G36*
X020617D02*
X020262D01*
Y00302*
X020617*
Y003326*
G37*
G36*
X020162D02*
X019807D01*
Y00302*
X020162*
Y003326*
G37*
G36*
X018668Y00332D02*
X018313D01*
Y003014*
X018668*
Y00332*
G37*
G36*
X018213D02*
X017858D01*
Y003014*
X018213*
Y00332*
G37*
G36*
X015539D02*
X015183D01*
Y003014*
X015539*
Y00332*
G37*
G36*
X015083D02*
X014728D01*
Y003014*
X015083*
Y00332*
G37*
G36*
X023747Y00292D02*
X023392D01*
Y002614*
X023747*
Y00292*
G37*
G36*
X023292D02*
X022937D01*
Y002614*
X023292*
Y00292*
G37*
G36*
X020617D02*
X020262D01*
Y002614*
X020617*
Y00292*
G37*
G36*
X020162D02*
X019807D01*
Y002614*
X020162*
Y00292*
G37*
G36*
X018668Y002914D02*
X018313D01*
Y002608*
X018668*
Y002914*
G37*
G36*
X018213D02*
X017858D01*
Y002608*
X018213*
Y002914*
G37*
G36*
X015539D02*
X015183D01*
Y002608*
X015539*
Y002914*
G37*
G36*
X015083D02*
X014728D01*
Y002608*
X015083*
Y002914*
G37*
G36*
X007552Y003187D02*
X00748Y003177D01*
X007413Y003149*
X007355Y003105*
X007311Y003048*
X007283Y002981*
X007274Y002909*
X007283Y002837*
X007311Y00277*
X007355Y002712*
X007413Y002668*
X00748Y00264*
X007552Y002631*
X007624Y00264*
X007691Y002668*
X007749Y002712*
X007765Y002734*
X008449*
Y002679*
X008497*
Y002552*
X008474Y002518*
X008457Y002433*
X008474Y002349*
X008522Y002277*
X008593Y002229*
X008678Y002212*
X008762Y002229*
X008834Y002277*
X008882Y002349*
X008899Y002433*
X008882Y002518*
X008859Y002552*
Y002679*
X008902*
Y003151*
X008449*
Y003095*
X007756*
X007749Y003105*
X007691Y003149*
X007624Y003177*
X007552Y003187*
G37*
G36*
X009246Y019337D02*
X006448D01*
X006376Y019328*
X006309Y0193*
X006251Y019256*
X0054Y018404*
X005355Y018346*
X005328Y018279*
X005318Y018207*
Y016255*
X004023Y014959*
X003979Y014902*
X003951Y014835*
X003941Y014763*
Y003716*
X003875Y003672*
X00382Y00359*
X003801Y003494*
Y002451*
X00382Y002355*
X003875Y002273*
X003956Y002219*
X004052Y0022*
X004387*
X004483Y002219*
X004564Y002273*
X004619Y002355*
X004638Y002451*
Y003494*
X004619Y00359*
X004564Y003672*
X004497Y003716*
Y014648*
X005793Y015943*
X005837Y016*
X005865Y016067*
X005874Y016139*
Y018092*
X006563Y018781*
X009246*
X009318Y018791*
X009385Y018818*
X009442Y018863*
X009486Y01892*
X009514Y018987*
X009524Y019059*
X009514Y019131*
X009486Y019198*
X009442Y019256*
X009385Y0193*
X009318Y019328*
X009246Y019337*
G37*
G36*
X002294Y002922D02*
X001907D01*
Y002181*
X002025*
X002094Y00219*
X002159Y002217*
X002215Y00226*
X002258Y002316*
X002285Y002381*
X002294Y002451*
Y002922*
G37*
G36*
X001807D02*
X00142D01*
Y002451*
X001429Y002381*
X001456Y002316*
X001499Y00226*
X001555Y002217*
X00162Y00219*
X00169Y002181*
X001807*
Y002922*
G37*
G36*
X016018Y001546D02*
X015939Y001536D01*
X015819Y001486*
X015716Y001407*
X015636Y001304*
X01559Y001192*
X01556Y001188*
X015538Y001192*
X015496Y001293*
X01542Y001392*
X015322Y001468*
X015207Y001515*
X015083Y001532*
X01496Y001515*
X014845Y001468*
X014746Y001392*
X014671Y001293*
X014623Y001178*
X014607Y001055*
X014623Y000932*
X014671Y000817*
X014746Y000718*
X014845Y000642*
X01496Y000595*
X015083Y000578*
X015207Y000595*
X015322Y000642*
X01542Y000718*
X015496Y000817*
X015538Y000918*
X01556Y000922*
X01559Y000918*
X015636Y000806*
X015716Y000703*
X015819Y000624*
X015939Y000574*
X016018Y000564*
Y001055*
Y001546*
G37*
G36*
X024036Y001532D02*
X023913Y001515D01*
X023798Y001468*
X023699Y001392*
X023624Y001293*
X023578Y001183*
X023565Y001178*
X023538*
X023526Y001183*
X02348Y001293*
X023405Y001392*
X023306Y001468*
X023191Y001515*
X023068Y001532*
X022944Y001515*
X022829Y001468*
X022731Y001392*
X022655Y001293*
X022607Y001178*
X022601Y001128*
X02255*
X022544Y001178*
X022496Y001293*
X02242Y001392*
X022322Y001468*
X022207Y001515*
X022083Y001532*
X02196Y001515*
X021845Y001468*
X021746Y001392*
X021671Y001293*
X021623Y001178*
X021607Y001055*
X021623Y000932*
X021671Y000817*
X021746Y000718*
X021845Y000642*
X02196Y000595*
X022083Y000578*
X022207Y000595*
X022322Y000642*
X02242Y000718*
X022496Y000817*
X022544Y000932*
X02255Y000982*
X022601*
X022607Y000932*
X022655Y000817*
X022731Y000718*
X022829Y000642*
X022944Y000595*
X023068Y000578*
X023191Y000595*
X023306Y000642*
X023405Y000718*
X02348Y000817*
X023526Y000927*
X023538Y000932*
X023565*
X023578Y000927*
X023624Y000817*
X023699Y000718*
X023798Y000642*
X023913Y000595*
X024036Y000578*
X02416Y000595*
X024274Y000642*
X024373Y000718*
X024449Y000817*
X024496Y000932*
X024513Y001055*
X024496Y001178*
X024449Y001293*
X024373Y001392*
X024274Y001468*
X02416Y001515*
X024036Y001532*
G37*
G36*
X00356Y00152D02*
X003088D01*
Y001133*
X00383*
Y00125*
X00382Y00132*
X003794Y001385*
X003751Y001441*
X003695Y001484*
X00363Y00151*
X00356Y00152*
G37*
G36*
X002988D02*
X002517D01*
X002447Y00151*
X002382Y001484*
X002326Y001441*
X002283Y001385*
X002256Y00132*
X002247Y00125*
Y001133*
X002988*
Y00152*
G37*
G36*
X021068Y001532D02*
X020944Y001515D01*
X020829Y001468*
X020731Y001392*
X020655Y001293*
X020607Y001178*
X020596Y001091*
X020593Y001068*
X020542*
X02054Y001091*
X020528Y001178*
X02048Y001293*
X020405Y001392*
X020306Y001468*
X020191Y001515*
X020068Y001532*
X019944Y001515*
X019829Y001468*
X019731Y001392*
X019655Y001293*
X019607Y001178*
X019591Y001055*
X019607Y000932*
X019655Y000817*
X019731Y000718*
X019829Y000642*
X019944Y000595*
X020068Y000578*
X020191Y000595*
X020306Y000642*
X020405Y000718*
X02048Y000817*
X020528Y000932*
X02054Y001019*
X020542Y001042*
X020593*
X020596Y001019*
X020607Y000932*
X020655Y000817*
X020731Y000718*
X020829Y000642*
X020944Y000595*
X021068Y000578*
X021191Y000595*
X021306Y000642*
X021405Y000718*
X02148Y000817*
X021528Y000932*
X021544Y001055*
X021528Y001178*
X02148Y001293*
X021405Y001392*
X021306Y001468*
X021191Y001515*
X021068Y001532*
G37*
G36*
X00383Y001033D02*
X003088D01*
Y000646*
X00356*
X00363Y000655*
X003695Y000682*
X003751Y000725*
X003794Y000781*
X00382Y000846*
X00383Y000915*
Y001033*
G37*
G36*
X002988D02*
X002247D01*
Y000915*
X002256Y000846*
X002283Y000781*
X002326Y000725*
X002382Y000682*
X002447Y000655*
X002517Y000646*
X002988*
Y001033*
G37*
G36*
X025509Y001527D02*
X024564D01*
Y000583*
X025509*
Y001527*
G37*
G36*
X017086Y001546D02*
Y001055D01*
Y000564*
X017165Y000574*
X017285Y000624*
X017388Y000703*
X017467Y000806*
X017517Y000926*
X017564Y000914*
Y000583*
X018509*
Y001527*
X017564*
Y001196*
X017517Y001184*
X017467Y001304*
X017388Y001407*
X017285Y001486*
X017165Y001536*
X017086Y001546*
G37*
G36*
X016118D02*
Y001055D01*
Y000564*
X016197Y000574*
X016317Y000624*
X01642Y000703*
X016499Y000806*
X016525Y000869*
X016579*
X016605Y000806*
X016684Y000703*
X016787Y000624*
X016907Y000574*
X016986Y000564*
Y001055*
Y001546*
X016907Y001536*
X016787Y001486*
X016684Y001407*
X016605Y001304*
X016579Y001241*
X016525*
X016499Y001304*
X01642Y001407*
X016317Y001486*
X016197Y001536*
X016118Y001546*
G37*
%LNvapeixshield-3*%
%LPD*%
G36*
X010688Y01891D02*
X010643Y018901D01*
X010572Y018853*
X010524Y018781*
X010507Y018697*
X010524Y018612*
X010547Y018577*
Y018444*
X010492*
Y017971*
X010954*
X010964*
X011004Y017946*
Y017912*
X011317*
Y017714*
X011231*
Y017241*
X011317*
Y016279*
X011328Y016225*
X011359Y01618*
X011475Y016063*
X011521Y016032*
X011575Y016022*
X011581*
X011622Y015972*
X011621Y015965*
X011631Y015912*
X011661Y015867*
X011631Y015822*
X011621Y015769*
X011631Y015715*
X011662Y015669*
X011707Y015639*
X011761Y015628*
X011895*
Y015419*
X011499Y015023*
X011034*
X011014Y015073*
X011204Y015264*
X011235Y015309*
X011246Y015363*
Y015726*
X011267Y01574*
X011315Y015812*
X011332Y015896*
X011315Y015981*
X011267Y016052*
X011251Y016063*
X011241Y016112*
X01121Y016158*
X011106Y016262*
X011061Y016292*
X011007Y016303*
X010878*
X010837Y016353*
X010839Y016359*
X010828Y016413*
X010798Y016457*
X010828Y016502*
X010839Y016556*
X010828Y01661*
X010797Y016655*
X010752Y016686*
X010698Y016696*
X010598*
Y017441*
X010584Y01751*
X010545Y017569*
X010347Y017767*
X010288Y017807*
X010219Y01782*
X009874*
Y018014*
X00972*
Y018427*
X010253Y01896*
X010683*
X010688Y01891*
G37*
G36*
X020866Y013786D02*
X020951Y013769D01*
X021035Y013786*
X021075Y013813*
X021096Y013804*
X021123Y013765*
X021418Y013469*
Y013178*
X021379Y013151*
X021348*
X021276Y013141*
X021209Y013114*
X021151Y013069*
X020872Y01279*
X020828Y012732*
X0208Y012665*
X020791Y012593*
Y0124*
X020763Y012361*
X020658*
Y012472*
X020649Y012518*
X020623Y012557*
X02058Y0126*
Y012772*
X020606*
Y013*
X020656*
Y01305*
X020795*
Y013228*
X020636*
Y013675*
X020774*
Y013788*
X020824Y013814*
X020866Y013786*
G37*
G36*
X011457Y004727D02*
Y004096D01*
X011468Y004042*
X011498Y003996*
X01162Y003875*
X011666Y003844*
X011719Y003834*
X011919*
X011936Y003784*
X011898Y003754*
X011855Y003698*
X011751*
X011741Y003714*
X011669Y003762*
X011585Y003779*
X0115Y003762*
X011428Y003714*
X011424Y003708*
X011374Y003716*
Y003802*
X010902*
Y003349*
X011374*
Y0034*
X011424Y003408*
X011428Y003402*
X0115Y003354*
X011585Y003337*
X011669Y003354*
X011741Y003402*
X011751Y003417*
X011855*
X011898Y003361*
X011956Y003317*
X012023Y003289*
X012095Y00328*
X012167Y003289*
X012234Y003317*
X012291Y003361*
X012335Y003419*
X012363Y003486*
X012373Y003558*
X012363Y00363*
X012335Y003697*
X012291Y003754*
X012253Y003784*
X01227Y003834*
X012472*
X012593Y003713*
Y002978*
X012513Y002899*
X012325*
X012282Y002955*
X012224Y002999*
X012157Y003027*
X012085Y003036*
X012013Y003027*
X011946Y002999*
X011889Y002955*
X011845Y002897*
X011817Y00283*
X011807Y002758*
X011817Y002686*
X011845Y002619*
X011889Y002562*
X011945Y002519*
Y002452*
X011904Y002411*
X010384*
X010373Y002427*
X010398Y002477*
X010407*
Y002616*
X010457*
Y002655*
X010471Y002658*
X010614*
Y002666*
X010635*
Y002756*
X010639Y002804*
X010758Y002923*
X010902*
Y002817*
X011374*
Y00327*
X010902*
Y003165*
X010708*
X010662Y003156*
X010622Y003129*
X010537Y003044*
X010491Y003063*
Y003198*
X010454*
Y00361*
X010443Y003664*
X010413Y00371*
X010251Y003871*
Y003959*
X010301Y003983*
X010327Y003966*
X010381Y003955*
X010446*
X010457Y00394*
X010528Y003892*
X010613Y003875*
X010697Y003892*
X010769Y00394*
X010779Y003955*
X010844*
X010898Y003966*
X010944Y003996*
X011111Y004163*
X011374*
Y004616*
X010902*
Y004352*
X010818Y004268*
X010769Y004252*
X010697Y0043*
X010613Y004316*
X010594Y004313*
X010557Y004344*
X010565Y004396*
X010585Y0044*
X010631Y004431*
X010866Y004666*
X010902Y004694*
X011374*
Y004739*
X011424Y00476*
X011457Y004727*
G37*
%LNvapeixshield-4*%
%LPC*%
G36*
X011174Y017735D02*
X010976D01*
Y017528*
X011174*
Y017735*
G37*
G36*
X010876D02*
X010679D01*
Y017528*
X010876*
Y017735*
G37*
G36*
X011174Y017428D02*
X010976D01*
Y01722*
X011174*
Y017428*
G37*
G36*
X010876D02*
X010679D01*
Y01722*
X010876*
Y017428*
G37*
G36*
X020795Y01295D02*
X020706D01*
Y012772*
X020795*
Y01295*
G37*
G36*
X010635Y002566D02*
X010507D01*
Y002477*
X010635*
Y002566*
G37*
%LNvapeixshield-5*%
%LPD*%
G54D10*
X022871Y012309D03*
Y011778D03*
Y010724D03*
Y011255D03*
X022425Y012873D03*
Y013404D03*
X011138Y003575D03*
Y003044D03*
Y004389D03*
Y004921D03*
X007041Y017282D03*
Y017814D03*
X007671D03*
Y017282D03*
X021654Y012873D03*
Y013404D03*
X019059Y013972D03*
Y013441D03*
G54D11*
X012085Y002758D03*
Y005202D03*
Y004374D03*
X012095Y003558D03*
X007552Y004136D03*
Y002909D03*
Y005323D03*
X011019Y010083D03*
Y011767D03*
X011101Y007124D03*
G54D12*
X0119Y006083D03*
X012431D03*
X010643D03*
X011174D03*
X008675Y002915D03*
X009207D03*
X009493Y003899D03*
X010025D03*
X0089Y014494D03*
X009432D03*
X0089Y013313D03*
X009432D03*
X0089Y013904D03*
X009432D03*
X0089Y012368D03*
X009432D03*
X0089Y011778D03*
X009432D03*
X0089Y011187D03*
X009432D03*
X0089Y010321D03*
X009432D03*
X0089Y00973D03*
X009432D03*
X0089Y008195D03*
X009432D03*
X0089Y00914D03*
X009432D03*
X0089Y007604D03*
X009432D03*
X0089Y007014D03*
X009432D03*
X014156Y00898D03*
X013625D03*
X014156Y010161D03*
X013625D03*
X014156Y00957D03*
X013625D03*
X014156Y011145D03*
X013625D03*
X014156Y012326D03*
X013625D03*
X014156Y011736D03*
X013625D03*
X00939Y016545D03*
X008858D03*
X007663Y015637D03*
X007131D03*
X011458Y017478D03*
X010926D03*
X00939Y015653D03*
X008858D03*
X021069Y012125D03*
X020537D03*
X013035Y017843D03*
X013567D03*
G54D13*
X008733Y004333D03*
G54D14*
X008733Y005081D03*
G54D15*
X01578Y009624D03*
Y009231D03*
X01519Y009624D03*
Y009231D03*
X01578Y011835D03*
Y011442D03*
X01519Y011835D03*
Y011442D03*
X007198Y013728D03*
Y014121D03*
X007788Y013728D03*
Y014121D03*
X007198Y007346D03*
Y007739D03*
X007788Y007346D03*
Y007739D03*
X007198Y011602D03*
Y011995D03*
X007788Y011602D03*
Y011995D03*
X007198Y009471D03*
Y009864D03*
X007788Y009471D03*
Y009864D03*
G54D16*
X010728Y018207D03*
G54D17*
X011476Y018207D03*
G54D18*
X00954Y01764D03*
X00887D03*
G54D19*
X010422Y016556D03*
Y016359D03*
Y016162D03*
Y015965D03*
Y015769D03*
X012037Y016556D03*
Y016359D03*
Y016162D03*
Y015965D03*
Y015769D03*
G54D20*
X002147Y020019D03*
X004116D03*
X003131D03*
Y017853D03*
X004116D03*
X002147D03*
G54D21*
X015133Y004736D03*
X018263D03*
Y002964D03*
X015133D03*
X0202Y008506D03*
X02333D03*
Y006734D03*
X0202D03*
X020212Y004742D03*
X023342D03*
Y00297D03*
X020212D03*
G54D22*
X024741Y012055D03*
X026491D03*
X024741Y011055D03*
X026491D03*
X024741Y010055D03*
X026491D03*
G54D23*
X01139Y013867D03*
Y013612D03*
Y013101D03*
Y013357D03*
X010665D03*
Y013101D03*
Y013612D03*
Y013867D03*
X011864Y010481D03*
Y010736D03*
Y011247D03*
Y010991D03*
X012589D03*
Y011247D03*
Y010736D03*
Y010481D03*
X01139Y008814D03*
Y008559D03*
Y008048D03*
Y008304D03*
X010665D03*
Y008048D03*
Y008559D03*
Y008814D03*
X01379Y016464D03*
Y016209D03*
Y015698D03*
Y015954D03*
X013065D03*
Y015698D03*
Y016209D03*
Y016464D03*
G54D24*
X011175Y013739D03*
X012079Y010608D03*
X011175Y008687D03*
X013575Y016337D03*
G54D25*
X011175Y013229D03*
X012079Y011118D03*
X011175Y008177D03*
X013575Y015826D03*
G54D26*
X009641Y005255D03*
X009896D03*
X010407D03*
X010151D03*
Y00453D03*
X010407D03*
X009896D03*
X009641D03*
G54D27*
X009768Y00504D03*
G54D28*
X010278Y00504D03*
G54D29*
X010027Y002933D03*
Y003093D03*
X010457Y002776D03*
Y002616D03*
G54D30*
X010313Y003021D03*
X01015Y002694D03*
G54D31*
X020361Y013441D03*
G54D32*
X020065Y013D03*
X020262D03*
X020459D03*
X020656D03*
X020065Y013881D03*
X020262D03*
X020459D03*
X020656D03*
G54D33*
X020128Y01134D02*
X021533D01*
X01983Y011638D02*
X020128Y01134D01*
X01983Y011638D02*
Y01249D01*
X02192Y012309D02*
X022871D01*
X021533Y011922D02*
X02192Y012309D01*
X021533Y01134D02*
Y011922D01*
Y010868D02*
X0221D01*
X022244Y010724*
X022871*
X010422Y015768D02*
Y015769D01*
X0221Y012873D02*
Y014477D01*
X01983Y01249D02*
X020065Y012725D01*
Y012984*
G54D34*
X022871Y011517D02*
Y011778D01*
Y011255D02*
Y011517D01*
X02356*
X006691Y015637D02*
X007131D01*
X00954Y01764D02*
X010219D01*
X010417Y017441*
Y016601D02*
Y017441D01*
X007558Y002915D02*
X008675D01*
X007552Y002909D02*
X007558Y002915D01*
X007552Y004136D02*
X008029D01*
X008226Y004333*
X008733*
X007794Y005081D02*
X008733D01*
X007552Y005323D02*
X007794Y005081D01*
X009727D02*
X009768Y00504D01*
X008733Y005081D02*
X009727D01*
X012431Y006083D02*
Y00643D01*
X002147Y01456D02*
Y017853D01*
Y01456D02*
X002451Y014256D01*
X002768*
X00146Y019667D02*
X001811Y020019D01*
X002147*
X00146Y014031D02*
Y019667D01*
Y014031D02*
X002022Y013469D01*
X002768*
X002799Y010841D02*
X003406Y011448D01*
X003131Y016617D02*
Y017853D01*
Y016617D02*
X003406Y016342D01*
Y011448D02*
Y016342D01*
X005839Y001784D02*
X006407Y002352D01*
Y004866*
X006864Y005323*
X007552*
X003528Y001784D02*
X005839D01*
X003001Y002311D02*
X003528Y001784D01*
X003001Y002311D02*
Y003893D01*
X001865Y005028D02*
X003001Y003893D01*
X026491Y010055D02*
Y010492D01*
X001865Y005028D02*
Y009907D01*
X002799Y010841*
X020212Y004742D02*
X023342D01*
X01519Y011047D02*
Y011442D01*
Y008836D02*
Y009231D01*
X011174Y006083D02*
X011192Y006101D01*
X008678Y002433D02*
Y002912D01*
X008675Y002915D02*
X008678Y002912D01*
X011192Y006101D02*
Y006529D01*
X007671Y017814D02*
X008098D01*
X008354Y017559*
Y015937D02*
Y017559D01*
X00954Y01764D02*
Y018502D01*
X013575Y016337D02*
X014031Y016792D01*
Y017721*
Y018532*
X023317Y004767D02*
Y005474D01*
X010728Y018207D02*
Y018697D01*
X011991Y013739D02*
X013575Y015323D01*
X011175Y013739D02*
X011991D01*
X013575Y015323D02*
Y015826D01*
X023567Y011055D02*
X024741D01*
X026491D02*
Y011562D01*
X00954Y018502D02*
X010178Y01914D01*
X013422*
X014031Y018532*
X023572Y012055D02*
X024741D01*
X021452Y010057D02*
X02356D01*
X024739*
X019059Y013441D02*
X020361D01*
G54D35*
X0221Y012873D02*
X022425D01*
X021654D02*
X0221D01*
X021069Y012125D02*
Y012593D01*
X021348Y012873*
X021654*
X019059Y012976D02*
Y0134D01*
X021654Y012873D02*
D01*
X008858Y015653D02*
Y01764D01*
X0202Y008506D02*
X02333D01*
X015133Y002964D02*
X018263D01*
X020212Y00297D02*
X023342D01*
X0202Y006734D02*
X02333D01*
X004219Y002972D02*
Y014763D01*
X005596Y016139*
Y018207*
X006448Y019059*
X014068Y001055D02*
Y005106D01*
X016626Y004736D02*
Y006894D01*
X015133Y004736D02*
X016626D01*
X018263*
X006448Y019059D02*
X009246D01*
X017987Y013972D02*
X019059D01*
X014068Y005106D02*
X017153Y008191D01*
Y013139*
X017987Y013972*
X026485Y012061D02*
Y01256D01*
Y012061D02*
X026491Y012055D01*
X019059Y013441D02*
X019077Y013422D01*
X016788Y014112D02*
Y015409D01*
G54D36*
X020316Y011679D02*
X020803D01*
X02077Y013981D02*
X020942D01*
X020478Y01468D02*
X021411D01*
X021573Y014517*
X020258Y014459D02*
X020478Y01468D01*
X020258Y013863D02*
Y014459D01*
X020455Y013863D02*
Y014372D01*
X020559Y014477*
X021016*
X021208Y014284*
X020652Y013863D02*
X02077Y013981D01*
X020113Y011881D02*
X020316Y011679D01*
X020113Y011881D02*
Y01249D01*
X020656Y013D02*
Y013157D01*
X020372Y013441D02*
X020656Y013157D01*
G54D37*
X007041Y017282D02*
X007671D01*
X012037Y015965D02*
X012437D01*
X012681Y016209*
X013065*
X012037Y016359D02*
X012547D01*
X012652Y016464*
X013065*
X009702Y015965D02*
X010422D01*
X00939Y015653D02*
X009702Y015965D01*
X011458Y017843D02*
X013035D01*
X011458Y017478D02*
Y017843D01*
Y018207*
X013065Y016464D02*
Y016836D01*
X013567Y017338*
Y017843*
X009959Y016359D02*
X010422D01*
X009773Y016545D02*
X009959Y016359D01*
X00939Y016545D02*
X009773D01*
X011458Y016279D02*
Y017478D01*
Y016279D02*
X011575Y016162D01*
X012037*
X007198Y014121D02*
Y014375D01*
X007317Y014494*
X007198Y013483D02*
Y013728D01*
X007788D02*
X008416D01*
X008591Y013904*
X0089*
X007198Y013483D02*
X007368Y013313D01*
X007317Y014494D02*
X0089D01*
X007368Y013313D02*
X0089D01*
X007788Y011602D02*
X008439D01*
X008615Y011778*
X0089*
X007788Y009471D02*
X008376D01*
X008635Y00973*
X0089*
X007198Y009266D02*
Y009471D01*
Y009266D02*
X007324Y00914D01*
X0089*
X007788Y007346D02*
X008401D01*
X008659Y007604*
X0089*
X007198Y007117D02*
Y007346D01*
Y007117D02*
X007301Y007014D01*
X0089*
X007198Y007739D02*
Y008049D01*
X007343Y008195*
X0089*
X007198Y009864D02*
Y010198D01*
X00732Y010321*
X0089*
X007198Y011334D02*
Y011602D01*
Y011334D02*
X007345Y011187D01*
X0089*
X007198Y011995D02*
Y012226D01*
X00734Y012368*
X0089*
X009432Y013904D02*
X009469Y013867D01*
X009432Y00914D02*
X009798D01*
X009771Y007014D02*
X010138Y00738D01*
X009432Y007014D02*
X009771D01*
X010147Y008304D02*
X010583D01*
X009432Y011778D02*
X009877D01*
X010097Y011557*
X009867Y00973D02*
X010097Y009961D01*
X009432Y00973D02*
X009867D01*
X010097Y011557D02*
Y013867D01*
X009469D02*
X010097D01*
X010665*
X009432Y014494D02*
X00975D01*
X009432Y013313D02*
X00975D01*
X009432Y012368D02*
X00975D01*
X009432Y011187D02*
X00975D01*
X009432Y010321D02*
X00975D01*
X009432Y008195D02*
X00975D01*
X009432Y007604D02*
X00975D01*
X010665Y00756D02*
Y008048D01*
Y00756D02*
X011101Y007124D01*
X010407Y005255D02*
Y005419D01*
X010643Y005655*
Y006083*
X011174D02*
X0119D01*
X009641Y004369D02*
Y00453D01*
X009896Y004297D02*
Y00453D01*
X010151Y004326D02*
Y00453D01*
Y004326D02*
X010381Y004096D01*
X010844D02*
X011138Y004389D01*
X010313Y003021D02*
Y00361D01*
X01015Y002421D02*
X0103Y002271D01*
X01015Y002421D02*
Y002694D01*
X0119Y005862D02*
Y006083D01*
Y005862D02*
X012044Y005718D01*
X011369Y005419D02*
X011587Y005202D01*
X012004*
X010407Y005419D02*
X011369D01*
X010665Y008814D02*
Y009205D01*
X009798Y00914D02*
X010138Y0088D01*
X010341Y009894D02*
X01053Y010083D01*
X011019*
X010341Y008719D02*
X0105Y008559D01*
X010665*
X010408Y013612D02*
X010665D01*
X008272Y003609D02*
X009204D01*
X0103Y002271D02*
X011963D01*
X012085Y002394*
Y002758*
X012044Y005718D02*
X01253D01*
X012733Y005515*
X012004Y004374D02*
X012565D01*
X012733Y004542*
Y005515*
X009896Y004297D02*
X010025Y004168D01*
Y003899D02*
Y004168D01*
X009493Y004222D02*
X009641Y004369D01*
X009493Y003899D02*
Y004222D01*
X009204Y003609D02*
X009493Y003899D01*
X010025D02*
X010313Y00361D01*
X011138Y004921D02*
X011462D01*
X011598Y004785*
Y004096D02*
Y004785D01*
Y004096D02*
X011719Y003974D01*
X01253*
X012733Y003771*
Y00292D02*
Y003771D01*
X012572Y002758D02*
X012733Y00292D01*
X012085Y002758D02*
X012572D01*
X011864Y010481D02*
Y010736D01*
Y010991*
X01139Y008304D02*
Y008814D01*
X011693*
X010407Y00453D02*
X010532D01*
X010922Y004921*
X011138*
X014156Y011736D02*
X014615D01*
X014714Y011835*
X01519*
X014156Y010945D02*
Y011145D01*
Y012326D02*
X015573D01*
X01578Y012119*
Y011835D02*
Y012119D01*
X014156Y010945D02*
X014355Y010746D01*
X015612*
X01578Y010914*
Y011442*
X0103Y013504D02*
X010408Y013612D01*
X014156Y010161D02*
X015548D01*
X01578Y009929*
Y009624D02*
Y009929D01*
X014156Y008658D02*
Y00898D01*
Y008658D02*
X014339Y008475D01*
X015612*
X01578Y008643*
Y009231*
X014156Y00957D02*
X014639D01*
X014693Y009624*
X01519*
X013625Y010705D02*
Y011145D01*
X0134Y010481D02*
X013625Y010705D01*
X012589Y010481D02*
X0134D01*
X011693Y008814D02*
X011864Y008985D01*
Y010481*
X010381Y004096D02*
X010613D01*
X010844*
X010341Y008719D02*
Y009408D01*
Y009894*
X011156Y003558D02*
X011585D01*
X012013*
X010422Y016162D02*
X011007D01*
X011111Y016058*
Y015896D02*
Y016058D01*
X011105Y015363D02*
Y015943D01*
X015436Y016734D02*
Y020055D01*
X012589Y010991D02*
X012816D01*
X012589Y010736D02*
X013095D01*
X013625Y012326D02*
Y012935D01*
X014071Y013382*
X013666Y014112D02*
X01395D01*
X014071Y01399*
Y013382D02*
Y01399D01*
X020068Y017059D02*
Y020055D01*
X007041Y017814D02*
Y018193D01*
X00734Y018491*
X008435*
X007663Y015289D02*
Y015637D01*
X007041Y016276D02*
Y017282D01*
Y016276D02*
X007218Y016099D01*
X007826*
X008057Y015868*
Y015463D02*
Y015868D01*
X0103Y012003D02*
Y013504D01*
Y012003D02*
X010536Y011767D01*
X011019*
X012791Y015954D02*
X013065D01*
X012895Y008962D02*
X013607D01*
X012589Y011247D02*
Y013481D01*
X012287Y013585D02*
X015436Y016734D01*
X012287Y011963D02*
Y013585D01*
X011019Y011767D02*
X012091D01*
X012287Y011963*
X012816Y010991D02*
X012895Y01107D01*
X013194Y011736D02*
X013625D01*
X012895Y01107D02*
Y013341D01*
X013666Y014112*
X013095Y010736D02*
X013194Y010835D01*
X012571Y015328D02*
Y015734D01*
X012791Y015954*
X012035Y015361D02*
Y015742D01*
X023317Y004767D02*
X023342Y004742D01*
X010926Y016527D02*
Y017478D01*
Y016527D02*
X011435Y016018D01*
Y015288D02*
Y016018D01*
X010422Y01545D02*
Y015768D01*
X013065Y015328D02*
Y015698D01*
X007663Y015289D02*
X00807Y014882D01*
X011557*
X012035Y015361*
X008057Y015463D02*
X008394Y015126D01*
X010868*
X011105Y015363*
X010138Y00738D02*
Y007867D01*
Y0088*
X010097Y010746D02*
Y011557D01*
X007178Y010746D02*
X010097D01*
Y009961D02*
Y010746D01*
X006772Y010341D02*
X007178Y010746D01*
X006772Y008678D02*
Y010341D01*
Y008678D02*
X007056Y008394D01*
X013624Y00957D02*
X013625D01*
X012855D02*
X013624D01*
X012559Y009298D02*
Y010451D01*
Y009298D02*
X012895Y008962D01*
X012855Y010161D02*
X013625D01*
X010097Y009408D02*
X010341D01*
X020537Y012125D02*
D01*
X020942Y013981D02*
X020951Y01399D01*
X025142Y013625D02*
Y015085D01*
X012589Y013481D02*
X014852Y015744D01*
X018753*
X020068Y017059*
X024739Y010057D02*
X024741Y010055D01*
G54D38*
X011458Y017843D02*
D01*
X009229Y002933D02*
X010027D01*
X009803Y003093D02*
X010027D01*
X009651Y003244D02*
X009803Y003093D01*
X01044Y002776D02*
X010457D01*
X01044D02*
X010708Y003044D01*
X011138*
Y003575D02*
X011156Y003558D01*
X012589Y010713D02*
Y010736D01*
X010457Y002616D02*
X010746D01*
X013607Y008962D02*
X013625Y00898D01*
X022425Y013404D02*
Y014598D01*
X019546Y014274D02*
Y01468D01*
X021573Y014517D02*
X021817Y014274D01*
X020357Y014842D02*
X021735D01*
X021979Y015044D02*
X022425Y014598D01*
X019546Y01468D02*
X019911Y015044D01*
X021979*
X021735Y014842D02*
X0221Y014477D01*
X021817Y013909D02*
Y014274D01*
X021208Y01385D02*
Y014284D01*
Y01385D02*
X021654Y013404D01*
X020061Y014546D02*
X020357Y014842D01*
X020061Y013863D02*
Y014546D01*
X019754Y013863D02*
X020061D01*
X019645Y013972D02*
X019754Y013863D01*
X019059Y013972D02*
X019645D01*
X020113Y01249D02*
X020262Y012639D01*
X020459Y01255D02*
X020537Y012472D01*
Y012125D02*
Y012472D01*
X020262Y012639D02*
Y013D01*
X020459Y01255D02*
Y013D01*
G54D39*
X002768Y014256D03*
Y013469D03*
Y015043D03*
Y015831D03*
X002809Y006585D03*
Y007372D03*
X002799Y010054D03*
Y010841D03*
X024777Y004371D03*
Y005158D03*
Y006733D03*
Y005946D03*
G54D40*
X025036Y001055D03*
X018036D03*
X025036Y020055D03*
X016436D03*
G54D41*
X024036Y001055D03*
X023068D03*
X022083D03*
X021068D03*
X020068D03*
X013068D03*
X014068D03*
X015083D03*
X016068D03*
X017036D03*
X012068D03*
X011068D03*
X020068Y020055D03*
X021068D03*
X022083D03*
X023068D03*
X024036D03*
X019068D03*
X018068D03*
X007468D03*
X008468D03*
X009468D03*
X010468D03*
X015436D03*
X014468D03*
X013483D03*
X012468D03*
X011468D03*
G54D42*
X004219Y002972D03*
X001857D03*
G54D43*
X003038Y001083D03*
G54D44*
X021533Y01134D03*
Y010868D03*
X005393Y006326D03*
X022465Y008516D03*
X012855Y00957D03*
Y010161D03*
G54D45*
X02356Y011517D03*
X018248Y011719D03*
X019059Y012976D03*
X016626Y006894D03*
X006691Y015637D03*
X008101Y014121D03*
Y011995D03*
Y009864D03*
Y007739D03*
X00975Y014494D03*
Y013313D03*
Y012368D03*
Y011187D03*
Y010321D03*
Y008195D03*
Y007604D03*
X009651Y003244D03*
X010665Y009205D03*
X008272Y003609D03*
X010613Y004096D03*
X012431Y00643D03*
X026491Y010492D03*
X01519Y011047D03*
Y008836D03*
X011864Y009733D03*
X021817Y003893D03*
X008678Y002433D03*
X011192Y006529D03*
X010665Y007664D03*
X011585Y003558D03*
X011111Y015896D03*
X008435Y018491D03*
X013666Y014112D03*
X008354Y015937D03*
X010746Y002616D03*
X013194Y011736D03*
Y010835D03*
X012571Y015328D03*
X014031Y017721D03*
X023317Y005474D03*
X009246Y019059D03*
X010728Y018697D03*
X011435Y015288D03*
X010422Y01545D03*
X013065Y015328D03*
X010138Y007867D03*
X007056Y008394D03*
X023572Y012055D03*
X023567Y011055D03*
X026491Y011562D03*
X026485Y01256D03*
X010097Y009408D03*
X017153Y013139D03*
X016788Y014112D03*
X020951Y01399D03*
X021208Y014284D03*
X019546Y014274D03*
X024615Y015126D03*
X025142Y015085D03*
Y013625D03*
X016788Y015409D03*
X021452Y010057D03*
X02356D03*
X021817Y013909D03*
G54D46*
X020803Y011679D03*
X020372Y013441D03*
M02*