%FSTAX24Y24*%
%MOIN*%
%SFA1B1*%

%IPPOS*%
%AMD104*
4,1,8,0.016700,0.070800,-0.016700,0.070800,-0.035400,0.052100,-0.035400,-0.052100,-0.016700,-0.070800,0.016700,-0.070800,0.035400,-0.052100,0.035400,0.052100,0.016700,0.070800,0.0*
1,1,0.037400,0.016700,0.052100*
1,1,0.037400,-0.016700,0.052100*
1,1,0.037400,-0.016700,-0.052100*
1,1,0.037400,0.016700,-0.052100*
%
%AMD105*
4,1,8,0.070800,-0.016700,0.070800,0.016700,0.052100,0.035400,-0.052100,0.035400,-0.070800,0.016700,-0.070800,-0.016700,-0.052100,-0.035400,0.052100,-0.035400,0.070800,-0.016700,0.0*
1,1,0.037400,0.052100,-0.016700*
1,1,0.037400,0.052100,0.016700*
1,1,0.037400,-0.052100,0.016700*
1,1,0.037400,-0.052100,-0.016700*
%
%ADD43C,0.031500*%
%ADD87R,0.035400X0.033500*%
%ADD88R,0.033500X0.035400*%
%ADD89R,0.153900X0.053900*%
%ADD95R,0.082700X0.047200*%
%ADD96R,0.035400X0.035400*%
%ADD99R,0.035400X0.035400*%
%ADD100R,0.047200X0.082700*%
%ADD101C,0.055100*%
%ADD102C,0.082700*%
%ADD103R,0.082700X0.082700*%
G04~CAMADD=104~8~0.0~0.0~709.0~1417.0~187.0~0.0~15~0.0~0.0~0.0~0.0~0~0.0~0.0~0.0~0.0~0~0.0~0.0~0.0~0.0~709.0~1417.0*
%ADD104D104*%
G04~CAMADD=105~8~0.0~0.0~709.0~1417.0~187.0~0.0~15~0.0~0.0~0.0~0.0~0~0.0~0.0~0.0~0.0~0~0.0~0.0~0.0~270.0~1416.0~708.0*
%ADD105D105*%
%ADD106C,0.035400*%
%ADD107R,0.033900X0.043900*%
%ADD108R,0.043900X0.033900*%
%ADD109R,0.063000X0.055100*%
%LNvapeixshield-1*%
%LPD*%
G54D43*
X030097Y039408D03*
X043804Y042958D03*
X046485Y04256D03*
X046491Y041562D03*
X043567Y040055D03*
Y041055D03*
X043572Y042055D03*
X027056Y038394D03*
X030138Y037867D03*
X033065Y045328D03*
X030422Y04545D03*
X031435Y045288D03*
X030728Y048697D03*
X029246Y049059D03*
X043317Y035474D03*
X041452Y040057D03*
X034031Y047721D03*
X032571Y045328D03*
X033194Y040835D03*
Y041736D03*
X030746Y032616D03*
X037194Y042044D03*
X040124Y044001D03*
X028354Y045937D03*
X033666Y044112D03*
X028435Y048491D03*
X031111Y045896D03*
X031585Y033558D03*
X030665Y037664D03*
X031192Y036529D03*
X028678Y032433D03*
X041817Y033893D03*
X039667Y044501D03*
X031864Y039733D03*
X03519Y038836D03*
Y041047D03*
X046491Y040492D03*
X037732Y042501D03*
X037228Y044511D03*
X042871Y044001D03*
Y044501D03*
X032431Y03643D03*
X030613Y034096D03*
X028272Y033609D03*
X030665Y039205D03*
X029651Y033244D03*
X02975Y037604D03*
Y038195D03*
Y040321D03*
Y041187D03*
Y042368D03*
Y043313D03*
Y044494D03*
X028101Y037739D03*
Y039864D03*
Y041995D03*
Y044121D03*
X026691Y045637D03*
X036626Y036894D03*
G54D87*
X039238Y034203D03*
Y033671D03*
X038248Y038818D03*
Y039349D03*
Y040399D03*
Y040931D03*
G54D88*
X043056Y032839D03*
X042524D03*
G54D89*
X044736Y040055D03*
Y041055D03*
Y042055D03*
X046486Y040055D03*
Y041055D03*
Y042055D03*
G54D95*
X039084Y036883D03*
G54D96*
X038336Y036883D03*
G54D99*
X035126Y034154D03*
G54D100*
X035126Y033406D03*
G54D101*
X044777Y035946D03*
Y036733D03*
Y035158D03*
Y034371D03*
X022799Y040841D03*
Y040054D03*
X022809Y037372D03*
Y036585D03*
X022768Y045831D03*
Y045043D03*
Y043468D03*
Y044256D03*
G54D102*
X031468Y050055D03*
X032468D03*
X033483D03*
X034468D03*
X035436D03*
X030468D03*
X029468D03*
X028468D03*
X027468D03*
X038068D03*
X039068D03*
X044036D03*
X043068D03*
X042083D03*
X041068D03*
X040068D03*
X031068Y031055D03*
X032068D03*
X037036D03*
X036068D03*
X035083D03*
X034068D03*
X033068D03*
X040068D03*
X041068D03*
X042083D03*
X043068D03*
X044036D03*
G54D103*
X036436Y050055D03*
X045036D03*
X038036Y031055D03*
X045036D03*
G54D104*
X021857Y032972D03*
X024219D03*
G54D105*
X023038Y031083D03*
G54D106*
X032855Y040161D03*
Y03957D03*
X042465Y038516D03*
X025393Y036326D03*
G54D107*
X038868Y035959D03*
X038494Y035132D03*
X039242D03*
G54D108*
X039867Y040049D03*
X03904Y040423D03*
Y039675D03*
G54D109*
X036139Y033234D03*
Y033903D03*
M02*