%FSTAX24Y24*%
%MOIN*%
%SFA1B1*%

%IPPOS*%
%ADD34C,0.008000*%
%ADD36C,0.019700*%
%ADD37C,0.011800*%
%ADD38C,0.039400*%
%ADD39C,0.031500*%
%ADD41C,0.078700*%
%ADD42R,0.078700X0.078700*%
%ADD46C,0.027600*%
%LNvapeixshield-1*%
%LPD*%
G54D34*
X032571Y045328D02*
D01*
G54D36*
X024663Y045896D02*
X026367Y047599D01*
X024663Y037056D02*
Y045896D01*
X026367Y047599D02*
X031435D01*
X032468Y048632*
X026119Y048041D02*
X030863D01*
X024219Y046142D02*
X026119Y048041D01*
X024219Y036608D02*
Y046142D01*
X04137Y035028D02*
X041817Y034582D01*
X025799Y035028D02*
X04137D01*
X024219Y036608D02*
X025799Y035028D01*
X024663Y037056D02*
X025393Y036326D01*
X030863Y048041D02*
X031468Y048645D01*
X032468Y048632D02*
Y050055D01*
X031468Y048645D02*
Y050055D01*
X041817Y033893D02*
Y034582D01*
G54D37*
X041695Y042246D02*
X042152Y041789D01*
Y040595D02*
Y041789D01*
X041898Y040341D02*
X042152Y040595D01*
X039399Y042246D02*
X041695D01*
X038451Y043195D02*
X039399Y042246D01*
X041817Y043909D02*
X044169D01*
X041452Y036772D02*
Y040057D01*
Y036772D02*
X042911Y035312D01*
Y033163D02*
Y035312D01*
X042141Y032393D02*
X042911Y033163D01*
X033828Y032393D02*
X042141D01*
X033068Y031632D02*
X033828Y032393D01*
X033068Y031055D02*
Y031632D01*
X041898Y036894D02*
Y040341D01*
X039068Y048987D02*
Y050055D01*
X035572Y045491D02*
X039068Y048987D01*
X035572Y043212D02*
Y045491D01*
X039181Y048451D02*
X041614D01*
X03622Y045491D02*
X039181Y048451D01*
X03622Y043057D02*
Y045491D01*
X044615Y044842D02*
X045993Y043463D01*
X041766Y044842D02*
X044615D01*
X041208Y044284D02*
X041766Y044842D01*
X043276Y045734D02*
X044036Y046494D01*
X039059Y045734D02*
X043276D01*
X038451Y045126D02*
X039059Y045734D01*
X044615Y044842D02*
Y045126D01*
X045709Y033609D02*
Y043057D01*
X044412Y044355D02*
X045709Y043057D01*
X041735Y044355D02*
X044412D01*
X045993Y033204D02*
Y043463D01*
X040951Y04399D02*
X04137D01*
X041735Y044355*
X029408Y038719D02*
X030097Y039408D01*
X026245Y038719D02*
X029408D01*
X034031Y045328D02*
X034355Y045004D01*
X033065Y045328D02*
X034031D01*
X032774Y03957D02*
X032855D01*
X03249Y039854D02*
X032774Y03957D01*
X03249Y039854D02*
Y041031D01*
X033194Y041736*
X044036Y046494D02*
Y050055D01*
X029022Y037604D02*
X02975D01*
X028232Y038394D02*
X029022Y037604D01*
X027056Y038394D02*
X028232D01*
X028962Y039448D02*
X029489Y039976D01*
X026732Y039448D02*
X028962D01*
X02588Y0403D02*
X026732Y039448D01*
X029043Y039043D02*
X029703Y039703D01*
X026488Y039043D02*
X029043D01*
X025474Y040057D02*
X026488Y039043D01*
X029489Y039976D02*
X03107D01*
X031435Y039611*
Y036888D02*
Y039611D01*
X030856Y039703D02*
X03107Y039489D01*
X029703Y039703D02*
X030856D01*
X03107Y03807D02*
Y039489D01*
X033194Y040835D02*
X035572Y043212D01*
X033666Y040503D02*
X03622Y043057D01*
X033666Y039408D02*
Y040503D01*
X032449Y039124D02*
X033382D01*
X032165Y039408D02*
X032449Y039124D01*
X032165Y039408D02*
Y041476D01*
X033382Y039124D02*
X033666Y039408D01*
X032165Y041476D02*
X034355Y043666D01*
Y045004*
X032866Y045624D02*
X034384D01*
X034963Y045044*
Y043505D02*
Y045044D01*
X033194Y041736D02*
X034963Y043505D01*
X032571Y045328D02*
X032866Y045624D01*
X033065Y045288D02*
Y045328D01*
X044087Y031987D02*
X045709Y033609D01*
X041614Y048451D02*
X042083Y04892D01*
Y050055*
X038451Y043195D02*
Y045126D01*
X041898Y036894D02*
X043317Y035474D01*
X042263Y033568D02*
Y034826D01*
X041654Y035434D02*
X042263Y034826D01*
X032889Y035434D02*
X041654D01*
X029395Y034596D02*
X031233Y032757D01*
X025542Y034596D02*
X029395D01*
X023771Y036367D02*
X025542Y034596D01*
X042587Y033406D02*
Y035109D01*
X041898Y035799D02*
X042587Y035109D01*
X039025Y035799D02*
X041898D01*
X041938Y032757D02*
X042587Y033406D01*
X031233Y032757D02*
X041938D01*
X041776Y033082D02*
X042263Y033568D01*
X03206Y033082D02*
X041776D01*
X031585Y033558D02*
X03206Y033082D01*
X037843Y036981D02*
X039025Y035799D01*
X043236Y032352D02*
X043763D01*
X042083Y0312D02*
X043236Y032352D01*
X042083Y031055D02*
Y0312D01*
X043068Y031055D02*
Y031494D01*
X04356Y031987*
X044087*
X045385Y033974D02*
Y042693D01*
X043763Y032352D02*
X045385Y033974D01*
X044036Y031246D02*
X045993Y033204D01*
X044036Y031055D02*
Y031246D01*
X026772Y046302D02*
X034152D01*
X02588Y045409D02*
X026772Y046302D01*
X02588Y0403D02*
Y045409D01*
X025474Y045572D02*
X02661Y046707D01*
X025474Y040057D02*
Y045572D01*
X02661Y046707D02*
X032553D01*
X025109Y045774D02*
X026488Y047153D01*
X025109Y039854D02*
Y045774D01*
X026488Y047153D02*
X031963D01*
X025109Y039854D02*
X026245Y038719D01*
X031435Y036888D02*
X032889Y035434D01*
X031963Y047153D02*
X033483Y048674D01*
X023771Y036367D02*
Y046359D01*
X027468Y050055*
X044169Y043909D02*
X045385Y042693D01*
X038068Y048595D02*
Y050055D01*
X035369Y045896D02*
X038068Y048595D01*
X031111Y045896D02*
X035369D01*
X034152Y046302D02*
X036436Y048585D01*
Y050055*
X032553Y046707D02*
X034468Y048622D01*
X030665Y037664D02*
X03107Y03807D01*
X033483Y048674D02*
Y050055D01*
X034468Y048622D02*
Y050055D01*
X037843Y036981D02*
Y041395D01*
X038167Y041719*
G54D38*
X041854Y042939D02*
X042546Y042246D01*
Y038597D02*
Y042246D01*
X042465Y038516D02*
X042546Y038597D01*
X039132Y044631D02*
X039789Y045288D01*
X039132Y043536D02*
X039732Y042936D01*
X039132Y043536D02*
Y044631D01*
X039789Y045288D02*
X043966D01*
X039732Y042936D02*
X041851D01*
X037843Y043139D02*
Y04545D01*
X036626Y041922D02*
X037843Y043139D01*
X036626Y036894D02*
Y041922D01*
X043966Y045288D02*
X045036Y046358D01*
Y050055*
X043068Y046701D02*
Y050055D01*
X042628Y046261D02*
X043068Y046701D01*
X038654Y046261D02*
X042628D01*
X037843Y04545D02*
X038654Y046261D01*
G54D39*
X032855Y03957D03*
X042465Y038516D03*
X025393Y036326D03*
G54D41*
X031468Y050055D03*
X032468D03*
X033483D03*
X034468D03*
X027468D03*
X038068D03*
X039068D03*
X044036D03*
X043068D03*
X042083D03*
X033068Y031055D03*
X042083D03*
X043068D03*
X044036D03*
G54D42*
X036436Y050055D03*
X045036D03*
G54D46*
X041817Y043909D03*
X041452Y040057D03*
X045142Y043625D03*
X044615Y045126D03*
X041208Y044284D03*
X040951Y04399D03*
X030097Y039408D03*
X027056Y038394D03*
X033065Y045328D03*
X043317Y035474D03*
X032571Y045328D03*
X033194Y040835D03*
Y041736D03*
X031111Y045896D03*
X031585Y033558D03*
X030665Y037664D03*
X041817Y033893D03*
X02975Y037604D03*
X036626Y036894D03*
X038248Y041719D03*
M02*