%FSTAX24Y24*%
%MOIN*%
%SFA1B1*%

%IPPOS*%
%AMD40*
4,1,8,0.016700,0.068900,-0.016700,0.068900,-0.033400,0.052200,-0.033400,-0.052200,-0.016700,-0.068900,0.016700,-0.068900,0.033400,-0.052200,0.033400,0.052200,0.016700,0.068900,0.0*
1,1,0.033400,0.016700,0.052200*
1,1,0.033400,-0.016700,0.052200*
1,1,0.033400,-0.016700,-0.052200*
1,1,0.033400,0.016700,-0.052200*
%
%AMD41*
4,1,8,0.068900,-0.016700,0.068900,0.016700,0.052200,0.033400,-0.052200,0.033400,-0.068900,0.016700,-0.068900,-0.016700,-0.052200,-0.033400,0.052200,-0.033400,0.068900,-0.016700,0.0*
1,1,0.033400,0.052200,-0.016700*
1,1,0.033400,0.052200,0.016700*
1,1,0.033400,-0.052200,0.016700*
1,1,0.033400,-0.052200,-0.016700*
%
%ADD10R,0.015700X0.007900*%
%ADD11R,0.019700X0.019700*%
%ADD12R,0.037200X0.039400*%
%ADD13R,0.037300X0.039400*%
%ADD14R,0.011800X0.027600*%
%ADD15R,0.039400X0.037200*%
%ADD16R,0.039400X0.037300*%
%ADD17R,0.027600X0.011800*%
%ADD18R,0.031500X0.029500*%
%ADD19R,0.029500X0.031500*%
%ADD20R,0.150000X0.050000*%
%ADD21R,0.061000X0.051200*%
%ADD22R,0.047200X0.098400*%
%ADD23O,0.090600X0.023600*%
%ADD24O,0.066900X0.011800*%
%ADD25R,0.051200X0.059100*%
%ADD26R,0.078700X0.043300*%
%ADD27R,0.031500X0.031500*%
%ADD28R,0.035400X0.027600*%
%ADD29C,0.039400*%
%ADD30R,0.031500X0.031500*%
%ADD31R,0.043300X0.078700*%
%ADD32C,0.011800*%
%ADD33C,0.019700*%
%ADD34C,0.039400*%
%ADD35C,0.010000*%
%ADD36C,0.008000*%
%ADD37C,0.051200*%
%ADD38C,0.078700*%
%ADD39R,0.078700X0.078700*%
G04~CAMADD=40~8~0.0~0.0~669.0~1378.0~167.0~0.0~15~0.0~0.0~0.0~0.0~0~0.0~0.0~0.0~0.0~0~0.0~0.0~0.0~0.0~669.0~1378.0*
%ADD40D40*%
G04~CAMADD=41~8~0.0~0.0~669.0~1378.0~167.0~0.0~15~0.0~0.0~0.0~0.0~0~0.0~0.0~0.0~0.0~0~0.0~0.0~0.0~270.0~1378.0~668.0*
%ADD41D41*%
%ADD42C,0.027600*%
%ADD43C,0.031500*%
%LNvapeixshield-1*%
%LPD*%
G36*
X020429Y050936D02*
X020471D01*
X045679*
X046269Y050346*
Y045604*
X046279Y045553*
X046307Y045511*
X047419Y044399*
Y032615*
X046306Y031503*
X046278Y03146*
X046268Y03141*
Y030429*
X04624Y030362*
X046162Y03026*
X04606Y030182*
X046027Y030168*
X020577*
X020569*
X02052Y03017*
X020494Y030171*
X020445Y030175*
X020407Y030179*
X020375Y030187*
X02035Y030195*
X020315Y030202*
X020234Y030256*
X02018Y030337*
X020162Y030429*
X020163Y030436*
X020164Y030445*
Y030452*
X020163Y030456*
Y050708*
X020164*
X020179Y050784*
X020233Y050865*
X020314Y050919*
X020374Y050932*
X020422Y050936*
X020429*
G37*
%LNvapeixshield-2*%
%LPC*%
G36*
X035436Y050532D02*
X035313Y050515D01*
X035198Y050468*
X035099Y050392*
X035024Y050293*
X034978Y050183*
X034966Y050178*
X034938*
X034926Y050183*
X03488Y050293*
X034805Y050392*
X034706Y050468*
X034591Y050515*
X034468Y050532*
X034344Y050515*
X034229Y050468*
X034131Y050392*
X034055Y050293*
X034007Y050178*
X034001Y050128*
X03395*
X033944Y050178*
X033896Y050293*
X03382Y050392*
X033722Y050468*
X033607Y050515*
X033483Y050532*
X03336Y050515*
X033245Y050468*
X033147Y050392*
X033071Y050293*
X033023Y050178*
X033007Y050055*
X033023Y049932*
X033071Y049817*
X033147Y049718*
X033245Y049642*
X03336Y049595*
X033483Y049579*
X033607Y049595*
X033722Y049642*
X03382Y049718*
X033896Y049817*
X033944Y049932*
X03395Y049982*
X034001*
X034007Y049932*
X034055Y049817*
X034131Y049718*
X034229Y049642*
X034344Y049595*
X034468Y049579*
X034591Y049595*
X034706Y049642*
X034805Y049718*
X03488Y049817*
X034926Y049927*
X034938Y049932*
X034966*
X034978Y049927*
X035024Y049817*
X035099Y049718*
X035198Y049642*
X035296Y049602*
Y046792*
X034078Y045574*
X034028Y045595*
Y045648*
X03384*
Y045539*
X033972*
X033992Y045489*
X032188Y043684*
X032157Y043638*
X032147Y043585*
Y042021*
X032033Y041907*
X031258*
X031215Y041963*
X031158Y042008*
X031091Y042035*
X031019Y042045*
X030947Y042035*
X03088Y042008*
X030822Y041963*
X030779Y041907*
X030594*
X03044Y042061*
Y042916*
X030448Y042963*
X03085*
X030881*
X030899Y042964*
X031173*
Y042963*
X031606*
Y043452*
X031627*
Y043562*
X03139*
Y043662*
X031627*
Y043707*
Y043817*
X03139*
Y043917*
X031627*
Y044026*
X031472*
X031225*
Y043739*
X031125*
Y044026*
X030878*
Y044004*
X030678*
X030665Y044007*
X029658*
Y04414*
X029206*
Y043667*
X029658*
Y043726*
X029957*
Y043483*
X029907Y043468*
X029906Y043469*
X029834Y043517*
X02975Y043534*
X029708Y043526*
X029658Y043549*
X029206*
Y043077*
X029658*
X029708Y0431*
X02975Y043092*
X029834Y043109*
X029906Y043157*
X029907Y043158*
X029957Y043143*
Y042538*
X029907Y042523*
X029906Y042524*
X029834Y042572*
X02975Y042589*
X029708Y042581*
X029658Y042604*
X029206*
Y042132*
X029658*
X029708Y042156*
X02975Y042147*
X029834Y042164*
X029906Y042212*
X029907Y042214*
X029957Y042198*
Y041945*
X029907Y041912*
X029877Y041918*
X029658*
Y042014*
X029206*
Y041541*
X029658*
Y041637*
X029819*
X029957Y041499*
Y041357*
X029907Y041342*
X029906Y041343*
X029834Y041391*
X02975Y041408*
X029708Y0414*
X029658Y041423*
X029206*
Y040951*
X029658*
X029708Y040974*
X02975Y040966*
X029834Y040983*
X029906Y041031*
X029907Y041032*
X029957Y041017*
Y040887*
X027178*
X027124Y040876*
X027078Y040845*
X026673Y04044*
X026642Y040394*
X026632Y040341*
Y038678*
X026642Y038624*
X026673Y038579*
X026839Y038413*
X026835Y038394*
X026852Y03831*
X0269Y038238*
X026971Y03819*
X027056Y038173*
X027085Y038128*
X027068Y038103*
X027057Y038049*
Y037956*
X026942*
Y037523*
Y03713*
X027057*
Y037117*
X027068Y037063*
X027098Y037018*
X027201Y036914*
X027247Y036884*
X027301Y036873*
X028674*
Y036778*
X029127*
Y03725*
X028674*
Y037154*
X028044*
Y037206*
X028401*
X028454Y037217*
X0285Y037247*
X028637Y037384*
X028674Y037368*
X029127*
Y037841*
X028674*
Y037745*
X028659*
X028605Y037734*
X028559Y037704*
X028343Y037487*
X028201*
X028187Y037533*
X028188Y037537*
X028257Y037583*
X028305Y037655*
X028322Y037739*
X028305Y037824*
X028257Y037896*
X028186Y037943*
X028101Y03796*
X028051Y03795*
X028044Y037956*
X027532*
Y037523*
Y037154*
X027454*
Y037523*
Y037956*
X027374*
X027353Y038006*
X027401Y038054*
X028674*
Y037959*
X029127*
Y038431*
X028674*
Y038335*
X027343*
X027315Y03833*
X027272Y038368*
X027277Y038394*
X02726Y038479*
X027212Y03855*
X02714Y038598*
X027056Y038615*
X027037Y038611*
X026913Y038736*
Y039217*
X026942Y039255*
X026963*
X027059*
X027068Y039212*
X027098Y039167*
X027225Y03904*
X02727Y03901*
X027324Y038999*
X028674*
Y038904*
X029127*
Y039376*
X028674*
Y03928*
X028044*
Y039331*
X028376*
X02843Y039341*
X028476Y039372*
X028628Y039524*
X028674Y039505*
Y039494*
X029127*
Y039967*
X028674*
Y039871*
X028635*
X028582Y03986*
X028536Y03983*
X028318Y039612*
X028202*
X028187Y039658*
X028188Y039662*
X028257Y039708*
X028305Y03978*
X028322Y039864*
X028305Y039949*
X028257Y04002*
X028186Y040068*
X028101Y040085*
X028051Y040075*
X028044Y040081*
X027532*
Y039648*
Y03928*
X027454*
Y039648*
Y040081*
X027338*
Y04014*
X027378Y04018*
X028674*
Y040085*
X029127*
Y040556*
Y040557*
X02913Y040606*
X029202*
X029206Y040557*
Y040085*
X029658*
X029708Y040108*
X02975Y0401*
X029834Y040117*
X029906Y040165*
X029907Y040166*
X029957Y040151*
Y040019*
X029809Y039871*
X029658*
Y039967*
X029206*
Y039494*
X029658*
Y03959*
X029867*
X029908Y039598*
X029911Y039595*
X029935Y039554*
X029893Y039492*
X029876Y039408*
X029893Y039323*
X029919Y039284*
X029883Y039248*
X029851Y03927*
X029798Y03928*
X029658*
Y039376*
X029206*
Y038904*
X029658*
Y038999*
X029739*
X029997Y038741*
Y038297*
X029994Y038296*
X029947Y038289*
X029906Y038351*
X029834Y038399*
X02975Y038416*
X029708Y038407*
X029658Y038431*
X029206*
Y037959*
X029658*
X029708Y037982*
X02975Y037974*
X029834Y037991*
X029906Y038039*
X029947Y038101*
X029994Y038094*
X029997Y038093*
Y038033*
X029982Y038023*
X029934Y037951*
X029917Y037867*
X029929Y037805*
X029884Y037775*
X029834Y037808*
X02975Y037825*
X029708Y037817*
X029658Y037841*
X029206*
Y037368*
X029658*
X029708Y037392*
X02975Y037384*
X029834Y0374*
X029906Y037448*
X029947Y03751*
X029994Y037503*
X029997Y037502*
Y037439*
X029713Y037154*
X029658*
Y03725*
X029206*
Y036778*
X029658*
Y036873*
X029771*
X029825Y036884*
X029871Y036914*
X030237Y037281*
X030268Y037327*
X030278Y03738*
Y0377*
X030294Y037711*
X030342Y037782*
X030359Y037867*
X030342Y037951*
X030294Y038023*
X030278Y038033*
Y038164*
X030448*
Y03791*
X030524*
Y037831*
X030508Y03782*
X030461Y037749*
X030444Y037664*
X030461Y03758*
X030508Y037508*
X030554Y037478*
X030565Y037461*
X030832Y037194*
X030823Y037124*
X030833Y037052*
X03086Y036985*
X030905Y036927*
X030962Y036883*
X031029Y036855*
X031101Y036846*
X031173Y036855*
X03124Y036883*
X031298Y036927*
X031342Y036985*
X03137Y037052*
X031379Y037124*
X03137Y037196*
X031342Y037263*
X031298Y03732*
X03124Y037364*
X031173Y037392*
X031101Y037402*
X031031Y037392*
X030859Y037565*
X030869Y03758*
X030885Y037664*
X030869Y037749*
X030821Y03782*
X030805Y037831*
Y03791*
X030878*
Y037891*
X031152*
Y037889*
X03134*
Y038048*
X03139*
Y038098*
X031627*
Y038145*
Y038254*
X03139*
Y038354*
X031627*
Y0384*
Y038509*
X03139*
Y038609*
X031627*
Y038655*
Y038764*
X03139*
Y038864*
X031627*
Y038973*
X031472*
X031225*
Y038687*
X031125*
Y038973*
X030878*
Y038952*
X030805*
Y039038*
X030821Y039049*
X030869Y03912*
X030885Y039205*
X030869Y039289*
X030821Y039361*
X030749Y039409*
X030665Y039425*
X03058Y039409*
X030531Y039376*
X030481Y039403*
Y039836*
X030588Y039943*
X030779*
X030822Y039887*
X03088Y039843*
X030947Y039815*
X031019Y039806*
X031091Y039815*
X031158Y039843*
X031215Y039887*
X03126Y039944*
X031287Y040012*
X031297Y040083*
X031287Y040155*
X03126Y040222*
X031215Y04028*
X031158Y040324*
X031091Y040352*
X031019Y040361*
X030947Y040352*
X03088Y040324*
X030822Y04028*
X030779Y040224*
X03053*
X030476Y040213*
X03043Y040183*
X030288Y04004*
X030238Y040061*
Y040746*
Y041557*
Y041801*
X030284Y041821*
X030437Y041668*
X030482Y041637*
X030536Y041626*
X030779*
X030822Y04157*
X03088Y041526*
X030947Y041498*
X031019Y041489*
X031091Y041498*
X031158Y041526*
X031215Y04157*
X031258Y041626*
X032091*
X032145Y041637*
X032191Y041668*
X032386Y041863*
X032398Y041881*
X032448Y041866*
Y041384*
X032376*
Y041404*
X032102*
Y041406*
X031914*
Y041247*
X031864*
Y041197*
X031626*
Y041088*
Y041041*
X031864*
Y040941*
X031626*
Y040832*
Y040786*
X031864*
Y040686*
X031626*
Y040577*
Y040531*
X031864*
Y040431*
X031626*
Y040322*
X031782*
Y040321*
X032029*
Y040608*
X032129*
Y040321*
X032376*
X032419Y040305*
Y039298*
X03243Y039244*
X03246Y039198*
X032796Y038862*
X032842Y038832*
X032895Y038821*
X033398*
Y038744*
X033851*
Y039216*
X033398*
Y039102*
X032953*
X032758Y039297*
X032783Y039344*
X032855Y039329*
X032947Y039348*
X033025Y0394*
X033045Y03943*
X033398*
Y039334*
X033851*
Y039807*
X033398*
Y039711*
X033045*
X033025Y03974*
X032947Y039793*
X032855Y039811*
X032763Y039793*
X032744Y03978*
X0327Y039804*
Y039927*
X032744Y039951*
X032763Y039939*
X032855Y03992*
X032947Y039939*
X033025Y039991*
X033045Y040021*
X033398*
Y039925*
X033851*
Y040397*
X033581*
X033562Y040443*
X033724Y040606*
X033755Y040651*
X033765Y040705*
Y040909*
X033851*
Y041381*
X033398*
Y041009*
X03336Y040994*
X033348Y040992*
X033279Y041039*
X033194Y041056*
X03311Y041039*
X033076Y041016*
X033031Y041046*
X033036Y04107*
Y041521*
X033086Y041548*
X03311Y041532*
X033194Y041515*
X033279Y041532*
X033348Y041579*
X033359Y041576*
X033398Y041562*
Y0415*
X033851*
Y041972*
X033398*
Y04191*
X033359Y041895*
X033348Y041893*
X033279Y04194*
X033194Y041957*
X03311Y04194*
X033086Y041924*
X033036Y041951*
Y043283*
X033647Y043895*
X033666Y043891*
X03375Y043908*
X033822Y043956*
X033832Y043971*
X033891*
X033931Y043932*
Y04344*
X033525Y043035*
X033495Y042989*
X033484Y042935*
Y042563*
X033398*
Y04209*
X033851*
Y042563*
X033765*
Y042877*
X034171Y043283*
X034201Y043328*
X034212Y043382*
Y04399*
X034201Y044044*
X034171Y044089*
X034049Y044211*
X034003Y044242*
X03395Y044252*
X033832*
X033822Y044268*
X03375Y044316*
X033703Y044325*
X033686Y04438*
X034859Y045553*
X038702*
X038756Y045564*
X038801Y045594*
X040167Y04696*
X040198Y047005*
X040208Y047059*
Y049602*
X040306Y049642*
X040405Y049718*
X04048Y049817*
X040528Y049932*
X04054Y050019*
X040542Y050042*
X040593*
X040596Y050019*
X040607Y049932*
X040655Y049817*
X040731Y049718*
X040829Y049642*
X040944Y049595*
X041068Y049578*
X041191Y049595*
X041306Y049642*
X041405Y049718*
X04148Y049817*
X041528Y049932*
X041544Y050055*
X041528Y050178*
X04148Y050293*
X041405Y050392*
X041306Y050468*
X041191Y050515*
X041068Y050532*
X040944Y050515*
X040829Y050468*
X040731Y050392*
X040655Y050293*
X040607Y050178*
X040596Y050091*
X040593Y050068*
X040542*
X04054Y050091*
X040528Y050178*
X04048Y050293*
X040405Y050392*
X040306Y050468*
X040191Y050515*
X040068Y050532*
X039944Y050515*
X039829Y050468*
X039731Y050392*
X039655Y050293*
X039607Y050178*
X039596Y050091*
X039593Y050068*
X039542*
X03954Y050091*
X039528Y050178*
X03948Y050293*
X039405Y050392*
X039306Y050468*
X039191Y050515*
X039068Y050532*
X038944Y050515*
X038829Y050468*
X038731Y050392*
X038655Y050293*
X038607Y050178*
X038596Y050091*
X038593Y050068*
X038542*
X03854Y050091*
X038528Y050178*
X03848Y050293*
X038405Y050392*
X038306Y050468*
X038191Y050515*
X038068Y050532*
X037944Y050515*
X037829Y050468*
X037731Y050392*
X037655Y050293*
X037607Y050178*
X037591Y050055*
X037607Y049932*
X037655Y049817*
X037731Y049718*
X037829Y049642*
X037944Y049595*
X038068Y049578*
X038191Y049595*
X038306Y049642*
X038405Y049718*
X03848Y049817*
X038528Y049932*
X03854Y050019*
X038542Y050042*
X038593*
X038596Y050019*
X038607Y049932*
X038655Y049817*
X038731Y049718*
X038829Y049642*
X038944Y049595*
X039068Y049578*
X039191Y049595*
X039306Y049642*
X039405Y049718*
X03948Y049817*
X039528Y049932*
X03954Y050019*
X039542Y050042*
X039593*
X039596Y050019*
X039607Y049932*
X039655Y049817*
X039731Y049718*
X039829Y049642*
X039927Y049602*
Y047117*
X038644Y045834*
X034806*
X034797Y045844*
X034782Y045881*
X035536Y046635*
X035566Y04668*
X035577Y046734*
Y049602*
X035674Y049642*
X035773Y049718*
X035849Y049817*
X035896Y049932*
X035913Y050055*
X035896Y050178*
X035849Y050293*
X035773Y050392*
X035674Y050468*
X03556Y050515*
X035436Y050532*
G37*
G36*
X044036D02*
X043913Y050515D01*
X043798Y050468*
X043699Y050392*
X043624Y050293*
X043578Y050183*
X043565Y050178*
X043538*
X043526Y050183*
X04348Y050293*
X043405Y050392*
X043306Y050468*
X043191Y050515*
X043068Y050532*
X042944Y050515*
X042829Y050468*
X042731Y050392*
X042655Y050293*
X042607Y050178*
X042601Y050128*
X04255*
X042544Y050178*
X042496Y050293*
X04242Y050392*
X042322Y050468*
X042207Y050515*
X042083Y050532*
X04196Y050515*
X041845Y050468*
X041746Y050392*
X041671Y050293*
X041623Y050178*
X041607Y050055*
X041623Y049932*
X041671Y049817*
X041746Y049718*
X041845Y049642*
X04196Y049595*
X042083Y049578*
X042207Y049595*
X042322Y049642*
X04242Y049718*
X042496Y049817*
X042544Y049932*
X04255Y049982*
X042601*
X042607Y049932*
X042655Y049817*
X042731Y049718*
X042829Y049642*
X042944Y049595*
X043068Y049578*
X043191Y049595*
X043306Y049642*
X043405Y049718*
X04348Y049817*
X043526Y049927*
X043538Y049932*
X043565*
X043578Y049927*
X043624Y049817*
X043699Y049718*
X043798Y049642*
X043913Y049595*
X044036Y049578*
X04416Y049595*
X044274Y049642*
X044373Y049718*
X044449Y049817*
X044496Y049932*
X044513Y050055*
X044496Y050178*
X044449Y050293*
X044373Y050392*
X044274Y050468*
X04416Y050515*
X044036Y050532*
G37*
G36*
X030418Y050546D02*
X030339Y050536D01*
X030219Y050486*
X030116Y050407*
X030036Y050304*
X029987Y050184*
X029982Y05015*
X029932*
X029928Y050178*
X02988Y050293*
X029805Y050392*
X029706Y050468*
X029591Y050515*
X029468Y050532*
X029344Y050515*
X029229Y050468*
X029131Y050392*
X029055Y050293*
X029007Y050178*
X028996Y050091*
X028993Y050068*
X028942*
X02894Y050091*
X028928Y050178*
X02888Y050293*
X028805Y050392*
X028706Y050468*
X028591Y050515*
X028468Y050532*
X028344Y050515*
X028229Y050468*
X028131Y050392*
X028055Y050293*
X028007Y050178*
X027996Y050091*
X027993Y050068*
X027943*
X02794Y050091*
X027928Y050178*
X02788Y050293*
X027805Y050392*
X027706Y050468*
X027591Y050515*
X027468Y050532*
X027344Y050515*
X027229Y050468*
X027131Y050392*
X027055Y050293*
X027007Y050178*
X026991Y050055*
X027007Y049932*
X027055Y049817*
X027131Y049718*
X027229Y049642*
X027344Y049595*
X027468Y049579*
X027591Y049595*
X027706Y049642*
X027805Y049718*
X02788Y049817*
X027928Y049932*
X02794Y05002*
X027943Y050042*
X027993*
X027996Y05002*
X028007Y049932*
X028055Y049817*
X028131Y049718*
X028229Y049642*
X028344Y049595*
X028468Y049579*
X028591Y049595*
X028706Y049642*
X028805Y049718*
X02888Y049817*
X028928Y049932*
X02894Y05002*
X028942Y050042*
X028993*
X028996Y05002*
X029007Y049932*
X029055Y049817*
X029131Y049718*
X029229Y049642*
X029344Y049595*
X029468Y049579*
X029591Y049595*
X029706Y049642*
X029805Y049718*
X02988Y049817*
X029928Y049932*
X029932Y049961*
X029982*
X029987Y049926*
X030036Y049806*
X030116Y049703*
X030219Y049624*
X030339Y049574*
X030418Y049564*
Y050055*
Y050546*
G37*
G36*
X023468Y050611D02*
X023182D01*
Y050069*
X023468*
Y050611*
G37*
G36*
X023082D02*
X022795D01*
Y050069*
X023082*
Y050611*
G37*
G36*
X036909Y050528D02*
X035964D01*
Y049583*
X036909*
Y050528*
G37*
G36*
X045509Y050527D02*
X044564D01*
Y049583*
X045509*
Y050527*
G37*
G36*
X030518Y050546D02*
Y050055D01*
Y049564*
X030597Y049574*
X030717Y049624*
X03082Y049703*
X030899Y049806*
X030949Y049926*
X030953Y049961*
X031004*
X031007Y049932*
X031055Y049817*
X031131Y049718*
X031229Y049642*
X031344Y049595*
X031468Y049579*
X031591Y049595*
X031706Y049642*
X031805Y049718*
X03188Y049817*
X031928Y049932*
X03194Y05002*
X031943Y050042*
X031993*
X031996Y05002*
X032007Y049932*
X032055Y049817*
X032131Y049718*
X032229Y049642*
X032344Y049595*
X032468Y049579*
X032591Y049595*
X032706Y049642*
X032805Y049718*
X03288Y049817*
X032928Y049932*
X032944Y050055*
X032928Y050178*
X03288Y050293*
X032805Y050392*
X032706Y050468*
X032591Y050515*
X032468Y050532*
X032344Y050515*
X032229Y050468*
X032131Y050392*
X032055Y050293*
X032007Y050178*
X031996Y050091*
X031993Y050068*
X031943*
X03194Y050091*
X031928Y050178*
X03188Y050293*
X031805Y050392*
X031706Y050468*
X031591Y050515*
X031468Y050532*
X031344Y050515*
X031229Y050468*
X031131Y050392*
X031055Y050293*
X031007Y050178*
X031004Y05015*
X030953*
X030949Y050184*
X030899Y050304*
X03082Y050407*
X030717Y050486*
X030597Y050536*
X030518Y050546*
G37*
G36*
X024431Y050589D02*
X023801D01*
Y049448*
X024431*
Y050589*
G37*
G36*
X022462D02*
X021832D01*
Y050199*
X021811*
X021742Y050185*
X021683Y050146*
X021332Y049795*
X021293Y049736*
X021279Y049667*
Y044031*
X021293Y043962*
X021332Y043903*
X021894Y043341*
X021953Y043302*
X022022Y043288*
X022485*
X02253Y04323*
X0226Y043176*
X022681Y043142*
X022768Y043131*
X022856Y043142*
X022937Y043176*
X023007Y04323*
X023061Y0433*
X023094Y043381*
X023106Y043468*
X023094Y043556*
X023061Y043637*
X023007Y043707*
X022937Y043761*
X022856Y043795*
X022768Y043806*
X022681Y043795*
X0226Y043761*
X02253Y043707*
X022485Y043649*
X022097*
X02164Y044106*
Y049592*
X021786Y049738*
X021832Y049719*
Y049448*
X022462*
Y050589*
G37*
G36*
X023468Y049969D02*
X023182D01*
Y049426*
X023468*
Y049969*
G37*
G36*
X023082D02*
X022795D01*
Y049426*
X023082*
Y049969*
G37*
G36*
X028435Y048712D02*
X02835Y048695D01*
X028279Y048647*
X028268Y048632*
X02734*
X027286Y048621*
X02724Y048591*
X026942Y048292*
X026912Y048247*
X026901Y048193*
Y04804*
X026805*
Y047587*
X027278*
Y04804*
X027182*
Y048135*
X027398Y048351*
X028268*
X028279Y048335*
X02835Y048287*
X028435Y048271*
X028519Y048287*
X028591Y048335*
X028639Y048407*
X028655Y048491*
X028639Y048576*
X028591Y048647*
X028519Y048695*
X028435Y048712*
G37*
G36*
X033422Y049321D02*
X030178D01*
X030109Y049307*
X030051Y049268*
X029412Y048629*
X029373Y048571*
X029359Y048502*
Y048014*
X029226*
Y048035*
X02892*
Y04764*
Y047244*
X029226*
Y047266*
X029874*
Y047459*
X030144*
X030237Y047367*
Y046696*
X030147*
X030093Y046686*
X030048Y046655*
X030017Y04661*
X03001Y046577*
X029959Y046557*
X029872Y046644*
X029827Y046675*
X029773Y046685*
X029616*
Y046781*
X029163*
Y046309*
X029616*
Y046404*
X029715*
X029859Y04626*
X029905Y046229*
X029959Y046219*
X029967*
X030008Y046169*
X030006Y046162*
X030008Y046156*
X029967Y046106*
X029702*
X029649Y046095*
X029603Y046065*
X029427Y045889*
X029163*
Y045417*
X029616*
Y04568*
X029761Y045825*
X029956*
X029962Y045819*
X030422*
X03085*
X030848Y045831*
X030813Y045883*
X03081Y045885*
X030828Y045912*
X030839Y045965*
X030862Y04597*
X030896Y045925*
X03089Y045896*
X030907Y045812*
X030955Y04574*
X030965Y045733*
Y045421*
X03081Y045266*
X028452*
X028198Y045521*
Y045727*
X028242Y045751*
X028269Y045733*
X028354Y045716*
X028438Y045733*
X02851Y045781*
X028558Y045852*
X028561Y045868*
X028611Y045863*
Y045703*
X028808*
Y04591*
X02862*
X028589Y045928*
X028573Y045941*
X028558Y046021*
X028534Y046056*
Y047244*
X02882*
Y04764*
Y048035*
X028515*
Y047724*
X028465Y047703*
X028226Y047942*
X028168Y047981*
X028098Y047994*
X027907*
Y04804*
X027435*
Y047587*
X027907*
Y047633*
X028024*
X028173Y047484*
Y046056*
X028159Y046035*
X028103Y046021*
X027926Y046198*
X02788Y046229*
X027826Y046239*
X027276*
X027182Y046334*
Y047056*
X027278*
Y047142*
X027435*
Y047056*
X027907*
Y047509*
X027435*
Y047423*
X027278*
Y047509*
X026805*
Y047056*
X026901*
Y046276*
X026912Y046222*
X026942Y046176*
X027119Y045999*
X027164Y045969*
X027218Y045958*
X027768*
X027807Y045919*
X027788Y045873*
X027436*
Y045401*
X027522*
Y045289*
X027533Y045236*
X027563Y04519*
X02797Y044783*
X028016Y044752*
X02807Y044742*
X028629*
X028674Y04473*
Y04467*
X028639Y044635*
X027317*
X027263Y044624*
X027217Y044593*
X027098Y044475*
X027068Y044429*
X027057Y044375*
Y044337*
X026942*
Y043904*
Y043511*
X027057*
Y043483*
X027068Y04343*
X027098Y043384*
X027269Y043214*
X027314Y043183*
X027368Y043172*
X028674*
Y043077*
X029127*
Y043549*
X028674*
Y043453*
X027464*
X027458Y043463*
X027454Y043511*
Y043904*
Y044322*
X027493Y044345*
X027532Y044322*
Y043904*
Y043511*
X028044*
Y043587*
X028416*
X028469Y043598*
X028515Y043629*
X028624Y043738*
X028674Y043717*
Y043667*
X029127*
Y04414*
X028674*
Y044044*
X028591*
X028538Y044033*
X028492Y044003*
X028357Y043868*
X028201*
X028187Y043915*
X028188Y043918*
X028257Y043965*
X028305Y044036*
X028322Y044121*
X028305Y044205*
X028257Y044277*
X028217Y044304*
X028233Y044354*
X028674*
Y044258*
X029127*
Y04471*
X029166Y044732*
X029206Y04471*
Y044258*
X029658*
X029708Y044282*
X02975Y044273*
X029834Y04429*
X029906Y044338*
X029954Y04441*
X02997Y044494*
X029954Y044579*
X029906Y04465*
X029843Y044692*
X029851Y044739*
X029852Y044742*
X031557*
X031611Y044752*
X031656Y044783*
X032135Y045261*
X032165Y045307*
X032176Y045361*
Y045628*
X032312*
X032366Y045639*
X03238Y045648*
X03243Y045622*
Y045495*
X032415Y045484*
X032367Y045413*
X03235Y045328*
X032367Y045244*
X032415Y045172*
X032486Y045124*
X032571Y045108*
X032655Y045124*
X032727Y045172*
X032775Y045244*
X032792Y045328*
X032775Y045413*
X032727Y045484*
X032711Y045495*
Y045676*
X032802Y045767*
X032848Y045747*
Y04556*
X032924*
Y045495*
X032909Y045484*
X032861Y045413*
X032844Y045328*
X032861Y045244*
X032909Y045172*
X03298Y045124*
X033065Y045108*
X033149Y045124*
X033221Y045172*
X033269Y045244*
X033286Y045328*
X033269Y045413*
X033221Y045484*
X033205Y045495*
Y04556*
X033278*
Y04554*
X033552*
Y045539*
X03374*
Y045698*
X03379*
Y045748*
X034028*
Y045795*
Y045904*
X03379*
Y046004*
X034028*
Y046113*
X034007*
Y046512*
X034158Y046664*
X034198Y046723*
X034211Y046792*
Y047601*
X034235Y047636*
X034251Y047721*
X034235Y047805*
X034211Y04784*
Y048532*
X034198Y048601*
X034158Y04866*
X03355Y049268*
X033492Y049307*
X033422Y049321*
G37*
G36*
X024431Y048424D02*
X023801D01*
Y047282*
X024431*
Y048424*
G37*
G36*
X029106Y046802D02*
X028908D01*
Y046595*
X029106*
Y046802*
G37*
G36*
X028808D02*
X028611D01*
Y046595*
X028808*
Y046802*
G37*
G36*
X029106Y046495D02*
X028908D01*
Y046287*
X029106*
Y046495*
G37*
G36*
X028808D02*
X028611D01*
Y046287*
X028808*
Y046495*
G37*
G36*
X029106Y04591D02*
X028908D01*
Y045703*
X029106*
Y04591*
G37*
G36*
X027379Y045894D02*
X027181D01*
Y045687*
X027379*
Y045894*
G37*
G36*
X027081D02*
X026883D01*
Y045687*
X027081*
Y045894*
G37*
G36*
X03085Y045718D02*
X030472D01*
Y045606*
X030698*
X03076Y045619*
X030813Y045654*
X030848Y045706*
X03085Y045718*
G37*
G36*
X030372D02*
X029995D01*
X029997Y045706*
X030032Y045654*
X030085Y045619*
X030147Y045606*
X030372*
Y045718*
G37*
G36*
X022768Y046168D02*
X022681Y046157D01*
X0226Y046123*
X02253Y046069*
X022476Y045999*
X022442Y045918*
X022431Y045831*
X022442Y045743*
X022476Y045662*
X02253Y045592*
X0226Y045538*
X022681Y045505*
X022768Y045493*
X022856Y045505*
X022937Y045538*
X023007Y045592*
X023061Y045662*
X023094Y045743*
X023106Y045831*
X023094Y045918*
X023061Y045999*
X023007Y046069*
X022937Y046123*
X022856Y046157*
X022768Y046168*
G37*
G36*
X029106Y045603D02*
X028908D01*
Y045395*
X029106*
Y045603*
G37*
G36*
X028808D02*
X028611D01*
Y045395*
X028808*
Y045603*
G37*
G36*
X027379Y045587D02*
X027181D01*
Y04538*
X027379*
Y045587*
G37*
G36*
X027081D02*
X026883D01*
Y04538*
X027081*
Y045587*
G37*
G36*
X022768Y045381D02*
X022681Y045369D01*
X0226Y045336*
X02253Y045282*
X022476Y045212*
X022442Y045131*
X022431Y045043*
X022442Y044956*
X022476Y044875*
X02253Y044805*
X0226Y044751*
X022681Y044717*
X022768Y044706*
X022856Y044717*
X022937Y044751*
X023007Y044805*
X023061Y044875*
X023094Y044956*
X023106Y045043*
X023094Y045131*
X023061Y045212*
X023007Y045282*
X022937Y045336*
X022856Y045369*
X022768Y045381*
G37*
G36*
X040472Y045625D02*
X04002D01*
Y045153*
X040106*
Y044911*
X039871Y044676*
X039823Y044657*
X039752Y044705*
X039667Y044722*
X039583Y044705*
X039511Y044657*
X039501Y044642*
X039154*
X039153Y044643*
X039088Y044687*
X039011Y044702*
X038341*
X038265Y044687*
X0382Y044643*
X038156Y044578*
X038141Y044501*
X038156Y044424*
X0382Y044359*
X038265Y044316*
X038341Y0443*
X039011*
X039088Y044316*
X039153Y044359*
X039154Y044361*
X039501*
X039511Y044345*
X039583Y044297*
X039667Y04428*
X039752Y044297*
X039823Y044345*
X039834Y044361*
X039894*
X039948Y044371*
X039994Y044402*
X040345Y044753*
X040376Y044799*
X040387Y044853*
Y045153*
X040472*
Y045625*
G37*
G36*
X042871Y044722D02*
X042786Y044705D01*
X042715Y044657*
X042714*
X04267Y044687*
X042593Y044702*
X041924*
X041847Y044687*
X041782Y044643*
X041739Y044578*
X041723Y044501*
X041739Y044424*
X041782Y044359*
X041847Y044316*
X041924Y0443*
X042593*
X04267Y044316*
X042714Y044345*
X042715*
X042786Y044297*
X042871Y04428*
X042955Y044297*
X043027Y044345*
X043075Y044417*
X043092Y044501*
X043075Y044586*
X043027Y044657*
X042955Y044705*
X042871Y044722*
G37*
G36*
X037856Y044758D02*
X037648D01*
Y044561*
X037856*
Y044758*
G37*
G36*
X037548D02*
X037341D01*
Y044561*
X037548*
Y044758*
G37*
G36*
X037856Y044461D02*
X037648D01*
Y044263*
X037856*
Y044461*
G37*
G36*
X037548D02*
X037341D01*
Y044263*
X037548*
Y044461*
G37*
G36*
X041004Y045625D02*
X040551D01*
Y045153*
X040597*
Y044729*
X040081Y044213*
X04004Y044205*
X040005Y044182*
X039095*
X039088Y044187*
X039011Y044202*
X038341*
X038265Y044187*
X038257Y044182*
X037835*
Y044206*
X037362*
Y044182*
X037087*
Y044267*
X036614*
Y044221*
X036561*
X036549Y044237*
X036491Y044281*
X036424Y044309*
X036352Y044319*
X03628Y044309*
X036213Y044281*
X036155Y044237*
X035862Y043943*
X035818Y043886*
X03579Y043819*
X03578Y043747*
Y042976*
X03579Y042904*
X035818Y042837*
X035862Y04278*
X036307Y042334*
Y037739*
X033871Y035302*
X033827Y035245*
X033799Y035178*
X03379Y035106*
Y031437*
X033731Y031392*
X033655Y031293*
X033607Y031178*
X033596Y031091*
X033593Y031068*
X033542*
X03354Y031091*
X033528Y031178*
X03348Y031293*
X033405Y031392*
X033306Y031468*
X033191Y031515*
X033068Y031532*
X032944Y031515*
X032829Y031468*
X032731Y031392*
X032655Y031293*
X032607Y031178*
X032596Y031091*
X032593Y031068*
X032542*
X03254Y031091*
X032528Y031178*
X03248Y031293*
X032405Y031392*
X032306Y031468*
X032191Y031515*
X032068Y031532*
X031944Y031515*
X031829Y031468*
X031731Y031392*
X031655Y031293*
X031607Y031178*
X031596Y031091*
X031593Y031068*
X031542*
X03154Y031091*
X031528Y031178*
X03148Y031293*
X031405Y031392*
X031306Y031468*
X031191Y031515*
X031068Y031532*
X030944Y031515*
X030829Y031468*
X030731Y031392*
X030655Y031293*
X030607Y031178*
X030591Y031055*
X030607Y030932*
X030655Y030817*
X030731Y030718*
X030829Y030642*
X030944Y030595*
X031068Y030578*
X031191Y030595*
X031306Y030642*
X031405Y030718*
X03148Y030817*
X031528Y030932*
X03154Y031019*
X031542Y031042*
X031593*
X031596Y031019*
X031607Y030932*
X031655Y030817*
X031731Y030718*
X031829Y030642*
X031944Y030595*
X032068Y030578*
X032191Y030595*
X032306Y030642*
X032405Y030718*
X03248Y030817*
X032528Y030932*
X03254Y031019*
X032542Y031042*
X032593*
X032596Y031019*
X032607Y030932*
X032655Y030817*
X032731Y030718*
X032829Y030642*
X032944Y030595*
X033068Y030578*
X033191Y030595*
X033306Y030642*
X033405Y030718*
X03348Y030817*
X033528Y030932*
X03354Y031019*
X033542Y031042*
X033593*
X033596Y031019*
X033607Y030932*
X033655Y030817*
X033731Y030718*
X033829Y030642*
X033944Y030595*
X034068Y030578*
X034191Y030595*
X034306Y030642*
X034405Y030718*
X03448Y030817*
X034528Y030932*
X034544Y031055*
X034528Y031178*
X03448Y031293*
X034405Y031392*
X034346Y031437*
Y034991*
X036305Y03695*
X036352Y036927*
X036348Y036894*
Y035014*
X035517*
Y035071*
X03475*
Y034401*
X035517*
Y034458*
X03788*
Y034401*
X038647*
Y035071*
X03788*
Y035014*
X036904*
Y036894*
X036894Y036966*
X036867Y037033*
X036823Y03709*
X036765Y037134*
X036698Y037162*
X036626Y037172*
X036593Y037167*
X03657Y037215*
X036782Y037427*
X036826Y037485*
X036854Y037552*
X036863Y037624*
Y042449*
X036854Y042521*
X036826Y042588*
X036782Y042646*
X036336Y043092*
Y043632*
X036549Y043844*
X036561Y04386*
X036614*
Y043814*
X037087*
Y043821*
X037362*
Y043753*
X037835*
Y043821*
X038257*
X038265Y043816*
X038341Y0438*
X039011*
X039088Y043816*
X039095Y043821*
X040005*
X04004Y043797*
X040124Y04378*
X040209Y043797*
X040281Y043845*
X040328Y043917*
X040337Y043958*
X040905Y044527*
X040944Y044585*
X040958Y044654*
Y045153*
X041004*
Y045625*
G37*
G36*
X042871Y044222D02*
X042786Y044205D01*
X042715Y044157*
X042714*
X04267Y044187*
X042593Y044202*
X041924*
X041847Y044187*
X041782Y044143*
X041739Y044078*
X041723Y044001*
X041739Y043924*
X041782Y043859*
X041847Y043816*
X041924Y0438*
X042159*
X042169Y04375*
X04212Y04373*
X042083Y043702*
X041924*
X041847Y043687*
X041782Y043643*
X041739Y043578*
X041723Y043501*
X041739Y043424*
X041782Y043359*
X041847Y043316*
X041924Y0433*
X042049*
X042074Y043272*
X042056Y043224*
X041924*
X041839Y043207*
X041767Y043158*
X041719Y043086*
X041712Y043051*
X042259*
X042806*
X042799Y043086*
X042751Y043158*
X042746Y043161*
X042761Y043211*
X043002*
X04305Y043205*
Y043161*
Y043008*
X043565*
Y043205*
X043612Y043211*
X046014*
X046213Y043013*
Y042384*
X045662*
Y041726*
X04628*
X046307Y041676*
X046287Y041646*
X04627Y041562*
X046287Y041477*
X04631Y041442*
Y041384*
X045662*
Y040726*
X047319*
Y041384*
X046671*
Y041442*
X046695Y041477*
X046711Y041562*
X046695Y041646*
X046674Y041676*
X046701Y041726*
X047319*
Y042384*
X046769*
Y043128*
X046759Y0432*
X046731Y043267*
X046687Y043325*
X046326Y043686*
X046268Y04373*
X046201Y043758*
X046129Y043767*
X043001*
X042985Y043817*
X043027Y043845*
X043075Y043917*
X043092Y044001*
X043075Y044086*
X043027Y044157*
X042955Y044205*
X042871Y044222*
G37*
G36*
X022462Y048424D02*
X021832D01*
Y047282*
X021967*
Y04456*
X02198Y044491*
X02202Y044432*
X022323Y044128*
X022382Y044089*
X022451Y044075*
X022485*
X02253Y044017*
X0226Y043964*
X022681Y04393*
X022768Y043918*
X022856Y04393*
X022937Y043964*
X023007Y044017*
X023061Y044087*
X023094Y044169*
X023106Y044256*
X023094Y044343*
X023061Y044425*
X023007Y044495*
X022937Y044548*
X022856Y044582*
X022768Y044593*
X022681Y044582*
X0226Y044548*
X02253Y044495*
X022526Y04449*
X022476Y044486*
X022328Y044635*
Y047282*
X022462*
Y048424*
G37*
G36*
X037087Y043735D02*
X036614D01*
Y043283*
X037087*
Y043321*
X038257*
X038265Y043316*
X038341Y0433*
X039011*
X039088Y043316*
X039153Y043359*
X039196Y043424*
X039211Y043501*
X039196Y043578*
X039153Y043643*
X039088Y043687*
X039011Y043702*
X038341*
X038265Y043687*
X038257Y043682*
X037087*
Y043735*
G37*
G36*
X042806Y042951D02*
X042309D01*
Y042779*
X042593*
X042679Y042796*
X042751Y042844*
X042799Y042916*
X042806Y042951*
G37*
G36*
X042209D02*
X041712D01*
X041719Y042916*
X041767Y042844*
X041839Y042796*
X041924Y042779*
X042209*
Y042951*
G37*
G36*
X043565Y042908D02*
X043357D01*
Y04271*
X043565*
Y042908*
G37*
G36*
X043257D02*
X04305D01*
Y04271*
X043257*
Y042908*
G37*
G36*
X042593Y042724D02*
X042309D01*
Y042551*
X042806*
X042799Y042586*
X042751Y042658*
X042679Y042707*
X042593Y042724*
G37*
G36*
X039011D02*
X038726D01*
Y042551*
X039223*
X039216Y042586*
X039168Y042658*
X039096Y042707*
X039011Y042724*
G37*
G36*
X042209D02*
X041924D01*
X041839Y042707*
X041767Y042658*
X041719Y042586*
X041712Y042551*
X042209*
Y042724*
G37*
G36*
X038626D02*
X038341D01*
X038256Y042707*
X038184Y042658*
X038136Y042586*
X038129Y042551*
X038626*
Y042724*
G37*
G36*
X042806Y042451D02*
X042309D01*
Y042279*
X042593*
X042679Y042296*
X042751Y042344*
X042799Y042416*
X042806Y042451*
G37*
G36*
X042209D02*
X041712D01*
X041719Y042416*
X041767Y042344*
X041839Y042296*
X041924Y042279*
X042209*
Y042451*
G37*
G36*
X039223D02*
X038726D01*
Y042279*
X039011*
X039096Y042296*
X039168Y042344*
X039216Y042416*
X039223Y042451*
G37*
G36*
X038626D02*
X038129D01*
X038136Y042416*
X038184Y042344*
X038256Y042296*
X038341Y042279*
X038626*
Y042451*
G37*
G36*
X045569Y042384D02*
X043912D01*
Y042236*
X043691*
X043656Y042259*
X043572Y042276*
X043487Y042259*
X043415Y042211*
X043368Y042139*
X043351Y042055*
X043368Y041971*
X043415Y041899*
X043487Y041851*
X043572Y041834*
X043656Y041851*
X043691Y041874*
X043912*
Y041726*
X045569*
Y042384*
G37*
G36*
X029127Y042604D02*
X028674D01*
Y042509*
X02734*
X027286Y042498*
X02724Y042467*
X027098Y042325*
X027068Y04228*
X027057Y042226*
Y042211*
X026942*
Y041778*
Y041385*
X027057*
Y041334*
X027068Y04128*
X027098Y041235*
X027246Y041088*
X027291Y041057*
X027345Y041047*
X028674*
Y040951*
X029127*
Y041423*
X028674*
Y041328*
X027441*
X027435Y041335*
X027454Y041385*
Y041778*
Y042196*
X027493Y042219*
X027532Y042196*
Y041778*
Y041385*
X028044*
Y041461*
X028439*
X028493Y041472*
X028538Y041503*
X028624Y041588*
X028674Y041568*
Y041541*
X029127*
Y042014*
X028674*
Y041918*
X028615*
X028561Y041907*
X028515Y041877*
X028381Y041742*
X028201*
X028187Y041789*
X028188Y041792*
X028257Y041839*
X028305Y04191*
X028322Y041995*
X028305Y042079*
X028257Y042151*
X028217Y042178*
X028233Y042228*
X028674*
Y042132*
X029127*
Y042604*
G37*
G36*
X042593Y042224D02*
X042309D01*
Y042051*
X042806*
X042799Y042086*
X042751Y042158*
X042679Y042207*
X042593Y042224*
G37*
G36*
X039011D02*
X038726D01*
Y042051*
X039223*
X039216Y042086*
X039168Y042158*
X039096Y042207*
X039011Y042224*
G37*
G36*
X042209D02*
X041924D01*
X041839Y042207*
X041767Y042158*
X041719Y042086*
X041712Y042051*
X042209*
Y042224*
G37*
G36*
X038626D02*
X038341D01*
X038256Y042207*
X038184Y042158*
X038136Y042086*
X038129Y042051*
X038626*
Y042224*
G37*
G36*
X037194Y042264D02*
X037109Y042248D01*
X037038Y0422*
X03699Y042128*
X036973Y042044*
X03699Y041959*
X037038Y041888*
X037109Y04184*
X037194Y041823*
X037278Y04184*
X03735Y041888*
X037398Y041959*
X037414Y042044*
X037398Y042128*
X03735Y0422*
X037278Y042248*
X037194Y042264*
G37*
G36*
X042806Y041951D02*
X042309D01*
Y041779*
X042593*
X042679Y041796*
X042751Y041844*
X042799Y041916*
X042806Y041951*
G37*
G36*
X042209D02*
X041712D01*
X041719Y041916*
X041767Y041844*
X041839Y041796*
X041924Y041779*
X042209*
Y041951*
G37*
G36*
X039223D02*
X038726D01*
Y041779*
X039011*
X039096Y041796*
X039168Y041844*
X039216Y041916*
X039223Y041951*
G37*
G36*
X038626D02*
X038129D01*
X038136Y041916*
X038184Y041844*
X038256Y041796*
X038341Y041779*
X038626*
Y041951*
G37*
G36*
X042593Y041724D02*
X042309D01*
Y041551*
X042806*
X042799Y041586*
X042751Y041658*
X042679Y041707*
X042593Y041724*
G37*
G36*
X039011D02*
X038726D01*
Y041551*
X039223*
X039216Y041586*
X039168Y041658*
X039096Y041707*
X039011Y041724*
G37*
G36*
X042209D02*
X041924D01*
X041839Y041707*
X041767Y041658*
X041719Y041586*
X041712Y041551*
X042209*
Y041724*
G37*
G36*
X038626D02*
X038341D01*
X038256Y041707*
X038184Y041658*
X038136Y041586*
X038129Y041551*
X038626*
Y041724*
G37*
G36*
X031814Y041406D02*
X031626D01*
Y041297*
X031814*
Y041406*
G37*
G36*
X042806Y041451D02*
X042309D01*
Y041279*
X042593*
X042679Y041296*
X042751Y041344*
X042799Y041416*
X042806Y041451*
G37*
G36*
X042209D02*
X041712D01*
X041719Y041416*
X041767Y041344*
X041839Y041296*
X041924Y041279*
X042209*
Y041451*
G37*
G36*
X039223D02*
X038726D01*
Y041279*
X039011*
X039096Y041296*
X039168Y041344*
X039216Y041416*
X039223Y041451*
G37*
G36*
X038626D02*
X038129D01*
X038136Y041416*
X038184Y041344*
X038256Y041296*
X038341Y041279*
X038626*
Y041451*
G37*
G36*
X045569Y041384D02*
X043912D01*
Y041236*
X043686*
X043651Y041259*
X043567Y041276*
X043482Y041259*
X043411Y041211*
X043363Y041139*
X043346Y041055*
X043363Y040971*
X043411Y040899*
X043482Y040851*
X043567Y040834*
X043651Y040851*
X043686Y040874*
X043912*
Y040726*
X045569*
Y041384*
G37*
G36*
X023446Y048424D02*
X022817D01*
Y047282*
X022951*
Y046617*
X022965Y046548*
X023004Y046489*
X023226Y046267*
Y041523*
X022872Y041169*
X022799Y041179*
X022712Y041167*
X022631Y041134*
X022561Y04108*
X022507Y04101*
X022473Y040929*
X022462Y040841*
X022471Y040769*
X021738Y040035*
X021698Y039976*
X021685Y039907*
Y035028*
X021698Y034959*
X021738Y034901*
X02282Y033818*
Y032311*
X022834Y032242*
X022873Y032184*
X0234Y031657*
X023459Y031617*
X023528Y031604*
X025839*
X025909Y031617*
X025967Y031657*
X026535Y032224*
X026574Y032283*
X026588Y032352*
Y034791*
X026939Y035143*
X027343*
X027355Y035127*
X027413Y035082*
X02748Y035055*
X027552Y035045*
X027572Y035048*
X027666Y034953*
X027725Y034914*
X027794Y0349*
X028461*
X028473Y034889*
X028461Y03483*
X028454Y034827*
X028417*
Y034383*
X028733*
X02905*
Y034827*
X029012*
X029005Y03483*
X028993Y034889*
X029005Y0349*
X029468*
X029503Y034865*
Y034765*
Y034715*
Y034543*
X0295Y03453*
Y034427*
X029394Y034321*
X029364Y034275*
X029353Y034222*
Y034135*
X029267*
Y033871*
X029145Y03375*
X028439*
X028429Y033765*
X028357Y033813*
X028272Y03383*
X028188Y033813*
X028116Y033765*
X028068Y033694*
X028052Y033609*
X028068Y033525*
X028116Y033453*
X028188Y033405*
X028272Y033388*
X028357Y033405*
X028429Y033453*
X028439Y033469*
X029204*
X029257Y033479*
X029303Y03351*
X029456Y033663*
X02972*
Y034135*
X029676*
X029655Y034185*
X029715Y034244*
X029732*
X029773Y034232*
X029797Y034197*
X029816Y034178*
X029798Y034135*
Y033663*
X030062*
X030173Y033552*
Y033232*
X030076*
Y033093*
X029976*
Y033232*
X029848*
Y033054*
X029433*
Y033151*
X02898*
Y032679*
X029433*
Y032812*
X029973*
Y032517*
X030009*
Y032421*
X03002Y032367*
X03005Y032322*
X030201Y032172*
X030246Y032141*
X0303Y03213*
X031963*
X032016Y032141*
X032062Y032172*
X032185Y032294*
X032215Y03234*
X032226Y032394*
Y032519*
X032282Y032562*
X032325Y032618*
X032572*
X032625Y032628*
X032671Y032659*
X032832Y03282*
X032863Y032866*
X032874Y03292*
Y033771*
X032863Y033825*
X032832Y033871*
X03263Y034073*
X032584Y034104*
X03253Y034115*
X032283*
X032266Y034165*
X032282Y034177*
X032325Y034233*
X032565*
X032619Y034244*
X032664Y034274*
X032832Y034442*
X032863Y034488*
X032874Y034542*
Y035515*
X032863Y035569*
X032832Y035614*
X032672Y035775*
X032679Y035825*
Y036033*
X032431*
X032183*
Y035858*
X032126*
Y036319*
X031673*
Y036223*
X0314*
Y036319*
X031373*
Y036409*
X031396Y036444*
X031413Y036529*
X031396Y036613*
X031348Y036685*
X031277Y036733*
X031192Y03675*
X031108Y036733*
X031036Y036685*
X030988Y036613*
X030971Y036529*
X030988Y036444*
X031011Y036409*
Y036319*
X030948*
Y035846*
X0314*
Y035942*
X031673*
Y035846*
X031762*
X03177Y035808*
X0318Y035762*
X031944Y035618*
X03199Y035588*
X032044Y035577*
X032472*
X032593Y035457*
Y0346*
X032507Y034514*
X032325*
X032282Y03457*
X032224Y034614*
X032157Y034642*
X032085Y034652*
X032013Y034642*
X031946Y034614*
X031889Y03457*
X031845Y034513*
X031817Y034446*
X031807Y034374*
X031817Y034302*
X031845Y034235*
X031889Y034177*
X031905Y034165*
X031888Y034115*
X031777*
X031738Y034154*
Y034785*
X031727Y034839*
X031697Y034884*
X031567Y035014*
X031575Y035042*
X031581Y035051*
X031589Y035061*
X031846*
X031889Y035005*
X031946Y034961*
X032013Y034933*
X032085Y034924*
X032157Y034933*
X032224Y034961*
X032282Y035005*
X032326Y035063*
X032354Y03513*
X032363Y035202*
X032354Y035274*
X032326Y035341*
X032282Y035398*
X032224Y035442*
X032157Y03547*
X032085Y03548*
X032013Y03547*
X031946Y035442*
X031889Y035398*
X031846Y035342*
X031645*
X031468Y035518*
X031423Y035549*
X031369Y03556*
X0308*
X030774Y03561*
X030783Y035655*
Y035846*
X030869*
Y036319*
X030416*
Y035846*
X030502*
Y035713*
X030308Y035518*
X030277Y035473*
Y035471*
X029503*
Y035316*
Y035262*
X028969*
Y035317*
X028497*
Y035262*
X027869*
X027827Y035303*
X02783Y035323*
X02782Y035395*
X027793Y035462*
X027749Y03552*
X027691Y035564*
X027624Y035592*
X027552Y035601*
X02748Y035592*
X027413Y035564*
X027355Y03552*
X027343Y035504*
X026864*
X026795Y03549*
X026736Y035451*
X026279Y034994*
X02624Y034935*
X026226Y034866*
Y032427*
X025765Y031965*
X023603*
X023181Y032386*
Y033893*
X023168Y033962*
X023129Y034021*
X022046Y035103*
Y039832*
X022426Y040212*
X022468Y040184*
X022453Y040147*
X022447Y040104*
X022749*
Y040406*
X022707Y040401*
X02267Y040386*
X022641Y040428*
X022727Y040513*
X022799Y040504*
X022887Y040515*
X022968Y040549*
X023038Y040603*
X023092Y040673*
X023126Y040754*
X023137Y040841*
X023127Y040914*
X023534Y041321*
X023573Y041379*
X023587Y041448*
Y046342*
X023573Y046411*
X023534Y04647*
X023312Y046692*
Y047282*
X023446*
Y048424*
G37*
G36*
X042593Y041224D02*
X042309D01*
Y041051*
X042806*
X042799Y041086*
X042751Y041158*
X042679Y041207*
X042593Y041224*
G37*
G36*
X039011D02*
X038726D01*
Y041051*
X039223*
X039216Y041086*
X039168Y041158*
X039096Y041207*
X039011Y041224*
G37*
G36*
X042209D02*
X041924D01*
X041839Y041207*
X041767Y041158*
X041719Y041086*
X041712Y041051*
X042209*
Y041224*
G37*
G36*
X038626D02*
X038341D01*
X038256Y041207*
X038184Y041158*
X038136Y041086*
X038129Y041051*
X038626*
Y041224*
G37*
G36*
X034383Y042563D02*
X03393D01*
Y04209*
X034383*
Y042186*
X035515*
X035599Y042102*
X035578Y042052*
X035524*
Y041619*
Y041226*
X03564*
Y040972*
X035554Y040887*
X035403*
X035376Y040937*
X035394Y040962*
X035411Y041047*
X035394Y041131*
X03537Y041166*
Y041226*
X035446*
Y041619*
Y042052*
X034934*
Y041976*
X034714*
X03466Y041965*
X034615Y041934*
X034557Y041876*
X034383*
Y041972*
X03393*
Y0415*
X034383*
Y041595*
X034615*
X034669Y041606*
X034714Y041636*
X034772Y041695*
X034934*
Y041226*
X035009*
Y041166*
X034986Y041131*
X034969Y041047*
X034986Y040962*
X035003Y040937*
X034976Y040887*
X034413*
X034383Y040917*
Y041381*
X03393*
Y040909*
X034023*
X034026Y040891*
X034057Y040846*
X034256Y040647*
X034301Y040616*
X034355Y040606*
X035612*
X035666Y040616*
X035712Y040647*
X03588Y040815*
X03591Y04086*
X035921Y040914*
Y041226*
X036036*
Y041619*
Y042052*
X035921*
Y042119*
X03591Y042173*
X03588Y042218*
X035672Y042426*
X035627Y042456*
X035573Y042467*
X034383*
Y042563*
G37*
G36*
X042806Y040951D02*
X042309D01*
Y040779*
X042593*
X042679Y040796*
X042751Y040844*
X042799Y040916*
X042806Y040951*
G37*
G36*
X042209D02*
X041712D01*
X041719Y040916*
X041767Y040844*
X041839Y040796*
X041924Y040779*
X042209*
Y040951*
G37*
G36*
X039223D02*
X038726D01*
Y040779*
X039011*
X039096Y040796*
X039168Y040844*
X039216Y040916*
X039223Y040951*
G37*
G36*
X038626D02*
X038129D01*
X038136Y040916*
X038184Y040844*
X038256Y040796*
X038341Y040779*
X038626*
Y040951*
G37*
G36*
X047341Y040405D02*
X046541D01*
Y040105*
X047341*
Y040405*
G37*
G36*
X046441D02*
X045641D01*
Y040105*
X046441*
Y040405*
G37*
G36*
X022849Y040406D02*
Y040104D01*
X023152*
X023146Y040147*
X02311Y040234*
X023053Y040308*
X022979Y040365*
X022892Y040401*
X022849Y040406*
G37*
G36*
X039011Y043202D02*
X038341D01*
X038265Y043187*
X0382Y043143*
X038156Y043078*
X038141Y043001*
X038156Y042924*
X0382Y042859*
X038265Y042816*
X038341Y0428*
X039011*
X039088Y042816*
X039095Y042821*
X039649*
X040136Y042334*
Y040543*
X040149Y040474*
X040188Y040416*
X040677Y039927*
X040735Y039888*
X040804Y039874*
X041335*
X041367Y039853*
X041452Y039836*
X041536Y039853*
X041568Y039874*
X043447*
X043482Y039851*
X043567Y039834*
X043651Y039851*
X043686Y039874*
X043912*
Y039726*
X045569*
Y040384*
X043912*
Y040236*
X043686*
X043651Y040259*
X043567Y040276*
X043482Y040259*
X043447Y040236*
X041574*
X041536Y040261*
X041452Y040277*
X041367Y040261*
X04133Y040236*
X040879*
X040497Y040618*
Y042409*
X040483Y042478*
X040444Y042536*
X039851Y043129*
X039793Y043168*
X039724Y043182*
X039095*
X039088Y043187*
X039011Y043202*
G37*
G36*
X047341Y040005D02*
X046541D01*
Y039705*
X047341*
Y040005*
G37*
G36*
X046441D02*
X045641D01*
Y039705*
X046441*
Y040005*
G37*
G36*
X023152Y040004D02*
X022849D01*
Y039702*
X022892Y039707*
X022979Y039743*
X023053Y0398*
X02311Y039875*
X023146Y039961*
X023152Y040004*
G37*
G36*
X022749D02*
X022447D01*
X022453Y039961*
X022489Y039875*
X022546Y0398*
X02262Y039743*
X022707Y039707*
X022749Y039702*
Y040004*
G37*
G36*
X043714Y038841D02*
X042946D01*
Y038784*
X040584*
Y038841*
X039816*
Y038171*
X040584*
Y038228*
X042946*
Y038171*
X043714*
Y038841*
G37*
G36*
X034383Y040397D02*
X03393D01*
Y039925*
X034383*
Y040021*
X03549*
X03562Y039891*
X035599Y039841*
X035524*
Y039408*
Y039015*
X03564*
Y038702*
X035554Y038616*
X035339*
X035324Y038666*
X035346Y03868*
X035394Y038752*
X035411Y038836*
X035394Y038921*
X03537Y038956*
Y039015*
X035446*
Y039408*
Y039841*
X034934*
Y039765*
X034693*
X03464Y039754*
X034594Y039724*
X034581Y039711*
X034383*
Y039807*
X03393*
Y039334*
X034383*
Y03943*
X034639*
X034693Y039441*
X034739Y039471*
X034752Y039484*
X034934*
Y039015*
X035009*
Y038956*
X034986Y038921*
X034969Y038836*
X034986Y038752*
X035034Y03868*
X035055Y038666*
X03504Y038616*
X034397*
X034319Y038694*
X03434Y038744*
X034383*
Y039216*
X03393*
Y038744*
X034016*
Y038658*
X034026Y038604*
X034057Y038559*
X03424Y038376*
X034285Y038345*
X034339Y038335*
X035612*
X035666Y038345*
X035712Y038376*
X03588Y038544*
X03591Y03859*
X035921Y038643*
Y039015*
X036036*
Y039408*
Y039841*
X035921*
Y039929*
X03591Y039983*
X03588Y040028*
X035648Y04026*
X035602Y040291*
X035548Y040302*
X034383*
Y040397*
G37*
G36*
X031627Y037998D02*
X03144D01*
Y037889*
X031627*
Y037998*
G37*
G36*
X022809Y03771D02*
X022722Y037698D01*
X02264Y037664*
X02257Y037611*
X022517Y037541*
X022483Y037459*
X022471Y037372*
X022483Y037285*
X022517Y037203*
X02257Y037133*
X02264Y03708*
X022722Y037046*
X022809Y037034*
X022896Y037046*
X022978Y03708*
X023048Y037133*
X023101Y037203*
X023135Y037285*
X023146Y037372*
X023135Y037459*
X023101Y037541*
X023048Y037611*
X022978Y037664*
X022896Y037698*
X022809Y03771*
G37*
G36*
X043735Y03709D02*
X04338D01*
Y036784*
X043735*
Y03709*
G37*
G36*
X04328D02*
X042925D01*
Y036784*
X04328*
Y03709*
G37*
G36*
X040605D02*
X04025D01*
Y036784*
X040605*
Y03709*
G37*
G36*
X04015D02*
X039795D01*
Y036784*
X04015*
Y03709*
G37*
G36*
X022859Y036937D02*
Y036635D01*
X023161*
X023156Y036678*
X02312Y036764*
X023063Y036838*
X022988Y036895*
X022902Y036931*
X022859Y036937*
G37*
G36*
X022759D02*
X022716Y036931D01*
X022629Y036895*
X022555Y036838*
X022498Y036764*
X022462Y036678*
X022456Y036635*
X022759*
Y036937*
G37*
G36*
X044777Y037071D02*
X04469Y037059D01*
X044608Y037025*
X044538Y036972*
X044485Y036902*
X044451Y03682*
X044439Y036733*
X044451Y036646*
X044485Y036564*
X044538Y036494*
X044608Y036441*
X04469Y036407*
X044777Y036395*
X044864Y036407*
X044946Y036441*
X045016Y036494*
X045069Y036564*
X045103Y036646*
X045115Y036733*
X045103Y03682*
X045069Y036902*
X045016Y036972*
X044946Y037025*
X044864Y037059*
X044777Y037071*
G37*
G36*
X043735Y036684D02*
X04338D01*
Y036378*
X043735*
Y036684*
G37*
G36*
X04328D02*
X042925D01*
Y036378*
X04328*
Y036684*
G37*
G36*
X040605D02*
X04025D01*
Y036378*
X040605*
Y036684*
G37*
G36*
X04015D02*
X039795D01*
Y036378*
X04015*
Y036684*
G37*
G36*
X022759Y036535D02*
X022456D01*
X022462Y036492*
X022498Y036405*
X022555Y036331*
X022629Y036274*
X022716Y036238*
X022759Y036232*
Y036535*
G37*
G36*
X023161D02*
X022859D01*
Y036232*
X022902Y036238*
X022988Y036274*
X023063Y036331*
X02312Y036405*
X023156Y036492*
X023161Y036535*
G37*
G36*
X032679Y03634D02*
X032481D01*
Y036133*
X032679*
Y03634*
G37*
G36*
X032381D02*
X032183D01*
Y036133*
X032381*
Y03634*
G37*
G36*
X025393Y036567D02*
X025301Y036549D01*
X025223Y036496*
X025171Y036418*
X025152Y036326*
X025171Y036234*
X025223Y036156*
X025301Y036103*
X025393Y036085*
X025485Y036103*
X025564Y036156*
X025616Y036234*
X025634Y036326*
X025616Y036418*
X025564Y036496*
X025485Y036549*
X025393Y036567*
G37*
G36*
X044777Y036283D02*
X04469Y036272D01*
X044608Y036238*
X044538Y036184*
X044485Y036114*
X044451Y036033*
X044439Y035946*
X044451Y035858*
X044485Y035777*
X044538Y035707*
X044608Y035653*
X04469Y03562*
X044777Y035608*
X044864Y03562*
X044946Y035653*
X045016Y035707*
X045069Y035777*
X045103Y035858*
X045115Y035946*
X045103Y036033*
X045069Y036114*
X045016Y036184*
X044946Y036238*
X044864Y036272*
X044777Y036283*
G37*
G36*
X043317Y035695D02*
X043232Y035678D01*
X043161Y035631*
X043113Y035559*
X043096Y035474*
X043113Y03539*
X043136Y035355*
Y035076*
X042958*
Y034922*
X040596*
Y035076*
X039829*
Y034407*
X040596*
Y034561*
X042958*
Y034407*
X043726*
Y035076*
X043498*
Y035355*
X043521Y03539*
X043538Y035474*
X043521Y035559*
X043473Y035631*
X043401Y035678*
X043317Y035695*
G37*
G36*
X044777Y035496D02*
X04469Y035484D01*
X044608Y035451*
X044538Y035397*
X044485Y035327*
X044451Y035246*
X044439Y035158*
X044451Y035071*
X044485Y034989*
X044538Y03492*
X044608Y034866*
X04469Y034832*
X044777Y034821*
X044864Y034832*
X044946Y034866*
X045016Y03492*
X045069Y034989*
X045103Y035071*
X045115Y035158*
X045103Y035246*
X045069Y035327*
X045016Y035397*
X044946Y035451*
X044864Y035484*
X044777Y035496*
G37*
G36*
X027602Y034429D02*
Y034186D01*
X027845*
X027841Y034214*
X027811Y034286*
X027764Y034348*
X027702Y034396*
X027629Y034425*
X027602Y034429*
G37*
G36*
X027502D02*
X027474Y034425D01*
X027402Y034396*
X02734Y034348*
X027293Y034286*
X027263Y034214*
X027259Y034186*
X027502*
Y034429*
G37*
G36*
X044777Y034708D02*
X04469Y034697D01*
X044608Y034663*
X044538Y034609*
X044485Y03454*
X044451Y034458*
X044439Y034371*
X044451Y034283*
X044485Y034202*
X044538Y034132*
X044608Y034078*
X04469Y034045*
X044777Y034033*
X044864Y034045*
X044946Y034078*
X045016Y034132*
X045069Y034202*
X045103Y034283*
X045115Y034371*
X045103Y034458*
X045069Y03454*
X045016Y034609*
X044946Y034663*
X044864Y034697*
X044777Y034708*
G37*
G36*
X027845Y034086D02*
X027602D01*
Y033843*
X027629Y033847*
X027702Y033877*
X027764Y033925*
X027811Y033987*
X027841Y034059*
X027845Y034086*
G37*
G36*
X027502D02*
X027259D01*
X027263Y034059*
X027293Y033987*
X02734Y033925*
X027402Y033877*
X027474Y033847*
X027502Y033843*
Y034086*
G37*
G36*
X02905Y034283D02*
X028783D01*
Y033839*
X02905*
Y034283*
G37*
G36*
X028683D02*
X028417D01*
Y033839*
X028683*
Y034283*
G37*
G36*
X041817Y034114D02*
X041732Y034097D01*
X04166Y034049*
X041613Y033977*
X041596Y033893*
X041613Y033808*
X04166Y033737*
X041732Y033689*
X041817Y033672*
X041901Y033689*
X041973Y033737*
X042021Y033808*
X042037Y033893*
X042021Y033977*
X041973Y034049*
X041901Y034097*
X041817Y034114*
G37*
G36*
X022025Y033764D02*
X021907D01*
Y033022*
X022294*
Y033494*
X022285Y033564*
X022258Y033629*
X022215Y033685*
X022159Y033728*
X022094Y033755*
X022025Y033764*
G37*
G36*
X021807D02*
X02169D01*
X02162Y033755*
X021555Y033728*
X021499Y033685*
X021456Y033629*
X021429Y033564*
X02142Y033494*
Y033022*
X021807*
Y033764*
G37*
G36*
X043747Y033326D02*
X043392D01*
Y03302*
X043747*
Y033326*
G37*
G36*
X043292D02*
X042937D01*
Y03302*
X043292*
Y033326*
G37*
G36*
X040617D02*
X040262D01*
Y03302*
X040617*
Y033326*
G37*
G36*
X040162D02*
X039807D01*
Y03302*
X040162*
Y033326*
G37*
G36*
X038668Y03332D02*
X038313D01*
Y033014*
X038668*
Y03332*
G37*
G36*
X038213D02*
X037858D01*
Y033014*
X038213*
Y03332*
G37*
G36*
X035539D02*
X035183D01*
Y033014*
X035539*
Y03332*
G37*
G36*
X035083D02*
X034728D01*
Y033014*
X035083*
Y03332*
G37*
G36*
X043747Y03292D02*
X043392D01*
Y032614*
X043747*
Y03292*
G37*
G36*
X043292D02*
X042937D01*
Y032614*
X043292*
Y03292*
G37*
G36*
X040617D02*
X040262D01*
Y032614*
X040617*
Y03292*
G37*
G36*
X040162D02*
X039807D01*
Y032614*
X040162*
Y03292*
G37*
G36*
X038668Y032914D02*
X038313D01*
Y032608*
X038668*
Y032914*
G37*
G36*
X038213D02*
X037858D01*
Y032608*
X038213*
Y032914*
G37*
G36*
X035539D02*
X035183D01*
Y032608*
X035539*
Y032914*
G37*
G36*
X035083D02*
X034728D01*
Y032608*
X035083*
Y032914*
G37*
G36*
X027552Y033187D02*
X02748Y033177D01*
X027413Y033149*
X027355Y033105*
X027311Y033048*
X027283Y032981*
X027274Y032909*
X027283Y032837*
X027311Y03277*
X027355Y032712*
X027413Y032668*
X02748Y03264*
X027552Y032631*
X027624Y03264*
X027691Y032668*
X027749Y032712*
X027765Y032734*
X028449*
Y032679*
X028497*
Y032552*
X028474Y032518*
X028457Y032433*
X028474Y032349*
X028522Y032277*
X028593Y032229*
X028678Y032212*
X028762Y032229*
X028834Y032277*
X028882Y032349*
X028899Y032433*
X028882Y032518*
X028859Y032552*
Y032679*
X028902*
Y033151*
X028449*
Y033095*
X027756*
X027749Y033105*
X027691Y033149*
X027624Y033177*
X027552Y033187*
G37*
G36*
X029246Y049337D02*
X026448D01*
X026376Y049328*
X026309Y0493*
X026251Y049256*
X0254Y048404*
X025355Y048346*
X025328Y048279*
X025318Y048207*
Y046255*
X024023Y044959*
X023979Y044902*
X023951Y044835*
X023941Y044763*
Y033716*
X023875Y033672*
X02382Y03359*
X023801Y033494*
Y032451*
X02382Y032355*
X023875Y032273*
X023956Y032219*
X024052Y0322*
X024387*
X024483Y032219*
X024564Y032273*
X024619Y032355*
X024638Y032451*
Y033494*
X024619Y03359*
X024564Y033672*
X024497Y033716*
Y044648*
X025793Y045943*
X025837Y046*
X025865Y046067*
X025874Y046139*
Y048092*
X026563Y048781*
X029246*
X029318Y048791*
X029385Y048818*
X029442Y048863*
X029486Y04892*
X029514Y048987*
X029524Y049059*
X029514Y049131*
X029486Y049198*
X029442Y049256*
X029385Y0493*
X029318Y049328*
X029246Y049337*
G37*
G36*
X022294Y032922D02*
X021907D01*
Y032181*
X022025*
X022094Y03219*
X022159Y032217*
X022215Y03226*
X022258Y032316*
X022285Y032381*
X022294Y032451*
Y032922*
G37*
G36*
X021807D02*
X02142D01*
Y032451*
X021429Y032381*
X021456Y032316*
X021499Y03226*
X021555Y032217*
X02162Y03219*
X02169Y032181*
X021807*
Y032922*
G37*
G36*
X036018Y031546D02*
X035939Y031536D01*
X035819Y031486*
X035716Y031407*
X035636Y031304*
X03559Y031192*
X03556Y031188*
X035538Y031192*
X035496Y031293*
X03542Y031392*
X035322Y031468*
X035207Y031515*
X035083Y031532*
X03496Y031515*
X034845Y031468*
X034746Y031392*
X034671Y031293*
X034623Y031178*
X034607Y031055*
X034623Y030932*
X034671Y030817*
X034746Y030718*
X034845Y030642*
X03496Y030595*
X035083Y030578*
X035207Y030595*
X035322Y030642*
X03542Y030718*
X035496Y030817*
X035538Y030918*
X03556Y030922*
X03559Y030918*
X035636Y030806*
X035716Y030703*
X035819Y030624*
X035939Y030574*
X036018Y030564*
Y031055*
Y031546*
G37*
G36*
X044036Y031532D02*
X043913Y031515D01*
X043798Y031468*
X043699Y031392*
X043624Y031293*
X043578Y031183*
X043565Y031178*
X043538*
X043526Y031183*
X04348Y031293*
X043405Y031392*
X043306Y031468*
X043191Y031515*
X043068Y031532*
X042944Y031515*
X042829Y031468*
X042731Y031392*
X042655Y031293*
X042607Y031178*
X042601Y031128*
X04255*
X042544Y031178*
X042496Y031293*
X04242Y031392*
X042322Y031468*
X042207Y031515*
X042083Y031532*
X04196Y031515*
X041845Y031468*
X041746Y031392*
X041671Y031293*
X041623Y031178*
X041607Y031055*
X041623Y030932*
X041671Y030817*
X041746Y030718*
X041845Y030642*
X04196Y030595*
X042083Y030578*
X042207Y030595*
X042322Y030642*
X04242Y030718*
X042496Y030817*
X042544Y030932*
X04255Y030982*
X042601*
X042607Y030932*
X042655Y030817*
X042731Y030718*
X042829Y030642*
X042944Y030595*
X043068Y030578*
X043191Y030595*
X043306Y030642*
X043405Y030718*
X04348Y030817*
X043526Y030927*
X043538Y030932*
X043565*
X043578Y030927*
X043624Y030817*
X043699Y030718*
X043798Y030642*
X043913Y030595*
X044036Y030578*
X04416Y030595*
X044274Y030642*
X044373Y030718*
X044449Y030817*
X044496Y030932*
X044513Y031055*
X044496Y031178*
X044449Y031293*
X044373Y031392*
X044274Y031468*
X04416Y031515*
X044036Y031532*
G37*
G36*
X02356Y03152D02*
X023088D01*
Y031133*
X02383*
Y03125*
X02382Y03132*
X023794Y031385*
X023751Y031441*
X023695Y031484*
X02363Y03151*
X02356Y03152*
G37*
G36*
X022988D02*
X022517D01*
X022447Y03151*
X022382Y031484*
X022326Y031441*
X022283Y031385*
X022256Y03132*
X022247Y03125*
Y031133*
X022988*
Y03152*
G37*
G36*
X041068Y031532D02*
X040944Y031515D01*
X040829Y031468*
X040731Y031392*
X040655Y031293*
X040607Y031178*
X040596Y031091*
X040593Y031068*
X040542*
X04054Y031091*
X040528Y031178*
X04048Y031293*
X040405Y031392*
X040306Y031468*
X040191Y031515*
X040068Y031532*
X039944Y031515*
X039829Y031468*
X039731Y031392*
X039655Y031293*
X039607Y031178*
X039591Y031055*
X039607Y030932*
X039655Y030817*
X039731Y030718*
X039829Y030642*
X039944Y030595*
X040068Y030578*
X040191Y030595*
X040306Y030642*
X040405Y030718*
X04048Y030817*
X040528Y030932*
X04054Y031019*
X040542Y031042*
X040593*
X040596Y031019*
X040607Y030932*
X040655Y030817*
X040731Y030718*
X040829Y030642*
X040944Y030595*
X041068Y030578*
X041191Y030595*
X041306Y030642*
X041405Y030718*
X04148Y030817*
X041528Y030932*
X041544Y031055*
X041528Y031178*
X04148Y031293*
X041405Y031392*
X041306Y031468*
X041191Y031515*
X041068Y031532*
G37*
G36*
X02383Y031033D02*
X023088D01*
Y030646*
X02356*
X02363Y030655*
X023695Y030682*
X023751Y030725*
X023794Y030781*
X02382Y030846*
X02383Y030915*
Y031033*
G37*
G36*
X022988D02*
X022247D01*
Y030915*
X022256Y030846*
X022283Y030781*
X022326Y030725*
X022382Y030682*
X022447Y030655*
X022517Y030646*
X022988*
Y031033*
G37*
G36*
X045509Y031527D02*
X044564D01*
Y030583*
X045509*
Y031527*
G37*
G36*
X037086Y031546D02*
Y031055D01*
Y030564*
X037165Y030574*
X037285Y030624*
X037388Y030703*
X037467Y030806*
X037517Y030926*
X037564Y030914*
Y030583*
X038509*
Y031527*
X037564*
Y031196*
X037517Y031184*
X037467Y031304*
X037388Y031407*
X037285Y031486*
X037165Y031536*
X037086Y031546*
G37*
G36*
X036118D02*
Y031055D01*
Y030564*
X036197Y030574*
X036317Y030624*
X03642Y030703*
X036499Y030806*
X036525Y030869*
X036579*
X036605Y030806*
X036684Y030703*
X036787Y030624*
X036907Y030574*
X036986Y030564*
Y031055*
Y031546*
X036907Y031536*
X036787Y031486*
X036684Y031407*
X036605Y031304*
X036579Y031241*
X036525*
X036499Y031304*
X03642Y031407*
X036317Y031486*
X036197Y031536*
X036118Y031546*
G37*
%LNvapeixshield-3*%
%LPD*%
G36*
X030553Y04891D02*
X030531Y048893D01*
X030487Y048836*
X030459Y048769*
X03045Y048697*
Y048207*
X030459Y048136*
X030487Y048068*
X030492Y048063*
Y047971*
X030583*
X030589Y047967*
X030656Y047939*
X030728Y04793*
X0308Y047939*
X030867Y047967*
X030873Y047971*
X030964*
X031004Y047946*
Y047912*
X031317*
Y047714*
X031232*
Y047241*
X031317*
Y046279*
X031328Y046225*
X031359Y04618*
X031475Y046063*
X031521Y046032*
X031575Y046022*
X031581*
X031622Y045972*
X031621Y045965*
X031631Y045912*
X031661Y045867*
X031631Y045822*
X031621Y045769*
X031631Y045715*
X031662Y045669*
X031707Y045639*
X031761Y045628*
X031895*
Y045419*
X031499Y045023*
X031034*
X031014Y045073*
X031204Y045264*
X031235Y045309*
X031246Y045363*
Y045726*
X031267Y04574*
X031315Y045812*
X031332Y045896*
X031315Y045981*
X031267Y046052*
X031251Y046063*
X031241Y046112*
X03121Y046158*
X031106Y046262*
X031061Y046292*
X031007Y046303*
X030878*
X030837Y046353*
X030839Y046359*
X030828Y046413*
X030798Y046457*
X030828Y046502*
X030839Y046556*
X030828Y04661*
X030797Y046655*
X030752Y046686*
X030698Y046696*
X030598*
Y047441*
X030584Y04751*
X030545Y047569*
X030347Y047767*
X030288Y047807*
X030219Y04782*
X029874*
Y048014*
X02972*
Y048427*
X030253Y04896*
X030536*
X030553Y04891*
G37*
G36*
X031457Y034727D02*
Y034096D01*
X031468Y034042*
X031498Y033996*
X03162Y033875*
X031666Y033844*
X031719Y033834*
X031919*
X031936Y033784*
X031898Y033754*
X031855Y033698*
X031751*
X031741Y033714*
X031669Y033762*
X031585Y033779*
X0315Y033762*
X031428Y033714*
X031424Y033708*
X031374Y033716*
Y033802*
X030902*
Y033349*
X031374*
Y0334*
X031424Y033408*
X031428Y033402*
X0315Y033354*
X031585Y033337*
X031669Y033354*
X031741Y033402*
X031751Y033417*
X031855*
X031898Y033361*
X031956Y033317*
X032023Y033289*
X032095Y03328*
X032167Y033289*
X032234Y033317*
X032291Y033361*
X032335Y033419*
X032363Y033486*
X032373Y033558*
X032363Y03363*
X032335Y033697*
X032291Y033754*
X032253Y033784*
X03227Y033834*
X032472*
X032593Y033713*
Y032978*
X032513Y032899*
X032325*
X032282Y032955*
X032224Y032999*
X032157Y033027*
X032085Y033036*
X032013Y033027*
X031946Y032999*
X031889Y032955*
X031845Y032897*
X031817Y03283*
X031807Y032758*
X031817Y032686*
X031845Y032619*
X031889Y032562*
X031945Y032519*
Y032452*
X031904Y032411*
X030384*
X030373Y032427*
X030398Y032477*
X030407*
Y032616*
X030457*
Y032655*
X030471Y032658*
X030614*
Y032666*
X030635*
Y032756*
X030639Y032804*
X030758Y032923*
X030902*
Y032817*
X031374*
Y03327*
X030902*
Y033165*
X030708*
X030662Y033156*
X030622Y033129*
X030537Y033044*
X030491Y033063*
Y033198*
X030454*
Y03361*
X030443Y033664*
X030413Y03371*
X030251Y033871*
Y033959*
X030301Y033983*
X030327Y033966*
X030381Y033955*
X030446*
X030457Y03394*
X030528Y033892*
X030613Y033875*
X030697Y033892*
X030769Y03394*
X030779Y033955*
X030844*
X030898Y033966*
X030944Y033996*
X03111Y034163*
X031374*
Y034616*
X030902*
Y034352*
X030818Y034268*
X030769Y034252*
X030697Y0343*
X030613Y034316*
X030594Y034313*
X030557Y034344*
X030565Y034396*
X030585Y0344*
X030631Y034431*
X030866Y034666*
X030902Y034694*
X031374*
Y034739*
X031424Y03476*
X031457Y034727*
G37*
%LNvapeixshield-4*%
%LPC*%
G36*
X031174Y047735D02*
X030976D01*
Y047528*
X031174*
Y047735*
G37*
G36*
X030876D02*
X030679D01*
Y047528*
X030876*
Y047735*
G37*
G36*
X031174Y047428D02*
X030976D01*
Y04722*
X031174*
Y047428*
G37*
G36*
X030876D02*
X030679D01*
Y04722*
X030876*
Y047428*
G37*
G36*
X030635Y032566D02*
X030507D01*
Y032477*
X030635*
Y032566*
G37*
%LNvapeixshield-5*%
%LPD*%
G54D10*
X030457Y032616D03*
Y032776D03*
X030027Y033093D03*
Y032933D03*
G54D11*
X03015Y032694D03*
X030313Y033021D03*
G54D12*
X030278Y03504D03*
G54D13*
X029768Y03504D03*
G54D14*
X029641Y03453D03*
X029896D03*
X030407D03*
X030151D03*
Y035255D03*
X030407D03*
X029896D03*
X029641D03*
G54D15*
X033575Y045826D03*
X031175Y038177D03*
X032079Y041118D03*
X031175Y043229D03*
G54D16*
X033575Y046337D03*
X031175Y038687D03*
X032079Y040608D03*
X031175Y043739D03*
G54D17*
X033065Y046464D03*
Y046209D03*
Y045698D03*
Y045954D03*
X03379D03*
Y045698D03*
Y046209D03*
Y046464D03*
X030665Y038814D03*
Y038559D03*
Y038048D03*
Y038304D03*
X03139D03*
Y038048D03*
Y038559D03*
Y038814D03*
X032589Y040481D03*
Y040736D03*
Y041247D03*
Y040991D03*
X031864D03*
Y041247D03*
Y040736D03*
Y040481D03*
X030665Y043867D03*
Y043612D03*
Y043101D03*
Y043357D03*
X03139D03*
Y043101D03*
Y043612D03*
Y043867D03*
G54D18*
X037598Y044511D03*
Y043979D03*
X043307Y042958D03*
Y043489D03*
X03685Y043509D03*
Y044041D03*
X027671Y047282D03*
Y047814D03*
X027041D03*
Y047282D03*
X031138Y034921D03*
Y034389D03*
Y033044D03*
Y033575D03*
G54D19*
X040246Y045389D03*
X040778D03*
X028858Y045653D03*
X02939D03*
X033567Y047843D03*
X033035D03*
X030926Y047478D03*
X031458D03*
X027131Y045637D03*
X027663D03*
X028858Y046545D03*
X02939D03*
X033625Y041736D03*
X034156D03*
X033625Y042326D03*
X034156D03*
X033625Y041145D03*
X034156D03*
X033625Y03957D03*
X034156D03*
X033625Y040161D03*
X034156D03*
X033625Y03898D03*
X034156D03*
X029432Y037014D03*
X0289D03*
X029432Y037604D03*
X0289D03*
X029432Y03914D03*
X0289D03*
X029432Y038195D03*
X0289D03*
X029432Y03973D03*
X0289D03*
X029432Y040321D03*
X0289D03*
X029432Y041187D03*
X0289D03*
X029432Y041778D03*
X0289D03*
X029432Y042368D03*
X0289D03*
X029432Y043904D03*
X0289D03*
X029432Y043313D03*
X0289D03*
X029432Y044494D03*
X0289D03*
X030025Y033899D03*
X029493D03*
X029207Y032915D03*
X028675D03*
X031174Y036083D03*
X030643D03*
X032431D03*
X0319D03*
G54D20*
X046491Y040055D03*
X044741D03*
X046491Y041055D03*
X044741D03*
X046491Y042055D03*
X044741D03*
G54D21*
X040212Y03297D03*
X043342D03*
Y034742D03*
X040212D03*
X0402Y036734D03*
X04333D03*
Y038506D03*
X0402D03*
X035133Y032964D03*
X038263D03*
Y034736D03*
X035133D03*
G54D22*
X022147Y047853D03*
X024116D03*
X023131D03*
Y050019D03*
X024116D03*
X022147D03*
G54D23*
X038676Y044501D03*
Y044001D03*
Y043501D03*
Y043001D03*
Y042501D03*
Y042001D03*
Y041501D03*
Y041001D03*
X042259Y044501D03*
Y044001D03*
Y043501D03*
Y043001D03*
Y042501D03*
Y042001D03*
Y041501D03*
Y041001D03*
G54D24*
X032037Y045769D03*
Y045965D03*
Y046162D03*
Y046359D03*
Y046556D03*
X030422Y045769D03*
Y045965D03*
Y046162D03*
Y046359D03*
Y046556D03*
G54D25*
X02887Y04764D03*
X02954D03*
G54D26*
X031476Y048207D03*
G54D27*
X030728Y048207D03*
G54D28*
X027788Y039864D03*
Y039471D03*
X027198Y039864D03*
Y039471D03*
X027788Y041995D03*
Y041602D03*
X027198Y041995D03*
Y041602D03*
X027788Y037739D03*
Y037346D03*
X027198Y037739D03*
Y037346D03*
X027788Y044121D03*
Y043728D03*
X027198Y044121D03*
Y043728D03*
X03519Y041442D03*
Y041835D03*
X03578Y041442D03*
Y041835D03*
X03519Y039231D03*
Y039624D03*
X03578Y039231D03*
Y039624D03*
G54D29*
X031101Y037124D03*
X031019Y041767D03*
Y040083D03*
X027552Y035323D03*
Y032909D03*
Y034136D03*
X032095Y033558D03*
X032085Y034374D03*
Y035202D03*
Y032758D03*
G54D30*
X028733Y035081D03*
G54D31*
X028733Y034333D03*
G54D32*
X030097Y039408D02*
X030341D01*
X032855Y040161D02*
X033625D01*
X032559Y039298D02*
X032895Y038962D01*
X032559Y039298D02*
Y040451D01*
X032855Y03957D02*
X033624D01*
X033625*
X026772Y038678D02*
X027056Y038394D01*
X026772Y038678D02*
Y040341D01*
X027178Y040746*
X030097Y039961D02*
Y040746D01*
X027178D02*
X030097D01*
Y041557*
X030138Y037867D02*
Y0388D01*
Y03738D02*
Y037867D01*
X030868Y045126D02*
X031105Y045363D01*
X028394Y045126D02*
X030868D01*
X028057Y045463D02*
X028394Y045126D01*
X031557Y044882D02*
X032035Y045361D01*
X02807Y044882D02*
X031557D01*
X027663Y045289D02*
X02807Y044882D01*
X033065Y045328D02*
Y045698D01*
X030422Y04545D02*
Y045768D01*
X031435Y045288D02*
Y046018D01*
X030926Y046527D02*
X031435Y046018D01*
X030926Y046527D02*
Y047478D01*
X043317Y034767D02*
X043342Y034742D01*
X032035Y045361D02*
Y045742D01*
X032571Y045734D02*
X032791Y045954D01*
X032571Y045328D02*
Y045734D01*
X033095Y040736D02*
X033194Y040835D01*
X032895Y043341D02*
X033666Y044112D01*
X032895Y04107D02*
Y043341D01*
X033194Y041736D02*
X033625D01*
X032816Y040991D02*
X032895Y04107D01*
X032091Y041767D02*
X032287Y041963D01*
X031019Y041767D02*
X032091D01*
X032287Y041963D02*
Y043585D01*
X035436Y046734*
X032589Y041247D02*
Y043481D01*
X032895Y038962D02*
X033607D01*
X032791Y045954D02*
X033065D01*
X030536Y041767D02*
X031019D01*
X0303Y042003D02*
X030536Y041767D01*
X0303Y042003D02*
Y043504D01*
X028057Y045463D02*
Y045868D01*
X027826Y046099D02*
X028057Y045868D01*
X027218Y046099D02*
X027826D01*
X027041Y046276D02*
X027218Y046099D01*
X027041Y046276D02*
Y047282D01*
X027663Y045289D02*
Y045637D01*
X02734Y048491D02*
X028435D01*
X027041Y048193D02*
X02734Y048491D01*
X027041Y047814D02*
Y048193D01*
X038702Y045693D02*
X040068Y047059D01*
X034801Y045693D02*
X038702D01*
X040068Y047059D02*
Y050055D01*
X032589Y043481D02*
X034801Y045693D01*
X034071Y043382D02*
Y04399D01*
X03395Y044112D02*
X034071Y04399D01*
X033666Y044112D02*
X03395D01*
X033625Y042935D02*
X034071Y043382D01*
X033625Y042326D02*
Y042935D01*
X032589Y040736D02*
X033095D01*
X032589Y040991D02*
X032816D01*
X035436Y046734D02*
Y050055D01*
X031105Y045363D02*
Y045943D01*
X031111Y045896D02*
Y046058D01*
X031007Y046162D02*
X031111Y046058D01*
X030422Y046162D02*
X031007D01*
X031585Y033558D02*
X032013D01*
X031156D02*
X031585D01*
X030341Y039408D02*
Y039894D01*
Y038719D02*
Y039408D01*
X030613Y034096D02*
X030844D01*
X030381D02*
X030613D01*
X031864Y038985D02*
Y040481D01*
X031693Y038814D02*
X031864Y038985D01*
X032589Y040481D02*
X0334D01*
X033625Y040705*
Y041145*
X034693Y039624D02*
X03519D01*
X034639Y03957D02*
X034693Y039624D01*
X034156Y03957D02*
X034639D01*
X03578Y038643D02*
Y039231D01*
X035612Y038475D02*
X03578Y038643D01*
X034339Y038475D02*
X035612D01*
X034156Y038658D02*
X034339Y038475D01*
X034156Y038658D02*
Y03898D01*
X03578Y039624D02*
Y039929D01*
X035548Y040161D02*
X03578Y039929D01*
X034156Y040161D02*
X035548D01*
X0303Y043504D02*
X030408Y043612D01*
X03578Y040914D02*
Y041442D01*
X035612Y040746D02*
X03578Y040914D01*
X034355Y040746D02*
X035612D01*
X034156Y040945D02*
X034355Y040746D01*
X03578Y041835D02*
Y042119D01*
X035573Y042326D02*
X03578Y042119D01*
X034156Y042326D02*
X035573D01*
X034156Y040945D02*
Y041145D01*
X034714Y041835D02*
X03519D01*
X034615Y041736D02*
X034714Y041835D01*
X034156Y041736D02*
X034615D01*
X040246Y044853D02*
Y045389D01*
X039894Y044501D02*
X040246Y044853D01*
X038676Y044501D02*
X039894D01*
X042259Y044001D02*
X042871D01*
X042259Y044501D02*
X042871D01*
X030922Y034921D02*
X031138D01*
X030531Y03453D02*
X030922Y034921D01*
X030407Y03453D02*
X030531D01*
X03139Y038814D02*
X031693D01*
X03139Y038304D02*
Y038814D01*
X031864Y040736D02*
Y040991D01*
Y040481D02*
Y040736D01*
X032085Y032758D02*
X032572D01*
X032733Y03292*
Y033771*
X03253Y033974D02*
X032733Y033771D01*
X031719Y033974D02*
X03253D01*
X031598Y034096D02*
X031719Y033974D01*
X031598Y034096D02*
Y034785D01*
X031462Y034921D02*
X031598Y034785D01*
X031138Y034921D02*
X031462D01*
X030025Y033899D02*
X030313Y03361D01*
X029204Y033609D02*
X029493Y033899D01*
Y034222*
X029641Y034369*
X030025Y033899D02*
Y034168D01*
X029896Y034297D02*
X030025Y034168D01*
X032733Y034542D02*
Y035515D01*
X032565Y034374D02*
X032733Y034542D01*
X032004Y034374D02*
X032565D01*
X03253Y035718D02*
X032733Y035515D01*
X032044Y035718D02*
X03253D01*
X032085Y032394D02*
Y032758D01*
X031963Y032271D02*
X032085Y032394D01*
X0303Y032271D02*
X031963D01*
X028272Y033609D02*
X029204D01*
X030408Y043612D02*
X030665D01*
X0305Y038559D02*
X030665D01*
X030341Y038719D02*
X0305Y038559D01*
X03053Y040083D02*
X031019D01*
X030341Y039894D02*
X03053Y040083D01*
X029798Y03914D02*
X030138Y0388D01*
X030665Y038814D02*
Y039205D01*
X030407Y035419D02*
X031369D01*
X031587Y035202D02*
X032004D01*
X031369Y035419D02*
X031587Y035202D01*
X0319Y035862D02*
X032044Y035718D01*
X0319Y035862D02*
Y036083D01*
X03015Y032421D02*
Y032694D01*
Y032421D02*
X0303Y032271D01*
X030313Y033021D02*
Y03361D01*
X030844Y034096D02*
X031138Y034389D01*
X030151Y034326D02*
X030381Y034096D01*
X030151Y034326D02*
Y03453D01*
X029896Y034297D02*
Y03453D01*
X029641Y034369D02*
Y03453D01*
X031174Y036083D02*
X0319D01*
X030643Y035655D02*
Y036083D01*
X030407Y035419D02*
X030643Y035655D01*
X030407Y035255D02*
Y035419D01*
X030665Y03756D02*
X031101Y037124D01*
X030665Y03756D02*
Y038048D01*
X029432Y037604D02*
X02975D01*
X029432Y038195D02*
X02975D01*
X029432Y040321D02*
X02975D01*
X029432Y041187D02*
X02975D01*
X029432Y042368D02*
X02975D01*
X029432Y043313D02*
X02975D01*
X029432Y044494D02*
X02975D01*
X030097Y043867D02*
X030665D01*
X029469D02*
X030097D01*
Y041557D02*
Y043867D01*
X029432Y03973D02*
X029867D01*
X030097Y039961*
X029877Y041778D02*
X030097Y041557D01*
X029432Y041778D02*
X029877D01*
X030147Y038304D02*
X030583D01*
X029432Y037014D02*
X029771D01*
X030138Y03738*
X029432Y03914D02*
X029798D01*
X029432Y043904D02*
X029469Y043867D01*
X02734Y042368D02*
X0289D01*
X027198Y042226D02*
X02734Y042368D01*
X027198Y041995D02*
Y042226D01*
X027345Y041187D02*
X0289D01*
X027198Y041334D02*
X027345Y041187D01*
X027198Y041334D02*
Y041602D01*
X02732Y040321D02*
X0289D01*
X027198Y040198D02*
X02732Y040321D01*
X027198Y039864D02*
Y040198D01*
X027343Y038195D02*
X0289D01*
X027198Y038049D02*
X027343Y038195D01*
X027198Y037739D02*
Y038049D01*
X027301Y037014D02*
X0289D01*
X027198Y037117D02*
X027301Y037014D01*
X027198Y037117D02*
Y037346D01*
X028659Y037604D02*
X0289D01*
X028401Y037346D02*
X028659Y037604D01*
X027788Y037346D02*
X028401D01*
X027324Y03914D02*
X0289D01*
X027198Y039266D02*
X027324Y03914D01*
X027198Y039266D02*
Y039471D01*
X028635Y03973D02*
X0289D01*
X028376Y039471D02*
X028635Y03973D01*
X027788Y039471D02*
X028376D01*
X028615Y041778D02*
X0289D01*
X028439Y041602D02*
X028615Y041778D01*
X027788Y041602D02*
X028439D01*
X027368Y043313D02*
X0289D01*
X027317Y044494D02*
X0289D01*
X027198Y043483D02*
X027368Y043313D01*
X028591Y043904D02*
X0289D01*
X028416Y043728D02*
X028591Y043904D01*
X027788Y043728D02*
X028416D01*
X027198Y043483D02*
Y043728D01*
Y044375D02*
X027317Y044494D01*
X027198Y044121D02*
Y044375D01*
X031575Y046162D02*
X032037D01*
X031458Y046279D02*
X031575Y046162D01*
X031458Y046279D02*
Y047478D01*
X02939Y046545D02*
X029773D01*
X029959Y046359*
X030422*
X033567Y047338D02*
Y047843D01*
X033065Y046836D02*
X033567Y047338D01*
X033065Y046464D02*
Y046836D01*
X031458Y047843D02*
Y048207D01*
Y047478D02*
Y047843D01*
X033035D01*
X02939Y045653D02*
X029702Y045965D01*
X030422*
X032652Y046464D02*
X033065D01*
X032547Y046359D02*
X032652Y046464D01*
X032037Y046359D02*
X032547D01*
X032681Y046209D02*
X033065D01*
X032437Y045965D02*
X032681Y046209D01*
X032037Y045965D02*
X032437D01*
X027041Y047282D02*
X027671D01*
G54D33*
X043307Y042958D02*
X043804D01*
X033422Y04914D02*
X034031Y048532D01*
X030178Y04914D02*
X033422D01*
X02954Y048502D02*
X030178Y04914D01*
X046491Y041055D02*
Y041562D01*
X043567Y041055D02*
X044741D01*
X043572Y042055D02*
X044741D01*
X040804Y040055D02*
X044741D01*
X036352Y044041D02*
X03685D01*
X033575Y045323D02*
Y045826D01*
X031175Y043739D02*
X031991D01*
X033575Y045323*
X043317Y034767D02*
Y035474D01*
X034031Y047721D02*
Y048532D01*
Y046792D02*
Y047721D01*
X033575Y046337D02*
X034031Y046792D01*
X02954Y04764D02*
Y048502D01*
X03689Y044001D02*
X038676D01*
X040124D02*
X040778Y044654D01*
X038676Y044001D02*
X040124D01*
X028354Y045937D02*
Y047559D01*
X028098Y047814D02*
X028354Y047559D01*
X027671Y047814D02*
X028098D01*
X031192Y036101D02*
Y036529D01*
X028675Y032915D02*
X028678Y032912D01*
Y032433D02*
Y032912D01*
X031174Y036083D02*
X031192Y036101D01*
X040778Y044654D02*
Y045389D01*
X03519Y038836D02*
Y039231D01*
Y041047D02*
Y041442D01*
X040212Y034742D02*
X043342D01*
X021865Y039907D02*
X022799Y040841D01*
X021865Y035028D02*
Y039907D01*
X040316Y040543D02*
X040804Y040055D01*
X040316Y040543D02*
Y042409D01*
X039724Y043001D02*
X040316Y042409D01*
X038676Y043001D02*
X039724D01*
X046491Y040055D02*
Y040492D01*
X042259Y042501D02*
Y043001D01*
X037732Y042501D02*
X038676D01*
X042259Y042001D02*
Y042501D01*
Y041501D02*
Y042001D01*
Y041001D02*
Y041501D01*
X038676Y042001D02*
Y042501D01*
Y041501D02*
Y042001D01*
Y041001D02*
Y041501D01*
X037228Y044511D02*
X037598D01*
X03685Y044041D02*
X03689Y044001D01*
X036858Y043501D02*
X038676D01*
X042911Y042958D02*
X043307D01*
X042868Y043001D02*
X042911Y042958D01*
X042259Y043001D02*
X042868D01*
X021865Y035028D02*
X023001Y033893D01*
Y032311D02*
Y033893D01*
Y032311D02*
X023528Y031784D01*
X025839*
X026864Y035323D02*
X027552D01*
X026407Y034866D02*
X026864Y035323D01*
X026407Y032352D02*
Y034866D01*
X025839Y031784D02*
X026407Y032352D01*
X023406Y041448D02*
Y046342D01*
X023131Y046617D02*
X023406Y046342D01*
X023131Y046617D02*
Y047853D01*
X022799Y040841D02*
X023406Y041448D01*
X022022Y043468D02*
X022768D01*
X02146Y044031D02*
X022022Y043468D01*
X02146Y044031D02*
Y049667D01*
X021811Y050019D02*
X022147D01*
X02146Y049667D02*
X021811Y050019D01*
X022451Y044256D02*
X022768D01*
X022147Y04456D02*
X022451Y044256D01*
X022147Y04456D02*
Y047853D01*
X032431Y036083D02*
Y03643D01*
X028733Y035081D02*
X029727D01*
X029768Y03504*
X027552Y035323D02*
X027794Y035081D01*
X028733*
X028226Y034333D02*
X028733D01*
X028029Y034136D02*
X028226Y034333D01*
X027552Y034136D02*
X028029D01*
X027552Y032909D02*
X027558Y032915D01*
X028675*
X030417Y046601D02*
Y047441D01*
X030219Y04764D02*
X030417Y047441D01*
X02954Y04764D02*
X030219D01*
X026691Y045637D02*
X027131D01*
G54D34*
X036058Y043747D02*
X036352Y044041D01*
X030728Y048207D02*
Y048697D01*
X026448Y049059D02*
X029246D01*
X036626Y034736D02*
X038263D01*
X035133D02*
X036626D01*
Y036894*
X036058Y042976D02*
X036585Y042449D01*
Y037624D02*
Y042449D01*
X034068Y035106D02*
X036585Y037624D01*
X036058Y042976D02*
Y043747D01*
X034068Y031055D02*
Y035106D01*
X025596Y048207D02*
X026448Y049059D01*
X025596Y046139D02*
Y048207D01*
X024219Y044763D02*
X025596Y046139D01*
X024219Y032972D02*
Y044763D01*
X042259Y043489D02*
X043307D01*
X046129*
X0402Y036734D02*
X04333D01*
X040212Y03297D02*
X043342D01*
X035133Y032964D02*
X038263D01*
X0402Y038506D02*
X04333D01*
X046491Y042055D02*
Y043128D01*
X046129Y043489D02*
X046491Y043128D01*
X028858Y045653D02*
Y04764D01*
G54D35*
X030422Y045768D02*
Y045769D01*
G54D36*
X033607Y038962D02*
X033625Y03898D01*
X030457Y032616D02*
X030746D01*
X032589Y040713D02*
Y040736D01*
X031138Y033575D02*
X031156Y033558D01*
X030708Y033044D02*
X031138D01*
X03044Y032776D02*
X030708Y033044D01*
X03044Y032776D02*
X030457D01*
X029651Y033244D02*
X029803Y033093D01*
X030027*
X029229Y032933D02*
X030027D01*
X031458Y047843D02*
D01*
G54D37*
X044777Y035946D03*
Y036733D03*
Y035158D03*
Y034371D03*
X022799Y040841D03*
Y040054D03*
X022809Y037372D03*
Y036585D03*
X022768Y045831D03*
Y045043D03*
Y043468D03*
Y044256D03*
G54D38*
X031468Y050055D03*
X032468D03*
X033483D03*
X034468D03*
X035436D03*
X030468D03*
X029468D03*
X028468D03*
X027468D03*
X038068D03*
X039068D03*
X044036D03*
X043068D03*
X042083D03*
X041068D03*
X040068D03*
X031068Y031055D03*
X032068D03*
X037036D03*
X036068D03*
X035083D03*
X034068D03*
X033068D03*
X040068D03*
X041068D03*
X042083D03*
X043068D03*
X044036D03*
G54D39*
X036436Y050055D03*
X045036D03*
X038036Y031055D03*
X045036D03*
G54D40*
X021857Y032972D03*
X024219D03*
G54D41*
X023038Y031083D03*
G54D42*
X030097Y039408D03*
X043804Y042958D03*
X046485Y04256D03*
X046491Y041562D03*
X043567Y040055D03*
Y041055D03*
X043572Y042055D03*
X027056Y038394D03*
X030138Y037867D03*
X033065Y045328D03*
X030422Y04545D03*
X031435Y045288D03*
X030728Y048697D03*
X029246Y049059D03*
X043317Y035474D03*
X041452Y040057D03*
X034031Y047721D03*
X032571Y045328D03*
X033194Y040835D03*
Y041736D03*
X030746Y032616D03*
X037194Y042044D03*
X040124Y044001D03*
X028354Y045937D03*
X033666Y044112D03*
X028435Y048491D03*
X031111Y045896D03*
X031585Y033558D03*
X030665Y037664D03*
X031192Y036529D03*
X028678Y032433D03*
X041817Y033893D03*
X039667Y044501D03*
X031864Y039733D03*
X03519Y038836D03*
Y041047D03*
X046491Y040492D03*
X037732Y042501D03*
X037228Y044511D03*
X042871Y044001D03*
Y044501D03*
X032431Y03643D03*
X030613Y034096D03*
X028272Y033609D03*
X030665Y039205D03*
X029651Y033244D03*
X02975Y037604D03*
Y038195D03*
Y040321D03*
Y041187D03*
Y042368D03*
Y043313D03*
Y044494D03*
X028101Y037739D03*
Y039864D03*
Y041995D03*
Y044121D03*
X026691Y045637D03*
X036626Y036894D03*
G54D43*
X032855Y040161D03*
Y03957D03*
X042465Y038516D03*
X025393Y036326D03*
M02*