%FSTAX24Y24*%
%MOIN*%
%SFA1B1*%

%IPPOS*%
%AMD41*
4,1,8,0.016700,0.068900,-0.016700,0.068900,-0.033400,0.052200,-0.033400,-0.052200,-0.016700,-0.068900,0.016700,-0.068900,0.033400,-0.052200,0.033400,0.052200,0.016700,0.068900,0.0*
1,1,0.033400,0.016700,0.052200*
1,1,0.033400,-0.016700,0.052200*
1,1,0.033400,-0.016700,-0.052200*
1,1,0.033400,0.016700,-0.052200*
%
%AMD42*
4,1,8,0.068900,-0.016700,0.068900,0.016700,0.052200,0.033400,-0.052200,0.033400,-0.068900,0.016700,-0.068900,-0.016700,-0.052200,-0.033400,0.052200,-0.033400,0.068900,-0.016700,0.0*
1,1,0.033400,0.052200,-0.016700*
1,1,0.033400,0.052200,0.016700*
1,1,0.033400,-0.052200,0.016700*
1,1,0.033400,-0.052200,-0.016700*
%
%ADD19R,0.150000X0.050000*%
%ADD33C,0.011800*%
%ADD34C,0.019700*%
%ADD35C,0.008000*%
%ADD36C,0.039400*%
%ADD38C,0.051200*%
%ADD39C,0.078700*%
%ADD40R,0.078700X0.078700*%
G04~CAMADD=41~8~0.0~0.0~669.0~1378.0~167.0~0.0~15~0.0~0.0~0.0~0.0~0~0.0~0.0~0.0~0.0~0~0.0~0.0~0.0~0.0~669.0~1378.0*
%ADD41D41*%
G04~CAMADD=42~8~0.0~0.0~669.0~1378.0~167.0~0.0~15~0.0~0.0~0.0~0.0~0~0.0~0.0~0.0~0.0~0~0.0~0.0~0.0~270.0~1378.0~668.0*
%ADD42D42*%
%ADD43C,0.027600*%
%ADD44C,0.031500*%
%ADD57C,0.059100*%
%ADD58R,0.190600X0.101400*%
%LNvapeixshield-1*%
%LPD*%
G36*
X020429Y050936D02*
X020471D01*
X045679*
X046269Y050346*
Y045604*
X046279Y045553*
X046307Y045511*
X047419Y044399*
Y032615*
X046306Y031503*
X046278Y03146*
X046268Y03141*
Y030429*
X04624Y030362*
X046162Y03026*
X04606Y030182*
X046027Y030168*
X020577*
X020569*
X02052Y03017*
X020494Y030171*
X020445Y030175*
X020407Y030179*
X020375Y030187*
X02035Y030195*
X020315Y030202*
X020234Y030256*
X02018Y030337*
X020162Y030429*
X020163Y030436*
X020164Y030445*
Y030452*
X020163Y030456*
Y050708*
X020164*
X020179Y050784*
X020233Y050865*
X020314Y050919*
X020374Y050932*
X020422Y050936*
X020429*
G37*
%LNvapeixshield-2*%
%LPC*%
G36*
X035436Y050532D02*
X035313Y050515D01*
X035198Y050468*
X035099Y050392*
X035024Y050293*
X034978Y050183*
X034966Y050178*
X034938*
X034926Y050183*
X03488Y050293*
X034805Y050392*
X034706Y050468*
X034591Y050515*
X034468Y050532*
X034344Y050515*
X034229Y050468*
X034131Y050392*
X034055Y050293*
X034007Y050178*
X034001Y050128*
X03395*
X033944Y050178*
X033896Y050293*
X03382Y050392*
X033722Y050468*
X033607Y050515*
X033483Y050532*
X03336Y050515*
X033245Y050468*
X033147Y050392*
X033071Y050293*
X033023Y050178*
X033007Y050055*
X033023Y049932*
X033071Y049817*
X033147Y049718*
X033245Y049642*
X03336Y049595*
X033483Y049579*
X033607Y049595*
X033722Y049642*
X03382Y049718*
X033896Y049817*
X033944Y049932*
X03395Y049982*
X034001*
X034007Y049932*
X034055Y049817*
X034131Y049718*
X034229Y049642*
X034344Y049595*
X034468Y049579*
X034591Y049595*
X034706Y049642*
X034805Y049718*
X03488Y049817*
X034926Y049927*
X034938Y049932*
X034966*
X034978Y049927*
X035024Y049817*
X035099Y049718*
X035198Y049642*
X035313Y049595*
X035436Y049579*
X03556Y049595*
X035674Y049642*
X035773Y049718*
X035849Y049817*
X035896Y049932*
X035913Y050055*
X035896Y050178*
X035849Y050293*
X035773Y050392*
X035674Y050468*
X03556Y050515*
X035436Y050532*
G37*
G36*
X044036D02*
X043913Y050515D01*
X043798Y050468*
X043699Y050392*
X043624Y050293*
X043578Y050183*
X043565Y050178*
X043538*
X043526Y050183*
X04348Y050293*
X043405Y050392*
X043306Y050468*
X043191Y050515*
X043068Y050532*
X042944Y050515*
X042829Y050468*
X042731Y050392*
X042655Y050293*
X042607Y050178*
X042601Y050128*
X04255*
X042544Y050178*
X042496Y050293*
X04242Y050392*
X042322Y050468*
X042207Y050515*
X042083Y050532*
X04196Y050515*
X041845Y050468*
X041746Y050392*
X041671Y050293*
X041623Y050178*
X041607Y050055*
X041623Y049932*
X041671Y049817*
X041746Y049718*
X041845Y049642*
X04196Y049595*
X042083Y049578*
X042207Y049595*
X042322Y049642*
X04242Y049718*
X042496Y049817*
X042544Y049932*
X04255Y049982*
X042601*
X042607Y049932*
X042655Y049817*
X042731Y049718*
X042829Y049642*
X042944Y049595*
X043068Y049578*
X043191Y049595*
X043306Y049642*
X043405Y049718*
X04348Y049817*
X043526Y049927*
X043538Y049932*
X043565*
X043578Y049927*
X043624Y049817*
X043699Y049718*
X043798Y049642*
X043913Y049595*
X044036Y049578*
X04416Y049595*
X044274Y049642*
X044373Y049718*
X044449Y049817*
X044496Y049932*
X044513Y050055*
X044496Y050178*
X044449Y050293*
X044373Y050392*
X044274Y050468*
X04416Y050515*
X044036Y050532*
G37*
G36*
X030418Y050546D02*
X030339Y050536D01*
X030219Y050486*
X030116Y050407*
X030036Y050304*
X029987Y050184*
X029982Y05015*
X029932*
X029928Y050178*
X02988Y050293*
X029805Y050392*
X029706Y050468*
X029591Y050515*
X029468Y050532*
X029344Y050515*
X029229Y050468*
X029131Y050392*
X029055Y050293*
X029007Y050178*
X028996Y050091*
X028993Y050068*
X028942*
X02894Y050091*
X028928Y050178*
X02888Y050293*
X028805Y050392*
X028706Y050468*
X028591Y050515*
X028468Y050532*
X028344Y050515*
X028229Y050468*
X028131Y050392*
X028055Y050293*
X028007Y050178*
X027996Y050091*
X027993Y050068*
X027943*
X02794Y050091*
X027928Y050178*
X02788Y050293*
X027805Y050392*
X027706Y050468*
X027591Y050515*
X027468Y050532*
X027344Y050515*
X027229Y050468*
X027131Y050392*
X027055Y050293*
X027031Y050236*
X024425*
X024356Y050222*
X024297Y050183*
X022641Y048526*
X022601Y048467*
X022588Y048398*
Y046114*
X02253Y046069*
X022476Y045999*
X022442Y045918*
X022431Y045831*
X022442Y045743*
X022476Y045662*
X02253Y045592*
X0226Y045538*
X022681Y045505*
X022768Y045493*
X022856Y045505*
X022937Y045538*
X023007Y045592*
X023061Y045662*
X023094Y045743*
X023106Y045831*
X023094Y045918*
X023061Y045999*
X023007Y046069*
X022949Y046114*
Y048323*
X0245Y049874*
X027031*
X027055Y049817*
X027131Y049718*
X027229Y049642*
X027344Y049595*
X027468Y049579*
X027591Y049595*
X027706Y049642*
X027805Y049718*
X02788Y049817*
X027928Y049932*
X02794Y05002*
X027943Y050042*
X027993*
X027996Y05002*
X028007Y049932*
X028031Y049874*
X027437Y04928*
X024704*
X024635Y049266*
X024576Y049227*
X023481Y048132*
X023442Y048074*
X023428Y048005*
Y045606*
X023076Y045254*
X023026Y045257*
X023007Y045282*
X022937Y045336*
X022856Y045369*
X022768Y045381*
X022681Y045369*
X0226Y045336*
X02253Y045282*
X022476Y045212*
X022442Y045131*
X022431Y045043*
X022442Y044956*
X022476Y044875*
X02253Y044805*
X0226Y044751*
X022681Y044717*
X022768Y044706*
X022856Y044717*
X022937Y044751*
X023007Y044805*
X023052Y044863*
X023121*
X02319Y044876*
X023249Y044916*
X023737Y045403*
X023776Y045462*
X02379Y045531*
Y04793*
X024779Y048919*
X027512*
X027581Y048933*
X02764Y048972*
X028287Y049619*
X028344Y049595*
X028468Y049579*
X028591Y049595*
X028706Y049642*
X028805Y049718*
X02888Y049817*
X028928Y049932*
X02894Y05002*
X028942Y050042*
X028993*
X028996Y05002*
X029007Y049932*
X029055Y049817*
X029131Y049718*
X029229Y049642*
X029344Y049595*
X029468Y049579*
X029591Y049595*
X029706Y049642*
X029805Y049718*
X02988Y049817*
X029928Y049932*
X029932Y049961*
X029982*
X029987Y049926*
X030036Y049806*
X030116Y049703*
X030219Y049624*
X030339Y049574*
X030418Y049564*
Y050055*
Y050546*
G37*
G36*
X041068Y050532D02*
X040944Y050515D01*
X040829Y050468*
X040731Y050392*
X040655Y050293*
X040607Y050178*
X040596Y050091*
X040593Y050068*
X040542*
X04054Y050091*
X040528Y050178*
X04048Y050293*
X040405Y050392*
X040306Y050468*
X040191Y050515*
X040068Y050532*
X039944Y050515*
X039829Y050468*
X039731Y050392*
X039655Y050293*
X039607Y050178*
X039596Y050091*
X039593Y050068*
X039542*
X03954Y050091*
X039528Y050178*
X03948Y050293*
X039405Y050392*
X039306Y050468*
X039191Y050515*
X039068Y050532*
X038944Y050515*
X038829Y050468*
X038731Y050392*
X038655Y050293*
X038607Y050178*
X038596Y050091*
X038593Y050068*
X038542*
X03854Y050091*
X038528Y050178*
X03848Y050293*
X038405Y050392*
X038306Y050468*
X038191Y050515*
X038068Y050532*
X037944Y050515*
X037829Y050468*
X037731Y050392*
X037655Y050293*
X037607Y050178*
X037591Y050055*
X037607Y049932*
X037655Y049817*
X037731Y049718*
X037829Y049642*
X037944Y049595*
X038068Y049578*
X038191Y049595*
X038306Y049642*
X038405Y049718*
X03848Y049817*
X038528Y049932*
X03854Y050019*
X038542Y050042*
X038593*
X038596Y050019*
X038607Y049932*
X038655Y049817*
X038731Y049718*
X038829Y049642*
X038944Y049595*
X039068Y049578*
X039191Y049595*
X039306Y049642*
X039405Y049718*
X03948Y049817*
X039528Y049932*
X03954Y050019*
X039542Y050042*
X039593*
X039596Y050019*
X039607Y049932*
X039655Y049817*
X039731Y049718*
X039829Y049642*
X039944Y049595*
X040068Y049578*
X040191Y049595*
X040306Y049642*
X040405Y049718*
X04048Y049817*
X040528Y049932*
X04054Y050019*
X040542Y050042*
X040593*
X040596Y050019*
X040607Y049932*
X040655Y049817*
X040731Y049718*
X040829Y049642*
X040944Y049595*
X041068Y049578*
X041191Y049595*
X041306Y049642*
X041405Y049718*
X04148Y049817*
X041528Y049932*
X041544Y050055*
X041528Y050178*
X04148Y050293*
X041405Y050392*
X041306Y050468*
X041191Y050515*
X041068Y050532*
G37*
G36*
X036909Y050528D02*
X035964D01*
Y049583*
X036909*
Y050528*
G37*
G36*
X045509Y050527D02*
X044564D01*
Y049583*
X045509*
Y050527*
G37*
G36*
X030518Y050546D02*
Y050055D01*
Y049564*
X030597Y049574*
X030717Y049624*
X03082Y049703*
X030899Y049806*
X030949Y049926*
X030953Y049961*
X031004*
X031007Y049932*
X031055Y049817*
X031131Y049718*
X031229Y049642*
X031327Y049602*
Y049351*
X031338Y049297*
X031368Y049252*
X031701Y048919*
X031747Y048889*
X0318Y048878*
X032594*
X033039Y048433*
Y047437*
X033049Y047383*
X03308Y047338*
X033607Y04681*
X033653Y04678*
X033706Y046769*
X036406*
X037256Y045919*
Y045143*
X036892Y044779*
X036793*
X036782Y044795*
X03671Y044843*
X036626Y04486*
X036542Y044843*
X03647Y044795*
X036422Y044723*
X036405Y044639*
X036422Y044554*
X03647Y044483*
X036542Y044435*
X036626Y044418*
X03671Y044435*
X036782Y044483*
X036793Y044498*
X03695*
X037004Y044509*
X03705Y04454*
X037496Y044986*
X037526Y045031*
X037537Y045085*
Y045977*
X037526Y046031*
X037496Y046077*
X036563Y047009*
X036518Y04704*
X036464Y04705*
X033764*
X03332Y047495*
Y048491*
X033309Y048545*
X033278Y048591*
X032751Y049118*
X032706Y049148*
X032652Y049159*
X031859*
X031608Y049409*
Y049602*
X031706Y049642*
X031805Y049718*
X03188Y049817*
X031928Y049932*
X03194Y05002*
X031943Y050042*
X031993*
X031996Y05002*
X032007Y049932*
X032055Y049817*
X032131Y049718*
X032229Y049642*
X032344Y049595*
X032468Y049579*
X032591Y049595*
X032706Y049642*
X032805Y049718*
X03288Y049817*
X032928Y049932*
X032944Y050055*
X032928Y050178*
X03288Y050293*
X032805Y050392*
X032706Y050468*
X032591Y050515*
X032468Y050532*
X032344Y050515*
X032229Y050468*
X032131Y050392*
X032055Y050293*
X032007Y050178*
X031996Y050091*
X031993Y050068*
X031943*
X03194Y050091*
X031928Y050178*
X03188Y050293*
X031805Y050392*
X031706Y050468*
X031591Y050515*
X031468Y050532*
X031344Y050515*
X031229Y050468*
X031131Y050392*
X031055Y050293*
X031007Y050178*
X031004Y05015*
X030953*
X030949Y050184*
X030899Y050304*
X03082Y050407*
X030717Y050486*
X030597Y050536*
X030518Y050546*
G37*
G36*
X030366Y049337D02*
X029246D01*
X029174Y049328*
X029107Y0493*
X029049Y049256*
X029005Y049198*
X028977Y049131*
X028968Y049059*
X028977Y048987*
X029005Y04892*
X029049Y048863*
X029107Y048818*
X029174Y048791*
X029246Y048781*
X03025*
X030531Y0485*
X030589Y048456*
X030656Y048428*
X030728Y048419*
X0308Y048428*
X030867Y048456*
X030924Y0485*
X030969Y048558*
X030996Y048625*
X031006Y048697*
X030996Y048769*
X030969Y048836*
X030924Y048893*
X030562Y049256*
X030505Y0493*
X030437Y049328*
X030366Y049337*
G37*
G36*
X031476Y046887D02*
X031391Y046871D01*
X03132Y046823*
X031272Y046751*
X031255Y046667*
X031259Y046648*
X031093Y046482*
X031062Y046436*
X031052Y046383*
Y045454*
X031036Y045444*
X030988Y045372*
X030971Y045288*
X030988Y045203*
X031036Y045132*
X031108Y045084*
X031192Y045067*
X031277Y045084*
X031348Y045132*
X031396Y045203*
X031413Y045288*
X031396Y045372*
X031348Y045444*
X031333Y045454*
Y046324*
X031458Y046449*
X031476Y046446*
X03156Y046463*
X031632Y04651*
X03168Y046582*
X031697Y046667*
X03168Y046751*
X031632Y046823*
X03156Y046871*
X031476Y046887*
G37*
G36*
X032368Y048242D02*
X028921D01*
X028849Y048233*
X028782Y048205*
X028725Y048161*
X028157Y047593*
X028113Y047535*
X028085Y047468*
X028076Y047396*
Y045937*
X028085Y045865*
X028113Y045798*
X028157Y04574*
X028184Y045719*
X028171Y045667*
X028107Y045654*
X028035Y045606*
X028025Y045591*
X027601*
X027115Y046076*
Y0465*
X027131Y04651*
X027179Y046582*
X027196Y046667*
X027179Y046751*
X027131Y046823*
X027059Y046871*
X026975Y046887*
X02689Y046871*
X026819Y046823*
X026771Y046751*
X026754Y046667*
X026771Y046582*
X026819Y04651*
X026834Y0465*
Y046018*
X026845Y045964*
X026875Y045918*
X027443Y045351*
X027489Y04532*
X027543Y04531*
X028025*
X028035Y045294*
X028107Y045246*
X028191Y045229*
X028276Y045246*
X028347Y045294*
X028395Y045366*
X028412Y04545*
X028395Y045534*
X028347Y045606*
X028342Y04561*
X028351Y045648*
X028358Y045659*
X028425Y045668*
X028493Y045696*
X02855Y04574*
X028594Y045798*
X028622Y045865*
X028632Y045937*
Y047281*
X029036Y047686*
X03209*
Y047478*
X0321Y047406*
X032127Y047339*
X032172Y047281*
X03351Y045943*
X033567Y045899*
X033634Y045871*
X033706Y045861*
X036075*
X03651Y045426*
Y045409*
X03652Y045338*
X036547Y04527*
X036592Y045213*
X036649Y045169*
X036716Y045141*
X036788Y045131*
X03686Y045141*
X036927Y045169*
X036985Y045213*
X037029Y04527*
X037057Y045338*
X037066Y045409*
Y045541*
X037057Y045613*
X037029Y04568*
X036985Y045738*
X036387Y046336*
X036329Y04638*
X036262Y046408*
X03619Y046417*
X033821*
X032646Y047593*
Y047964*
X032637Y048036*
X032609Y048103*
X032565Y048161*
X032507Y048205*
X03244Y048233*
X032368Y048242*
G37*
G36*
X043195Y047999D02*
X034031D01*
X033959Y047989*
X033892Y047962*
X033834Y047917*
X03379Y04786*
X033762Y047793*
X033753Y047721*
X033762Y047649*
X03379Y047582*
X033834Y047524*
X033892Y04748*
X033959Y047452*
X034031Y047443*
X04308*
X046128Y044395*
X046108Y044349*
X03508*
Y04435*
X035002Y04441*
X034911Y044447*
X034813Y04446*
X034715Y044447*
X034624Y04441*
X034546Y04435*
X033805Y043608*
X033745Y04353*
X033707Y043439*
X033694Y043341*
Y040949*
Y038862*
Y036766*
X032617Y035689*
X03001*
X029217Y036482*
Y037145*
X029267Y03716*
X029268Y037159*
X029471Y036957*
X029516Y036926*
X02957Y036915*
X030057*
X03011Y036926*
X030156Y036957*
X030318Y037119*
X030349Y037164*
X030359Y037218*
Y0377*
X030375Y037711*
X030423Y037782*
X03044Y037867*
X030423Y037951*
X030383Y038011*
X030394Y038059*
X030398Y038065*
X030443Y038096*
X030484Y038136*
X030503Y038133*
X030587Y03815*
X030659Y038197*
X030707Y038269*
X030724Y038354*
X030707Y038438*
X030659Y03851*
X030643Y03852*
Y039122*
X030764Y039243*
X030794Y039288*
X030805Y039342*
Y040098*
Y042084*
Y044072*
X030794Y044125*
X030764Y044171*
X030341Y044593*
X030296Y044624*
X030242Y044635*
X029916*
X029906Y04465*
X029834Y044698*
X02975Y044715*
X029665Y044698*
X029593Y04465*
X029546Y044579*
X029529Y044494*
X029546Y04441*
X029593Y044338*
X029665Y04429*
X02975Y044273*
X029834Y04429*
X029906Y044338*
X029916Y044354*
X030184*
X030524Y044013*
Y042486*
X030518Y042483*
X030474Y042471*
X030434Y042498*
X030381Y042509*
X029916*
X029906Y042524*
X029834Y042572*
X02975Y042589*
X029665Y042572*
X029593Y042524*
X029558Y042471*
X029508Y042486*
Y042873*
X029731Y043096*
X02975Y043092*
X029834Y043109*
X029906Y043157*
X029954Y043229*
X02997Y043313*
X029954Y043397*
X029906Y043469*
X029834Y043517*
X02975Y043534*
X029665Y043517*
X029593Y043469*
X029546Y043397*
X029529Y043313*
X029532Y043295*
X029268Y04303*
X029267Y043029*
X029217Y043044*
Y043625*
X029205Y043723*
X029167Y043814*
X029107Y043892*
X028611Y044388*
X028533Y044448*
X028442Y044485*
X028344Y044498*
X025849*
X025751Y044485*
X02566Y044448*
X025582Y044388*
X025127Y043932*
X025067Y043854*
X025029Y043763*
X025016Y043666*
Y038169*
X024597Y037749*
X022809*
X022711Y037736*
X02262Y037699*
X022542Y037639*
X022482Y037561*
X022444Y03747*
X022432Y037372*
X022444Y037274*
X022482Y037183*
X022542Y037105*
X02262Y037045*
X022711Y037008*
X022809Y036995*
X024753*
X02485Y037008*
X024941Y037045*
X02502Y037105*
X025376Y037461*
X027823*
Y035263*
X027549Y034988*
X027505Y034931*
X027477Y034864*
X027467Y034792*
Y034136*
X027477Y034064*
X027505Y033997*
X027549Y03394*
X028076Y033412*
X028133Y033368*
X028201Y033341*
X028272Y033331*
X029124*
X029196Y033341*
X029263Y033368*
X029321Y033412*
X029726Y033818*
X030613*
X030685Y033827*
X030752Y033855*
X030809Y033899*
X030854Y033957*
X030881Y034024*
X030891Y034096*
X030881Y034168*
X030854Y034235*
X030809Y034292*
X030752Y034336*
X030685Y034364*
X030613Y034374*
X029611*
X029539Y034364*
X029472Y034336*
X029414Y034292*
X029009Y033887*
X028388*
X028023Y034251*
Y034677*
X028298Y034951*
X028342Y035009*
X02837Y035076*
X028379Y035148*
Y037739*
X02837Y037811*
X028342Y037878*
X028298Y037936*
X02824Y03798*
X028173Y038008*
X028101Y038017*
X025771*
Y039586*
X028101*
X028173Y039596*
X02824Y039624*
X028298Y039668*
X028342Y039725*
X02837Y039792*
X028379Y039864*
X02837Y039936*
X028342Y040003*
X028298Y040061*
X02824Y040105*
X028173Y040133*
X028101Y040142*
X025771*
Y041717*
X028101*
X028173Y041726*
X02824Y041754*
X028298Y041798*
X028342Y041856*
X02837Y041923*
X028379Y041995*
X02837Y042067*
X028342Y042134*
X028298Y042192*
X02824Y042236*
X028173Y042263*
X028101Y042273*
X025771*
Y043509*
X026005Y043744*
X028188*
X028463Y043469*
Y036326*
X028476Y036228*
X028513Y036137*
X028573Y036059*
X029587Y035045*
X029665Y034985*
X029756Y034948*
X029854Y034935*
X03227*
X032347Y034925*
X032787*
X032802Y034875*
X03278Y03486*
X032732Y034788*
X032715Y034704*
X032732Y034619*
X03278Y034548*
X032851Y0345*
X032893Y034492*
X033781Y033603*
X03384Y033564*
X033909Y03355*
X039953*
X039988Y033527*
X040073Y03351*
X040157Y033527*
X040229Y033575*
X040277Y033646*
X040294Y033731*
X040277Y033815*
X040229Y033887*
X040157Y033935*
X040073Y033951*
X039988Y033935*
X039953Y033911*
X033984*
X033148Y034747*
X03314Y034788*
X033092Y03486*
X03307Y034875*
X033085Y034925*
X039237*
X039335Y034938*
X039426Y034975*
X039504Y035035*
X039564Y035113*
X039601Y035204*
X039614Y035302*
X039601Y0354*
X039564Y035491*
X039504Y035569*
X039426Y035629*
X039335Y035666*
X039237Y035679*
X033739*
X03372Y035725*
X034338Y036343*
X034398Y036421*
X034436Y036512*
X034448Y03661*
Y038558*
X035433*
X035505Y038568*
X035572Y038596*
X03563Y03864*
X035651Y038667*
X03567Y03868*
X035718Y038752*
X035735Y038836*
X035718Y038921*
X03567Y038992*
X035651Y039006*
X03563Y039033*
X035572Y039077*
X035505Y039105*
X035433Y039114*
X034448*
Y040693*
X035391*
X035417Y040682*
X035514Y04067*
X035612Y040682*
X035703Y04072*
X035781Y04078*
X035841Y040858*
X035879Y040949*
X035891Y041047*
X035879Y041144*
X035841Y041235*
X035781Y041314*
X035757Y041337*
X035679Y041397*
X035588Y041435*
X035491Y041448*
X03545Y041442*
X035409Y041448*
X034448*
Y043185*
X035057Y043793*
X042309*
Y039611*
X042319Y039539*
X042346Y039472*
X04239Y039414*
X042999Y038806*
X043056Y038762*
X043123Y038734*
X043195Y038724*
X045189*
X045715Y038198*
Y035022*
X045342Y034649*
X045055*
Y034971*
X045069Y034989*
X045103Y035071*
X045115Y035158*
X045103Y035246*
X045069Y035327*
X045016Y035397*
X044946Y035451*
X044864Y035484*
X044777Y035496*
X04469Y035484*
X044608Y035451*
X044538Y035397*
X044528Y035383*
X044491Y035355*
X044447Y035297*
X044419Y03523*
X044409Y035158*
X044419Y035086*
X044447Y035019*
X044491Y034962*
X044499Y034955*
Y034558*
X044485Y03454*
X044451Y034458*
X044439Y034371*
X044451Y034283*
X044485Y034202*
X044538Y034132*
X044608Y034078*
X04469Y034045*
X044777Y034033*
X044864Y034045*
X044946Y034078*
X044964Y034093*
X045457*
X045529Y034102*
X045596Y03413*
X045654Y034174*
X04619Y03471*
X046234Y034768*
X046262Y034835*
X046271Y034907*
Y038313*
X046262Y038385*
X046234Y038452*
X04619Y03851*
X0455Y039199*
X045443Y039243*
X045376Y039271*
X045304Y03928*
X04331*
X042865Y039726*
Y043793*
X046203*
X046208Y043788*
Y042384*
X045657*
Y041726*
X04628*
X046307Y041676*
X046287Y041646*
X04627Y041562*
X046287Y041477*
X046305Y041449*
Y041384*
X045657*
Y040726*
X047315*
Y041384*
X046666*
Y041435*
X046695Y041477*
X046711Y041562*
X046695Y041646*
X046674Y041676*
X046701Y041726*
X047315*
Y042384*
X046764*
Y044071*
X046758Y044116*
Y044436*
X046748Y044508*
X046721Y044575*
X046676Y044633*
X043392Y047917*
X043334Y047962*
X043267Y047989*
X043195Y047999*
G37*
G36*
X022768Y044593D02*
X022681Y044582D01*
X0226Y044548*
X02253Y044495*
X022476Y044425*
X022442Y044343*
X022431Y044256*
X022442Y044169*
X022476Y044087*
X02253Y044017*
X0226Y043964*
X022681Y04393*
X022768Y043918*
X022856Y04393*
X022937Y043964*
X023007Y044017*
X023061Y044087*
X023094Y044169*
X023106Y044256*
X023094Y044343*
X023061Y044425*
X023007Y044495*
X022937Y044548*
X022856Y044582*
X022768Y044593*
G37*
G36*
Y043806D02*
X022681Y043795D01*
X0226Y043761*
X02253Y043707*
X022476Y043637*
X022442Y043556*
X022431Y043468*
X022442Y043381*
X022476Y0433*
X02253Y04323*
X0226Y043176*
X022681Y043142*
X022768Y043131*
X022856Y043142*
X022937Y043176*
X023007Y04323*
X023061Y0433*
X023094Y043381*
X023106Y043468*
X023094Y043556*
X023061Y043637*
X023007Y043707*
X022937Y043761*
X022856Y043795*
X022768Y043806*
G37*
G36*
X032044Y04344D02*
X031959Y043424D01*
X031888Y043376*
X03184Y043304*
X031823Y04322*
X03184Y043135*
X031888Y043064*
X031959Y043016*
X032044Y042999*
X032128Y043016*
X0322Y043064*
X032248Y043135*
X032264Y04322*
X032248Y043304*
X0322Y043376*
X032128Y043424*
X032044Y04344*
G37*
G36*
X045565Y042384D02*
X043907D01*
Y042236*
X043691*
X043656Y042259*
X043572Y042276*
X043487Y042259*
X043415Y042211*
X043368Y042139*
X043351Y042055*
X043368Y041971*
X043415Y041899*
X043487Y041851*
X043572Y041834*
X043656Y041851*
X043691Y041874*
X043907*
Y041726*
X045565*
Y042384*
G37*
G36*
X032246Y042264D02*
X032162Y042248D01*
X03209Y0422*
X032042Y042128*
X032026Y042044*
X032042Y041959*
X03209Y041888*
X032162Y04184*
X032246Y041823*
X032331Y04184*
X032403Y041888*
X03245Y041959*
X032467Y042044*
X03245Y042128*
X032403Y0422*
X032331Y042248*
X032246Y042264*
G37*
G36*
X033301Y042548D02*
X033216Y042532D01*
X033145Y042484*
X033097Y042412*
X03308Y042328*
X033097Y042243*
X033145Y042171*
X03316Y042161*
Y041363*
X033116Y041339*
X033101Y041349*
X033017Y041366*
X032932Y041349*
X032921Y041342*
X032889Y04138*
X032914Y041405*
X032944Y04145*
X032955Y041504*
Y041918*
X03297Y041928*
X033018Y042*
X033035Y042084*
X033018Y042169*
X03297Y04224*
X032899Y042288*
X032814Y042305*
X03273Y042288*
X032658Y04224*
X03261Y042169*
X032593Y042084*
X03261Y042*
X032658Y041928*
X032674Y041918*
Y041562*
X032322Y041211*
X031805*
X031794Y041227*
X031723Y041274*
X031638Y041291*
X031554Y041274*
X031482Y041227*
X031434Y041155*
X031417Y04107*
X031434Y040986*
X031482Y040914*
X031554Y040866*
X031638Y04085*
X031723Y040866*
X031794Y040914*
X031805Y04093*
X03238*
X032434Y040941*
X03248Y040971*
X032782Y041273*
X032821Y041241*
X032813Y04123*
X032796Y041145*
X032813Y041061*
X032836Y041026*
Y040061*
X03282Y040051*
X032772Y039979*
X032756Y039894*
X032772Y03981*
X032809Y039755*
X032796Y039706*
X032791Y039699*
X032789Y039698*
X032736Y039734*
X032652Y03975*
X032567Y039734*
X032496Y039686*
X032448Y039614*
X032431Y03953*
X032448Y039445*
X032496Y039373*
X032567Y039326*
X032652Y039309*
X032736Y039326*
X032808Y039373*
X032819Y039389*
X033175*
X033185Y039373*
X033257Y039326*
X033341Y039309*
X033426Y039326*
X033497Y039373*
X033545Y039445*
X033562Y03953*
X033545Y039614*
X033497Y039686*
X033426Y039734*
X033341Y03975*
X033257Y039734*
X033185Y039686*
X033175Y03967*
X03312*
X033105Y03972*
X033132Y039738*
X03318Y03981*
X033197Y039894*
X03319Y039933*
X033196Y039943*
X033233Y039971*
X033301Y039958*
X033385Y039974*
X033457Y040022*
X033505Y040094*
X033522Y040178*
X033505Y040263*
X033457Y040334*
X033441Y040345*
Y042161*
X033457Y042171*
X033505Y042243*
X033522Y042328*
X033505Y042412*
X033457Y042484*
X033385Y042532*
X033301Y042548*
G37*
G36*
X045565Y041384D02*
X043907D01*
Y041236*
X043686*
X043651Y041259*
X043567Y041276*
X043482Y041259*
X043411Y041211*
X043363Y041139*
X043346Y041055*
X043363Y040971*
X043411Y040899*
X043482Y040851*
X043567Y040834*
X043651Y040851*
X043686Y040874*
X043907*
Y040726*
X045565*
Y041384*
G37*
G36*
X022799Y041179D02*
X022712Y041167D01*
X022631Y041134*
X022561Y04108*
X022507Y04101*
X022473Y040929*
X022462Y040841*
X022473Y040754*
X022507Y040673*
X022561Y040603*
X022631Y040549*
X022712Y040515*
X022799Y040504*
X022887Y040515*
X022968Y040549*
X023038Y040603*
X023092Y040673*
X023126Y040754*
X023137Y040841*
X023126Y040929*
X023092Y04101*
X023038Y04108*
X022968Y041134*
X022887Y041167*
X022799Y041179*
G37*
G36*
X045565Y040384D02*
X043907D01*
Y040237*
X04368*
X043645Y040261*
X04356Y040277*
X043476Y040261*
X043404Y040213*
X043356Y040141*
X043339Y040057*
X043356Y039972*
X043404Y039901*
X043476Y039853*
X04356Y039836*
X043645Y039853*
X04368Y039876*
X043907*
Y039726*
X045565*
Y040384*
G37*
G36*
X047336Y040405D02*
X046536D01*
Y040105*
X047336*
Y040405*
G37*
G36*
X046436D02*
X045636D01*
Y040105*
X046436*
Y040405*
G37*
G36*
X022849Y040406D02*
Y040104D01*
X023152*
X023146Y040147*
X02311Y040234*
X023053Y040308*
X022979Y040365*
X022892Y040401*
X022849Y040406*
G37*
G36*
X022749D02*
X022707Y040401D01*
X02262Y040365*
X022546Y040308*
X022489Y040234*
X022453Y040147*
X022447Y040104*
X022749*
Y040406*
G37*
G36*
X031963Y040399D02*
X031878Y040382D01*
X031806Y040334*
X031759Y040263*
X031742Y040178*
X031759Y040094*
X031806Y040022*
X031878Y039974*
X031963Y039958*
X032047Y039974*
X032119Y040022*
X032167Y040094*
X032183Y040178*
X032167Y040263*
X032119Y040334*
X032047Y040382*
X031963Y040399*
G37*
G36*
X041452Y040277D02*
X041367Y040261D01*
X041295Y040213*
X041248Y040141*
X041231Y040057*
X041248Y039972*
X041295Y039901*
X041367Y039853*
X041452Y039836*
X041536Y039853*
X041608Y039901*
X041656Y039972*
X041672Y040057*
X041656Y040141*
X041608Y040213*
X041536Y040261*
X041452Y040277*
G37*
G36*
X047336Y040005D02*
X046536D01*
Y039705*
X047336*
Y040005*
G37*
G36*
X046436D02*
X045636D01*
Y039705*
X046436*
Y040005*
G37*
G36*
X023152Y040004D02*
X022849D01*
Y039702*
X022892Y039707*
X022979Y039743*
X023053Y0398*
X02311Y039875*
X023146Y039961*
X023152Y040004*
G37*
G36*
X022749D02*
X022447D01*
X022453Y039961*
X022489Y039875*
X022546Y0398*
X02262Y039743*
X022707Y039707*
X022749Y039702*
Y040004*
G37*
G36*
X031679Y039426D02*
X031594Y039409D01*
X031523Y039361*
X031512Y039346*
X031192*
X031138Y039335*
X031093Y039304*
X03089Y039102*
X03086Y039056*
X030849Y039002*
Y038047*
X030683Y037881*
X030665Y037885*
X03058Y037868*
X030508Y03782*
X030461Y037749*
X030444Y037664*
X030461Y03758*
X030508Y037508*
X03058Y03746*
X030665Y037443*
X030749Y03746*
X030821Y037508*
X030869Y03758*
X030885Y037664*
X030882Y037683*
X031089Y03789*
X031119Y037935*
X03113Y037989*
Y038944*
X03125Y039065*
X031512*
X031523Y039049*
X031594Y039001*
X031679Y038984*
X031763Y039001*
X031835Y039049*
X031883Y039121*
X0319Y039205*
X031883Y03929*
X031835Y039361*
X031763Y039409*
X031679Y039426*
G37*
G36*
X027056Y038615D02*
X026971Y038598D01*
X0269Y03855*
X026852Y038479*
X026835Y038394*
X026852Y03831*
X0269Y038238*
X026971Y03819*
X027056Y038173*
X02714Y03819*
X027212Y038238*
X02726Y03831*
X027277Y038394*
X02726Y038479*
X027212Y03855*
X02714Y038598*
X027056Y038615*
G37*
G36*
X022859Y036937D02*
Y036635D01*
X023161*
X023156Y036678*
X02312Y036764*
X023063Y036838*
X022988Y036895*
X022902Y036931*
X022859Y036937*
G37*
G36*
X022759D02*
X022716Y036931D01*
X022629Y036895*
X022555Y036838*
X022498Y036764*
X022462Y036678*
X022456Y036635*
X022759*
Y036937*
G37*
G36*
X042344Y038185D02*
X040924D01*
X040852Y038176*
X040785Y038148*
X040728Y038104*
X040684Y038046*
X040656Y037979*
X040646Y037907*
X040656Y037836*
X040684Y037768*
X040728Y037711*
X040785Y037667*
X040852Y037639*
X040924Y03763*
X042229*
X043322Y036536*
X043379Y036492*
X043446Y036465*
X043518Y036455*
X04459*
X044608Y036441*
X04469Y036407*
X044777Y036395*
X044864Y036407*
X044946Y036441*
X045016Y036494*
X045069Y036564*
X045103Y036646*
X045115Y036733*
X045103Y03682*
X045069Y036902*
X045016Y036972*
X044946Y037025*
X044864Y037059*
X044777Y037071*
X04469Y037059*
X044608Y037025*
X04459Y037011*
X043633*
X04254Y038104*
X042483Y038148*
X042416Y038176*
X042344Y038185*
G37*
G36*
X022759Y036535D02*
X022456D01*
X022462Y036492*
X022498Y036405*
X022555Y036331*
X022629Y036274*
X022716Y036238*
X022759Y036232*
Y036535*
G37*
G36*
X023161D02*
X022859D01*
Y036232*
X022902Y036238*
X022988Y036274*
X023063Y036331*
X02312Y036405*
X023156Y036492*
X023161Y036535*
G37*
G36*
X038654Y036516D02*
X038569Y036499D01*
X038497Y036451*
X03845Y03638*
X038433Y036295*
X03845Y036211*
X038497Y036139*
X038569Y036091*
X038654Y036074*
X038738Y036091*
X038773Y036114*
X041286*
X041583Y035818*
X041641Y035779*
X04171Y035765*
X044494*
X044538Y035707*
X044608Y035653*
X04469Y03562*
X044777Y035608*
X044864Y03562*
X044946Y035653*
X045016Y035707*
X045069Y035777*
X045103Y035858*
X045115Y035946*
X045103Y036033*
X045069Y036114*
X045016Y036184*
X044946Y036238*
X044864Y036272*
X044777Y036283*
X04469Y036272*
X044608Y036238*
X044538Y036184*
X044494Y036126*
X041785*
X041489Y036423*
X04143Y036462*
X041361Y036476*
X038773*
X038738Y036499*
X038654Y036516*
G37*
G36*
X031585Y033779D02*
X0315Y033762D01*
X031428Y033714*
X031381Y033642*
X031364Y033558*
X031381Y033473*
X031428Y033402*
X0315Y033354*
X031585Y033337*
X031669Y033354*
X031741Y033402*
X031789Y033473*
X031805Y033558*
X031789Y033642*
X031741Y033714*
X031669Y033762*
X031585Y033779*
G37*
G36*
X022025Y033764D02*
X021907D01*
Y033022*
X022294*
Y033494*
X022285Y033564*
X022258Y033629*
X022215Y033685*
X022159Y033728*
X022094Y033755*
X022025Y033764*
G37*
G36*
X021807D02*
X02169D01*
X02162Y033755*
X021555Y033728*
X021499Y033685*
X021456Y033629*
X021429Y033564*
X02142Y033494*
Y033022*
X021807*
Y033764*
G37*
G36*
X041289Y0331D02*
X041205Y033083D01*
X041133Y033035*
X041085Y032964*
X041069Y032879*
X041085Y032795*
X041133Y032723*
X041205Y032675*
X041289Y032658*
X041374Y032675*
X041445Y032723*
X041493Y032795*
X04151Y032879*
X041493Y032964*
X041445Y033035*
X041374Y033083*
X041289Y0331*
G37*
G36*
X025393Y036567D02*
X025301Y036549D01*
X025223Y036496*
X025171Y036418*
X025152Y036326*
X025171Y036234*
X025213Y036171*
Y034663*
X025226Y034594*
X025266Y034536*
X027496Y032305*
X027555Y032266*
X027624Y032252*
X028559*
X028593Y032229*
X028678Y032212*
X028762Y032229*
X028834Y032277*
X028882Y032349*
X028899Y032433*
X028882Y032518*
X028834Y032589*
X028762Y032637*
X028678Y032654*
X028593Y032637*
X028559Y032614*
X027698*
X025574Y034738*
Y036171*
X025616Y036234*
X025634Y036326*
X025616Y036418*
X025564Y036496*
X025485Y036549*
X025393Y036567*
G37*
G36*
X024387Y033745D02*
X024052D01*
X023956Y033726*
X023875Y033672*
X02382Y03359*
X023801Y033494*
Y032451*
X02382Y032355*
X023875Y032273*
X023956Y032219*
X024052Y0322*
X024387*
X024483Y032219*
X024564Y032273*
X024619Y032355*
X024638Y032451*
Y033494*
X024619Y03359*
X024564Y033672*
X024483Y033726*
X024387Y033745*
G37*
G36*
X022294Y032922D02*
X021907D01*
Y032181*
X022025*
X022094Y03219*
X022159Y032217*
X022215Y03226*
X022258Y032316*
X022285Y032381*
X022294Y032451*
Y032922*
G37*
G36*
X021807D02*
X02142D01*
Y032451*
X021429Y032381*
X021456Y032316*
X021499Y03226*
X021555Y032217*
X02162Y03219*
X02169Y032181*
X021807*
Y032922*
G37*
G36*
X036018Y031546D02*
X035939Y031536D01*
X035819Y031486*
X035716Y031407*
X035636Y031304*
X03559Y031192*
X03556Y031188*
X035538Y031192*
X035496Y031293*
X03542Y031392*
X035322Y031468*
X035207Y031515*
X035083Y031532*
X03496Y031515*
X034845Y031468*
X034746Y031392*
X034671Y031293*
X034623Y031178*
X034607Y031055*
X034623Y030932*
X034671Y030817*
X034746Y030718*
X034845Y030642*
X03496Y030595*
X035083Y030578*
X035207Y030595*
X035322Y030642*
X03542Y030718*
X035496Y030817*
X035538Y030918*
X03556Y030922*
X03559Y030918*
X035636Y030806*
X035716Y030703*
X035819Y030624*
X035939Y030574*
X036018Y030564*
Y031055*
Y031546*
G37*
G36*
X044036Y031532D02*
X043913Y031515D01*
X043798Y031468*
X043699Y031392*
X043624Y031293*
X043578Y031183*
X043565Y031178*
X043538*
X043526Y031183*
X04348Y031293*
X043405Y031392*
X043306Y031468*
X043191Y031515*
X043068Y031532*
X042944Y031515*
X042829Y031468*
X042731Y031392*
X042655Y031293*
X042607Y031178*
X042601Y031128*
X04255*
X042544Y031178*
X042496Y031293*
X04242Y031392*
X042322Y031468*
X042207Y031515*
X042083Y031532*
X04196Y031515*
X041845Y031468*
X041746Y031392*
X041671Y031293*
X041623Y031178*
X041607Y031055*
X041623Y030932*
X041671Y030817*
X041746Y030718*
X041845Y030642*
X04196Y030595*
X042083Y030578*
X042207Y030595*
X042322Y030642*
X04242Y030718*
X042496Y030817*
X042544Y030932*
X04255Y030982*
X042601*
X042607Y030932*
X042655Y030817*
X042731Y030718*
X042829Y030642*
X042944Y030595*
X043068Y030578*
X043191Y030595*
X043306Y030642*
X043405Y030718*
X04348Y030817*
X043526Y030927*
X043538Y030932*
X043565*
X043578Y030927*
X043624Y030817*
X043699Y030718*
X043798Y030642*
X043913Y030595*
X044036Y030578*
X04416Y030595*
X044274Y030642*
X044373Y030718*
X044449Y030817*
X044496Y030932*
X044513Y031055*
X044496Y031178*
X044449Y031293*
X044373Y031392*
X044274Y031468*
X04416Y031515*
X044036Y031532*
G37*
G36*
X02356Y03152D02*
X023088D01*
Y031133*
X02383*
Y03125*
X02382Y03132*
X023794Y031385*
X023751Y031441*
X023695Y031484*
X02363Y03151*
X02356Y03152*
G37*
G36*
X022988D02*
X022517D01*
X022447Y03151*
X022382Y031484*
X022326Y031441*
X022283Y031385*
X022256Y03132*
X022247Y03125*
Y031133*
X022988*
Y03152*
G37*
G36*
X041068Y031532D02*
X040944Y031515D01*
X040829Y031468*
X040731Y031392*
X040655Y031293*
X040607Y031178*
X040596Y031091*
X040593Y031068*
X040542*
X04054Y031091*
X040528Y031178*
X04048Y031293*
X040405Y031392*
X040306Y031468*
X040191Y031515*
X040068Y031532*
X039944Y031515*
X039829Y031468*
X039731Y031392*
X039655Y031293*
X039607Y031178*
X039591Y031055*
X039607Y030932*
X039655Y030817*
X039731Y030718*
X039829Y030642*
X039944Y030595*
X040068Y030578*
X040191Y030595*
X040306Y030642*
X040405Y030718*
X04048Y030817*
X040528Y030932*
X04054Y031019*
X040542Y031042*
X040593*
X040596Y031019*
X040607Y030932*
X040655Y030817*
X040731Y030718*
X040829Y030642*
X040944Y030595*
X041068Y030578*
X041191Y030595*
X041306Y030642*
X041405Y030718*
X04148Y030817*
X041528Y030932*
X041544Y031055*
X041528Y031178*
X04148Y031293*
X041405Y031392*
X041306Y031468*
X041191Y031515*
X041068Y031532*
G37*
G36*
X034068D02*
X033944Y031515D01*
X033829Y031468*
X033731Y031392*
X033655Y031293*
X033607Y031178*
X033596Y031091*
X033593Y031068*
X033542*
X03354Y031091*
X033528Y031178*
X03348Y031293*
X033405Y031392*
X033306Y031468*
X033191Y031515*
X033068Y031532*
X032944Y031515*
X032829Y031468*
X032731Y031392*
X032655Y031293*
X032607Y031178*
X032596Y031091*
X032593Y031068*
X032542*
X03254Y031091*
X032528Y031178*
X03248Y031293*
X032405Y031392*
X032306Y031468*
X032191Y031515*
X032068Y031532*
X031944Y031515*
X031829Y031468*
X031731Y031392*
X031655Y031293*
X031607Y031178*
X031596Y031091*
X031593Y031068*
X031542*
X03154Y031091*
X031528Y031178*
X03148Y031293*
X031405Y031392*
X031306Y031468*
X031191Y031515*
X031068Y031532*
X030944Y031515*
X030829Y031468*
X030731Y031392*
X030655Y031293*
X030607Y031178*
X030591Y031055*
X030607Y030932*
X030655Y030817*
X030731Y030718*
X030829Y030642*
X030944Y030595*
X031068Y030578*
X031191Y030595*
X031306Y030642*
X031405Y030718*
X03148Y030817*
X031528Y030932*
X03154Y031019*
X031542Y031042*
X031593*
X031596Y031019*
X031607Y030932*
X031655Y030817*
X031731Y030718*
X031829Y030642*
X031944Y030595*
X032068Y030578*
X032191Y030595*
X032306Y030642*
X032405Y030718*
X03248Y030817*
X032528Y030932*
X03254Y031019*
X032542Y031042*
X032593*
X032596Y031019*
X032607Y030932*
X032655Y030817*
X032731Y030718*
X032829Y030642*
X032944Y030595*
X033068Y030578*
X033191Y030595*
X033306Y030642*
X033405Y030718*
X03348Y030817*
X033528Y030932*
X03354Y031019*
X033542Y031042*
X033593*
X033596Y031019*
X033607Y030932*
X033655Y030817*
X033731Y030718*
X033829Y030642*
X033944Y030595*
X034068Y030578*
X034191Y030595*
X034306Y030642*
X034405Y030718*
X03448Y030817*
X034528Y030932*
X034544Y031055*
X034528Y031178*
X03448Y031293*
X034405Y031392*
X034306Y031468*
X034191Y031515*
X034068Y031532*
G37*
G36*
X02383Y031033D02*
X023088D01*
Y030646*
X02356*
X02363Y030655*
X023695Y030682*
X023751Y030725*
X023794Y030781*
X02382Y030846*
X02383Y030915*
Y031033*
G37*
G36*
X022988D02*
X022247D01*
Y030915*
X022256Y030846*
X022283Y030781*
X022326Y030725*
X022382Y030682*
X022447Y030655*
X022517Y030646*
X022988*
Y031033*
G37*
G36*
X045509Y031527D02*
X044564D01*
Y030583*
X045509*
Y031527*
G37*
G36*
X037086Y031546D02*
Y031055D01*
Y030564*
X037165Y030574*
X037285Y030624*
X037388Y030703*
X037467Y030806*
X037517Y030926*
X037564Y030914*
Y030583*
X038509*
Y031527*
X037564*
Y031196*
X037517Y031184*
X037467Y031304*
X037388Y031407*
X037285Y031486*
X037165Y031536*
X037086Y031546*
G37*
G36*
X036118D02*
Y031055D01*
Y030564*
X036197Y030574*
X036317Y030624*
X03642Y030703*
X036499Y030806*
X036525Y030869*
X036579*
X036605Y030806*
X036684Y030703*
X036787Y030624*
X036907Y030574*
X036986Y030564*
Y031055*
Y031546*
X036907Y031536*
X036787Y031486*
X036684Y031407*
X036605Y031304*
X036579Y031241*
X036525*
X036499Y031304*
X03642Y031407*
X036317Y031486*
X036197Y031536*
X036118Y031546*
G37*
%LNvapeixshield-3*%
%LPD*%
G54D19*
X044736Y040055D03*
Y041055D03*
Y042055D03*
X046486Y040055D03*
Y041055D03*
Y042055D03*
G54D33*
X032652Y03953D02*
X033341D01*
X032814Y041504D02*
Y042084D01*
X03238Y04107D02*
X032814Y041504D01*
X032976Y041105D02*
X033017Y041145D01*
X032976Y039894D02*
Y041105D01*
X033301Y040178D02*
Y042328D01*
X031638Y04107D02*
X03238D01*
X031192Y039205D02*
X031679D01*
X030989Y039002D02*
X031192Y039205D01*
X030989Y037989D02*
Y039002D01*
X030665Y037664D02*
X030989Y037989D01*
X030503Y03918D02*
X030665Y039342D01*
X030503Y038354D02*
Y03918D01*
X030344Y038195D02*
X030503Y038354D01*
X030665Y039342D02*
Y040098D01*
X026975Y046018D02*
Y046667D01*
Y046018D02*
X027543Y04545D01*
X028191*
X031192Y045288D02*
Y046383D01*
X031476Y046667*
X044734Y040057D02*
X044736Y040055D01*
X029367Y041192D02*
Y042931D01*
Y037259D02*
Y041192D01*
X029372Y041187*
X02975*
X029367Y042931D02*
X02975Y043313D01*
X029367Y037259D02*
X02957Y037056D01*
X030665Y042084D02*
Y044072D01*
Y040098D02*
Y042084D01*
X030381Y042368D02*
X030665Y042084D01*
X02975Y042368D02*
X030381D01*
X030242Y044494D02*
X030665Y044072D01*
X02975Y044494D02*
X030242D01*
X030441Y040321D02*
X030665Y040098D01*
X02975Y040321D02*
X030441D01*
X02975Y038195D02*
X030344D01*
X036626Y044639D02*
X03695D01*
X037396Y045085*
X031468Y049351D02*
Y050055D01*
Y049351D02*
X0318Y049019D01*
X036464Y04691D02*
X037396Y045977D01*
Y045085D02*
Y045977D01*
X033179Y047437D02*
X033706Y04691D01*
X036464*
X0318Y049019D02*
X032652D01*
X033179Y048491*
Y047437D02*
Y048491D01*
X02957Y037056D02*
X030057D01*
X030219Y037218*
Y037867*
G54D34*
X027624Y032433D02*
X028678D01*
X032936Y034704D02*
X033909Y033731D01*
X040073*
X025393Y034663D02*
X027624Y032433D01*
X038654Y036295D02*
X041361D01*
X04171Y035946*
X044777*
X04356Y040057D02*
X044734D01*
X046486Y041055D02*
Y041557D01*
X043567Y041055D02*
X044731D01*
X043572Y042055D02*
X044736D01*
X035083Y031055D02*
X035126Y031097D01*
X025393Y034663D02*
Y036326D01*
X046486Y040487D02*
X046491Y040492D01*
X046486Y040055D02*
Y040487D01*
X022768Y045831D02*
Y048398D01*
X024425Y050055*
X027468*
X022768Y045043D02*
X023121D01*
X027512Y0491D02*
X028468Y050055D01*
X024704Y0491D02*
X027512D01*
X023121Y045043D02*
X023609Y045531D01*
Y048005*
X024704Y0491*
G54D35*
X04356Y042044D02*
X043572Y042055D01*
G54D36*
X033706Y046139D02*
X03619D01*
X032368Y047478D02*
X033706Y046139D01*
X032368Y047478D02*
Y047964D01*
X028921D02*
X032368D01*
X028354Y047396D02*
X028921Y047964D01*
X028354Y045937D02*
Y047396D01*
X040924Y037907D02*
X042344D01*
X043518Y036733*
X044777*
X036788Y045409D02*
Y045541D01*
X045457Y034371D02*
X045993Y034907D01*
X044777Y034371D02*
X045457D01*
X030366Y049059D02*
X030728Y048697D01*
X029246Y049059D02*
X030366D01*
X027745Y034136D02*
X028272Y033609D01*
X025069Y037739D02*
X028101D01*
X029611Y034096D02*
X030613D01*
X029124Y033609D02*
X029611Y034096D01*
X028272Y033609D02*
X029124D01*
X025444Y039864D02*
X028101D01*
X025466Y041995D02*
X028101D01*
X044777Y034371D02*
Y035158D01*
X043195Y039002D02*
X045304D01*
X045993Y038313*
Y034907D02*
Y038313D01*
X044687Y035158D02*
X044777D01*
X042587Y039611D02*
X043195Y039002D01*
X034031Y047721D02*
X043195D01*
X04648Y044436*
X042587Y039611D02*
Y044071D01*
X04648Y043909D02*
Y044436D01*
X034097Y038836D02*
X035433D01*
X042587Y044071D02*
X046318D01*
X04648Y043909*
X046486Y042055D02*
Y044071D01*
X034825D02*
X042587D01*
X034813Y044083D02*
X034825Y044071D01*
X03619Y046139D02*
X036788Y045541D01*
X027745Y034136D02*
Y034792D01*
X028101Y035148*
Y037739*
G54D38*
X044777Y035946D03*
Y036733D03*
Y035158D03*
Y034371D03*
X022799Y040841D03*
Y040054D03*
X022809Y037372D03*
Y036585D03*
X022768Y045831D03*
Y045043D03*
Y043468D03*
Y044256D03*
G54D39*
X031468Y050055D03*
X032468D03*
X033483D03*
X034468D03*
X035436D03*
X030468D03*
X029468D03*
X028468D03*
X027468D03*
X038068D03*
X039068D03*
X044036D03*
X043068D03*
X042083D03*
X041068D03*
X040068D03*
X031068Y031055D03*
X032068D03*
X037036D03*
X036068D03*
X035083D03*
X034068D03*
X033068D03*
X040068D03*
X041068D03*
X042083D03*
X043068D03*
X044036D03*
G54D40*
X036436Y050055D03*
X045036D03*
X038036Y031055D03*
X045036D03*
G54D41*
X021857Y032972D03*
X024219D03*
G54D42*
X023038Y031083D03*
G54D43*
X033341Y03953D03*
X032652D03*
X031963Y03889D03*
X03176Y03807D03*
X033301Y040178D03*
X032976Y039894D03*
X033017Y041145D03*
X031635Y040627D03*
X032246Y042044D03*
X031638Y04107D03*
X031679Y039205D03*
X032814Y042084D03*
X031963Y041483D03*
Y040178D03*
X031557Y042733D03*
X032044Y04322D03*
X031939Y043608D03*
X033301Y042328D03*
X030503Y038354D03*
X030341Y039408D03*
X026975Y046667D03*
X028191Y04545D03*
X031192Y045288D03*
X031476Y046667D03*
X041289Y032879D03*
X032936Y034704D03*
X040073Y033731D03*
X040924Y037907D03*
X038654Y036295D03*
X039237Y035318D03*
X04356Y040057D03*
X041452D03*
X036788Y045409D03*
X046485Y04256D03*
X046491Y041562D03*
X043567Y041055D03*
X043572Y042055D03*
X027056Y038394D03*
X030422Y04545D03*
X030728Y048697D03*
X029246Y049059D03*
X034031Y047721D03*
X030746Y032616D03*
X028354Y045937D03*
X031585Y033558D03*
X030665Y037664D03*
X028678Y032433D03*
X035514Y038836D03*
Y041047D03*
X046491Y040492D03*
X032431Y03643D03*
X030613Y034096D03*
X028272Y033609D03*
X029651Y033244D03*
X02975Y037604D03*
Y038195D03*
Y040321D03*
Y041187D03*
Y042368D03*
Y043313D03*
Y044494D03*
X028101Y037739D03*
Y039864D03*
Y041995D03*
Y044121D03*
X026691Y045637D03*
X030219Y037867D03*
X036626Y044639D03*
X032368Y047964D03*
G54D44*
X025393Y036326D03*
G54D57*
X032774Y035312D02*
X034071Y03661D01*
X029854Y035312D02*
X032774D01*
X02884Y036326D02*
X029854Y035312D01*
X028344Y044121D02*
X02884Y043625D01*
Y036326D02*
Y043625D01*
X032347Y035302D02*
X039237D01*
X028101Y044121D02*
X028344D01*
X025849D02*
X028101D01*
X025393Y043666D02*
X025849Y044121D01*
X025393Y038013D02*
Y043666D01*
X024753Y037372D02*
X025393Y038013D01*
X035491Y04107D02*
X035514Y041047D01*
X022809Y037372D02*
X024753D01*
X034071Y043341D02*
X034813Y044083D01*
X034193Y04107D02*
X035409D01*
X034071Y040949D02*
X034193Y04107D01*
X034071Y040949D02*
Y043341D01*
Y038862D02*
Y040949D01*
Y038862D02*
X034097Y038836D01*
X034071Y03661D02*
Y038862D01*
G54D58*
X036525Y031034D03*
M02*