%FSTAX24Y24*%
%MOIN*%
%SFA1B1*%

%IPPOS*%
%AMD41*
4,1,8,0.016700,0.068900,-0.016700,0.068900,-0.033400,0.052200,-0.033400,-0.052200,-0.016700,-0.068900,0.016700,-0.068900,0.033400,-0.052200,0.033400,0.052200,0.016700,0.068900,0.0*
1,1,0.033400,0.016700,0.052200*
1,1,0.033400,-0.016700,0.052200*
1,1,0.033400,-0.016700,-0.052200*
1,1,0.033400,0.016700,-0.052200*
%
%AMD42*
4,1,8,0.068900,-0.016700,0.068900,0.016700,0.052200,0.033400,-0.052200,0.033400,-0.068900,0.016700,-0.068900,-0.016700,-0.052200,-0.033400,0.052200,-0.033400,0.068900,-0.016700,0.0*
1,1,0.033400,0.052200,-0.016700*
1,1,0.033400,0.052200,0.016700*
1,1,0.033400,-0.052200,0.016700*
1,1,0.033400,-0.052200,-0.016700*
%
%ADD10R,0.039400X0.037200*%
%ADD11R,0.039400X0.037300*%
%ADD12R,0.027600X0.011800*%
%ADD13R,0.029500X0.031500*%
%ADD14R,0.015700X0.007900*%
%ADD15R,0.019700X0.019700*%
%ADD16R,0.037200X0.039400*%
%ADD17R,0.037300X0.039400*%
%ADD18R,0.011800X0.027600*%
%ADD19R,0.150000X0.050000*%
%ADD20R,0.051200X0.061000*%
%ADD21R,0.047200X0.098400*%
%ADD22O,0.066900X0.011800*%
%ADD23R,0.051200X0.059100*%
%ADD24R,0.031500X0.029500*%
%ADD25R,0.078700X0.043300*%
%ADD26R,0.031500X0.031500*%
%ADD27R,0.035400X0.027600*%
%ADD28C,0.039400*%
%ADD29R,0.031500X0.031500*%
%ADD30R,0.043300X0.078700*%
%ADD31R,0.040000X0.030000*%
%ADD32R,0.059100X0.051200*%
%ADD38C,0.051200*%
%ADD39C,0.078700*%
%ADD40R,0.078700X0.078700*%
G04~CAMADD=41~8~0.0~0.0~669.0~1378.0~167.0~0.0~15~0.0~0.0~0.0~0.0~0~0.0~0.0~0.0~0.0~0~0.0~0.0~0.0~0.0~669.0~1378.0*
%ADD41D41*%
G04~CAMADD=42~8~0.0~0.0~669.0~1378.0~167.0~0.0~15~0.0~0.0~0.0~0.0~0~0.0~0.0~0.0~0.0~0~0.0~0.0~0.0~270.0~1378.0~668.0*
%ADD42D42*%
%LNvapeixshield-1*%
%LPD*%
G54D10*
X031047Y043735D03*
Y038748D03*
X032473Y040636D03*
X033575Y045826D03*
G54D11*
X031047Y043225D03*
Y038237D03*
X032473Y041146D03*
X033575Y046337D03*
G54D12*
X031557Y043098D03*
Y043353D03*
Y043864D03*
Y043608D03*
X030832D03*
Y043864D03*
Y043353D03*
Y043098D03*
X031557Y03811D03*
Y038365D03*
Y038876D03*
Y03862D03*
X030832D03*
Y038876D03*
Y038365D03*
Y03811D03*
X031963Y041273D03*
Y041018D03*
Y040507D03*
Y040763D03*
X032688D03*
Y040507D03*
Y041018D03*
Y041273D03*
X033065Y046464D03*
Y046209D03*
Y045698D03*
Y045954D03*
X03379D03*
Y045698D03*
Y046209D03*
Y046464D03*
G54D13*
X033688Y047843D03*
X033157D03*
X028858Y045653D03*
X02939D03*
X030926Y047478D03*
X031458D03*
X027131Y045637D03*
X027663D03*
X028858Y046545D03*
X02939D03*
X033868Y041736D03*
X0344D03*
X033868Y042326D03*
X0344D03*
X033868Y041145D03*
X0344D03*
X033868Y03957D03*
X0344D03*
X033868Y040161D03*
X0344D03*
X033868Y03898D03*
X0344D03*
X029432Y037014D03*
X0289D03*
X029432Y037604D03*
X0289D03*
X029432Y03914D03*
X0289D03*
X029432Y038195D03*
X0289D03*
X029432Y03973D03*
X0289D03*
X029432Y040321D03*
X0289D03*
X029432Y041187D03*
X0289D03*
X029432Y041778D03*
X0289D03*
X029432Y042368D03*
X0289D03*
X029432Y043904D03*
X0289D03*
X029432Y043313D03*
X0289D03*
X029432Y044494D03*
X0289D03*
X030025Y033899D03*
X029493D03*
X029207Y032915D03*
X028675D03*
X031174Y036083D03*
X030643D03*
X032431D03*
X0319D03*
X042078Y035038D03*
X041547D03*
X042202Y032879D03*
X041671D03*
G54D14*
X030457Y032616D03*
Y032776D03*
X030027Y033093D03*
Y032933D03*
G54D15*
X03015Y032694D03*
X030313Y033021D03*
G54D16*
X030278Y03504D03*
G54D17*
X029768Y03504D03*
G54D18*
X029641Y03453D03*
X029896D03*
X030407D03*
X030151D03*
Y035255D03*
X030407D03*
X029896D03*
X029641D03*
G54D19*
X046491Y040055D03*
X044741D03*
X046491Y041055D03*
X044741D03*
X046491Y042055D03*
X044741D03*
G54D20*
X042816Y041035D03*
Y044165D03*
X041045D03*
Y041035D03*
X039451D03*
Y044165D03*
X03768D03*
Y041035D03*
G54D21*
X022147Y047853D03*
X024116D03*
X023131D03*
Y050019D03*
X024116D03*
X022147D03*
G54D22*
X032037Y045769D03*
Y045965D03*
Y046162D03*
Y046359D03*
Y046556D03*
X030422Y045769D03*
Y045965D03*
Y046162D03*
Y046359D03*
Y046556D03*
G54D23*
X02887Y04764D03*
X02954D03*
G54D24*
X027421Y047784D03*
Y047252D03*
X031138Y034921D03*
Y034389D03*
Y033044D03*
Y033575D03*
X03249Y047541D03*
Y047009D03*
X039237Y037472D03*
Y038004D03*
Y036295D03*
Y035764D03*
G54D25*
X031476Y048207D03*
X042071Y037892D03*
G54D26*
X030728Y048207D03*
X041323Y037892D03*
G54D27*
X027788Y039864D03*
Y039471D03*
X027198Y039864D03*
Y039471D03*
X027788Y041995D03*
Y041602D03*
X027198Y041995D03*
Y041602D03*
X027788Y037739D03*
Y037346D03*
X027198Y037739D03*
Y037346D03*
X027788Y044121D03*
Y043728D03*
X027198Y044121D03*
Y043728D03*
X035514Y041442D03*
Y041835D03*
X036105Y041442D03*
Y041835D03*
X035514Y039231D03*
Y039624D03*
X036105Y039231D03*
Y039624D03*
G54D28*
X031101Y037124D03*
X031019Y041767D03*
Y040083D03*
X027552Y035323D03*
Y032909D03*
Y034136D03*
X032095Y033558D03*
X032085Y034374D03*
Y035202D03*
Y032758D03*
G54D29*
X028733Y035081D03*
X037932Y033913D03*
G54D30*
X028733Y034333D03*
X037932Y033165D03*
G54D31*
X038445Y037103D03*
X037619Y036729D03*
Y037477D03*
X04137Y036671D03*
X042196Y037045D03*
Y036297D03*
G54D32*
X038936Y033033D03*
Y033703D03*
G54D38*
X044777Y035946D03*
Y036733D03*
Y035158D03*
Y034371D03*
X022799Y040841D03*
Y040054D03*
X022809Y037372D03*
Y036585D03*
X022768Y045831D03*
Y045043D03*
Y043468D03*
Y044256D03*
G54D39*
X031468Y050055D03*
X032468D03*
X033483D03*
X034468D03*
X035436D03*
X030468D03*
X029468D03*
X028468D03*
X027468D03*
X038068D03*
X039068D03*
X044036D03*
X043068D03*
X042083D03*
X041068D03*
X040068D03*
X031068Y031055D03*
X032068D03*
X037036D03*
X036068D03*
X035083D03*
X034068D03*
X033068D03*
X040068D03*
X041068D03*
X042083D03*
X043068D03*
X044036D03*
G54D40*
X036436Y050055D03*
X045036D03*
X038036Y031055D03*
X045036D03*
G54D41*
X021857Y032972D03*
X024219D03*
G54D42*
X023038Y031083D03*
M02*