%FSTAX24Y24*%
%MOIN*%
%SFA1B1*%

%IPPOS*%
%ADD67R,0.039400X0.037300*%
%ADD68R,0.039400X0.037400*%
%ADD69R,0.027600X0.011900*%
%ADD70R,0.029600X0.031600*%
%ADD71R,0.015800X0.008000*%
%ADD72R,0.019800X0.019800*%
%ADD73R,0.037300X0.039400*%
%ADD74R,0.037400X0.039400*%
%ADD75R,0.011900X0.027600*%
%ADD76R,0.150100X0.050100*%
%ADD77R,0.051300X0.061100*%
%ADD78R,0.047300X0.098500*%
%ADD79O,0.067000X0.011900*%
%ADD80R,0.051300X0.059100*%
%ADD81R,0.031600X0.029600*%
%ADD82R,0.078800X0.043400*%
%ADD83R,0.031600X0.031600*%
%ADD84R,0.035500X0.027600*%
%ADD85R,0.031600X0.031600*%
%ADD86R,0.043400X0.078800*%
%ADD87R,0.040100X0.030100*%
%ADD88R,0.059100X0.051300*%
%LNvapeixshield-1*%
%LPD*%
G54D67*
X031047Y043735D03*
Y038748D03*
X032473Y040636D03*
X033575Y045826D03*
G54D68*
X031047Y043225D03*
Y038237D03*
X032473Y041146D03*
X033575Y046337D03*
G54D69*
X031557Y043098D03*
Y043353D03*
Y043864D03*
Y043608D03*
X030832D03*
Y043864D03*
Y043353D03*
Y043098D03*
X031557Y03811D03*
Y038365D03*
Y038876D03*
Y03862D03*
X030832D03*
Y038876D03*
Y038365D03*
Y03811D03*
X031963Y041273D03*
Y041018D03*
Y040507D03*
Y040763D03*
X032688D03*
Y040507D03*
Y041018D03*
Y041273D03*
X033065Y046464D03*
Y046209D03*
Y045698D03*
Y045954D03*
X03379D03*
Y045698D03*
Y046209D03*
Y046464D03*
G54D70*
X033567Y047843D03*
X033035D03*
X028858Y045653D03*
X02939D03*
X030926Y047478D03*
X031458D03*
X027131Y045637D03*
X027663D03*
X028858Y046545D03*
X02939D03*
X033868Y041736D03*
X0344D03*
X033868Y042326D03*
X0344D03*
X033868Y041145D03*
X0344D03*
X033868Y03957D03*
X0344D03*
X033868Y040161D03*
X0344D03*
X033868Y03898D03*
X0344D03*
X029432Y037014D03*
X0289D03*
X029432Y037604D03*
X0289D03*
X029432Y03914D03*
X0289D03*
X029432Y038195D03*
X0289D03*
X029432Y03973D03*
X0289D03*
X029432Y040321D03*
X0289D03*
X029432Y041187D03*
X0289D03*
X029432Y041778D03*
X0289D03*
X029432Y042368D03*
X0289D03*
X029432Y043904D03*
X0289D03*
X029432Y043313D03*
X0289D03*
X029432Y044494D03*
X0289D03*
X030025Y033899D03*
X029493D03*
X029207Y032915D03*
X028675D03*
X031174Y036083D03*
X030643D03*
X032431D03*
X0319D03*
X032639Y04706D03*
X032108D03*
X042078Y035038D03*
X041547D03*
X042202Y032879D03*
X041671D03*
G54D71*
X030457Y032616D03*
Y032776D03*
X030027Y033093D03*
Y032933D03*
G54D72*
X03015Y032694D03*
X030313Y033021D03*
G54D73*
X030278Y03504D03*
G54D74*
X029768Y03504D03*
G54D75*
X029641Y03453D03*
X029896D03*
X030407D03*
X030151D03*
Y035255D03*
X030407D03*
X029896D03*
X029641D03*
G54D76*
X046491Y040055D03*
X044741D03*
X046491Y041055D03*
X044741D03*
X046491Y042055D03*
X044741D03*
G54D77*
X042816Y041035D03*
Y044165D03*
X041045D03*
Y041035D03*
X039451D03*
Y044165D03*
X03768D03*
Y041035D03*
G54D78*
X022147Y047853D03*
X024116D03*
X023131D03*
Y050019D03*
X024116D03*
X022147D03*
G54D79*
X032037Y045769D03*
Y045965D03*
Y046162D03*
Y046359D03*
Y046556D03*
X030422Y045769D03*
Y045965D03*
Y046162D03*
Y046359D03*
Y046556D03*
G54D80*
X02887Y04764D03*
X02954D03*
G54D81*
X027421Y047784D03*
Y047252D03*
X031138Y034921D03*
Y034389D03*
Y033044D03*
Y033575D03*
X039237Y037472D03*
Y038004D03*
Y036295D03*
Y035764D03*
G54D82*
X031476Y048207D03*
X042071Y037892D03*
G54D83*
X030728Y048207D03*
X041323Y037892D03*
G54D84*
X027788Y039864D03*
Y039471D03*
X027198Y039864D03*
Y039471D03*
X027788Y041995D03*
Y041602D03*
X027198Y041995D03*
Y041602D03*
X027788Y037739D03*
Y037346D03*
X027198Y037739D03*
Y037346D03*
X027788Y044121D03*
Y043728D03*
X027198Y044121D03*
Y043728D03*
X035514Y041442D03*
Y041835D03*
X036105Y041442D03*
Y041835D03*
X035514Y039231D03*
Y039624D03*
X036105Y039231D03*
Y039624D03*
G54D85*
X028733Y035081D03*
X037932Y033913D03*
G54D86*
X028733Y034333D03*
X037932Y033165D03*
G54D87*
X038445Y037103D03*
X037619Y036729D03*
Y037477D03*
X04137Y036671D03*
X042196Y037045D03*
Y036297D03*
G54D88*
X038936Y033033D03*
Y033703D03*
M02*