%FSTAX24Y24*%
%MOIN*%
%SFA1B1*%

%IPPOS*%
%AMD108*
4,1,8,0.016700,0.070800,-0.016700,0.070800,-0.035400,0.052100,-0.035400,-0.052100,-0.016700,-0.070800,0.016700,-0.070800,0.035400,-0.052100,0.035400,0.052100,0.016700,0.070800,0.0*
1,1,0.037400,0.016700,0.052100*
1,1,0.037400,-0.016700,0.052100*
1,1,0.037400,-0.016700,-0.052100*
1,1,0.037400,0.016700,-0.052100*
%
%AMD109*
4,1,8,0.070800,-0.016700,0.070800,0.016700,0.052100,0.035400,-0.052100,0.035400,-0.070800,0.016700,-0.070800,-0.016700,-0.052100,-0.035400,0.052100,-0.035400,0.070800,-0.016700,0.0*
1,1,0.037400,0.052100,-0.016700*
1,1,0.037400,0.052100,0.016700*
1,1,0.037400,-0.052100,0.016700*
1,1,0.037400,-0.052100,-0.016700*
%
%ADD39C,0.031500*%
%ADD83R,0.033500X0.035400*%
%ADD92R,0.035400X0.033500*%
%ADD93R,0.153900X0.053900*%
%ADD98R,0.082700X0.047200*%
%ADD99R,0.035400X0.035400*%
%ADD102R,0.035400X0.035400*%
%ADD103R,0.047200X0.082700*%
%ADD104C,0.035400*%
%ADD105C,0.055100*%
%ADD106C,0.082700*%
%ADD107R,0.082700X0.082700*%
G04~CAMADD=108~8~0.0~0.0~709.0~1417.0~187.0~0.0~15~0.0~0.0~0.0~0.0~0~0.0~0.0~0.0~0.0~0~0.0~0.0~0.0~0.0~709.0~1417.0*
%ADD108D108*%
G04~CAMADD=109~8~0.0~0.0~709.0~1417.0~187.0~0.0~15~0.0~0.0~0.0~0.0~0~0.0~0.0~0.0~0.0~0~0.0~0.0~0.0~270.0~1416.0~708.0*
%ADD109D109*%
%ADD110R,0.033900X0.043900*%
%ADD111R,0.043900X0.033900*%
%ADD112R,0.063000X0.055100*%
%ADD113C,0.023600*%
%LNvapeixshield-1*%
%LPD*%
G54D39*
X021817Y013909D03*
X02356Y010057D03*
X021452D03*
X016788Y015409D03*
X025142Y013625D03*
Y015085D03*
X024615Y015126D03*
X019546Y014274D03*
X021208Y014284D03*
X020951Y01399D03*
X016788Y014112D03*
X017153Y013139D03*
X010097Y009408D03*
X023804Y012958D03*
X026485Y01256D03*
X026491Y011562D03*
X023567Y011055D03*
X023572Y012055D03*
X007056Y008394D03*
X010138Y007867D03*
X013065Y015328D03*
X010422Y01545D03*
X011435Y015288D03*
X010728Y018697D03*
X009246Y019059D03*
X023317Y005474D03*
X014031Y017721D03*
X012571Y015328D03*
X013194Y010835D03*
Y011736D03*
X010746Y002616D03*
X008354Y015937D03*
X013666Y014112D03*
X008435Y018491D03*
X011111Y015896D03*
X011585Y003558D03*
X010665Y007664D03*
X011192Y006529D03*
X008678Y002433D03*
X021817Y003893D03*
X011864Y009733D03*
X01519Y008836D03*
Y011047D03*
X026491Y010492D03*
X012431Y00643D03*
X010613Y004096D03*
X008272Y003609D03*
X010665Y009205D03*
X009651Y003244D03*
X00975Y007604D03*
Y008195D03*
Y010321D03*
Y011187D03*
Y012368D03*
Y013313D03*
Y014494D03*
X008101Y007739D03*
Y009864D03*
Y011995D03*
Y014121D03*
X006691Y015637D03*
X016626Y006894D03*
X019059Y012976D03*
X018248Y011719D03*
G54D83*
X023056Y002839D03*
X022524D03*
G54D92*
X019238Y004203D03*
Y003671D03*
X018248Y008818D03*
Y009349D03*
Y010399D03*
Y010931D03*
G54D93*
X024736Y010055D03*
Y011055D03*
Y012055D03*
X026486Y010055D03*
Y011055D03*
Y012055D03*
G54D98*
X019084Y006883D03*
G54D99*
X018336Y006883D03*
G54D102*
X015126Y004154D03*
G54D103*
X015126Y003406D03*
G54D104*
X021857Y010868D03*
Y01134D03*
X012855Y010161D03*
Y00957D03*
X022465Y008516D03*
X005393Y006326D03*
G54D105*
X024777Y005946D03*
Y006733D03*
Y005158D03*
Y004371D03*
X002799Y010841D03*
Y010054D03*
X002809Y007372D03*
Y006585D03*
X002768Y015831D03*
Y015043D03*
Y013469D03*
Y014256D03*
G54D106*
X011468Y020055D03*
X012468D03*
X013483D03*
X014468D03*
X015436D03*
X010468D03*
X009468D03*
X008468D03*
X007468D03*
X018068D03*
X019068D03*
X024036D03*
X023068D03*
X022083D03*
X021068D03*
X020068D03*
X011068Y001055D03*
X012068D03*
X017036D03*
X016068D03*
X015083D03*
X014068D03*
X013068D03*
X020068D03*
X021068D03*
X022083D03*
X023068D03*
X024036D03*
G54D107*
X016436Y020055D03*
X025036D03*
X018036Y001055D03*
X025036D03*
G54D108*
X001857Y002972D03*
X004219D03*
G54D109*
X003038Y001083D03*
G54D110*
X018868Y005959D03*
X018494Y005132D03*
X019242D03*
G54D111*
X019867Y010049D03*
X01904Y010423D03*
Y009675D03*
G54D112*
X016139Y003234D03*
Y003903D03*
G54D113*
X020372Y013441D03*
M02*