%FSTAX24Y24*%
%MOIN*%
%SFA1B1*%

%IPPOS*%
%ADD34C,0.008000*%
%ADD36C,0.019700*%
%ADD37C,0.011800*%
%ADD38C,0.039400*%
%ADD39C,0.031500*%
%ADD41C,0.078700*%
%ADD42R,0.078700X0.078700*%
%ADD46C,0.027600*%
%LNvapeixshield-1*%
%LPD*%
G54D34*
X012571Y015328D02*
D01*
G54D36*
X004663Y015896D02*
X006367Y017599D01*
X004663Y007056D02*
Y015896D01*
X006367Y017599D02*
X011435D01*
X012468Y018632*
X006119Y018041D02*
X010863D01*
X004219Y016142D02*
X006119Y018041D01*
X004219Y006608D02*
Y016142D01*
X02137Y005028D02*
X021817Y004582D01*
X005799Y005028D02*
X02137D01*
X004219Y006608D02*
X005799Y005028D01*
X004663Y007056D02*
X005393Y006326D01*
X010863Y018041D02*
X011468Y018645D01*
X012468Y018632D02*
Y020055D01*
X011468Y018645D02*
Y020055D01*
X021817Y003893D02*
Y004582D01*
G54D37*
X020649Y012246D02*
X021695D01*
X019399D02*
X020649D01*
X018451Y013195D02*
X019399Y012246D01*
X021695D02*
X022152Y011789D01*
X021817Y013909D02*
X024169D01*
X021452Y006772D02*
Y010057D01*
Y006772D02*
X022911Y005312D01*
Y003163D02*
Y005312D01*
X022141Y002393D02*
X022911Y003163D01*
X013828Y002393D02*
X022141D01*
X013068Y001632D02*
X013828Y002393D01*
X013068Y001055D02*
Y001632D01*
X021898Y006894D02*
Y010341D01*
X019068Y018987D02*
Y020055D01*
X015572Y015491D02*
X019068Y018987D01*
X015572Y013212D02*
Y015491D01*
X019181Y018451D02*
X021614D01*
X01622Y015491D02*
X019181Y018451D01*
X01622Y013057D02*
Y015491D01*
X024615Y014842D02*
X025993Y013463D01*
X021766Y014842D02*
X024615D01*
X021208Y014284D02*
X021766Y014842D01*
X023276Y015734D02*
X024036Y016494D01*
X019059Y015734D02*
X023276D01*
X018451Y015126D02*
X019059Y015734D01*
X024615Y014842D02*
Y015126D01*
X025709Y003609D02*
Y013057D01*
X024412Y014355D02*
X025709Y013057D01*
X021735Y014355D02*
X024412D01*
X025993Y003204D02*
Y013463D01*
X020951Y01399D02*
X02137D01*
X021735Y014355*
X022152Y010595D02*
Y011789D01*
X021898Y010341D02*
X022152Y010595D01*
X009408Y008719D02*
X010097Y009408D01*
X006245Y008719D02*
X009408D01*
X014031Y015328D02*
X014355Y015004D01*
X013065Y015328D02*
X014031D01*
X012774Y00957D02*
X012855D01*
X01249Y009854D02*
X012774Y00957D01*
X01249Y009854D02*
Y011032D01*
X013194Y011736*
X024036Y016494D02*
Y020055D01*
X009022Y007604D02*
X00975D01*
X008232Y008394D02*
X009022Y007604D01*
X007056Y008394D02*
X008232D01*
X008962Y009448D02*
X009489Y009976D01*
X006732Y009448D02*
X008962D01*
X00588Y0103D02*
X006732Y009448D01*
X009043Y009043D02*
X009703Y009703D01*
X006488Y009043D02*
X009043D01*
X005474Y010057D02*
X006488Y009043D01*
X009489Y009976D02*
X01107D01*
X011435Y009611*
Y006888D02*
Y009611D01*
X010856Y009703D02*
X01107Y009489D01*
X009703Y009703D02*
X010856D01*
X01107Y00807D02*
Y009489D01*
X013194Y010835D02*
X015572Y013212D01*
X013666Y010503D02*
X01622Y013057D01*
X013666Y009408D02*
Y010503D01*
X012449Y009124D02*
X013382D01*
X012165Y009408D02*
X012449Y009124D01*
X012165Y009408D02*
Y011476D01*
X013382Y009124D02*
X013666Y009408D01*
X012165Y011476D02*
X014355Y013666D01*
Y015004*
X012866Y015624D02*
X014384D01*
X014963Y015044*
Y013505D02*
Y015044D01*
X013194Y011736D02*
X014963Y013505D01*
X012571Y015328D02*
X012866Y015624D01*
X013065Y015288D02*
Y015328D01*
X024087Y001987D02*
X025709Y003609D01*
X021614Y018451D02*
X022083Y01892D01*
Y020055*
X018451Y013195D02*
Y015126D01*
X021898Y006894D02*
X023317Y005474D01*
X022263Y003568D02*
Y004826D01*
X021654Y005434D02*
X022263Y004826D01*
X012889Y005434D02*
X021654D01*
X009395Y004596D02*
X011233Y002757D01*
X005542Y004596D02*
X009395D01*
X003771Y006367D02*
X005542Y004596D01*
X022587Y003406D02*
Y005109D01*
X021898Y005799D02*
X022587Y005109D01*
X019025Y005799D02*
X021898D01*
X021938Y002757D02*
X022587Y003406D01*
X011233Y002757D02*
X021938D01*
X021776Y003082D02*
X022263Y003568D01*
X01206Y003082D02*
X021776D01*
X011585Y003558D02*
X01206Y003082D01*
X017843Y006981D02*
X019025Y005799D01*
X023236Y002352D02*
X023763D01*
X022083Y0012D02*
X023236Y002352D01*
X022083Y001055D02*
Y0012D01*
X023068Y001055D02*
Y001494D01*
X02356Y001987*
X024087*
X025385Y003974D02*
Y012693D01*
X023763Y002352D02*
X025385Y003974D01*
X024036Y001246D02*
X025993Y003204D01*
X024036Y001055D02*
Y001246D01*
X006772Y016302D02*
X014152D01*
X00588Y015409D02*
X006772Y016302D01*
X00588Y0103D02*
Y015409D01*
X005474Y015572D02*
X00661Y016707D01*
X005474Y010057D02*
Y015572D01*
X00661Y016707D02*
X012553D01*
X005109Y015774D02*
X006488Y017153D01*
X005109Y009854D02*
Y015774D01*
X006488Y017153D02*
X011963D01*
X005109Y009854D02*
X006245Y008719D01*
X011435Y006888D02*
X012889Y005434D01*
X011963Y017153D02*
X013483Y018674D01*
X003771Y006367D02*
Y016359D01*
X007468Y020055*
X024169Y013909D02*
X025385Y012693D01*
X018068Y018595D02*
Y020055D01*
X015369Y015896D02*
X018068Y018595D01*
X011111Y015896D02*
X015369D01*
X014152Y016302D02*
X016436Y018585D01*
Y020055*
X012553Y016707D02*
X014468Y018622D01*
X010665Y007664D02*
X01107Y00807D01*
X013483Y018674D02*
Y020055D01*
X014468Y018622D02*
Y020055D01*
X017843Y006981D02*
Y011395D01*
X018167Y011719*
G54D38*
X019132Y014631D02*
X019789Y015288D01*
X019132Y013536D02*
X019732Y012936D01*
X019132Y013536D02*
Y014631D01*
X019789Y015288D02*
X023966D01*
X019732Y012936D02*
X021851D01*
X017843Y013139D02*
Y01545D01*
X016626Y011922D02*
X017843Y013139D01*
X016626Y006894D02*
Y011922D01*
X021854Y012939D02*
X022487Y012306D01*
Y008537D02*
Y012306D01*
X022465Y008516D02*
X022487Y008537D01*
X023966Y015288D02*
X025036Y016358D01*
Y020055*
X023068Y016701D02*
Y020055D01*
X022628Y016261D02*
X023068Y016701D01*
X018654Y016261D02*
X022628D01*
X017843Y01545D02*
X018654Y016261D01*
G54D39*
X012855Y00957D03*
X022465Y008516D03*
X005393Y006326D03*
G54D41*
X011468Y020055D03*
X012468D03*
X013483D03*
X014468D03*
X007468D03*
X018068D03*
X019068D03*
X024036D03*
X023068D03*
X022083D03*
X013068Y001055D03*
X022083D03*
X023068D03*
X024036D03*
G54D42*
X016436Y020055D03*
X025036D03*
G54D46*
X021817Y013909D03*
X021452Y010057D03*
X025142Y013625D03*
X024615Y015126D03*
X021208Y014284D03*
X020951Y01399D03*
X010097Y009408D03*
X007056Y008394D03*
X013065Y015328D03*
X023317Y005474D03*
X012571Y015328D03*
X013194Y010835D03*
Y011736D03*
X011111Y015896D03*
X011585Y003558D03*
X010665Y007664D03*
X021817Y003893D03*
X00975Y007604D03*
X016626Y006894D03*
X018248Y011719D03*
M02*