%FSTAX24Y24*%
%MOIN*%
%SFA1B1*%

%IPPOS*%
%AMD49*
1,1,0.079370,0.000000,0.000000*
1,0,0.059370,0.000000,0.000000*
4,0,4,0.024500,0.031500,-0.031500,-0.024500,-0.024500,-0.031500,0.031500,0.024500,0.024500,0.031500,0.0*
4,0,4,-0.024500,0.031500,0.031500,-0.024500,0.024500,-0.031500,-0.031500,0.024500,-0.024500,0.031500,0.0*
%
%AMD50*
4,1,4,-0.039700,0.029600,-0.039700,-0.029500,0.039700,-0.029500,0.039700,0.029600,-0.039700,0.029600,0.0*
1,1,0.079400,0.000000,-0.029400*
1,1,0.079400,0.000000,0.029400*
4,0,4,-0.029700,0.029600,-0.029700,-0.029500,0.029700,-0.029500,0.029700,0.029600,-0.029700,0.029600,0.0*
1,0,0.059400,0.000000,-0.029400*
1,0,0.059400,0.000000,0.029400*
4,0,4,0.003500,-0.026000,0.031700,-0.054100,0.024500,-0.061100,-0.003500,-0.033100,0.003500,-0.026000,0.0*
4,0,4,0.003500,0.033100,-0.024500,0.061100,-0.031600,0.054100,-0.003500,0.026000,0.003500,0.033100,0.0*
4,0,4,0.003500,-0.033100,-0.024500,-0.061100,-0.031600,-0.054100,-0.003500,-0.026000,0.003500,-0.033100,0.0*
4,0,4,0.003500,0.026000,0.031700,0.054100,0.024500,0.061100,-0.003500,0.033100,0.003500,0.026000,0.0*
%
%AMD51*
4,1,4,0.029600,0.039700,-0.029500,0.039700,-0.029500,-0.039700,0.029600,-0.039700,0.029600,0.039700,0.0*
1,1,0.079400,-0.029400,0.000000*
1,1,0.079400,0.029400,0.000000*
4,0,4,0.029600,0.029700,-0.029500,0.029700,-0.029500,-0.029700,0.029600,-0.029700,0.029600,0.029700,0.0*
1,0,0.059400,-0.029400,0.000000*
1,0,0.059400,0.029400,0.000000*
4,0,4,-0.026000,-0.003500,-0.054100,-0.031600,-0.061100,-0.024500,-0.033100,0.003500,-0.026000,-0.003500,0.0*
4,0,4,0.033100,-0.003500,0.061100,0.024500,0.054100,0.031700,0.026000,0.003500,0.033100,-0.003500,0.0*
4,0,4,-0.033100,-0.003500,-0.061100,0.024500,-0.054100,0.031700,-0.026000,0.003500,-0.033100,-0.003500,0.0*
4,0,4,0.026000,-0.003500,0.054100,-0.031600,0.061100,-0.024500,0.033100,0.003500,0.026000,-0.003500,0.0*
%
%AMD53*
1,1,0.071496,0.000000,0.000000*
1,0,0.051496,0.000000,0.000000*
4,0,4,0.021700,0.028800,-0.028800,-0.021700,-0.021700,-0.028800,0.028800,0.021700,0.021700,0.028800,0.0*
4,0,4,-0.021700,0.028800,0.028800,-0.021700,0.021700,-0.028800,-0.028800,0.021700,-0.021700,0.028800,0.0*
%
%AMD55*
1,1,0.051811,0.000000,0.000000*
1,0,0.031811,0.000000,0.000000*
4,0,4,0.014800,0.021800,-0.021800,-0.014800,-0.014800,-0.021800,0.021800,0.014800,0.014800,0.021800,0.0*
4,0,4,-0.014800,0.021800,0.021800,-0.014800,0.014800,-0.021800,-0.021800,0.014800,-0.014800,0.021800,0.0*
%
%ADD45C,0.040000*%
%ADD46C,0.040000*%
%ADD47C,0.071500*%
%ADD48C,0.079400*%
G04~CAMADD=49~12~0.0~0.0~0.0~0.0~0.0~0.0~0~793.7~593.7~0.0~45.0~4~100.0~0.0~0.0~0.0~0~0.0~0.0~0.0~0.0~793.7~793.7*
%ADD49D49*%
%ADD50D50*%
%ADD51D51*%
%ADD52O,0.079400X0.138400*%
G04~CAMADD=53~12~0.0~0.0~0.0~0.0~0.0~0.0~0~715.0~515.0~0.0~45.0~4~100.0~0.0~0.0~0.0~0~0.0~0.0~0.0~0.0~715.0~715.0*
%ADD53D53*%
%ADD54C,0.051800*%
G04~CAMADD=55~12~0.0~0.0~0.0~0.0~0.0~0.0~0~518.1~318.1~0.0~45.0~4~100.0~0.0~0.0~0.0~0~0.0~0.0~0.0~0.0~518.1~518.1*
%ADD55D55*%
%ADD56C,0.055700*%
%LNvapeixshield-1*%
%LPD*%
G54D45*
X020057Y030191D02*
D01*
X020074Y030166*
X020093Y030144*
X020114Y030122*
X020137Y030102*
X02016Y030084*
X020185Y030067*
X020211Y030053*
X020238Y03004*
X020266Y030028*
X020294Y030019*
D01*
X020297Y030017*
X0203Y030017*
D01*
X020322Y030009*
X020345Y030002*
X020368Y029998*
X020391Y029995*
X020413Y029993*
D01*
X020445Y029987*
X020477Y029985*
X020509Y029984*
X020534Y029986*
D01*
X020537Y029986*
X02054Y029987*
X04606D02*
D01*
X046063Y029987*
X046066Y029987*
X04607Y029988*
X046073Y029988*
X046077Y02999*
X04608Y029991*
D01*
X046122Y03001*
X046163Y030033*
X046202Y030059*
X046239Y030087*
X046275Y030118*
X046308Y030152*
X046338Y030187*
X046366Y030225*
X046392Y030264*
X046414Y030305*
X046434Y030348*
X046446Y030381*
D01*
X046447Y030384*
X046447Y030387*
X046448Y030391*
X046448Y030394*
X046449Y030398*
X047585Y032525D02*
D01*
X047587Y032527*
X047589Y03253*
X047591Y032533*
X047593Y032536*
X047595Y032539*
X047596Y032542*
X047597Y032545*
X047598Y032549*
X047599Y032552*
X047599Y032555*
X0476Y032559*
X0476Y032561*
X047585Y044489D02*
D01*
X047582Y044491*
X047579Y044493*
X047576Y044495*
X047573Y044497*
X047573Y044498*
X0476Y044454D02*
D01*
X047599Y044457*
X047599Y04446*
X047598Y044464*
X047598Y044467*
X047596Y044471*
X047595Y044474*
X047594Y044477*
X047592Y04448*
X04759Y044483*
X047588Y044486*
X047585Y044488*
X047585Y044489*
X0476Y044452D02*
D01*
X0476Y044452*
X0476Y044452*
X0476Y044453*
Y044453*
X0476Y044454*
Y044452D02*
D01*
X047599Y044455*
X047599Y044458*
X047598Y044462*
X047597Y044465*
X047596Y044468*
X047594Y044472*
X047593Y044475*
X047591Y044478*
X047589Y044481*
X047587Y044483*
X047585Y044486*
X04645Y0504D02*
D01*
X046449Y050403*
X046449Y050406*
X046448Y05041*
X046448Y050413*
X046446Y050417*
X046445Y05042*
X046444Y050423*
X046442Y050426*
X04644Y050429*
X046438Y050432*
X046435Y050434*
X046435Y050436*
X045769Y051101D02*
D01*
X045768Y051101*
X045768Y051101*
X045768Y051101*
X045768Y051101*
X045769Y051102*
D01*
X045766Y051104*
X045763Y051106*
X04576Y051108*
X045757Y05111*
X045754Y051111*
X045751Y051113*
X045748Y051114*
X045745Y051115*
X045741Y051115*
X045738Y051116*
X045734Y051116*
X045733Y051117*
X02043D02*
D01*
X0204Y051117*
X02037Y051115*
X02034Y051112*
X020311Y051106*
X020282Y051098*
X020254Y051088*
X020226Y051076*
X0202Y051063*
X020174Y051047*
X020149Y05103*
X020126Y051011*
X020104Y05099*
X020084Y050969*
X020065Y050945*
X020048Y050921*
X020033Y050895*
X02002Y050868*
X020008Y050841*
X019998Y050812*
X019991Y050784*
X019985Y050754*
X019981Y050724*
X019982Y050723*
D01*
X019981Y050719*
X019982Y050719*
Y030436D02*
D01*
X019982Y030432*
X019982Y03043*
D01*
X019982Y030426*
X019983Y030426*
D01*
X019984Y030396*
X019988Y030366*
X019993Y030336*
X020001Y030307*
X02001Y030279*
X020022Y030252*
X020036Y030225*
X020051Y030199*
X020057Y030191*
X020413Y029993D02*
D01*
X020534Y029986D02*
D01*
X02054Y029987D02*
X04606D01*
X046449Y030398D02*
Y031389D01*
X047585Y032525*
D01*
X0476Y032561D02*
Y044454D01*
X04645Y045624D02*
X0476Y044454D01*
X04645Y045624D02*
X047585Y044489D01*
X047573Y044498D02*
X047585Y044489D01*
Y044486D02*
Y044485D01*
X04645Y045621D02*
X047585Y044485D01*
X04645Y045621D02*
Y0504D01*
X046435Y050436D02*
Y050435D01*
X045769Y051101D02*
X046435Y050435D01*
X02043Y051117D02*
X045733D01*
X019982Y050723D02*
D01*
Y030436D02*
Y050719D01*
G54D46*
X045769Y051102D03*
D03*
G54D47*
X044777Y035946D03*
Y036733D03*
Y035158D03*
Y034371D03*
X022799Y040841D03*
X022809Y037372D03*
X022768Y045831D03*
Y045043D03*
Y043468D03*
Y044256D03*
G54D48*
X031468Y050055D03*
X032468D03*
X033483D03*
X034468D03*
X035436D03*
X036436D03*
X029468D03*
X028468D03*
X027468D03*
X038068D03*
X039068D03*
X045036D03*
X044036D03*
X043068D03*
X042083D03*
X041068D03*
X040068D03*
X031068Y031055D03*
X032068D03*
X038036D03*
X035083D03*
X034068D03*
X033068D03*
X040068D03*
X041068D03*
X042083D03*
X043068D03*
X044036D03*
X045036D03*
G54D49*
X030468Y050055D03*
X037036Y031055D03*
X036068D03*
G54D50*
X021857Y032972D03*
G54D51*
X023038Y031083D03*
G54D52*
X024219Y032972D03*
G54D53*
X022799Y040054D03*
X022809Y036585D03*
G54D54*
X033341Y03953D03*
X032652D03*
X033301Y040178D03*
X032976Y039894D03*
X033017Y041145D03*
X032246Y042044D03*
X031638Y04107D03*
X031679Y039205D03*
X032814Y042084D03*
X031963Y040178D03*
X032044Y04322D03*
X033301Y042328D03*
X030503Y038354D03*
X030341Y039408D03*
X026975Y046667D03*
X028191Y04545D03*
X031192Y045288D03*
X031476Y046667D03*
X041289Y032879D03*
X032936Y034704D03*
X040073Y033731D03*
X040924Y037907D03*
X038654Y036295D03*
X039237Y035318D03*
X04356Y040057D03*
X041452D03*
X036788Y045409D03*
X046485Y04256D03*
X046491Y041562D03*
X043567Y041055D03*
X043572Y042055D03*
X027056Y038394D03*
X030728Y048697D03*
X029246Y049059D03*
X034031Y047721D03*
X028354Y045937D03*
X031585Y033558D03*
X030665Y037664D03*
X028678Y032433D03*
X035514Y038836D03*
Y041047D03*
X030613Y034096D03*
X028272Y033609D03*
X02975Y037604D03*
Y038195D03*
Y040321D03*
Y041187D03*
Y042368D03*
Y043313D03*
Y044494D03*
X028101Y037739D03*
Y039864D03*
Y041995D03*
Y044121D03*
X030219Y037867D03*
X036626Y044639D03*
X032368Y047964D03*
G54D55*
X031963Y03889D03*
X03176Y03807D03*
X031635Y040627D03*
X031963Y041483D03*
X031557Y042733D03*
X031939Y043608D03*
X030422Y04545D03*
X030746Y032616D03*
X046491Y040492D03*
X032431Y03643D03*
X029651Y033244D03*
X026691Y045637D03*
G54D56*
X025393Y036326D03*
M02*