%FSTAX24Y24*%
%MOIN*%
%SFA1B1*%

%IPPOS*%
%ADD113C,0.002000*%
%ADD114C,0.002700*%
%LNvapeixshield-1*%
%LPD*%
G54D113*
X044697Y035866D02*
Y036026D01*
X044857*
Y035866*
X044697*
Y036653D02*
Y036813D01*
X044857*
Y036653*
X044697*
Y035078D02*
Y035238D01*
X044857*
Y035078*
X044697*
Y034291D02*
Y034451D01*
X044857*
Y034291*
X044697*
X021857Y032892D02*
X021777Y033052D01*
X021937*
X021857Y032892*
X023038Y031003D02*
X022958Y031163D01*
X023118*
X023038Y031003*
X024219Y032892D02*
X024139Y033052D01*
X024299*
X024219Y032892*
X022719Y040761D02*
Y040921D01*
X022879*
Y040761*
X022719*
Y039974D02*
Y040134D01*
X022879*
Y039974*
X022719*
X022729Y037292D02*
Y037452D01*
X022889*
Y037292*
X022729*
Y036505D02*
Y036665D01*
X022889*
Y036505*
X022729*
X022688Y045751D02*
Y045911D01*
X022848*
Y045751*
X022688*
Y044963D02*
Y045123D01*
X022848*
Y044963*
X022688*
Y043389D02*
Y043548D01*
X022848*
Y043389*
X022688*
Y044176D02*
Y044336D01*
X022848*
Y044176*
X022688*
X030097Y039328D02*
X030137Y039368D01*
X030177*
X030137Y039408*
X030177Y039448*
X030137*
X030097Y039488*
X030057Y039448*
X030017*
X030057Y039408*
X030017Y039368*
X030057*
X030097Y039328*
X032775Y040081D02*
X032815Y040161D01*
X032775Y040241*
X032855Y040201*
X032935Y040241*
X032895Y040161*
X032935Y040081*
X032855Y040121*
X032775Y040081*
Y03949D02*
X032815Y03957D01*
X032775Y03965*
X032855Y03961*
X032935Y03965*
X032895Y03957*
X032935Y03949*
X032855Y03953*
X032775Y03949*
X043804Y042878D02*
X043844Y042918D01*
X043884*
X043844Y042958*
X043884Y042998*
X043844*
X043804Y043038*
X043764Y042998*
X043724*
X043764Y042958*
X043724Y042918*
X043764*
X043804Y042878*
X046485Y04248D02*
X046525Y04252D01*
X046565*
X046525Y04256*
X046565Y0426*
X046525*
X046485Y04264*
X046445Y0426*
X046405*
X046445Y04256*
X046405Y04252*
X046445*
X046485Y04248*
X046491Y041482D02*
X046531Y041522D01*
X046571*
X046531Y041562*
X046571Y041602*
X046531*
X046491Y041642*
X046451Y041602*
X046411*
X046451Y041562*
X046411Y041522*
X046451*
X046491Y041482*
X043567Y039975D02*
X043607Y040015D01*
X043647*
X043607Y040055*
X043647Y040095*
X043607*
X043567Y040135*
X043527Y040095*
X043487*
X043527Y040055*
X043487Y040015*
X043527*
X043567Y039975*
Y040975D02*
X043607Y041015D01*
X043647*
X043607Y041055*
X043647Y041095*
X043607*
X043567Y041135*
X043527Y041095*
X043487*
X043527Y041055*
X043487Y041015*
X043527*
X043567Y040975*
X043572Y041975D02*
X043612Y042015D01*
X043652*
X043612Y042055*
X043652Y042095*
X043612*
X043572Y042135*
X043532Y042095*
X043492*
X043532Y042055*
X043492Y042015*
X043532*
X043572Y041975*
X027056Y038314D02*
X027096Y038354D01*
X027136*
X027096Y038394*
X027136Y038434*
X027096*
X027056Y038474*
X027016Y038434*
X026976*
X027016Y038394*
X026976Y038354*
X027016*
X027056Y038314*
X030138Y037787D02*
X030178Y037827D01*
X030218*
X030178Y037867*
X030218Y037907*
X030178*
X030138Y037947*
X030098Y037907*
X030058*
X030098Y037867*
X030058Y037827*
X030098*
X030138Y037787*
X033065Y045248D02*
X033105Y045288D01*
X033145*
X033105Y045328*
X033145Y045368*
X033105*
X033065Y045408*
X033025Y045368*
X032985*
X033025Y045328*
X032985Y045288*
X033025*
X033065Y045248*
X030422Y04537D02*
X030462Y04541D01*
X030502*
X030462Y04545*
X030502Y04549*
X030462*
X030422Y04553*
X030382Y04549*
X030342*
X030382Y04545*
X030342Y04541*
X030382*
X030422Y04537*
X031435Y045208D02*
X031475Y045248D01*
X031515*
X031475Y045288*
X031515Y045328*
X031475*
X031435Y045368*
X031395Y045328*
X031355*
X031395Y045288*
X031355Y045248*
X031395*
X031435Y045208*
X030728Y048617D02*
X030768Y048657D01*
X030808*
X030768Y048697*
X030808Y048737*
X030768*
X030728Y048777*
X030688Y048737*
X030648*
X030688Y048697*
X030648Y048657*
X030688*
X030728Y048617*
X029246Y048979D02*
X029286Y049019D01*
X029326*
X029286Y049059*
X029326Y049099*
X029286*
X029246Y049139*
X029206Y049099*
X029166*
X029206Y049059*
X029166Y049019*
X029206*
X029246Y048979*
X043317Y035394D02*
X043357Y035434D01*
X043397*
X043357Y035474*
X043397Y035514*
X043357*
X043317Y035554*
X043277Y035514*
X043237*
X043277Y035474*
X043237Y035434*
X043277*
X043317Y035394*
X042385Y038436D02*
X042425Y038516D01*
X042385Y038596*
X042465Y038556*
X042545Y038596*
X042505Y038516*
X042545Y038436*
X042465Y038476*
X042385Y038436*
X041452Y039977D02*
X041492Y040017D01*
X041532*
X041492Y040057*
X041532Y040097*
X041492*
X041452Y040137*
X041412Y040097*
X041372*
X041412Y040057*
X041372Y040017*
X041412*
X041452Y039977*
X034031Y047641D02*
X034071Y047681D01*
X034111*
X034071Y047721*
X034111Y047761*
X034071*
X034031Y047801*
X033991Y047761*
X033951*
X033991Y047721*
X033951Y047681*
X033991*
X034031Y047641*
X032571Y045248D02*
X032611Y045288D01*
X032651*
X032611Y045328*
X032651Y045368*
X032611*
X032571Y045408*
X032531Y045368*
X032491*
X032531Y045328*
X032491Y045288*
X032531*
X032571Y045248*
X033194Y040755D02*
X033234Y040795D01*
X033274*
X033234Y040835*
X033274Y040875*
X033234*
X033194Y040915*
X033154Y040875*
X033114*
X033154Y040835*
X033114Y040795*
X033154*
X033194Y040755*
Y041656D02*
X033234Y041696D01*
X033274*
X033234Y041736*
X033274Y041776*
X033234*
X033194Y041816*
X033154Y041776*
X033114*
X033154Y041736*
X033114Y041696*
X033154*
X033194Y041656*
X030746Y032536D02*
X030786Y032576D01*
X030826*
X030786Y032616*
X030826Y032656*
X030786*
X030746Y032696*
X030706Y032656*
X030666*
X030706Y032616*
X030666Y032576*
X030706*
X030746Y032536*
X037194Y041964D02*
X037234Y042004D01*
X037274*
X037234Y042044*
X037274Y042084*
X037234*
X037194Y042124*
X037154Y042084*
X037114*
X037154Y042044*
X037114Y042004*
X037154*
X037194Y041964*
X040124Y043921D02*
X040164Y043961D01*
X040204*
X040164Y044001*
X040204Y044041*
X040164*
X040124Y044081*
X040084Y044041*
X040044*
X040084Y044001*
X040044Y043961*
X040084*
X040124Y043921*
X028354Y045857D02*
X028394Y045897D01*
X028434*
X028394Y045937*
X028434Y045977*
X028394*
X028354Y046017*
X028314Y045977*
X028274*
X028314Y045937*
X028274Y045897*
X028314*
X028354Y045857*
X033666Y044032D02*
X033706Y044072D01*
X033746*
X033706Y044112*
X033746Y044152*
X033706*
X033666Y044192*
X033626Y044152*
X033586*
X033626Y044112*
X033586Y044072*
X033626*
X033666Y044032*
X028435Y048411D02*
X028475Y048451D01*
X028515*
X028475Y048491*
X028515Y048531*
X028475*
X028435Y048571*
X028395Y048531*
X028355*
X028395Y048491*
X028355Y048451*
X028395*
X028435Y048411*
X031111Y045816D02*
X031151Y045856D01*
X031191*
X031151Y045896*
X031191Y045936*
X031151*
X031111Y045976*
X031071Y045936*
X031031*
X031071Y045896*
X031031Y045856*
X031071*
X031111Y045816*
X031585Y033478D02*
X031625Y033518D01*
X031665*
X031625Y033558*
X031665Y033598*
X031625*
X031585Y033638*
X031545Y033598*
X031505*
X031545Y033558*
X031505Y033518*
X031545*
X031585Y033478*
X030665Y037584D02*
X030705Y037624D01*
X030745*
X030705Y037664*
X030745Y037704*
X030705*
X030665Y037744*
X030625Y037704*
X030585*
X030625Y037664*
X030585Y037624*
X030625*
X030665Y037584*
X031192Y036449D02*
X031232Y036489D01*
X031272*
X031232Y036529*
X031272Y036569*
X031232*
X031192Y036609*
X031152Y036569*
X031112*
X031152Y036529*
X031112Y036489*
X031152*
X031192Y036449*
X028678Y032353D02*
X028718Y032393D01*
X028758*
X028718Y032433*
X028758Y032473*
X028718*
X028678Y032513*
X028638Y032473*
X028598*
X028638Y032433*
X028598Y032393*
X028638*
X028678Y032353*
X025313Y036246D02*
X025353Y036326D01*
X025313Y036406*
X025393Y036366*
X025473Y036406*
X025433Y036326*
X025473Y036246*
X025393Y036286*
X025313Y036246*
X041817Y033813D02*
X041857Y033853D01*
X041897*
X041857Y033893*
X041897Y033933*
X041857*
X041817Y033973*
X041777Y033933*
X041737*
X041777Y033893*
X041737Y033853*
X041777*
X041817Y033813*
X039667Y044421D02*
X039707Y044461D01*
X039747*
X039707Y044501*
X039747Y044541*
X039707*
X039667Y044581*
X039627Y044541*
X039587*
X039627Y044501*
X039587Y044461*
X039627*
X039667Y044421*
X031864Y039653D02*
X031904Y039693D01*
X031944*
X031904Y039733*
X031944Y039773*
X031904*
X031864Y039813*
X031824Y039773*
X031784*
X031824Y039733*
X031784Y039693*
X031824*
X031864Y039653*
X03519Y038756D02*
X03523Y038796D01*
X03527*
X03523Y038836*
X03527Y038876*
X03523*
X03519Y038916*
X03515Y038876*
X03511*
X03515Y038836*
X03511Y038796*
X03515*
X03519Y038756*
Y040967D02*
X03523Y041007D01*
X03527*
X03523Y041047*
X03527Y041087*
X03523*
X03519Y041127*
X03515Y041087*
X03511*
X03515Y041047*
X03511Y041007*
X03515*
X03519Y040967*
X046491Y040412D02*
X046531Y040452D01*
X046571*
X046531Y040492*
X046571Y040532*
X046531*
X046491Y040572*
X046451Y040532*
X046411*
X046451Y040492*
X046411Y040452*
X046451*
X046491Y040412*
X037732Y042421D02*
X037772Y042461D01*
X037812*
X037772Y042501*
X037812Y042541*
X037772*
X037732Y042581*
X037692Y042541*
X037652*
X037692Y042501*
X037652Y042461*
X037692*
X037732Y042421*
X037228Y044431D02*
X037268Y044471D01*
X037308*
X037268Y044511*
X037308Y044551*
X037268*
X037228Y044591*
X037188Y044551*
X037148*
X037188Y044511*
X037148Y044471*
X037188*
X037228Y044431*
X042871Y043921D02*
X042911Y043961D01*
X042951*
X042911Y044001*
X042951Y044041*
X042911*
X042871Y044081*
X042831Y044041*
X042791*
X042831Y044001*
X042791Y043961*
X042831*
X042871Y043921*
Y044421D02*
X042911Y044461D01*
X042951*
X042911Y044501*
X042951Y044541*
X042911*
X042871Y044581*
X042831Y044541*
X042791*
X042831Y044501*
X042791Y044461*
X042831*
X042871Y044421*
X032431Y03635D02*
X032471Y03639D01*
X032511*
X032471Y03643*
X032511Y03647*
X032471*
X032431Y03651*
X032391Y03647*
X032351*
X032391Y03643*
X032351Y03639*
X032391*
X032431Y03635*
X030613Y034016D02*
X030653Y034056D01*
X030693*
X030653Y034096*
X030693Y034136*
X030653*
X030613Y034176*
X030573Y034136*
X030533*
X030573Y034096*
X030533Y034056*
X030573*
X030613Y034016*
X028272Y033529D02*
X028312Y033569D01*
X028352*
X028312Y033609*
X028352Y033649*
X028312*
X028272Y033689*
X028232Y033649*
X028192*
X028232Y033609*
X028192Y033569*
X028232*
X028272Y033529*
X030665Y039125D02*
X030705Y039165D01*
X030745*
X030705Y039205*
X030745Y039245*
X030705*
X030665Y039285*
X030625Y039245*
X030585*
X030625Y039205*
X030585Y039165*
X030625*
X030665Y039125*
X029651Y033164D02*
X029691Y033204D01*
X029731*
X029691Y033244*
X029731Y033284*
X029691*
X029651Y033324*
X029611Y033284*
X029571*
X029611Y033244*
X029571Y033204*
X029611*
X029651Y033164*
X02975Y037524D02*
X02979Y037564D01*
X02983*
X02979Y037604*
X02983Y037644*
X02979*
X02975Y037684*
X02971Y037644*
X02967*
X02971Y037604*
X02967Y037564*
X02971*
X02975Y037524*
Y038115D02*
X02979Y038155D01*
X02983*
X02979Y038195*
X02983Y038235*
X02979*
X02975Y038275*
X02971Y038235*
X02967*
X02971Y038195*
X02967Y038155*
X02971*
X02975Y038115*
Y040241D02*
X02979Y040281D01*
X02983*
X02979Y040321*
X02983Y040361*
X02979*
X02975Y040401*
X02971Y040361*
X02967*
X02971Y040321*
X02967Y040281*
X02971*
X02975Y040241*
Y041107D02*
X02979Y041147D01*
X02983*
X02979Y041187*
X02983Y041227*
X02979*
X02975Y041267*
X02971Y041227*
X02967*
X02971Y041187*
X02967Y041147*
X02971*
X02975Y041107*
Y042288D02*
X02979Y042328D01*
X02983*
X02979Y042368*
X02983Y042408*
X02979*
X02975Y042448*
X02971Y042408*
X02967*
X02971Y042368*
X02967Y042328*
X02971*
X02975Y042288*
Y043233D02*
X02979Y043273D01*
X02983*
X02979Y043313*
X02983Y043353*
X02979*
X02975Y043393*
X02971Y043353*
X02967*
X02971Y043313*
X02967Y043273*
X02971*
X02975Y043233*
Y044414D02*
X02979Y044454D01*
X02983*
X02979Y044494*
X02983Y044534*
X02979*
X02975Y044574*
X02971Y044534*
X02967*
X02971Y044494*
X02967Y044454*
X02971*
X02975Y044414*
X028101Y037659D02*
X028141Y037699D01*
X028181*
X028141Y037739*
X028181Y037779*
X028141*
X028101Y037819*
X028061Y037779*
X028021*
X028061Y037739*
X028021Y037699*
X028061*
X028101Y037659*
Y039784D02*
X028141Y039824D01*
X028181*
X028141Y039864*
X028181Y039904*
X028141*
X028101Y039944*
X028061Y039904*
X028021*
X028061Y039864*
X028021Y039824*
X028061*
X028101Y039784*
Y041915D02*
X028141Y041955D01*
X028181*
X028141Y041995*
X028181Y042035*
X028141*
X028101Y042075*
X028061Y042035*
X028021*
X028061Y041995*
X028021Y041955*
X028061*
X028101Y041915*
Y044041D02*
X028141Y044081D01*
X028181*
X028141Y044121*
X028181Y044161*
X028141*
X028101Y044201*
X028061Y044161*
X028021*
X028061Y044121*
X028021Y044081*
X028061*
X028101Y044041*
X026691Y045557D02*
X026731Y045597D01*
X026771*
X026731Y045637*
X026771Y045677*
X026731*
X026691Y045717*
X026651Y045677*
X026611*
X026651Y045637*
X026611Y045597*
X026651*
X026691Y045557*
X036626Y036814D02*
X036666Y036854D01*
X036706*
X036666Y036894*
X036706Y036934*
X036666*
X036626Y036974*
X036586Y036934*
X036546*
X036586Y036894*
X036546Y036854*
X036586*
X036626Y036814*
G54D114*
X031548Y050055D02*
D01*
X031547Y05006*
X031547Y050066*
X031546Y050071*
X031544Y050077*
X031543Y050082*
X031541Y050087*
X031538Y050092*
X031535Y050097*
X031532Y050102*
X031529Y050106*
X031525Y05011*
X031521Y050114*
X031517Y050118*
X031512Y050121*
X031508Y050124*
X031503Y050126*
X031497Y050129*
X031492Y050131*
X031487Y050132*
X031481Y050133*
X031476Y050134*
X03147Y050134*
X031465*
X031459Y050134*
X031454Y050133*
X031448Y050132*
X031443Y050131*
X031438Y050129*
X031432Y050126*
X031428Y050124*
X031423Y050121*
X031418Y050118*
X031414Y050114*
X03141Y05011*
X031406Y050106*
X031403Y050102*
X0314Y050097*
X031397Y050092*
X031394Y050087*
X031392Y050082*
X031391Y050077*
X031389Y050071*
X031388Y050066*
X031388Y05006*
X031388Y050055*
X031388Y050049*
X031388Y050043*
X031389Y050038*
X031391Y050032*
X031392Y050027*
X031394Y050022*
X031397Y050017*
X0314Y050012*
X031403Y050007*
X031406Y050003*
X03141Y049999*
X031414Y049995*
X031418Y049991*
X031423Y049988*
X031428Y049985*
X031432Y049983*
X031438Y04998*
X031443Y049978*
X031448Y049977*
X031454Y049976*
X031459Y049975*
X031465Y049975*
X03147*
X031476Y049975*
X031481Y049976*
X031487Y049977*
X031492Y049978*
X031497Y04998*
X031503Y049983*
X031508Y049985*
X031512Y049988*
X031517Y049991*
X031521Y049995*
X031525Y049999*
X031529Y050003*
X031532Y050007*
X031535Y050012*
X031538Y050017*
X031541Y050022*
X031543Y050027*
X031544Y050032*
X031546Y050038*
X031547Y050043*
X031547Y050049*
X031548Y050055*
X032548D02*
D01*
X032547Y05006*
X032547Y050066*
X032546Y050071*
X032544Y050077*
X032543Y050082*
X032541Y050087*
X032538Y050092*
X032535Y050097*
X032532Y050102*
X032529Y050106*
X032525Y05011*
X032521Y050114*
X032517Y050118*
X032512Y050121*
X032508Y050124*
X032503Y050126*
X032497Y050129*
X032492Y050131*
X032487Y050132*
X032481Y050133*
X032476Y050134*
X03247Y050134*
X032465*
X032459Y050134*
X032454Y050133*
X032448Y050132*
X032443Y050131*
X032438Y050129*
X032432Y050126*
X032428Y050124*
X032423Y050121*
X032418Y050118*
X032414Y050114*
X03241Y05011*
X032406Y050106*
X032403Y050102*
X0324Y050097*
X032397Y050092*
X032394Y050087*
X032392Y050082*
X032391Y050077*
X032389Y050071*
X032388Y050066*
X032388Y05006*
X032388Y050055*
X032388Y050049*
X032388Y050043*
X032389Y050038*
X032391Y050032*
X032392Y050027*
X032394Y050022*
X032397Y050017*
X0324Y050012*
X032403Y050007*
X032406Y050003*
X03241Y049999*
X032414Y049995*
X032418Y049991*
X032423Y049988*
X032428Y049985*
X032432Y049983*
X032438Y04998*
X032443Y049978*
X032448Y049977*
X032454Y049976*
X032459Y049975*
X032465Y049975*
X03247*
X032476Y049975*
X032481Y049976*
X032487Y049977*
X032492Y049978*
X032497Y04998*
X032503Y049983*
X032508Y049985*
X032512Y049988*
X032517Y049991*
X032521Y049995*
X032525Y049999*
X032529Y050003*
X032532Y050007*
X032535Y050012*
X032538Y050017*
X032541Y050022*
X032543Y050027*
X032544Y050032*
X032546Y050038*
X032547Y050043*
X032547Y050049*
X032548Y050055*
X033563D02*
D01*
X033562Y05006*
X033562Y050066*
X033561Y050071*
X033559Y050077*
X033558Y050082*
X033556Y050087*
X033553Y050092*
X03355Y050097*
X033547Y050102*
X033544Y050106*
X03354Y05011*
X033536Y050114*
X033532Y050118*
X033527Y050121*
X033523Y050124*
X033518Y050126*
X033512Y050129*
X033507Y050131*
X033502Y050132*
X033496Y050133*
X033491Y050134*
X033485Y050134*
X03348*
X033474Y050134*
X033469Y050133*
X033463Y050132*
X033458Y050131*
X033453Y050129*
X033447Y050126*
X033443Y050124*
X033438Y050121*
X033433Y050118*
X033429Y050114*
X033425Y05011*
X033421Y050106*
X033418Y050102*
X033415Y050097*
X033412Y050092*
X033409Y050087*
X033407Y050082*
X033406Y050077*
X033404Y050071*
X033403Y050066*
X033403Y05006*
X033403Y050055*
X033403Y050049*
X033403Y050043*
X033404Y050038*
X033406Y050032*
X033407Y050027*
X033409Y050022*
X033412Y050017*
X033415Y050012*
X033418Y050007*
X033421Y050003*
X033425Y049999*
X033429Y049995*
X033433Y049991*
X033438Y049988*
X033443Y049985*
X033447Y049983*
X033453Y04998*
X033458Y049978*
X033463Y049977*
X033469Y049976*
X033474Y049975*
X03348Y049975*
X033485*
X033491Y049975*
X033496Y049976*
X033502Y049977*
X033507Y049978*
X033512Y04998*
X033518Y049983*
X033523Y049985*
X033527Y049988*
X033532Y049991*
X033536Y049995*
X03354Y049999*
X033544Y050003*
X033547Y050007*
X03355Y050012*
X033553Y050017*
X033556Y050022*
X033558Y050027*
X033559Y050032*
X033561Y050038*
X033562Y050043*
X033562Y050049*
X033563Y050055*
X034548D02*
D01*
X034547Y05006*
X034547Y050066*
X034546Y050071*
X034544Y050077*
X034543Y050082*
X034541Y050087*
X034538Y050092*
X034535Y050097*
X034532Y050102*
X034529Y050106*
X034525Y05011*
X034521Y050114*
X034517Y050118*
X034512Y050121*
X034508Y050124*
X034503Y050126*
X034497Y050129*
X034492Y050131*
X034487Y050132*
X034481Y050133*
X034476Y050134*
X03447Y050134*
X034465*
X034459Y050134*
X034454Y050133*
X034448Y050132*
X034443Y050131*
X034438Y050129*
X034432Y050126*
X034428Y050124*
X034423Y050121*
X034418Y050118*
X034414Y050114*
X03441Y05011*
X034406Y050106*
X034403Y050102*
X0344Y050097*
X034397Y050092*
X034394Y050087*
X034392Y050082*
X034391Y050077*
X034389Y050071*
X034388Y050066*
X034388Y05006*
X034388Y050055*
X034388Y050049*
X034388Y050043*
X034389Y050038*
X034391Y050032*
X034392Y050027*
X034394Y050022*
X034397Y050017*
X0344Y050012*
X034403Y050007*
X034406Y050003*
X03441Y049999*
X034414Y049995*
X034418Y049991*
X034423Y049988*
X034428Y049985*
X034432Y049983*
X034438Y04998*
X034443Y049978*
X034448Y049977*
X034454Y049976*
X034459Y049975*
X034465Y049975*
X03447*
X034476Y049975*
X034481Y049976*
X034487Y049977*
X034492Y049978*
X034497Y04998*
X034503Y049983*
X034508Y049985*
X034512Y049988*
X034517Y049991*
X034521Y049995*
X034525Y049999*
X034529Y050003*
X034532Y050007*
X034535Y050012*
X034538Y050017*
X034541Y050022*
X034543Y050027*
X034544Y050032*
X034546Y050038*
X034547Y050043*
X034547Y050049*
X034548Y050055*
X035516D02*
D01*
X035515Y05006*
X035515Y050066*
X035514Y050071*
X035512Y050077*
X035511Y050082*
X035509Y050087*
X035506Y050092*
X035503Y050097*
X0355Y050102*
X035497Y050106*
X035493Y05011*
X035489Y050114*
X035485Y050118*
X03548Y050121*
X035476Y050124*
X035471Y050126*
X035465Y050129*
X03546Y050131*
X035455Y050132*
X035449Y050133*
X035444Y050134*
X035438Y050134*
X035433*
X035427Y050134*
X035422Y050133*
X035416Y050132*
X035411Y050131*
X035406Y050129*
X0354Y050126*
X035396Y050124*
X035391Y050121*
X035386Y050118*
X035382Y050114*
X035378Y05011*
X035374Y050106*
X035371Y050102*
X035368Y050097*
X035365Y050092*
X035362Y050087*
X03536Y050082*
X035359Y050077*
X035357Y050071*
X035356Y050066*
X035356Y05006*
X035356Y050055*
X035356Y050049*
X035356Y050043*
X035357Y050038*
X035359Y050032*
X03536Y050027*
X035362Y050022*
X035365Y050017*
X035368Y050012*
X035371Y050007*
X035374Y050003*
X035378Y049999*
X035382Y049995*
X035386Y049991*
X035391Y049988*
X035396Y049985*
X0354Y049983*
X035406Y04998*
X035411Y049978*
X035416Y049977*
X035422Y049976*
X035427Y049975*
X035433Y049975*
X035438*
X035444Y049975*
X035449Y049976*
X035455Y049977*
X03546Y049978*
X035465Y04998*
X035471Y049983*
X035476Y049985*
X03548Y049988*
X035485Y049991*
X035489Y049995*
X035493Y049999*
X035497Y050003*
X0355Y050007*
X035503Y050012*
X035506Y050017*
X035509Y050022*
X035511Y050027*
X035512Y050032*
X035514Y050038*
X035515Y050043*
X035515Y050049*
X035516Y050055*
X036516D02*
D01*
X036515Y05006*
X036515Y050066*
X036514Y050071*
X036512Y050077*
X036511Y050082*
X036509Y050087*
X036506Y050092*
X036503Y050097*
X0365Y050102*
X036497Y050106*
X036493Y05011*
X036489Y050114*
X036485Y050118*
X03648Y050121*
X036476Y050124*
X036471Y050126*
X036465Y050129*
X03646Y050131*
X036455Y050132*
X036449Y050133*
X036444Y050134*
X036438Y050134*
X036433*
X036427Y050134*
X036422Y050133*
X036416Y050132*
X036411Y050131*
X036406Y050129*
X0364Y050126*
X036396Y050124*
X036391Y050121*
X036386Y050118*
X036382Y050114*
X036378Y05011*
X036374Y050106*
X036371Y050102*
X036368Y050097*
X036365Y050092*
X036362Y050087*
X03636Y050082*
X036359Y050077*
X036357Y050071*
X036356Y050066*
X036356Y05006*
X036356Y050055*
X036356Y050049*
X036356Y050043*
X036357Y050038*
X036359Y050032*
X03636Y050027*
X036362Y050022*
X036365Y050017*
X036368Y050012*
X036371Y050007*
X036374Y050003*
X036378Y049999*
X036382Y049995*
X036386Y049991*
X036391Y049988*
X036396Y049985*
X0364Y049983*
X036406Y04998*
X036411Y049978*
X036416Y049977*
X036422Y049976*
X036427Y049975*
X036433Y049975*
X036438*
X036444Y049975*
X036449Y049976*
X036455Y049977*
X03646Y049978*
X036465Y04998*
X036471Y049983*
X036476Y049985*
X03648Y049988*
X036485Y049991*
X036489Y049995*
X036493Y049999*
X036497Y050003*
X0365Y050007*
X036503Y050012*
X036506Y050017*
X036509Y050022*
X036511Y050027*
X036512Y050032*
X036514Y050038*
X036515Y050043*
X036515Y050049*
X036516Y050055*
X030548D02*
D01*
X030547Y05006*
X030547Y050066*
X030546Y050071*
X030544Y050077*
X030543Y050082*
X030541Y050087*
X030538Y050092*
X030535Y050097*
X030532Y050102*
X030529Y050106*
X030525Y05011*
X030521Y050114*
X030517Y050118*
X030512Y050121*
X030508Y050124*
X030503Y050126*
X030497Y050129*
X030492Y050131*
X030487Y050132*
X030481Y050133*
X030476Y050134*
X03047Y050134*
X030465*
X030459Y050134*
X030454Y050133*
X030448Y050132*
X030443Y050131*
X030438Y050129*
X030432Y050126*
X030428Y050124*
X030423Y050121*
X030418Y050118*
X030414Y050114*
X03041Y05011*
X030406Y050106*
X030403Y050102*
X0304Y050097*
X030397Y050092*
X030394Y050087*
X030392Y050082*
X030391Y050077*
X030389Y050071*
X030388Y050066*
X030388Y05006*
X030388Y050055*
X030388Y050049*
X030388Y050043*
X030389Y050038*
X030391Y050032*
X030392Y050027*
X030394Y050022*
X030397Y050017*
X0304Y050012*
X030403Y050007*
X030406Y050003*
X03041Y049999*
X030414Y049995*
X030418Y049991*
X030423Y049988*
X030428Y049985*
X030432Y049983*
X030438Y04998*
X030443Y049978*
X030448Y049977*
X030454Y049976*
X030459Y049975*
X030465Y049975*
X03047*
X030476Y049975*
X030481Y049976*
X030487Y049977*
X030492Y049978*
X030497Y04998*
X030503Y049983*
X030508Y049985*
X030512Y049988*
X030517Y049991*
X030521Y049995*
X030525Y049999*
X030529Y050003*
X030532Y050007*
X030535Y050012*
X030538Y050017*
X030541Y050022*
X030543Y050027*
X030544Y050032*
X030546Y050038*
X030547Y050043*
X030547Y050049*
X030548Y050055*
X029548D02*
D01*
X029547Y05006*
X029547Y050066*
X029546Y050071*
X029544Y050077*
X029543Y050082*
X029541Y050087*
X029538Y050092*
X029535Y050097*
X029532Y050102*
X029529Y050106*
X029525Y05011*
X029521Y050114*
X029517Y050118*
X029512Y050121*
X029508Y050124*
X029503Y050126*
X029497Y050129*
X029492Y050131*
X029487Y050132*
X029481Y050133*
X029476Y050134*
X02947Y050134*
X029465*
X029459Y050134*
X029454Y050133*
X029448Y050132*
X029443Y050131*
X029438Y050129*
X029432Y050126*
X029428Y050124*
X029423Y050121*
X029418Y050118*
X029414Y050114*
X02941Y05011*
X029406Y050106*
X029403Y050102*
X0294Y050097*
X029397Y050092*
X029394Y050087*
X029392Y050082*
X029391Y050077*
X029389Y050071*
X029388Y050066*
X029388Y05006*
X029388Y050055*
X029388Y050049*
X029388Y050043*
X029389Y050038*
X029391Y050032*
X029392Y050027*
X029394Y050022*
X029397Y050017*
X0294Y050012*
X029403Y050007*
X029406Y050003*
X02941Y049999*
X029414Y049995*
X029418Y049991*
X029423Y049988*
X029428Y049985*
X029432Y049983*
X029438Y04998*
X029443Y049978*
X029448Y049977*
X029454Y049976*
X029459Y049975*
X029465Y049975*
X02947*
X029476Y049975*
X029481Y049976*
X029487Y049977*
X029492Y049978*
X029497Y04998*
X029503Y049983*
X029508Y049985*
X029512Y049988*
X029517Y049991*
X029521Y049995*
X029525Y049999*
X029529Y050003*
X029532Y050007*
X029535Y050012*
X029538Y050017*
X029541Y050022*
X029543Y050027*
X029544Y050032*
X029546Y050038*
X029547Y050043*
X029547Y050049*
X029548Y050055*
X028548D02*
D01*
X028547Y05006*
X028547Y050066*
X028546Y050071*
X028544Y050077*
X028543Y050082*
X028541Y050087*
X028538Y050092*
X028535Y050097*
X028532Y050102*
X028529Y050106*
X028525Y05011*
X028521Y050114*
X028517Y050118*
X028512Y050121*
X028508Y050124*
X028503Y050126*
X028497Y050129*
X028492Y050131*
X028487Y050132*
X028481Y050133*
X028476Y050134*
X02847Y050134*
X028465*
X028459Y050134*
X028454Y050133*
X028448Y050132*
X028443Y050131*
X028438Y050129*
X028432Y050126*
X028428Y050124*
X028423Y050121*
X028418Y050118*
X028414Y050114*
X02841Y05011*
X028406Y050106*
X028403Y050102*
X0284Y050097*
X028397Y050092*
X028394Y050087*
X028392Y050082*
X028391Y050077*
X028389Y050071*
X028388Y050066*
X028388Y05006*
X028388Y050055*
X028388Y050049*
X028388Y050043*
X028389Y050038*
X028391Y050032*
X028392Y050027*
X028394Y050022*
X028397Y050017*
X0284Y050012*
X028403Y050007*
X028406Y050003*
X02841Y049999*
X028414Y049995*
X028418Y049991*
X028423Y049988*
X028428Y049985*
X028432Y049983*
X028438Y04998*
X028443Y049978*
X028448Y049977*
X028454Y049976*
X028459Y049975*
X028465Y049975*
X02847*
X028476Y049975*
X028481Y049976*
X028487Y049977*
X028492Y049978*
X028497Y04998*
X028503Y049983*
X028508Y049985*
X028512Y049988*
X028517Y049991*
X028521Y049995*
X028525Y049999*
X028529Y050003*
X028532Y050007*
X028535Y050012*
X028538Y050017*
X028541Y050022*
X028543Y050027*
X028544Y050032*
X028546Y050038*
X028547Y050043*
X028547Y050049*
X028548Y050055*
X027548D02*
D01*
X027547Y05006*
X027547Y050066*
X027546Y050071*
X027544Y050077*
X027543Y050082*
X027541Y050087*
X027538Y050092*
X027535Y050097*
X027532Y050102*
X027529Y050106*
X027525Y05011*
X027521Y050114*
X027517Y050118*
X027512Y050121*
X027508Y050124*
X027503Y050126*
X027497Y050129*
X027492Y050131*
X027487Y050132*
X027481Y050133*
X027476Y050134*
X02747Y050134*
X027465*
X027459Y050134*
X027454Y050133*
X027448Y050132*
X027443Y050131*
X027438Y050129*
X027432Y050126*
X027428Y050124*
X027423Y050121*
X027418Y050118*
X027414Y050114*
X02741Y05011*
X027406Y050106*
X027403Y050102*
X0274Y050097*
X027397Y050092*
X027394Y050087*
X027392Y050082*
X027391Y050077*
X027389Y050071*
X027388Y050066*
X027388Y05006*
X027388Y050055*
X027388Y050049*
X027388Y050043*
X027389Y050038*
X027391Y050032*
X027392Y050027*
X027394Y050022*
X027397Y050017*
X0274Y050012*
X027403Y050007*
X027406Y050003*
X02741Y049999*
X027414Y049995*
X027418Y049991*
X027423Y049988*
X027428Y049985*
X027432Y049983*
X027438Y04998*
X027443Y049978*
X027448Y049977*
X027454Y049976*
X027459Y049975*
X027465Y049975*
X02747*
X027476Y049975*
X027481Y049976*
X027487Y049977*
X027492Y049978*
X027497Y04998*
X027503Y049983*
X027508Y049985*
X027512Y049988*
X027517Y049991*
X027521Y049995*
X027525Y049999*
X027529Y050003*
X027532Y050007*
X027535Y050012*
X027538Y050017*
X027541Y050022*
X027543Y050027*
X027544Y050032*
X027546Y050038*
X027547Y050043*
X027547Y050049*
X027548Y050055*
X038148D02*
D01*
X038147Y05006*
X038147Y050066*
X038146Y050071*
X038144Y050077*
X038143Y050082*
X038141Y050087*
X038138Y050092*
X038135Y050097*
X038132Y050102*
X038129Y050106*
X038125Y05011*
X038121Y050114*
X038117Y050118*
X038112Y050121*
X038108Y050124*
X038103Y050126*
X038097Y050129*
X038092Y050131*
X038087Y050132*
X038081Y050133*
X038076Y050134*
X03807Y050134*
X038065*
X038059Y050134*
X038054Y050133*
X038048Y050132*
X038043Y050131*
X038038Y050129*
X038032Y050126*
X038028Y050124*
X038023Y050121*
X038018Y050118*
X038014Y050114*
X03801Y05011*
X038006Y050106*
X038003Y050102*
X038Y050097*
X037997Y050092*
X037994Y050087*
X037992Y050082*
X037991Y050077*
X037989Y050071*
X037988Y050066*
X037988Y05006*
X037988Y050055*
X037988Y050049*
X037988Y050043*
X037989Y050038*
X037991Y050032*
X037992Y050027*
X037994Y050022*
X037997Y050017*
X038Y050012*
X038003Y050007*
X038006Y050003*
X03801Y049999*
X038014Y049995*
X038018Y049991*
X038023Y049988*
X038028Y049985*
X038032Y049983*
X038038Y04998*
X038043Y049978*
X038048Y049977*
X038054Y049976*
X038059Y049975*
X038065Y049975*
X03807*
X038076Y049975*
X038081Y049976*
X038087Y049977*
X038092Y049978*
X038097Y04998*
X038103Y049983*
X038108Y049985*
X038112Y049988*
X038117Y049991*
X038121Y049995*
X038125Y049999*
X038129Y050003*
X038132Y050007*
X038135Y050012*
X038138Y050017*
X038141Y050022*
X038143Y050027*
X038144Y050032*
X038146Y050038*
X038147Y050043*
X038147Y050049*
X038148Y050055*
X039148D02*
D01*
X039147Y05006*
X039147Y050066*
X039146Y050071*
X039144Y050077*
X039143Y050082*
X039141Y050087*
X039138Y050092*
X039135Y050097*
X039132Y050102*
X039129Y050106*
X039125Y05011*
X039121Y050114*
X039117Y050118*
X039112Y050121*
X039108Y050124*
X039103Y050126*
X039097Y050129*
X039092Y050131*
X039087Y050132*
X039081Y050133*
X039076Y050134*
X03907Y050134*
X039065*
X039059Y050134*
X039054Y050133*
X039048Y050132*
X039043Y050131*
X039038Y050129*
X039032Y050126*
X039028Y050124*
X039023Y050121*
X039018Y050118*
X039014Y050114*
X03901Y05011*
X039006Y050106*
X039003Y050102*
X039Y050097*
X038997Y050092*
X038994Y050087*
X038992Y050082*
X038991Y050077*
X038989Y050071*
X038988Y050066*
X038988Y05006*
X038988Y050055*
X038988Y050049*
X038988Y050043*
X038989Y050038*
X038991Y050032*
X038992Y050027*
X038994Y050022*
X038997Y050017*
X039Y050012*
X039003Y050007*
X039006Y050003*
X03901Y049999*
X039014Y049995*
X039018Y049991*
X039023Y049988*
X039028Y049985*
X039032Y049983*
X039038Y04998*
X039043Y049978*
X039048Y049977*
X039054Y049976*
X039059Y049975*
X039065Y049975*
X03907*
X039076Y049975*
X039081Y049976*
X039087Y049977*
X039092Y049978*
X039097Y04998*
X039103Y049983*
X039108Y049985*
X039112Y049988*
X039117Y049991*
X039121Y049995*
X039125Y049999*
X039129Y050003*
X039132Y050007*
X039135Y050012*
X039138Y050017*
X039141Y050022*
X039143Y050027*
X039144Y050032*
X039146Y050038*
X039147Y050043*
X039147Y050049*
X039148Y050055*
X045116D02*
D01*
X045115Y05006*
X045115Y050066*
X045114Y050071*
X045112Y050077*
X045111Y050082*
X045109Y050087*
X045106Y050092*
X045103Y050097*
X0451Y050102*
X045097Y050106*
X045093Y05011*
X045089Y050114*
X045085Y050118*
X04508Y050121*
X045076Y050124*
X045071Y050126*
X045065Y050129*
X04506Y050131*
X045055Y050132*
X045049Y050133*
X045044Y050134*
X045038Y050134*
X045033*
X045027Y050134*
X045022Y050133*
X045016Y050132*
X045011Y050131*
X045006Y050129*
X045Y050126*
X044996Y050124*
X044991Y050121*
X044986Y050118*
X044982Y050114*
X044978Y05011*
X044974Y050106*
X044971Y050102*
X044968Y050097*
X044965Y050092*
X044962Y050087*
X04496Y050082*
X044959Y050077*
X044957Y050071*
X044956Y050066*
X044956Y05006*
X044956Y050055*
X044956Y050049*
X044956Y050043*
X044957Y050038*
X044959Y050032*
X04496Y050027*
X044962Y050022*
X044965Y050017*
X044968Y050012*
X044971Y050007*
X044974Y050003*
X044978Y049999*
X044982Y049995*
X044986Y049991*
X044991Y049988*
X044996Y049985*
X045Y049983*
X045006Y04998*
X045011Y049978*
X045016Y049977*
X045022Y049976*
X045027Y049975*
X045033Y049975*
X045038*
X045044Y049975*
X045049Y049976*
X045055Y049977*
X04506Y049978*
X045065Y04998*
X045071Y049983*
X045076Y049985*
X04508Y049988*
X045085Y049991*
X045089Y049995*
X045093Y049999*
X045097Y050003*
X0451Y050007*
X045103Y050012*
X045106Y050017*
X045109Y050022*
X045111Y050027*
X045112Y050032*
X045114Y050038*
X045115Y050043*
X045115Y050049*
X045116Y050055*
X044116D02*
D01*
X044115Y05006*
X044115Y050066*
X044114Y050071*
X044112Y050077*
X044111Y050082*
X044109Y050087*
X044106Y050092*
X044103Y050097*
X0441Y050102*
X044097Y050106*
X044093Y05011*
X044089Y050114*
X044085Y050118*
X04408Y050121*
X044076Y050124*
X044071Y050126*
X044065Y050129*
X04406Y050131*
X044055Y050132*
X044049Y050133*
X044044Y050134*
X044038Y050134*
X044033*
X044027Y050134*
X044022Y050133*
X044016Y050132*
X044011Y050131*
X044006Y050129*
X044Y050126*
X043996Y050124*
X043991Y050121*
X043986Y050118*
X043982Y050114*
X043978Y05011*
X043974Y050106*
X043971Y050102*
X043968Y050097*
X043965Y050092*
X043962Y050087*
X04396Y050082*
X043959Y050077*
X043957Y050071*
X043956Y050066*
X043956Y05006*
X043956Y050055*
X043956Y050049*
X043956Y050043*
X043957Y050038*
X043959Y050032*
X04396Y050027*
X043962Y050022*
X043965Y050017*
X043968Y050012*
X043971Y050007*
X043974Y050003*
X043978Y049999*
X043982Y049995*
X043986Y049991*
X043991Y049988*
X043996Y049985*
X044Y049983*
X044006Y04998*
X044011Y049978*
X044016Y049977*
X044022Y049976*
X044027Y049975*
X044033Y049975*
X044038*
X044044Y049975*
X044049Y049976*
X044055Y049977*
X04406Y049978*
X044065Y04998*
X044071Y049983*
X044076Y049985*
X04408Y049988*
X044085Y049991*
X044089Y049995*
X044093Y049999*
X044097Y050003*
X0441Y050007*
X044103Y050012*
X044106Y050017*
X044109Y050022*
X044111Y050027*
X044112Y050032*
X044114Y050038*
X044115Y050043*
X044115Y050049*
X044116Y050055*
X043148D02*
D01*
X043147Y05006*
X043147Y050066*
X043146Y050071*
X043144Y050077*
X043143Y050082*
X043141Y050087*
X043138Y050092*
X043135Y050097*
X043132Y050102*
X043129Y050106*
X043125Y05011*
X043121Y050114*
X043117Y050118*
X043112Y050121*
X043108Y050124*
X043103Y050126*
X043097Y050129*
X043092Y050131*
X043087Y050132*
X043081Y050133*
X043076Y050134*
X04307Y050134*
X043065*
X043059Y050134*
X043054Y050133*
X043048Y050132*
X043043Y050131*
X043038Y050129*
X043032Y050126*
X043028Y050124*
X043023Y050121*
X043018Y050118*
X043014Y050114*
X04301Y05011*
X043006Y050106*
X043003Y050102*
X043Y050097*
X042997Y050092*
X042994Y050087*
X042992Y050082*
X042991Y050077*
X042989Y050071*
X042988Y050066*
X042988Y05006*
X042988Y050055*
X042988Y050049*
X042988Y050043*
X042989Y050038*
X042991Y050032*
X042992Y050027*
X042994Y050022*
X042997Y050017*
X043Y050012*
X043003Y050007*
X043006Y050003*
X04301Y049999*
X043014Y049995*
X043018Y049991*
X043023Y049988*
X043028Y049985*
X043032Y049983*
X043038Y04998*
X043043Y049978*
X043048Y049977*
X043054Y049976*
X043059Y049975*
X043065Y049975*
X04307*
X043076Y049975*
X043081Y049976*
X043087Y049977*
X043092Y049978*
X043097Y04998*
X043103Y049983*
X043108Y049985*
X043112Y049988*
X043117Y049991*
X043121Y049995*
X043125Y049999*
X043129Y050003*
X043132Y050007*
X043135Y050012*
X043138Y050017*
X043141Y050022*
X043143Y050027*
X043144Y050032*
X043146Y050038*
X043147Y050043*
X043147Y050049*
X043148Y050055*
X042163D02*
D01*
X042162Y05006*
X042162Y050066*
X042161Y050071*
X042159Y050077*
X042158Y050082*
X042156Y050087*
X042153Y050092*
X04215Y050097*
X042147Y050102*
X042144Y050106*
X04214Y05011*
X042136Y050114*
X042132Y050118*
X042127Y050121*
X042123Y050124*
X042118Y050126*
X042112Y050129*
X042107Y050131*
X042102Y050132*
X042096Y050133*
X042091Y050134*
X042085Y050134*
X04208*
X042074Y050134*
X042069Y050133*
X042063Y050132*
X042058Y050131*
X042053Y050129*
X042047Y050126*
X042043Y050124*
X042038Y050121*
X042033Y050118*
X042029Y050114*
X042025Y05011*
X042021Y050106*
X042018Y050102*
X042015Y050097*
X042012Y050092*
X042009Y050087*
X042007Y050082*
X042006Y050077*
X042004Y050071*
X042003Y050066*
X042003Y05006*
X042003Y050055*
X042003Y050049*
X042003Y050043*
X042004Y050038*
X042006Y050032*
X042007Y050027*
X042009Y050022*
X042012Y050017*
X042015Y050012*
X042018Y050007*
X042021Y050003*
X042025Y049999*
X042029Y049995*
X042033Y049991*
X042038Y049988*
X042043Y049985*
X042047Y049983*
X042053Y04998*
X042058Y049978*
X042063Y049977*
X042069Y049976*
X042074Y049975*
X04208Y049975*
X042085*
X042091Y049975*
X042096Y049976*
X042102Y049977*
X042107Y049978*
X042112Y04998*
X042118Y049983*
X042123Y049985*
X042127Y049988*
X042132Y049991*
X042136Y049995*
X04214Y049999*
X042144Y050003*
X042147Y050007*
X04215Y050012*
X042153Y050017*
X042156Y050022*
X042158Y050027*
X042159Y050032*
X042161Y050038*
X042162Y050043*
X042162Y050049*
X042163Y050055*
X041148D02*
D01*
X041147Y05006*
X041147Y050066*
X041146Y050071*
X041144Y050077*
X041143Y050082*
X041141Y050087*
X041138Y050092*
X041135Y050097*
X041132Y050102*
X041129Y050106*
X041125Y05011*
X041121Y050114*
X041117Y050118*
X041112Y050121*
X041108Y050124*
X041103Y050126*
X041097Y050129*
X041092Y050131*
X041087Y050132*
X041081Y050133*
X041076Y050134*
X04107Y050134*
X041065*
X041059Y050134*
X041054Y050133*
X041048Y050132*
X041043Y050131*
X041038Y050129*
X041032Y050126*
X041028Y050124*
X041023Y050121*
X041018Y050118*
X041014Y050114*
X04101Y05011*
X041006Y050106*
X041003Y050102*
X041Y050097*
X040997Y050092*
X040994Y050087*
X040992Y050082*
X040991Y050077*
X040989Y050071*
X040988Y050066*
X040988Y05006*
X040988Y050055*
X040988Y050049*
X040988Y050043*
X040989Y050038*
X040991Y050032*
X040992Y050027*
X040994Y050022*
X040997Y050017*
X041Y050012*
X041003Y050007*
X041006Y050003*
X04101Y049999*
X041014Y049995*
X041018Y049991*
X041023Y049988*
X041028Y049985*
X041032Y049983*
X041038Y04998*
X041043Y049978*
X041048Y049977*
X041054Y049976*
X041059Y049975*
X041065Y049975*
X04107*
X041076Y049975*
X041081Y049976*
X041087Y049977*
X041092Y049978*
X041097Y04998*
X041103Y049983*
X041108Y049985*
X041112Y049988*
X041117Y049991*
X041121Y049995*
X041125Y049999*
X041129Y050003*
X041132Y050007*
X041135Y050012*
X041138Y050017*
X041141Y050022*
X041143Y050027*
X041144Y050032*
X041146Y050038*
X041147Y050043*
X041147Y050049*
X041148Y050055*
X040148D02*
D01*
X040147Y05006*
X040147Y050066*
X040146Y050071*
X040144Y050077*
X040143Y050082*
X040141Y050087*
X040138Y050092*
X040135Y050097*
X040132Y050102*
X040129Y050106*
X040125Y05011*
X040121Y050114*
X040117Y050118*
X040112Y050121*
X040108Y050124*
X040103Y050126*
X040097Y050129*
X040092Y050131*
X040087Y050132*
X040081Y050133*
X040076Y050134*
X04007Y050134*
X040065*
X040059Y050134*
X040054Y050133*
X040048Y050132*
X040043Y050131*
X040038Y050129*
X040032Y050126*
X040028Y050124*
X040023Y050121*
X040018Y050118*
X040014Y050114*
X04001Y05011*
X040006Y050106*
X040003Y050102*
X04Y050097*
X039997Y050092*
X039994Y050087*
X039992Y050082*
X039991Y050077*
X039989Y050071*
X039988Y050066*
X039988Y05006*
X039988Y050055*
X039988Y050049*
X039988Y050043*
X039989Y050038*
X039991Y050032*
X039992Y050027*
X039994Y050022*
X039997Y050017*
X04Y050012*
X040003Y050007*
X040006Y050003*
X04001Y049999*
X040014Y049995*
X040018Y049991*
X040023Y049988*
X040028Y049985*
X040032Y049983*
X040038Y04998*
X040043Y049978*
X040048Y049977*
X040054Y049976*
X040059Y049975*
X040065Y049975*
X04007*
X040076Y049975*
X040081Y049976*
X040087Y049977*
X040092Y049978*
X040097Y04998*
X040103Y049983*
X040108Y049985*
X040112Y049988*
X040117Y049991*
X040121Y049995*
X040125Y049999*
X040129Y050003*
X040132Y050007*
X040135Y050012*
X040138Y050017*
X040141Y050022*
X040143Y050027*
X040144Y050032*
X040146Y050038*
X040147Y050043*
X040147Y050049*
X040148Y050055*
X031148Y031055D02*
D01*
X031147Y03106*
X031147Y031066*
X031146Y031071*
X031144Y031077*
X031143Y031082*
X031141Y031087*
X031138Y031092*
X031135Y031097*
X031132Y031102*
X031129Y031106*
X031125Y03111*
X031121Y031114*
X031117Y031118*
X031112Y031121*
X031108Y031124*
X031103Y031126*
X031097Y031129*
X031092Y031131*
X031087Y031132*
X031081Y031133*
X031076Y031134*
X03107Y031134*
X031065*
X031059Y031134*
X031054Y031133*
X031048Y031132*
X031043Y031131*
X031038Y031129*
X031032Y031126*
X031028Y031124*
X031023Y031121*
X031018Y031118*
X031014Y031114*
X03101Y03111*
X031006Y031106*
X031003Y031102*
X031Y031097*
X030997Y031092*
X030994Y031087*
X030992Y031082*
X030991Y031077*
X030989Y031071*
X030988Y031066*
X030988Y03106*
X030988Y031055*
X030988Y031049*
X030988Y031043*
X030989Y031038*
X030991Y031032*
X030992Y031027*
X030994Y031022*
X030997Y031017*
X031Y031012*
X031003Y031007*
X031006Y031003*
X03101Y030999*
X031014Y030995*
X031018Y030991*
X031023Y030988*
X031028Y030985*
X031032Y030983*
X031038Y03098*
X031043Y030978*
X031048Y030977*
X031054Y030976*
X031059Y030975*
X031065Y030975*
X03107*
X031076Y030975*
X031081Y030976*
X031087Y030977*
X031092Y030978*
X031097Y03098*
X031103Y030983*
X031108Y030985*
X031112Y030988*
X031117Y030991*
X031121Y030995*
X031125Y030999*
X031129Y031003*
X031132Y031007*
X031135Y031012*
X031138Y031017*
X031141Y031022*
X031143Y031027*
X031144Y031032*
X031146Y031038*
X031147Y031043*
X031147Y031049*
X031148Y031055*
X032148D02*
D01*
X032147Y03106*
X032147Y031066*
X032146Y031071*
X032144Y031077*
X032143Y031082*
X032141Y031087*
X032138Y031092*
X032135Y031097*
X032132Y031102*
X032129Y031106*
X032125Y03111*
X032121Y031114*
X032117Y031118*
X032112Y031121*
X032108Y031124*
X032103Y031126*
X032097Y031129*
X032092Y031131*
X032087Y031132*
X032081Y031133*
X032076Y031134*
X03207Y031134*
X032065*
X032059Y031134*
X032054Y031133*
X032048Y031132*
X032043Y031131*
X032038Y031129*
X032032Y031126*
X032028Y031124*
X032023Y031121*
X032018Y031118*
X032014Y031114*
X03201Y03111*
X032006Y031106*
X032003Y031102*
X032Y031097*
X031997Y031092*
X031994Y031087*
X031992Y031082*
X031991Y031077*
X031989Y031071*
X031988Y031066*
X031988Y03106*
X031988Y031055*
X031988Y031049*
X031988Y031043*
X031989Y031038*
X031991Y031032*
X031992Y031027*
X031994Y031022*
X031997Y031017*
X032Y031012*
X032003Y031007*
X032006Y031003*
X03201Y030999*
X032014Y030995*
X032018Y030991*
X032023Y030988*
X032028Y030985*
X032032Y030983*
X032038Y03098*
X032043Y030978*
X032048Y030977*
X032054Y030976*
X032059Y030975*
X032065Y030975*
X03207*
X032076Y030975*
X032081Y030976*
X032087Y030977*
X032092Y030978*
X032097Y03098*
X032103Y030983*
X032108Y030985*
X032112Y030988*
X032117Y030991*
X032121Y030995*
X032125Y030999*
X032129Y031003*
X032132Y031007*
X032135Y031012*
X032138Y031017*
X032141Y031022*
X032143Y031027*
X032144Y031032*
X032146Y031038*
X032147Y031043*
X032147Y031049*
X032148Y031055*
X038116D02*
D01*
X038115Y03106*
X038115Y031066*
X038114Y031071*
X038112Y031077*
X038111Y031082*
X038109Y031087*
X038106Y031092*
X038103Y031097*
X0381Y031102*
X038097Y031106*
X038093Y03111*
X038089Y031114*
X038085Y031118*
X03808Y031121*
X038076Y031124*
X038071Y031126*
X038065Y031129*
X03806Y031131*
X038055Y031132*
X038049Y031133*
X038044Y031134*
X038038Y031134*
X038033*
X038027Y031134*
X038022Y031133*
X038016Y031132*
X038011Y031131*
X038006Y031129*
X038Y031126*
X037996Y031124*
X037991Y031121*
X037986Y031118*
X037982Y031114*
X037978Y03111*
X037974Y031106*
X037971Y031102*
X037968Y031097*
X037965Y031092*
X037962Y031087*
X03796Y031082*
X037959Y031077*
X037957Y031071*
X037956Y031066*
X037956Y03106*
X037956Y031055*
X037956Y031049*
X037956Y031043*
X037957Y031038*
X037959Y031032*
X03796Y031027*
X037962Y031022*
X037965Y031017*
X037968Y031012*
X037971Y031007*
X037974Y031003*
X037978Y030999*
X037982Y030995*
X037986Y030991*
X037991Y030988*
X037996Y030985*
X038Y030983*
X038006Y03098*
X038011Y030978*
X038016Y030977*
X038022Y030976*
X038027Y030975*
X038033Y030975*
X038038*
X038044Y030975*
X038049Y030976*
X038055Y030977*
X03806Y030978*
X038065Y03098*
X038071Y030983*
X038076Y030985*
X03808Y030988*
X038085Y030991*
X038089Y030995*
X038093Y030999*
X038097Y031003*
X0381Y031007*
X038103Y031012*
X038106Y031017*
X038109Y031022*
X038111Y031027*
X038112Y031032*
X038114Y031038*
X038115Y031043*
X038115Y031049*
X038116Y031055*
X037116D02*
D01*
X037115Y03106*
X037115Y031066*
X037114Y031071*
X037112Y031077*
X037111Y031082*
X037109Y031087*
X037106Y031092*
X037103Y031097*
X0371Y031102*
X037097Y031106*
X037093Y03111*
X037089Y031114*
X037085Y031118*
X03708Y031121*
X037076Y031124*
X037071Y031126*
X037065Y031129*
X03706Y031131*
X037055Y031132*
X037049Y031133*
X037044Y031134*
X037038Y031134*
X037033*
X037027Y031134*
X037022Y031133*
X037016Y031132*
X037011Y031131*
X037006Y031129*
X037Y031126*
X036996Y031124*
X036991Y031121*
X036986Y031118*
X036982Y031114*
X036978Y03111*
X036974Y031106*
X036971Y031102*
X036968Y031097*
X036965Y031092*
X036962Y031087*
X03696Y031082*
X036959Y031077*
X036957Y031071*
X036956Y031066*
X036956Y03106*
X036956Y031055*
X036956Y031049*
X036956Y031043*
X036957Y031038*
X036959Y031032*
X03696Y031027*
X036962Y031022*
X036965Y031017*
X036968Y031012*
X036971Y031007*
X036974Y031003*
X036978Y030999*
X036982Y030995*
X036986Y030991*
X036991Y030988*
X036996Y030985*
X037Y030983*
X037006Y03098*
X037011Y030978*
X037016Y030977*
X037022Y030976*
X037027Y030975*
X037033Y030975*
X037038*
X037044Y030975*
X037049Y030976*
X037055Y030977*
X03706Y030978*
X037065Y03098*
X037071Y030983*
X037076Y030985*
X03708Y030988*
X037085Y030991*
X037089Y030995*
X037093Y030999*
X037097Y031003*
X0371Y031007*
X037103Y031012*
X037106Y031017*
X037109Y031022*
X037111Y031027*
X037112Y031032*
X037114Y031038*
X037115Y031043*
X037115Y031049*
X037116Y031055*
X036148D02*
D01*
X036147Y03106*
X036147Y031066*
X036146Y031071*
X036144Y031077*
X036143Y031082*
X036141Y031087*
X036138Y031092*
X036135Y031097*
X036132Y031102*
X036129Y031106*
X036125Y03111*
X036121Y031114*
X036117Y031118*
X036112Y031121*
X036108Y031124*
X036103Y031126*
X036097Y031129*
X036092Y031131*
X036087Y031132*
X036081Y031133*
X036076Y031134*
X03607Y031134*
X036065*
X036059Y031134*
X036054Y031133*
X036048Y031132*
X036043Y031131*
X036038Y031129*
X036032Y031126*
X036028Y031124*
X036023Y031121*
X036018Y031118*
X036014Y031114*
X03601Y03111*
X036006Y031106*
X036003Y031102*
X036Y031097*
X035997Y031092*
X035994Y031087*
X035992Y031082*
X035991Y031077*
X035989Y031071*
X035988Y031066*
X035988Y03106*
X035988Y031055*
X035988Y031049*
X035988Y031043*
X035989Y031038*
X035991Y031032*
X035992Y031027*
X035994Y031022*
X035997Y031017*
X036Y031012*
X036003Y031007*
X036006Y031003*
X03601Y030999*
X036014Y030995*
X036018Y030991*
X036023Y030988*
X036028Y030985*
X036032Y030983*
X036038Y03098*
X036043Y030978*
X036048Y030977*
X036054Y030976*
X036059Y030975*
X036065Y030975*
X03607*
X036076Y030975*
X036081Y030976*
X036087Y030977*
X036092Y030978*
X036097Y03098*
X036103Y030983*
X036108Y030985*
X036112Y030988*
X036117Y030991*
X036121Y030995*
X036125Y030999*
X036129Y031003*
X036132Y031007*
X036135Y031012*
X036138Y031017*
X036141Y031022*
X036143Y031027*
X036144Y031032*
X036146Y031038*
X036147Y031043*
X036147Y031049*
X036148Y031055*
X035163D02*
D01*
X035162Y03106*
X035162Y031066*
X035161Y031071*
X035159Y031077*
X035158Y031082*
X035156Y031087*
X035153Y031092*
X03515Y031097*
X035147Y031102*
X035144Y031106*
X03514Y03111*
X035136Y031114*
X035132Y031118*
X035127Y031121*
X035123Y031124*
X035118Y031126*
X035112Y031129*
X035107Y031131*
X035102Y031132*
X035096Y031133*
X035091Y031134*
X035085Y031134*
X03508*
X035074Y031134*
X035069Y031133*
X035063Y031132*
X035058Y031131*
X035053Y031129*
X035047Y031126*
X035043Y031124*
X035038Y031121*
X035033Y031118*
X035029Y031114*
X035025Y03111*
X035021Y031106*
X035018Y031102*
X035015Y031097*
X035012Y031092*
X035009Y031087*
X035007Y031082*
X035006Y031077*
X035004Y031071*
X035003Y031066*
X035003Y03106*
X035003Y031055*
X035003Y031049*
X035003Y031043*
X035004Y031038*
X035006Y031032*
X035007Y031027*
X035009Y031022*
X035012Y031017*
X035015Y031012*
X035018Y031007*
X035021Y031003*
X035025Y030999*
X035029Y030995*
X035033Y030991*
X035038Y030988*
X035043Y030985*
X035047Y030983*
X035053Y03098*
X035058Y030978*
X035063Y030977*
X035069Y030976*
X035074Y030975*
X03508Y030975*
X035085*
X035091Y030975*
X035096Y030976*
X035102Y030977*
X035107Y030978*
X035112Y03098*
X035118Y030983*
X035123Y030985*
X035127Y030988*
X035132Y030991*
X035136Y030995*
X03514Y030999*
X035144Y031003*
X035147Y031007*
X03515Y031012*
X035153Y031017*
X035156Y031022*
X035158Y031027*
X035159Y031032*
X035161Y031038*
X035162Y031043*
X035162Y031049*
X035163Y031055*
X034148D02*
D01*
X034147Y03106*
X034147Y031066*
X034146Y031071*
X034144Y031077*
X034143Y031082*
X034141Y031087*
X034138Y031092*
X034135Y031097*
X034132Y031102*
X034129Y031106*
X034125Y03111*
X034121Y031114*
X034117Y031118*
X034112Y031121*
X034108Y031124*
X034103Y031126*
X034097Y031129*
X034092Y031131*
X034087Y031132*
X034081Y031133*
X034076Y031134*
X03407Y031134*
X034065*
X034059Y031134*
X034054Y031133*
X034048Y031132*
X034043Y031131*
X034038Y031129*
X034032Y031126*
X034028Y031124*
X034023Y031121*
X034018Y031118*
X034014Y031114*
X03401Y03111*
X034006Y031106*
X034003Y031102*
X034Y031097*
X033997Y031092*
X033994Y031087*
X033992Y031082*
X033991Y031077*
X033989Y031071*
X033988Y031066*
X033988Y03106*
X033988Y031055*
X033988Y031049*
X033988Y031043*
X033989Y031038*
X033991Y031032*
X033992Y031027*
X033994Y031022*
X033997Y031017*
X034Y031012*
X034003Y031007*
X034006Y031003*
X03401Y030999*
X034014Y030995*
X034018Y030991*
X034023Y030988*
X034028Y030985*
X034032Y030983*
X034038Y03098*
X034043Y030978*
X034048Y030977*
X034054Y030976*
X034059Y030975*
X034065Y030975*
X03407*
X034076Y030975*
X034081Y030976*
X034087Y030977*
X034092Y030978*
X034097Y03098*
X034103Y030983*
X034108Y030985*
X034112Y030988*
X034117Y030991*
X034121Y030995*
X034125Y030999*
X034129Y031003*
X034132Y031007*
X034135Y031012*
X034138Y031017*
X034141Y031022*
X034143Y031027*
X034144Y031032*
X034146Y031038*
X034147Y031043*
X034147Y031049*
X034148Y031055*
X033148D02*
D01*
X033147Y03106*
X033147Y031066*
X033146Y031071*
X033144Y031077*
X033143Y031082*
X033141Y031087*
X033138Y031092*
X033135Y031097*
X033132Y031102*
X033129Y031106*
X033125Y03111*
X033121Y031114*
X033117Y031118*
X033112Y031121*
X033108Y031124*
X033103Y031126*
X033097Y031129*
X033092Y031131*
X033087Y031132*
X033081Y031133*
X033076Y031134*
X03307Y031134*
X033065*
X033059Y031134*
X033054Y031133*
X033048Y031132*
X033043Y031131*
X033038Y031129*
X033032Y031126*
X033028Y031124*
X033023Y031121*
X033018Y031118*
X033014Y031114*
X03301Y03111*
X033006Y031106*
X033003Y031102*
X033Y031097*
X032997Y031092*
X032994Y031087*
X032992Y031082*
X032991Y031077*
X032989Y031071*
X032988Y031066*
X032988Y03106*
X032988Y031055*
X032988Y031049*
X032988Y031043*
X032989Y031038*
X032991Y031032*
X032992Y031027*
X032994Y031022*
X032997Y031017*
X033Y031012*
X033003Y031007*
X033006Y031003*
X03301Y030999*
X033014Y030995*
X033018Y030991*
X033023Y030988*
X033028Y030985*
X033032Y030983*
X033038Y03098*
X033043Y030978*
X033048Y030977*
X033054Y030976*
X033059Y030975*
X033065Y030975*
X03307*
X033076Y030975*
X033081Y030976*
X033087Y030977*
X033092Y030978*
X033097Y03098*
X033103Y030983*
X033108Y030985*
X033112Y030988*
X033117Y030991*
X033121Y030995*
X033125Y030999*
X033129Y031003*
X033132Y031007*
X033135Y031012*
X033138Y031017*
X033141Y031022*
X033143Y031027*
X033144Y031032*
X033146Y031038*
X033147Y031043*
X033147Y031049*
X033148Y031055*
X040148D02*
D01*
X040147Y03106*
X040147Y031066*
X040146Y031071*
X040144Y031077*
X040143Y031082*
X040141Y031087*
X040138Y031092*
X040135Y031097*
X040132Y031102*
X040129Y031106*
X040125Y03111*
X040121Y031114*
X040117Y031118*
X040112Y031121*
X040108Y031124*
X040103Y031126*
X040097Y031129*
X040092Y031131*
X040087Y031132*
X040081Y031133*
X040076Y031134*
X04007Y031134*
X040065*
X040059Y031134*
X040054Y031133*
X040048Y031132*
X040043Y031131*
X040038Y031129*
X040032Y031126*
X040028Y031124*
X040023Y031121*
X040018Y031118*
X040014Y031114*
X04001Y03111*
X040006Y031106*
X040003Y031102*
X04Y031097*
X039997Y031092*
X039994Y031087*
X039992Y031082*
X039991Y031077*
X039989Y031071*
X039988Y031066*
X039988Y03106*
X039988Y031055*
X039988Y031049*
X039988Y031043*
X039989Y031038*
X039991Y031032*
X039992Y031027*
X039994Y031022*
X039997Y031017*
X04Y031012*
X040003Y031007*
X040006Y031003*
X04001Y030999*
X040014Y030995*
X040018Y030991*
X040023Y030988*
X040028Y030985*
X040032Y030983*
X040038Y03098*
X040043Y030978*
X040048Y030977*
X040054Y030976*
X040059Y030975*
X040065Y030975*
X04007*
X040076Y030975*
X040081Y030976*
X040087Y030977*
X040092Y030978*
X040097Y03098*
X040103Y030983*
X040108Y030985*
X040112Y030988*
X040117Y030991*
X040121Y030995*
X040125Y030999*
X040129Y031003*
X040132Y031007*
X040135Y031012*
X040138Y031017*
X040141Y031022*
X040143Y031027*
X040144Y031032*
X040146Y031038*
X040147Y031043*
X040147Y031049*
X040148Y031055*
X041148D02*
D01*
X041147Y03106*
X041147Y031066*
X041146Y031071*
X041144Y031077*
X041143Y031082*
X041141Y031087*
X041138Y031092*
X041135Y031097*
X041132Y031102*
X041129Y031106*
X041125Y03111*
X041121Y031114*
X041117Y031118*
X041112Y031121*
X041108Y031124*
X041103Y031126*
X041097Y031129*
X041092Y031131*
X041087Y031132*
X041081Y031133*
X041076Y031134*
X04107Y031134*
X041065*
X041059Y031134*
X041054Y031133*
X041048Y031132*
X041043Y031131*
X041038Y031129*
X041032Y031126*
X041028Y031124*
X041023Y031121*
X041018Y031118*
X041014Y031114*
X04101Y03111*
X041006Y031106*
X041003Y031102*
X041Y031097*
X040997Y031092*
X040994Y031087*
X040992Y031082*
X040991Y031077*
X040989Y031071*
X040988Y031066*
X040988Y03106*
X040988Y031055*
X040988Y031049*
X040988Y031043*
X040989Y031038*
X040991Y031032*
X040992Y031027*
X040994Y031022*
X040997Y031017*
X041Y031012*
X041003Y031007*
X041006Y031003*
X04101Y030999*
X041014Y030995*
X041018Y030991*
X041023Y030988*
X041028Y030985*
X041032Y030983*
X041038Y03098*
X041043Y030978*
X041048Y030977*
X041054Y030976*
X041059Y030975*
X041065Y030975*
X04107*
X041076Y030975*
X041081Y030976*
X041087Y030977*
X041092Y030978*
X041097Y03098*
X041103Y030983*
X041108Y030985*
X041112Y030988*
X041117Y030991*
X041121Y030995*
X041125Y030999*
X041129Y031003*
X041132Y031007*
X041135Y031012*
X041138Y031017*
X041141Y031022*
X041143Y031027*
X041144Y031032*
X041146Y031038*
X041147Y031043*
X041147Y031049*
X041148Y031055*
X042163D02*
D01*
X042162Y03106*
X042162Y031066*
X042161Y031071*
X042159Y031077*
X042158Y031082*
X042156Y031087*
X042153Y031092*
X04215Y031097*
X042147Y031102*
X042144Y031106*
X04214Y03111*
X042136Y031114*
X042132Y031118*
X042127Y031121*
X042123Y031124*
X042118Y031126*
X042112Y031129*
X042107Y031131*
X042102Y031132*
X042096Y031133*
X042091Y031134*
X042085Y031134*
X04208*
X042074Y031134*
X042069Y031133*
X042063Y031132*
X042058Y031131*
X042053Y031129*
X042047Y031126*
X042043Y031124*
X042038Y031121*
X042033Y031118*
X042029Y031114*
X042025Y03111*
X042021Y031106*
X042018Y031102*
X042015Y031097*
X042012Y031092*
X042009Y031087*
X042007Y031082*
X042006Y031077*
X042004Y031071*
X042003Y031066*
X042003Y03106*
X042003Y031055*
X042003Y031049*
X042003Y031043*
X042004Y031038*
X042006Y031032*
X042007Y031027*
X042009Y031022*
X042012Y031017*
X042015Y031012*
X042018Y031007*
X042021Y031003*
X042025Y030999*
X042029Y030995*
X042033Y030991*
X042038Y030988*
X042043Y030985*
X042047Y030983*
X042053Y03098*
X042058Y030978*
X042063Y030977*
X042069Y030976*
X042074Y030975*
X04208Y030975*
X042085*
X042091Y030975*
X042096Y030976*
X042102Y030977*
X042107Y030978*
X042112Y03098*
X042118Y030983*
X042123Y030985*
X042127Y030988*
X042132Y030991*
X042136Y030995*
X04214Y030999*
X042144Y031003*
X042147Y031007*
X04215Y031012*
X042153Y031017*
X042156Y031022*
X042158Y031027*
X042159Y031032*
X042161Y031038*
X042162Y031043*
X042162Y031049*
X042163Y031055*
X043148D02*
D01*
X043147Y03106*
X043147Y031066*
X043146Y031071*
X043144Y031077*
X043143Y031082*
X043141Y031087*
X043138Y031092*
X043135Y031097*
X043132Y031102*
X043129Y031106*
X043125Y03111*
X043121Y031114*
X043117Y031118*
X043112Y031121*
X043108Y031124*
X043103Y031126*
X043097Y031129*
X043092Y031131*
X043087Y031132*
X043081Y031133*
X043076Y031134*
X04307Y031134*
X043065*
X043059Y031134*
X043054Y031133*
X043048Y031132*
X043043Y031131*
X043038Y031129*
X043032Y031126*
X043028Y031124*
X043023Y031121*
X043018Y031118*
X043014Y031114*
X04301Y03111*
X043006Y031106*
X043003Y031102*
X043Y031097*
X042997Y031092*
X042994Y031087*
X042992Y031082*
X042991Y031077*
X042989Y031071*
X042988Y031066*
X042988Y03106*
X042988Y031055*
X042988Y031049*
X042988Y031043*
X042989Y031038*
X042991Y031032*
X042992Y031027*
X042994Y031022*
X042997Y031017*
X043Y031012*
X043003Y031007*
X043006Y031003*
X04301Y030999*
X043014Y030995*
X043018Y030991*
X043023Y030988*
X043028Y030985*
X043032Y030983*
X043038Y03098*
X043043Y030978*
X043048Y030977*
X043054Y030976*
X043059Y030975*
X043065Y030975*
X04307*
X043076Y030975*
X043081Y030976*
X043087Y030977*
X043092Y030978*
X043097Y03098*
X043103Y030983*
X043108Y030985*
X043112Y030988*
X043117Y030991*
X043121Y030995*
X043125Y030999*
X043129Y031003*
X043132Y031007*
X043135Y031012*
X043138Y031017*
X043141Y031022*
X043143Y031027*
X043144Y031032*
X043146Y031038*
X043147Y031043*
X043147Y031049*
X043148Y031055*
X044116D02*
D01*
X044115Y03106*
X044115Y031066*
X044114Y031071*
X044112Y031077*
X044111Y031082*
X044109Y031087*
X044106Y031092*
X044103Y031097*
X0441Y031102*
X044097Y031106*
X044093Y03111*
X044089Y031114*
X044085Y031118*
X04408Y031121*
X044076Y031124*
X044071Y031126*
X044065Y031129*
X04406Y031131*
X044055Y031132*
X044049Y031133*
X044044Y031134*
X044038Y031134*
X044033*
X044027Y031134*
X044022Y031133*
X044016Y031132*
X044011Y031131*
X044006Y031129*
X044Y031126*
X043996Y031124*
X043991Y031121*
X043986Y031118*
X043982Y031114*
X043978Y03111*
X043974Y031106*
X043971Y031102*
X043968Y031097*
X043965Y031092*
X043962Y031087*
X04396Y031082*
X043959Y031077*
X043957Y031071*
X043956Y031066*
X043956Y03106*
X043956Y031055*
X043956Y031049*
X043956Y031043*
X043957Y031038*
X043959Y031032*
X04396Y031027*
X043962Y031022*
X043965Y031017*
X043968Y031012*
X043971Y031007*
X043974Y031003*
X043978Y030999*
X043982Y030995*
X043986Y030991*
X043991Y030988*
X043996Y030985*
X044Y030983*
X044006Y03098*
X044011Y030978*
X044016Y030977*
X044022Y030976*
X044027Y030975*
X044033Y030975*
X044038*
X044044Y030975*
X044049Y030976*
X044055Y030977*
X04406Y030978*
X044065Y03098*
X044071Y030983*
X044076Y030985*
X04408Y030988*
X044085Y030991*
X044089Y030995*
X044093Y030999*
X044097Y031003*
X0441Y031007*
X044103Y031012*
X044106Y031017*
X044109Y031022*
X044111Y031027*
X044112Y031032*
X044114Y031038*
X044115Y031043*
X044115Y031049*
X044116Y031055*
X045116D02*
D01*
X045115Y03106*
X045115Y031066*
X045114Y031071*
X045112Y031077*
X045111Y031082*
X045109Y031087*
X045106Y031092*
X045103Y031097*
X0451Y031102*
X045097Y031106*
X045093Y03111*
X045089Y031114*
X045085Y031118*
X04508Y031121*
X045076Y031124*
X045071Y031126*
X045065Y031129*
X04506Y031131*
X045055Y031132*
X045049Y031133*
X045044Y031134*
X045038Y031134*
X045033*
X045027Y031134*
X045022Y031133*
X045016Y031132*
X045011Y031131*
X045006Y031129*
X045Y031126*
X044996Y031124*
X044991Y031121*
X044986Y031118*
X044982Y031114*
X044978Y03111*
X044974Y031106*
X044971Y031102*
X044968Y031097*
X044965Y031092*
X044962Y031087*
X04496Y031082*
X044959Y031077*
X044957Y031071*
X044956Y031066*
X044956Y03106*
X044956Y031055*
X044956Y031049*
X044956Y031043*
X044957Y031038*
X044959Y031032*
X04496Y031027*
X044962Y031022*
X044965Y031017*
X044968Y031012*
X044971Y031007*
X044974Y031003*
X044978Y030999*
X044982Y030995*
X044986Y030991*
X044991Y030988*
X044996Y030985*
X045Y030983*
X045006Y03098*
X045011Y030978*
X045016Y030977*
X045022Y030976*
X045027Y030975*
X045033Y030975*
X045038*
X045044Y030975*
X045049Y030976*
X045055Y030977*
X04506Y030978*
X045065Y03098*
X045071Y030983*
X045076Y030985*
X04508Y030988*
X045085Y030991*
X045089Y030995*
X045093Y030999*
X045097Y031003*
X0451Y031007*
X045103Y031012*
X045106Y031017*
X045109Y031022*
X045111Y031027*
X045112Y031032*
X045114Y031038*
X045115Y031043*
X045115Y031049*
X045116Y031055*
M02*