%FSTAX24Y24*%
%MOIN*%
%SFA1B1*%

%IPPOS*%
%AMD115*
4,1,8,0.016700,0.070800,-0.016700,0.070800,-0.035400,0.052100,-0.035400,-0.052100,-0.016700,-0.070800,0.016700,-0.070800,0.035400,-0.052100,0.035400,0.052100,0.016700,0.070800,0.0*
1,1,0.037400,0.016700,0.052100*
1,1,0.037400,-0.016700,0.052100*
1,1,0.037400,-0.016700,-0.052100*
1,1,0.037400,0.016700,-0.052100*
%
%AMD116*
4,1,8,0.070800,-0.016700,0.070800,0.016700,0.052100,0.035400,-0.052100,0.035400,-0.070800,0.016700,-0.070800,-0.016700,-0.052100,-0.035400,0.052100,-0.035400,0.070800,-0.016700,0.0*
1,1,0.037400,0.052100,-0.016700*
1,1,0.037400,0.052100,0.016700*
1,1,0.037400,-0.052100,0.016700*
1,1,0.037400,-0.052100,-0.016700*
%
%ADD44C,0.031500*%
%ADD89R,0.043300X0.041100*%
%ADD90R,0.043300X0.041200*%
%ADD91R,0.031500X0.015700*%
%ADD92R,0.033500X0.035400*%
%ADD93R,0.019700X0.011800*%
%ADD94R,0.023600X0.023600*%
%ADD95R,0.041100X0.043300*%
%ADD96R,0.041200X0.043300*%
%ADD97R,0.015700X0.031500*%
%ADD98R,0.153900X0.053900*%
%ADD99R,0.055100X0.065000*%
%ADD100R,0.051200X0.102400*%
%ADD101O,0.070900X0.015700*%
%ADD102R,0.055100X0.063000*%
%ADD103R,0.035400X0.033500*%
%ADD104R,0.082700X0.047200*%
%ADD105R,0.035400X0.035400*%
%ADD106R,0.039400X0.031500*%
%ADD107C,0.043300*%
%ADD108R,0.035400X0.035400*%
%ADD109R,0.047200X0.082700*%
%ADD110R,0.043900X0.033900*%
%ADD111R,0.063000X0.055100*%
%ADD112C,0.055100*%
%ADD113C,0.082700*%
%ADD114R,0.082700X0.082700*%
G04~CAMADD=115~8~0.0~0.0~709.0~1417.0~187.0~0.0~15~0.0~0.0~0.0~0.0~0~0.0~0.0~0.0~0.0~0~0.0~0.0~0.0~0.0~709.0~1417.0*
%ADD115D115*%
G04~CAMADD=116~8~0.0~0.0~709.0~1417.0~187.0~0.0~15~0.0~0.0~0.0~0.0~0~0.0~0.0~0.0~0.0~0~0.0~0.0~0.0~270.0~1416.0~708.0*
%ADD116D116*%
%ADD117C,0.035400*%
%LNvapeixshield-1*%
%LPD*%
G54D44*
X033341Y03953D03*
X032652D03*
X031963Y03889D03*
X03176Y03807D03*
X033301Y040178D03*
X032976Y039894D03*
X033017Y041145D03*
X032246Y042044D03*
X031638Y04107D03*
X031679Y039205D03*
X032814Y042084D03*
X031963Y041483D03*
Y040178D03*
X031557Y042733D03*
X032044Y04322D03*
X031939Y043608D03*
X033301Y042328D03*
X030503Y038354D03*
X030341Y039408D03*
X026975Y046667D03*
X028191Y04545D03*
X041289Y032879D03*
X032936Y034704D03*
X040073Y033731D03*
X040924Y037907D03*
X038654Y036295D03*
X039237Y035318D03*
X04356Y040057D03*
X041452D03*
X046485Y04256D03*
X046491Y041562D03*
X043567Y041055D03*
X043572Y042055D03*
X027056Y038394D03*
X030422Y04545D03*
X030728Y048697D03*
X029246Y049059D03*
X030746Y032616D03*
X028354Y045937D03*
X031585Y033558D03*
X030665Y037664D03*
X028678Y032433D03*
X035514Y038836D03*
Y041047D03*
X046491Y040492D03*
X032431Y03643D03*
X030613Y034096D03*
X028272Y033609D03*
X029651Y033244D03*
X02975Y037604D03*
Y038195D03*
Y040321D03*
Y041187D03*
Y042368D03*
Y043313D03*
Y044494D03*
X028101Y037739D03*
Y039864D03*
Y041995D03*
Y044121D03*
X026691Y045637D03*
X030219Y037867D03*
X032368Y047964D03*
X032084Y04695D03*
X034193Y047721D03*
X034923Y045085D03*
X032895Y047072D03*
X036342Y045004D03*
X031598Y040624D03*
X044452Y044639D03*
G54D89*
X031047Y043735D03*
Y038748D03*
X032473Y040636D03*
X033575Y045826D03*
G54D90*
X031047Y043225D03*
Y038237D03*
X032473Y041146D03*
X033575Y046337D03*
G54D91*
X031557Y043098D03*
Y043353D03*
Y043864D03*
Y043608D03*
X030832D03*
Y043864D03*
Y043353D03*
Y043098D03*
X031557Y03811D03*
Y038365D03*
Y038876D03*
Y03862D03*
X030832D03*
Y038876D03*
Y038365D03*
Y03811D03*
X031963Y041273D03*
Y041018D03*
Y040507D03*
Y040763D03*
X032688D03*
Y040507D03*
Y041018D03*
Y041273D03*
X033065Y046464D03*
Y046209D03*
Y045698D03*
Y045954D03*
X03379D03*
Y045698D03*
Y046209D03*
Y046464D03*
G54D92*
X033688Y047843D03*
X033157D03*
X028858Y045653D03*
X02939D03*
X030926Y047478D03*
X031458D03*
X027131Y045637D03*
X027663D03*
X028858Y046545D03*
X02939D03*
X033868Y041736D03*
X0344D03*
X033868Y042326D03*
X0344D03*
X033868Y041145D03*
X0344D03*
X033868Y03957D03*
X0344D03*
X033868Y040161D03*
X0344D03*
X033868Y03898D03*
X0344D03*
X029432Y037014D03*
X0289D03*
X029432Y037604D03*
X0289D03*
X029432Y03914D03*
X0289D03*
X029432Y038195D03*
X0289D03*
X029432Y03973D03*
X0289D03*
X029432Y040321D03*
X0289D03*
X029432Y041187D03*
X0289D03*
X029432Y041778D03*
X0289D03*
X029432Y042368D03*
X0289D03*
X029432Y043904D03*
X0289D03*
X029432Y043313D03*
X0289D03*
X029432Y044494D03*
X0289D03*
X030025Y033899D03*
X029493D03*
X029207Y032915D03*
X028675D03*
X031174Y036083D03*
X030643D03*
X032431D03*
X0319D03*
X042078Y035038D03*
X041547D03*
X042202Y032879D03*
X041671D03*
G54D93*
X030457Y032616D03*
Y032776D03*
X030027Y033093D03*
Y032933D03*
G54D94*
X03015Y032694D03*
X030313Y033021D03*
G54D95*
X030278Y03504D03*
G54D96*
X029768Y03504D03*
G54D97*
X029641Y03453D03*
X029896D03*
X030407D03*
X030151D03*
Y035255D03*
X030407D03*
X029896D03*
X029641D03*
G54D98*
X046491Y040055D03*
X044741D03*
X046491Y041055D03*
X044741D03*
X046491Y042055D03*
X044741D03*
G54D99*
X042816Y041035D03*
Y044165D03*
X041045D03*
Y041035D03*
X039451D03*
Y044165D03*
X03768D03*
Y041035D03*
G54D100*
X022147Y047853D03*
X024116D03*
X023131D03*
Y050019D03*
X024116D03*
X022147D03*
G54D101*
X032037Y045769D03*
Y045965D03*
Y046162D03*
Y046359D03*
Y046556D03*
X030422Y045769D03*
Y045965D03*
Y046162D03*
Y046359D03*
Y046556D03*
G54D102*
X02887Y04764D03*
X02954D03*
G54D103*
X027421Y047784D03*
Y047252D03*
X031138Y034921D03*
Y034389D03*
Y033044D03*
Y033575D03*
X03249Y047541D03*
Y047009D03*
X039237Y037472D03*
Y038004D03*
Y036295D03*
Y035764D03*
G54D104*
X031476Y048207D03*
X042071Y037892D03*
G54D105*
X030728Y048207D03*
X041323Y037892D03*
G54D106*
X027788Y039864D03*
Y039471D03*
X027198Y039864D03*
Y039471D03*
X027788Y041995D03*
Y041602D03*
X027198Y041995D03*
Y041602D03*
X027788Y037739D03*
Y037346D03*
X027198Y037739D03*
Y037346D03*
X027788Y044121D03*
Y043728D03*
X027198Y044121D03*
Y043728D03*
X035514Y041442D03*
Y041835D03*
X036105Y041442D03*
Y041835D03*
X035514Y039231D03*
Y039624D03*
X036105Y039231D03*
Y039624D03*
G54D107*
X031101Y037124D03*
X031019Y041767D03*
Y040083D03*
X027552Y035323D03*
Y032909D03*
Y034136D03*
X032095Y033558D03*
X032085Y034374D03*
Y035202D03*
Y032758D03*
G54D108*
X028733Y035081D03*
X037932Y033913D03*
G54D109*
X028733Y034333D03*
X037932Y033165D03*
G54D110*
X038445Y037103D03*
X037619Y036729D03*
Y037477D03*
X04137Y036671D03*
X042196Y037045D03*
Y036297D03*
G54D111*
X038936Y033033D03*
Y033703D03*
G54D112*
X044777Y035946D03*
Y036733D03*
Y035158D03*
Y034371D03*
X022799Y040841D03*
Y040054D03*
X022809Y037372D03*
Y036585D03*
X022768Y045831D03*
Y045043D03*
Y043468D03*
Y044256D03*
G54D113*
X031468Y050055D03*
X032468D03*
X033483D03*
X034468D03*
X035436D03*
X030468D03*
X029468D03*
X028468D03*
X027468D03*
X038068D03*
X039068D03*
X044036D03*
X043068D03*
X042083D03*
X041068D03*
X040068D03*
X031068Y031055D03*
X032068D03*
X037036D03*
X036068D03*
X035083D03*
X034068D03*
X033068D03*
X040068D03*
X041068D03*
X042083D03*
X043068D03*
X044036D03*
G54D114*
X036436Y050055D03*
X045036D03*
X038036Y031055D03*
X045036D03*
G54D115*
X021857Y032972D03*
X024219D03*
G54D116*
X023038Y031083D03*
G54D117*
X025393Y036326D03*
M02*