%FSTAX24Y24*%
%MOIN*%
%SFA1B1*%

%IPPOS*%
%ADD59R,0.019300X0.016900*%
%ADD60R,0.028300X0.028300*%
%ADD61R,0.008000X0.025700*%
%ADD62R,0.029600X0.031600*%
%ADD63R,0.015800X0.008000*%
%ADD64R,0.019800X0.019800*%
%ADD65R,0.037300X0.039400*%
%ADD66R,0.037400X0.039400*%
%ADD67R,0.011900X0.027600*%
%ADD68R,0.039400X0.037300*%
%ADD69R,0.039400X0.037400*%
%ADD70R,0.027600X0.011900*%
%ADD71R,0.031600X0.029600*%
%ADD72R,0.150100X0.050100*%
%ADD73R,0.061100X0.051300*%
%ADD74R,0.047300X0.098500*%
%ADD75O,0.067000X0.011900*%
%ADD76R,0.051300X0.059100*%
%ADD77R,0.078800X0.043400*%
%ADD78R,0.031600X0.031600*%
%ADD79R,0.035500X0.027600*%
%ADD80R,0.031600X0.031600*%
%ADD81R,0.043400X0.078800*%
%LNvapeixshield-1*%
%LPD*%
G54D59*
X020461Y013344D03*
G54D60*
X020365Y013441D03*
G54D61*
X020656Y013881D03*
X020459D03*
X020262D03*
X020065D03*
X020656Y013D03*
X020459D03*
X020262D03*
X020065D03*
G54D62*
X013567Y017843D03*
X013035D03*
X020537Y012125D03*
X021069D03*
X008858Y015653D03*
X00939D03*
X010926Y017478D03*
X011458D03*
X007131Y015637D03*
X007663D03*
X008858Y016545D03*
X00939D03*
X013625Y011736D03*
X014156D03*
X013625Y012326D03*
X014156D03*
X013625Y011145D03*
X014156D03*
X013625Y00957D03*
X014156D03*
X013625Y010161D03*
X014156D03*
X013625Y00898D03*
X014156D03*
X009432Y007014D03*
X0089D03*
X009432Y007604D03*
X0089D03*
X009432Y00914D03*
X0089D03*
X009432Y008195D03*
X0089D03*
X009432Y00973D03*
X0089D03*
X009432Y010321D03*
X0089D03*
X009432Y011187D03*
X0089D03*
X009432Y011778D03*
X0089D03*
X009432Y012368D03*
X0089D03*
X009432Y013904D03*
X0089D03*
X009432Y013313D03*
X0089D03*
X009432Y014494D03*
X0089D03*
X010025Y003899D03*
X009493D03*
X009207Y002915D03*
X008675D03*
X011174Y006083D03*
X010643D03*
X012431D03*
X0119D03*
G54D63*
X010457Y002616D03*
Y002776D03*
X010027Y003093D03*
Y002933D03*
G54D64*
X01015Y002694D03*
X010313Y003021D03*
G54D65*
X010278Y00504D03*
G54D66*
X009768Y00504D03*
G54D67*
X009641Y00453D03*
X009896D03*
X010407D03*
X010151D03*
Y005255D03*
X010407D03*
X009896D03*
X009641D03*
G54D68*
X013575Y015826D03*
X011175Y008177D03*
X012079Y011118D03*
X011175Y013229D03*
G54D69*
X013575Y016337D03*
X011175Y008687D03*
X012079Y010608D03*
X011175Y013739D03*
G54D70*
X013065Y016464D03*
Y016209D03*
Y015698D03*
Y015954D03*
X01379D03*
Y015698D03*
Y016209D03*
Y016464D03*
X010665Y008814D03*
Y008559D03*
Y008048D03*
Y008304D03*
X01139D03*
Y008048D03*
Y008559D03*
Y008814D03*
X012589Y010481D03*
Y010736D03*
Y011247D03*
Y010991D03*
X011864D03*
Y011247D03*
Y010736D03*
Y010481D03*
X010665Y013867D03*
Y013612D03*
Y013101D03*
Y013357D03*
X01139D03*
Y013101D03*
Y013612D03*
Y013867D03*
G54D71*
X019059Y013441D03*
Y013972D03*
X021654Y013404D03*
Y012873D03*
X007671Y017282D03*
Y017814D03*
X007041D03*
Y017282D03*
X011138Y004921D03*
Y004389D03*
Y003044D03*
Y003575D03*
X022425Y013404D03*
Y012873D03*
G54D72*
X026491Y010055D03*
X024741D03*
X026491Y011055D03*
X024741D03*
X026491Y012055D03*
X024741D03*
G54D73*
X020212Y00297D03*
X023342D03*
Y004742D03*
X020212D03*
X0202Y006734D03*
X02333D03*
Y008506D03*
X0202D03*
X015133Y002964D03*
X018263D03*
Y004736D03*
X015133D03*
G54D74*
X002147Y017853D03*
X004116D03*
X003131D03*
Y020019D03*
X004116D03*
X002147D03*
G54D75*
X012037Y015769D03*
Y015965D03*
Y016162D03*
Y016359D03*
Y016556D03*
X010422Y015769D03*
Y015965D03*
Y016162D03*
Y016359D03*
Y016556D03*
G54D76*
X00887Y01764D03*
X00954D03*
G54D77*
X011476Y018207D03*
G54D78*
X010728Y018207D03*
G54D79*
X007788Y009864D03*
Y009471D03*
X007198Y009864D03*
Y009471D03*
X007788Y011995D03*
Y011602D03*
X007198Y011995D03*
Y011602D03*
X007788Y007739D03*
Y007346D03*
X007198Y007739D03*
Y007346D03*
X007788Y014121D03*
Y013728D03*
X007198Y014121D03*
Y013728D03*
X01519Y011442D03*
Y011835D03*
X01578Y011442D03*
Y011835D03*
X01519Y009231D03*
Y009624D03*
X01578Y009231D03*
Y009624D03*
G54D80*
X008733Y005081D03*
G54D81*
X008733Y004333D03*
M02*