%FSTAX24Y24*%
%MOIN*%
%SFA1B1*%

%IPPOS*%
%AMD108*
4,1,8,0.016700,0.070800,-0.016700,0.070800,-0.035400,0.052100,-0.035400,-0.052100,-0.016700,-0.070800,0.016700,-0.070800,0.035400,-0.052100,0.035400,0.052100,0.016700,0.070800,0.0*
1,1,0.037400,0.016700,0.052100*
1,1,0.037400,-0.016700,0.052100*
1,1,0.037400,-0.016700,-0.052100*
1,1,0.037400,0.016700,-0.052100*
%
%AMD109*
4,1,8,0.070800,-0.016700,0.070800,0.016700,0.052100,0.035400,-0.052100,0.035400,-0.070800,0.016700,-0.070800,-0.016700,-0.052100,-0.035400,0.052100,-0.035400,0.070800,-0.016700,0.0*
1,1,0.037400,0.052100,-0.016700*
1,1,0.037400,0.052100,0.016700*
1,1,0.037400,-0.052100,0.016700*
1,1,0.037400,-0.052100,-0.016700*
%
%ADD39C,0.031500*%
%ADD82R,0.011800X0.029500*%
%ADD83R,0.033500X0.035400*%
%ADD84R,0.019700X0.011800*%
%ADD85R,0.023600X0.023600*%
%ADD86R,0.041100X0.043300*%
%ADD87R,0.041200X0.043300*%
%ADD88R,0.015700X0.031500*%
%ADD89R,0.043300X0.041100*%
%ADD90R,0.043300X0.041200*%
%ADD91R,0.031500X0.015700*%
%ADD92R,0.035400X0.033500*%
%ADD93R,0.153900X0.053900*%
%ADD94R,0.065000X0.055100*%
%ADD95R,0.051200X0.102400*%
%ADD96O,0.070900X0.015700*%
%ADD97R,0.055100X0.063000*%
%ADD98R,0.082700X0.047200*%
%ADD99R,0.035400X0.035400*%
%ADD100R,0.039400X0.031500*%
%ADD101C,0.043300*%
%ADD102R,0.035400X0.035400*%
%ADD103R,0.047200X0.082700*%
%ADD104C,0.035400*%
%ADD105C,0.055100*%
%ADD106C,0.082700*%
%ADD107R,0.082700X0.082700*%
G04~CAMADD=108~8~0.0~0.0~709.0~1417.0~187.0~0.0~15~0.0~0.0~0.0~0.0~0~0.0~0.0~0.0~0.0~0~0.0~0.0~0.0~0.0~709.0~1417.0*
%ADD108D108*%
G04~CAMADD=109~8~0.0~0.0~709.0~1417.0~187.0~0.0~15~0.0~0.0~0.0~0.0~0~0.0~0.0~0.0~0.0~0~0.0~0.0~0.0~270.0~1416.0~708.0*
%ADD109D109*%
%LNvapeixshield-1*%
%LPD*%
G54D39*
X021817Y013909D03*
X02356Y010057D03*
X021452D03*
X016788Y015409D03*
X025142Y013625D03*
Y015085D03*
X024615Y015126D03*
X019546Y014274D03*
X021208Y014284D03*
X020951Y01399D03*
X016788Y014112D03*
X017153Y013139D03*
X010097Y009408D03*
X023804Y012958D03*
X026485Y01256D03*
X026491Y011562D03*
X023567Y011055D03*
X023572Y012055D03*
X007056Y008394D03*
X010138Y007867D03*
X013065Y015328D03*
X010422Y01545D03*
X011435Y015288D03*
X010728Y018697D03*
X009246Y019059D03*
X023317Y005474D03*
X014031Y017721D03*
X012571Y015328D03*
X013194Y010835D03*
Y011736D03*
X010746Y002616D03*
X008354Y015937D03*
X013666Y014112D03*
X008435Y018491D03*
X011111Y015896D03*
X011585Y003558D03*
X010665Y007664D03*
X011192Y006529D03*
X008678Y002433D03*
X021817Y003893D03*
X011864Y009733D03*
X01519Y008836D03*
Y011047D03*
X026491Y010492D03*
X012431Y00643D03*
X010613Y004096D03*
X008272Y003609D03*
X010665Y009205D03*
X009651Y003244D03*
X00975Y007604D03*
Y008195D03*
Y010321D03*
Y011187D03*
Y012368D03*
Y013313D03*
Y014494D03*
X008101Y007739D03*
Y009864D03*
Y011995D03*
Y014121D03*
X006691Y015637D03*
X016626Y006894D03*
X019059Y012976D03*
X018248Y011719D03*
G54D82*
X020656Y013881D03*
X020459D03*
X020262D03*
X020065D03*
X020656Y013D03*
X020459D03*
X020262D03*
X020065D03*
G54D83*
X013567Y017843D03*
X013035D03*
X020537Y012125D03*
X021069D03*
X008858Y015653D03*
X00939D03*
X010926Y017478D03*
X011458D03*
X007131Y015637D03*
X007663D03*
X008858Y016545D03*
X00939D03*
X013625Y011736D03*
X014156D03*
X013625Y012326D03*
X014156D03*
X013625Y011145D03*
X014156D03*
X013625Y00957D03*
X014156D03*
X013625Y010161D03*
X014156D03*
X013625Y00898D03*
X014156D03*
X009432Y007014D03*
X0089D03*
X009432Y007604D03*
X0089D03*
X009432Y00914D03*
X0089D03*
X009432Y008195D03*
X0089D03*
X009432Y00973D03*
X0089D03*
X009432Y010321D03*
X0089D03*
X009432Y011187D03*
X0089D03*
X009432Y011778D03*
X0089D03*
X009432Y012368D03*
X0089D03*
X009432Y013904D03*
X0089D03*
X009432Y013313D03*
X0089D03*
X009432Y014494D03*
X0089D03*
X010025Y003899D03*
X009493D03*
X009207Y002915D03*
X008675D03*
X011174Y006083D03*
X010643D03*
X012431D03*
X0119D03*
G54D84*
X010457Y002616D03*
Y002776D03*
X010027Y003093D03*
Y002933D03*
G54D85*
X01015Y002694D03*
X010313Y003021D03*
G54D86*
X010278Y00504D03*
G54D87*
X009768Y00504D03*
G54D88*
X009641Y00453D03*
X009896D03*
X010407D03*
X010151D03*
Y005255D03*
X010407D03*
X009896D03*
X009641D03*
G54D89*
X013575Y015826D03*
X011175Y008177D03*
X012079Y011118D03*
X011175Y013229D03*
G54D90*
X013575Y016337D03*
X011175Y008687D03*
X012079Y010608D03*
X011175Y013739D03*
G54D91*
X013065Y016464D03*
Y016209D03*
Y015698D03*
Y015954D03*
X01379D03*
Y015698D03*
Y016209D03*
Y016464D03*
X010665Y008814D03*
Y008559D03*
Y008048D03*
Y008304D03*
X01139D03*
Y008048D03*
Y008559D03*
Y008814D03*
X012589Y010481D03*
Y010736D03*
Y011247D03*
Y010991D03*
X011864D03*
Y011247D03*
Y010736D03*
Y010481D03*
X010665Y013867D03*
Y013612D03*
Y013101D03*
Y013357D03*
X01139D03*
Y013101D03*
Y013612D03*
Y013867D03*
G54D92*
X019059Y013441D03*
Y013972D03*
X021654Y013404D03*
Y012873D03*
X007671Y017282D03*
Y017814D03*
X007041D03*
Y017282D03*
X011138Y004921D03*
Y004389D03*
Y003044D03*
Y003575D03*
X022425Y013404D03*
Y012873D03*
G54D93*
X026491Y010055D03*
X024741D03*
X026491Y011055D03*
X024741D03*
X026491Y012055D03*
X024741D03*
G54D94*
X020212Y00297D03*
X023342D03*
Y004742D03*
X020212D03*
X0202Y006734D03*
X02333D03*
Y008506D03*
X0202D03*
X015133Y002964D03*
X018263D03*
Y004736D03*
X015133D03*
G54D95*
X002147Y017853D03*
X004116D03*
X003131D03*
Y020019D03*
X004116D03*
X002147D03*
G54D96*
X012037Y015769D03*
Y015965D03*
Y016162D03*
Y016359D03*
Y016556D03*
X010422Y015769D03*
Y015965D03*
Y016162D03*
Y016359D03*
Y016556D03*
G54D97*
X00887Y01764D03*
X00954D03*
G54D98*
X011476Y018207D03*
G54D99*
X010728Y018207D03*
G54D100*
X007788Y009864D03*
Y009471D03*
X007198Y009864D03*
Y009471D03*
X007788Y011995D03*
Y011602D03*
X007198Y011995D03*
Y011602D03*
X007788Y007739D03*
Y007346D03*
X007198Y007739D03*
Y007346D03*
X007788Y014121D03*
Y013728D03*
X007198Y014121D03*
Y013728D03*
X01519Y011442D03*
Y011835D03*
X01578Y011442D03*
Y011835D03*
X01519Y009231D03*
Y009624D03*
X01578Y009231D03*
Y009624D03*
G54D101*
X011101Y007124D03*
X011019Y011767D03*
Y010083D03*
X007552Y005323D03*
Y002909D03*
Y004136D03*
X012095Y003558D03*
X012085Y004374D03*
Y005202D03*
Y002758D03*
G54D102*
X008733Y005081D03*
G54D103*
X008733Y004333D03*
G54D104*
X021857Y010868D03*
Y01134D03*
X012855Y010161D03*
Y00957D03*
X022465Y008516D03*
X005393Y006326D03*
G54D105*
X024777Y005946D03*
Y006733D03*
Y005158D03*
Y004371D03*
X002799Y010841D03*
Y010054D03*
X002809Y007372D03*
Y006585D03*
X002768Y015831D03*
Y015043D03*
Y013469D03*
Y014256D03*
G54D106*
X011468Y020055D03*
X012468D03*
X013483D03*
X014468D03*
X015436D03*
X010468D03*
X009468D03*
X008468D03*
X007468D03*
X018068D03*
X019068D03*
X024036D03*
X023068D03*
X022083D03*
X021068D03*
X020068D03*
X011068Y001055D03*
X012068D03*
X017036D03*
X016068D03*
X015083D03*
X014068D03*
X013068D03*
X020068D03*
X021068D03*
X022083D03*
X023068D03*
X024036D03*
G54D107*
X016436Y020055D03*
X025036D03*
X018036Y001055D03*
X025036D03*
G54D108*
X001857Y002972D03*
X004219D03*
G54D109*
X003038Y001083D03*
M02*