%FSTAX24Y24*%
%MOIN*%
%SFA1B1*%

%IPPOS*%
%ADD58R,0.015800X0.008000*%
%ADD59R,0.019800X0.019800*%
%ADD60R,0.037300X0.039400*%
%ADD61R,0.037400X0.039400*%
%ADD62R,0.011900X0.027600*%
%ADD63R,0.039400X0.037300*%
%ADD64R,0.039400X0.037400*%
%ADD65R,0.027600X0.011900*%
%ADD66R,0.031600X0.029600*%
%ADD67R,0.029600X0.031600*%
%ADD68R,0.150100X0.050100*%
%ADD69R,0.061100X0.051300*%
%ADD70R,0.047300X0.098500*%
%ADD71O,0.090600X0.023700*%
%ADD72O,0.067000X0.011900*%
%ADD73R,0.051300X0.059100*%
%ADD74R,0.078800X0.043400*%
%ADD75R,0.031600X0.031600*%
%ADD76R,0.035500X0.027600*%
%ADD77R,0.031600X0.031600*%
%ADD78R,0.043400X0.078800*%
%LNvapeixshield-1*%
%LPD*%
G54D58*
X030457Y032616D03*
Y032776D03*
X030027Y033093D03*
Y032933D03*
G54D59*
X03015Y032694D03*
X030313Y033021D03*
G54D60*
X030278Y03504D03*
G54D61*
X029768Y03504D03*
G54D62*
X029641Y03453D03*
X029896D03*
X030407D03*
X030151D03*
Y035255D03*
X030407D03*
X029896D03*
X029641D03*
G54D63*
X033575Y045826D03*
X031175Y038177D03*
X032079Y041118D03*
X031175Y043229D03*
G54D64*
X033575Y046337D03*
X031175Y038687D03*
X032079Y040608D03*
X031175Y043739D03*
G54D65*
X033065Y046464D03*
Y046209D03*
Y045698D03*
Y045954D03*
X03379D03*
Y045698D03*
Y046209D03*
Y046464D03*
X030665Y038814D03*
Y038559D03*
Y038048D03*
Y038304D03*
X03139D03*
Y038048D03*
Y038559D03*
Y038814D03*
X032589Y040481D03*
Y040736D03*
Y041247D03*
Y040991D03*
X031864D03*
Y041247D03*
Y040736D03*
Y040481D03*
X030665Y043867D03*
Y043612D03*
Y043101D03*
Y043357D03*
X03139D03*
Y043101D03*
Y043612D03*
Y043867D03*
G54D66*
X037598Y044511D03*
Y043979D03*
X043307Y042958D03*
Y043489D03*
X03685Y043509D03*
Y044041D03*
X027671Y047282D03*
Y047814D03*
X027041D03*
Y047282D03*
X031138Y034921D03*
Y034389D03*
Y033044D03*
Y033575D03*
G54D67*
X040246Y045389D03*
X040778D03*
X028858Y045653D03*
X02939D03*
X033567Y047843D03*
X033035D03*
X030926Y047478D03*
X031458D03*
X027131Y045637D03*
X027663D03*
X028858Y046545D03*
X02939D03*
X033625Y041736D03*
X034156D03*
X033625Y042326D03*
X034156D03*
X033625Y041145D03*
X034156D03*
X033625Y03957D03*
X034156D03*
X033625Y040161D03*
X034156D03*
X033625Y03898D03*
X034156D03*
X029432Y037014D03*
X0289D03*
X029432Y037604D03*
X0289D03*
X029432Y03914D03*
X0289D03*
X029432Y038195D03*
X0289D03*
X029432Y03973D03*
X0289D03*
X029432Y040321D03*
X0289D03*
X029432Y041187D03*
X0289D03*
X029432Y041778D03*
X0289D03*
X029432Y042368D03*
X0289D03*
X029432Y043904D03*
X0289D03*
X029432Y043313D03*
X0289D03*
X029432Y044494D03*
X0289D03*
X030025Y033899D03*
X029493D03*
X029207Y032915D03*
X028675D03*
X031174Y036083D03*
X030643D03*
X032431D03*
X0319D03*
G54D68*
X046491Y040055D03*
X044741D03*
X046491Y041055D03*
X044741D03*
X046491Y042055D03*
X044741D03*
G54D69*
X040212Y03297D03*
X043342D03*
Y034742D03*
X040212D03*
X0402Y036734D03*
X04333D03*
Y038506D03*
X0402D03*
X035133Y032964D03*
X038263D03*
Y034736D03*
X035133D03*
G54D70*
X022147Y047853D03*
X024116D03*
X023131D03*
Y050019D03*
X024116D03*
X022147D03*
G54D71*
X038676Y044501D03*
Y044001D03*
Y043501D03*
Y043001D03*
Y042501D03*
Y042001D03*
Y041501D03*
Y041001D03*
X042259Y044501D03*
Y044001D03*
Y043501D03*
Y043001D03*
Y042501D03*
Y042001D03*
Y041501D03*
Y041001D03*
G54D72*
X032037Y045769D03*
Y045965D03*
Y046162D03*
Y046359D03*
Y046556D03*
X030422Y045769D03*
Y045965D03*
Y046162D03*
Y046359D03*
Y046556D03*
G54D73*
X02887Y04764D03*
X02954D03*
G54D74*
X031476Y048207D03*
G54D75*
X030728Y048207D03*
G54D76*
X027788Y039864D03*
Y039471D03*
X027198Y039864D03*
Y039471D03*
X027788Y041995D03*
Y041602D03*
X027198Y041995D03*
Y041602D03*
X027788Y037739D03*
Y037346D03*
X027198Y037739D03*
Y037346D03*
X027788Y044121D03*
Y043728D03*
X027198Y044121D03*
Y043728D03*
X03519Y041442D03*
Y041835D03*
X03578Y041442D03*
Y041835D03*
X03519Y039231D03*
Y039624D03*
X03578Y039231D03*
Y039624D03*
G54D77*
X028733Y035081D03*
G54D78*
X028733Y034333D03*
M02*