%FSTAX24Y24*%
%MOIN*%
%SFA1B1*%

%IPPOS*%
%ADD33C,0.011800*%
%ADD34C,0.019700*%
%ADD39C,0.078700*%
%ADD40R,0.078700X0.078700*%
%ADD43C,0.027600*%
%ADD44C,0.031500*%
%LNvapeixshield-1*%
%LPD*%
G54D33*
X031153Y040096D02*
X032368Y038881D01*
X031153Y045249D02*
X031192Y045288D01*
X031363Y040251D02*
X032368Y039246D01*
X031363Y040251D02*
Y042011D01*
X031374Y042023*
X031153Y040096D02*
Y045249D01*
X032246Y041963D02*
Y042044D01*
Y041963D02*
X032409Y0418D01*
X032814Y042084D02*
Y042409D01*
X031963Y040178D02*
X032206D01*
X032409Y040381*
Y0418*
X032044Y042692D02*
Y042855D01*
X031374Y042023D02*
X032044Y042692D01*
X032368Y039246D02*
X033504D01*
X032044Y042855D02*
Y04322D01*
X033795Y038881D02*
X034193Y039279D01*
X032368Y038881D02*
X033795D01*
X033504Y039246D02*
X033787Y03953D01*
X032814Y042409D02*
X03322Y042814D01*
X035174*
X030097Y039408D02*
X030341D01*
X042303Y040584D02*
Y04176D01*
X04133Y042733D02*
X042303Y04176D01*
X036545Y042733D02*
X04133D01*
X03472Y045693D02*
X034963Y04545D01*
X032733Y045693D02*
X03472D01*
X032571Y045531D02*
X032733Y045693D01*
X02957Y039976D02*
X030868D01*
X029066Y039471D02*
X02957Y039976D01*
X026709Y039471D02*
X029066D01*
X02592Y040259D02*
X026709Y039471D01*
X029205Y039083D02*
X029825Y039703D01*
X026448Y039083D02*
X029205D01*
X025515Y040016D02*
X026448Y039083D01*
X030868Y039976D02*
X031314Y03953D01*
Y033829D02*
Y03953D01*
Y033829D02*
X031585Y033558D01*
X030694Y039703D02*
X030989Y039408D01*
Y037989D02*
Y039408D01*
X030665Y037664D02*
X030989Y037989D01*
X029825Y039703D02*
X030694D01*
X034963Y043505D02*
Y04545D01*
X035572Y043212D02*
Y045778D01*
X035174Y042814D02*
X035572Y043212D01*
X03622Y04322D02*
Y045491D01*
X033787Y040787D02*
X03622Y04322D01*
X033787Y03953D02*
Y040787D01*
X034193Y040381D02*
X036545Y042733D01*
X034193Y039279D02*
Y040381D01*
X025515Y045815D02*
X026853Y047153D01*
X025515Y040016D02*
Y045815D01*
X02592Y045369D02*
X026934Y046383D01*
X02592Y040259D02*
Y045369D01*
X032999Y047153D02*
X034468Y048622D01*
X026853Y047153D02*
X032999D01*
X032368Y047559D02*
X033483Y048674D01*
X02661Y047559D02*
X032368D01*
X025109Y046058D02*
X02661Y047559D01*
X026934Y046383D02*
X033382D01*
X025109Y039854D02*
Y046058D01*
X028191Y04545D02*
X028956D01*
X029564Y046058*
X035004*
X038068Y049122*
Y050055*
X033382Y046383D02*
X036436Y049437D01*
X032571Y045328D02*
Y045531D01*
X042303Y040584D02*
X043357Y03953D01*
X039181Y048451D02*
X041614D01*
X03622Y045491D02*
X039181Y048451D01*
X043357Y032757D02*
Y03953D01*
X043068Y032468D02*
X043357Y032757D01*
X043068Y031055D02*
Y032468D01*
X042911Y033163D02*
Y039367D01*
X042141Y032393D02*
X042911Y033163D01*
X042222Y040057D02*
X042911Y039367D01*
X041452Y040057D02*
X042222D01*
X039068Y049274D02*
Y050055D01*
X035572Y045778D02*
X039068Y049274D01*
X036436Y049437D02*
Y050055D01*
X033828Y032393D02*
X042141D01*
X033068Y031632D02*
X033828Y032393D01*
X033068Y031055D02*
Y031632D01*
X029022Y037604D02*
X02975D01*
X028232Y038394D02*
X029022Y037604D01*
X027056Y038394D02*
X028232D01*
X041614Y048451D02*
X042083Y04892D01*
Y050055*
Y031055D02*
Y0312D01*
X034468Y048622D02*
Y050055D01*
X025109Y039854D02*
X026204Y038759D01*
X029448*
X030097Y039408*
X033483Y048674D02*
Y050055D01*
G54D34*
X031598Y047964D02*
X032468Y048834D01*
X026285Y047964D02*
X031598D01*
X024663Y046342D02*
X026285Y047964D01*
X027705Y048451D02*
X028468Y049214D01*
X026123Y048451D02*
X027705D01*
X024258Y046585D02*
X026123Y048451D01*
X024663Y037056D02*
Y046342D01*
X024258Y035515D02*
Y046585D01*
X032895Y032879D02*
X041289D01*
X032044Y032028D02*
X032895Y032879D01*
X027745Y032028D02*
X032044D01*
X024258Y035515D02*
X027745Y032028D01*
X028468Y049214D02*
Y050055D01*
X024663Y037056D02*
X025393Y036326D01*
X032468Y048834D02*
Y050055D01*
G54D39*
X032468Y050055D03*
X033483D03*
X034468D03*
X028468D03*
X038068D03*
X039068D03*
X042083D03*
X033068Y031055D03*
X042083D03*
X043068D03*
G54D40*
X036436Y050055D03*
G54D43*
X032246Y042044D03*
X032814Y042084D03*
X031963Y040178D03*
X032044Y04322D03*
X030341Y039408D03*
X028191Y04545D03*
X031192Y045288D03*
X041289Y032879D03*
X041452Y040057D03*
X027056Y038394D03*
X031585Y033558D03*
X030665Y037664D03*
X02975Y037604D03*
G54D44*
X025393Y036326D03*
M02*