%FSTAX24Y24*%
%MOIN*%
%SFA1B1*%

%IPPOS*%
%ADD117C,0.002000*%
%ADD118C,0.002700*%
%LNvapeixshield-1*%
%LPD*%
G54D117*
X021777Y010788D02*
Y010948D01*
X021937*
Y010788*
X021777*
Y01126D02*
Y01142D01*
X021937*
Y01126*
X021777*
X011468Y019975D02*
X011388Y020135D01*
X011548*
X011468Y019975*
X012468D02*
X012388Y020135D01*
X012548*
X012468Y019975*
X013483D02*
X013403Y020135D01*
X013563*
X013483Y019975*
X014468D02*
X014388Y020135D01*
X014548*
X014468Y019975*
X015436D02*
X015356Y020135D01*
X015516*
X015436Y019975*
X016436D02*
X016356Y020135D01*
X016516*
X016436Y019975*
X010468D02*
X010388Y020135D01*
X010548*
X010468Y019975*
X009468D02*
X009388Y020135D01*
X009548*
X009468Y019975*
X008468D02*
X008388Y020135D01*
X008548*
X008468Y019975*
X007468D02*
X007388Y020135D01*
X007548*
X007468Y019975*
X001857Y002892D02*
X001897Y002932D01*
X001937*
X001897Y002972*
X001937Y003012*
X001897*
X001857Y003052*
X001817Y003012*
X001777*
X001817Y002972*
X001777Y002932*
X001817*
X001857Y002892*
X003038Y001003D02*
X003078Y001043D01*
X003118*
X003078Y001083*
X003118Y001123*
X003078*
X003038Y001163*
X002998Y001123*
X002958*
X002998Y001083*
X002958Y001043*
X002998*
X003038Y001003*
X004219Y002892D02*
X004259Y002932D01*
X004299*
X004259Y002972*
X004299Y003012*
X004259*
X004219Y003052*
X004179Y003012*
X004139*
X004179Y002972*
X004139Y002932*
X004179*
X004219Y002892*
X018068Y019975D02*
X017988Y020135D01*
X018148*
X018068Y019975*
X019068D02*
X018988Y020135D01*
X019148*
X019068Y019975*
X025036D02*
X024956Y020135D01*
X025116*
X025036Y019975*
X024036D02*
X023956Y020135D01*
X024116*
X024036Y019975*
X023068D02*
X022988Y020135D01*
X023148*
X023068Y019975*
X022083D02*
X022003Y020135D01*
X022163*
X022083Y019975*
X021068D02*
X020988Y020135D01*
X021148*
X021068Y019975*
X020068D02*
X019988Y020135D01*
X020148*
X020068Y019975*
X011068Y000975D02*
X010988Y001135D01*
X011148*
X011068Y000975*
X012068D02*
X011988Y001135D01*
X012148*
X012068Y000975*
X018036D02*
X017956Y001135D01*
X018116*
X018036Y000975*
X017036D02*
X016956Y001135D01*
X017116*
X017036Y000975*
X016068D02*
X015988Y001135D01*
X016148*
X016068Y000975*
X015083D02*
X015003Y001135D01*
X015163*
X015083Y000975*
X014068D02*
X013988Y001135D01*
X014148*
X014068Y000975*
X013068D02*
X012988Y001135D01*
X013148*
X013068Y000975*
X020068D02*
X019988Y001135D01*
X020148*
X020068Y000975*
X021068D02*
X020988Y001135D01*
X021148*
X021068Y000975*
X022083D02*
X022003Y001135D01*
X022163*
X022083Y000975*
X023068D02*
X022988Y001135D01*
X023148*
X023068Y000975*
X024036D02*
X023956Y001135D01*
X024116*
X024036Y000975*
X025036D02*
X024956Y001135D01*
X025116*
X025036Y000975*
X020292Y013361D02*
X020332Y013441D01*
X020292Y013521*
X020372Y013481*
X020452Y013521*
X020412Y013441*
X020452Y013361*
X020372Y013401*
X020292Y013361*
X021777Y013869D02*
Y013829D01*
X021857*
Y013869*
X021897*
Y013949*
X021857*
Y013989*
X021777*
Y013949*
X021737*
Y013869*
X021777*
X02352Y010017D02*
Y009977D01*
X0236*
Y010017*
X02364*
Y010097*
X0236*
Y010137*
X02352*
Y010097*
X02348*
Y010017*
X02352*
X021412D02*
Y009977D01*
X021492*
Y010017*
X021532*
Y010097*
X021492*
Y010137*
X021412*
Y010097*
X021372*
Y010017*
X021412*
X016748Y015369D02*
Y015329D01*
X016828*
Y015369*
X016868*
Y015449*
X016828*
Y015489*
X016748*
Y015449*
X016708*
Y015369*
X016748*
X025102Y013585D02*
Y013545D01*
X025182*
Y013585*
X025222*
Y013665*
X025182*
Y013705*
X025102*
Y013665*
X025062*
Y013585*
X025102*
Y015045D02*
Y015005D01*
X025182*
Y015045*
X025222*
Y015125*
X025182*
Y015165*
X025102*
Y015125*
X025062*
Y015045*
X025102*
X024575Y015086D02*
Y015046D01*
X024655*
Y015086*
X024695*
Y015166*
X024655*
Y015206*
X024575*
Y015166*
X024535*
Y015086*
X024575*
X019506Y014234D02*
Y014194D01*
X019586*
Y014234*
X019626*
Y014314*
X019586*
Y014354*
X019506*
Y014314*
X019466*
Y014234*
X019506*
X021168Y014244D02*
Y014204D01*
X021248*
Y014244*
X021288*
Y014324*
X021248*
Y014364*
X021168*
Y014324*
X021128*
Y014244*
X021168*
X020911Y01395D02*
Y01391D01*
X020991*
Y01395*
X021031*
Y01403*
X020991*
Y01407*
X020911*
Y01403*
X020871*
Y01395*
X020911*
X016748Y014072D02*
Y014032D01*
X016828*
Y014072*
X016868*
Y014152*
X016828*
Y014192*
X016748*
Y014152*
X016708*
Y014072*
X016748*
X017113Y013099D02*
Y013059D01*
X017193*
Y013099*
X017233*
Y013179*
X017193*
Y013219*
X017113*
Y013179*
X017073*
Y013099*
X017113*
X010057Y009368D02*
Y009328D01*
X010137*
Y009368*
X010177*
Y009448*
X010137*
Y009488*
X010057*
Y009448*
X010017*
Y009368*
X010057*
X012775Y010081D02*
Y010241D01*
X012935*
Y010081*
X012775*
Y00949D02*
Y00965D01*
X012935*
Y00949*
X012775*
X023764Y012918D02*
Y012878D01*
X023844*
Y012918*
X023884*
Y012998*
X023844*
Y013038*
X023764*
Y012998*
X023724*
Y012918*
X023764*
X026445Y01252D02*
Y01248D01*
X026525*
Y01252*
X026565*
Y0126*
X026525*
Y01264*
X026445*
Y0126*
X026405*
Y01252*
X026445*
X026451Y011522D02*
Y011482D01*
X026531*
Y011522*
X026571*
Y011602*
X026531*
Y011642*
X026451*
Y011602*
X026411*
Y011522*
X026451*
X023527Y011015D02*
Y010975D01*
X023607*
Y011015*
X023647*
Y011095*
X023607*
Y011135*
X023527*
Y011095*
X023487*
Y011015*
X023527*
X023532Y012015D02*
Y011975D01*
X023612*
Y012015*
X023652*
Y012095*
X023612*
Y012135*
X023532*
Y012095*
X023492*
Y012015*
X023532*
X007016Y008354D02*
Y008314D01*
X007096*
Y008354*
X007136*
Y008434*
X007096*
Y008474*
X007016*
Y008434*
X006976*
Y008354*
X007016*
X010098Y007827D02*
Y007787D01*
X010178*
Y007827*
X010218*
Y007907*
X010178*
Y007947*
X010098*
Y007907*
X010058*
Y007827*
X010098*
X013025Y015288D02*
Y015248D01*
X013105*
Y015288*
X013145*
Y015368*
X013105*
Y015408*
X013025*
Y015368*
X012985*
Y015288*
X013025*
X010382Y01541D02*
Y01537D01*
X010462*
Y01541*
X010502*
Y01549*
X010462*
Y01553*
X010382*
Y01549*
X010342*
Y01541*
X010382*
X011395Y015248D02*
Y015208D01*
X011475*
Y015248*
X011515*
Y015328*
X011475*
Y015368*
X011395*
Y015328*
X011355*
Y015248*
X011395*
X010688Y018657D02*
Y018617D01*
X010768*
Y018657*
X010808*
Y018737*
X010768*
Y018777*
X010688*
Y018737*
X010648*
Y018657*
X010688*
X009206Y019019D02*
Y018979D01*
X009286*
Y019019*
X009326*
Y019099*
X009286*
Y019139*
X009206*
Y019099*
X009166*
Y019019*
X009206*
X023277Y005434D02*
Y005394D01*
X023357*
Y005434*
X023397*
Y005514*
X023357*
Y005554*
X023277*
Y005514*
X023237*
Y005434*
X023277*
X022385Y008436D02*
Y008596D01*
X022545*
Y008436*
X022385*
X013991Y017681D02*
Y017641D01*
X014071*
Y017681*
X014111*
Y017761*
X014071*
Y017801*
X013991*
Y017761*
X013951*
Y017681*
X013991*
X012531Y015288D02*
Y015248D01*
X012611*
Y015288*
X012651*
Y015368*
X012611*
Y015408*
X012531*
Y015368*
X012491*
Y015288*
X012531*
X013154Y010795D02*
Y010755D01*
X013234*
Y010795*
X013274*
Y010875*
X013234*
Y010915*
X013154*
Y010875*
X013114*
Y010795*
X013154*
Y011696D02*
Y011656D01*
X013234*
Y011696*
X013274*
Y011776*
X013234*
Y011816*
X013154*
Y011776*
X013114*
Y011696*
X013154*
X010706Y002576D02*
Y002536D01*
X010786*
Y002576*
X010826*
Y002656*
X010786*
Y002696*
X010706*
Y002656*
X010666*
Y002576*
X010706*
X008314Y015897D02*
Y015857D01*
X008394*
Y015897*
X008434*
Y015977*
X008394*
Y016017*
X008314*
Y015977*
X008274*
Y015897*
X008314*
X013626Y014072D02*
Y014032D01*
X013706*
Y014072*
X013746*
Y014152*
X013706*
Y014192*
X013626*
Y014152*
X013586*
Y014072*
X013626*
X008395Y018451D02*
Y018411D01*
X008475*
Y018451*
X008515*
Y018531*
X008475*
Y018571*
X008395*
Y018531*
X008355*
Y018451*
X008395*
X011071Y015856D02*
Y015816D01*
X011151*
Y015856*
X011191*
Y015936*
X011151*
Y015976*
X011071*
Y015936*
X011031*
Y015856*
X011071*
X011545Y003518D02*
Y003478D01*
X011625*
Y003518*
X011665*
Y003598*
X011625*
Y003638*
X011545*
Y003598*
X011505*
Y003518*
X011545*
X010625Y007624D02*
Y007584D01*
X010705*
Y007624*
X010745*
Y007704*
X010705*
Y007744*
X010625*
Y007704*
X010585*
Y007624*
X010625*
X011152Y006489D02*
Y006449D01*
X011232*
Y006489*
X011272*
Y006569*
X011232*
Y006609*
X011152*
Y006569*
X011112*
Y006489*
X011152*
X008638Y002393D02*
Y002353D01*
X008718*
Y002393*
X008758*
Y002473*
X008718*
Y002513*
X008638*
Y002473*
X008598*
Y002393*
X008638*
X005313Y006246D02*
Y006406D01*
X005473*
Y006246*
X005313*
X021777Y003853D02*
Y003813D01*
X021857*
Y003853*
X021897*
Y003933*
X021857*
Y003973*
X021777*
Y003933*
X021737*
Y003853*
X021777*
X011824Y009693D02*
Y009653D01*
X011904*
Y009693*
X011944*
Y009773*
X011904*
Y009813*
X011824*
Y009773*
X011784*
Y009693*
X011824*
X01515Y008796D02*
Y008756D01*
X01523*
Y008796*
X01527*
Y008876*
X01523*
Y008916*
X01515*
Y008876*
X01511*
Y008796*
X01515*
Y011007D02*
Y010967D01*
X01523*
Y011007*
X01527*
Y011087*
X01523*
Y011127*
X01515*
Y011087*
X01511*
Y011007*
X01515*
X026451Y010452D02*
Y010412D01*
X026531*
Y010452*
X026571*
Y010532*
X026531*
Y010572*
X026451*
Y010532*
X026411*
Y010452*
X026451*
X012391Y00639D02*
Y00635D01*
X012471*
Y00639*
X012511*
Y00647*
X012471*
Y00651*
X012391*
Y00647*
X012351*
Y00639*
X012391*
X010573Y004056D02*
Y004016D01*
X010653*
Y004056*
X010693*
Y004136*
X010653*
Y004176*
X010573*
Y004136*
X010533*
Y004056*
X010573*
X008232Y003569D02*
Y003529D01*
X008312*
Y003569*
X008352*
Y003649*
X008312*
Y003689*
X008232*
Y003649*
X008192*
Y003569*
X008232*
X010625Y009165D02*
Y009125D01*
X010705*
Y009165*
X010745*
Y009245*
X010705*
Y009285*
X010625*
Y009245*
X010585*
Y009165*
X010625*
X009611Y003204D02*
Y003164D01*
X009691*
Y003204*
X009731*
Y003284*
X009691*
Y003324*
X009611*
Y003284*
X009571*
Y003204*
X009611*
X00971Y007564D02*
Y007524D01*
X00979*
Y007564*
X00983*
Y007644*
X00979*
Y007684*
X00971*
Y007644*
X00967*
Y007564*
X00971*
Y008155D02*
Y008115D01*
X00979*
Y008155*
X00983*
Y008235*
X00979*
Y008275*
X00971*
Y008235*
X00967*
Y008155*
X00971*
Y010281D02*
Y010241D01*
X00979*
Y010281*
X00983*
Y010361*
X00979*
Y010401*
X00971*
Y010361*
X00967*
Y010281*
X00971*
Y011147D02*
Y011107D01*
X00979*
Y011147*
X00983*
Y011227*
X00979*
Y011267*
X00971*
Y011227*
X00967*
Y011147*
X00971*
Y012328D02*
Y012288D01*
X00979*
Y012328*
X00983*
Y012408*
X00979*
Y012448*
X00971*
Y012408*
X00967*
Y012328*
X00971*
Y013273D02*
Y013233D01*
X00979*
Y013273*
X00983*
Y013353*
X00979*
Y013393*
X00971*
Y013353*
X00967*
Y013273*
X00971*
Y014454D02*
Y014414D01*
X00979*
Y014454*
X00983*
Y014534*
X00979*
Y014574*
X00971*
Y014534*
X00967*
Y014454*
X00971*
X008061Y007699D02*
Y007659D01*
X008141*
Y007699*
X008181*
Y007779*
X008141*
Y007819*
X008061*
Y007779*
X008021*
Y007699*
X008061*
Y009824D02*
Y009784D01*
X008141*
Y009824*
X008181*
Y009904*
X008141*
Y009944*
X008061*
Y009904*
X008021*
Y009824*
X008061*
Y011955D02*
Y011915D01*
X008141*
Y011955*
X008181*
Y012035*
X008141*
Y012075*
X008061*
Y012035*
X008021*
Y011955*
X008061*
Y014081D02*
Y014041D01*
X008141*
Y014081*
X008181*
Y014161*
X008141*
Y014201*
X008061*
Y014161*
X008021*
Y014081*
X008061*
X006651Y015597D02*
Y015557D01*
X006731*
Y015597*
X006771*
Y015677*
X006731*
Y015717*
X006651*
Y015677*
X006611*
Y015597*
X006651*
X016586Y006854D02*
Y006814D01*
X016666*
Y006854*
X016706*
Y006934*
X016666*
Y006974*
X016586*
Y006934*
X016546*
Y006854*
X016586*
X019019Y012936D02*
Y012896D01*
X019099*
Y012936*
X019139*
Y013016*
X019099*
Y013056*
X019019*
Y013016*
X018979*
Y012936*
X019019*
X018208Y011679D02*
Y011639D01*
X018288*
Y011679*
X018328*
Y011759*
X018288*
Y011799*
X018208*
Y011759*
X018168*
Y011679*
X018208*
G54D118*
X024857Y005946D02*
D01*
X024856Y005951*
X024856Y005957*
X024855Y005962*
X024853Y005968*
X024852Y005973*
X02485Y005978*
X024847Y005983*
X024844Y005988*
X024841Y005993*
X024838Y005997*
X024834Y006001*
X02483Y006005*
X024826Y006009*
X024821Y006012*
X024817Y006015*
X024812Y006017*
X024806Y00602*
X024801Y006022*
X024796Y006023*
X02479Y006024*
X024785Y006025*
X024779Y006025*
X024774*
X024768Y006025*
X024763Y006024*
X024757Y006023*
X024752Y006022*
X024747Y00602*
X024741Y006017*
X024737Y006015*
X024732Y006012*
X024727Y006009*
X024723Y006005*
X024719Y006001*
X024715Y005997*
X024712Y005993*
X024709Y005988*
X024706Y005983*
X024703Y005978*
X024701Y005973*
X0247Y005968*
X024698Y005962*
X024697Y005957*
X024697Y005951*
X024697Y005946*
X024697Y00594*
X024697Y005934*
X024698Y005929*
X0247Y005923*
X024701Y005918*
X024703Y005913*
X024706Y005908*
X024709Y005903*
X024712Y005898*
X024715Y005894*
X024719Y00589*
X024723Y005886*
X024727Y005882*
X024732Y005879*
X024737Y005876*
X024741Y005874*
X024747Y005871*
X024752Y005869*
X024757Y005868*
X024763Y005867*
X024768Y005866*
X024774Y005866*
X024779*
X024785Y005866*
X02479Y005867*
X024796Y005868*
X024801Y005869*
X024806Y005871*
X024812Y005874*
X024817Y005876*
X024821Y005879*
X024826Y005882*
X02483Y005886*
X024834Y00589*
X024838Y005894*
X024841Y005898*
X024844Y005903*
X024847Y005908*
X02485Y005913*
X024852Y005918*
X024853Y005923*
X024855Y005929*
X024856Y005934*
X024856Y00594*
X024857Y005946*
Y006733D02*
D01*
X024856Y006738*
X024856Y006744*
X024855Y006749*
X024853Y006755*
X024852Y00676*
X02485Y006765*
X024847Y00677*
X024844Y006775*
X024841Y00678*
X024838Y006784*
X024834Y006788*
X02483Y006792*
X024826Y006796*
X024821Y006799*
X024817Y006802*
X024812Y006804*
X024806Y006807*
X024801Y006809*
X024796Y00681*
X02479Y006811*
X024785Y006812*
X024779Y006812*
X024774*
X024768Y006812*
X024763Y006811*
X024757Y00681*
X024752Y006809*
X024747Y006807*
X024741Y006804*
X024737Y006802*
X024732Y006799*
X024727Y006796*
X024723Y006792*
X024719Y006788*
X024715Y006784*
X024712Y00678*
X024709Y006775*
X024706Y00677*
X024703Y006765*
X024701Y00676*
X0247Y006755*
X024698Y006749*
X024697Y006744*
X024697Y006738*
X024697Y006733*
X024697Y006727*
X024697Y006721*
X024698Y006716*
X0247Y00671*
X024701Y006705*
X024703Y0067*
X024706Y006695*
X024709Y00669*
X024712Y006685*
X024715Y006681*
X024719Y006677*
X024723Y006673*
X024727Y006669*
X024732Y006666*
X024737Y006663*
X024741Y006661*
X024747Y006658*
X024752Y006656*
X024757Y006655*
X024763Y006654*
X024768Y006653*
X024774Y006653*
X024779*
X024785Y006653*
X02479Y006654*
X024796Y006655*
X024801Y006656*
X024806Y006658*
X024812Y006661*
X024817Y006663*
X024821Y006666*
X024826Y006669*
X02483Y006673*
X024834Y006677*
X024838Y006681*
X024841Y006685*
X024844Y00669*
X024847Y006695*
X02485Y0067*
X024852Y006705*
X024853Y00671*
X024855Y006716*
X024856Y006721*
X024856Y006727*
X024857Y006733*
Y005158D02*
D01*
X024856Y005163*
X024856Y005169*
X024855Y005174*
X024853Y00518*
X024852Y005185*
X02485Y00519*
X024847Y005195*
X024844Y0052*
X024841Y005205*
X024838Y005209*
X024834Y005213*
X02483Y005217*
X024826Y005221*
X024821Y005224*
X024817Y005227*
X024812Y005229*
X024806Y005232*
X024801Y005234*
X024796Y005235*
X02479Y005236*
X024785Y005237*
X024779Y005237*
X024774*
X024768Y005237*
X024763Y005236*
X024757Y005235*
X024752Y005234*
X024747Y005232*
X024741Y005229*
X024737Y005227*
X024732Y005224*
X024727Y005221*
X024723Y005217*
X024719Y005213*
X024715Y005209*
X024712Y005205*
X024709Y0052*
X024706Y005195*
X024703Y00519*
X024701Y005185*
X0247Y00518*
X024698Y005174*
X024697Y005169*
X024697Y005163*
X024697Y005158*
X024697Y005152*
X024697Y005146*
X024698Y005141*
X0247Y005135*
X024701Y00513*
X024703Y005125*
X024706Y00512*
X024709Y005115*
X024712Y00511*
X024715Y005106*
X024719Y005102*
X024723Y005098*
X024727Y005094*
X024732Y005091*
X024737Y005088*
X024741Y005086*
X024747Y005083*
X024752Y005081*
X024757Y00508*
X024763Y005079*
X024768Y005078*
X024774Y005078*
X024779*
X024785Y005078*
X02479Y005079*
X024796Y00508*
X024801Y005081*
X024806Y005083*
X024812Y005086*
X024817Y005088*
X024821Y005091*
X024826Y005094*
X02483Y005098*
X024834Y005102*
X024838Y005106*
X024841Y00511*
X024844Y005115*
X024847Y00512*
X02485Y005125*
X024852Y00513*
X024853Y005135*
X024855Y005141*
X024856Y005146*
X024856Y005152*
X024857Y005158*
Y004371D02*
D01*
X024856Y004376*
X024856Y004382*
X024855Y004387*
X024853Y004393*
X024852Y004398*
X02485Y004403*
X024847Y004408*
X024844Y004413*
X024841Y004418*
X024838Y004422*
X024834Y004426*
X02483Y00443*
X024826Y004434*
X024821Y004437*
X024817Y00444*
X024812Y004442*
X024806Y004445*
X024801Y004447*
X024796Y004448*
X02479Y004449*
X024785Y00445*
X024779Y00445*
X024774*
X024768Y00445*
X024763Y004449*
X024757Y004448*
X024752Y004447*
X024747Y004445*
X024741Y004442*
X024737Y00444*
X024732Y004437*
X024727Y004434*
X024723Y00443*
X024719Y004426*
X024715Y004422*
X024712Y004418*
X024709Y004413*
X024706Y004408*
X024703Y004403*
X024701Y004398*
X0247Y004393*
X024698Y004387*
X024697Y004382*
X024697Y004376*
X024697Y004371*
X024697Y004365*
X024697Y004359*
X024698Y004354*
X0247Y004348*
X024701Y004343*
X024703Y004338*
X024706Y004333*
X024709Y004328*
X024712Y004323*
X024715Y004319*
X024719Y004315*
X024723Y004311*
X024727Y004307*
X024732Y004304*
X024737Y004301*
X024741Y004299*
X024747Y004296*
X024752Y004294*
X024757Y004293*
X024763Y004292*
X024768Y004291*
X024774Y004291*
X024779*
X024785Y004291*
X02479Y004292*
X024796Y004293*
X024801Y004294*
X024806Y004296*
X024812Y004299*
X024817Y004301*
X024821Y004304*
X024826Y004307*
X02483Y004311*
X024834Y004315*
X024838Y004319*
X024841Y004323*
X024844Y004328*
X024847Y004333*
X02485Y004338*
X024852Y004343*
X024853Y004348*
X024855Y004354*
X024856Y004359*
X024856Y004365*
X024857Y004371*
X002879Y010841D02*
D01*
X002878Y010846*
X002878Y010852*
X002877Y010857*
X002875Y010863*
X002874Y010868*
X002872Y010873*
X002869Y010878*
X002866Y010883*
X002863Y010888*
X00286Y010892*
X002856Y010896*
X002852Y0109*
X002848Y010904*
X002843Y010907*
X002839Y01091*
X002834Y010912*
X002828Y010915*
X002823Y010917*
X002818Y010918*
X002812Y010919*
X002807Y01092*
X002801Y01092*
X002796*
X00279Y01092*
X002785Y010919*
X002779Y010918*
X002774Y010917*
X002769Y010915*
X002763Y010912*
X002759Y01091*
X002754Y010907*
X002749Y010904*
X002745Y0109*
X002741Y010896*
X002737Y010892*
X002734Y010888*
X002731Y010883*
X002728Y010878*
X002725Y010873*
X002723Y010868*
X002722Y010863*
X00272Y010857*
X002719Y010852*
X002719Y010846*
X002719Y010841*
X002719Y010835*
X002719Y010829*
X00272Y010824*
X002722Y010818*
X002723Y010813*
X002725Y010808*
X002728Y010803*
X002731Y010798*
X002734Y010793*
X002737Y010789*
X002741Y010785*
X002745Y010781*
X002749Y010777*
X002754Y010774*
X002759Y010771*
X002763Y010769*
X002769Y010766*
X002774Y010764*
X002779Y010763*
X002785Y010762*
X00279Y010761*
X002796Y010761*
X002801*
X002807Y010761*
X002812Y010762*
X002818Y010763*
X002823Y010764*
X002828Y010766*
X002834Y010769*
X002839Y010771*
X002843Y010774*
X002848Y010777*
X002852Y010781*
X002856Y010785*
X00286Y010789*
X002863Y010793*
X002866Y010798*
X002869Y010803*
X002872Y010808*
X002874Y010813*
X002875Y010818*
X002877Y010824*
X002878Y010829*
X002878Y010835*
X002879Y010841*
Y010054D02*
D01*
X002878Y010059*
X002878Y010065*
X002877Y01007*
X002875Y010076*
X002874Y010081*
X002872Y010086*
X002869Y010091*
X002866Y010096*
X002863Y010101*
X00286Y010105*
X002856Y010109*
X002852Y010113*
X002848Y010117*
X002843Y01012*
X002839Y010123*
X002834Y010125*
X002828Y010128*
X002823Y01013*
X002818Y010131*
X002812Y010132*
X002807Y010133*
X002801Y010133*
X002796*
X00279Y010133*
X002785Y010132*
X002779Y010131*
X002774Y01013*
X002769Y010128*
X002763Y010125*
X002759Y010123*
X002754Y01012*
X002749Y010117*
X002745Y010113*
X002741Y010109*
X002737Y010105*
X002734Y010101*
X002731Y010096*
X002728Y010091*
X002725Y010086*
X002723Y010081*
X002722Y010076*
X00272Y01007*
X002719Y010065*
X002719Y010059*
X002719Y010054*
X002719Y010048*
X002719Y010042*
X00272Y010037*
X002722Y010031*
X002723Y010026*
X002725Y010021*
X002728Y010016*
X002731Y010011*
X002734Y010006*
X002737Y010002*
X002741Y009998*
X002745Y009994*
X002749Y00999*
X002754Y009987*
X002759Y009984*
X002763Y009982*
X002769Y009979*
X002774Y009977*
X002779Y009976*
X002785Y009975*
X00279Y009974*
X002796Y009974*
X002801*
X002807Y009974*
X002812Y009975*
X002818Y009976*
X002823Y009977*
X002828Y009979*
X002834Y009982*
X002839Y009984*
X002843Y009987*
X002848Y00999*
X002852Y009994*
X002856Y009998*
X00286Y010002*
X002863Y010006*
X002866Y010011*
X002869Y010016*
X002872Y010021*
X002874Y010026*
X002875Y010031*
X002877Y010037*
X002878Y010042*
X002878Y010048*
X002879Y010054*
X002889Y007372D02*
D01*
X002888Y007377*
X002888Y007383*
X002887Y007388*
X002885Y007394*
X002884Y007399*
X002882Y007404*
X002879Y007409*
X002876Y007414*
X002873Y007419*
X00287Y007423*
X002866Y007427*
X002862Y007431*
X002858Y007435*
X002853Y007438*
X002849Y007441*
X002844Y007443*
X002838Y007446*
X002833Y007448*
X002828Y007449*
X002822Y00745*
X002817Y007451*
X002811Y007451*
X002806*
X0028Y007451*
X002795Y00745*
X002789Y007449*
X002784Y007448*
X002779Y007446*
X002773Y007443*
X002769Y007441*
X002764Y007438*
X002759Y007435*
X002755Y007431*
X002751Y007427*
X002747Y007423*
X002744Y007419*
X002741Y007414*
X002738Y007409*
X002735Y007404*
X002733Y007399*
X002732Y007394*
X00273Y007388*
X002729Y007383*
X002729Y007377*
X002729Y007372*
X002729Y007366*
X002729Y00736*
X00273Y007355*
X002732Y007349*
X002733Y007344*
X002735Y007339*
X002738Y007334*
X002741Y007329*
X002744Y007324*
X002747Y00732*
X002751Y007316*
X002755Y007312*
X002759Y007308*
X002764Y007305*
X002769Y007302*
X002773Y0073*
X002779Y007297*
X002784Y007295*
X002789Y007294*
X002795Y007293*
X0028Y007292*
X002806Y007292*
X002811*
X002817Y007292*
X002822Y007293*
X002828Y007294*
X002833Y007295*
X002838Y007297*
X002844Y0073*
X002849Y007302*
X002853Y007305*
X002858Y007308*
X002862Y007312*
X002866Y007316*
X00287Y00732*
X002873Y007324*
X002876Y007329*
X002879Y007334*
X002882Y007339*
X002884Y007344*
X002885Y007349*
X002887Y007355*
X002888Y00736*
X002888Y007366*
X002889Y007372*
Y006585D02*
D01*
X002888Y00659*
X002888Y006596*
X002887Y006601*
X002885Y006607*
X002884Y006612*
X002882Y006617*
X002879Y006622*
X002876Y006627*
X002873Y006632*
X00287Y006636*
X002866Y00664*
X002862Y006644*
X002858Y006648*
X002853Y006651*
X002849Y006654*
X002844Y006656*
X002838Y006659*
X002833Y006661*
X002828Y006662*
X002822Y006663*
X002817Y006664*
X002811Y006664*
X002806*
X0028Y006664*
X002795Y006663*
X002789Y006662*
X002784Y006661*
X002779Y006659*
X002773Y006656*
X002769Y006654*
X002764Y006651*
X002759Y006648*
X002755Y006644*
X002751Y00664*
X002747Y006636*
X002744Y006632*
X002741Y006627*
X002738Y006622*
X002735Y006617*
X002733Y006612*
X002732Y006607*
X00273Y006601*
X002729Y006596*
X002729Y00659*
X002729Y006585*
X002729Y006579*
X002729Y006573*
X00273Y006568*
X002732Y006562*
X002733Y006557*
X002735Y006552*
X002738Y006547*
X002741Y006542*
X002744Y006537*
X002747Y006533*
X002751Y006529*
X002755Y006525*
X002759Y006521*
X002764Y006518*
X002769Y006515*
X002773Y006513*
X002779Y00651*
X002784Y006508*
X002789Y006507*
X002795Y006506*
X0028Y006505*
X002806Y006505*
X002811*
X002817Y006505*
X002822Y006506*
X002828Y006507*
X002833Y006508*
X002838Y00651*
X002844Y006513*
X002849Y006515*
X002853Y006518*
X002858Y006521*
X002862Y006525*
X002866Y006529*
X00287Y006533*
X002873Y006537*
X002876Y006542*
X002879Y006547*
X002882Y006552*
X002884Y006557*
X002885Y006562*
X002887Y006568*
X002888Y006573*
X002888Y006579*
X002889Y006585*
X002848Y015831D02*
D01*
X002847Y015836*
X002847Y015842*
X002846Y015847*
X002844Y015853*
X002843Y015858*
X002841Y015863*
X002838Y015868*
X002835Y015873*
X002832Y015878*
X002829Y015882*
X002825Y015886*
X002821Y01589*
X002817Y015894*
X002812Y015897*
X002808Y0159*
X002803Y015902*
X002797Y015905*
X002792Y015907*
X002787Y015908*
X002781Y015909*
X002776Y01591*
X00277Y01591*
X002765*
X002759Y01591*
X002754Y015909*
X002748Y015908*
X002743Y015907*
X002738Y015905*
X002732Y015902*
X002728Y0159*
X002723Y015897*
X002718Y015894*
X002714Y01589*
X00271Y015886*
X002706Y015882*
X002703Y015878*
X0027Y015873*
X002697Y015868*
X002694Y015863*
X002692Y015858*
X002691Y015853*
X002689Y015847*
X002688Y015842*
X002688Y015836*
X002688Y015831*
X002688Y015825*
X002688Y015819*
X002689Y015814*
X002691Y015808*
X002692Y015803*
X002694Y015798*
X002697Y015793*
X0027Y015788*
X002703Y015783*
X002706Y015779*
X00271Y015775*
X002714Y015771*
X002718Y015767*
X002723Y015764*
X002728Y015761*
X002732Y015759*
X002738Y015756*
X002743Y015754*
X002748Y015753*
X002754Y015752*
X002759Y015751*
X002765Y015751*
X00277*
X002776Y015751*
X002781Y015752*
X002787Y015753*
X002792Y015754*
X002797Y015756*
X002803Y015759*
X002808Y015761*
X002812Y015764*
X002817Y015767*
X002821Y015771*
X002825Y015775*
X002829Y015779*
X002832Y015783*
X002835Y015788*
X002838Y015793*
X002841Y015798*
X002843Y015803*
X002844Y015808*
X002846Y015814*
X002847Y015819*
X002847Y015825*
X002848Y015831*
Y015043D02*
D01*
X002847Y015048*
X002847Y015054*
X002846Y015059*
X002844Y015065*
X002843Y01507*
X002841Y015075*
X002838Y01508*
X002835Y015085*
X002832Y01509*
X002829Y015094*
X002825Y015098*
X002821Y015102*
X002817Y015106*
X002812Y015109*
X002808Y015112*
X002803Y015114*
X002797Y015117*
X002792Y015119*
X002787Y01512*
X002781Y015121*
X002776Y015122*
X00277Y015122*
X002765*
X002759Y015122*
X002754Y015121*
X002748Y01512*
X002743Y015119*
X002738Y015117*
X002732Y015114*
X002728Y015112*
X002723Y015109*
X002718Y015106*
X002714Y015102*
X00271Y015098*
X002706Y015094*
X002703Y01509*
X0027Y015085*
X002697Y01508*
X002694Y015075*
X002692Y01507*
X002691Y015065*
X002689Y015059*
X002688Y015054*
X002688Y015048*
X002688Y015043*
X002688Y015037*
X002688Y015031*
X002689Y015026*
X002691Y01502*
X002692Y015015*
X002694Y01501*
X002697Y015005*
X0027Y015*
X002703Y014995*
X002706Y014991*
X00271Y014987*
X002714Y014983*
X002718Y014979*
X002723Y014976*
X002728Y014973*
X002732Y014971*
X002738Y014968*
X002743Y014966*
X002748Y014965*
X002754Y014964*
X002759Y014963*
X002765Y014963*
X00277*
X002776Y014963*
X002781Y014964*
X002787Y014965*
X002792Y014966*
X002797Y014968*
X002803Y014971*
X002808Y014973*
X002812Y014976*
X002817Y014979*
X002821Y014983*
X002825Y014987*
X002829Y014991*
X002832Y014995*
X002835Y015*
X002838Y015005*
X002841Y01501*
X002843Y015015*
X002844Y01502*
X002846Y015026*
X002847Y015031*
X002847Y015037*
X002848Y015043*
Y013469D02*
D01*
X002847Y013474*
X002847Y01348*
X002846Y013485*
X002844Y013491*
X002843Y013496*
X002841Y013501*
X002838Y013506*
X002835Y013511*
X002832Y013516*
X002829Y01352*
X002825Y013524*
X002821Y013528*
X002817Y013532*
X002812Y013535*
X002808Y013538*
X002803Y01354*
X002797Y013543*
X002792Y013545*
X002787Y013546*
X002781Y013547*
X002776Y013548*
X00277Y013548*
X002765*
X002759Y013548*
X002754Y013547*
X002748Y013546*
X002743Y013545*
X002738Y013543*
X002732Y01354*
X002728Y013538*
X002723Y013535*
X002718Y013532*
X002714Y013528*
X00271Y013524*
X002706Y01352*
X002703Y013516*
X0027Y013511*
X002697Y013506*
X002694Y013501*
X002692Y013496*
X002691Y013491*
X002689Y013485*
X002688Y01348*
X002688Y013474*
X002688Y013469*
X002688Y013463*
X002688Y013457*
X002689Y013452*
X002691Y013446*
X002692Y013441*
X002694Y013436*
X002697Y013431*
X0027Y013426*
X002703Y013421*
X002706Y013417*
X00271Y013413*
X002714Y013409*
X002718Y013405*
X002723Y013402*
X002728Y013399*
X002732Y013397*
X002738Y013394*
X002743Y013392*
X002748Y013391*
X002754Y01339*
X002759Y013389*
X002765Y013389*
X00277*
X002776Y013389*
X002781Y01339*
X002787Y013391*
X002792Y013392*
X002797Y013394*
X002803Y013397*
X002808Y013399*
X002812Y013402*
X002817Y013405*
X002821Y013409*
X002825Y013413*
X002829Y013417*
X002832Y013421*
X002835Y013426*
X002838Y013431*
X002841Y013436*
X002843Y013441*
X002844Y013446*
X002846Y013452*
X002847Y013457*
X002847Y013463*
X002848Y013469*
Y014256D02*
D01*
X002847Y014261*
X002847Y014267*
X002846Y014272*
X002844Y014278*
X002843Y014283*
X002841Y014288*
X002838Y014293*
X002835Y014298*
X002832Y014303*
X002829Y014307*
X002825Y014311*
X002821Y014315*
X002817Y014319*
X002812Y014322*
X002808Y014325*
X002803Y014327*
X002797Y01433*
X002792Y014332*
X002787Y014333*
X002781Y014334*
X002776Y014335*
X00277Y014335*
X002765*
X002759Y014335*
X002754Y014334*
X002748Y014333*
X002743Y014332*
X002738Y01433*
X002732Y014327*
X002728Y014325*
X002723Y014322*
X002718Y014319*
X002714Y014315*
X00271Y014311*
X002706Y014307*
X002703Y014303*
X0027Y014298*
X002697Y014293*
X002694Y014288*
X002692Y014283*
X002691Y014278*
X002689Y014272*
X002688Y014267*
X002688Y014261*
X002688Y014256*
X002688Y01425*
X002688Y014244*
X002689Y014239*
X002691Y014233*
X002692Y014228*
X002694Y014223*
X002697Y014218*
X0027Y014213*
X002703Y014208*
X002706Y014204*
X00271Y0142*
X002714Y014196*
X002718Y014192*
X002723Y014189*
X002728Y014186*
X002732Y014184*
X002738Y014181*
X002743Y014179*
X002748Y014178*
X002754Y014177*
X002759Y014176*
X002765Y014176*
X00277*
X002776Y014176*
X002781Y014177*
X002787Y014178*
X002792Y014179*
X002797Y014181*
X002803Y014184*
X002808Y014186*
X002812Y014189*
X002817Y014192*
X002821Y014196*
X002825Y0142*
X002829Y014204*
X002832Y014208*
X002835Y014213*
X002838Y014218*
X002841Y014223*
X002843Y014228*
X002844Y014233*
X002846Y014239*
X002847Y014244*
X002847Y01425*
X002848Y014256*
M02*