%FSTAX24Y24*%
%MOIN*%
%SFA1B1*%

%IPPOS*%
%AMD43*
4,1,8,0.016700,0.068900,-0.016700,0.068900,-0.033400,0.052200,-0.033400,-0.052200,-0.016700,-0.068900,0.016700,-0.068900,0.033400,-0.052200,0.033400,0.052200,0.016700,0.068900,0.0*
1,1,0.033400,0.016700,0.052200*
1,1,0.033400,-0.016700,0.052200*
1,1,0.033400,-0.016700,-0.052200*
1,1,0.033400,0.016700,-0.052200*
%
%AMD44*
4,1,8,0.068900,-0.016700,0.068900,0.016700,0.052200,0.033400,-0.052200,0.033400,-0.068900,0.016700,-0.068900,-0.016700,-0.052200,-0.033400,0.052200,-0.033400,0.068900,-0.016700,0.0*
1,1,0.033400,0.052200,-0.016700*
1,1,0.033400,0.052200,0.016700*
1,1,0.033400,-0.052200,0.016700*
1,1,0.033400,-0.052200,-0.016700*
%
%ADD12R,0.029500X0.031500*%
%ADD21R,0.031500X0.029500*%
%ADD22R,0.150000X0.050000*%
%ADD27R,0.078700X0.043300*%
%ADD28R,0.031500X0.031500*%
%ADD31R,0.031500X0.031500*%
%ADD32R,0.043300X0.078700*%
%ADD39C,0.031500*%
%ADD40C,0.051200*%
%ADD41C,0.078700*%
%ADD42R,0.078700X0.078700*%
G04~CAMADD=43~8~0.0~0.0~669.0~1378.0~167.0~0.0~15~0.0~0.0~0.0~0.0~0~0.0~0.0~0.0~0.0~0~0.0~0.0~0.0~0.0~669.0~1378.0*
%ADD43D43*%
G04~CAMADD=44~8~0.0~0.0~669.0~1378.0~167.0~0.0~15~0.0~0.0~0.0~0.0~0~0.0~0.0~0.0~0.0~0~0.0~0.0~0.0~270.0~1378.0~668.0*
%ADD44D44*%
%ADD47R,0.030000X0.040000*%
%ADD48R,0.040000X0.030000*%
%ADD49R,0.059100X0.051200*%
%LNvapeixshield-1*%
%LPD*%
G54D12*
X043056Y032839D03*
X042524D03*
G54D21*
X039238Y034203D03*
Y033671D03*
X038248Y038818D03*
Y039349D03*
Y040399D03*
Y040931D03*
G54D22*
X044736Y040055D03*
Y041055D03*
Y042055D03*
X046486Y040055D03*
Y041055D03*
Y042055D03*
G54D27*
X039084Y036883D03*
G54D28*
X038336Y036883D03*
G54D31*
X035126Y034154D03*
G54D32*
X035126Y033406D03*
G54D39*
X041533Y040868D03*
Y04134D03*
G54D40*
X044777Y035946D03*
Y036733D03*
Y035158D03*
Y034371D03*
X022799Y040841D03*
Y040054D03*
X022809Y037372D03*
Y036585D03*
X022768Y045831D03*
Y045043D03*
Y043468D03*
Y044256D03*
G54D41*
X031468Y050055D03*
X032468D03*
X033483D03*
X034468D03*
X035436D03*
X030468D03*
X029468D03*
X028468D03*
X027468D03*
X038068D03*
X039068D03*
X044036D03*
X043068D03*
X042083D03*
X041068D03*
X040068D03*
X031068Y031055D03*
X032068D03*
X037036D03*
X036068D03*
X035083D03*
X034068D03*
X033068D03*
X040068D03*
X041068D03*
X042083D03*
X043068D03*
X044036D03*
G54D42*
X036436Y050055D03*
X045036D03*
X038036Y031055D03*
X045036D03*
G54D43*
X021857Y032972D03*
X024219D03*
G54D44*
X023038Y031083D03*
G54D47*
X038868Y035959D03*
X038494Y035132D03*
X039242D03*
G54D48*
X039867Y040049D03*
X03904Y040423D03*
Y039675D03*
G54D49*
X036139Y033234D03*
Y033903D03*
M02*