%FSTAX24Y24*%
%MOIN*%
%SFA1B1*%

%IPPOS*%
%AMD40*
4,1,8,0.016700,0.068900,-0.016700,0.068900,-0.033400,0.052200,-0.033400,-0.052200,-0.016700,-0.068900,0.016700,-0.068900,0.033400,-0.052200,0.033400,0.052200,0.016700,0.068900,0.0*
1,1,0.033400,0.016700,0.052200*
1,1,0.033400,-0.016700,0.052200*
1,1,0.033400,-0.016700,-0.052200*
1,1,0.033400,0.016700,-0.052200*
%
%AMD41*
4,1,8,0.068900,-0.016700,0.068900,0.016700,0.052200,0.033400,-0.052200,0.033400,-0.068900,0.016700,-0.068900,-0.016700,-0.052200,-0.033400,0.052200,-0.033400,0.068900,-0.016700,0.0*
1,1,0.033400,0.052200,-0.016700*
1,1,0.033400,0.052200,0.016700*
1,1,0.033400,-0.052200,0.016700*
1,1,0.033400,-0.052200,-0.016700*
%
%ADD37C,0.051200*%
%ADD38C,0.078700*%
G04~CAMADD=40~8~0.0~0.0~669.0~1378.0~167.0~0.0~15~0.0~0.0~0.0~0.0~0~0.0~0.0~0.0~0.0~0~0.0~0.0~0.0~0.0~669.0~1378.0*
%ADD40D40*%
G04~CAMADD=41~8~0.0~0.0~669.0~1378.0~167.0~0.0~15~0.0~0.0~0.0~0.0~0~0.0~0.0~0.0~0.0~0~0.0~0.0~0.0~270.0~1378.0~668.0*
%ADD41D41*%
%ADD42C,0.027600*%
%LNvapeixshield-1*%
%LPD*%
G36*
X046271Y050347D02*
Y045604D01*
X046272Y045587*
X046275Y04557*
X046278Y045562*
Y045526*
X046525Y045279*
X047414Y04439*
Y04405*
Y032619*
X047132Y032337*
X046274Y03148*
Y031441*
X046271Y031427*
X04627Y03141*
Y03043*
X046043Y030203*
X046035Y030211*
X020397*
X020199Y030409*
X020203Y030413*
Y050829*
X020214Y050845*
X020233Y050865*
X020248Y05088*
X045738*
X046271Y050347*
G37*
%LNvapeixshield-2*%
%LPC*%
G36*
X035436Y050528D02*
X035399Y050526D01*
X035362Y050522*
X035326Y050515*
X03529Y050505*
X035255Y050492*
X035222Y050476*
X035189Y050458*
X035158Y050438*
X035129Y050415*
X035102Y050389*
X035077Y050362*
X035054Y050333*
X035033Y050302*
X035015Y05027*
X034999Y050236*
X034987Y050201*
X034976Y050165*
X034927*
X034917Y050201*
X034905Y050236*
X034889Y05027*
X034871Y050302*
X03485Y050333*
X034827Y050362*
X034802Y050389*
X034775Y050415*
X034746Y050438*
X034715Y050458*
X034682Y050476*
X034649Y050492*
X034614Y050505*
X034578Y050515*
X034542Y050522*
X034505Y050526*
X034468Y050528*
X034431Y050526*
X034394Y050522*
X034357Y050515*
X034322Y050505*
X034287Y050492*
X034253Y050476*
X034221Y050458*
X03419Y050438*
X034161Y050415*
X034133Y050389*
X034108Y050362*
X034085Y050333*
X034065Y050302*
X034046Y05027*
X034031Y050236*
X034018Y050201*
X034008Y050165*
X034001Y050129*
X03395*
X033943Y050165*
X033933Y050201*
X03392Y050236*
X033905Y05027*
X033887Y050302*
X033866Y050333*
X033843Y050362*
X033818Y050389*
X033791Y050415*
X033761Y050438*
X03373Y050458*
X033698Y050476*
X033664Y050492*
X03363Y050505*
X033594Y050515*
X033557Y050522*
X033521Y050526*
X033483Y050528*
X033446Y050526*
X03341Y050522*
X033373Y050515*
X033337Y050505*
X033303Y050492*
X033269Y050476*
X033236Y050458*
X033206Y050438*
X033176Y050415*
X033149Y050389*
X033124Y050362*
X033101Y050333*
X03308Y050302*
X033062Y05027*
X033047Y050236*
X033034Y050201*
X033024Y050165*
X033016Y050129*
X033012Y050092*
X033011Y050055*
X033012Y050018*
X033016Y049981*
X033024Y049945*
X033034Y049909*
X033047Y049874*
X033062Y04984*
X03308Y049808*
X033101Y049777*
X033124Y049748*
X033149Y049721*
X033176Y049696*
X033206Y049673*
X033236Y049652*
X033269Y049634*
X033303Y049618*
X033337Y049605*
X033373Y049595*
X03341Y049588*
X033446Y049584*
X033483Y049582*
X033521Y049584*
X033557Y049588*
X033594Y049595*
X03363Y049605*
X033664Y049618*
X033698Y049634*
X03373Y049652*
X033761Y049673*
X033791Y049696*
X033818Y049721*
X033843Y049748*
X033866Y049777*
X033887Y049808*
X033905Y04984*
X03392Y049874*
X033933Y049909*
X033943Y049945*
X03395Y049981*
X034001*
X034008Y049945*
X034018Y049909*
X034031Y049874*
X034046Y04984*
X034065Y049808*
X034085Y049777*
X034108Y049748*
X034133Y049721*
X034161Y049696*
X03419Y049673*
X034221Y049652*
X034253Y049634*
X034287Y049618*
X034322Y049605*
X034357Y049595*
X034394Y049588*
X034431Y049584*
X034468Y049582*
X034505Y049584*
X034542Y049588*
X034578Y049595*
X034614Y049605*
X034649Y049618*
X034682Y049634*
X034715Y049652*
X034746Y049673*
X034775Y049696*
X034802Y049721*
X034827Y049748*
X03485Y049777*
X034871Y049808*
X034889Y04984*
X034905Y049874*
X034917Y049909*
X034927Y049945*
X034976*
X034987Y049909*
X034999Y049874*
X035015Y04984*
X035033Y049808*
X035054Y049777*
X035077Y049748*
X035102Y049721*
X035129Y049696*
X035158Y049673*
X035189Y049652*
X035222Y049634*
X035255Y049618*
X03529Y049605*
X035326Y049595*
X035362Y049588*
X035399Y049584*
X035436Y049582*
X035473Y049584*
X03551Y049588*
X035547Y049595*
X035582Y049605*
X035617Y049618*
X035651Y049634*
X035683Y049652*
X035714Y049673*
X035743Y049696*
X035771Y049721*
X035796Y049748*
X035819Y049777*
X035839Y049808*
X035857Y04984*
X035873Y049874*
X035886Y049909*
X035896Y049945*
X035903Y049981*
X035908Y050018*
X035909Y050055*
X035908Y050092*
X035903Y050129*
X035896Y050165*
X035886Y050201*
X035873Y050236*
X035857Y05027*
X035839Y050302*
X035819Y050333*
X035796Y050362*
X035771Y050389*
X035743Y050415*
X035714Y050438*
X035683Y050458*
X035651Y050476*
X035617Y050492*
X035582Y050505*
X035547Y050515*
X03551Y050522*
X035473Y050526*
X035436Y050528*
G37*
G36*
X044036D02*
X043999Y050526D01*
X043962Y050522*
X043926Y050515*
X04389Y050505*
X043855Y050492*
X043822Y050476*
X043789Y050458*
X043758Y050438*
X043729Y050415*
X043702Y050389*
X043677Y050362*
X043654Y050333*
X043633Y050302*
X043615Y05027*
X043599Y050236*
X043587Y050201*
X043576Y050165*
X043527*
X043517Y050201*
X043505Y050236*
X043489Y05027*
X043471Y050302*
X04345Y050333*
X043427Y050362*
X043402Y050389*
X043375Y050415*
X043346Y050438*
X043315Y050458*
X043282Y050476*
X043249Y050492*
X043214Y050505*
X043178Y050515*
X043142Y050522*
X043105Y050526*
X043068Y050528*
X043031Y050526*
X042994Y050522*
X042957Y050515*
X042922Y050505*
X042887Y050492*
X042853Y050476*
X042821Y050458*
X04279Y050438*
X042761Y050415*
X042733Y050389*
X042708Y050362*
X042685Y050333*
X042665Y050302*
X042646Y05027*
X042631Y050236*
X042618Y050201*
X042608Y050165*
X042601Y050129*
X04255*
X042543Y050165*
X042533Y050201*
X04252Y050236*
X042505Y05027*
X042487Y050302*
X042466Y050333*
X042443Y050362*
X042418Y050389*
X04239Y050415*
X042361Y050438*
X04233Y050458*
X042298Y050476*
X042264Y050492*
X04223Y050505*
X042194Y050515*
X042157Y050522*
X042121Y050526*
X042083Y050528*
X042046Y050526*
X042009Y050522*
X041973Y050515*
X041937Y050505*
X041903Y050492*
X041869Y050476*
X041836Y050458*
X041806Y050438*
X041776Y050415*
X041749Y050389*
X041724Y050362*
X041701Y050333*
X04168Y050302*
X041662Y05027*
X041647Y050236*
X041634Y050201*
X041624Y050165*
X041616Y050129*
X041612Y050092*
X041611Y050055*
X041612Y050018*
X041616Y049981*
X041624Y049945*
X041634Y049909*
X041647Y049874*
X041662Y04984*
X04168Y049808*
X041701Y049777*
X041724Y049748*
X041749Y049721*
X041776Y049695*
X041806Y049672*
X041836Y049652*
X041869Y049634*
X041903Y049618*
X041937Y049605*
X041973Y049595*
X042009Y049588*
X042046Y049584*
X042083Y049582*
X042121Y049584*
X042157Y049588*
X042194Y049595*
X04223Y049605*
X042264Y049618*
X042298Y049634*
X04233Y049652*
X042361Y049672*
X04239Y049695*
X042418Y049721*
X042443Y049748*
X042466Y049777*
X042487Y049808*
X042505Y04984*
X04252Y049874*
X042533Y049909*
X042543Y049945*
X04255Y049981*
X042601*
X042608Y049945*
X042618Y049909*
X042631Y049874*
X042646Y04984*
X042665Y049808*
X042685Y049777*
X042708Y049748*
X042733Y049721*
X042761Y049695*
X04279Y049672*
X042821Y049652*
X042853Y049634*
X042887Y049618*
X042922Y049605*
X042957Y049595*
X042994Y049588*
X043031Y049584*
X043068Y049582*
X043105Y049584*
X043142Y049588*
X043178Y049595*
X043214Y049605*
X043249Y049618*
X043282Y049634*
X043315Y049652*
X043346Y049672*
X043375Y049695*
X043402Y049721*
X043427Y049748*
X04345Y049777*
X043471Y049808*
X043489Y04984*
X043505Y049874*
X043517Y049909*
X043527Y049945*
X043576*
X043587Y049909*
X043599Y049874*
X043615Y04984*
X043633Y049808*
X043654Y049777*
X043677Y049748*
X043702Y049721*
X043729Y049695*
X043758Y049672*
X043789Y049652*
X043822Y049634*
X043855Y049618*
X04389Y049605*
X043926Y049595*
X043962Y049588*
X043999Y049584*
X044036Y049582*
X044073Y049584*
X04411Y049588*
X044147Y049595*
X044182Y049605*
X044217Y049618*
X044251Y049634*
X044283Y049652*
X044314Y049672*
X044343Y049695*
X044371Y049721*
X044396Y049748*
X044419Y049777*
X044439Y049808*
X044457Y04984*
X044473Y049874*
X044486Y049909*
X044496Y049945*
X044503Y049981*
X044508Y050018*
X044509Y050055*
X044508Y050092*
X044503Y050129*
X044496Y050165*
X044486Y050201*
X044473Y050236*
X044457Y05027*
X044439Y050302*
X044419Y050333*
X044396Y050362*
X044371Y050389*
X044343Y050415*
X044314Y050438*
X044283Y050458*
X044251Y050476*
X044217Y050492*
X044182Y050505*
X044147Y050515*
X04411Y050522*
X044073Y050526*
X044036Y050528*
G37*
G36*
X030418Y050546D02*
X03039Y050543D01*
X030352Y050536*
X030315Y050525*
X030279Y050512*
X030243Y050495*
X03021Y050476*
X030177Y050455*
X030147Y050431*
X030118Y050404*
X030092Y050376*
X030068Y050346*
X030046Y050313*
X030027Y050279*
X030011Y050244*
X029998Y050208*
X029987Y05017*
X029982Y050146*
X029931*
X029927Y050165*
X029917Y050201*
X029905Y050236*
X029889Y05027*
X029871Y050302*
X02985Y050333*
X029827Y050362*
X029802Y050389*
X029775Y050415*
X029746Y050438*
X029715Y050458*
X029682Y050476*
X029649Y050492*
X029614Y050505*
X029578Y050515*
X029542Y050522*
X029505Y050526*
X029468Y050528*
X029431Y050526*
X029394Y050522*
X029357Y050515*
X029322Y050505*
X029287Y050492*
X029253Y050476*
X029221Y050458*
X02919Y050438*
X029161Y050415*
X029133Y050389*
X029108Y050362*
X029085Y050333*
X029065Y050302*
X029046Y05027*
X029031Y050236*
X029018Y050201*
X029008Y050165*
X029001Y050129*
X028996Y050092*
X028995Y050055*
X028996Y050018*
X029001Y049981*
X029008Y049945*
X029018Y049909*
X029031Y049874*
X029046Y04984*
X029065Y049808*
X029085Y049777*
X029108Y049748*
X029133Y049721*
X029161Y049696*
X02919Y049673*
X029221Y049652*
X029253Y049634*
X029287Y049618*
X029322Y049605*
X029357Y049595*
X029394Y049588*
X029431Y049584*
X029468Y049582*
X029505Y049584*
X029542Y049588*
X029578Y049595*
X029614Y049605*
X029649Y049618*
X029682Y049634*
X029715Y049652*
X029746Y049673*
X029775Y049696*
X029802Y049721*
X029827Y049748*
X02985Y049777*
X029871Y049808*
X029889Y04984*
X029905Y049874*
X029917Y049909*
X029927Y049945*
X029931Y049964*
X029982*
X029987Y04994*
X029998Y049902*
X030011Y049866*
X030027Y049831*
X030046Y049797*
X030068Y049765*
X030092Y049734*
X030118Y049706*
X030147Y049679*
X030177Y049655*
X03021Y049634*
X030243Y049615*
X030279Y049599*
X030315Y049585*
X030352Y049575*
X03039Y049567*
X030418Y049564*
Y050055*
Y050546*
G37*
G36*
X036909Y050528D02*
X035964D01*
Y049583*
X036909*
Y050528*
G37*
G36*
X045509Y050527D02*
X044564D01*
Y049583*
X045509*
Y050527*
G37*
G36*
X032468Y050528D02*
X032431Y050526D01*
X032394Y050522*
X032357Y050515*
X032322Y050505*
X032287Y050492*
X032253Y050476*
X032221Y050458*
X03219Y050438*
X032161Y050415*
X032133Y050389*
X032108Y050362*
X032085Y050333*
X032065Y050302*
X032046Y05027*
X032031Y050236*
X032018Y050201*
X032008Y050165*
X032001Y050129*
X031996Y050092*
X031995Y050055*
X031996Y050018*
X032001Y049981*
X032008Y049945*
X032018Y049909*
X032031Y049874*
X032046Y04984*
X032065Y049808*
X032085Y049777*
X032108Y049748*
X032133Y049721*
X032161Y049696*
X03219Y049673*
X032221Y049652*
X032253Y049634*
X032287Y049618*
X032322Y049605*
X032357Y049595*
X032394Y049588*
X032431Y049584*
X032468Y049582*
X032505Y049584*
X032542Y049588*
X032578Y049595*
X032614Y049605*
X032649Y049618*
X032682Y049634*
X032715Y049652*
X032746Y049673*
X032775Y049696*
X032802Y049721*
X032827Y049748*
X03285Y049777*
X032871Y049808*
X032889Y04984*
X032905Y049874*
X032917Y049909*
X032927Y049945*
X032935Y049981*
X032939Y050018*
X032941Y050055*
X032939Y050092*
X032935Y050129*
X032927Y050165*
X032917Y050201*
X032905Y050236*
X032889Y05027*
X032871Y050302*
X03285Y050333*
X032827Y050362*
X032802Y050389*
X032775Y050415*
X032746Y050438*
X032715Y050458*
X032682Y050476*
X032649Y050492*
X032614Y050505*
X032578Y050515*
X032542Y050522*
X032505Y050526*
X032468Y050528*
G37*
G36*
X030518Y050546D02*
Y050055D01*
Y049564*
X030545Y049567*
X030583Y049575*
X03062Y049585*
X030657Y049599*
X030692Y049615*
X030726Y049634*
X030758Y049655*
X030789Y049679*
X030817Y049706*
X030843Y049734*
X030867Y049765*
X030889Y049797*
X030908Y049831*
X030924Y049866*
X030938Y049902*
X030948Y04994*
X030953Y049964*
X031004*
X031008Y049945*
X031018Y049909*
X031031Y049874*
X031046Y04984*
X031065Y049808*
X031085Y049777*
X031108Y049748*
X031133Y049721*
X031161Y049696*
X03119Y049673*
X031221Y049652*
X031253Y049634*
X031287Y049618*
X031322Y049605*
X031357Y049595*
X031394Y049588*
X031431Y049584*
X031468Y049582*
X031505Y049584*
X031542Y049588*
X031578Y049595*
X031614Y049605*
X031649Y049618*
X031682Y049634*
X031715Y049652*
X031746Y049673*
X031775Y049696*
X031802Y049721*
X031827Y049748*
X03185Y049777*
X031871Y049808*
X031889Y04984*
X031905Y049874*
X031917Y049909*
X031927Y049945*
X031935Y049981*
X031939Y050018*
X031941Y050055*
X031939Y050092*
X031935Y050129*
X031927Y050165*
X031917Y050201*
X031905Y050236*
X031889Y05027*
X031871Y050302*
X03185Y050333*
X031827Y050362*
X031802Y050389*
X031775Y050415*
X031746Y050438*
X031715Y050458*
X031682Y050476*
X031649Y050492*
X031614Y050505*
X031578Y050515*
X031542Y050522*
X031505Y050526*
X031468Y050528*
X031431Y050526*
X031394Y050522*
X031357Y050515*
X031322Y050505*
X031287Y050492*
X031253Y050476*
X031221Y050458*
X03119Y050438*
X031161Y050415*
X031133Y050389*
X031108Y050362*
X031085Y050333*
X031065Y050302*
X031046Y05027*
X031031Y050236*
X031018Y050201*
X031008Y050165*
X031004Y050146*
X030953*
X030948Y05017*
X030938Y050208*
X030924Y050244*
X030908Y050279*
X030889Y050313*
X030867Y050346*
X030843Y050376*
X030817Y050404*
X030789Y050431*
X030758Y050455*
X030726Y050476*
X030692Y050495*
X030657Y050512*
X03062Y050525*
X030583Y050536*
X030545Y050543*
X030518Y050546*
G37*
G36*
X028468Y050528D02*
X028431Y050526D01*
X028394Y050522*
X028357Y050515*
X028322Y050505*
X028287Y050492*
X028253Y050476*
X028221Y050458*
X02819Y050438*
X028161Y050415*
X028133Y050389*
X028108Y050362*
X028085Y050333*
X028065Y050302*
X028046Y05027*
X028031Y050236*
X028018Y050201*
X028008Y050165*
X028001Y050129*
X027996Y050092*
X027995Y050055*
X027996Y050018*
X028001Y049981*
X028008Y049945*
X028018Y049909*
X028031Y049874*
X028046Y04984*
X028065Y049808*
X028085Y049777*
X028108Y049748*
X028133Y049721*
X028161Y049696*
X02819Y049673*
X028221Y049652*
X028253Y049634*
X028287Y049618*
X028322Y049605*
X028357Y049595*
X028394Y049588*
X028431Y049584*
X028468Y049582*
X028505Y049584*
X028542Y049588*
X028578Y049595*
X028614Y049605*
X028649Y049618*
X028682Y049634*
X028715Y049652*
X028746Y049673*
X028775Y049696*
X028802Y049721*
X028827Y049748*
X02885Y049777*
X028871Y049808*
X028889Y04984*
X028905Y049874*
X028917Y049909*
X028927Y049945*
X028935Y049981*
X028939Y050018*
X028941Y050055*
X028939Y050092*
X028935Y050129*
X028927Y050165*
X028917Y050201*
X028905Y050236*
X028889Y05027*
X028871Y050302*
X02885Y050333*
X028827Y050362*
X028802Y050389*
X028775Y050415*
X028746Y050438*
X028715Y050458*
X028682Y050476*
X028649Y050492*
X028614Y050505*
X028578Y050515*
X028542Y050522*
X028505Y050526*
X028468Y050528*
G37*
G36*
X027468D02*
X027431Y050526D01*
X027394Y050522*
X027357Y050515*
X027322Y050505*
X027287Y050492*
X027253Y050476*
X027221Y050458*
X02719Y050438*
X027161Y050415*
X027133Y050389*
X027108Y050362*
X027085Y050333*
X027065Y050302*
X027046Y05027*
X027031Y050236*
X027018Y050201*
X027008Y050165*
X027001Y050129*
X026996Y050092*
X026995Y050055*
X026996Y050018*
X027001Y049981*
X027008Y049945*
X027018Y049909*
X027031Y049874*
X027046Y04984*
X027065Y049808*
X027085Y049777*
X027108Y049748*
X027133Y049721*
X027161Y049696*
X02719Y049673*
X027221Y049652*
X027253Y049634*
X027287Y049618*
X027322Y049605*
X027357Y049595*
X027394Y049588*
X027431Y049584*
X027468Y049582*
X027505Y049584*
X027542Y049588*
X027578Y049595*
X027614Y049605*
X027649Y049618*
X027682Y049634*
X027715Y049652*
X027746Y049673*
X027775Y049696*
X027802Y049721*
X027827Y049748*
X02785Y049777*
X027871Y049808*
X027889Y04984*
X027905Y049874*
X027917Y049909*
X027927Y049945*
X027935Y049981*
X027939Y050018*
X027941Y050055*
X027939Y050092*
X027935Y050129*
X027927Y050165*
X027917Y050201*
X027905Y050236*
X027889Y05027*
X027871Y050302*
X02785Y050333*
X027827Y050362*
X027802Y050389*
X027775Y050415*
X027746Y050438*
X027715Y050458*
X027682Y050476*
X027649Y050492*
X027614Y050505*
X027578Y050515*
X027542Y050522*
X027505Y050526*
X027468Y050528*
G37*
G36*
X041068D02*
X041031Y050526D01*
X040994Y050522*
X040957Y050515*
X040922Y050505*
X040887Y050492*
X040853Y050476*
X040821Y050458*
X04079Y050438*
X040761Y050415*
X040733Y050389*
X040708Y050362*
X040685Y050333*
X040665Y050302*
X040646Y05027*
X040631Y050236*
X040618Y050201*
X040608Y050165*
X040601Y050129*
X040596Y050092*
X040595Y050055*
X040596Y050018*
X040601Y049981*
X040608Y049945*
X040618Y049909*
X040631Y049874*
X040646Y04984*
X040665Y049808*
X040685Y049777*
X040708Y049748*
X040733Y049721*
X040761Y049695*
X04079Y049672*
X040821Y049652*
X040853Y049634*
X040887Y049618*
X040922Y049605*
X040957Y049595*
X040994Y049588*
X041031Y049584*
X041068Y049582*
X041105Y049584*
X041142Y049588*
X041178Y049595*
X041214Y049605*
X041249Y049618*
X041282Y049634*
X041315Y049652*
X041346Y049672*
X041375Y049695*
X041402Y049721*
X041427Y049748*
X04145Y049777*
X041471Y049808*
X041489Y04984*
X041505Y049874*
X041517Y049909*
X041527Y049945*
X041535Y049981*
X041539Y050018*
X041541Y050055*
X041539Y050092*
X041535Y050129*
X041527Y050165*
X041517Y050201*
X041505Y050236*
X041489Y05027*
X041471Y050302*
X04145Y050333*
X041427Y050362*
X041402Y050389*
X041375Y050415*
X041346Y050438*
X041315Y050458*
X041282Y050476*
X041249Y050492*
X041214Y050505*
X041178Y050515*
X041142Y050522*
X041105Y050526*
X041068Y050528*
G37*
G36*
X040068D02*
X040031Y050526D01*
X039994Y050522*
X039957Y050515*
X039922Y050505*
X039887Y050492*
X039853Y050476*
X039821Y050458*
X03979Y050438*
X039761Y050415*
X039733Y050389*
X039708Y050362*
X039685Y050333*
X039665Y050302*
X039646Y05027*
X039631Y050236*
X039618Y050201*
X039608Y050165*
X039601Y050129*
X039596Y050092*
X039595Y050055*
X039596Y050018*
X039601Y049981*
X039608Y049945*
X039618Y049909*
X039631Y049874*
X039646Y04984*
X039665Y049808*
X039685Y049777*
X039708Y049748*
X039733Y049721*
X039761Y049695*
X03979Y049672*
X039821Y049652*
X039853Y049634*
X039887Y049618*
X039922Y049605*
X039957Y049595*
X039994Y049588*
X040031Y049584*
X040068Y049582*
X040105Y049584*
X040142Y049588*
X040178Y049595*
X040214Y049605*
X040249Y049618*
X040282Y049634*
X040315Y049652*
X040346Y049672*
X040375Y049695*
X040402Y049721*
X040427Y049748*
X04045Y049777*
X040471Y049808*
X040489Y04984*
X040505Y049874*
X040517Y049909*
X040527Y049945*
X040535Y049981*
X040539Y050018*
X040541Y050055*
X040539Y050092*
X040535Y050129*
X040527Y050165*
X040517Y050201*
X040505Y050236*
X040489Y05027*
X040471Y050302*
X04045Y050333*
X040427Y050362*
X040402Y050389*
X040375Y050415*
X040346Y050438*
X040315Y050458*
X040282Y050476*
X040249Y050492*
X040214Y050505*
X040178Y050515*
X040142Y050522*
X040105Y050526*
X040068Y050528*
G37*
G36*
X039068D02*
X039031Y050526D01*
X038994Y050522*
X038957Y050515*
X038922Y050505*
X038887Y050492*
X038853Y050476*
X038821Y050458*
X03879Y050438*
X038761Y050415*
X038733Y050389*
X038708Y050362*
X038685Y050333*
X038665Y050302*
X038646Y05027*
X038631Y050236*
X038618Y050201*
X038608Y050165*
X038601Y050129*
X038596Y050092*
X038595Y050055*
X038596Y050018*
X038601Y049981*
X038608Y049945*
X038618Y049909*
X038631Y049874*
X038646Y04984*
X038665Y049808*
X038685Y049777*
X038708Y049748*
X038733Y049721*
X038761Y049695*
X03879Y049672*
X038821Y049652*
X038853Y049634*
X038887Y049618*
X038922Y049605*
X038957Y049595*
X038994Y049588*
X039031Y049584*
X039068Y049582*
X039105Y049584*
X039142Y049588*
X039178Y049595*
X039214Y049605*
X039249Y049618*
X039282Y049634*
X039315Y049652*
X039346Y049672*
X039375Y049695*
X039402Y049721*
X039427Y049748*
X03945Y049777*
X039471Y049808*
X039489Y04984*
X039505Y049874*
X039517Y049909*
X039527Y049945*
X039535Y049981*
X039539Y050018*
X039541Y050055*
X039539Y050092*
X039535Y050129*
X039527Y050165*
X039517Y050201*
X039505Y050236*
X039489Y05027*
X039471Y050302*
X03945Y050333*
X039427Y050362*
X039402Y050389*
X039375Y050415*
X039346Y050438*
X039315Y050458*
X039282Y050476*
X039249Y050492*
X039214Y050505*
X039178Y050515*
X039142Y050522*
X039105Y050526*
X039068Y050528*
G37*
G36*
X038068D02*
X038031Y050526D01*
X037994Y050522*
X037957Y050515*
X037922Y050505*
X037887Y050492*
X037853Y050476*
X037821Y050458*
X03779Y050438*
X037761Y050415*
X037733Y050389*
X037708Y050362*
X037685Y050333*
X037665Y050302*
X037646Y05027*
X037631Y050236*
X037618Y050201*
X037608Y050165*
X037601Y050129*
X037596Y050092*
X037595Y050055*
X037596Y050018*
X037601Y049981*
X037608Y049945*
X037618Y049909*
X037631Y049874*
X037646Y04984*
X037665Y049808*
X037685Y049777*
X037708Y049748*
X037733Y049721*
X037761Y049695*
X03779Y049672*
X037821Y049652*
X037853Y049634*
X037887Y049618*
X037922Y049605*
X037957Y049595*
X037994Y049588*
X038031Y049584*
X038068Y049582*
X038105Y049584*
X038142Y049588*
X038178Y049595*
X038214Y049605*
X038249Y049618*
X038282Y049634*
X038315Y049652*
X038346Y049672*
X038375Y049695*
X038402Y049721*
X038427Y049748*
X03845Y049777*
X038471Y049808*
X038489Y04984*
X038505Y049874*
X038517Y049909*
X038527Y049945*
X038535Y049981*
X038539Y050018*
X038541Y050055*
X038539Y050092*
X038535Y050129*
X038527Y050165*
X038517Y050201*
X038505Y050236*
X038489Y05027*
X038471Y050302*
X03845Y050333*
X038427Y050362*
X038402Y050389*
X038375Y050415*
X038346Y050438*
X038315Y050458*
X038282Y050476*
X038249Y050492*
X038214Y050505*
X038178Y050515*
X038142Y050522*
X038105Y050526*
X038068Y050528*
G37*
G36*
X029246Y049276D02*
X029221Y049275D01*
X029197Y04927*
X029174Y049264*
X029152Y049254*
X02913Y049243*
X02911Y049229*
X029092Y049212*
X029076Y049194*
X029062Y049174*
X02905Y049153*
X029041Y049131*
X029034Y049107*
X02903Y049083*
X029029Y049059*
X02903Y049035*
X029034Y049011*
X029041Y048987*
X02905Y048965*
X029062Y048944*
X029076Y048924*
X029092Y048906*
X02911Y048889*
X02913Y048875*
X029152Y048864*
X029174Y048854*
X029197Y048848*
X029221Y048844*
X029246Y048842*
X02927Y048844*
X029294Y048848*
X029317Y048854*
X02934Y048864*
X029361Y048875*
X029381Y048889*
X029399Y048906*
X029415Y048924*
X029429Y048944*
X029441Y048965*
X02945Y048987*
X029457Y049011*
X029461Y049035*
X029463Y049059*
X029461Y049083*
X029457Y049107*
X02945Y049131*
X029441Y049153*
X029429Y049174*
X029415Y049194*
X029399Y049212*
X029381Y049229*
X029361Y049243*
X02934Y049254*
X029317Y049264*
X029294Y04927*
X02927Y049275*
X029246Y049276*
G37*
G36*
X030728Y048914D02*
X030704Y048912D01*
X03068Y048908*
X030656Y048901*
X030634Y048892*
X030613Y04888*
X030593Y048866*
X030575Y04885*
X030558Y048832*
X030544Y048812*
X030533Y048791*
X030523Y048768*
X030517Y048745*
X030512Y048721*
X030511Y048697*
X030512Y048672*
X030517Y048648*
X030523Y048625*
X030533Y048603*
X030544Y048581*
X030558Y048561*
X030575Y048543*
X030593Y048527*
X030613Y048513*
X030634Y048501*
X030656Y048492*
X03068Y048485*
X030704Y048481*
X030728Y04848*
X030752Y048481*
X030776Y048485*
X0308Y048492*
X030822Y048501*
X030843Y048513*
X030863Y048527*
X030881Y048543*
X030898Y048561*
X030912Y048581*
X030923Y048603*
X030933Y048625*
X030939Y048648*
X030943Y048672*
X030945Y048697*
X030943Y048721*
X030939Y048745*
X030933Y048768*
X030923Y048791*
X030912Y048812*
X030898Y048832*
X030881Y04885*
X030863Y048866*
X030843Y04888*
X030822Y048892*
X0308Y048901*
X030776Y048908*
X030752Y048912*
X030728Y048914*
G37*
G36*
X028435Y048708D02*
X02841Y048707D01*
X028386Y048703*
X028363Y048696*
X028341Y048687*
X028319Y048675*
X028299Y048661*
X028281Y048645*
X028265Y048627*
X028251Y048607*
X028239Y048585*
X02823Y048563*
X028223Y04854*
X028219Y048516*
X028218Y048491*
X028219Y048467*
X028223Y048443*
X02823Y04842*
X028239Y048397*
X028251Y048376*
X028265Y048356*
X028281Y048338*
X028299Y048322*
X028319Y048308*
X028341Y048296*
X028363Y048287*
X028386Y04828*
X02841Y048276*
X028435Y048274*
X028459Y048276*
X028483Y04828*
X028506Y048287*
X028529Y048296*
X02855Y048308*
X02857Y048322*
X028588Y048338*
X028604Y048356*
X028618Y048376*
X02863Y048397*
X028639Y04842*
X028646Y048443*
X02865Y048467*
X028652Y048491*
X02865Y048516*
X028646Y04854*
X028639Y048563*
X02863Y048585*
X028618Y048607*
X028604Y048627*
X028588Y048645*
X02857Y048661*
X02855Y048675*
X028529Y048687*
X028506Y048696*
X028483Y048703*
X028459Y048707*
X028435Y048708*
G37*
G36*
X034031Y047938D02*
X034006Y047936D01*
X033982Y047932*
X033959Y047926*
X033937Y047916*
X033915Y047905*
X033895Y04789*
X033877Y047874*
X033861Y047856*
X033847Y047836*
X033835Y047815*
X033826Y047793*
X033819Y047769*
X033815Y047745*
X033814Y047721*
X033815Y047697*
X033819Y047673*
X033826Y047649*
X033835Y047627*
X033847Y047605*
X033861Y047586*
X033877Y047568*
X033895Y047551*
X033915Y047537*
X033937Y047525*
X033959Y047516*
X033982Y047509*
X034006Y047505*
X034031Y047504*
X034055Y047505*
X034079Y047509*
X034102Y047516*
X034125Y047525*
X034146Y047537*
X034166Y047551*
X034184Y047568*
X0342Y047586*
X034214Y047605*
X034226Y047627*
X034235Y047649*
X034242Y047673*
X034246Y047697*
X034248Y047721*
X034246Y047745*
X034242Y047769*
X034235Y047793*
X034226Y047815*
X034214Y047836*
X0342Y047856*
X034184Y047874*
X034166Y04789*
X034146Y047905*
X034125Y047916*
X034102Y047926*
X034079Y047932*
X034055Y047936*
X034031Y047938*
G37*
G36*
X028354Y046153D02*
X028329Y046152D01*
X028305Y046148*
X028282Y046141*
X028259Y046132*
X028238Y04612*
X028218Y046106*
X0282Y04609*
X028184Y046072*
X02817Y046052*
X028158Y046031*
X028149Y046008*
X028142Y045985*
X028138Y045961*
X028137Y045937*
X028138Y045912*
X028142Y045888*
X028149Y045865*
X028158Y045843*
X02817Y045821*
X028184Y045801*
X0282Y045783*
X028218Y045767*
X028238Y045753*
X028259Y045741*
X028282Y045732*
X028305Y045725*
X028329Y045721*
X028354Y04572*
X028378Y045721*
X028402Y045725*
X028425Y045732*
X028448Y045741*
X028469Y045753*
X028489Y045767*
X028507Y045783*
X028523Y045801*
X028537Y045821*
X028549Y045843*
X028558Y045865*
X028565Y045888*
X028569Y045912*
X02857Y045937*
X028569Y045961*
X028565Y045985*
X028558Y046008*
X028549Y046031*
X028537Y046052*
X028523Y046072*
X028507Y04609*
X028489Y046106*
X028469Y04612*
X028448Y046132*
X028425Y046141*
X028402Y046148*
X028378Y046152*
X028354Y046153*
G37*
G36*
X031111Y046113D02*
X031087Y046112D01*
X031063Y046108*
X031039Y046101*
X031017Y046091*
X030996Y04608*
X030976Y046066*
X030958Y046049*
X030941Y046031*
X030927Y046011*
X030916Y04599*
X030906Y045968*
X0309Y045944*
X030896Y04592*
X030894Y045896*
X030896Y045872*
X0309Y045848*
X030906Y045824*
X030916Y045802*
X030927Y045781*
X030941Y045761*
X030958Y045743*
X030976Y045726*
X030996Y045712*
X031017Y045701*
X031039Y045691*
X031063Y045685*
X031087Y045681*
X031111Y045679*
X031135Y045681*
X031159Y045685*
X031183Y045691*
X031205Y045701*
X031226Y045712*
X031246Y045726*
X031264Y045743*
X031281Y045761*
X031295Y045781*
X031306Y045802*
X031316Y045824*
X031322Y045848*
X031327Y045872*
X031328Y045896*
X031327Y04592*
X031322Y045944*
X031316Y045968*
X031306Y04599*
X031295Y046011*
X031281Y046031*
X031264Y046049*
X031246Y046066*
X031226Y04608*
X031205Y046091*
X031183Y046101*
X031159Y046108*
X031135Y046112*
X031111Y046113*
G37*
G36*
X022768Y046166D02*
X022739Y046164D01*
X02271Y046161*
X022682Y046154*
X022654Y046145*
X022627Y046134*
X022601Y046121*
X022576Y046105*
X022553Y046087*
X022531Y046068*
X022512Y046046*
X022494Y046023*
X022478Y045998*
X022465Y045972*
X022454Y045945*
X022445Y045917*
X022438Y045889*
X022435Y04586*
X022433Y045831*
X022435Y045802*
X022438Y045773*
X022445Y045744*
X022454Y045716*
X022465Y045689*
X022478Y045663*
X022494Y045639*
X022512Y045615*
X022531Y045594*
X022553Y045574*
X022576Y045556*
X022601Y045541*
X022627Y045527*
X022654Y045516*
X022682Y045507*
X02271Y045501*
X022739Y045497*
X022768Y045496*
X022798Y045497*
X022826Y045501*
X022855Y045507*
X022883Y045516*
X02291Y045527*
X022936Y045541*
X02296Y045556*
X022984Y045574*
X023005Y045594*
X023025Y045615*
X023043Y045639*
X023058Y045663*
X023072Y045689*
X023083Y045716*
X023092Y045744*
X023098Y045773*
X023102Y045802*
X023103Y045831*
X023102Y04586*
X023098Y045889*
X023092Y045917*
X023083Y045945*
X023072Y045972*
X023058Y045998*
X023043Y046023*
X023025Y046046*
X023005Y046068*
X022984Y046087*
X02296Y046105*
X022936Y046121*
X02291Y046134*
X022883Y046145*
X022855Y046154*
X022826Y046161*
X022798Y046164*
X022768Y046166*
G37*
G36*
X033065Y045545D02*
X033041Y045544D01*
X033017Y04554*
X032993Y045533*
X032971Y045524*
X03295Y045512*
X03293Y045498*
X032912Y045482*
X032895Y045464*
X032881Y045444*
X03287Y045422*
X03286Y0454*
X032854Y045377*
X032849Y045353*
X032848Y045328*
X032849Y045304*
X032854Y04528*
X03286Y045257*
X03287Y045234*
X032881Y045213*
X032895Y045193*
X032912Y045175*
X03293Y045159*
X03295Y045145*
X032971Y045133*
X032993Y045124*
X033017Y045117*
X033041Y045113*
X033065Y045111*
X033089Y045113*
X033113Y045117*
X033137Y045124*
X033159Y045133*
X03318Y045145*
X0332Y045159*
X033218Y045175*
X033235Y045193*
X033249Y045213*
X03326Y045234*
X03327Y045257*
X033276Y04528*
X03328Y045304*
X033282Y045328*
X03328Y045353*
X033276Y045377*
X03327Y0454*
X03326Y045422*
X033249Y045444*
X033235Y045464*
X033218Y045482*
X0332Y045498*
X03318Y045512*
X033159Y045524*
X033137Y045533*
X033113Y04554*
X033089Y045544*
X033065Y045545*
G37*
G36*
X032571D02*
X032547Y045544D01*
X032523Y04554*
X032499Y045533*
X032477Y045524*
X032455Y045512*
X032436Y045498*
X032418Y045482*
X032401Y045464*
X032387Y045444*
X032375Y045422*
X032366Y0454*
X032359Y045377*
X032355Y045353*
X032354Y045328*
X032355Y045304*
X032359Y04528*
X032366Y045257*
X032375Y045234*
X032387Y045213*
X032401Y045193*
X032418Y045175*
X032436Y045159*
X032455Y045145*
X032477Y045133*
X032499Y045124*
X032523Y045117*
X032547Y045113*
X032571Y045111*
X032595Y045113*
X032619Y045117*
X032643Y045124*
X032665Y045133*
X032686Y045145*
X032706Y045159*
X032724Y045175*
X03274Y045193*
X032754Y045213*
X032766Y045234*
X032776Y045257*
X032782Y04528*
X032786Y045304*
X032788Y045328*
X032786Y045353*
X032782Y045377*
X032776Y0454*
X032766Y045422*
X032754Y045444*
X03274Y045464*
X032724Y045482*
X032706Y045498*
X032686Y045512*
X032665Y045524*
X032643Y045533*
X032619Y04554*
X032595Y045544*
X032571Y045545*
G37*
G36*
X022768Y045378D02*
X022739Y045377D01*
X02271Y045373*
X022682Y045367*
X022654Y045358*
X022627Y045347*
X022601Y045333*
X022576Y045318*
X022553Y0453*
X022531Y04528*
X022512Y045259*
X022494Y045235*
X022478Y045211*
X022465Y045185*
X022454Y045158*
X022445Y04513*
X022438Y045101*
X022435Y045072*
X022433Y045043*
X022435Y045014*
X022438Y044985*
X022445Y044957*
X022454Y044929*
X022465Y044902*
X022478Y044876*
X022494Y044851*
X022512Y044828*
X022531Y044806*
X022553Y044787*
X022576Y044769*
X022601Y044753*
X022627Y04474*
X022654Y044729*
X022682Y04472*
X02271Y044713*
X022739Y04471*
X022768Y044708*
X022798Y04471*
X022826Y044713*
X022855Y04472*
X022883Y044729*
X02291Y04474*
X022936Y044753*
X02296Y044769*
X022984Y044787*
X023005Y044806*
X023025Y044828*
X023043Y044851*
X023058Y044876*
X023072Y044902*
X023083Y044929*
X023092Y044957*
X023098Y044985*
X023102Y045014*
X023103Y045043*
X023102Y045072*
X023098Y045101*
X023092Y04513*
X023083Y045158*
X023072Y045185*
X023058Y045211*
X023043Y045235*
X023025Y045259*
X023005Y04528*
X022984Y0453*
X02296Y045318*
X022936Y045333*
X02291Y045347*
X022883Y045358*
X022855Y045367*
X022826Y045373*
X022798Y045377*
X022768Y045378*
G37*
G36*
X042871Y044718D02*
X042847Y044717D01*
X042823Y044713*
X042799Y044706*
X042777Y044697*
X042755Y044685*
X042736Y044671*
X042718Y044655*
X042701Y044636*
X042687Y044617*
X042675Y044595*
X042666Y044573*
X042659Y044549*
X042655Y044525*
X042654Y044501*
X042655Y044477*
X042659Y044453*
X042666Y04443*
X042675Y044407*
X042687Y044386*
X042701Y044366*
X042718Y044348*
X042736Y044332*
X042755Y044318*
X042777Y044306*
X042799Y044296*
X042823Y04429*
X042847Y044286*
X042871Y044284*
X042895Y044286*
X042919Y04429*
X042943Y044296*
X042965Y044306*
X042986Y044318*
X043006Y044332*
X043024Y044348*
X04304Y044366*
X043054Y044386*
X043066Y044407*
X043076Y04443*
X043082Y044453*
X043086Y044477*
X043088Y044501*
X043086Y044525*
X043082Y044549*
X043076Y044573*
X043066Y044595*
X043054Y044617*
X04304Y044636*
X043024Y044655*
X043006Y044671*
X042986Y044685*
X042965Y044697*
X042943Y044706*
X042919Y044713*
X042895Y044717*
X042871Y044718*
G37*
G36*
X039667D02*
X039643Y044717D01*
X039619Y044713*
X039596Y044706*
X039573Y044697*
X039552Y044685*
X039532Y044671*
X039514Y044655*
X039498Y044636*
X039484Y044617*
X039472Y044595*
X039463Y044573*
X039456Y044549*
X039452Y044525*
X03945Y044501*
X039452Y044477*
X039456Y044453*
X039463Y04443*
X039472Y044407*
X039484Y044386*
X039498Y044366*
X039514Y044348*
X039532Y044332*
X039552Y044318*
X039573Y044306*
X039596Y044296*
X039619Y04429*
X039643Y044286*
X039667Y044284*
X039692Y044286*
X039716Y04429*
X039739Y044296*
X039761Y044306*
X039783Y044318*
X039803Y044332*
X039821Y044348*
X039837Y044366*
X039851Y044386*
X039863Y044407*
X039872Y04443*
X039879Y044453*
X039883Y044477*
X039884Y044501*
X039883Y044525*
X039879Y044549*
X039872Y044573*
X039863Y044595*
X039851Y044617*
X039837Y044636*
X039821Y044655*
X039803Y044671*
X039783Y044685*
X039761Y044697*
X039739Y044706*
X039716Y044713*
X039692Y044717*
X039667Y044718*
G37*
G36*
X02975Y044711D02*
X029725Y04471D01*
X029701Y044706*
X029678Y044699*
X029655Y044689*
X029634Y044678*
X029614Y044664*
X029596Y044647*
X02958Y044629*
X029566Y044609*
X029554Y044588*
X029545Y044566*
X029538Y044542*
X029534Y044518*
X029533Y044494*
X029534Y04447*
X029538Y044446*
X029545Y044422*
X029554Y0444*
X029566Y044379*
X02958Y044359*
X029596Y044341*
X029614Y044325*
X029634Y04431*
X029655Y044299*
X029678Y044289*
X029701Y044283*
X029725Y044279*
X02975Y044277*
X029774Y044279*
X029798Y044283*
X029821Y044289*
X029844Y044299*
X029865Y04431*
X029885Y044325*
X029903Y044341*
X029919Y044359*
X029933Y044379*
X029945Y0444*
X029954Y044422*
X029961Y044446*
X029965Y04447*
X029966Y044494*
X029965Y044518*
X029961Y044542*
X029954Y044566*
X029945Y044588*
X029933Y044609*
X029919Y044629*
X029903Y044647*
X029885Y044664*
X029865Y044678*
X029844Y044689*
X029821Y044699*
X029798Y044706*
X029774Y04471*
X02975Y044711*
G37*
G36*
X022768Y044591D02*
X022739Y04459D01*
X02271Y044586*
X022682Y044579*
X022654Y044571*
X022627Y044559*
X022601Y044546*
X022576Y04453*
X022553Y044513*
X022531Y044493*
X022512Y044471*
X022494Y044448*
X022478Y044423*
X022465Y044397*
X022454Y04437*
X022445Y044343*
X022438Y044314*
X022435Y044285*
X022433Y044256*
X022435Y044227*
X022438Y044198*
X022445Y044169*
X022454Y044141*
X022465Y044114*
X022478Y044088*
X022494Y044064*
X022512Y044041*
X022531Y044019*
X022553Y043999*
X022576Y043982*
X022601Y043966*
X022627Y043952*
X022654Y043941*
X022682Y043932*
X02271Y043926*
X022739Y043922*
X022768Y043921*
X022798Y043922*
X022826Y043926*
X022855Y043932*
X022883Y043941*
X02291Y043952*
X022936Y043966*
X02296Y043982*
X022984Y043999*
X023005Y044019*
X023025Y044041*
X023043Y044064*
X023058Y044088*
X023072Y044114*
X023083Y044141*
X023092Y044169*
X023098Y044198*
X023102Y044227*
X023103Y044256*
X023102Y044285*
X023098Y044314*
X023092Y044343*
X023083Y04437*
X023072Y044397*
X023058Y044423*
X023043Y044448*
X023025Y044471*
X023005Y044493*
X022984Y044513*
X02296Y04453*
X022936Y044546*
X02291Y044559*
X022883Y044571*
X022855Y044579*
X022826Y044586*
X022798Y04459*
X022768Y044591*
G37*
G36*
X028101Y044338D02*
X028077Y044336D01*
X028053Y044332*
X028029Y044326*
X028007Y044316*
X027986Y044305*
X027966Y044291*
X027948Y044274*
X027932Y044256*
X027917Y044236*
X027906Y044215*
X027896Y044193*
X02789Y044169*
X027886Y044145*
X027884Y044121*
X027886Y044097*
X02789Y044073*
X027896Y044049*
X027906Y044027*
X027917Y044006*
X027932Y043986*
X027948Y043968*
X027966Y043951*
X027986Y043937*
X028007Y043926*
X028029Y043916*
X028053Y04391*
X028077Y043905*
X028101Y043904*
X028125Y043905*
X028149Y04391*
X028173Y043916*
X028195Y043926*
X028216Y043937*
X028236Y043951*
X028254Y043968*
X028271Y043986*
X028285Y044006*
X028296Y044027*
X028306Y044049*
X028313Y044073*
X028317Y044097*
X028318Y044121*
X028317Y044145*
X028313Y044169*
X028306Y044193*
X028296Y044215*
X028285Y044236*
X028271Y044256*
X028254Y044274*
X028236Y044291*
X028216Y044305*
X028195Y044316*
X028173Y044326*
X028149Y044332*
X028125Y044336*
X028101Y044338*
G37*
G36*
X033666Y044329D02*
X033641Y044327D01*
X033617Y044323*
X033594Y044317*
X033572Y044307*
X03355Y044295*
X033531Y044281*
X033512Y044265*
X033496Y044247*
X033482Y044227*
X03347Y044206*
X033461Y044183*
X033454Y04416*
X03345Y044136*
X033449Y044112*
X03345Y044088*
X033454Y044064*
X033461Y04404*
X03347Y044018*
X033482Y043996*
X033496Y043977*
X033512Y043958*
X033531Y043942*
X03355Y043928*
X033572Y043916*
X033594Y043907*
X033617Y0439*
X033641Y043896*
X033666Y043895*
X03369Y043896*
X033714Y0439*
X033737Y043907*
X03376Y043916*
X033781Y043928*
X033801Y043942*
X033819Y043958*
X033835Y043977*
X033849Y043996*
X033861Y044018*
X03387Y04404*
X033877Y044064*
X033881Y044088*
X033883Y044112*
X033881Y044136*
X033877Y04416*
X03387Y044183*
X033861Y044206*
X033849Y044227*
X033835Y044247*
X033819Y044265*
X033801Y044281*
X033781Y044295*
X03376Y044307*
X033737Y044317*
X033714Y044323*
X03369Y044327*
X033666Y044329*
G37*
G36*
X042871Y044218D02*
X042847Y044217D01*
X042823Y044213*
X042799Y044206*
X042777Y044197*
X042755Y044185*
X042736Y044171*
X042718Y044155*
X042701Y044136*
X042687Y044117*
X042675Y044095*
X042666Y044073*
X042659Y044049*
X042655Y044025*
X042654Y044001*
X042655Y043977*
X042659Y043953*
X042666Y04393*
X042675Y043907*
X042687Y043886*
X042701Y043866*
X042718Y043848*
X042736Y043832*
X042755Y043818*
X042777Y043806*
X042799Y043796*
X042823Y04379*
X042847Y043786*
X042871Y043784*
X042895Y043786*
X042919Y04379*
X042943Y043796*
X042965Y043806*
X042986Y043818*
X043006Y043832*
X043024Y043848*
X04304Y043866*
X043054Y043886*
X043066Y043907*
X043076Y04393*
X043082Y043953*
X043086Y043977*
X043088Y044001*
X043086Y044025*
X043082Y044049*
X043076Y044073*
X043066Y044095*
X043054Y044117*
X04304Y044136*
X043024Y044155*
X043006Y044171*
X042986Y044185*
X042965Y044197*
X042943Y044206*
X042919Y044213*
X042895Y044217*
X042871Y044218*
G37*
G36*
X040124D02*
X0401Y044217D01*
X040076Y044213*
X040053Y044206*
X04003Y044197*
X040009Y044185*
X039989Y044171*
X039971Y044155*
X039955Y044136*
X039941Y044117*
X039929Y044095*
X03992Y044073*
X039913Y044049*
X039909Y044025*
X039908Y044001*
X039909Y043977*
X039913Y043953*
X03992Y04393*
X039929Y043907*
X039941Y043886*
X039955Y043866*
X039971Y043848*
X039989Y043832*
X040009Y043818*
X04003Y043806*
X040053Y043796*
X040076Y04379*
X0401Y043786*
X040124Y043784*
X040149Y043786*
X040173Y04379*
X040196Y043796*
X040219Y043806*
X04024Y043818*
X04026Y043832*
X040278Y043848*
X040294Y043866*
X040308Y043886*
X04032Y043907*
X040329Y04393*
X040336Y043953*
X04034Y043977*
X040341Y044001*
X04034Y044025*
X040336Y044049*
X040329Y044073*
X04032Y044095*
X040308Y044117*
X040294Y044136*
X040278Y044155*
X04026Y044171*
X04024Y044185*
X040219Y044197*
X040196Y044206*
X040173Y044213*
X040149Y044217*
X040124Y044218*
G37*
G36*
X022768Y043803D02*
X022739Y043802D01*
X02271Y043798*
X022682Y043792*
X022654Y043783*
X022627Y043772*
X022601Y043759*
X022576Y043743*
X022553Y043725*
X022531Y043705*
X022512Y043684*
X022494Y043661*
X022478Y043636*
X022465Y04361*
X022454Y043583*
X022445Y043555*
X022438Y043527*
X022435Y043498*
X022433Y043468*
X022435Y043439*
X022438Y04341*
X022445Y043382*
X022454Y043354*
X022465Y043327*
X022478Y043301*
X022494Y043276*
X022512Y043253*
X022531Y043232*
X022553Y043212*
X022576Y043194*
X022601Y043178*
X022627Y043165*
X022654Y043154*
X022682Y043145*
X02271Y043139*
X022739Y043135*
X022768Y043134*
X022798Y043135*
X022826Y043139*
X022855Y043145*
X022883Y043154*
X02291Y043165*
X022936Y043178*
X02296Y043194*
X022984Y043212*
X023005Y043232*
X023025Y043253*
X023043Y043276*
X023058Y043301*
X023072Y043327*
X023083Y043354*
X023092Y043382*
X023098Y04341*
X023102Y043439*
X023103Y043468*
X023102Y043498*
X023098Y043527*
X023092Y043555*
X023083Y043583*
X023072Y04361*
X023058Y043636*
X023043Y043661*
X023025Y043684*
X023005Y043705*
X022984Y043725*
X02296Y043743*
X022936Y043759*
X02291Y043772*
X022883Y043783*
X022855Y043792*
X022826Y043798*
X022798Y043802*
X022768Y043803*
G37*
G36*
X02975Y04353D02*
X029725Y043529D01*
X029701Y043524*
X029678Y043518*
X029656Y043508*
X029634Y043497*
X029614Y043483*
X029596Y043466*
X02958Y043448*
X029566Y043428*
X029554Y043407*
X029545Y043385*
X029538Y043361*
X029534Y043337*
X029533Y043313*
X029534Y043289*
X029538Y043265*
X029545Y043241*
X029554Y043219*
X029566Y043198*
X02958Y043178*
X029596Y04316*
X029614Y043143*
X029634Y043129*
X029656Y043118*
X029678Y043108*
X029701Y043102*
X029725Y043097*
X02975Y043096*
X029774Y043097*
X029798Y043102*
X029821Y043108*
X029844Y043118*
X029865Y043129*
X029885Y043143*
X029903Y04316*
X029919Y043178*
X029933Y043198*
X029945Y043219*
X029954Y043241*
X029961Y043265*
X029965Y043289*
X029966Y043313*
X029965Y043337*
X029961Y043361*
X029954Y043385*
X029945Y043407*
X029933Y043428*
X029919Y043448*
X029903Y043466*
X029885Y043483*
X029865Y043497*
X029844Y043508*
X029821Y043518*
X029798Y043524*
X029774Y043529*
X02975Y04353*
G37*
G36*
X046485Y042777D02*
X04646Y042775D01*
X046436Y042771*
X046413Y042764*
X046391Y042755*
X046369Y042743*
X046349Y042729*
X046331Y042713*
X046315Y042695*
X046301Y042675*
X046289Y042654*
X04628Y042631*
X046273Y042608*
X046269Y042584*
X046268Y04256*
X046269Y042535*
X046273Y042511*
X04628Y042488*
X046289Y042466*
X046301Y042444*
X046315Y042425*
X046331Y042406*
X046349Y04239*
X046369Y042376*
X046391Y042364*
X046413Y042355*
X046436Y042348*
X04646Y042344*
X046485Y042343*
X046509Y042344*
X046533Y042348*
X046556Y042355*
X046579Y042364*
X0466Y042376*
X04662Y04239*
X046638Y042406*
X046654Y042425*
X046668Y042444*
X04668Y042466*
X046689Y042488*
X046696Y042511*
X0467Y042535*
X046702Y04256*
X0467Y042584*
X046696Y042608*
X046689Y042631*
X04668Y042654*
X046668Y042675*
X046654Y042695*
X046638Y042713*
X04662Y042729*
X0466Y042743*
X046579Y042755*
X046556Y042764*
X046533Y042771*
X046509Y042775*
X046485Y042777*
G37*
G36*
X02975Y042585D02*
X029725Y042584D01*
X029701Y04258*
X029678Y042573*
X029656Y042564*
X029634Y042552*
X029614Y042538*
X029596Y042521*
X02958Y042503*
X029566Y042484*
X029554Y042462*
X029545Y04244*
X029538Y042416*
X029534Y042392*
X029533Y042368*
X029534Y042344*
X029538Y04232*
X029545Y042296*
X029554Y042274*
X029566Y042253*
X02958Y042233*
X029596Y042215*
X029614Y042199*
X029634Y042184*
X029656Y042173*
X029678Y042163*
X029701Y042157*
X029725Y042153*
X02975Y042151*
X029774Y042153*
X029798Y042157*
X029821Y042163*
X029844Y042173*
X029865Y042184*
X029885Y042199*
X029903Y042215*
X029919Y042233*
X029933Y042253*
X029945Y042274*
X029954Y042296*
X029961Y04232*
X029965Y042344*
X029966Y042368*
X029965Y042392*
X029961Y042416*
X029954Y04244*
X029945Y042462*
X029933Y042484*
X029919Y042503*
X029903Y042521*
X029885Y042538*
X029865Y042552*
X029844Y042564*
X029821Y042573*
X029798Y04258*
X029774Y042584*
X02975Y042585*
G37*
G36*
X043572Y042272D02*
X043547Y042271D01*
X043523Y042266*
X0435Y04226*
X043477Y04225*
X043456Y042239*
X043436Y042225*
X043418Y042208*
X043402Y04219*
X043388Y04217*
X043376Y042149*
X043367Y042127*
X04336Y042103*
X043356Y042079*
X043355Y042055*
X043356Y042031*
X04336Y042007*
X043367Y041983*
X043376Y041961*
X043388Y04194*
X043402Y04192*
X043418Y041902*
X043436Y041885*
X043456Y041871*
X043477Y04186*
X0435Y04185*
X043523Y041844*
X043547Y041839*
X043572Y041838*
X043596Y041839*
X04362Y041844*
X043643Y04185*
X043666Y04186*
X043687Y041871*
X043707Y041885*
X043725Y041902*
X043741Y04192*
X043755Y04194*
X043767Y041961*
X043776Y041983*
X043783Y042007*
X043787Y042031*
X043788Y042055*
X043787Y042079*
X043783Y042103*
X043776Y042127*
X043767Y042149*
X043755Y04217*
X043741Y04219*
X043725Y042208*
X043707Y042225*
X043687Y042239*
X043666Y04225*
X043643Y04226*
X04362Y042266*
X043596Y042271*
X043572Y042272*
G37*
G36*
X037194Y042261D02*
X037169Y042259D01*
X037145Y042255*
X037122Y042248*
X0371Y042239*
X037078Y042227*
X037058Y042213*
X03704Y042197*
X037024Y042179*
X03701Y042159*
X036998Y042138*
X036989Y042115*
X036982Y042092*
X036978Y042068*
X036977Y042044*
X036978Y042019*
X036982Y041995*
X036989Y041972*
X036998Y04195*
X03701Y041928*
X037024Y041908*
X03704Y04189*
X037058Y041874*
X037078Y04186*
X0371Y041848*
X037122Y041839*
X037145Y041832*
X037169Y041828*
X037194Y041827*
X037218Y041828*
X037242Y041832*
X037265Y041839*
X037288Y041848*
X037309Y04186*
X037329Y041874*
X037347Y04189*
X037363Y041908*
X037377Y041928*
X037389Y04195*
X037398Y041972*
X037405Y041995*
X037409Y042019*
X037411Y042044*
X037409Y042068*
X037405Y042092*
X037398Y042115*
X037389Y042138*
X037377Y042159*
X037363Y042179*
X037347Y042197*
X037329Y042213*
X037309Y042227*
X037288Y042239*
X037265Y042248*
X037242Y042255*
X037218Y042259*
X037194Y042261*
G37*
G36*
X028101Y042212D02*
X028077Y04221D01*
X028053Y042206*
X028029Y0422*
X028007Y04219*
X027986Y042179*
X027966Y042165*
X027948Y042148*
X027932Y04213*
X027917Y04211*
X027906Y042089*
X027896Y042067*
X02789Y042043*
X027886Y042019*
X027884Y041995*
X027886Y041971*
X02789Y041947*
X027896Y041923*
X027906Y041901*
X027917Y04188*
X027932Y04186*
X027948Y041842*
X027966Y041825*
X027986Y041811*
X028007Y0418*
X028029Y04179*
X028053Y041784*
X028077Y041779*
X028101Y041778*
X028125Y041779*
X028149Y041784*
X028173Y04179*
X028195Y0418*
X028216Y041811*
X028236Y041825*
X028254Y041842*
X028271Y04186*
X028285Y04188*
X028296Y041901*
X028306Y041923*
X028313Y041947*
X028317Y041971*
X028318Y041995*
X028317Y042019*
X028313Y042043*
X028306Y042067*
X028296Y042089*
X028285Y04211*
X028271Y04213*
X028254Y042148*
X028236Y042165*
X028216Y042179*
X028195Y04219*
X028173Y0422*
X028149Y042206*
X028125Y04221*
X028101Y042212*
G37*
G36*
X033194Y041953D02*
X03317Y041951D01*
X033146Y041947*
X033122Y041941*
X0331Y041931*
X033079Y041919*
X033059Y041905*
X033041Y041889*
X033025Y041871*
X03301Y041851*
X032999Y04183*
X032989Y041807*
X032983Y041784*
X032979Y04176*
X032977Y041736*
X032979Y041712*
X032983Y041688*
X032989Y041664*
X032999Y041642*
X03301Y04162*
X033025Y041601*
X033041Y041582*
X033059Y041566*
X033079Y041552*
X0331Y04154*
X033122Y041531*
X033146Y041524*
X03317Y04152*
X033194Y041519*
X033218Y04152*
X033242Y041524*
X033266Y041531*
X033288Y04154*
X033309Y041552*
X033329Y041566*
X033347Y041582*
X033364Y041601*
X033378Y04162*
X033389Y041642*
X033399Y041664*
X033406Y041688*
X03341Y041712*
X033411Y041736*
X03341Y04176*
X033406Y041784*
X033399Y041807*
X033389Y04183*
X033378Y041851*
X033364Y041871*
X033347Y041889*
X033329Y041905*
X033309Y041919*
X033288Y041931*
X033266Y041941*
X033242Y041947*
X033218Y041951*
X033194Y041953*
G37*
G36*
X046491Y041779D02*
X046466Y041777D01*
X046442Y041773*
X046419Y041767*
X046396Y041757*
X046375Y041745*
X046355Y041731*
X046337Y041715*
X046321Y041697*
X046307Y041677*
X046295Y041656*
X046286Y041633*
X046279Y04161*
X046275Y041586*
X046274Y041562*
X046275Y041538*
X046279Y041514*
X046286Y04149*
X046295Y041468*
X046307Y041446*
X046321Y041427*
X046337Y041408*
X046355Y041392*
X046375Y041378*
X046396Y041366*
X046419Y041357*
X046442Y04135*
X046466Y041346*
X046491Y041345*
X046515Y041346*
X046539Y04135*
X046562Y041357*
X046585Y041366*
X046606Y041378*
X046626Y041392*
X046644Y041408*
X04666Y041427*
X046674Y041446*
X046686Y041468*
X046695Y04149*
X046702Y041514*
X046706Y041538*
X046707Y041562*
X046706Y041586*
X046702Y04161*
X046695Y041633*
X046686Y041656*
X046674Y041677*
X04666Y041697*
X046644Y041715*
X046626Y041731*
X046606Y041745*
X046585Y041757*
X046562Y041767*
X046539Y041773*
X046515Y041777*
X046491Y041779*
G37*
G36*
X02975Y041404D02*
X029725Y041403D01*
X029701Y041398*
X029678Y041392*
X029656Y041382*
X029634Y041371*
X029614Y041357*
X029596Y04134*
X02958Y041322*
X029566Y041302*
X029554Y041281*
X029545Y041259*
X029538Y041235*
X029534Y041211*
X029533Y041187*
X029534Y041163*
X029538Y041139*
X029545Y041115*
X029554Y041093*
X029566Y041072*
X02958Y041052*
X029596Y041034*
X029614Y041017*
X029634Y041003*
X029656Y040992*
X029678Y040982*
X029701Y040976*
X029725Y040971*
X02975Y04097*
X029774Y040971*
X029798Y040976*
X029821Y040982*
X029844Y040992*
X029865Y041003*
X029885Y041017*
X029903Y041034*
X029919Y041052*
X029933Y041072*
X029945Y041093*
X029954Y041115*
X029961Y041139*
X029965Y041163*
X029966Y041187*
X029965Y041211*
X029961Y041235*
X029954Y041259*
X029945Y041281*
X029933Y041302*
X029919Y041322*
X029903Y04134*
X029885Y041357*
X029865Y041371*
X029844Y041382*
X029821Y041392*
X029798Y041398*
X029774Y041403*
X02975Y041404*
G37*
G36*
X043567Y041272D02*
X043543Y041271D01*
X043519Y041266*
X043495Y04126*
X043473Y04125*
X043451Y041239*
X043432Y041225*
X043413Y041208*
X043397Y04119*
X043383Y04117*
X043371Y041149*
X043362Y041127*
X043355Y041103*
X043351Y041079*
X04335Y041055*
X043351Y041031*
X043355Y041007*
X043362Y040983*
X043371Y040961*
X043383Y04094*
X043397Y04092*
X043413Y040902*
X043432Y040885*
X043451Y040871*
X043473Y04086*
X043495Y04085*
X043519Y040844*
X043543Y040839*
X043567Y040838*
X043591Y040839*
X043615Y040844*
X043638Y04085*
X043661Y04086*
X043682Y040871*
X043702Y040885*
X04372Y040902*
X043736Y04092*
X04375Y04094*
X043762Y040961*
X043772Y040983*
X043778Y041007*
X043782Y041031*
X043784Y041055*
X043782Y041079*
X043778Y041103*
X043772Y041127*
X043762Y041149*
X04375Y04117*
X043736Y04119*
X04372Y041208*
X043702Y041225*
X043682Y041239*
X043661Y04125*
X043638Y04126*
X043615Y041266*
X043591Y041271*
X043567Y041272*
G37*
G36*
X03519Y041264D02*
X035165Y041262D01*
X035141Y041258*
X035118Y041252*
X035096Y041242*
X035074Y04123*
X035055Y041216*
X035036Y0412*
X03502Y041182*
X035006Y041162*
X034994Y041141*
X034985Y041118*
X034978Y041095*
X034974Y041071*
X034973Y041047*
X034974Y041023*
X034978Y040999*
X034985Y040975*
X034994Y040953*
X035006Y040931*
X03502Y040912*
X035036Y040894*
X035055Y040877*
X035074Y040863*
X035096Y040851*
X035118Y040842*
X035141Y040835*
X035165Y040831*
X03519Y04083*
X035214Y040831*
X035238Y040835*
X035261Y040842*
X035284Y040851*
X035305Y040863*
X035325Y040877*
X035343Y040894*
X035359Y040912*
X035373Y040931*
X035385Y040953*
X035394Y040975*
X035401Y040999*
X035405Y041023*
X035407Y041047*
X035405Y041071*
X035401Y041095*
X035394Y041118*
X035385Y041141*
X035373Y041162*
X035359Y041182*
X035343Y0412*
X035325Y041216*
X035305Y04123*
X035284Y041242*
X035261Y041252*
X035238Y041258*
X035214Y041262*
X03519Y041264*
G37*
G36*
X033194Y041052D02*
X03317Y04105D01*
X033146Y041046*
X033123Y04104*
X0331Y04103*
X033079Y041018*
X033059Y041004*
X033041Y040988*
X033025Y04097*
X033011Y04095*
X032999Y040929*
X032989Y040906*
X032983Y040883*
X032979Y040859*
X032977Y040835*
X032979Y040811*
X032983Y040787*
X032989Y040763*
X032999Y040741*
X033011Y040719*
X033025Y0407*
X033041Y040681*
X033059Y040665*
X033079Y040651*
X0331Y040639*
X033123Y04063*
X033146Y040623*
X03317Y040619*
X033194Y040618*
X033218Y040619*
X033242Y040623*
X033266Y04063*
X033288Y040639*
X03331Y040651*
X033329Y040665*
X033348Y040681*
X033364Y0407*
X033378Y040719*
X03339Y040741*
X033399Y040763*
X033406Y040787*
X03341Y040811*
X033411Y040835*
X03341Y040859*
X033406Y040883*
X033399Y040906*
X03339Y040929*
X033378Y04095*
X033364Y04097*
X033348Y040988*
X033329Y041004*
X03331Y041018*
X033288Y04103*
X033266Y04104*
X033242Y041046*
X033218Y04105*
X033194Y041052*
G37*
G36*
X022799Y041176D02*
X02277Y041175D01*
X022741Y041171*
X022713Y041165*
X022685Y041156*
X022658Y041145*
X022632Y041132*
X022607Y041116*
X022584Y041098*
X022563Y041078*
X022543Y041057*
X022525Y041034*
X022509Y041009*
X022496Y040983*
X022485Y040956*
X022476Y040928*
X02247Y0409*
X022466Y040871*
X022465Y040841*
X022466Y040812*
X02247Y040783*
X022476Y040755*
X022485Y040727*
X022496Y0407*
X022509Y040674*
X022525Y040649*
X022543Y040626*
X022563Y040605*
X022584Y040585*
X022607Y040567*
X022632Y040551*
X022658Y040538*
X022685Y040527*
X022713Y040518*
X022741Y040512*
X02277Y040508*
X022799Y040506*
X022829Y040508*
X022858Y040512*
X022886Y040518*
X022914Y040527*
X022941Y040538*
X022967Y040551*
X022992Y040567*
X023015Y040585*
X023036Y040605*
X023056Y040626*
X023074Y040649*
X02309Y040674*
X023103Y0407*
X023114Y040727*
X023123Y040755*
X023129Y040783*
X023133Y040812*
X023134Y040841*
X023133Y040871*
X023129Y0409*
X023123Y040928*
X023114Y040956*
X023103Y040983*
X02309Y041009*
X023074Y041034*
X023056Y041057*
X023036Y041078*
X023015Y041098*
X022992Y041116*
X022967Y041132*
X022941Y041145*
X022914Y041156*
X022886Y041165*
X022858Y041171*
X022829Y041175*
X022799Y041176*
G37*
G36*
X022849Y040406D02*
Y040104D01*
X023152*
X02315Y040116*
X023144Y040146*
X023134Y040176*
X023122Y040205*
X023108Y040232*
X023091Y040258*
X023072Y040283*
X023051Y040306*
X023028Y040327*
X023004Y040346*
X022978Y040363*
X02295Y040377*
X022921Y040389*
X022892Y040398*
X022861Y040405*
X022849Y040406*
G37*
G36*
X022749D02*
X022738Y040405D01*
X022707Y040398*
X022678Y040389*
X022649Y040377*
X022621Y040363*
X022595Y040346*
X022571Y040327*
X022548Y040306*
X022527Y040283*
X022508Y040258*
X022491Y040232*
X022477Y040205*
X022465Y040176*
X022455Y040146*
X022449Y040116*
X022447Y040104*
X022749*
Y040406*
G37*
G36*
X02975Y040538D02*
X029725Y040536D01*
X029701Y040532*
X029678Y040526*
X029656Y040516*
X029634Y040504*
X029614Y04049*
X029596Y040474*
X02958Y040456*
X029566Y040436*
X029554Y040415*
X029545Y040392*
X029538Y040369*
X029534Y040345*
X029533Y040321*
X029534Y040297*
X029538Y040273*
X029545Y040249*
X029554Y040227*
X029566Y040205*
X02958Y040186*
X029596Y040167*
X029614Y040151*
X029634Y040137*
X029656Y040125*
X029678Y040116*
X029701Y040109*
X029725Y040105*
X02975Y040104*
X029774Y040105*
X029798Y040109*
X029821Y040116*
X029844Y040125*
X029865Y040137*
X029885Y040151*
X029903Y040167*
X029919Y040186*
X029933Y040205*
X029945Y040227*
X029954Y040249*
X029961Y040273*
X029965Y040297*
X029966Y040321*
X029965Y040345*
X029961Y040369*
X029954Y040392*
X029945Y040415*
X029933Y040436*
X029919Y040456*
X029903Y040474*
X029885Y04049*
X029865Y040504*
X029844Y040516*
X029821Y040526*
X029798Y040532*
X029774Y040536*
X02975Y040538*
G37*
G36*
X032855Y040398D02*
X032828Y040396D01*
X032802Y040392*
X032777Y040384*
X032752Y040374*
X032729Y040361*
X032707Y040346*
X032687Y040328*
X03267Y040309*
X032654Y040287*
X032642Y040264*
X032631Y040239*
X032624Y040214*
X03262Y040188*
X032618Y040161*
X03262Y040135*
X032624Y040108*
X032631Y040083*
X032642Y040058*
X032654Y040035*
X03267Y040014*
X032687Y039994*
X032707Y039976*
X032729Y039961*
X032752Y039948*
X032777Y039938*
X032802Y03993*
X032828Y039926*
X032855Y039924*
X032881Y039926*
X032907Y03993*
X032933Y039938*
X032957Y039948*
X032981Y039961*
X033002Y039976*
X033022Y039994*
X03304Y040014*
X033055Y040035*
X033068Y040058*
X033078Y040083*
X033085Y040108*
X03309Y040135*
X033091Y040161*
X03309Y040188*
X033085Y040214*
X033078Y040239*
X033068Y040264*
X033055Y040287*
X03304Y040309*
X033022Y040328*
X033002Y040346*
X032981Y040361*
X032957Y040374*
X032933Y040384*
X032907Y040392*
X032881Y040396*
X032855Y040398*
G37*
G36*
X041452Y040274D02*
X041427Y040272D01*
X041403Y040268*
X04138Y040261*
X041357Y040252*
X041336Y04024*
X041316Y040226*
X041298Y04021*
X041282Y040192*
X041268Y040172*
X041256Y040151*
X041247Y040128*
X04124Y040105*
X041236Y040081*
X041235Y040057*
X041236Y040032*
X04124Y040008*
X041247Y039985*
X041256Y039963*
X041268Y039941*
X041282Y039921*
X041298Y039903*
X041316Y039887*
X041336Y039873*
X041357Y039861*
X04138Y039852*
X041403Y039845*
X041427Y039841*
X041452Y03984*
X041476Y039841*
X0415Y039845*
X041523Y039852*
X041546Y039861*
X041567Y039873*
X041587Y039887*
X041605Y039903*
X041621Y039921*
X041635Y039941*
X041647Y039963*
X041656Y039985*
X041663Y040008*
X041667Y040032*
X041668Y040057*
X041667Y040081*
X041663Y040105*
X041656Y040128*
X041647Y040151*
X041635Y040172*
X041621Y040192*
X041605Y04021*
X041587Y040226*
X041567Y04024*
X041546Y040252*
X041523Y040261*
X0415Y040268*
X041476Y040272*
X041452Y040274*
G37*
G36*
X043567Y040272D02*
X043543Y040271D01*
X043519Y040266*
X043495Y04026*
X043473Y04025*
X043451Y040239*
X043432Y040225*
X043413Y040208*
X043397Y04019*
X043383Y04017*
X043371Y040149*
X043362Y040127*
X043355Y040103*
X043351Y040079*
X04335Y040055*
X043351Y040031*
X043355Y040007*
X043362Y039983*
X043371Y039961*
X043383Y03994*
X043397Y03992*
X043413Y039902*
X043432Y039885*
X043451Y039871*
X043473Y03986*
X043495Y03985*
X043519Y039844*
X043543Y039839*
X043567Y039838*
X043591Y039839*
X043615Y039844*
X043638Y03985*
X043661Y03986*
X043682Y039871*
X043702Y039885*
X04372Y039902*
X043736Y03992*
X04375Y03994*
X043762Y039961*
X043772Y039983*
X043778Y040007*
X043782Y040031*
X043784Y040055*
X043782Y040079*
X043778Y040103*
X043772Y040127*
X043762Y040149*
X04375Y04017*
X043736Y04019*
X04372Y040208*
X043702Y040225*
X043682Y040239*
X043661Y04025*
X043638Y04026*
X043615Y040266*
X043591Y040271*
X043567Y040272*
G37*
G36*
X023152Y040004D02*
X022849D01*
Y039702*
X022861Y039703*
X022892Y03971*
X022921Y039719*
X02295Y039731*
X022978Y039746*
X023004Y039762*
X023028Y039781*
X023051Y039802*
X023072Y039825*
X023091Y03985*
X023108Y039876*
X023122Y039904*
X023134Y039932*
X023144Y039962*
X02315Y039992*
X023152Y040004*
G37*
G36*
X022749D02*
X022447D01*
X022449Y039992*
X022455Y039962*
X022465Y039932*
X022477Y039904*
X022491Y039876*
X022508Y03985*
X022527Y039825*
X022548Y039802*
X022571Y039781*
X022595Y039762*
X022621Y039746*
X022649Y039731*
X022678Y039719*
X022707Y03971*
X022738Y039703*
X022749Y039702*
Y040004*
G37*
G36*
X028101Y040081D02*
X028077Y04008D01*
X028053Y040076*
X028029Y040069*
X028007Y04006*
X027986Y040048*
X027966Y040034*
X027948Y040018*
X027932Y039999*
X027917Y03998*
X027906Y039958*
X027896Y039936*
X02789Y039913*
X027886Y039889*
X027884Y039864*
X027886Y03984*
X02789Y039816*
X027896Y039793*
X027906Y03977*
X027917Y039749*
X027932Y039729*
X027948Y039711*
X027966Y039695*
X027986Y039681*
X028007Y039669*
X028029Y03966*
X028053Y039653*
X028077Y039649*
X028101Y039647*
X028125Y039649*
X028149Y039653*
X028173Y03966*
X028195Y039669*
X028216Y039681*
X028236Y039695*
X028254Y039711*
X028271Y039729*
X028285Y039749*
X028296Y03977*
X028306Y039793*
X028313Y039816*
X028317Y03984*
X028318Y039864*
X028317Y039889*
X028313Y039913*
X028306Y039936*
X028296Y039958*
X028285Y03998*
X028271Y039999*
X028254Y040018*
X028236Y040034*
X028216Y040048*
X028195Y04006*
X028173Y040069*
X028149Y040076*
X028125Y04008*
X028101Y040081*
G37*
G36*
X032855Y039807D02*
X032828Y039805D01*
X032802Y039801*
X032777Y039793*
X032752Y039783*
X032729Y03977*
X032707Y039755*
X032687Y039737*
X03267Y039718*
X032654Y039696*
X032642Y039673*
X032631Y039648*
X032624Y039623*
X03262Y039597*
X032618Y03957*
X03262Y039544*
X032624Y039517*
X032631Y039492*
X032642Y039467*
X032654Y039444*
X03267Y039423*
X032687Y039403*
X032707Y039385*
X032729Y03937*
X032752Y039357*
X032777Y039347*
X032802Y039339*
X032828Y039335*
X032855Y039333*
X032881Y039335*
X032907Y039339*
X032933Y039347*
X032957Y039357*
X032981Y03937*
X033002Y039385*
X033022Y039403*
X03304Y039423*
X033055Y039444*
X033068Y039467*
X033078Y039492*
X033085Y039517*
X03309Y039544*
X033091Y03957*
X03309Y039597*
X033085Y039623*
X033078Y039648*
X033068Y039673*
X033055Y039696*
X03304Y039718*
X033022Y039737*
X033002Y039755*
X032981Y03977*
X032957Y039783*
X032933Y039793*
X032907Y039801*
X032881Y039805*
X032855Y039807*
G37*
G36*
X030097Y039625D02*
X030073Y039623D01*
X030049Y039619*
X030026Y039613*
X030003Y039603*
X029982Y039592*
X029962Y039577*
X029944Y039561*
X029928Y039543*
X029914Y039523*
X029902Y039502*
X029893Y039479*
X029886Y039456*
X029882Y039432*
X02988Y039408*
X029882Y039384*
X029886Y03936*
X029893Y039336*
X029902Y039314*
X029914Y039292*
X029928Y039273*
X029944Y039255*
X029962Y039238*
X029982Y039224*
X030003Y039212*
X030026Y039203*
X030049Y039196*
X030073Y039192*
X030097Y039191*
X030122Y039192*
X030145Y039196*
X030169Y039203*
X030191Y039212*
X030213Y039224*
X030232Y039238*
X030251Y039255*
X030267Y039273*
X030281Y039292*
X030293Y039314*
X030302Y039336*
X030309Y03936*
X030313Y039384*
X030314Y039408*
X030313Y039432*
X030309Y039456*
X030302Y039479*
X030293Y039502*
X030281Y039523*
X030267Y039543*
X030251Y039561*
X030232Y039577*
X030213Y039592*
X030191Y039603*
X030169Y039613*
X030145Y039619*
X030122Y039623*
X030097Y039625*
G37*
G36*
X030665Y039422D02*
X03064Y03942D01*
X030616Y039416*
X030593Y039409*
X03057Y0394*
X030549Y039388*
X030529Y039374*
X030511Y039358*
X030495Y03934*
X030481Y03932*
X030469Y039299*
X03046Y039276*
X030453Y039253*
X030449Y039229*
X030448Y039205*
X030449Y03918*
X030453Y039156*
X03046Y039133*
X030469Y039111*
X030481Y039089*
X030495Y03907*
X030511Y039051*
X030529Y039035*
X030549Y039021*
X03057Y039009*
X030593Y039*
X030616Y038993*
X03064Y038989*
X030665Y038988*
X030689Y038989*
X030713Y038993*
X030736Y039*
X030759Y039009*
X03078Y039021*
X0308Y039035*
X030818Y039051*
X030834Y03907*
X030848Y039089*
X03086Y039111*
X030869Y039133*
X030876Y039156*
X03088Y03918*
X030881Y039205*
X03088Y039229*
X030876Y039253*
X030869Y039276*
X03086Y039299*
X030848Y03932*
X030834Y03934*
X030818Y039358*
X0308Y039374*
X03078Y039388*
X030759Y0394*
X030736Y039409*
X030713Y039416*
X030689Y03942*
X030665Y039422*
G37*
G36*
X03519Y039053D02*
X035165Y039052D01*
X035141Y039048*
X035118Y039041*
X035096Y039032*
X035074Y03902*
X035055Y039006*
X035036Y03899*
X03502Y038971*
X035006Y038952*
X034994Y03893*
X034985Y038908*
X034978Y038884*
X034974Y038861*
X034973Y038836*
X034974Y038812*
X034978Y038788*
X034985Y038765*
X034994Y038742*
X035006Y038721*
X03502Y038701*
X035036Y038683*
X035055Y038667*
X035074Y038653*
X035096Y038641*
X035118Y038632*
X035141Y038625*
X035165Y038621*
X03519Y038619*
X035214Y038621*
X035238Y038625*
X035261Y038632*
X035284Y038641*
X035305Y038653*
X035325Y038667*
X035343Y038683*
X035359Y038701*
X035373Y038721*
X035385Y038742*
X035394Y038765*
X035401Y038788*
X035405Y038812*
X035407Y038836*
X035405Y038861*
X035401Y038884*
X035394Y038908*
X035385Y03893*
X035373Y038952*
X035359Y038971*
X035343Y03899*
X035325Y039006*
X035305Y03902*
X035284Y039032*
X035261Y039041*
X035238Y039048*
X035214Y039052*
X03519Y039053*
G37*
G36*
X042465Y038752D02*
X042439Y038751D01*
X042413Y038746*
X042387Y038739*
X042363Y038729*
X042339Y038716*
X042318Y038701*
X042298Y038683*
X04228Y038663*
X042265Y038642*
X042252Y038618*
X042242Y038594*
X042235Y038568*
X04223Y038542*
X042229Y038516*
X04223Y038489*
X042235Y038463*
X042242Y038438*
X042252Y038413*
X042265Y03839*
X04228Y038368*
X042298Y038348*
X042318Y038331*
X042339Y038315*
X042363Y038303*
X042387Y038292*
X042413Y038285*
X042439Y038281*
X042465Y038279*
X042492Y038281*
X042518Y038285*
X042544Y038292*
X042568Y038303*
X042591Y038315*
X042613Y038331*
X042633Y038348*
X04265Y038368*
X042666Y03839*
X042679Y038413*
X042689Y038438*
X042696Y038463*
X0427Y038489*
X042702Y038516*
X0427Y038542*
X042696Y038568*
X042689Y038594*
X042679Y038618*
X042666Y038642*
X04265Y038663*
X042633Y038683*
X042613Y038701*
X042591Y038716*
X042568Y038729*
X042544Y038739*
X042518Y038746*
X042492Y038751*
X042465Y038752*
G37*
G36*
X027056Y038611D02*
X027032Y03861D01*
X027008Y038606*
X026984Y038599*
X026962Y038589*
X026941Y038578*
X026921Y038564*
X026903Y038547*
X026886Y038529*
X026872Y038509*
X026861Y038488*
X026851Y038466*
X026844Y038442*
X02684Y038418*
X026839Y038394*
X02684Y03837*
X026844Y038346*
X026851Y038322*
X026861Y0383*
X026872Y038279*
X026886Y038259*
X026903Y038241*
X026921Y038225*
X026941Y03821*
X026962Y038199*
X026984Y038189*
X027008Y038183*
X027032Y038179*
X027056Y038177*
X02708Y038179*
X027104Y038183*
X027128Y038189*
X02715Y038199*
X027171Y03821*
X027191Y038225*
X027209Y038241*
X027225Y038259*
X02724Y038279*
X027251Y0383*
X027261Y038322*
X027267Y038346*
X027271Y03837*
X027273Y038394*
X027271Y038418*
X027267Y038442*
X027261Y038466*
X027251Y038488*
X02724Y038509*
X027225Y038529*
X027209Y038547*
X027191Y038564*
X027171Y038578*
X02715Y038589*
X027128Y038599*
X027104Y038606*
X02708Y03861*
X027056Y038611*
G37*
G36*
X02975Y038412D02*
X029725Y03841D01*
X029701Y038406*
X029678Y0384*
X029656Y03839*
X029634Y038379*
X029614Y038364*
X029596Y038348*
X02958Y03833*
X029566Y03831*
X029554Y038289*
X029545Y038267*
X029538Y038243*
X029534Y038219*
X029533Y038195*
X029534Y038171*
X029538Y038147*
X029545Y038123*
X029554Y038101*
X029566Y038079*
X02958Y03806*
X029596Y038042*
X029614Y038025*
X029634Y038011*
X029656Y037999*
X029678Y03799*
X029701Y037983*
X029725Y037979*
X02975Y037978*
X029774Y037979*
X029798Y037983*
X029821Y03799*
X029844Y037999*
X029865Y038011*
X029885Y038025*
X029903Y038042*
X029919Y03806*
X029933Y038079*
X029945Y038101*
X029954Y038123*
X029961Y038147*
X029965Y038171*
X029966Y038195*
X029965Y038219*
X029961Y038243*
X029954Y038267*
X029945Y038289*
X029933Y03831*
X029919Y03833*
X029903Y038348*
X029885Y038364*
X029865Y038379*
X029844Y03839*
X029821Y0384*
X029798Y038406*
X029774Y03841*
X02975Y038412*
G37*
G36*
X030138Y038084D02*
X030114Y038082D01*
X03009Y038078*
X030066Y038072*
X030044Y038062*
X030022Y038051*
X030003Y038036*
X029984Y03802*
X029968Y038002*
X029954Y037982*
X029942Y037961*
X029933Y037939*
X029926Y037915*
X029922Y037891*
X029921Y037867*
X029922Y037843*
X029926Y037819*
X029933Y037795*
X02989Y03777*
X029885Y037774*
X029865Y037788*
X029844Y0378*
X029821Y037809*
X029798Y037816*
X029774Y03782*
X02975Y037821*
X029725Y03782*
X029701Y037816*
X029678Y037809*
X029656Y0378*
X029634Y037788*
X029614Y037774*
X029596Y037758*
X02958Y03774*
X029566Y03772*
X029554Y037698*
X029545Y037676*
X029538Y037653*
X029534Y037629*
X029533Y037604*
X029534Y03758*
X029538Y037556*
X029545Y037533*
X029554Y03751*
X029566Y037489*
X02958Y037469*
X029596Y037451*
X029614Y037435*
X029634Y037421*
X029656Y037409*
X029678Y0374*
X029701Y037393*
X029725Y037389*
X02975Y037387*
X029774Y037389*
X029798Y037393*
X029821Y0374*
X029844Y037409*
X029865Y037421*
X029885Y037435*
X029903Y037451*
X029919Y037469*
X029933Y037489*
X029945Y03751*
X029954Y037533*
X029961Y037556*
X029965Y03758*
X029966Y037604*
X029965Y037629*
X029961Y037653*
X029954Y037676*
X029998Y037702*
X030003Y037697*
X030022Y037683*
X030044Y037672*
X030066Y037662*
X03009Y037655*
X030114Y037651*
X030138Y03765*
X030162Y037651*
X030186Y037655*
X030209Y037662*
X030232Y037672*
X030253Y037683*
X030273Y037697*
X030291Y037714*
X030307Y037732*
X030321Y037752*
X030333Y037773*
X030343Y037795*
X030349Y037819*
X030353Y037843*
X030355Y037867*
X030353Y037891*
X030349Y037915*
X030343Y037939*
X030333Y037961*
X030321Y037982*
X030307Y038002*
X030291Y03802*
X030273Y038036*
X030253Y038051*
X030232Y038062*
X030209Y038072*
X030186Y038078*
X030162Y038082*
X030138Y038084*
G37*
G36*
X028101Y037956D02*
X028077Y037955D01*
X028053Y037951*
X028029Y037944*
X028007Y037935*
X027986Y037923*
X027966Y037909*
X027948Y037893*
X027932Y037875*
X027917Y037855*
X027906Y037834*
X027896Y037811*
X02789Y037788*
X027886Y037764*
X027884Y037739*
X027886Y037715*
X02789Y037691*
X027896Y037668*
X027906Y037645*
X027917Y037624*
X027932Y037604*
X027948Y037586*
X027966Y03757*
X027986Y037556*
X028007Y037544*
X028029Y037535*
X028053Y037528*
X028077Y037524*
X028101Y037523*
X028125Y037524*
X028149Y037528*
X028173Y037535*
X028195Y037544*
X028216Y037556*
X028236Y03757*
X028254Y037586*
X028271Y037604*
X028285Y037624*
X028296Y037645*
X028306Y037668*
X028313Y037691*
X028317Y037715*
X028318Y037739*
X028317Y037764*
X028313Y037788*
X028306Y037811*
X028296Y037834*
X028285Y037855*
X028271Y037875*
X028254Y037893*
X028236Y037909*
X028216Y037923*
X028195Y037935*
X028173Y037944*
X028149Y037951*
X028125Y037955*
X028101Y037956*
G37*
G36*
X030665Y037881D02*
X03064Y03788D01*
X030616Y037876*
X030593Y037869*
X03057Y03786*
X030549Y037848*
X030529Y037834*
X030511Y037818*
X030495Y037799*
X030481Y03778*
X030469Y037758*
X03046Y037736*
X030453Y037712*
X030449Y037688*
X030448Y037664*
X030449Y03764*
X030453Y037616*
X03046Y037593*
X030469Y03757*
X030481Y037549*
X030495Y037529*
X030511Y037511*
X030529Y037495*
X030549Y037481*
X03057Y037469*
X030593Y037459*
X030616Y037453*
X03064Y037449*
X030665Y037447*
X030689Y037449*
X030713Y037453*
X030736Y037459*
X030759Y037469*
X03078Y037481*
X0308Y037495*
X030818Y037511*
X030834Y037529*
X030848Y037549*
X03086Y03757*
X030869Y037593*
X030876Y037616*
X03088Y03764*
X030881Y037664*
X03088Y037688*
X030876Y037712*
X030869Y037736*
X03086Y037758*
X030848Y03778*
X030834Y037799*
X030818Y037818*
X0308Y037834*
X03078Y037848*
X030759Y03786*
X030736Y037869*
X030713Y037876*
X030689Y03788*
X030665Y037881*
G37*
G36*
X022809Y037707D02*
X02278Y037706D01*
X022751Y037702*
X022722Y037696*
X022694Y037687*
X022667Y037676*
X022641Y037662*
X022617Y037646*
X022594Y037629*
X022572Y037609*
X022552Y037587*
X022534Y037564*
X022519Y037539*
X022505Y037514*
X022494Y037487*
X022485Y037459*
X022479Y03743*
X022475Y037401*
X022474Y037372*
X022475Y037343*
X022479Y037314*
X022485Y037285*
X022494Y037257*
X022505Y03723*
X022519Y037205*
X022534Y03718*
X022552Y037157*
X022572Y037135*
X022594Y037115*
X022617Y037098*
X022641Y037082*
X022667Y037068*
X022694Y037057*
X022722Y037048*
X022751Y037042*
X02278Y037038*
X022809Y037037*
X022838Y037038*
X022867Y037042*
X022896Y037048*
X022923Y037057*
X02295Y037068*
X022976Y037082*
X023001Y037098*
X023024Y037115*
X023046Y037135*
X023065Y037157*
X023083Y03718*
X023099Y037205*
X023112Y03723*
X023124Y037257*
X023132Y037285*
X023139Y037314*
X023143Y037343*
X023144Y037372*
X023143Y037401*
X023139Y03743*
X023132Y037459*
X023124Y037487*
X023112Y037514*
X023099Y037539*
X023083Y037564*
X023065Y037587*
X023046Y037609*
X023024Y037629*
X023001Y037646*
X022976Y037662*
X02295Y037676*
X022923Y037687*
X022896Y037696*
X022867Y037702*
X022838Y037706*
X022809Y037707*
G37*
G36*
X022859Y036937D02*
Y036635D01*
X023161*
X02316Y036646*
X023153Y036677*
X023144Y036706*
X023132Y036735*
X023117Y036763*
X023101Y036789*
X023082Y036814*
X023061Y036837*
X023038Y036858*
X023013Y036876*
X022987Y036893*
X022959Y036907*
X022931Y036919*
X022901Y036929*
X022871Y036935*
X022859Y036937*
G37*
G36*
X022759D02*
X022747Y036935D01*
X022717Y036929*
X022687Y036919*
X022658Y036907*
X022631Y036893*
X022605Y036876*
X02258Y036858*
X022557Y036837*
X022536Y036814*
X022517Y036789*
X0225Y036763*
X022486Y036735*
X022474Y036706*
X022465Y036677*
X022458Y036646*
X022456Y036635*
X022759*
Y036937*
G37*
G36*
X044777Y037068D02*
X044748Y037067D01*
X044719Y037063*
X04469Y037057*
X044662Y037048*
X044635Y037037*
X04461Y037023*
X044585Y037007*
X044562Y03699*
X04454Y03697*
X04452Y036948*
X044503Y036925*
X044487Y0369*
X044473Y036875*
X044462Y036848*
X044453Y03682*
X044447Y036791*
X044443Y036762*
X044442Y036733*
X044443Y036704*
X044447Y036675*
X044453Y036646*
X044462Y036618*
X044473Y036591*
X044487Y036566*
X044503Y036541*
X04452Y036518*
X04454Y036496*
X044562Y036476*
X044585Y036459*
X04461Y036443*
X044635Y036429*
X044662Y036418*
X04469Y036409*
X044719Y036403*
X044748Y036399*
X044777Y036398*
X044806Y036399*
X044835Y036403*
X044864Y036409*
X044892Y036418*
X044919Y036429*
X044945Y036443*
X044969Y036459*
X044992Y036476*
X045014Y036496*
X045034Y036518*
X045051Y036541*
X045067Y036566*
X045081Y036591*
X045092Y036618*
X045101Y036646*
X045107Y036675*
X045111Y036704*
X045112Y036733*
X045111Y036762*
X045107Y036791*
X045101Y03682*
X045092Y036848*
X045081Y036875*
X045067Y0369*
X045051Y036925*
X045034Y036948*
X045014Y03697*
X044992Y03699*
X044969Y037007*
X044945Y037023*
X044919Y037037*
X044892Y037048*
X044864Y037057*
X044835Y037063*
X044806Y037067*
X044777Y037068*
G37*
G36*
X031192Y036746D02*
X031168Y036744D01*
X031144Y03674*
X031121Y036733*
X031098Y036724*
X031077Y036712*
X031057Y036698*
X031039Y036682*
X031023Y036664*
X031008Y036644*
X030997Y036623*
X030987Y0366*
X030981Y036577*
X030977Y036553*
X030975Y036529*
X030977Y036504*
X030981Y03648*
X030987Y036457*
X030997Y036435*
X031008Y036413*
X031023Y036394*
X031039Y036375*
X031057Y036359*
X031077Y036345*
X031098Y036333*
X031121Y036324*
X031144Y036317*
X031168Y036313*
X031192Y036312*
X031216Y036313*
X03124Y036317*
X031264Y036324*
X031286Y036333*
X031308Y036345*
X031327Y036359*
X031345Y036375*
X031362Y036394*
X031376Y036413*
X031388Y036435*
X031397Y036457*
X031404Y03648*
X031408Y036504*
X031409Y036529*
X031408Y036553*
X031404Y036577*
X031397Y0366*
X031388Y036623*
X031376Y036644*
X031362Y036664*
X031345Y036682*
X031327Y036698*
X031308Y036712*
X031286Y036724*
X031264Y036733*
X03124Y03674*
X031216Y036744*
X031192Y036746*
G37*
G36*
X022759Y036535D02*
X022456D01*
X022458Y036523*
X022465Y036492*
X022474Y036463*
X022486Y036434*
X0225Y036406*
X022517Y03638*
X022536Y036356*
X022557Y036333*
X02258Y036312*
X022605Y036293*
X022631Y036276*
X022658Y036262*
X022687Y03625*
X022717Y03624*
X022747Y036234*
X022759Y036232*
Y036535*
G37*
G36*
X023161D02*
X022859D01*
Y036232*
X022871Y036234*
X022901Y03624*
X022931Y03625*
X022959Y036262*
X022987Y036276*
X023013Y036293*
X023038Y036312*
X023061Y036333*
X023082Y036356*
X023101Y03638*
X023117Y036406*
X023132Y036434*
X023144Y036463*
X023153Y036492*
X02316Y036523*
X023161Y036535*
G37*
G36*
X025393Y036563D02*
X025367Y036561D01*
X025341Y036557*
X025315Y036549*
X025291Y036539*
X025267Y036526*
X025246Y036511*
X025226Y036493*
X025208Y036474*
X025193Y036452*
X02518Y036429*
X02517Y036404*
X025163Y036379*
X025158Y036352*
X025157Y036326*
X025158Y036299*
X025163Y036273*
X02517Y036248*
X02518Y036223*
X025193Y0362*
X025208Y036178*
X025226Y036159*
X025246Y036141*
X025267Y036126*
X025291Y036113*
X025315Y036103*
X025341Y036095*
X025367Y036091*
X025393Y036089*
X02542Y036091*
X025446Y036095*
X025471Y036103*
X025496Y036113*
X025519Y036126*
X025541Y036141*
X025561Y036159*
X025578Y036178*
X025594Y0362*
X025606Y036223*
X025617Y036248*
X025624Y036273*
X025628Y036299*
X02563Y036326*
X025628Y036352*
X025624Y036379*
X025617Y036404*
X025606Y036429*
X025594Y036452*
X025578Y036474*
X025561Y036493*
X025541Y036511*
X025519Y036526*
X025496Y036539*
X025471Y036549*
X025446Y036557*
X02542Y036561*
X025393Y036563*
G37*
G36*
X044777Y036281D02*
X044748Y036279D01*
X044719Y036275*
X04469Y036269*
X044662Y03626*
X044635Y036249*
X04461Y036236*
X044585Y03622*
X044562Y036202*
X04454Y036182*
X04452Y036161*
X044503Y036138*
X044487Y036113*
X044473Y036087*
X044462Y03606*
X044453Y036032*
X044447Y036004*
X044443Y035975*
X044442Y035946*
X044443Y035916*
X044447Y035887*
X044453Y035859*
X044462Y035831*
X044473Y035804*
X044487Y035778*
X044503Y035753*
X04452Y03573*
X04454Y035709*
X044562Y035689*
X044585Y035671*
X04461Y035656*
X044635Y035642*
X044662Y035631*
X04469Y035622*
X044719Y035616*
X044748Y035612*
X044777Y035611*
X044806Y035612*
X044835Y035616*
X044864Y035622*
X044892Y035631*
X044919Y035642*
X044945Y035656*
X044969Y035671*
X044992Y035689*
X045014Y035709*
X045034Y03573*
X045051Y035753*
X045067Y035778*
X045081Y035804*
X045092Y035831*
X045101Y035859*
X045107Y035887*
X045111Y035916*
X045112Y035946*
X045111Y035975*
X045107Y036004*
X045101Y036032*
X045092Y03606*
X045081Y036087*
X045067Y036113*
X045051Y036138*
X045034Y036161*
X045014Y036182*
X044992Y036202*
X044969Y03622*
X044945Y036236*
X044919Y036249*
X044892Y03626*
X044864Y036269*
X044835Y036275*
X044806Y036279*
X044777Y036281*
G37*
G36*
X043317Y035691D02*
X043293Y03569D01*
X043269Y035686*
X043245Y035679*
X043223Y03567*
X043202Y035658*
X043182Y035644*
X043164Y035628*
X043147Y03561*
X043133Y03559*
X043122Y035569*
X043112Y035546*
X043105Y035523*
X043101Y035499*
X0431Y035474*
X043101Y03545*
X043105Y035426*
X043112Y035403*
X043122Y03538*
X043133Y035359*
X043147Y035339*
X043164Y035321*
X043182Y035305*
X043202Y035291*
X043223Y035279*
X043245Y03527*
X043269Y035263*
X043293Y035259*
X043317Y035258*
X043341Y035259*
X043365Y035263*
X043389Y03527*
X043411Y035279*
X043432Y035291*
X043452Y035305*
X04347Y035321*
X043486Y035339*
X043501Y035359*
X043512Y03538*
X043522Y035403*
X043528Y035426*
X043532Y03545*
X043534Y035474*
X043532Y035499*
X043528Y035523*
X043522Y035546*
X043512Y035569*
X043501Y03559*
X043486Y03561*
X04347Y035628*
X043452Y035644*
X043432Y035658*
X043411Y03567*
X043389Y035679*
X043365Y035686*
X043341Y03569*
X043317Y035691*
G37*
G36*
X044777Y035493D02*
X044748Y035492D01*
X044719Y035488*
X04469Y035482*
X044662Y035473*
X044635Y035462*
X04461Y035448*
X044585Y035433*
X044562Y035415*
X04454Y035395*
X04452Y035374*
X044503Y03535*
X044487Y035326*
X044473Y0353*
X044462Y035273*
X044453Y035245*
X044447Y035216*
X044443Y035187*
X044442Y035158*
X044443Y035129*
X044447Y0351*
X044453Y035071*
X044462Y035044*
X044473Y035017*
X044487Y034991*
X044503Y034966*
X04452Y034943*
X04454Y034921*
X044562Y034902*
X044585Y034884*
X04461Y034868*
X044635Y034855*
X044662Y034843*
X04469Y034835*
X044719Y034828*
X044748Y034825*
X044777Y034823*
X044806Y034825*
X044835Y034828*
X044864Y034835*
X044892Y034843*
X044919Y034855*
X044945Y034868*
X044969Y034884*
X044992Y034902*
X045014Y034921*
X045034Y034943*
X045051Y034966*
X045067Y034991*
X045081Y035017*
X045092Y035044*
X045101Y035071*
X045107Y0351*
X045111Y035129*
X045112Y035158*
X045111Y035187*
X045107Y035216*
X045101Y035245*
X045092Y035273*
X045081Y0353*
X045067Y035326*
X045051Y03535*
X045034Y035374*
X045014Y035395*
X044992Y035415*
X044969Y035433*
X044945Y035448*
X044919Y035462*
X044892Y035473*
X044864Y035482*
X044835Y035488*
X044806Y035492*
X044777Y035493*
G37*
G36*
Y034706D02*
X044748Y034704D01*
X044719Y034701*
X04469Y034694*
X044662Y034686*
X044635Y034674*
X04461Y034661*
X044585Y034645*
X044562Y034627*
X04454Y034608*
X04452Y034586*
X044503Y034563*
X044487Y034538*
X044473Y034512*
X044462Y034485*
X044453Y034457*
X044447Y034429*
X044443Y0344*
X044442Y034371*
X044443Y034342*
X044447Y034313*
X044453Y034284*
X044462Y034256*
X044473Y034229*
X044487Y034203*
X044503Y034179*
X04452Y034155*
X04454Y034134*
X044562Y034114*
X044585Y034096*
X04461Y034081*
X044635Y034067*
X044662Y034056*
X04469Y034047*
X044719Y034041*
X044748Y034037*
X044777Y034036*
X044806Y034037*
X044835Y034041*
X044864Y034047*
X044892Y034056*
X044919Y034067*
X044945Y034081*
X044969Y034096*
X044992Y034114*
X045014Y034134*
X045034Y034155*
X045051Y034179*
X045067Y034203*
X045081Y034229*
X045092Y034256*
X045101Y034284*
X045107Y034313*
X045111Y034342*
X045112Y034371*
X045111Y0344*
X045107Y034429*
X045101Y034457*
X045092Y034485*
X045081Y034512*
X045067Y034538*
X045051Y034563*
X045034Y034586*
X045014Y034608*
X044992Y034627*
X044969Y034645*
X044945Y034661*
X044919Y034674*
X044892Y034686*
X044864Y034694*
X044835Y034701*
X044806Y034704*
X044777Y034706*
G37*
G36*
X030613Y034313D02*
X030589Y034311D01*
X030565Y034307*
X030541Y0343*
X030519Y034291*
X030497Y034279*
X030478Y034265*
X030459Y034249*
X030443Y034231*
X030429Y034211*
X030417Y03419*
X030408Y034167*
X030401Y034144*
X030397Y03412*
X030396Y034096*
X030397Y034071*
X030401Y034047*
X030408Y034024*
X030417Y034002*
X030429Y03398*
X030443Y03396*
X030459Y033942*
X030478Y033926*
X030497Y033912*
X030519Y0339*
X030541Y033891*
X030565Y033884*
X030589Y03388*
X030613Y033879*
X030637Y03388*
X030661Y033884*
X030684Y033891*
X030707Y0339*
X030728Y033912*
X030748Y033926*
X030766Y033942*
X030782Y03396*
X030796Y03398*
X030808Y034002*
X030817Y034024*
X030824Y034047*
X030828Y034071*
X03083Y034096*
X030828Y03412*
X030824Y034144*
X030817Y034167*
X030808Y03419*
X030796Y034211*
X030782Y034231*
X030766Y034249*
X030748Y034265*
X030728Y034279*
X030707Y034291*
X030684Y0343*
X030661Y034307*
X030637Y034311*
X030613Y034313*
G37*
G36*
X041817Y03411D02*
X041792Y034108D01*
X041768Y034104*
X041745Y034098*
X041722Y034088*
X041701Y034077*
X041681Y034062*
X041663Y034046*
X041647Y034028*
X041633Y034008*
X041621Y033987*
X041612Y033965*
X041605Y033941*
X041601Y033917*
X0416Y033893*
X041601Y033869*
X041605Y033845*
X041612Y033821*
X041621Y033799*
X041633Y033778*
X041647Y033758*
X041663Y03374*
X041681Y033723*
X041701Y033709*
X041722Y033698*
X041745Y033688*
X041768Y033681*
X041792Y033677*
X041817Y033676*
X041841Y033677*
X041865Y033681*
X041888Y033688*
X041911Y033698*
X041932Y033709*
X041952Y033723*
X04197Y03374*
X041986Y033758*
X042Y033778*
X042012Y033799*
X042021Y033821*
X042028Y033845*
X042032Y033869*
X042033Y033893*
X042032Y033917*
X042028Y033941*
X042021Y033965*
X042012Y033987*
X042Y034008*
X041986Y034028*
X04197Y034046*
X041952Y034062*
X041932Y034077*
X041911Y034088*
X041888Y034098*
X041865Y034104*
X041841Y034108*
X041817Y03411*
G37*
G36*
X028272Y033826D02*
X028248Y033825D01*
X028224Y03382*
X028201Y033814*
X028178Y033804*
X028157Y033793*
X028137Y033779*
X028119Y033762*
X028103Y033744*
X028089Y033724*
X028077Y033703*
X028068Y033681*
X028061Y033657*
X028057Y033633*
X028056Y033609*
X028057Y033585*
X028061Y033561*
X028068Y033537*
X028077Y033515*
X028089Y033494*
X028103Y033474*
X028119Y033456*
X028137Y03344*
X028157Y033425*
X028178Y033414*
X028201Y033404*
X028224Y033398*
X028248Y033394*
X028272Y033392*
X028297Y033394*
X028321Y033398*
X028344Y033404*
X028367Y033414*
X028388Y033425*
X028408Y03344*
X028426Y033456*
X028442Y033474*
X028456Y033494*
X028468Y033515*
X028477Y033537*
X028484Y033561*
X028488Y033585*
X028489Y033609*
X028488Y033633*
X028484Y033657*
X028477Y033681*
X028468Y033703*
X028456Y033724*
X028442Y033744*
X028426Y033762*
X028408Y033779*
X028388Y033793*
X028367Y033804*
X028344Y033814*
X028321Y03382*
X028297Y033825*
X028272Y033826*
G37*
G36*
X031585Y033775D02*
X03156Y033773D01*
X031536Y033769*
X031513Y033763*
X03149Y033753*
X031469Y033741*
X031449Y033727*
X031431Y033711*
X031415Y033693*
X031401Y033673*
X031389Y033652*
X03138Y033629*
X031373Y033606*
X031369Y033582*
X031368Y033558*
X031369Y033534*
X031373Y03351*
X03138Y033486*
X031389Y033464*
X031401Y033442*
X031415Y033423*
X031431Y033404*
X031449Y033388*
X031469Y033374*
X03149Y033362*
X031513Y033353*
X031536Y033346*
X03156Y033342*
X031585Y033341*
X031609Y033342*
X031633Y033346*
X031656Y033353*
X031679Y033362*
X0317Y033374*
X03172Y033388*
X031738Y033404*
X031754Y033423*
X031768Y033442*
X03178Y033464*
X031789Y033486*
X031796Y03351*
X0318Y033534*
X031801Y033558*
X0318Y033582*
X031796Y033606*
X031789Y033629*
X03178Y033652*
X031768Y033673*
X031754Y033693*
X031738Y033711*
X03172Y033727*
X0317Y033741*
X031679Y033753*
X031656Y033763*
X031633Y033769*
X031609Y033773*
X031585Y033775*
G37*
G36*
X022025Y033762D02*
X021907D01*
Y033022*
X022292*
Y033494*
X022291Y03352*
X022287Y033546*
X022281Y033572*
X022272Y033597*
X022261Y03362*
X022247Y033643*
X022231Y033664*
X022214Y033683*
X022194Y033701*
X022173Y033717*
X022151Y03373*
X022127Y033741*
X022102Y03375*
X022077Y033757*
X022051Y03376*
X022025Y033762*
G37*
G36*
X021807D02*
X02169D01*
X021664Y03376*
X021638Y033757*
X021612Y03375*
X021588Y033741*
X021564Y03373*
X021541Y033717*
X02152Y033701*
X021501Y033683*
X021483Y033664*
X021467Y033643*
X021454Y03362*
X021443Y033597*
X021434Y033572*
X021427Y033546*
X021424Y03352*
X021422Y033494*
Y033022*
X021807*
Y033762*
G37*
G36*
X028678Y03265D02*
X028654Y032649D01*
X02863Y032645*
X028606Y032638*
X028584Y032628*
X028563Y032617*
X028543Y032603*
X028525Y032586*
X028508Y032568*
X028494Y032548*
X028483Y032527*
X028473Y032505*
X028467Y032481*
X028462Y032457*
X028461Y032433*
X028462Y032409*
X028467Y032385*
X028473Y032361*
X028483Y032339*
X028494Y032318*
X028508Y032298*
X028525Y03228*
X028543Y032264*
X028563Y032249*
X028584Y032238*
X028606Y032228*
X02863Y032222*
X028654Y032218*
X028678Y032216*
X028702Y032218*
X028726Y032222*
X02875Y032228*
X028772Y032238*
X028793Y032249*
X028813Y032264*
X028831Y03228*
X028848Y032298*
X028862Y032318*
X028873Y032339*
X028883Y032361*
X028889Y032385*
X028893Y032409*
X028895Y032433*
X028893Y032457*
X028889Y032481*
X028883Y032505*
X028873Y032527*
X028862Y032548*
X028848Y032568*
X028831Y032586*
X028813Y032603*
X028793Y032617*
X028772Y032628*
X02875Y032638*
X028726Y032645*
X028702Y032649*
X028678Y03265*
G37*
G36*
X024387Y033741D02*
X024052D01*
X024025Y033739*
X023997Y033734*
X023971Y033727*
X023945Y033716*
X023921Y033703*
X023898Y033687*
X023878Y033668*
X023859Y033648*
X023843Y033625*
X02383Y033601*
X02382Y033576*
X023812Y033549*
X023807Y033522*
X023806Y033494*
Y032451*
X023807Y032423*
X023812Y032396*
X02382Y032369*
X02383Y032344*
X023843Y03232*
X023859Y032297*
X023878Y032277*
X023898Y032258*
X023921Y032242*
X023945Y032229*
X023971Y032218*
X023997Y032211*
X024025Y032206*
X024052Y032204*
X024387*
X024414Y032206*
X024442Y032211*
X024468Y032218*
X024494Y032229*
X024518Y032242*
X02454Y032258*
X024561Y032277*
X024579Y032297*
X024595Y03232*
X024609Y032344*
X024619Y032369*
X024627Y032396*
X024632Y032423*
X024633Y032451*
Y033494*
X024632Y033522*
X024627Y033549*
X024619Y033576*
X024609Y033601*
X024595Y033625*
X024579Y033648*
X024561Y033668*
X02454Y033687*
X024518Y033703*
X024494Y033716*
X024468Y033727*
X024442Y033734*
X024414Y033739*
X024387Y033741*
G37*
G36*
X022292Y032922D02*
X021907D01*
Y032183*
X022025*
X022051Y032184*
X022077Y032188*
X022102Y032195*
X022127Y032204*
X022151Y032215*
X022173Y032228*
X022194Y032244*
X022214Y032262*
X022231Y032281*
X022247Y032302*
X022261Y032325*
X022272Y032348*
X022281Y032373*
X022287Y032399*
X022291Y032425*
X022292Y032451*
Y032922*
G37*
G36*
X021807D02*
X021422D01*
Y032451*
X021424Y032425*
X021427Y032399*
X021434Y032373*
X021443Y032348*
X021454Y032325*
X021467Y032302*
X021483Y032281*
X021501Y032262*
X02152Y032244*
X021541Y032228*
X021564Y032215*
X021588Y032204*
X021612Y032195*
X021638Y032188*
X021664Y032184*
X02169Y032183*
X021807*
Y032922*
G37*
G36*
X036018Y031546D02*
X03599Y031543D01*
X035952Y031535*
X035915Y031525*
X035879Y031511*
X035843Y031495*
X03581Y031476*
X035777Y031455*
X035747Y031431*
X035718Y031404*
X035692Y031376*
X035668Y031345*
X035646Y031313*
X035627Y031279*
X035611Y031244*
X035598Y031208*
X035591Y031182*
X035553Y031178*
X035539Y031181*
X035533Y031201*
X03552Y031236*
X035505Y03127*
X035487Y031302*
X035466Y031333*
X035443Y031362*
X035418Y031389*
X035391Y031415*
X035361Y031438*
X03533Y031458*
X035298Y031476*
X035264Y031492*
X03523Y031505*
X035194Y031515*
X035157Y031522*
X035121Y031526*
X035083Y031528*
X035046Y031526*
X035009Y031522*
X034973Y031515*
X034937Y031505*
X034903Y031492*
X034869Y031476*
X034836Y031458*
X034806Y031438*
X034776Y031415*
X034749Y031389*
X034724Y031362*
X034701Y031333*
X03468Y031302*
X034662Y03127*
X034647Y031236*
X034634Y031201*
X034624Y031165*
X034616Y031129*
X034612Y031092*
X034611Y031055*
X034612Y031018*
X034616Y030981*
X034624Y030945*
X034634Y030909*
X034647Y030874*
X034662Y03084*
X03468Y030808*
X034701Y030777*
X034724Y030748*
X034749Y030721*
X034776Y030695*
X034806Y030672*
X034836Y030652*
X034869Y030634*
X034903Y030618*
X034937Y030605*
X034973Y030595*
X035009Y030588*
X035046Y030584*
X035083Y030582*
X035121Y030584*
X035157Y030588*
X035194Y030595*
X03523Y030605*
X035264Y030618*
X035298Y030634*
X03533Y030652*
X035361Y030672*
X035391Y030695*
X035418Y030721*
X035443Y030748*
X035466Y030777*
X035487Y030808*
X035505Y03084*
X03552Y030874*
X035533Y030909*
X035539Y030929*
X035553Y030932*
X035591Y030928*
X035598Y030902*
X035611Y030866*
X035627Y030831*
X035646Y030797*
X035668Y030765*
X035692Y030734*
X035718Y030706*
X035747Y030679*
X035777Y030655*
X03581Y030634*
X035843Y030615*
X035879Y030599*
X035915Y030585*
X035952Y030575*
X03599Y030567*
X036018Y030564*
Y031055*
Y031546*
G37*
G36*
X044036Y031528D02*
X043999Y031526D01*
X043962Y031522*
X043926Y031515*
X04389Y031505*
X043855Y031492*
X043822Y031476*
X043789Y031458*
X043758Y031438*
X043729Y031415*
X043702Y031389*
X043677Y031362*
X043654Y031333*
X043633Y031302*
X043615Y03127*
X043599Y031236*
X043587Y031201*
X043576Y031165*
X043527*
X043517Y031201*
X043505Y031236*
X043489Y03127*
X043471Y031302*
X04345Y031333*
X043427Y031362*
X043402Y031389*
X043375Y031415*
X043346Y031438*
X043315Y031458*
X043282Y031476*
X043249Y031492*
X043214Y031505*
X043178Y031515*
X043142Y031522*
X043105Y031526*
X043068Y031528*
X043031Y031526*
X042994Y031522*
X042957Y031515*
X042922Y031505*
X042887Y031492*
X042853Y031476*
X042821Y031458*
X04279Y031438*
X042761Y031415*
X042733Y031389*
X042708Y031362*
X042685Y031333*
X042665Y031302*
X042646Y03127*
X042631Y031236*
X042618Y031201*
X042608Y031165*
X042601Y031129*
X04255*
X042543Y031165*
X042533Y031201*
X04252Y031236*
X042505Y03127*
X042487Y031302*
X042466Y031333*
X042443Y031362*
X042418Y031389*
X04239Y031415*
X042361Y031438*
X04233Y031458*
X042298Y031476*
X042264Y031492*
X04223Y031505*
X042194Y031515*
X042157Y031522*
X042121Y031526*
X042083Y031528*
X042046Y031526*
X042009Y031522*
X041973Y031515*
X041937Y031505*
X041903Y031492*
X041869Y031476*
X041836Y031458*
X041806Y031438*
X041776Y031415*
X041749Y031389*
X041724Y031362*
X041701Y031333*
X04168Y031302*
X041662Y03127*
X041647Y031236*
X041634Y031201*
X041624Y031165*
X041616Y031129*
X041612Y031092*
X041611Y031055*
X041612Y031018*
X041616Y030981*
X041624Y030945*
X041634Y030909*
X041647Y030874*
X041662Y03084*
X04168Y030808*
X041701Y030777*
X041724Y030748*
X041749Y030721*
X041776Y030695*
X041806Y030672*
X041836Y030652*
X041869Y030634*
X041903Y030618*
X041937Y030605*
X041973Y030595*
X042009Y030588*
X042046Y030584*
X042083Y030582*
X042121Y030584*
X042157Y030588*
X042194Y030595*
X04223Y030605*
X042264Y030618*
X042298Y030634*
X04233Y030652*
X042361Y030672*
X04239Y030695*
X042418Y030721*
X042443Y030748*
X042466Y030777*
X042487Y030808*
X042505Y03084*
X04252Y030874*
X042533Y030909*
X042543Y030945*
X04255Y030981*
X042601*
X042608Y030945*
X042618Y030909*
X042631Y030874*
X042646Y03084*
X042665Y030808*
X042685Y030777*
X042708Y030748*
X042733Y030721*
X042761Y030695*
X04279Y030672*
X042821Y030652*
X042853Y030634*
X042887Y030618*
X042922Y030605*
X042957Y030595*
X042994Y030588*
X043031Y030584*
X043068Y030582*
X043105Y030584*
X043142Y030588*
X043178Y030595*
X043214Y030605*
X043249Y030618*
X043282Y030634*
X043315Y030652*
X043346Y030672*
X043375Y030695*
X043402Y030721*
X043427Y030748*
X04345Y030777*
X043471Y030808*
X043489Y03084*
X043505Y030874*
X043517Y030909*
X043527Y030945*
X043576*
X043587Y030909*
X043599Y030874*
X043615Y03084*
X043633Y030808*
X043654Y030777*
X043677Y030748*
X043702Y030721*
X043729Y030695*
X043758Y030672*
X043789Y030652*
X043822Y030634*
X043855Y030618*
X04389Y030605*
X043926Y030595*
X043962Y030588*
X043999Y030584*
X044036Y030582*
X044073Y030584*
X04411Y030588*
X044147Y030595*
X044182Y030605*
X044217Y030618*
X044251Y030634*
X044283Y030652*
X044314Y030672*
X044343Y030695*
X044371Y030721*
X044396Y030748*
X044419Y030777*
X044439Y030808*
X044457Y03084*
X044473Y030874*
X044486Y030909*
X044496Y030945*
X044503Y030981*
X044508Y031018*
X044509Y031055*
X044508Y031092*
X044503Y031129*
X044496Y031165*
X044486Y031201*
X044473Y031236*
X044457Y03127*
X044439Y031302*
X044419Y031333*
X044396Y031362*
X044371Y031389*
X044343Y031415*
X044314Y031438*
X044283Y031458*
X044251Y031476*
X044217Y031492*
X044182Y031505*
X044147Y031515*
X04411Y031522*
X044073Y031526*
X044036Y031528*
G37*
G36*
X02356Y031518D02*
X023088D01*
Y031133*
X023828*
Y03125*
X023826Y031276*
X023823Y031302*
X023816Y031328*
X023807Y031352*
X023796Y031376*
X023783Y031399*
X023767Y03142*
X023749Y031439*
X02373Y031457*
X023709Y031473*
X023686Y031486*
X023662Y031497*
X023638Y031506*
X023612Y031513*
X023586Y031516*
X02356Y031518*
G37*
G36*
X022988D02*
X022517D01*
X02249Y031516*
X022464Y031513*
X022439Y031506*
X022414Y031497*
X022391Y031486*
X022368Y031473*
X022347Y031457*
X022327Y031439*
X02231Y03142*
X022294Y031399*
X022281Y031376*
X022269Y031352*
X022261Y031328*
X022254Y031302*
X02225Y031276*
X022249Y03125*
Y031133*
X022988*
Y031518*
G37*
G36*
X023828Y031033D02*
X023088D01*
Y030648*
X02356*
X023586Y030649*
X023612Y030653*
X023638Y030659*
X023662Y030668*
X023686Y030679*
X023709Y030693*
X02373Y030709*
X023749Y030726*
X023767Y030746*
X023783Y030767*
X023796Y030789*
X023807Y030813*
X023816Y030838*
X023823Y030863*
X023826Y030889*
X023828Y030915*
Y031033*
G37*
G36*
X022988D02*
X022249D01*
Y030915*
X02225Y030889*
X022254Y030863*
X022261Y030838*
X022269Y030813*
X022281Y030789*
X022294Y030767*
X02231Y030746*
X022327Y030726*
X022347Y030709*
X022368Y030693*
X022391Y030679*
X022414Y030668*
X022439Y030659*
X022464Y030653*
X02249Y030649*
X022517Y030648*
X022988*
Y031033*
G37*
G36*
X045509Y031527D02*
X044564D01*
Y030583*
X045509*
Y031527*
G37*
G36*
X037086Y031546D02*
Y031055D01*
Y030564*
X037113Y030567*
X037152Y030575*
X037189Y030585*
X037225Y030599*
X037261Y030615*
X037294Y030634*
X037327Y030655*
X037357Y030679*
X037386Y030706*
X037412Y030734*
X037436Y030765*
X037457Y030797*
X037476Y030831*
X037493Y030866*
X037506Y030902*
X037514Y030929*
X037564Y030923*
Y030583*
X038509*
Y031527*
X037564*
Y031187*
X037514Y031181*
X037506Y031208*
X037493Y031244*
X037476Y031279*
X037457Y031313*
X037436Y031345*
X037412Y031376*
X037386Y031404*
X037357Y031431*
X037327Y031455*
X037294Y031476*
X037261Y031495*
X037225Y031511*
X037189Y031525*
X037152Y031535*
X037113Y031543*
X037086Y031546*
G37*
G36*
X041068Y031528D02*
X041031Y031526D01*
X040994Y031522*
X040957Y031515*
X040922Y031505*
X040887Y031492*
X040853Y031476*
X040821Y031458*
X04079Y031438*
X040761Y031415*
X040733Y031389*
X040708Y031362*
X040685Y031333*
X040665Y031302*
X040646Y03127*
X040631Y031236*
X040618Y031201*
X040608Y031165*
X040601Y031129*
X040596Y031092*
X040595Y031055*
X040596Y031018*
X040601Y030981*
X040608Y030945*
X040618Y030909*
X040631Y030874*
X040646Y03084*
X040665Y030808*
X040685Y030777*
X040708Y030748*
X040733Y030721*
X040761Y030695*
X04079Y030672*
X040821Y030652*
X040853Y030634*
X040887Y030618*
X040922Y030605*
X040957Y030595*
X040994Y030588*
X041031Y030584*
X041068Y030582*
X041105Y030584*
X041142Y030588*
X041178Y030595*
X041214Y030605*
X041249Y030618*
X041282Y030634*
X041315Y030652*
X041346Y030672*
X041375Y030695*
X041402Y030721*
X041427Y030748*
X04145Y030777*
X041471Y030808*
X041489Y03084*
X041505Y030874*
X041517Y030909*
X041527Y030945*
X041535Y030981*
X041539Y031018*
X041541Y031055*
X041539Y031092*
X041535Y031129*
X041527Y031165*
X041517Y031201*
X041505Y031236*
X041489Y03127*
X041471Y031302*
X04145Y031333*
X041427Y031362*
X041402Y031389*
X041375Y031415*
X041346Y031438*
X041315Y031458*
X041282Y031476*
X041249Y031492*
X041214Y031505*
X041178Y031515*
X041142Y031522*
X041105Y031526*
X041068Y031528*
G37*
G36*
X040068D02*
X040031Y031526D01*
X039994Y031522*
X039957Y031515*
X039922Y031505*
X039887Y031492*
X039853Y031476*
X039821Y031458*
X03979Y031438*
X039761Y031415*
X039733Y031389*
X039708Y031362*
X039685Y031333*
X039665Y031302*
X039646Y03127*
X039631Y031236*
X039618Y031201*
X039608Y031165*
X039601Y031129*
X039596Y031092*
X039595Y031055*
X039596Y031018*
X039601Y030981*
X039608Y030945*
X039618Y030909*
X039631Y030874*
X039646Y03084*
X039665Y030808*
X039685Y030777*
X039708Y030748*
X039733Y030721*
X039761Y030695*
X03979Y030672*
X039821Y030652*
X039853Y030634*
X039887Y030618*
X039922Y030605*
X039957Y030595*
X039994Y030588*
X040031Y030584*
X040068Y030582*
X040105Y030584*
X040142Y030588*
X040178Y030595*
X040214Y030605*
X040249Y030618*
X040282Y030634*
X040315Y030652*
X040346Y030672*
X040375Y030695*
X040402Y030721*
X040427Y030748*
X04045Y030777*
X040471Y030808*
X040489Y03084*
X040505Y030874*
X040517Y030909*
X040527Y030945*
X040535Y030981*
X040539Y031018*
X040541Y031055*
X040539Y031092*
X040535Y031129*
X040527Y031165*
X040517Y031201*
X040505Y031236*
X040489Y03127*
X040471Y031302*
X04045Y031333*
X040427Y031362*
X040402Y031389*
X040375Y031415*
X040346Y031438*
X040315Y031458*
X040282Y031476*
X040249Y031492*
X040214Y031505*
X040178Y031515*
X040142Y031522*
X040105Y031526*
X040068Y031528*
G37*
G36*
X034068D02*
X034031Y031526D01*
X033994Y031522*
X033957Y031515*
X033922Y031505*
X033887Y031492*
X033853Y031476*
X033821Y031458*
X03379Y031438*
X033761Y031415*
X033733Y031389*
X033708Y031362*
X033685Y031333*
X033665Y031302*
X033646Y03127*
X033631Y031236*
X033618Y031201*
X033608Y031165*
X033601Y031129*
X033596Y031092*
X033595Y031055*
X033596Y031018*
X033601Y030981*
X033608Y030945*
X033618Y030909*
X033631Y030874*
X033646Y03084*
X033665Y030808*
X033685Y030777*
X033708Y030748*
X033733Y030721*
X033761Y030695*
X03379Y030672*
X033821Y030652*
X033853Y030634*
X033887Y030618*
X033922Y030605*
X033957Y030595*
X033994Y030588*
X034031Y030584*
X034068Y030582*
X034105Y030584*
X034142Y030588*
X034178Y030595*
X034214Y030605*
X034249Y030618*
X034282Y030634*
X034315Y030652*
X034346Y030672*
X034375Y030695*
X034402Y030721*
X034427Y030748*
X03445Y030777*
X034471Y030808*
X034489Y03084*
X034505Y030874*
X034517Y030909*
X034527Y030945*
X034535Y030981*
X034539Y031018*
X034541Y031055*
X034539Y031092*
X034535Y031129*
X034527Y031165*
X034517Y031201*
X034505Y031236*
X034489Y03127*
X034471Y031302*
X03445Y031333*
X034427Y031362*
X034402Y031389*
X034375Y031415*
X034346Y031438*
X034315Y031458*
X034282Y031476*
X034249Y031492*
X034214Y031505*
X034178Y031515*
X034142Y031522*
X034105Y031526*
X034068Y031528*
G37*
G36*
X033068D02*
X033031Y031526D01*
X032994Y031522*
X032957Y031515*
X032922Y031505*
X032887Y031492*
X032853Y031476*
X032821Y031458*
X03279Y031438*
X032761Y031415*
X032733Y031389*
X032708Y031362*
X032685Y031333*
X032665Y031302*
X032646Y03127*
X032631Y031236*
X032618Y031201*
X032608Y031165*
X032601Y031129*
X032596Y031092*
X032595Y031055*
X032596Y031018*
X032601Y030981*
X032608Y030945*
X032618Y030909*
X032631Y030874*
X032646Y03084*
X032665Y030808*
X032685Y030777*
X032708Y030748*
X032733Y030721*
X032761Y030695*
X03279Y030672*
X032821Y030652*
X032853Y030634*
X032887Y030618*
X032922Y030605*
X032957Y030595*
X032994Y030588*
X033031Y030584*
X033068Y030582*
X033105Y030584*
X033142Y030588*
X033178Y030595*
X033214Y030605*
X033249Y030618*
X033282Y030634*
X033315Y030652*
X033346Y030672*
X033375Y030695*
X033402Y030721*
X033427Y030748*
X03345Y030777*
X033471Y030808*
X033489Y03084*
X033505Y030874*
X033517Y030909*
X033527Y030945*
X033535Y030981*
X033539Y031018*
X033541Y031055*
X033539Y031092*
X033535Y031129*
X033527Y031165*
X033517Y031201*
X033505Y031236*
X033489Y03127*
X033471Y031302*
X03345Y031333*
X033427Y031362*
X033402Y031389*
X033375Y031415*
X033346Y031438*
X033315Y031458*
X033282Y031476*
X033249Y031492*
X033214Y031505*
X033178Y031515*
X033142Y031522*
X033105Y031526*
X033068Y031528*
G37*
G36*
X032068D02*
X032031Y031526D01*
X031994Y031522*
X031957Y031515*
X031922Y031505*
X031887Y031492*
X031853Y031476*
X031821Y031458*
X03179Y031438*
X031761Y031415*
X031733Y031389*
X031708Y031362*
X031685Y031333*
X031665Y031302*
X031646Y03127*
X031631Y031236*
X031618Y031201*
X031608Y031165*
X031601Y031129*
X031596Y031092*
X031595Y031055*
X031596Y031018*
X031601Y030981*
X031608Y030945*
X031618Y030909*
X031631Y030874*
X031646Y03084*
X031665Y030808*
X031685Y030777*
X031708Y030748*
X031733Y030721*
X031761Y030695*
X03179Y030672*
X031821Y030652*
X031853Y030634*
X031887Y030618*
X031922Y030605*
X031957Y030595*
X031994Y030588*
X032031Y030584*
X032068Y030582*
X032105Y030584*
X032142Y030588*
X032178Y030595*
X032214Y030605*
X032249Y030618*
X032282Y030634*
X032315Y030652*
X032346Y030672*
X032375Y030695*
X032402Y030721*
X032427Y030748*
X03245Y030777*
X032471Y030808*
X032489Y03084*
X032505Y030874*
X032517Y030909*
X032527Y030945*
X032535Y030981*
X032539Y031018*
X032541Y031055*
X032539Y031092*
X032535Y031129*
X032527Y031165*
X032517Y031201*
X032505Y031236*
X032489Y03127*
X032471Y031302*
X03245Y031333*
X032427Y031362*
X032402Y031389*
X032375Y031415*
X032346Y031438*
X032315Y031458*
X032282Y031476*
X032249Y031492*
X032214Y031505*
X032178Y031515*
X032142Y031522*
X032105Y031526*
X032068Y031528*
G37*
G36*
X031068D02*
X031031Y031526D01*
X030994Y031522*
X030957Y031515*
X030922Y031505*
X030887Y031492*
X030853Y031476*
X030821Y031458*
X03079Y031438*
X030761Y031415*
X030733Y031389*
X030708Y031362*
X030685Y031333*
X030665Y031302*
X030646Y03127*
X030631Y031236*
X030618Y031201*
X030608Y031165*
X030601Y031129*
X030596Y031092*
X030595Y031055*
X030596Y031018*
X030601Y030981*
X030608Y030945*
X030618Y030909*
X030631Y030874*
X030646Y03084*
X030665Y030808*
X030685Y030777*
X030708Y030748*
X030733Y030721*
X030761Y030695*
X03079Y030672*
X030821Y030652*
X030853Y030634*
X030887Y030618*
X030922Y030605*
X030957Y030595*
X030994Y030588*
X031031Y030584*
X031068Y030582*
X031105Y030584*
X031142Y030588*
X031178Y030595*
X031214Y030605*
X031249Y030618*
X031282Y030634*
X031315Y030652*
X031346Y030672*
X031375Y030695*
X031402Y030721*
X031427Y030748*
X03145Y030777*
X031471Y030808*
X031489Y03084*
X031505Y030874*
X031517Y030909*
X031527Y030945*
X031535Y030981*
X031539Y031018*
X031541Y031055*
X031539Y031092*
X031535Y031129*
X031527Y031165*
X031517Y031201*
X031505Y031236*
X031489Y03127*
X031471Y031302*
X03145Y031333*
X031427Y031362*
X031402Y031389*
X031375Y031415*
X031346Y031438*
X031315Y031458*
X031282Y031476*
X031249Y031492*
X031214Y031505*
X031178Y031515*
X031142Y031522*
X031105Y031526*
X031068Y031528*
G37*
G36*
X036118Y031546D02*
Y031055D01*
Y030564*
X036145Y030567*
X036183Y030575*
X03622Y030585*
X036257Y030599*
X036292Y030615*
X036326Y030634*
X036358Y030655*
X036389Y030679*
X036417Y030706*
X036443Y030734*
X036467Y030765*
X036489Y030797*
X036508Y030831*
X036524Y030866*
X036525Y030869*
X036579*
X03658Y030866*
X036596Y030831*
X036615Y030797*
X036636Y030765*
X03666Y030734*
X036687Y030706*
X036715Y030679*
X036746Y030655*
X036778Y030634*
X036812Y030615*
X036847Y030599*
X036884Y030585*
X036921Y030575*
X036959Y030567*
X036986Y030564*
Y031055*
Y031546*
X036959Y031543*
X036921Y031535*
X036884Y031525*
X036847Y031511*
X036812Y031495*
X036778Y031476*
X036746Y031455*
X036715Y031431*
X036687Y031404*
X03666Y031376*
X036636Y031345*
X036615Y031313*
X036596Y031279*
X03658Y031244*
X036579Y031241*
X036525*
X036524Y031244*
X036508Y031279*
X036489Y031313*
X036467Y031345*
X036443Y031376*
X036417Y031404*
X036389Y031431*
X036358Y031455*
X036326Y031476*
X036292Y031495*
X036257Y031511*
X03622Y031525*
X036183Y031535*
X036145Y031543*
X036118Y031546*
G37*
%LNvapeixshield-3*%
%LPD*%
G54D37*
X022799Y040054D03*
X022809Y036585D03*
G54D38*
X030468Y050055D03*
X037036Y031055D03*
X036068D03*
G54D40*
X021857Y032972D03*
G54D41*
X023038Y031083D03*
G54D42*
X043804Y042958D03*
X030422Y04545D03*
X031435Y045288D03*
X030746Y032616D03*
X031864Y039733D03*
X046491Y040492D03*
X037732Y042501D03*
X037228Y044511D03*
X032431Y03643D03*
X029651Y033244D03*
X026691Y045637D03*
X036626Y036894D03*
M02*