%FSTAX24Y24*%
%MOIN*%
%SFA1B1*%

%IPPOS*%
%ADD113C,0.002000*%
%LNvapeixshield-1*%
%LPD*%
G54D113*
X04462Y035946D02*
X044935D01*
X044777Y035788D02*
Y036103D01*
X04462Y036733D02*
X044935D01*
X044777Y036576D02*
Y03689D01*
X04462Y035158D02*
X044935D01*
X044777Y035001D02*
Y035316D01*
X04462Y034371D02*
X044935D01*
X044777Y034213D02*
Y034528D01*
X031271Y050055D02*
X031665D01*
X031468Y049858D02*
Y050252D01*
X032271Y050055D02*
X032665D01*
X032468Y049858D02*
Y050252D01*
X033287Y050055D02*
X03368D01*
X033483Y049858D02*
Y050252D01*
X034271Y050055D02*
X034665D01*
X034468Y049858D02*
Y050252D01*
X035239Y050055D02*
X035633D01*
X035436Y049858D02*
Y050252D01*
X036239Y050055D02*
X036633D01*
X036436Y049858D02*
Y050252D01*
X030271Y050055D02*
X030665D01*
X030468Y049858D02*
Y050252D01*
X029271Y050055D02*
X029665D01*
X029468Y049858D02*
Y050252D01*
X028271Y050055D02*
X028665D01*
X028468Y049858D02*
Y050252D01*
X027271Y050055D02*
X027665D01*
X027468Y049858D02*
Y050252D01*
X02166Y032972D02*
X022054D01*
X021857Y032776D02*
Y033169D01*
X022841Y031083D02*
X023235D01*
X023038Y030886D02*
Y03128D01*
X024023Y032972D02*
X024416D01*
X024219Y032776D02*
Y033169D01*
X037871Y050055D02*
X038265D01*
X038068Y049858D02*
Y050252D01*
X038871Y050055D02*
X039265D01*
X039068Y049858D02*
Y050252D01*
X044839Y050055D02*
X045233D01*
X045036Y049858D02*
Y050252D01*
X043839Y050055D02*
X044233D01*
X044036Y049858D02*
Y050252D01*
X042871Y050055D02*
X043265D01*
X043068Y049858D02*
Y050252D01*
X041887Y050055D02*
X04228D01*
X042083Y049858D02*
Y050252D01*
X040871Y050055D02*
X041265D01*
X041068Y049858D02*
Y050252D01*
X039871Y050055D02*
X040265D01*
X040068Y049858D02*
Y050252D01*
X030871Y031055D02*
X031265D01*
X031068Y030858D02*
Y031252D01*
X031871Y031055D02*
X032265D01*
X032068Y030858D02*
Y031252D01*
X037839Y031055D02*
X038233D01*
X038036Y030858D02*
Y031252D01*
X036839Y031055D02*
X037233D01*
X037036Y030858D02*
Y031252D01*
X035871Y031055D02*
X036265D01*
X036068Y030858D02*
Y031252D01*
X034887Y031055D02*
X03528D01*
X035083Y030858D02*
Y031252D01*
X033871Y031055D02*
X034265D01*
X034068Y030858D02*
Y031252D01*
X032871Y031055D02*
X033265D01*
X033068Y030858D02*
Y031252D01*
X039871Y031055D02*
X040265D01*
X040068Y030858D02*
Y031252D01*
X040871Y031055D02*
X041265D01*
X041068Y030858D02*
Y031252D01*
X041887Y031055D02*
X04228D01*
X042083Y030858D02*
Y031252D01*
X042871Y031055D02*
X043265D01*
X043068Y030858D02*
Y031252D01*
X043839Y031055D02*
X044233D01*
X044036Y030858D02*
Y031252D01*
X044839Y031055D02*
X045233D01*
X045036Y030858D02*
Y031252D01*
X022642Y040841D02*
X022957D01*
X022799Y040684D02*
Y040999D01*
X022642Y040054D02*
X022957D01*
X022799Y039897D02*
Y040212D01*
X022651Y037372D02*
X022966D01*
X022809Y037215D02*
Y037529D01*
X022651Y036585D02*
X022966D01*
X022809Y036427D02*
Y036742D01*
X022611Y045831D02*
X022926D01*
X022768Y045673D02*
Y045988D01*
X022611Y045043D02*
X022926D01*
X022768Y044886D02*
Y045201D01*
X022611Y043468D02*
X022926D01*
X022768Y043311D02*
Y043626D01*
X022611Y044256D02*
X022926D01*
X022768Y044098D02*
Y044413D01*
X030038Y039408D02*
X030156D01*
X030097Y039349D02*
Y039467D01*
X032776Y040161D02*
X032933D01*
X032855Y040082D02*
Y04024D01*
X032776Y03957D02*
X032933D01*
X032855Y039491D02*
Y039649D01*
X043744Y042958D02*
X043863D01*
X043804Y042899D02*
Y043017D01*
X046426Y04256D02*
X046544D01*
X046485Y042501D02*
Y042619D01*
X046431Y041562D02*
X04655D01*
X046491Y041503D02*
Y041621D01*
X043508Y040055D02*
X043626D01*
X043567Y039996D02*
Y040114D01*
X043508Y041055D02*
X043626D01*
X043567Y040996D02*
Y041114D01*
X043512Y042055D02*
X043631D01*
X043572Y041996D02*
Y042114D01*
X026997Y038394D02*
X027115D01*
X027056Y038335D02*
Y038453D01*
X030079Y037867D02*
X030197D01*
X030138Y037808D02*
Y037926D01*
X033006Y045328D02*
X033124D01*
X033065Y045269D02*
Y045387D01*
X030363Y04545D02*
X030481D01*
X030422Y045391D02*
Y045509D01*
X031376Y045288D02*
X031494D01*
X031435Y045229D02*
Y045347D01*
X030669Y048697D02*
X030787D01*
X030728Y048638D02*
Y048756D01*
X029187Y049059D02*
X029305D01*
X029246Y049D02*
Y049118D01*
X043258Y035474D02*
X043376D01*
X043317Y035415D02*
Y035533D01*
X042387Y038516D02*
X042544D01*
X042465Y038437D02*
Y038594D01*
X041393Y040057D02*
X041511D01*
X041452Y039998D02*
Y040116D01*
X033972Y047721D02*
X03409D01*
X034031Y047662D02*
Y04778D01*
X032512Y045328D02*
X03263D01*
X032571Y045269D02*
Y045387D01*
X033135Y040835D02*
X033253D01*
X033194Y040776D02*
Y040894D01*
X033135Y041736D02*
X033253D01*
X033194Y041677D02*
Y041795D01*
X030687Y032616D02*
X030805D01*
X030746Y032557D02*
Y032676D01*
X037135Y042044D02*
X037253D01*
X037194Y041985D02*
Y042103D01*
X040065Y044001D02*
X040183D01*
X040124Y043942D02*
Y04406D01*
X028294Y045937D02*
X028413D01*
X028354Y045878D02*
Y045996D01*
X033607Y044112D02*
X033725D01*
X033666Y044053D02*
Y044171D01*
X028376Y048491D02*
X028494D01*
X028435Y048432D02*
Y04855D01*
X031052Y045896D02*
X03117D01*
X031111Y045837D02*
Y045955D01*
X031525Y033558D02*
X031644D01*
X031585Y033499D02*
Y033617D01*
X030606Y037664D02*
X030724D01*
X030665Y037605D02*
Y037723D01*
X031133Y036529D02*
X031251D01*
X031192Y03647D02*
Y036588D01*
X028619Y032433D02*
X028737D01*
X028678Y032374D02*
Y032492D01*
X025315Y036326D02*
X025472D01*
X025393Y036247D02*
Y036405D01*
X041757Y033893D02*
X041876D01*
X041817Y033834D02*
Y033952D01*
X039608Y044501D02*
X039726D01*
X039667Y044442D02*
Y04456D01*
X031805Y039733D02*
X031923D01*
X031864Y039674D02*
Y039792D01*
X035131Y038836D02*
X035249D01*
X03519Y038777D02*
Y038895D01*
X035131Y041047D02*
X035249D01*
X03519Y040988D02*
Y041106D01*
X046431Y040492D02*
X04655D01*
X046491Y040433D02*
Y040551D01*
X037673Y042501D02*
X037791D01*
X037732Y042442D02*
Y04256D01*
X037169Y044511D02*
X037287D01*
X037228Y044452D02*
Y04457D01*
X042812Y044001D02*
X04293D01*
X042871Y043942D02*
Y04406D01*
X042812Y044501D02*
X04293D01*
X042871Y044442D02*
Y04456D01*
X032372Y03643D02*
X03249D01*
X032431Y03637D02*
Y036489D01*
X030554Y034096D02*
X030672D01*
X030613Y034037D02*
Y034155D01*
X028213Y033609D02*
X028331D01*
X028272Y03355D02*
Y033668D01*
X030606Y039205D02*
X030724D01*
X030665Y039146D02*
Y039264D01*
X029592Y033244D02*
X02971D01*
X029651Y033185D02*
Y033303D01*
X029691Y037604D02*
X029809D01*
X02975Y037545D02*
Y037663D01*
X029691Y038195D02*
X029809D01*
X02975Y038136D02*
Y038254D01*
X029691Y040321D02*
X029809D01*
X02975Y040262D02*
Y04038D01*
X029691Y041187D02*
X029809D01*
X02975Y041128D02*
Y041246D01*
X029691Y042368D02*
X029809D01*
X02975Y042309D02*
Y042427D01*
X029691Y043313D02*
X029809D01*
X02975Y043254D02*
Y043372D01*
X029691Y044494D02*
X029809D01*
X02975Y044435D02*
Y044553D01*
X028042Y037739D02*
X02816D01*
X028101Y03768D02*
Y037799D01*
X028042Y039864D02*
X02816D01*
X028101Y039805D02*
Y039923D01*
X028042Y041995D02*
X02816D01*
X028101Y041936D02*
Y042054D01*
X028042Y044121D02*
X02816D01*
X028101Y044062D02*
Y04418D01*
X026632Y045637D02*
X02675D01*
X026691Y045578D02*
Y045696D01*
X036567Y036894D02*
X036685D01*
X036626Y036835D02*
Y036953D01*
M02*