%FSTAX24Y24*%
%MOIN*%
%SFA1B1*%

%IPPOS*%
%AMD43*
4,1,8,0.016700,0.068900,-0.016700,0.068900,-0.033400,0.052200,-0.033400,-0.052200,-0.016700,-0.068900,0.016700,-0.068900,0.033400,-0.052200,0.033400,0.052200,0.016700,0.068900,0.0*
1,1,0.033400,0.016700,0.052200*
1,1,0.033400,-0.016700,0.052200*
1,1,0.033400,-0.016700,-0.052200*
1,1,0.033400,0.016700,-0.052200*
%
%AMD44*
4,1,8,0.068900,-0.016700,0.068900,0.016700,0.052200,0.033400,-0.052200,0.033400,-0.068900,0.016700,-0.068900,-0.016700,-0.052200,-0.033400,0.052200,-0.033400,0.068900,-0.016700,0.0*
1,1,0.033400,0.052200,-0.016700*
1,1,0.033400,0.052200,0.016700*
1,1,0.033400,-0.052200,0.016700*
1,1,0.033400,-0.052200,-0.016700*
%
%ADD12R,0.029500X0.031500*%
%ADD21R,0.031500X0.029500*%
%ADD22R,0.150000X0.050000*%
%ADD27R,0.078700X0.043300*%
%ADD28R,0.031500X0.031500*%
%ADD31R,0.031500X0.031500*%
%ADD32R,0.043300X0.078700*%
%ADD34C,0.008000*%
%ADD35C,0.010000*%
%ADD36C,0.019700*%
%ADD37C,0.011800*%
%ADD38C,0.039400*%
%ADD39C,0.031500*%
%ADD40C,0.051200*%
%ADD41C,0.078700*%
%ADD42R,0.078700X0.078700*%
G04~CAMADD=43~8~0.0~0.0~669.0~1378.0~167.0~0.0~15~0.0~0.0~0.0~0.0~0~0.0~0.0~0.0~0.0~0~0.0~0.0~0.0~0.0~669.0~1378.0*
%ADD43D43*%
G04~CAMADD=44~8~0.0~0.0~669.0~1378.0~167.0~0.0~15~0.0~0.0~0.0~0.0~0~0.0~0.0~0.0~0.0~0~0.0~0.0~0.0~270.0~1378.0~668.0*
%ADD44D44*%
%ADD45C,0.019700*%
%ADD46C,0.027600*%
%ADD47R,0.030000X0.040000*%
%ADD48R,0.040000X0.030000*%
%ADD49R,0.059100X0.051200*%
%ADD50C,0.059100*%
%ADD51R,0.190600X0.101400*%
%LNvapeixshield-1*%
%LPD*%
G36*
X020429Y050936D02*
X020471D01*
X045679*
X046269Y050346*
Y045604*
X046279Y045553*
X046307Y045511*
X047419Y044399*
Y032615*
X046306Y031503*
X046278Y03146*
X046268Y03141*
Y030429*
X04624Y030362*
X046162Y03026*
X04606Y030182*
X046027Y030168*
X020577*
X020569*
X02052Y03017*
X020494Y030171*
X020445Y030175*
X020407Y030179*
X020375Y030187*
X02035Y030195*
X020315Y030202*
X020234Y030256*
X02018Y030337*
X020162Y030429*
X020163Y030436*
X020164Y030445*
Y030452*
X020163Y030456*
Y050708*
X020164*
X020179Y050784*
X020233Y050865*
X020314Y050919*
X020374Y050932*
X020422Y050936*
X020429*
G37*
%LNvapeixshield-2*%
%LPC*%
G36*
X035436Y050532D02*
X035313Y050515D01*
X035198Y050468*
X035099Y050392*
X035024Y050293*
X034978Y050183*
X034966Y050178*
X034938*
X034926Y050183*
X03488Y050293*
X034805Y050392*
X034706Y050468*
X034591Y050515*
X034468Y050532*
X034344Y050515*
X034229Y050468*
X034131Y050392*
X034055Y050293*
X034007Y050178*
X034001Y050128*
X03395*
X033944Y050178*
X033896Y050293*
X03382Y050392*
X033722Y050468*
X033607Y050515*
X033483Y050532*
X03336Y050515*
X033245Y050468*
X033147Y050392*
X033071Y050293*
X033023Y050178*
X033007Y050055*
X033023Y049932*
X033071Y049817*
X033147Y049718*
X033245Y049642*
X03336Y049595*
X033483Y049579*
X033607Y049595*
X033722Y049642*
X03382Y049718*
X033896Y049817*
X033944Y049932*
X03395Y049982*
X034001*
X034007Y049932*
X034055Y049817*
X034131Y049718*
X034229Y049642*
X034344Y049595*
X034468Y049579*
X034591Y049595*
X034706Y049642*
X034805Y049718*
X03488Y049817*
X034926Y049927*
X034938Y049932*
X034966*
X034978Y049927*
X035024Y049817*
X035099Y049718*
X035198Y049642*
X035313Y049595*
X035436Y049579*
X03556Y049595*
X035674Y049642*
X035773Y049718*
X035849Y049817*
X035896Y049932*
X035913Y050055*
X035896Y050178*
X035849Y050293*
X035773Y050392*
X035674Y050468*
X03556Y050515*
X035436Y050532*
G37*
G36*
X044036D02*
X043913Y050515D01*
X043798Y050468*
X043699Y050392*
X043624Y050293*
X043578Y050183*
X043565Y050178*
X043538*
X043526Y050183*
X04348Y050293*
X043405Y050392*
X043306Y050468*
X043191Y050515*
X043068Y050532*
X042944Y050515*
X042829Y050468*
X042731Y050392*
X042655Y050293*
X042607Y050178*
X042601Y050128*
X04255*
X042544Y050178*
X042496Y050293*
X04242Y050392*
X042322Y050468*
X042207Y050515*
X042083Y050532*
X04196Y050515*
X041845Y050468*
X041746Y050392*
X041671Y050293*
X041623Y050178*
X041607Y050055*
X041623Y049932*
X041671Y049817*
X041746Y049718*
X041845Y049642*
X04196Y049595*
X042083Y049578*
X042207Y049595*
X042322Y049642*
X04242Y049718*
X042496Y049817*
X042544Y049932*
X04255Y049982*
X042601*
X042607Y049932*
X042655Y049817*
X042731Y049718*
X042829Y049642*
X042944Y049595*
X043068Y049578*
X043191Y049595*
X043306Y049642*
X043405Y049718*
X04348Y049817*
X043526Y049927*
X043538Y049932*
X043565*
X043578Y049927*
X043624Y049817*
X043699Y049718*
X043798Y049642*
X043913Y049595*
X044036Y049578*
X04416Y049595*
X044274Y049642*
X044373Y049718*
X044449Y049817*
X044496Y049932*
X044513Y050055*
X044496Y050178*
X044449Y050293*
X044373Y050392*
X044274Y050468*
X04416Y050515*
X044036Y050532*
G37*
G36*
X030418Y050546D02*
X030339Y050536D01*
X030219Y050486*
X030116Y050407*
X030036Y050304*
X029987Y050184*
X029982Y05015*
X029932*
X029928Y050178*
X02988Y050293*
X029805Y050392*
X029706Y050468*
X029591Y050515*
X029468Y050532*
X029344Y050515*
X029229Y050468*
X029131Y050392*
X029055Y050293*
X029007Y050178*
X028996Y050091*
X028993Y050068*
X028942*
X02894Y050091*
X028928Y050178*
X02888Y050293*
X028805Y050392*
X028706Y050468*
X028591Y050515*
X028468Y050532*
X028344Y050515*
X028229Y050468*
X028131Y050392*
X028055Y050293*
X028007Y050178*
X027996Y050091*
X027993Y050068*
X027943*
X02794Y050091*
X027928Y050178*
X02788Y050293*
X027805Y050392*
X027706Y050468*
X027591Y050515*
X027468Y050532*
X027344Y050515*
X027229Y050468*
X027131Y050392*
X027055Y050293*
X027007Y050178*
X026991Y050055*
X027007Y049932*
X027055Y049817*
X027131Y049718*
X027229Y049642*
X027344Y049595*
X027468Y049579*
X027591Y049595*
X027706Y049642*
X027805Y049718*
X02788Y049817*
X027928Y049932*
X02794Y05002*
X027943Y050042*
X027993*
X027996Y05002*
X028007Y049932*
X028055Y049817*
X028131Y049718*
X028229Y049642*
X028287Y049619*
Y04937*
X027711Y048794*
X022311*
X022242Y04878*
X022184Y048741*
X021332Y047889*
X021293Y047831*
X021279Y047761*
Y043361*
X021293Y043291*
X021332Y043233*
X021838Y042727*
X021897Y042688*
X021966Y042674*
X023568*
X023638Y042688*
X023696Y042727*
X024223Y043254*
X024263Y043313*
X024276Y043382*
Y04424*
X02486Y044823*
X030347*
X031011Y044159*
Y036648*
X030988Y036613*
X030971Y036529*
X030988Y036444*
X031036Y036373*
X031108Y036325*
X031192Y036308*
X031277Y036325*
X031348Y036373*
X031396Y036444*
X031413Y036529*
X031396Y036613*
X031373Y036648*
Y044233*
X031359Y044303*
X03132Y044361*
X030549Y045132*
X030491Y045171*
X030422Y045185*
X024785*
X024716Y045171*
X024657Y045132*
X023968Y044442*
X023929Y044384*
X023915Y044315*
Y043457*
X023494Y043035*
X022041*
X02164Y043435*
Y047687*
X022386Y048432*
X027786*
X027855Y048446*
X027914Y048485*
X028595Y049167*
X028635Y049226*
X028648Y049295*
Y049619*
X028706Y049642*
X028805Y049718*
X02888Y049817*
X028928Y049932*
X02894Y05002*
X028942Y050042*
X028993*
X028996Y05002*
X029007Y049932*
X029055Y049817*
X029131Y049718*
X029229Y049642*
X029344Y049595*
X029468Y049579*
X029591Y049595*
X029706Y049642*
X029805Y049718*
X02988Y049817*
X029928Y049932*
X029932Y049961*
X029982*
X029987Y049926*
X030036Y049806*
X030116Y049703*
X030219Y049624*
X030339Y049574*
X030418Y049564*
Y050055*
Y050546*
G37*
G36*
X041068Y050532D02*
X040944Y050515D01*
X040829Y050468*
X040731Y050392*
X040655Y050293*
X040607Y050178*
X040596Y050091*
X040593Y050068*
X040542*
X04054Y050091*
X040528Y050178*
X04048Y050293*
X040405Y050392*
X040306Y050468*
X040191Y050515*
X040068Y050532*
X039944Y050515*
X039829Y050468*
X039731Y050392*
X039655Y050293*
X039607Y050178*
X039596Y050091*
X039593Y050068*
X039542*
X03954Y050091*
X039528Y050178*
X03948Y050293*
X039405Y050392*
X039306Y050468*
X039191Y050515*
X039068Y050532*
X038944Y050515*
X038829Y050468*
X038731Y050392*
X038655Y050293*
X038607Y050178*
X038596Y050091*
X038593Y050068*
X038542*
X03854Y050091*
X038528Y050178*
X03848Y050293*
X038405Y050392*
X038306Y050468*
X038191Y050515*
X038068Y050532*
X037944Y050515*
X037829Y050468*
X037731Y050392*
X037655Y050293*
X037607Y050178*
X037591Y050055*
X037607Y049932*
X037655Y049817*
X037731Y049718*
X037829Y049642*
X037944Y049595*
X038068Y049578*
X038191Y049595*
X038306Y049642*
X038405Y049718*
X03848Y049817*
X038528Y049932*
X03854Y050019*
X038542Y050042*
X038593*
X038596Y050019*
X038607Y049932*
X038655Y049817*
X038731Y049718*
X038829Y049642*
X038944Y049595*
X039068Y049578*
X039191Y049595*
X039306Y049642*
X039405Y049718*
X03948Y049817*
X039528Y049932*
X03954Y050019*
X039542Y050042*
X039593*
X039596Y050019*
X039607Y049932*
X039655Y049817*
X039731Y049718*
X039829Y049642*
X039944Y049595*
X040068Y049578*
X040191Y049595*
X040306Y049642*
X040405Y049718*
X04048Y049817*
X040528Y049932*
X04054Y050019*
X040542Y050042*
X040593*
X040596Y050019*
X040607Y049932*
X040655Y049817*
X040731Y049718*
X040829Y049642*
X040927Y049602*
Y048896*
X04038Y048348*
X028777*
X028652Y048473*
X028655Y048491*
X028639Y048576*
X028591Y048647*
X028519Y048695*
X028435Y048712*
X02835Y048695*
X028279Y048647*
X028231Y048576*
X028214Y048491*
X028231Y048407*
X028279Y048335*
X02835Y048287*
X028435Y048271*
X028453Y048274*
X028619Y048108*
X028665Y048078*
X028719Y048067*
X040438*
X040492Y048078*
X040537Y048108*
X041167Y048738*
X041198Y048784*
X041208Y048837*
Y049602*
X041306Y049642*
X041405Y049718*
X04148Y049817*
X041528Y049932*
X041544Y050055*
X041528Y050178*
X04148Y050293*
X041405Y050392*
X041306Y050468*
X041191Y050515*
X041068Y050532*
G37*
G36*
X036909Y050528D02*
X035964D01*
Y049583*
X036909*
Y050528*
G37*
G36*
X045509Y050527D02*
X044564D01*
Y049583*
X045509*
Y050527*
G37*
G36*
X030518Y050546D02*
Y050055D01*
Y049564*
X030597Y049574*
X030717Y049624*
X03082Y049703*
X030899Y049806*
X030949Y049926*
X030953Y049961*
X031004*
X031007Y049932*
X031055Y049817*
X031131Y049718*
X031229Y049642*
X031344Y049595*
X031468Y049579*
X031591Y049595*
X031706Y049642*
X031805Y049718*
X03188Y049817*
X031928Y049932*
X03194Y05002*
X031943Y050042*
X031993*
X031996Y05002*
X032007Y049932*
X032055Y049817*
X032131Y049718*
X032229Y049642*
X032344Y049595*
X032468Y049579*
X032591Y049595*
X032706Y049642*
X032805Y049718*
X03288Y049817*
X032928Y049932*
X032944Y050055*
X032928Y050178*
X03288Y050293*
X032805Y050392*
X032706Y050468*
X032591Y050515*
X032468Y050532*
X032344Y050515*
X032229Y050468*
X032131Y050392*
X032055Y050293*
X032007Y050178*
X031996Y050091*
X031993Y050068*
X031943*
X03194Y050091*
X031928Y050178*
X03188Y050293*
X031805Y050392*
X031706Y050468*
X031591Y050515*
X031468Y050532*
X031344Y050515*
X031229Y050468*
X031131Y050392*
X031055Y050293*
X031007Y050178*
X031004Y05015*
X030953*
X030949Y050184*
X030899Y050304*
X03082Y050407*
X030717Y050486*
X030597Y050536*
X030518Y050546*
G37*
G36*
X030366Y049337D02*
X029246D01*
X029174Y049328*
X029107Y0493*
X029049Y049256*
X029005Y049198*
X028977Y049131*
X028968Y049059*
X028977Y048987*
X029005Y04892*
X029049Y048863*
X029107Y048818*
X029174Y048791*
X029246Y048781*
X03025*
X030531Y0485*
X030589Y048456*
X030656Y048428*
X030728Y048419*
X0308Y048428*
X030867Y048456*
X030924Y0485*
X030969Y048558*
X030996Y048625*
X031006Y048697*
X030996Y048769*
X030969Y048836*
X030924Y048893*
X030562Y049256*
X030505Y0493*
X030437Y049328*
X030366Y049337*
G37*
G36*
X031111Y046117D02*
X031027Y0461D01*
X030955Y046052*
X030907Y045981*
X03089Y045896*
X030907Y045812*
X030955Y04574*
X031027Y045692*
X031111Y045675*
X031196Y045692*
X031267Y04574*
X031315Y045812*
X031332Y045896*
X031315Y045981*
X031267Y046052*
X031196Y0461*
X031111Y046117*
G37*
G36*
X033065Y045549D02*
X03298Y045532D01*
X032909Y045484*
X032861Y045413*
X032844Y045328*
X032861Y045244*
X032909Y045172*
X03298Y045124*
X033065Y045108*
X033149Y045124*
X033221Y045172*
X033269Y045244*
X033286Y045328*
X033269Y045413*
X033221Y045484*
X033149Y045532*
X033065Y045549*
G37*
G36*
X032571D02*
X032486Y045532D01*
X032415Y045484*
X032367Y045413*
X03235Y045328*
X032367Y045244*
X032415Y045172*
X032486Y045124*
X032571Y045108*
X032655Y045124*
X032727Y045172*
X032775Y045244*
X032792Y045328*
X032775Y045413*
X032727Y045484*
X032655Y045532*
X032571Y045549*
G37*
G36*
X022768Y044593D02*
X022681Y044582D01*
X0226Y044548*
X02253Y044495*
X022476Y044425*
X022442Y044343*
X022431Y044256*
X022442Y044169*
X022476Y044087*
X02253Y044017*
X0226Y043964*
X022681Y04393*
X022768Y043918*
X022856Y04393*
X022937Y043964*
X023007Y044017*
X023061Y044087*
X023094Y044169*
X023106Y044256*
X023094Y044343*
X023061Y044425*
X023007Y044495*
X022937Y044548*
X022856Y044582*
X022768Y044593*
G37*
G36*
X033666Y044333D02*
X033581Y044316D01*
X03351Y044268*
X033499Y044252*
X032814*
X03276Y044242*
X032715Y044211*
X032269Y043765*
X032238Y04372*
X032228Y043666*
Y0403*
X032238Y040246*
X032269Y040201*
X032408Y040062*
X032453Y040031*
X032507Y040021*
X032664*
X032684Y039991*
X032763Y039939*
X032855Y03992*
X032947Y039939*
X033025Y039991*
X033077Y040069*
X033096Y040161*
X033077Y040253*
X033025Y040331*
X032947Y040384*
X032855Y040402*
X032763Y040384*
X032684Y040331*
X032664Y040302*
X032565*
X032509Y040358*
Y043608*
X032872Y043971*
X033499*
X03351Y043956*
X033581Y043908*
X033666Y043891*
X03375Y043908*
X033822Y043956*
X03387Y044027*
X033887Y044112*
X03387Y044196*
X033822Y044268*
X03375Y044316*
X033666Y044333*
G37*
G36*
X022768Y043806D02*
X022681Y043795D01*
X0226Y043761*
X02253Y043707*
X022476Y043637*
X022442Y043556*
X022431Y043468*
X022442Y043381*
X022476Y0433*
X02253Y04323*
X0226Y043176*
X022681Y043142*
X022768Y043131*
X022856Y043142*
X022937Y043176*
X023007Y04323*
X023061Y0433*
X023094Y043381*
X023106Y043468*
X023094Y043556*
X023061Y043637*
X023007Y043707*
X022937Y043761*
X022856Y043795*
X022768Y043806*
G37*
G36*
X02975Y044715D02*
X029665Y044698D01*
X029593Y04465*
X029546Y044579*
X029529Y044494*
X029546Y04441*
X029593Y044338*
X029665Y04429*
X02975Y044273*
X029834Y04429*
X029906Y044338*
X029916Y044354*
X030184*
X030524Y044013*
Y042486*
X030518Y042483*
X030474Y042471*
X030434Y042498*
X030381Y042509*
X029916*
X029906Y042524*
X029834Y042572*
X02975Y042589*
X029665Y042572*
X029593Y042524*
X029558Y042471*
X029508Y042486*
Y042873*
X029731Y043096*
X02975Y043092*
X029834Y043109*
X029906Y043157*
X029954Y043229*
X02997Y043313*
X029954Y043397*
X029906Y043469*
X029834Y043517*
X02975Y043534*
X029665Y043517*
X029593Y043469*
X029546Y043397*
X029529Y043313*
X029532Y043295*
X029268Y04303*
X029238Y042984*
X029227Y042931*
Y041192*
Y037259*
X029238Y037205*
X029268Y037159*
X029471Y036957*
X029516Y036926*
X02957Y036915*
X029976*
X030029Y036926*
X030075Y036957*
X030237Y037119*
X030268Y037164*
X030278Y037218*
Y0377*
X030294Y037711*
X030342Y037782*
X030359Y037867*
X030342Y037951*
X030306Y038004*
X03033Y038054*
X030344*
X030398Y038065*
X030443Y038096*
X030764Y038416*
X030794Y038462*
X030805Y038515*
Y039038*
X030821Y039049*
X030869Y03912*
X030885Y039205*
X030869Y039289*
X030821Y039361*
X030805Y039371*
Y040098*
Y042084*
Y044072*
X030794Y044125*
X030764Y044171*
X030341Y044593*
X030296Y044624*
X030242Y044635*
X029916*
X029906Y04465*
X029834Y044698*
X02975Y044715*
G37*
G36*
X045565Y042384D02*
X043907D01*
Y042236*
X043691*
X043656Y042259*
X043572Y042276*
X043487Y042259*
X043415Y042211*
X043368Y042139*
X043351Y042055*
X043368Y041971*
X043415Y041899*
X043487Y041851*
X043572Y041834*
X043656Y041851*
X043691Y041874*
X043907*
Y041726*
X045565*
Y042384*
G37*
G36*
X043195Y047999D02*
X034031D01*
X033959Y047989*
X033892Y047962*
X033834Y047917*
X03379Y04786*
X033762Y047793*
X033753Y047721*
X033762Y047649*
X03379Y047582*
X033834Y047524*
X033892Y04748*
X033928Y047465*
X033918Y047415*
X023001*
X022947Y047405*
X022901Y047374*
X022172Y046644*
X022141Y046599*
X02213Y046545*
Y045541*
X022141Y045487*
X022172Y045441*
X022454Y045159*
X022442Y045131*
X022431Y045043*
X022442Y044956*
X022476Y044875*
X02253Y044805*
X0226Y044751*
X022681Y044717*
X022768Y044706*
X022856Y044717*
X022937Y044751*
X023007Y044805*
X023061Y044875*
X023094Y044956*
X023106Y045043*
X023094Y045131*
X023061Y045212*
X023007Y045282*
X022937Y045336*
X022856Y045369*
X022768Y045381*
X022681Y045369*
X022653Y045358*
X022411Y045599*
Y045687*
X022461Y045697*
X022476Y045662*
X02253Y045592*
X0226Y045538*
X022681Y045505*
X022768Y045493*
X022856Y045505*
X022937Y045538*
X023007Y045592*
X023061Y045662*
X023094Y045743*
X023106Y045831*
X023094Y045918*
X023061Y045999*
X023007Y046069*
X022937Y046123*
X022909Y046135*
Y046416*
X023305Y046813*
X028766*
X028786Y046763*
X028157Y046133*
X028113Y046076*
X028085Y046009*
X028076Y045937*
X028085Y045865*
X028113Y045798*
X028157Y04574*
X028215Y045696*
X028282Y045668*
X028354Y045659*
X028425Y045668*
X028493Y045696*
X02855Y04574*
X029118Y046307*
X035629*
X03651Y045426*
Y045409*
X03652Y045338*
X036547Y04527*
X036592Y045213*
X036648Y04517*
Y045166*
X036637Y04512*
X035572*
X0355Y04511*
X035433Y045082*
X035375Y045038*
X03381Y043473*
X03373Y043462*
X033639Y043425*
X033561Y043365*
X033501Y043287*
X033464Y043196*
X033451Y043098*
Y041812*
X033401Y041807*
X033398Y04182*
X03335Y041892*
X033279Y04194*
X033194Y041957*
X03311Y04194*
X033038Y041892*
X03299Y04182*
X032973Y041736*
X03299Y041651*
X033038Y04158*
X03311Y041532*
X033194Y041515*
X033279Y041532*
X03335Y04158*
X033398Y041651*
X033401Y041665*
X033451Y04166*
Y04107*
Y040911*
X033401Y040906*
X033398Y040919*
X03335Y040991*
X033279Y041039*
X033194Y041056*
X03311Y041039*
X033038Y040991*
X03299Y040919*
X032973Y040835*
X03299Y04075*
X033038Y040679*
X03311Y040631*
X033194Y040614*
X033279Y040631*
X03335Y040679*
X033398Y04075*
X033401Y040763*
X033451Y040758*
Y038862*
X033454Y038836*
X033451Y038811*
Y036523*
X032658Y03573*
X02997*
X029136Y036563*
Y043706*
X029123Y043804*
X029086Y043895*
X029026Y043973*
X028611Y044388*
X028533Y044448*
X028442Y044485*
X028344Y044498*
X025849*
X025751Y044485*
X02566Y044448*
X025582Y044388*
X025127Y043932*
X025067Y043854*
X025029Y043763*
X025016Y043666*
Y038169*
X024597Y037749*
X022809*
X022711Y037736*
X02262Y037699*
X022542Y037639*
X022482Y037561*
X022444Y03747*
X022432Y037372*
X022444Y037274*
X022482Y037183*
X022542Y037105*
X02262Y037045*
X022711Y037008*
X022809Y036995*
X024753*
X02485Y037008*
X024941Y037045*
X02502Y037105*
X025376Y037461*
X027823*
Y035263*
X027549Y034988*
X027505Y034931*
X027477Y034864*
X027467Y034792*
Y034136*
X027477Y034064*
X027505Y033997*
X027549Y03394*
X028076Y033412*
X028133Y033368*
X028201Y033341*
X028272Y033331*
X029124*
X029196Y033341*
X029263Y033368*
X029321Y033412*
X029726Y033818*
X030613*
X030685Y033827*
X030752Y033855*
X030809Y033899*
X030854Y033957*
X030881Y034024*
X030891Y034096*
X030881Y034168*
X030854Y034235*
X030809Y034292*
X030752Y034336*
X030685Y034364*
X030613Y034374*
X029611*
X029539Y034364*
X029472Y034336*
X029414Y034292*
X029009Y033887*
X028388*
X028023Y034251*
Y034677*
X028298Y034951*
X028342Y035009*
X02837Y035076*
X028379Y035148*
Y036216*
X028429Y036226*
X028432Y036218*
X028492Y03614*
X029547Y035086*
X029625Y035026*
X029716Y034988*
X029813Y034976*
X032814*
X032912Y034988*
X032998Y035024*
X035669*
X035861Y034832*
Y034238*
X035765*
Y034147*
X035715Y034126*
X03556Y034282*
X035501Y034321*
X035432Y034335*
X035362*
Y034391*
X034889*
Y033929*
Y033918*
X034864Y033879*
X03483*
Y032934*
X034945*
Y031509*
X034845Y031468*
X034746Y031392*
X034671Y031293*
X034623Y031178*
X034607Y031055*
X034623Y030932*
X034671Y030817*
X034746Y030718*
X034845Y030642*
X03496Y030595*
X035083Y030578*
X035207Y030595*
X035322Y030642*
X03542Y030718*
X035496Y030817*
X035538Y030918*
X03556Y030922*
X03559Y030918*
X035636Y030806*
X035716Y030703*
X035819Y030624*
X035939Y030574*
X036018Y030564*
Y031055*
Y031546*
X035939Y031536*
X035819Y031486*
X035716Y031407*
X035636Y031304*
X03559Y031192*
X03556Y031188*
X035538Y031192*
X035496Y031293*
X03542Y031392*
X035322Y031468*
X035306Y031474*
Y032934*
X035421*
Y033839*
X035471Y03386*
X035555Y033775*
X035614Y033736*
X035683Y033722*
X035765*
Y03359*
X035744*
Y033284*
X036139*
X036535*
Y03359*
X036513*
Y034238*
X036417*
Y034947*
X036408Y035019*
X03638Y035086*
X036336Y035144*
X035981Y035499*
X035924Y035543*
X035857Y03557*
X035785Y03558*
X03364*
X033621Y035626*
X034095Y0361*
X034155Y036178*
X034192Y036269*
X034205Y036367*
Y038558*
X03519*
X035262Y038568*
X035329Y038596*
X035386Y03864*
X035818Y039071*
X037973*
X038012Y039044*
Y038591*
X038484*
Y038637*
X039818*
X040382Y038073*
X040361Y038023*
X038694*
X038622Y038014*
X038555Y037986*
X038498Y037942*
X038139Y037583*
X038095Y037526*
X038067Y037459*
X038058Y037387*
Y036883*
Y036238*
X038067Y036167*
X038095Y036099*
X038139Y036042*
X038419Y035762*
X038476Y035718*
X038543Y03569*
X038615Y035681*
X038639*
Y03568*
X039096*
Y035804*
X039108Y03582*
X039136Y035887*
X039146Y035959*
X039136Y036031*
X039108Y036098*
X039096Y036113*
Y036238*
X03873*
X038614Y036354*
Y036587*
X038986*
X039727Y035846*
X039785Y035801*
X039852Y035774*
X039924Y035764*
X043688*
X044491Y034962*
X044499Y034955*
Y034558*
X044485Y03454*
X044451Y034458*
X044439Y034371*
X044451Y034283*
X044485Y034202*
X044538Y034132*
X044608Y034078*
X04469Y034045*
X044777Y034033*
X044864Y034045*
X044946Y034078*
X044964Y034093*
X045457*
X045529Y034102*
X045596Y03413*
X045654Y034174*
X04619Y03471*
X046234Y034768*
X046262Y034835*
X046271Y034907*
Y038313*
X046262Y038385*
X046234Y038452*
X04619Y03851*
X0455Y039199*
X045443Y039243*
X045376Y039271*
X045304Y03928*
X04331*
X042865Y039726*
Y043834*
X044974*
X044989Y043784*
X044986Y043781*
X044938Y04371*
X044921Y043625*
X044938Y043541*
X044986Y043469*
X045057Y043421*
X045142Y043404*
X045226Y043421*
X045298Y043469*
X045346Y043541*
X045363Y043625*
X045346Y04371*
X045298Y043781*
X045294Y043784*
X045309Y043834*
X046208*
Y042384*
X045657*
Y041726*
X04628*
X046307Y041676*
X046287Y041646*
X04627Y041562*
X046287Y041477*
X046305Y041449*
Y041384*
X045657*
Y040726*
X047315*
Y041384*
X046666*
Y041435*
X046695Y041477*
X046711Y041562*
X046695Y041646*
X046674Y041676*
X046701Y041726*
X047315*
Y042384*
X046764*
Y04443*
X046754Y044502*
X046727Y044569*
X046682Y044627*
X043392Y047917*
X043334Y047962*
X043267Y047989*
X043195Y047999*
G37*
G36*
X045565Y041384D02*
X043907D01*
Y041236*
X043686*
X043651Y041259*
X043567Y041276*
X043482Y041259*
X043411Y041211*
X043363Y041139*
X043346Y041055*
X043363Y040971*
X043411Y040899*
X043482Y040851*
X043567Y040834*
X043651Y040851*
X043686Y040874*
X043907*
Y040726*
X045565*
Y041384*
G37*
G36*
X022799Y041179D02*
X022712Y041167D01*
X022631Y041134*
X022561Y04108*
X022507Y04101*
X022473Y040929*
X022462Y040841*
X022473Y040754*
X022507Y040673*
X022561Y040603*
X022631Y040549*
X022712Y040515*
X022799Y040504*
X022887Y040515*
X022968Y040549*
X023038Y040603*
X023092Y040673*
X023126Y040754*
X023137Y040841*
X023126Y040929*
X023092Y04101*
X023038Y04108*
X022968Y041134*
X022887Y041167*
X022799Y041179*
G37*
G36*
X045565Y040384D02*
X043907D01*
Y040237*
X04368*
X043645Y040261*
X04356Y040277*
X043476Y040261*
X043404Y040213*
X043356Y040141*
X043339Y040057*
X043356Y039972*
X043404Y039901*
X043476Y039853*
X04356Y039836*
X043645Y039853*
X04368Y039876*
X043907*
Y039726*
X045565*
Y040384*
G37*
G36*
X047336Y040405D02*
X046536D01*
Y040105*
X047336*
Y040405*
G37*
G36*
X046436D02*
X045636D01*
Y040105*
X046436*
Y040405*
G37*
G36*
X022849Y040406D02*
Y040104D01*
X023152*
X023146Y040147*
X02311Y040234*
X023053Y040308*
X022979Y040365*
X022892Y040401*
X022849Y040406*
G37*
G36*
X022749D02*
X022707Y040401D01*
X02262Y040365*
X022546Y040308*
X022489Y040234*
X022453Y040147*
X022447Y040104*
X022749*
Y040406*
G37*
G36*
X047336Y040005D02*
X046536D01*
Y039705*
X047336*
Y040005*
G37*
G36*
X046436D02*
X045636D01*
Y039705*
X046436*
Y040005*
G37*
G36*
X023152Y040004D02*
X022849D01*
Y039702*
X022892Y039707*
X022979Y039743*
X023053Y0398*
X02311Y039875*
X023146Y039961*
X023152Y040004*
G37*
G36*
X022749D02*
X022447D01*
X022453Y039961*
X022489Y039875*
X022546Y0398*
X02262Y039743*
X022707Y039707*
X022749Y039702*
Y040004*
G37*
G36*
X032855Y039811D02*
X032763Y039793D01*
X032684Y03974*
X032632Y039662*
X032614Y03957*
X032632Y039478*
X032684Y0394*
X032763Y039348*
X032855Y039329*
X032947Y039348*
X033025Y0394*
X033077Y039478*
X033096Y03957*
X033077Y039662*
X033025Y03974*
X032947Y039793*
X032855Y039811*
G37*
G36*
X030665Y037885D02*
X03058Y037868D01*
X030508Y03782*
X030461Y037749*
X030444Y037664*
X030461Y03758*
X030508Y037508*
X03058Y03746*
X030665Y037443*
X030749Y03746*
X030821Y037508*
X030869Y03758*
X030885Y037664*
X030869Y037749*
X030821Y03782*
X030749Y037868*
X030665Y037885*
G37*
G36*
X036626Y037114D02*
X036542Y037098D01*
X03647Y03705*
X036422Y036978*
X036405Y036894*
X036422Y036809*
X03647Y036738*
X036542Y03669*
X036626Y036673*
X03671Y03669*
X036782Y036738*
X03683Y036809*
X036847Y036894*
X03683Y036978*
X036782Y03705*
X03671Y037098*
X036626Y037114*
G37*
G36*
X022859Y036937D02*
Y036635D01*
X023161*
X023156Y036678*
X02312Y036764*
X023063Y036838*
X022988Y036895*
X022902Y036931*
X022859Y036937*
G37*
G36*
X022759D02*
X022716Y036931D01*
X022629Y036895*
X022555Y036838*
X022498Y036764*
X022462Y036678*
X022456Y036635*
X022759*
Y036937*
G37*
G36*
Y036535D02*
X022456D01*
X022462Y036492*
X022498Y036405*
X022555Y036331*
X022629Y036274*
X022716Y036238*
X022759Y036232*
Y036535*
G37*
G36*
X023161D02*
X022859D01*
Y036232*
X022902Y036238*
X022988Y036274*
X023063Y036331*
X02312Y036405*
X023156Y036492*
X023161Y036535*
G37*
G36*
X043317Y035695D02*
X043232Y035678D01*
X043161Y035631*
X043113Y035559*
X043096Y035474*
X043113Y03539*
X043161Y035318*
X043232Y03527*
X043317Y035254*
X043401Y03527*
X043473Y035318*
X043521Y03539*
X043538Y035474*
X043521Y035559*
X043473Y035631*
X043401Y035678*
X043317Y035695*
G37*
G36*
X038744Y035432D02*
X038544D01*
Y035182*
X038744*
Y035432*
G37*
G36*
X038444D02*
X038244D01*
Y035182*
X038444*
Y035432*
G37*
G36*
X038744Y035082D02*
X038544D01*
Y034832*
X038744*
Y035082*
G37*
G36*
X038444D02*
X038244D01*
Y034832*
X038444*
Y035082*
G37*
G36*
X031585Y033779D02*
X0315Y033762D01*
X031428Y033714*
X031381Y033642*
X031364Y033558*
X031381Y033473*
X031428Y033402*
X0315Y033354*
X031585Y033337*
X031669Y033354*
X031741Y033402*
X031789Y033473*
X031805Y033558*
X031789Y033642*
X031741Y033714*
X031669Y033762*
X031585Y033779*
G37*
G36*
X022025Y033764D02*
X021907D01*
Y033022*
X022294*
Y033494*
X022285Y033564*
X022258Y033629*
X022215Y033685*
X022159Y033728*
X022094Y033755*
X022025Y033764*
G37*
G36*
X021807D02*
X02169D01*
X02162Y033755*
X021555Y033728*
X021499Y033685*
X021456Y033629*
X021429Y033564*
X02142Y033494*
Y033022*
X021807*
Y033764*
G37*
G36*
X036535Y033184D02*
X036189D01*
Y032878*
X036535*
Y033184*
G37*
G36*
X036089D02*
X035744D01*
Y032878*
X036089*
Y033184*
G37*
G36*
X041817Y034114D02*
X041732Y034097D01*
X04166Y034049*
X041613Y033977*
X041596Y033893*
X041613Y033808*
X041636Y033774*
Y033082*
X04165Y033013*
X041689Y032954*
X041932Y032711*
X041991Y032672*
X04206Y032658*
X042298*
Y032602*
X04275*
Y033075*
X042298*
Y033019*
X042135*
X041997Y033157*
Y033774*
X042021Y033808*
X042037Y033893*
X042021Y033977*
X041973Y034049*
X041901Y034097*
X041817Y034114*
G37*
G36*
X025393Y036567D02*
X025301Y036549D01*
X025223Y036496*
X025171Y036418*
X025152Y036326*
X025171Y036234*
X025213Y036171*
Y034663*
X025226Y034594*
X025266Y034536*
X027496Y032305*
X027555Y032266*
X027624Y032252*
X028559*
X028593Y032229*
X028678Y032212*
X028762Y032229*
X028834Y032277*
X028882Y032349*
X028899Y032433*
X028882Y032518*
X028834Y032589*
X028762Y032637*
X028678Y032654*
X028593Y032637*
X028559Y032614*
X027698*
X025574Y034738*
Y036171*
X025616Y036234*
X025634Y036326*
X025616Y036418*
X025564Y036496*
X025485Y036549*
X025393Y036567*
G37*
G36*
X024387Y033745D02*
X024052D01*
X023956Y033726*
X023875Y033672*
X02382Y03359*
X023801Y033494*
Y032451*
X02382Y032355*
X023875Y032273*
X023956Y032219*
X024052Y0322*
X024387*
X024483Y032219*
X024564Y032273*
X024619Y032355*
X024638Y032451*
Y033494*
X024619Y03359*
X024564Y033672*
X024483Y033726*
X024387Y033745*
G37*
G36*
X022294Y032922D02*
X021907D01*
Y032181*
X022025*
X022094Y03219*
X022159Y032217*
X022215Y03226*
X022258Y032316*
X022285Y032381*
X022294Y032451*
Y032922*
G37*
G36*
X021807D02*
X02142D01*
Y032451*
X021429Y032381*
X021456Y032316*
X021499Y03226*
X021555Y032217*
X02162Y03219*
X02169Y032181*
X021807*
Y032922*
G37*
G36*
X02356Y03152D02*
X023088D01*
Y031133*
X02383*
Y03125*
X02382Y03132*
X023794Y031385*
X023751Y031441*
X023695Y031484*
X02363Y03151*
X02356Y03152*
G37*
G36*
X022988D02*
X022517D01*
X022447Y03151*
X022382Y031484*
X022326Y031441*
X022283Y031385*
X022256Y03132*
X022247Y03125*
Y031133*
X022988*
Y03152*
G37*
G36*
X043282Y033075D02*
X042829D01*
Y032602*
X042915*
Y031503*
X042829Y031468*
X042731Y031392*
X042655Y031293*
X042607Y031178*
X042601Y031128*
X04255*
X042544Y031178*
X042496Y031293*
X04242Y031392*
X042322Y031468*
X042207Y031515*
X042083Y031532*
X04196Y031515*
X041845Y031468*
X041746Y031392*
X041671Y031293*
X041623Y031178*
X041607Y031055*
X041623Y030932*
X041671Y030817*
X041746Y030718*
X041845Y030642*
X04196Y030595*
X042083Y030578*
X042207Y030595*
X042322Y030642*
X04242Y030718*
X042496Y030817*
X042544Y030932*
X04255Y030982*
X042601*
X042607Y030932*
X042655Y030817*
X042731Y030718*
X042829Y030642*
X042944Y030595*
X043068Y030578*
X043191Y030595*
X043306Y030642*
X043405Y030718*
X04348Y030817*
X043526Y030927*
X043538Y030932*
X043565*
X043578Y030927*
X043624Y030817*
X043699Y030718*
X043798Y030642*
X043913Y030595*
X044036Y030578*
X04416Y030595*
X044274Y030642*
X044373Y030718*
X044449Y030817*
X044496Y030932*
X044513Y031055*
X044496Y031178*
X044449Y031293*
X044373Y031392*
X044274Y031468*
X04416Y031515*
X044036Y031532*
X043913Y031515*
X043798Y031468*
X043699Y031392*
X043624Y031293*
X043578Y031183*
X043565Y031178*
X043538*
X043526Y031183*
X04348Y031293*
X043405Y031392*
X043306Y031468*
X043196Y031513*
Y032602*
X043282*
Y033075*
G37*
G36*
X03947Y035411D02*
X039013D01*
Y034853*
X039061*
Y034429*
X039002*
Y033976*
X039116*
X039126Y033926*
X039086Y03391*
X03907Y033898*
X039002*
Y033831*
X038984Y033808*
X038956Y033741*
X038947Y033669*
X038956Y033597*
X038984Y03353*
X039002Y033506*
Y033445*
X039064*
X039086Y033428*
X039153Y0334*
X039225Y033391*
X039898*
X04079Y032499*
Y031437*
X040731Y031392*
X040655Y031293*
X040607Y031178*
X040596Y031091*
X040593Y031068*
X040542*
X04054Y031091*
X040528Y031178*
X04048Y031293*
X040405Y031392*
X040306Y031468*
X040191Y031515*
X040068Y031532*
X039944Y031515*
X039829Y031468*
X039731Y031392*
X039655Y031293*
X039607Y031178*
X039591Y031055*
X039607Y030932*
X039655Y030817*
X039731Y030718*
X039829Y030642*
X039944Y030595*
X040068Y030578*
X040191Y030595*
X040306Y030642*
X040405Y030718*
X04048Y030817*
X040528Y030932*
X04054Y031019*
X040542Y031042*
X040593*
X040596Y031019*
X040607Y030932*
X040655Y030817*
X040731Y030718*
X040829Y030642*
X040944Y030595*
X041068Y030578*
X041191Y030595*
X041306Y030642*
X041405Y030718*
X04148Y030817*
X041528Y030932*
X041544Y031055*
X041528Y031178*
X04148Y031293*
X041405Y031392*
X041346Y031437*
Y032614*
X041336Y032686*
X041308Y032753*
X041264Y032811*
X04021Y033865*
X040152Y03391*
X040085Y033937*
X040013Y033947*
X039512*
X039475Y033976*
Y033997*
Y034429*
X039422*
Y034853*
X03947*
Y035411*
G37*
G36*
X034068Y031532D02*
X033944Y031515D01*
X033829Y031468*
X033731Y031392*
X033655Y031293*
X033607Y031178*
X033596Y031091*
X033593Y031068*
X033542*
X03354Y031091*
X033528Y031178*
X03348Y031293*
X033405Y031392*
X033306Y031468*
X033191Y031515*
X033068Y031532*
X032944Y031515*
X032829Y031468*
X032731Y031392*
X032655Y031293*
X032607Y031178*
X032596Y031091*
X032593Y031068*
X032542*
X03254Y031091*
X032528Y031178*
X03248Y031293*
X032405Y031392*
X032306Y031468*
X032191Y031515*
X032068Y031532*
X031944Y031515*
X031829Y031468*
X031731Y031392*
X031655Y031293*
X031607Y031178*
X031596Y031091*
X031593Y031068*
X031542*
X03154Y031091*
X031528Y031178*
X03148Y031293*
X031405Y031392*
X031306Y031468*
X031191Y031515*
X031068Y031532*
X030944Y031515*
X030829Y031468*
X030731Y031392*
X030655Y031293*
X030607Y031178*
X030591Y031055*
X030607Y030932*
X030655Y030817*
X030731Y030718*
X030829Y030642*
X030944Y030595*
X031068Y030578*
X031191Y030595*
X031306Y030642*
X031405Y030718*
X03148Y030817*
X031528Y030932*
X03154Y031019*
X031542Y031042*
X031593*
X031596Y031019*
X031607Y030932*
X031655Y030817*
X031731Y030718*
X031829Y030642*
X031944Y030595*
X032068Y030578*
X032191Y030595*
X032306Y030642*
X032405Y030718*
X03248Y030817*
X032528Y030932*
X03254Y031019*
X032542Y031042*
X032593*
X032596Y031019*
X032607Y030932*
X032655Y030817*
X032731Y030718*
X032829Y030642*
X032944Y030595*
X033068Y030578*
X033191Y030595*
X033306Y030642*
X033405Y030718*
X03348Y030817*
X033528Y030932*
X03354Y031019*
X033542Y031042*
X033593*
X033596Y031019*
X033607Y030932*
X033655Y030817*
X033731Y030718*
X033829Y030642*
X033944Y030595*
X034068Y030578*
X034191Y030595*
X034306Y030642*
X034405Y030718*
X03448Y030817*
X034528Y030932*
X034544Y031055*
X034528Y031178*
X03448Y031293*
X034405Y031392*
X034306Y031468*
X034191Y031515*
X034068Y031532*
G37*
G36*
X02383Y031033D02*
X023088D01*
Y030646*
X02356*
X02363Y030655*
X023695Y030682*
X023751Y030725*
X023794Y030781*
X02382Y030846*
X02383Y030915*
Y031033*
G37*
G36*
X022988D02*
X022247D01*
Y030915*
X022256Y030846*
X022283Y030781*
X022326Y030725*
X022382Y030682*
X022447Y030655*
X022517Y030646*
X022988*
Y031033*
G37*
G36*
X045509Y031527D02*
X044564D01*
Y030583*
X045509*
Y031527*
G37*
G36*
X037086Y031546D02*
Y031055D01*
Y030564*
X037165Y030574*
X037285Y030624*
X037388Y030703*
X037467Y030806*
X037517Y030926*
X037564Y030914*
Y030583*
X038509*
Y031527*
X037564*
Y031196*
X037517Y031184*
X037467Y031304*
X037388Y031407*
X037285Y031486*
X037165Y031536*
X037086Y031546*
G37*
G36*
X036118D02*
Y031055D01*
Y030564*
X036197Y030574*
X036317Y030624*
X03642Y030703*
X036499Y030806*
X036525Y030869*
X036579*
X036605Y030806*
X036684Y030703*
X036787Y030624*
X036907Y030574*
X036986Y030564*
Y031055*
Y031546*
X036907Y031536*
X036787Y031486*
X036684Y031407*
X036605Y031304*
X036579Y031241*
X036525*
X036499Y031304*
X03642Y031407*
X036317Y031486*
X036197Y031536*
X036118Y031546*
G37*
%LNvapeixshield-3*%
%LPD*%
G36*
X042309Y043997D02*
Y039611D01*
X042319Y039539*
X042346Y039472*
X04239Y039414*
X042999Y038806*
X043056Y038762*
X043123Y038734*
X043195Y038724*
X045189*
X045715Y038198*
Y035022*
X045342Y034649*
X045055*
Y034971*
X045069Y034989*
X045103Y035071*
X045115Y035158*
X045103Y035246*
X045069Y035327*
X045016Y035397*
X044946Y035451*
X044864Y035484*
X044777Y035496*
X044747Y035492*
X044662Y035577*
X04469Y03562*
X044777Y035608*
X044864Y03562*
X044946Y035653*
X045016Y035707*
X04506Y035765*
X045167*
X045236Y035779*
X045295Y035818*
X045594Y036117*
X045633Y036176*
X045647Y036245*
Y037989*
X045633Y038058*
X045594Y038116*
X045401Y038309*
X045343Y038348*
X045274Y038362*
X0427*
X042676Y038406*
X042688Y038424*
X042706Y038516*
X042688Y038608*
X042636Y038686*
X042558Y038738*
X042465Y038757*
X042373Y038738*
X042295Y038686*
X042243Y038608*
X042225Y038516*
X042243Y038424*
X042255Y038406*
X042231Y038362*
X040604*
X040047Y038918*
Y03982*
X040145*
Y040278*
X039588*
Y03982*
X039686*
Y038998*
X038484*
Y039044*
X038362*
X038352Y039094*
X038387Y039108*
X038406Y039123*
X038484*
Y039204*
X038489Y03921*
X038517Y039277*
X038526Y039349*
X038517Y039421*
X038498Y039465*
X038502Y039472*
X038536Y039505*
X038589Y039494*
X038761*
Y039446*
X039319*
Y039904*
X038761*
Y039856*
X038664*
X038429Y040091*
Y040173*
X038484*
Y040626*
X038012*
Y040173*
X038067*
Y040016*
X038081Y039947*
X03812Y039888*
X038349Y03966*
X038321Y039617*
X03832Y039618*
X038248Y039627*
X035703*
X035631Y039618*
X035564Y03959*
X035506Y039546*
X035075Y039114*
X034205*
Y040693*
X035066*
X035092Y040682*
X03519Y04067*
X035287Y040682*
X035378Y04072*
X035457Y04078*
X035516Y040858*
X035554Y040949*
X035567Y041047*
X035554Y041144*
X035516Y041235*
X035457Y041314*
X035433Y041337*
X035355Y041397*
X035264Y041435*
X035166Y041448*
X034205*
Y043082*
X035687Y044564*
X041742*
X042309Y043997*
G37*
%LNvapeixshield-4*%
%LPC*%
G36*
X041208Y044505D02*
X041124Y044488D01*
X041052Y04444*
X041004Y044369*
X040987Y044284*
X040995Y044244*
X04096Y044209*
X040951Y044211*
X040909Y044203*
X040753Y04436*
X040713Y044386*
X040667Y044395*
X039725*
X039702Y04443*
X03963Y044478*
X039546Y044495*
X039461Y044478*
X03939Y04443*
X039342Y044359*
X039325Y044274*
X039342Y04419*
X03939Y044118*
X039461Y04407*
X039546Y044053*
X03963Y04407*
X039702Y044118*
X039725Y044153*
X040617*
X040738Y044032*
X04073Y04399*
X040747Y043906*
X040795Y043834*
X040866Y043786*
X040951Y043769*
X041035Y043786*
X041107Y043834*
X041155Y043906*
X041172Y04399*
X041164Y04403*
X041199Y044065*
X041208Y044063*
X041293Y04408*
X041364Y044128*
X041412Y0442*
X041429Y044284*
X041412Y044369*
X041364Y04444*
X041293Y044488*
X041208Y044505*
G37*
G36*
X041817Y04413D02*
X041732Y044113D01*
X04166Y044065*
X041613Y043994*
X041596Y043909*
X041613Y043825*
X04166Y043753*
X041732Y043705*
X041817Y043688*
X041901Y043705*
X041973Y043753*
X042021Y043825*
X042037Y043909*
X042021Y043994*
X041973Y044065*
X041901Y044113*
X041817Y04413*
G37*
G36*
X040372Y043621D02*
X040303Y043607D01*
X040245Y043568*
X040206Y04351*
X040192Y043441*
X040206Y043371*
X040245Y043313*
X040303Y043274*
X040372Y04326*
X040442Y043274*
X0405Y043313*
X040539Y043371*
X040553Y043441*
X040539Y04351*
X0405Y043568*
X040442Y043607*
X040372Y043621*
G37*
G36*
X036788Y04439D02*
X036716Y04438D01*
X036649Y044353*
X036592Y044308*
X036547Y044251*
X03652Y044184*
X03651Y044112*
Y043504*
X03652Y043432*
X036547Y043365*
X036592Y043307*
X036957Y042942*
X037014Y042898*
X037081Y04287*
X037153Y042861*
X037225Y04287*
X037292Y042898*
X03735Y042942*
X037394Y043*
X037422Y043067*
X037431Y043139*
X037422Y043211*
X037394Y043278*
X03735Y043335*
X037066Y043619*
Y044112*
X037057Y044184*
X037029Y044251*
X036985Y044308*
X036927Y044353*
X03686Y04438*
X036788Y04439*
G37*
G36*
X038248Y041941D02*
X038194Y04193D01*
X038193Y041929*
X038164Y041923*
X038092Y041875*
X038044Y041804*
X038027Y041719*
X038044Y041635*
X038092Y041563*
X038108Y041553*
Y041157*
X038012*
Y040704*
X038484*
Y041157*
X038389*
Y041553*
X038404Y041563*
X038452Y041635*
X038469Y041719*
X038452Y041804*
X038404Y041875*
X038333Y041923*
X038304Y041929*
X038302Y04193*
X038248Y041941*
G37*
G36*
X040803Y041859D02*
X040734Y041846D01*
X040675Y041806*
X040636Y041748*
X040622Y041679*
X040636Y04161*
X040671Y041556*
Y04107*
X040681Y04102*
X04071Y040978*
X040913Y040775*
X040955Y040746*
X041006Y040736*
X041336*
X041362Y040697*
X041441Y040645*
X041533Y040627*
X041625Y040645*
X041703Y040697*
X041755Y040776*
X041774Y040868*
X041755Y04096*
X041703Y041038*
X041648Y041075*
Y041133*
X041703Y04117*
X041755Y041248*
X041774Y04134*
X041755Y041432*
X041703Y04151*
X041625Y041563*
X041533Y041581*
X041441Y041563*
X041362Y04151*
X04131Y041432*
X041292Y04134*
X04131Y041248*
X041362Y04117*
X041418Y041133*
Y041075*
X041362Y041038*
X041336Y040999*
X04106*
X040934Y041125*
Y041556*
X04097Y04161*
X040983Y041679*
X04097Y041748*
X04093Y041806*
X040872Y041846*
X040803Y041859*
G37*
G36*
X03934Y040673D02*
X03909D01*
Y040473*
X03934*
Y040673*
G37*
G36*
X03899D02*
X03874D01*
Y040473*
X03899*
Y040673*
G37*
G36*
X03934Y040373D02*
X03909D01*
Y040173*
X03934*
Y040373*
G37*
G36*
X03899D02*
X03874D01*
Y040173*
X03899*
Y040373*
G37*
G36*
X041452Y040277D02*
X041367Y040261D01*
X041295Y040213*
X041248Y040141*
X041231Y040057*
X041248Y039972*
X041295Y039901*
X041367Y039853*
X041452Y039836*
X041536Y039853*
X041608Y039901*
X041656Y039972*
X041672Y040057*
X041656Y040141*
X041608Y040213*
X041536Y040261*
X041452Y040277*
G37*
%LNvapeixshield-5*%
%LPD*%
G54D12*
X043056Y032839D03*
X042524D03*
G54D21*
X039238Y034203D03*
Y033671D03*
X038248Y038818D03*
Y039349D03*
Y040399D03*
Y040931D03*
G54D22*
X044736Y040055D03*
Y041055D03*
Y042055D03*
X046486Y040055D03*
Y041055D03*
Y042055D03*
G54D27*
X039084Y036883D03*
G54D28*
X038336Y036883D03*
G54D31*
X035126Y034154D03*
G54D32*
X035126Y033406D03*
G54D34*
X039546Y044274D02*
X040667D01*
X040951Y04399*
X04356Y042044D02*
X043572Y042055D01*
G54D35*
X040803Y04107D02*
Y041679D01*
Y04107D02*
X041006Y040868D01*
X041533*
G54D36*
X039867Y038843D02*
X040529Y038181D01*
X045274D02*
X045466Y037989D01*
X04356Y040057D02*
X044734D01*
X046486Y041055D02*
Y041557D01*
X043567Y041055D02*
X044731D01*
X043572Y042055D02*
X044736D01*
X024785Y045004D02*
X030422D01*
X024096Y044315D02*
X024785Y045004D01*
X024096Y043382D02*
Y044315D01*
X021966Y042855D02*
X023568D01*
X024096Y043382*
X02146Y043361D02*
X021966Y042855D01*
X02146Y043361D02*
Y047761D01*
X031192Y036529D02*
Y044233D01*
X030422Y045004D02*
X031192Y044233D01*
X040529Y038181D02*
X045274D01*
X027786Y048613D02*
X028468Y049295D01*
X022311Y048613D02*
X027786D01*
X02146Y047761D02*
X022311Y048613D01*
X035083Y031055D02*
X035126Y031097D01*
Y033406*
X027624Y032433D02*
X028678D01*
X025393Y034663D02*
X027624Y032433D01*
X025393Y034663D02*
Y036326D01*
X04206Y032839D02*
X042524D01*
X041817Y033082D02*
X04206Y032839D01*
X041817Y033082D02*
Y033893D01*
X028468Y049295D02*
Y050055D01*
X039867Y038818D02*
Y040049D01*
X038248Y038818D02*
X039867D01*
X046486Y040487D02*
X046491Y040492D01*
X046486Y040055D02*
Y040487D01*
X038589Y039675D02*
X03904D01*
X038248Y040016D02*
X038589Y039675D01*
X038248Y040016D02*
Y040399D01*
X035683Y033903D02*
X036139D01*
X035432Y034154D02*
X035683Y033903D01*
X035126Y034154D02*
X035432D01*
X039242Y034203D02*
Y035132D01*
X045167Y035946D02*
X045466Y036245D01*
X044777Y035946D02*
X045167D01*
X045466Y036245D02*
Y037989D01*
G54D37*
X044734Y040057D02*
X044736Y040055D01*
X044006Y04622D02*
X045142Y045085D01*
X043844Y045896D02*
X044615Y045126D01*
X043114Y045896D02*
X043844D01*
X042057Y046953D02*
X043114Y045896D01*
X043276Y04622D02*
X044006D01*
X042222Y047275D02*
X043276Y04622D01*
X023001Y047275D02*
X042222D01*
X032507Y040161D02*
X032855D01*
X029367Y041192D02*
Y042931D01*
Y037259D02*
Y041192D01*
X029372Y041187*
X02975*
X029367Y042931D02*
X02975Y043313D01*
X029367Y037259D02*
X02957Y037056D01*
X030138Y037218D02*
Y037867D01*
X029976Y037056D02*
X030138Y037218D01*
X02957Y037056D02*
X029976D01*
X023247Y046953D02*
X042057D01*
X022768Y046475D02*
X023247Y046953D01*
X022768Y045831D02*
Y046475D01*
X041068Y048837D02*
Y050055D01*
X040438Y048207D02*
X041068Y048837D01*
X028719Y048207D02*
X040438D01*
X028435Y048491D02*
X028719Y048207D01*
X022271Y046545D02*
X023001Y047275D01*
X022271Y045541D02*
Y046545D01*
X032368Y0403D02*
X032507Y040161D01*
X032814Y044112D02*
X033666D01*
X032368Y043666D02*
X032814Y044112D01*
X032368Y0403D02*
Y043666D01*
X030665Y042084D02*
Y044072D01*
Y040098D02*
Y042084D01*
X030381Y042368D02*
X030665Y042084D01*
X02975Y042368D02*
X030381D01*
X030242Y044494D02*
X030665Y044072D01*
X02975Y044494D02*
X030242D01*
X030665Y039205D02*
Y040098D01*
X030441Y040321D02*
X030665Y040098D01*
X02975Y040321D02*
X030441D01*
X030665Y038515D02*
Y039205D01*
X030344Y038195D02*
X030665Y038515D01*
X02975Y038195D02*
X030344D01*
X022271Y045541D02*
X022768Y045043D01*
X043056Y031067D02*
X043068Y031055D01*
X043056Y031067D02*
Y032839D01*
X038248Y040931D02*
Y041719D01*
Y0418*
G54D38*
X036788Y045409D02*
Y045541D01*
X035744Y046585D02*
X036788Y045541D01*
X029002Y046585D02*
X035744D01*
X035572Y044842D02*
X041857D01*
X042587Y044112*
X033828Y043098D02*
X035572Y044842D01*
X043195Y047721D02*
X046486Y04443D01*
Y042055D02*
Y04443D01*
X042587Y044112D02*
X046439D01*
X042587Y039611D02*
Y044112D01*
X034031Y047721D02*
X043195D01*
X036788Y043504D02*
X037153Y043139D01*
X036788Y043504D02*
Y044112D01*
X03904Y040423D02*
X039059Y040442D01*
Y042976*
X038615Y035959D02*
X038868D01*
X038336Y036238D02*
X038615Y035959D01*
X038336Y036238D02*
Y036883D01*
X038694Y037745D02*
X042506D01*
X038336Y037387D02*
X038694Y037745D01*
X038336Y036883D02*
Y037387D01*
X043518Y036733D02*
X044777D01*
X042506Y037745D02*
X043518Y036733D01*
X045457Y034371D02*
X045993Y034907D01*
X044777Y034371D02*
X045457D01*
X030366Y049059D02*
X030728Y048697D01*
X029246Y049059D02*
X030366D01*
X028354Y045937D02*
X029002Y046585D01*
X035703Y039349D02*
X038248D01*
X03519Y038836D02*
X035703Y039349D01*
X027745Y034792D02*
X028101Y035148D01*
X027745Y034136D02*
Y034792D01*
Y034136D02*
X028272Y033609D01*
X032347Y035302D02*
X035785D01*
X033854Y038836D02*
X03519D01*
X025069Y037739D02*
X028101D01*
X029611Y034096D02*
X030613D01*
X029124Y033609D02*
X029611Y034096D01*
X028272Y033609D02*
X029124D01*
X028101Y035148D02*
Y037739D01*
X025444Y039864D02*
X028101D01*
X025466Y041995D02*
X028101D01*
X041068Y031055D02*
Y032614D01*
X040013Y033669D02*
X041068Y032614D01*
X039225Y033669D02*
X040013D01*
X036139Y033903D02*
Y034947D01*
X035785Y035302D02*
X036139Y034947D01*
X044777Y034371D02*
Y035158D01*
X043195Y039002D02*
X045304D01*
X045993Y038313*
Y034907D02*
Y038313D01*
X044687Y035158D02*
X044777D01*
X043804Y036042D02*
X044687Y035158D01*
X039924Y036042D02*
X043804D01*
X039084Y036883D02*
X039924Y036042D01*
X042587Y039611D02*
X043195Y039002D01*
G54D39*
X041533Y040868D03*
Y04134D03*
X032855Y040161D03*
Y03957D03*
X042465Y038516D03*
X025393Y036326D03*
G54D40*
X044777Y035946D03*
Y036733D03*
Y035158D03*
Y034371D03*
X022799Y040841D03*
Y040054D03*
X022809Y037372D03*
Y036585D03*
X022768Y045831D03*
Y045043D03*
Y043468D03*
Y044256D03*
G54D41*
X031468Y050055D03*
X032468D03*
X033483D03*
X034468D03*
X035436D03*
X030468D03*
X029468D03*
X028468D03*
X027468D03*
X038068D03*
X039068D03*
X044036D03*
X043068D03*
X042083D03*
X041068D03*
X040068D03*
X031068Y031055D03*
X032068D03*
X037036D03*
X036068D03*
X035083D03*
X034068D03*
X033068D03*
X040068D03*
X041068D03*
X042083D03*
X043068D03*
X044036D03*
G54D42*
X036436Y050055D03*
X045036D03*
X038036Y031055D03*
X045036D03*
G54D43*
X021857Y032972D03*
X024219D03*
G54D44*
X023038Y031083D03*
G54D45*
X040372Y043441D03*
X040803Y041679D03*
G54D46*
X041817Y043909D03*
X04356Y040057D03*
X041452D03*
X036788Y045409D03*
X045142Y043625D03*
Y045085D03*
X044615Y045126D03*
X039546Y044274D03*
X041208Y044284D03*
X040951Y04399D03*
X036788Y044112D03*
X037153Y043139D03*
X030097Y039408D03*
X046485Y04256D03*
X046491Y041562D03*
X043567Y041055D03*
X043572Y042055D03*
X027056Y038394D03*
X030138Y037867D03*
X033065Y045328D03*
X030422Y04545D03*
X031435Y045288D03*
X030728Y048697D03*
X029246Y049059D03*
X043317Y035474D03*
X034031Y047721D03*
X032571Y045328D03*
X033194Y040835D03*
Y041736D03*
X030746Y032616D03*
X028354Y045937D03*
X033666Y044112D03*
X028435Y048491D03*
X031111Y045896D03*
X031585Y033558D03*
X030665Y037664D03*
X031192Y036529D03*
X028678Y032433D03*
X041817Y033893D03*
X031864Y039733D03*
X03519Y038836D03*
Y041047D03*
X046491Y040492D03*
X032431Y03643D03*
X030613Y034096D03*
X028272Y033609D03*
X030665Y039205D03*
X029651Y033244D03*
X02975Y037604D03*
Y038195D03*
Y040321D03*
Y041187D03*
Y042368D03*
Y043313D03*
Y044494D03*
X028101Y037739D03*
Y039864D03*
Y041995D03*
Y044121D03*
X026691Y045637D03*
X036626Y036894D03*
X039059Y042976D03*
X038248Y041719D03*
X04356Y041517D03*
G54D47*
X038868Y035959D03*
X038494Y035132D03*
X039242D03*
G54D48*
X039867Y040049D03*
X03904Y040423D03*
Y039675D03*
G54D49*
X036139Y033234D03*
Y033903D03*
G54D50*
X033828Y04107D02*
Y043098D01*
X028759Y036407D02*
Y043706D01*
X028344Y044121D02*
X028759Y043706D01*
X028101Y044121D02*
X028344D01*
X028759Y036407D02*
X029813Y035353D01*
X033828Y04107D02*
X035166D01*
X033828Y038862D02*
Y04107D01*
X025849Y044121D02*
X028101D01*
X025393Y043666D02*
X025849Y044121D01*
X025393Y038013D02*
Y043666D01*
X033828Y038811D02*
X033854Y038836D01*
X033828Y036367D02*
Y038811D01*
X024753Y037372D02*
X025393Y038013D01*
X029813Y035353D02*
X032814D01*
X033828Y036367*
X035166Y04107D02*
X03519Y041047D01*
X022809Y037372D02*
X024753D01*
G54D51*
X036525Y031034D03*
M02*