%FSTAX24Y24*%
%MOIN*%
%SFA1B1*%

%IPPOS*%
%AMD42*
4,1,8,-0.016700,-0.068900,0.016700,-0.068900,0.033400,-0.052200,0.033400,0.052200,0.016700,0.068900,-0.016700,0.068900,-0.033400,0.052200,-0.033400,-0.052200,-0.016700,-0.068900,0.0*
1,1,0.033400,-0.016700,-0.052200*
1,1,0.033400,0.016700,-0.052200*
1,1,0.033400,0.016700,0.052200*
1,1,0.033400,-0.016700,0.052200*
%
%AMD43*
4,1,8,0.068900,-0.016700,0.068900,0.016700,0.052200,0.033400,-0.052200,0.033400,-0.068900,0.016700,-0.068900,-0.016700,-0.052200,-0.033400,0.052200,-0.033400,0.068900,-0.016700,0.0*
1,1,0.033400,0.052200,-0.016700*
1,1,0.033400,0.052200,0.016700*
1,1,0.033400,-0.052200,0.016700*
1,1,0.033400,-0.052200,-0.016700*
%
%ADD10R,0.031500X0.029500*%
%ADD11C,0.039400*%
%ADD12R,0.029500X0.031500*%
%ADD13R,0.043300X0.078700*%
%ADD14R,0.031500X0.031500*%
%ADD15R,0.035400X0.027600*%
%ADD16R,0.031500X0.031500*%
%ADD17R,0.078700X0.043300*%
%ADD18R,0.051200X0.059100*%
%ADD19O,0.066900X0.011800*%
%ADD20R,0.047200X0.098400*%
%ADD21R,0.061000X0.051200*%
%ADD22R,0.150000X0.050000*%
%ADD23R,0.027600X0.011800*%
%ADD24R,0.039400X0.037300*%
%ADD25R,0.039400X0.037200*%
%ADD26R,0.011800X0.027600*%
%ADD27R,0.037300X0.039400*%
%ADD28R,0.037200X0.039400*%
%ADD29R,0.015700X0.007900*%
%ADD30R,0.019700X0.019700*%
%ADD31R,0.039400X0.039400*%
%ADD32R,0.007900X0.025600*%
%ADD39C,0.051200*%
%ADD40R,0.078700X0.078700*%
%ADD41C,0.078700*%
G04~CAMADD=42~8~0.0~0.0~669.0~1378.0~167.0~0.0~15~0.0~0.0~0.0~0.0~0~0.0~0.0~0.0~0.0~0~0.0~0.0~0.0~180.0~668.0~1377.0*
%ADD42D42*%
G04~CAMADD=43~8~0.0~0.0~669.0~1378.0~167.0~0.0~15~0.0~0.0~0.0~0.0~0~0.0~0.0~0.0~0.0~0~0.0~0.0~0.0~270.0~1378.0~668.0*
%ADD43D43*%
%ADD44C,0.031500*%
%LNvapeixshield-1*%
%LPD*%
G54D10*
X022871Y012309D03*
Y011778D03*
Y010724D03*
Y011255D03*
X022425Y012873D03*
Y013404D03*
X011138Y003575D03*
Y003044D03*
Y004389D03*
Y004921D03*
X007041Y017282D03*
Y017814D03*
X007671D03*
Y017282D03*
X021654Y012873D03*
Y013404D03*
X019059Y013972D03*
Y013441D03*
G54D11*
X012085Y002758D03*
Y005202D03*
Y004374D03*
X012095Y003558D03*
X007552Y004136D03*
Y002909D03*
Y005323D03*
X011019Y010083D03*
Y011767D03*
X011101Y007124D03*
G54D12*
X0119Y006083D03*
X012431D03*
X010643D03*
X011174D03*
X008675Y002915D03*
X009207D03*
X009493Y003899D03*
X010025D03*
X0089Y014494D03*
X009432D03*
X0089Y013313D03*
X009432D03*
X0089Y013904D03*
X009432D03*
X0089Y012368D03*
X009432D03*
X0089Y011778D03*
X009432D03*
X0089Y011187D03*
X009432D03*
X0089Y010321D03*
X009432D03*
X0089Y00973D03*
X009432D03*
X0089Y008195D03*
X009432D03*
X0089Y00914D03*
X009432D03*
X0089Y007604D03*
X009432D03*
X0089Y007014D03*
X009432D03*
X014156Y00898D03*
X013625D03*
X014156Y010161D03*
X013625D03*
X014156Y00957D03*
X013625D03*
X014156Y011145D03*
X013625D03*
X014156Y012326D03*
X013625D03*
X014156Y011736D03*
X013625D03*
X00939Y016545D03*
X008858D03*
X007663Y015637D03*
X007131D03*
X011458Y017478D03*
X010926D03*
X00939Y015653D03*
X008858D03*
X021069Y012125D03*
X020537D03*
X013035Y017843D03*
X013567D03*
G54D13*
X008733Y004333D03*
G54D14*
X008733Y005081D03*
G54D15*
X01578Y009624D03*
Y009231D03*
X01519Y009624D03*
Y009231D03*
X01578Y011835D03*
Y011442D03*
X01519Y011835D03*
Y011442D03*
X007198Y013728D03*
Y014121D03*
X007788Y013728D03*
Y014121D03*
X007198Y007346D03*
Y007739D03*
X007788Y007346D03*
Y007739D03*
X007198Y011602D03*
Y011995D03*
X007788Y011602D03*
Y011995D03*
X007198Y009471D03*
Y009864D03*
X007788Y009471D03*
Y009864D03*
G54D16*
X010728Y018207D03*
G54D17*
X011476Y018207D03*
G54D18*
X00954Y01764D03*
X00887D03*
G54D19*
X010422Y016556D03*
Y016359D03*
Y016162D03*
Y015965D03*
Y015769D03*
X012037Y016556D03*
Y016359D03*
Y016162D03*
Y015965D03*
Y015769D03*
G54D20*
X002147Y020019D03*
X004116D03*
X003131D03*
Y017853D03*
X004116D03*
X002147D03*
G54D21*
X015133Y004736D03*
X018263D03*
Y002964D03*
X015133D03*
X0202Y008506D03*
X02333D03*
Y006734D03*
X0202D03*
X020212Y004742D03*
X023342D03*
Y00297D03*
X020212D03*
G54D22*
X024741Y012055D03*
X026491D03*
X024741Y011055D03*
X026491D03*
X024741Y010055D03*
X026491D03*
G54D23*
X01139Y013867D03*
Y013612D03*
Y013101D03*
Y013357D03*
X010665D03*
Y013101D03*
Y013612D03*
Y013867D03*
X011864Y010481D03*
Y010736D03*
Y011247D03*
Y010991D03*
X012589D03*
Y011247D03*
Y010736D03*
Y010481D03*
X01139Y008814D03*
Y008559D03*
Y008048D03*
Y008304D03*
X010665D03*
Y008048D03*
Y008559D03*
Y008814D03*
X01379Y016464D03*
Y016209D03*
Y015698D03*
Y015954D03*
X013065D03*
Y015698D03*
Y016209D03*
Y016464D03*
G54D24*
X011175Y013739D03*
X012079Y010608D03*
X011175Y008687D03*
X013575Y016337D03*
G54D25*
X011175Y013229D03*
X012079Y011118D03*
X011175Y008177D03*
X013575Y015826D03*
G54D26*
X009641Y005255D03*
X009896D03*
X010407D03*
X010151D03*
Y00453D03*
X010407D03*
X009896D03*
X009641D03*
G54D27*
X009768Y00504D03*
G54D28*
X010278Y00504D03*
G54D29*
X010027Y002933D03*
Y003093D03*
X010457Y002776D03*
Y002616D03*
G54D30*
X010313Y003021D03*
X01015Y002694D03*
G54D31*
X020361Y013441D03*
G54D32*
X020065Y013D03*
X020262D03*
X020459D03*
X020656D03*
X020065Y013881D03*
X020262D03*
X020459D03*
X020656D03*
G54D39*
X002768Y014256D03*
Y013469D03*
Y015043D03*
Y015831D03*
X002809Y006585D03*
Y007372D03*
X002799Y010054D03*
Y010841D03*
X024777Y004371D03*
Y005158D03*
Y006733D03*
Y005946D03*
G54D40*
X025036Y001055D03*
X018036D03*
X025036Y020055D03*
X016436D03*
G54D41*
X024036Y001055D03*
X023068D03*
X022083D03*
X021068D03*
X020068D03*
X013068D03*
X014068D03*
X015083D03*
X016068D03*
X017036D03*
X012068D03*
X011068D03*
X020068Y020055D03*
X021068D03*
X022083D03*
X023068D03*
X024036D03*
X019068D03*
X018068D03*
X007468D03*
X008468D03*
X009468D03*
X010468D03*
X015436D03*
X014468D03*
X013483D03*
X012468D03*
X011468D03*
G54D42*
X004219Y002972D03*
X001857D03*
G54D43*
X003038Y001083D03*
G54D44*
X021533Y01134D03*
Y010868D03*
M02*