G04 Layer_Physical_Order=4*
G04 Layer_Color=16711680*
%FSLAX44Y44*%
%MOMM*%
G71*
G01*
G75*
%ADD24R,3.8100X1.2700*%
%ADD33C,0.3000*%
%ADD34C,0.5000*%
%ADD35C,0.2030*%
%ADD37C,1.0000*%
%ADD41C,1.3000*%
%ADD42R,2.0000X2.0000*%
%ADD43C,2.0000*%
G04:AMPARAMS|DCode=44|XSize=1.7mm|YSize=3.5mm|CornerRadius=0.425mm|HoleSize=0mm|Usage=FLASHONLY|Rotation=180.000|XOffset=0mm|YOffset=0mm|HoleType=Round|Shape=RoundedRectangle|*
%AMROUNDEDRECTD44*
21,1,1.7000,2.6500,0,0,180.0*
21,1,0.8500,3.5000,0,0,180.0*
1,1,0.8500,-0.4250,1.3250*
1,1,0.8500,0.4250,1.3250*
1,1,0.8500,0.4250,-1.3250*
1,1,0.8500,-0.4250,-1.3250*
%
%ADD44ROUNDEDRECTD44*%
G04:AMPARAMS|DCode=45|XSize=1.7mm|YSize=3.5mm|CornerRadius=0.425mm|HoleSize=0mm|Usage=FLASHONLY|Rotation=270.000|XOffset=0mm|YOffset=0mm|HoleType=Round|Shape=RoundedRectangle|*
%AMROUNDEDRECTD45*
21,1,1.7000,2.6500,0,0,270.0*
21,1,0.8500,3.5000,0,0,270.0*
1,1,0.8500,-1.3250,-0.4250*
1,1,0.8500,-1.3250,0.4250*
1,1,0.8500,1.3250,0.4250*
1,1,0.8500,1.3250,-0.4250*
%
%ADD45ROUNDEDRECTD45*%
%ADD46C,0.6100*%
%ADD47R,4.9810X2.6515*%
G36*
X10889Y530744D02*
X11916Y530744D01*
X651819D01*
X666206Y516357D01*
Y396330D01*
X666538Y394664D01*
X667482Y393251D01*
X695416Y365317D01*
Y66844D01*
X667459Y38886D01*
X666515Y37473D01*
X666183Y35807D01*
Y11039D01*
X665626Y9692D01*
X663802Y7316D01*
X661426Y5492D01*
X660945Y5293D01*
X14387D01*
X13447Y5293D01*
X13144Y5276D01*
X12736Y5299D01*
X11493Y5432D01*
X11493D01*
X10509Y5527D01*
X9568Y5791D01*
X9138Y5928D01*
X9138Y5928D01*
X8396Y6075D01*
X6671Y7228D01*
X5518Y8953D01*
X5130Y10907D01*
X5164Y11080D01*
X5168Y11260D01*
X5185Y11485D01*
X5164Y11593D01*
Y525946D01*
X5480Y527534D01*
X6632Y529259D01*
X8357Y530411D01*
X9466Y530632D01*
X10665Y530762D01*
X10889Y530744D01*
D02*
G37*
%LPC*%
G36*
X392080Y522512D02*
X388686Y522065D01*
X385524Y520756D01*
X382808Y518672D01*
X380724Y515956D01*
X380415Y515209D01*
X379145D01*
X378835Y515956D01*
X376752Y518672D01*
X374036Y520756D01*
X370874Y522065D01*
X367480Y522512D01*
X364086Y522065D01*
X360924Y520756D01*
X358208Y518672D01*
X356124Y515956D01*
X355615Y514726D01*
X354345D01*
X353835Y515956D01*
X351752Y518672D01*
X349036Y520756D01*
X345874Y522065D01*
X342480Y522512D01*
X339086Y522065D01*
X335924Y520756D01*
X333208Y518672D01*
X331124Y515956D01*
X330267Y513887D01*
X328893D01*
X328036Y515956D01*
X325952Y518672D01*
X323236Y520756D01*
X320074Y522065D01*
X316680Y522512D01*
X313286Y522065D01*
X310124Y520756D01*
X307408Y518672D01*
X305324Y515956D01*
X304667Y514370D01*
X303293D01*
X302635Y515956D01*
X300552Y518672D01*
X297836Y520756D01*
X294674Y522065D01*
X291280Y522512D01*
X287886Y522065D01*
X284724Y520756D01*
X282008Y518672D01*
X279925Y515956D01*
X279018Y513768D01*
X277644D01*
X276834Y515724D01*
X274824Y518344D01*
X272204Y520354D01*
X269154Y521617D01*
X267150Y521881D01*
Y509400D01*
Y496919D01*
X269154Y497183D01*
X272204Y498446D01*
X274824Y500456D01*
X276834Y503076D01*
X277644Y505032D01*
X279018D01*
X279925Y502844D01*
X282008Y500128D01*
X284724Y498045D01*
X287886Y496735D01*
X291280Y496288D01*
X294674Y496735D01*
X297836Y498045D01*
X300552Y500128D01*
X302635Y502844D01*
X303293Y504431D01*
X304667D01*
X305324Y502844D01*
X307408Y500128D01*
X310124Y498045D01*
X311072Y497652D01*
Y490778D01*
X285820Y465526D01*
X190023D01*
X187876Y465099D01*
X186057Y463883D01*
X122457Y400283D01*
X121241Y398463D01*
X120814Y396317D01*
Y130207D01*
X121241Y128061D01*
X122457Y126242D01*
X191233Y57465D01*
X193052Y56249D01*
X194883Y55885D01*
X194758Y54615D01*
X189829D01*
X118338Y126106D01*
Y335575D01*
X117989Y337330D01*
X116995Y338819D01*
X79486Y376327D01*
X79570Y376530D01*
X79897Y379010D01*
X79570Y381490D01*
X78613Y383801D01*
X77090Y385785D01*
X75106Y387308D01*
X72795Y388265D01*
X72004Y388369D01*
Y389650D01*
X72795Y389755D01*
X75106Y390712D01*
X77090Y392235D01*
X78613Y394219D01*
X78697Y394422D01*
X109375D01*
X111131Y394771D01*
X112619Y395766D01*
X192245Y475392D01*
X201977D01*
X203639Y474281D01*
X206000Y473811D01*
X208361Y474281D01*
X210362Y475618D01*
X211699Y477619D01*
X212169Y479980D01*
X211699Y482341D01*
X210362Y484342D01*
X208361Y485679D01*
X206000Y486148D01*
X203639Y485679D01*
X201977Y484568D01*
X194268D01*
Y497229D01*
X196236Y498045D01*
X198952Y500128D01*
X201035Y502844D01*
X201693Y504431D01*
X203067D01*
X203724Y502844D01*
X205808Y500128D01*
X208524Y498045D01*
X211686Y496735D01*
X215080Y496288D01*
X218474Y496735D01*
X221636Y498045D01*
X224352Y500128D01*
X226436Y502844D01*
X227093Y504431D01*
X228467D01*
X229125Y502844D01*
X231208Y500128D01*
X233924Y498045D01*
X237086Y496735D01*
X240480Y496288D01*
X243874Y496735D01*
X247036Y498045D01*
X249752Y500128D01*
X251835Y502844D01*
X252742Y505032D01*
X254116D01*
X254926Y503076D01*
X256936Y500456D01*
X259556Y498446D01*
X262606Y497183D01*
X264610Y496919D01*
Y509400D01*
Y521881D01*
X262606Y521617D01*
X259556Y520354D01*
X256936Y518344D01*
X254926Y515724D01*
X254116Y513768D01*
X252742D01*
X251835Y515956D01*
X249752Y518672D01*
X247036Y520756D01*
X243874Y522065D01*
X240480Y522512D01*
X237086Y522065D01*
X233924Y520756D01*
X231208Y518672D01*
X229125Y515956D01*
X228467Y514370D01*
X227093D01*
X226436Y515956D01*
X224352Y518672D01*
X221636Y520756D01*
X218474Y522065D01*
X215080Y522512D01*
X211686Y522065D01*
X208524Y520756D01*
X205808Y518672D01*
X203724Y515956D01*
X203067Y514370D01*
X201693D01*
X201035Y515956D01*
X198952Y518672D01*
X196236Y520756D01*
X193074Y522065D01*
X189680Y522512D01*
X186286Y522065D01*
X183124Y520756D01*
X180408Y518672D01*
X178325Y515956D01*
X177015Y512794D01*
X176568Y509400D01*
X177015Y506006D01*
X178325Y502844D01*
X180408Y500128D01*
X183124Y498045D01*
X185092Y497229D01*
Y481216D01*
X107474Y403598D01*
X78697D01*
X78613Y403801D01*
X77090Y405785D01*
X75106Y407308D01*
X72795Y408265D01*
X70315Y408592D01*
X67835Y408265D01*
X65524Y407308D01*
X63540Y405785D01*
X62017Y403801D01*
X61059Y401490D01*
X60733Y399010D01*
X61059Y396530D01*
X62017Y394219D01*
X63540Y392235D01*
X65524Y390712D01*
X67835Y389755D01*
X68625Y389650D01*
Y388369D01*
X67835Y388265D01*
X65524Y387308D01*
X63540Y385785D01*
X62017Y383801D01*
X61059Y381490D01*
X60733Y379010D01*
X61059Y376530D01*
X62017Y374219D01*
X63540Y372235D01*
X65524Y370712D01*
X67835Y369755D01*
X68625Y369650D01*
Y368369D01*
X67835Y368265D01*
X65524Y367308D01*
X63540Y365785D01*
X62017Y363801D01*
X61059Y361490D01*
X60733Y359010D01*
X61059Y356530D01*
X62017Y354219D01*
X63540Y352235D01*
X65524Y350712D01*
X67835Y349754D01*
X68625Y349650D01*
Y348369D01*
X67835Y348265D01*
X65524Y347308D01*
X63540Y345785D01*
X62017Y343801D01*
X61059Y341490D01*
X60733Y339010D01*
X61059Y336530D01*
X62017Y334219D01*
X63540Y332234D01*
X65524Y330712D01*
X67835Y329754D01*
X70315Y329428D01*
X72795Y329754D01*
X75106Y330712D01*
X77090Y332234D01*
X78613Y334219D01*
X79570Y336530D01*
X79897Y339010D01*
X79570Y341490D01*
X78613Y343801D01*
X77090Y345785D01*
X75106Y347308D01*
X72795Y348265D01*
X72004Y348369D01*
Y349650D01*
X72795Y349754D01*
X75106Y350712D01*
X77090Y352235D01*
X78613Y354219D01*
X79570Y356530D01*
X79897Y359010D01*
X79573Y361467D01*
X79610Y361515D01*
X80661Y362175D01*
X109162Y333674D01*
Y124206D01*
X109511Y122450D01*
X110506Y120961D01*
X184685Y46783D01*
X186173Y45788D01*
X187929Y45439D01*
X285037D01*
X286793Y45788D01*
X288281Y46783D01*
X318666Y77167D01*
X319660Y78656D01*
X320009Y80412D01*
Y144451D01*
X373552Y197993D01*
X375513Y198383D01*
X377514Y199721D01*
X378851Y201722D01*
X379320Y204082D01*
X378851Y206443D01*
X377740Y208105D01*
Y385651D01*
X379010Y386350D01*
X381080Y385938D01*
X383440Y386408D01*
X385103Y387518D01*
X478787D01*
X480543Y387868D01*
X482031Y388862D01*
X564164Y470995D01*
X565158Y472483D01*
X565508Y474239D01*
Y497226D01*
X567476Y498041D01*
X570191Y500125D01*
X572275Y502841D01*
X572785Y504071D01*
X574054D01*
X574564Y502841D01*
X576648Y500125D01*
X579364Y498041D01*
X580312Y497649D01*
Y227029D01*
X580739Y224883D01*
X581954Y223064D01*
X627468Y177550D01*
Y143537D01*
X627377Y143401D01*
X626907Y141040D01*
X627377Y138680D01*
X628714Y136678D01*
X630715Y135341D01*
X633076Y134872D01*
X635436Y135341D01*
X637438Y136678D01*
X638775Y138680D01*
X639244Y141040D01*
X638775Y143401D01*
X638683Y143537D01*
Y179873D01*
X638257Y182019D01*
X637041Y183838D01*
X591527Y229352D01*
Y497649D01*
X592476Y498041D01*
X595191Y500125D01*
X597275Y502841D01*
X597584Y503588D01*
X598854D01*
X599164Y502841D01*
X601248Y500125D01*
X603963Y498041D01*
X607126Y496732D01*
X610519Y496285D01*
X613913Y496732D01*
X617076Y498041D01*
X619791Y500125D01*
X621650Y502547D01*
X622920Y502206D01*
Y496397D01*
X648920D01*
Y522397D01*
X622920D01*
Y516588D01*
X621650Y516247D01*
X619791Y518669D01*
X617076Y520752D01*
X613913Y522062D01*
X610519Y522509D01*
X607126Y522062D01*
X603963Y520752D01*
X601248Y518669D01*
X599164Y515953D01*
X598854Y515206D01*
X597584D01*
X597275Y515953D01*
X595191Y518669D01*
X592476Y520752D01*
X589313Y522062D01*
X585920Y522509D01*
X582526Y522062D01*
X579364Y520752D01*
X576648Y518669D01*
X574564Y515953D01*
X574054Y514723D01*
X572785D01*
X572275Y515953D01*
X570191Y518669D01*
X567476Y520752D01*
X564313Y522062D01*
X560919Y522509D01*
X557526Y522062D01*
X554363Y520752D01*
X551648Y518669D01*
X549564Y515953D01*
X548707Y513884D01*
X547332D01*
X546475Y515953D01*
X544391Y518669D01*
X541676Y520752D01*
X538513Y522062D01*
X535120Y522509D01*
X531726Y522062D01*
X528563Y520752D01*
X525848Y518669D01*
X523764Y515953D01*
X523107Y514366D01*
X521732D01*
X521075Y515953D01*
X518991Y518669D01*
X516276Y520752D01*
X513113Y522062D01*
X509720Y522509D01*
X506326Y522062D01*
X503163Y520752D01*
X500448Y518669D01*
X498364Y515953D01*
X497707Y514366D01*
X496332D01*
X495675Y515953D01*
X493591Y518669D01*
X490876Y520752D01*
X487713Y522062D01*
X484320Y522509D01*
X480926Y522062D01*
X477763Y520752D01*
X475048Y518669D01*
X472964Y515953D01*
X472307Y514366D01*
X470932D01*
X470275Y515953D01*
X468191Y518669D01*
X465476Y520752D01*
X462313Y522062D01*
X458920Y522509D01*
X455526Y522062D01*
X452364Y520752D01*
X449648Y518669D01*
X447564Y515953D01*
X446254Y512791D01*
X445807Y509397D01*
X446254Y506003D01*
X447564Y502841D01*
X449648Y500125D01*
X452364Y498041D01*
X455526Y496732D01*
X458920Y496285D01*
X462313Y496732D01*
X465476Y498041D01*
X468191Y500125D01*
X470275Y502841D01*
X470932Y504427D01*
X472307D01*
X472964Y502841D01*
X475048Y500125D01*
X477763Y498041D01*
X480926Y496732D01*
X484320Y496285D01*
X487713Y496732D01*
X490876Y498041D01*
X493591Y500125D01*
X495675Y502841D01*
X496332Y504427D01*
X497707D01*
X498364Y502841D01*
X500448Y500125D01*
X503163Y498041D01*
X506326Y496732D01*
X509720Y496285D01*
X513113Y496732D01*
X516276Y498041D01*
X518991Y500125D01*
X521075Y502841D01*
X521732Y504427D01*
X523107D01*
X523764Y502841D01*
X525848Y500125D01*
X528563Y498041D01*
X531726Y496732D01*
X535120Y496285D01*
X538513Y496732D01*
X541676Y498041D01*
X544391Y500125D01*
X546475Y502841D01*
X547332Y504910D01*
X548707D01*
X549564Y502841D01*
X551648Y500125D01*
X554363Y498041D01*
X556331Y497226D01*
Y476140D01*
X476886Y396695D01*
X385103D01*
X383440Y397805D01*
X381080Y398275D01*
X379010Y397863D01*
X377740Y398563D01*
Y423376D01*
X420055Y465690D01*
X422016Y466081D01*
X424017Y467418D01*
X425354Y469419D01*
X425824Y471780D01*
X425354Y474140D01*
X424017Y476141D01*
X422016Y477478D01*
X419655Y477948D01*
X417295Y477478D01*
X415982Y476601D01*
X415172Y477588D01*
X420724Y483140D01*
X421719Y484628D01*
X422068Y486384D01*
Y496400D01*
X430480D01*
Y522400D01*
X404480D01*
Y516591D01*
X403210Y516250D01*
X401352Y518672D01*
X398636Y520756D01*
X395474Y522065D01*
X392080Y522512D01*
D02*
G37*
G36*
X80598Y480513D02*
X78237Y480043D01*
X76236Y478706D01*
X74899Y476705D01*
X74429Y474344D01*
X74899Y471984D01*
X76236Y469983D01*
X78237Y468645D01*
X80598Y468176D01*
X82958Y468645D01*
X84959Y469983D01*
X86297Y471984D01*
X86766Y474344D01*
X86297Y476705D01*
X84959Y478706D01*
X82958Y480043D01*
X80598Y480513D01*
D02*
G37*
G36*
X610439Y397956D02*
X608079Y397486D01*
X606077Y396149D01*
X604740Y394147D01*
X604271Y391787D01*
X604740Y389426D01*
X606077Y387425D01*
X608079Y386088D01*
X610439Y385619D01*
X612800Y386088D01*
X614801Y387425D01*
X616138Y389426D01*
X616608Y391787D01*
X616138Y394147D01*
X614801Y396149D01*
X612800Y397486D01*
X610439Y397956D01*
D02*
G37*
G36*
X496657Y365919D02*
X494296Y365449D01*
X494160Y365358D01*
X449006D01*
X446860Y364931D01*
X445041Y363715D01*
X429178Y347852D01*
X427962Y346033D01*
X427536Y343887D01*
Y318640D01*
X427444Y318503D01*
X426975Y316143D01*
X427444Y313782D01*
X428781Y311781D01*
X430783Y310444D01*
X433143Y309974D01*
X435504Y310444D01*
X437505Y311781D01*
X438842Y313782D01*
X439312Y316143D01*
X438842Y318503D01*
X438751Y318640D01*
Y329215D01*
X439871Y329814D01*
X440554Y329357D01*
X442915Y328888D01*
X445275Y329357D01*
X447276Y330695D01*
X448614Y332696D01*
X449083Y335056D01*
X448614Y337417D01*
X447276Y339418D01*
X445275Y340755D01*
X442915Y341225D01*
X440641Y340773D01*
X440521Y340773D01*
X439286Y341436D01*
X439217Y342031D01*
X451329Y354142D01*
X494160D01*
X494296Y354051D01*
X496657Y353582D01*
X499018Y354051D01*
X501019Y355388D01*
X502356Y357389D01*
X502826Y359750D01*
X502356Y362111D01*
X501019Y364112D01*
X499018Y365449D01*
X496657Y365919D01*
D02*
G37*
G36*
X603220Y352918D02*
X600859Y352449D01*
X598858Y351112D01*
X597521Y349110D01*
X597051Y346750D01*
X597521Y344389D01*
X598858Y342388D01*
X600859Y341051D01*
X603220Y340581D01*
X605580Y341051D01*
X607582Y342388D01*
X608919Y344389D01*
X609388Y346750D01*
X608919Y349110D01*
X607582Y351112D01*
X605580Y352449D01*
X603220Y352918D01*
D02*
G37*
G36*
X649660Y315547D02*
X648390Y315547D01*
X605210D01*
Y312406D01*
X604090Y311807D01*
X603957Y311896D01*
X601597Y312365D01*
X599236Y311896D01*
X597235Y310559D01*
X595898Y308558D01*
X595428Y306197D01*
X595898Y303836D01*
X597235Y301835D01*
X599236Y300498D01*
X601597Y300028D01*
X603957Y300498D01*
X604090Y300587D01*
X605210Y299988D01*
Y296847D01*
X648390D01*
X649310Y296847D01*
X650580Y296847D01*
X660503D01*
X661501Y295577D01*
X661217Y294146D01*
X661686Y291785D01*
X662032Y291267D01*
X661433Y290147D01*
X650580D01*
X649660Y290147D01*
X648390Y290147D01*
X605210D01*
Y286646D01*
X603940Y285967D01*
X603148Y286496D01*
X600788Y286966D01*
X598427Y286496D01*
X596426Y285159D01*
X595089Y283158D01*
X594619Y280797D01*
X595089Y278436D01*
X596426Y276435D01*
X598427Y275098D01*
X600788Y274629D01*
X603148Y275098D01*
X603940Y275627D01*
X605210Y274948D01*
Y271447D01*
X648390D01*
X649926Y271447D01*
X650968Y270177D01*
X650744Y269053D01*
X651214Y266692D01*
X651973Y265557D01*
X651294Y264287D01*
X650390Y264287D01*
X649310Y264747D01*
X649041Y264747D01*
X605210D01*
Y261005D01*
X603183D01*
X603047Y261096D01*
X600686Y261565D01*
X598326Y261096D01*
X596324Y259759D01*
X594987Y257758D01*
X594518Y255397D01*
X594987Y253036D01*
X596324Y251035D01*
X598326Y249698D01*
X600686Y249228D01*
X603047Y249698D01*
X603183Y249789D01*
X605210D01*
Y246047D01*
X649041D01*
X649310Y246047D01*
X650390Y246507D01*
X650580Y246507D01*
X670440D01*
Y255397D01*
Y264287D01*
X662532D01*
X661853Y265557D01*
X662612Y266692D01*
X663081Y269053D01*
X663018Y269369D01*
X665096Y271447D01*
X693760D01*
Y290147D01*
X673337D01*
X672738Y291267D01*
X673084Y291785D01*
X673116Y291946D01*
X675675Y294505D01*
X676891Y296325D01*
X676995Y296847D01*
X693760D01*
Y315547D01*
X650580D01*
X649660Y315547D01*
D02*
G37*
G36*
X520514Y289122D02*
X518153Y288652D01*
X516491Y287542D01*
X482963D01*
X481207Y287192D01*
X479719Y286198D01*
X328675Y135154D01*
X327681Y133666D01*
X327331Y131910D01*
Y38968D01*
X325364Y38152D01*
X322648Y36069D01*
X320564Y33353D01*
X319907Y31767D01*
X318532D01*
X317875Y33353D01*
X315791Y36069D01*
X313076Y38152D01*
X309913Y39462D01*
X306520Y39909D01*
X303126Y39462D01*
X299963Y38152D01*
X297248Y36069D01*
X295164Y33353D01*
X294507Y31767D01*
X293132D01*
X292475Y33353D01*
X290391Y36069D01*
X287676Y38152D01*
X284513Y39462D01*
X281120Y39909D01*
X277726Y39462D01*
X274564Y38152D01*
X271848Y36069D01*
X269764Y33353D01*
X268454Y30191D01*
X268007Y26797D01*
X268454Y23403D01*
X269764Y20241D01*
X271848Y17525D01*
X274564Y15441D01*
X277726Y14132D01*
X281120Y13685D01*
X284513Y14132D01*
X287676Y15441D01*
X290391Y17525D01*
X292475Y20241D01*
X293132Y21827D01*
X294507D01*
X295164Y20241D01*
X297248Y17525D01*
X299963Y15441D01*
X303126Y14132D01*
X306520Y13685D01*
X309913Y14132D01*
X313076Y15441D01*
X315791Y17525D01*
X317875Y20241D01*
X318532Y21827D01*
X319907D01*
X320564Y20241D01*
X322648Y17525D01*
X325364Y15441D01*
X328526Y14132D01*
X331920Y13685D01*
X335313Y14132D01*
X338476Y15441D01*
X341191Y17525D01*
X343275Y20241D01*
X343932Y21827D01*
X345307D01*
X345964Y20241D01*
X348048Y17525D01*
X350764Y15441D01*
X353926Y14132D01*
X357320Y13685D01*
X360713Y14132D01*
X363876Y15441D01*
X366591Y17525D01*
X368675Y20241D01*
X369532Y22310D01*
X370907D01*
X371764Y20241D01*
X373848Y17525D01*
X376563Y15441D01*
X379726Y14132D01*
X383119Y13685D01*
X386513Y14132D01*
X389675Y15441D01*
X392391Y17525D01*
X394475Y20241D01*
X395181Y21946D01*
X396556D01*
X397166Y20473D01*
X399176Y17853D01*
X401796Y15843D01*
X404846Y14580D01*
X406850Y14316D01*
Y26797D01*
Y39278D01*
X404846Y39014D01*
X401796Y37751D01*
X399176Y35741D01*
X397166Y33121D01*
X396556Y31648D01*
X395181D01*
X394475Y33353D01*
X392391Y36069D01*
X389675Y38152D01*
X386513Y39462D01*
X383119Y39909D01*
X379726Y39462D01*
X376563Y38152D01*
X373848Y36069D01*
X371764Y33353D01*
X370907Y31284D01*
X369532D01*
X368675Y33353D01*
X366591Y36069D01*
X363876Y38152D01*
X360713Y39462D01*
X357320Y39909D01*
X353926Y39462D01*
X350764Y38152D01*
X348048Y36069D01*
X345964Y33353D01*
X345307Y31767D01*
X343932D01*
X343275Y33353D01*
X341191Y36069D01*
X338476Y38152D01*
X336508Y38968D01*
Y46125D01*
X336701Y47315D01*
X336701Y47315D01*
Y47315D01*
X337778Y47421D01*
X337808Y47268D01*
X338142Y45593D01*
X339479Y43592D01*
X341480Y42254D01*
X343840Y41785D01*
X346201Y42254D01*
X347863Y43365D01*
X379899D01*
X381655Y43714D01*
X383143Y44709D01*
X392858Y54423D01*
X443475D01*
X445137Y53313D01*
X447498Y52843D01*
X449858Y53313D01*
X451860Y54650D01*
X453197Y56651D01*
X453666Y59012D01*
X453197Y61372D01*
X451860Y63373D01*
X449858Y64710D01*
X447498Y65180D01*
X445137Y64710D01*
X443475Y63600D01*
X390957D01*
X389201Y63250D01*
X387713Y62256D01*
X377998Y52541D01*
X347863D01*
X346201Y53652D01*
X343840Y54122D01*
X341480Y53652D01*
X339479Y52315D01*
X338142Y50314D01*
X337808Y48638D01*
X337778Y48485D01*
X336701Y48591D01*
Y48591D01*
X336701Y48591D01*
X336508Y49781D01*
Y130009D01*
X484864Y278365D01*
X516491D01*
X518153Y277255D01*
X520514Y276785D01*
X522875Y277255D01*
X524876Y278592D01*
X526213Y280593D01*
X526683Y282954D01*
X526213Y285314D01*
X524876Y287315D01*
X522875Y288652D01*
X520514Y289122D01*
D02*
G37*
G36*
X392000Y284533D02*
X389639Y284063D01*
X387638Y282726D01*
X386301Y280725D01*
X385831Y278364D01*
X386301Y276004D01*
X387638Y274002D01*
X389639Y272665D01*
X392000Y272196D01*
X394360Y272665D01*
X396362Y274002D01*
X397699Y276004D01*
X398168Y278364D01*
X397699Y280725D01*
X396362Y282726D01*
X394360Y284063D01*
X392000Y284533D01*
D02*
G37*
G36*
X71107Y280835D02*
X68627Y280508D01*
X66316Y279551D01*
X64331Y278029D01*
X62809Y276044D01*
X61852Y273733D01*
X61525Y271253D01*
X61852Y268773D01*
X62809Y266462D01*
X64331Y264478D01*
X66316Y262955D01*
X68627Y261998D01*
X71107Y261671D01*
X73587Y261998D01*
X75898Y262955D01*
X77882Y264478D01*
X79405Y266462D01*
X80362Y268773D01*
X80689Y271253D01*
X80362Y273733D01*
X79405Y276044D01*
X77882Y278029D01*
X75898Y279551D01*
X73587Y280508D01*
X71107Y280835D01*
D02*
G37*
G36*
X693300Y264287D02*
X672980D01*
Y256667D01*
X693300D01*
Y264287D01*
D02*
G37*
G36*
X72377Y260204D02*
Y252523D01*
X80058D01*
X79914Y253613D01*
X79003Y255812D01*
X77554Y257700D01*
X75666Y259149D01*
X73467Y260060D01*
X72377Y260204D01*
D02*
G37*
G36*
X69837D02*
X68747Y260060D01*
X66548Y259149D01*
X64660Y257700D01*
X63211Y255812D01*
X62300Y253613D01*
X62156Y252523D01*
X69837D01*
Y260204D01*
D02*
G37*
G36*
X693300Y254127D02*
X672980D01*
Y246507D01*
X693300D01*
Y254127D01*
D02*
G37*
G36*
X69837Y249983D02*
X62156D01*
X62300Y248893D01*
X63211Y246694D01*
X64660Y244806D01*
X66548Y243357D01*
X68747Y242446D01*
X69837Y242302D01*
Y249983D01*
D02*
G37*
G36*
X80058D02*
X72377D01*
Y242302D01*
X73467Y242446D01*
X75666Y243357D01*
X77554Y244806D01*
X79003Y246694D01*
X79914Y248893D01*
X80058Y249983D01*
D02*
G37*
G36*
X520902Y237671D02*
X518542Y237202D01*
X516540Y235865D01*
X515203Y233863D01*
X514734Y231503D01*
X515203Y229142D01*
X516540Y227141D01*
X518542Y225804D01*
X520902Y225334D01*
X523263Y225804D01*
X525264Y227141D01*
X526601Y229142D01*
X527071Y231503D01*
X526601Y233863D01*
X525264Y235865D01*
X523263Y237202D01*
X520902Y237671D01*
D02*
G37*
G36*
X392000Y233533D02*
X389639Y233063D01*
X387638Y231726D01*
X386301Y229725D01*
X385831Y227364D01*
X386301Y225004D01*
X387638Y223002D01*
X389639Y221665D01*
X392000Y221196D01*
X394360Y221665D01*
X396362Y223002D01*
X397699Y225004D01*
X398168Y227364D01*
X397699Y229725D01*
X396362Y231726D01*
X394360Y233063D01*
X392000Y233533D01*
D02*
G37*
G36*
X71345Y191681D02*
X68865Y191355D01*
X66554Y190397D01*
X64570Y188874D01*
X63047Y186890D01*
X62090Y184579D01*
X61763Y182099D01*
X62090Y179619D01*
X63047Y177308D01*
X64570Y175324D01*
X66554Y173801D01*
X68865Y172843D01*
X71345Y172517D01*
X73825Y172843D01*
X76136Y173801D01*
X78120Y175324D01*
X79643Y177308D01*
X80600Y179619D01*
X80927Y182099D01*
X80600Y184579D01*
X79643Y186890D01*
X78120Y188874D01*
X76136Y190397D01*
X73825Y191355D01*
X71345Y191681D01*
D02*
G37*
G36*
X72615Y171050D02*
Y163369D01*
X80296D01*
X80152Y164459D01*
X79241Y166658D01*
X77792Y168546D01*
X75904Y169995D01*
X73705Y170906D01*
X72615Y171050D01*
D02*
G37*
G36*
X70075Y171050D02*
X68985Y170906D01*
X66786Y169995D01*
X64898Y168546D01*
X63449Y166658D01*
X62538Y164459D01*
X62394Y163369D01*
X70075D01*
Y171050D01*
D02*
G37*
G36*
Y160829D02*
X62394D01*
X62538Y159739D01*
X63449Y157540D01*
X64898Y155652D01*
X66786Y154203D01*
X68985Y153292D01*
X70075Y153148D01*
Y160829D01*
D02*
G37*
G36*
X80296D02*
X72615D01*
Y153148D01*
X73705Y153292D01*
X75904Y154203D01*
X77792Y155652D01*
X79241Y157540D01*
X80152Y159739D01*
X80296Y160829D01*
D02*
G37*
G36*
X521214Y147209D02*
X518853Y146740D01*
X516852Y145402D01*
X515515Y143401D01*
X515046Y141041D01*
X515515Y138680D01*
X516852Y136679D01*
X518853Y135342D01*
X521214Y134872D01*
X523575Y135342D01*
X525576Y136679D01*
X526913Y138680D01*
X527383Y141041D01*
X526913Y143401D01*
X525576Y145402D01*
X523575Y146740D01*
X521214Y147209D01*
D02*
G37*
G36*
X52454Y95600D02*
X49474D01*
Y76771D01*
X59303D01*
Y88751D01*
X59069Y90524D01*
X58385Y92175D01*
X57297Y93594D01*
X55878Y94682D01*
X54227Y95366D01*
X52454Y95600D01*
D02*
G37*
G36*
X46934D02*
X43954D01*
X42182Y95366D01*
X40530Y94682D01*
X39111Y93594D01*
X38023Y92175D01*
X37339Y90524D01*
X37106Y88751D01*
Y76771D01*
X46934D01*
Y95600D01*
D02*
G37*
G36*
X421000Y83419D02*
X418639Y82949D01*
X416638Y81612D01*
X415301Y79611D01*
X414831Y77250D01*
X415301Y74889D01*
X416638Y72888D01*
X418639Y71551D01*
X421000Y71082D01*
X423360Y71551D01*
X425362Y72888D01*
X426699Y74889D01*
X427168Y77250D01*
X426699Y79611D01*
X425362Y81612D01*
X423360Y82949D01*
X421000Y83419D01*
D02*
G37*
G36*
X59303Y74231D02*
X49474D01*
Y55402D01*
X52454D01*
X54227Y55636D01*
X55878Y56320D01*
X57297Y57408D01*
X58385Y58827D01*
X59069Y60478D01*
X59303Y62251D01*
Y74231D01*
D02*
G37*
G36*
X46934D02*
X37106D01*
Y62251D01*
X37339Y60478D01*
X38023Y58827D01*
X39111Y57408D01*
X40530Y56320D01*
X42182Y55636D01*
X43954Y55402D01*
X46934D01*
Y74231D01*
D02*
G37*
G36*
X112454Y96063D02*
X103954D01*
X102061Y95814D01*
X100298Y95084D01*
X98783Y93922D01*
X97621Y92407D01*
X96891Y90644D01*
X96642Y88751D01*
Y62251D01*
X96891Y60358D01*
X97621Y58595D01*
X98783Y57080D01*
X100298Y55918D01*
X102061Y55188D01*
X103954Y54938D01*
X112454D01*
X114347Y55188D01*
X116110Y55918D01*
X117625Y57080D01*
X118787Y58595D01*
X119517Y60358D01*
X119767Y62251D01*
Y88751D01*
X119517Y90644D01*
X118787Y92407D01*
X117625Y93922D01*
X116110Y95084D01*
X114347Y95814D01*
X112454Y96063D01*
D02*
G37*
G36*
X609043Y65180D02*
X606683Y64710D01*
X604682Y63373D01*
X603344Y61372D01*
X602875Y59012D01*
X603344Y56651D01*
X604682Y54650D01*
X606683Y53313D01*
X609043Y52843D01*
X611404Y53313D01*
X613405Y54650D01*
X614742Y56651D01*
X615212Y59012D01*
X614742Y61372D01*
X613405Y63373D01*
X611404Y64710D01*
X609043Y65180D01*
D02*
G37*
G36*
X471119Y39797D02*
X445120D01*
Y32948D01*
X443849Y32695D01*
X443673Y33121D01*
X441663Y35741D01*
X439044Y37751D01*
X435993Y39014D01*
X433989Y39278D01*
Y26797D01*
Y14316D01*
X435993Y14580D01*
X439044Y15843D01*
X441663Y17853D01*
X443673Y20473D01*
X443849Y20899D01*
X445120Y20646D01*
Y13797D01*
X471119D01*
Y39797D01*
D02*
G37*
G36*
X565425Y397241D02*
X563064Y396771D01*
X561063Y395434D01*
X559726Y393433D01*
X559256Y391072D01*
X559726Y388712D01*
X561063Y386711D01*
X563064Y385373D01*
X565025Y384983D01*
X568292Y381716D01*
Y219594D01*
X568642Y217838D01*
X569636Y216349D01*
X580840Y205146D01*
Y59504D01*
X581189Y57748D01*
X582183Y56259D01*
X601317Y37125D01*
X601248Y36069D01*
X599164Y33353D01*
X598854Y32606D01*
X597584D01*
X597275Y33353D01*
X595191Y36069D01*
X592476Y38152D01*
X589313Y39462D01*
X585920Y39909D01*
X582526Y39462D01*
X579364Y38152D01*
X576648Y36069D01*
X574564Y33353D01*
X574054Y32123D01*
X572785D01*
X572275Y33353D01*
X570191Y36069D01*
X567476Y38152D01*
X565508Y38968D01*
Y271321D01*
X565158Y273076D01*
X564164Y274565D01*
X515409Y323320D01*
Y368427D01*
X516519Y370089D01*
X516989Y372450D01*
X516519Y374811D01*
X515182Y376812D01*
X513181Y378149D01*
X510821Y378619D01*
X508460Y378149D01*
X506459Y376812D01*
X505121Y374811D01*
X504652Y372450D01*
X505121Y370089D01*
X506232Y368427D01*
Y321420D01*
X506582Y319664D01*
X507576Y318175D01*
X556331Y269420D01*
Y38968D01*
X554363Y38152D01*
X551648Y36069D01*
X549564Y33353D01*
X548707Y31284D01*
X547332D01*
X546475Y33353D01*
X544391Y36069D01*
X541676Y38152D01*
X538513Y39462D01*
X535120Y39909D01*
X531726Y39462D01*
X528563Y38152D01*
X525848Y36069D01*
X523764Y33353D01*
X523107Y31767D01*
X521732D01*
X521075Y33353D01*
X518991Y36069D01*
X516276Y38152D01*
X513113Y39462D01*
X509720Y39909D01*
X506326Y39462D01*
X503163Y38152D01*
X500448Y36069D01*
X498364Y33353D01*
X497054Y30191D01*
X496607Y26797D01*
X497054Y23403D01*
X498364Y20241D01*
X500448Y17525D01*
X503163Y15441D01*
X506326Y14132D01*
X509720Y13685D01*
X513113Y14132D01*
X516276Y15441D01*
X518991Y17525D01*
X521075Y20241D01*
X521732Y21827D01*
X523107D01*
X523764Y20241D01*
X525848Y17525D01*
X528563Y15441D01*
X531726Y14132D01*
X535120Y13685D01*
X538513Y14132D01*
X541676Y15441D01*
X544391Y17525D01*
X546475Y20241D01*
X547332Y22310D01*
X548707D01*
X549564Y20241D01*
X551648Y17525D01*
X554363Y15441D01*
X557526Y14132D01*
X560919Y13685D01*
X564313Y14132D01*
X567476Y15441D01*
X570191Y17525D01*
X572275Y20241D01*
X572785Y21471D01*
X574054D01*
X574564Y20241D01*
X576648Y17525D01*
X579364Y15441D01*
X582526Y14132D01*
X585920Y13685D01*
X589313Y14132D01*
X592476Y15441D01*
X595191Y17525D01*
X597275Y20241D01*
X597584Y20988D01*
X598854D01*
X599164Y20241D01*
X601248Y17525D01*
X603963Y15441D01*
X607126Y14132D01*
X610519Y13685D01*
X613913Y14132D01*
X617076Y15441D01*
X619791Y17525D01*
X621650Y19947D01*
X622920Y19606D01*
Y13797D01*
X648920D01*
Y39797D01*
X622920D01*
Y33988D01*
X621650Y33647D01*
X619791Y36069D01*
X617076Y38152D01*
X613913Y39462D01*
X611661Y39759D01*
X590016Y61404D01*
Y207046D01*
X589666Y208802D01*
X588672Y210291D01*
X577468Y221494D01*
Y383617D01*
X577119Y385373D01*
X576125Y386861D01*
X571514Y391472D01*
X571124Y393433D01*
X569787Y395434D01*
X567785Y396771D01*
X565425Y397241D01*
D02*
G37*
G36*
X91454Y38600D02*
X79474D01*
Y28771D01*
X98303D01*
Y31751D01*
X98069Y33524D01*
X97385Y35175D01*
X96297Y36594D01*
X94878Y37682D01*
X93227Y38366D01*
X91454Y38600D01*
D02*
G37*
G36*
X76934D02*
X64954D01*
X63182Y38366D01*
X61530Y37682D01*
X60111Y36594D01*
X59023Y35175D01*
X58339Y33524D01*
X58106Y31751D01*
Y28771D01*
X76934D01*
Y38600D01*
D02*
G37*
G36*
X98303Y26231D02*
X79474D01*
Y16402D01*
X91454D01*
X93227Y16636D01*
X94878Y17320D01*
X96297Y18408D01*
X97385Y19827D01*
X98069Y21479D01*
X98303Y23251D01*
Y26231D01*
D02*
G37*
G36*
X76934D02*
X58106D01*
Y23251D01*
X58339Y21479D01*
X59023Y19827D01*
X60111Y18408D01*
X61530Y17320D01*
X63182Y16636D01*
X64954Y16402D01*
X76934D01*
Y26231D01*
D02*
G37*
G36*
X409390Y39278D02*
Y26797D01*
Y14316D01*
X411393Y14580D01*
X414444Y15843D01*
X417063Y17853D01*
X419073Y20473D01*
X419732Y22064D01*
X421107D01*
X421766Y20473D01*
X423776Y17853D01*
X426395Y15843D01*
X429446Y14580D01*
X431450Y14316D01*
Y26797D01*
Y39278D01*
X429446Y39014D01*
X426395Y37751D01*
X423776Y35741D01*
X421766Y33121D01*
X421107Y31530D01*
X419732D01*
X419073Y33121D01*
X417063Y35741D01*
X414444Y37751D01*
X411393Y39014D01*
X409390Y39278D01*
D02*
G37*
%LPD*%
G36*
X331124Y502844D02*
X333208Y500128D01*
X335924Y498045D01*
X337892Y497229D01*
Y484380D01*
X293912Y440401D01*
X292917Y438912D01*
X292568Y437156D01*
Y256023D01*
X291458Y254361D01*
X290988Y252000D01*
X291458Y249639D01*
X292568Y247977D01*
Y229326D01*
X289353Y226111D01*
X269458D01*
X267796Y227222D01*
X265435Y227691D01*
X263074Y227222D01*
X262502Y228304D01*
X263701Y229105D01*
X270229Y235634D01*
X271117Y236962D01*
X271428Y238528D01*
Y261868D01*
Y294044D01*
X271117Y295611D01*
X270229Y296939D01*
X268005Y299163D01*
X268325Y300639D01*
X269864Y301668D01*
X271201Y303669D01*
X271671Y306030D01*
X271201Y308390D01*
X269864Y310391D01*
X269596Y310571D01*
Y356301D01*
X269284Y357868D01*
X268397Y359196D01*
X264909Y362684D01*
X264972Y363000D01*
X264502Y365360D01*
X263165Y367362D01*
X261164Y368699D01*
X258803Y369168D01*
X256443Y368699D01*
X254441Y367362D01*
X253104Y365360D01*
X252635Y363000D01*
X253104Y360639D01*
X254441Y358638D01*
X256443Y357301D01*
X258803Y356831D01*
X259119Y356894D01*
X261144Y354869D01*
X261037Y353805D01*
X259866Y353220D01*
X259296Y353600D01*
X256936Y354070D01*
X254575Y353600D01*
X252574Y352263D01*
X252395Y351995D01*
X245652D01*
X244085Y351683D01*
X242757Y350796D01*
X233605Y341644D01*
X232718Y340316D01*
X232406Y338750D01*
Y287500D01*
Y232750D01*
Y196605D01*
X232718Y195039D01*
X233605Y193711D01*
X242210Y185105D01*
X243538Y184218D01*
X245105Y183906D01*
X252558D01*
X252738Y183638D01*
X254739Y182301D01*
X257099Y181832D01*
X259460Y182301D01*
X261461Y183638D01*
X262798Y185640D01*
X263268Y188000D01*
X262798Y190361D01*
X261461Y192362D01*
X259460Y193699D01*
X257099Y194169D01*
X254739Y193699D01*
X252738Y192362D01*
X252558Y192094D01*
X246801D01*
X240593Y198301D01*
Y209911D01*
X241863Y210036D01*
X241968Y209510D01*
X242855Y208182D01*
X244561Y206477D01*
X245889Y205589D01*
X247456Y205278D01*
X261052D01*
X261232Y205009D01*
X263233Y203672D01*
X265593Y203203D01*
X267954Y203672D01*
X269955Y205009D01*
X271292Y207011D01*
X271762Y209371D01*
X271292Y211732D01*
X269955Y213733D01*
X268428Y214753D01*
X268345Y216146D01*
X268367Y216206D01*
X269458Y216935D01*
X287193D01*
X287679Y215762D01*
X274629Y202711D01*
X272668Y202321D01*
X270666Y200984D01*
X269329Y198982D01*
X268860Y196622D01*
X269329Y194261D01*
X270666Y192260D01*
X272668Y190923D01*
X275028Y190453D01*
X277389Y190923D01*
X279390Y192260D01*
X280727Y194261D01*
X281117Y196222D01*
X306998Y222103D01*
X307993Y223592D01*
X308342Y225348D01*
Y307153D01*
X309462Y307752D01*
X310013Y307384D01*
X312373Y306915D01*
X314734Y307384D01*
X316735Y308722D01*
X318072Y310723D01*
X318542Y313083D01*
X318072Y315444D01*
X316961Y317106D01*
Y406689D01*
X395324Y485052D01*
X396319Y486541D01*
X396668Y488296D01*
Y497229D01*
X398636Y498045D01*
X401352Y500128D01*
X403210Y502550D01*
X404480Y502209D01*
Y496400D01*
X412892D01*
Y488285D01*
X362303Y437695D01*
X361308Y436207D01*
X360959Y434451D01*
Y232057D01*
X282537Y153636D01*
X281543Y152147D01*
X281193Y150391D01*
Y101964D01*
X280707Y101606D01*
X279557Y102337D01*
X279769Y103405D01*
X279300Y105765D01*
X277963Y107766D01*
X275961Y109103D01*
X273601Y109573D01*
X271240Y109103D01*
X269239Y107766D01*
X267902Y105765D01*
X267432Y103405D01*
X267902Y101044D01*
X269239Y99043D01*
X271240Y97705D01*
X273601Y97236D01*
X275496Y97613D01*
X276122Y96443D01*
X274519Y94839D01*
X272558Y94449D01*
X270556Y93112D01*
X269219Y91111D01*
X268750Y88750D01*
X269219Y86390D01*
X270556Y84388D01*
X272558Y83051D01*
X274918Y82582D01*
X277279Y83051D01*
X279280Y84388D01*
X280617Y86390D01*
X281007Y88350D01*
X289026Y96369D01*
X290021Y97858D01*
X290370Y99614D01*
Y103966D01*
X291640Y104351D01*
X292116Y103638D01*
X294117Y102301D01*
X296478Y101831D01*
X298838Y102301D01*
X300840Y103638D01*
X302177Y105639D01*
X302646Y108000D01*
X302177Y110360D01*
X302085Y110497D01*
Y116238D01*
X303503Y117655D01*
X304718Y119474D01*
X305145Y121620D01*
Y141386D01*
X305236Y141522D01*
X305706Y143883D01*
X305236Y146243D01*
X303899Y148244D01*
X301898Y149582D01*
X299537Y150051D01*
X297177Y149582D01*
X295175Y148244D01*
X293838Y146243D01*
X293369Y143883D01*
X293838Y141522D01*
X293930Y141386D01*
Y123943D01*
X292512Y122526D01*
X291640Y121220D01*
X290370Y121605D01*
Y148491D01*
X367391Y225512D01*
X368564Y225026D01*
Y208105D01*
X367453Y206443D01*
X367063Y204482D01*
X312177Y149596D01*
X311182Y148108D01*
X310833Y146352D01*
Y82312D01*
X283136Y54615D01*
X229335D01*
X229277Y54763D01*
X229124Y55885D01*
X230895Y57069D01*
X232232Y59070D01*
X232701Y61430D01*
X232232Y63791D01*
X230895Y65792D01*
X228893Y67129D01*
X226533Y67599D01*
X224172Y67129D01*
X224036Y67038D01*
X197521D01*
X132030Y132530D01*
Y393995D01*
X168141Y430106D01*
X169311Y429480D01*
X168967Y427750D01*
X169437Y425390D01*
X170774Y423388D01*
X172775Y422051D01*
X175136Y421582D01*
X177496Y422051D01*
X179497Y423388D01*
X180835Y425390D01*
X181304Y427750D01*
X180835Y430111D01*
X179497Y432112D01*
X177496Y433449D01*
X175136Y433919D01*
X173406Y433575D01*
X172780Y434745D01*
X192345Y454310D01*
X288143D01*
X290289Y454737D01*
X292108Y455953D01*
X320645Y484490D01*
X321861Y486310D01*
X322288Y488456D01*
Y497652D01*
X323236Y498045D01*
X325952Y500128D01*
X328036Y502844D01*
X328893Y504913D01*
X330267D01*
X331124Y502844D01*
D02*
G37*
G36*
X356124D02*
X358208Y500128D01*
X360924Y498045D01*
X362892Y497229D01*
Y480741D01*
X302918Y420767D01*
X301745Y421254D01*
Y435256D01*
X345724Y479235D01*
X346719Y480724D01*
X347068Y482480D01*
Y497229D01*
X349036Y498045D01*
X351752Y500128D01*
X353835Y502844D01*
X354345Y504074D01*
X355615D01*
X356124Y502844D01*
D02*
G37*
%LPC*%
G36*
X256029Y446168D02*
X253668Y445698D01*
X251667Y444361D01*
X250330Y442360D01*
X249861Y439999D01*
X250330Y437639D01*
X251667Y435637D01*
X253668Y434300D01*
X256029Y433831D01*
X258390Y434300D01*
X260391Y435637D01*
X261728Y437639D01*
X262198Y439999D01*
X261728Y442360D01*
X260391Y444361D01*
X258390Y445698D01*
X256029Y446168D01*
D02*
G37*
G36*
X211007Y433919D02*
X208646Y433449D01*
X206645Y432112D01*
X205308Y430111D01*
X204838Y427750D01*
X205308Y425390D01*
X206645Y423388D01*
X208646Y422051D01*
X211007Y421582D01*
X213367Y422051D01*
X215368Y423388D01*
X216705Y425390D01*
X217175Y427750D01*
X216705Y430111D01*
X215368Y432112D01*
X213367Y433449D01*
X211007Y433919D01*
D02*
G37*
G36*
X350990Y426129D02*
X348629Y425659D01*
X346628Y424322D01*
X345291Y422321D01*
X344822Y419960D01*
X345291Y417599D01*
X346628Y415598D01*
X348629Y414261D01*
X350990Y413792D01*
X353351Y414261D01*
X355352Y415598D01*
X356689Y417599D01*
X357159Y419960D01*
X356689Y422321D01*
X355352Y424322D01*
X353351Y425659D01*
X350990Y426129D01*
D02*
G37*
G36*
X284370Y420508D02*
X282009Y420039D01*
X280008Y418702D01*
X278671Y416701D01*
X278202Y414340D01*
X278671Y411979D01*
X280008Y409978D01*
X282009Y408641D01*
X284370Y408172D01*
X286731Y408641D01*
X288732Y409978D01*
X290069Y411979D01*
X290539Y414340D01*
X290069Y416701D01*
X288732Y418702D01*
X286731Y420039D01*
X284370Y420508D01*
D02*
G37*
G36*
X210940Y410509D02*
X208580Y410039D01*
X206578Y408702D01*
X205241Y406701D01*
X204772Y404340D01*
X205241Y401979D01*
X206578Y399978D01*
X208580Y398641D01*
X210940Y398172D01*
X213301Y398641D01*
X215302Y399978D01*
X216639Y401979D01*
X217109Y404340D01*
X216639Y406701D01*
X215302Y408702D01*
X213301Y410039D01*
X210940Y410509D01*
D02*
G37*
G36*
X338030Y388754D02*
X335669Y388284D01*
X333668Y386947D01*
X332331Y384946D01*
X331861Y382585D01*
X332331Y380224D01*
X333668Y378223D01*
X335669Y376886D01*
X338030Y376417D01*
X340391Y376886D01*
X342392Y378223D01*
X343729Y380224D01*
X344198Y382585D01*
X343729Y384946D01*
X342392Y386947D01*
X340391Y388284D01*
X338030Y388754D01*
D02*
G37*
G36*
X350200Y378397D02*
X347839Y377928D01*
X345838Y376590D01*
X344501Y374589D01*
X344031Y372229D01*
X344501Y369868D01*
X345838Y367867D01*
X347839Y366530D01*
X350200Y366060D01*
X352561Y366530D01*
X354562Y367867D01*
X355899Y369868D01*
X356368Y372229D01*
X355899Y374589D01*
X354562Y376590D01*
X352561Y377928D01*
X350200Y378397D01*
D02*
G37*
G36*
X204000Y368168D02*
X201639Y367699D01*
X199638Y366362D01*
X198301Y364361D01*
X197831Y362000D01*
X198301Y359639D01*
X199638Y357638D01*
X201639Y356301D01*
X204000Y355831D01*
X206361Y356301D01*
X208362Y357638D01*
X209699Y359639D01*
X210168Y362000D01*
X209699Y364361D01*
X208362Y366362D01*
X206361Y367699D01*
X204000Y368168D01*
D02*
G37*
G36*
X204000Y315168D02*
X201639Y314699D01*
X199638Y313362D01*
X198301Y311360D01*
X197832Y309000D01*
X198301Y306639D01*
X199638Y304638D01*
X201639Y303301D01*
X204000Y302831D01*
X206361Y303301D01*
X208362Y304638D01*
X209699Y306639D01*
X210169Y309000D01*
X209699Y311360D01*
X208362Y313362D01*
X206361Y314699D01*
X204000Y315168D01*
D02*
G37*
G36*
X352250Y326950D02*
X349889Y326481D01*
X347888Y325144D01*
X346551Y323142D01*
X346081Y320782D01*
X346551Y318421D01*
X347888Y316420D01*
X348156Y316241D01*
Y298264D01*
X346886Y297879D01*
X345895Y299362D01*
X343894Y300699D01*
X341533Y301169D01*
X339173Y300699D01*
X337172Y299362D01*
X335834Y297361D01*
X335365Y295000D01*
X335428Y294684D01*
X334321Y293577D01*
X333057Y293702D01*
X332362Y294742D01*
X330361Y296079D01*
X328000Y296549D01*
X325639Y296079D01*
X323638Y294742D01*
X322301Y292741D01*
X321832Y290380D01*
X322301Y288020D01*
X323638Y286019D01*
X324679Y285323D01*
X324803Y284059D01*
X319275Y278531D01*
X318387Y277203D01*
X318076Y275636D01*
Y231382D01*
X318387Y229815D01*
X319275Y228487D01*
X322902Y224860D01*
X324230Y223972D01*
X325797Y223661D01*
X327793D01*
X327973Y223392D01*
X329974Y222055D01*
X332334Y221586D01*
X334695Y222055D01*
X336696Y223392D01*
X338033Y225394D01*
X338503Y227754D01*
X338033Y230115D01*
X337272Y231255D01*
X336696Y232116D01*
X337222Y233292D01*
X337877Y234273D01*
X338347Y236634D01*
X337877Y238994D01*
X336540Y240996D01*
X336457Y241051D01*
X337589Y242745D01*
X338058Y245105D01*
X337589Y247466D01*
X336252Y249467D01*
X335984Y249646D01*
Y269404D01*
X340474Y273894D01*
X340790Y273832D01*
X343150Y274301D01*
X345152Y275638D01*
X346489Y277639D01*
X346793Y279169D01*
X348109Y279274D01*
X348156Y279212D01*
Y271944D01*
X347888Y271764D01*
X346551Y269763D01*
X346081Y267403D01*
X346551Y265042D01*
X347888Y263041D01*
X349889Y261704D01*
X352250Y261234D01*
X354610Y261704D01*
X356612Y263041D01*
X357949Y265042D01*
X358418Y267403D01*
X357949Y269763D01*
X356612Y271764D01*
X356343Y271944D01*
Y316241D01*
X356612Y316420D01*
X357949Y318421D01*
X358418Y320782D01*
X357949Y323142D01*
X356612Y325144D01*
X354610Y326481D01*
X352250Y326950D01*
D02*
G37*
G36*
X204000Y262805D02*
X201639Y262335D01*
X199638Y260998D01*
X198301Y258997D01*
X197832Y256636D01*
X198301Y254275D01*
X199638Y252274D01*
X201639Y250937D01*
X204000Y250468D01*
X206361Y250937D01*
X208362Y252274D01*
X209699Y254275D01*
X210169Y256636D01*
X209699Y258997D01*
X208362Y260998D01*
X206361Y262335D01*
X204000Y262805D01*
D02*
G37*
G36*
Y207805D02*
X201639Y207335D01*
X199638Y205998D01*
X198301Y203997D01*
X197832Y201636D01*
X198301Y199275D01*
X199638Y197274D01*
X201639Y195937D01*
X204000Y195468D01*
X206361Y195937D01*
X208362Y197274D01*
X209699Y199275D01*
X210169Y201636D01*
X209699Y203997D01*
X208362Y205998D01*
X206361Y207335D01*
X204000Y207805D01*
D02*
G37*
G36*
X145810Y152194D02*
X143722Y151919D01*
X141776Y151113D01*
X140105Y149831D01*
X138822Y148160D01*
X138016Y146214D01*
X137741Y144125D01*
X138016Y142037D01*
X138822Y140091D01*
X140105Y138420D01*
X158297Y120227D01*
X159968Y118945D01*
X161914Y118139D01*
X164003Y117864D01*
X240595D01*
X242684Y118139D01*
X244630Y118945D01*
X246301Y120227D01*
X247583Y121898D01*
X248389Y123845D01*
X248664Y125933D01*
X248389Y128021D01*
X247583Y129967D01*
X246301Y131639D01*
X244630Y132921D01*
X242684Y133727D01*
X240595Y134002D01*
X167345D01*
X151516Y149831D01*
X149845Y151113D01*
X147899Y151919D01*
X145810Y152194D01*
D02*
G37*
G36*
X243080Y94748D02*
X240719Y94279D01*
X238718Y92942D01*
X237381Y90941D01*
X236912Y88580D01*
X237381Y86219D01*
X238718Y84218D01*
X240719Y82881D01*
X243080Y82411D01*
X245441Y82881D01*
X247442Y84218D01*
X248779Y86219D01*
X249249Y88580D01*
X248779Y90941D01*
X247442Y92942D01*
X245441Y94279D01*
X243080Y94748D01*
D02*
G37*
%LPD*%
D24*
X671710Y306197D02*
D03*
Y280797D02*
D03*
Y255397D02*
D03*
X627260Y306197D02*
D03*
Y280797D02*
D03*
Y255397D02*
D03*
D33*
X478787Y392107D02*
X560919Y474239D01*
X381080Y392107D02*
X478787D01*
X190345Y479980D02*
X206000D01*
X109375Y399010D02*
X190345Y479980D01*
X70315Y399010D02*
X109375D01*
X189680Y480032D02*
Y509400D01*
X482963Y282954D02*
X520514D01*
X331920Y131910D02*
X482963Y282954D01*
X331920Y26797D02*
Y131910D01*
X390957Y59012D02*
X447498D01*
X379899Y47953D02*
X390957Y59012D01*
X343840Y47953D02*
X379899D01*
X285037Y50027D02*
X315421Y80412D01*
Y146352D01*
X565425Y391072D02*
X572880Y383617D01*
Y219594D02*
Y383617D01*
Y219594D02*
X585428Y207046D01*
Y59504D02*
Y207046D01*
Y59504D02*
X610519Y34412D01*
Y26797D02*
Y34412D01*
X365547Y230157D02*
Y434451D01*
X285782Y150391D02*
X365547Y230157D01*
X285782Y99614D02*
Y150391D01*
X373152Y204082D02*
Y425276D01*
X315421Y146352D02*
X373152Y204082D01*
X187929Y50027D02*
X285037D01*
X113750Y124206D02*
X187929Y50027D01*
X113750Y124206D02*
Y335575D01*
X373152Y425276D02*
X419655Y471780D01*
X70315Y379010D02*
X113750Y335575D01*
X297156Y437156D02*
X342480Y482480D01*
Y509400D01*
X367480Y478841D02*
Y509400D01*
X303754Y415115D02*
X367480Y478841D01*
X312373Y408590D02*
X392080Y488296D01*
Y509400D01*
X365547Y434451D02*
X417480Y486384D01*
Y509400D01*
X265435Y221523D02*
X291254D01*
X297156Y227426D01*
Y252000D01*
Y437156D01*
X275028Y196622D02*
X303754Y225348D01*
Y415115D01*
X274918Y88750D02*
X285782Y99614D01*
X560919Y474239D02*
Y509397D01*
X510821Y321420D02*
Y372450D01*
Y321420D02*
X560919Y271321D01*
Y26797D02*
Y271321D01*
X312373Y313083D02*
Y408590D01*
D34*
X190023Y459918D02*
X288143D01*
X126422Y396317D02*
X190023Y459918D01*
X126422Y130207D02*
Y396317D01*
X288143Y459918D02*
X316680Y488456D01*
X195198Y61430D02*
X226533D01*
X126422Y130207D02*
X195198Y61430D01*
X316680Y488456D02*
Y509400D01*
X667385Y294146D02*
X671710Y298471D01*
Y306197D01*
Y255397D02*
Y266079D01*
X600686Y255397D02*
X627260D01*
X296478Y108000D02*
Y118561D01*
X299537Y121620D01*
Y143883D01*
X585920Y227029D02*
Y509397D01*
Y227029D02*
X633076Y179873D01*
Y141040D02*
Y179873D01*
X449006Y359750D02*
X496657D01*
X433143Y343887D02*
X449006Y359750D01*
X433143Y316143D02*
Y343887D01*
D35*
X245652Y347901D02*
X256936D01*
X236500Y338750D02*
X245652Y347901D01*
X236500Y287500D02*
Y338750D01*
X245750Y315629D02*
Y323217D01*
X656913Y269053D02*
X668657Y280797D01*
X671710D01*
Y266079D02*
X671830Y266199D01*
X600788Y280797D02*
X627260D01*
X601597Y306197D02*
X627260D01*
X236500Y232750D02*
X245750Y242000D01*
X257201D01*
X236500Y196605D02*
Y232750D01*
Y196605D02*
X245105Y188000D01*
X257099D01*
X260806Y232000D02*
X267334Y238528D01*
X250750Y232000D02*
X260806D01*
X245750Y227000D02*
X250750Y232000D01*
X245750Y216118D02*
Y227000D01*
Y211077D02*
Y216118D01*
Y211077D02*
X247456Y209371D01*
X265593D01*
X245750Y268845D02*
X260358D01*
X267334Y261868D01*
Y238528D02*
Y261868D01*
X243000Y294000D02*
X256936D01*
X236500Y287500D02*
X243000Y294000D01*
X236500Y232750D02*
Y287500D01*
X265502Y306030D02*
Y356301D01*
X245750Y315629D02*
X267334Y294044D01*
Y261868D02*
Y294044D01*
X331890Y245105D02*
Y271100D01*
X340790Y280000D01*
X325797Y227754D02*
X332334D01*
X322169Y231382D02*
X325797Y227754D01*
X322169Y231382D02*
Y275636D01*
X341533Y295000D01*
X352250Y267403D02*
Y320782D01*
X258803Y363000D02*
X265502Y356301D01*
D37*
X164003Y125933D02*
X240595D01*
X145810Y144125D02*
X164003Y125933D01*
D41*
X70315Y359010D02*
D03*
Y339010D02*
D03*
Y379010D02*
D03*
Y399010D02*
D03*
X71345Y162099D02*
D03*
Y182099D02*
D03*
X71107Y251253D02*
D03*
Y271253D02*
D03*
D42*
X635919Y26797D02*
D03*
X458120D02*
D03*
X635919Y509397D02*
D03*
X417480Y509400D02*
D03*
D43*
X610519Y26797D02*
D03*
X585920D02*
D03*
X560919D02*
D03*
X535120D02*
D03*
X509720D02*
D03*
X331920D02*
D03*
X357320D02*
D03*
X383119D02*
D03*
X408120D02*
D03*
X432719D02*
D03*
X306520D02*
D03*
X281120D02*
D03*
X509720Y509397D02*
D03*
X535120D02*
D03*
X560919D02*
D03*
X585920D02*
D03*
X610519D02*
D03*
X484320D02*
D03*
X458920D02*
D03*
X189680Y509400D02*
D03*
X215080D02*
D03*
X240480D02*
D03*
X265880D02*
D03*
X392080D02*
D03*
X367480D02*
D03*
X342480D02*
D03*
X316680D02*
D03*
X291280D02*
D03*
D44*
X108204Y75501D02*
D03*
X48204D02*
D03*
D45*
X78204Y27501D02*
D03*
D46*
X381080Y392107D02*
D03*
X373152Y204082D02*
D03*
X343840Y47953D02*
D03*
X447498Y59012D02*
D03*
X565425Y391072D02*
D03*
X419655Y471780D02*
D03*
X206000Y479980D02*
D03*
X610439Y391787D02*
D03*
X256936Y347901D02*
D03*
X245750Y323217D02*
D03*
X656913Y269053D02*
D03*
X600686Y255397D02*
D03*
X600788Y280797D02*
D03*
X601597Y306197D02*
D03*
X256029Y439999D02*
D03*
X284370Y414340D02*
D03*
X350990Y419960D02*
D03*
X204000Y362000D02*
D03*
X204000Y309000D02*
D03*
Y256636D02*
D03*
Y201636D02*
D03*
X273601Y103405D02*
D03*
X421000Y77250D02*
D03*
X667385Y294146D02*
D03*
X392000Y278364D02*
D03*
Y227364D02*
D03*
X175971Y391000D02*
D03*
X284554Y394340D02*
D03*
X495039Y308950D02*
D03*
X544042Y309333D02*
D03*
X333960Y456000D02*
D03*
X315040Y291006D02*
D03*
X287960Y238186D02*
D03*
X249610Y79332D02*
D03*
X277670Y64398D02*
D03*
X331481Y144000D02*
D03*
X577145Y96040D02*
D03*
X671830Y266199D02*
D03*
X239512Y108660D02*
D03*
X296478Y108000D02*
D03*
X299537Y143883D02*
D03*
X265435Y221523D02*
D03*
X265593Y209371D02*
D03*
X245750Y216118D02*
D03*
X257099Y188000D02*
D03*
X257201Y242000D02*
D03*
X297156Y252000D02*
D03*
X245750Y268845D02*
D03*
X256936Y294000D02*
D03*
X265502Y306030D02*
D03*
X442579Y103348D02*
D03*
X332178Y236634D02*
D03*
X331890Y245105D02*
D03*
X352250Y320782D02*
D03*
Y267403D02*
D03*
X341533Y295000D02*
D03*
X332334Y227754D02*
D03*
X328000Y290380D02*
D03*
X340790Y280000D02*
D03*
X434526Y374750D02*
D03*
X633076Y141040D02*
D03*
X521214Y141041D02*
D03*
X211007Y427750D02*
D03*
X175136D02*
D03*
X338030Y382585D02*
D03*
X350989Y382593D02*
D03*
X520902Y186502D02*
D03*
X521214Y96040D02*
D03*
X609043Y59012D02*
D03*
X520902Y231503D02*
D03*
X80598Y474344D02*
D03*
X226533Y61430D02*
D03*
X275028Y196622D02*
D03*
X274918Y88750D02*
D03*
X210940Y404340D02*
D03*
X442915Y335056D02*
D03*
X520514Y282954D02*
D03*
X433143Y316143D02*
D03*
X496657Y359750D02*
D03*
X510821Y372450D02*
D03*
X217284Y390940D02*
D03*
X258803Y363000D02*
D03*
X603220Y346750D02*
D03*
X350200Y372229D02*
D03*
X287369Y353288D02*
D03*
X243080Y88580D02*
D03*
X206355Y447792D02*
D03*
X240595Y125933D02*
D03*
X145810Y144125D02*
D03*
X312373Y313083D02*
D03*
D47*
X420214Y27055D02*
D03*
M02*
