G04 Layer_Color=16711935*
%FSLAX44Y44*%
%MOMM*%
G71*
G01*
G75*
%ADD10C,1.0000*%
%ADD24R,3.8100X1.2700*%
%ADD58C,0.8000*%
%ADD59O,2.5000X1.0000*%
%ADD60O,1.0000X2.5000*%
%ADD61C,0.3050*%
D10*
X635919Y26797D02*
D03*
X610519D02*
D03*
X585920D02*
D03*
X560919D02*
D03*
X535120D02*
D03*
X509720D02*
D03*
X331920D02*
D03*
X357320D02*
D03*
X383119D02*
D03*
X408120D02*
D03*
X432719D02*
D03*
X458120D02*
D03*
X306520D02*
D03*
X281120D02*
D03*
X509720Y509397D02*
D03*
X535120D02*
D03*
X560919D02*
D03*
X585920D02*
D03*
X610519D02*
D03*
X635919D02*
D03*
X484320D02*
D03*
X458920D02*
D03*
X189680Y509400D02*
D03*
X215080D02*
D03*
X240480D02*
D03*
X265880D02*
D03*
X417480D02*
D03*
X392080D02*
D03*
X367480D02*
D03*
X342480D02*
D03*
X316680D02*
D03*
X291280D02*
D03*
D24*
X671710Y306197D02*
D03*
Y280797D02*
D03*
Y255397D02*
D03*
X627260Y306197D02*
D03*
Y280797D02*
D03*
Y255397D02*
D03*
D58*
X70315Y359010D02*
D03*
Y339010D02*
D03*
Y379010D02*
D03*
Y399010D02*
D03*
X71345Y162099D02*
D03*
Y182099D02*
D03*
X71107Y251253D02*
D03*
Y271253D02*
D03*
D59*
X108204Y75501D02*
D03*
X48204D02*
D03*
D60*
X78204Y27501D02*
D03*
D61*
X381080Y392107D02*
D03*
X373152Y204082D02*
D03*
X343840Y47953D02*
D03*
X447498Y59012D02*
D03*
X565425Y391072D02*
D03*
X419655Y471780D02*
D03*
X206000Y479980D02*
D03*
X610439Y391787D02*
D03*
X256936Y347901D02*
D03*
X245750Y323217D02*
D03*
X656913Y269053D02*
D03*
X600686Y255397D02*
D03*
X600788Y280797D02*
D03*
X601597Y306197D02*
D03*
X256029Y439999D02*
D03*
X284370Y414340D02*
D03*
X350990Y419960D02*
D03*
X204000Y362000D02*
D03*
X204000Y309000D02*
D03*
Y256636D02*
D03*
Y201636D02*
D03*
X273601Y103405D02*
D03*
X421000Y77250D02*
D03*
X667385Y294146D02*
D03*
X392000Y278364D02*
D03*
Y227364D02*
D03*
X175971Y391000D02*
D03*
X284554Y394340D02*
D03*
X495039Y308950D02*
D03*
X544042Y309333D02*
D03*
X333960Y456000D02*
D03*
X315040Y291006D02*
D03*
X287960Y238186D02*
D03*
X249610Y79332D02*
D03*
X277670Y64398D02*
D03*
X331481Y144000D02*
D03*
X577145Y96040D02*
D03*
X671830Y266199D02*
D03*
X239512Y108660D02*
D03*
X296478Y108000D02*
D03*
X299537Y143883D02*
D03*
X265435Y221523D02*
D03*
X265593Y209371D02*
D03*
X245750Y216118D02*
D03*
X257099Y188000D02*
D03*
X257201Y242000D02*
D03*
X297156Y252000D02*
D03*
X245750Y268845D02*
D03*
X256936Y294000D02*
D03*
X265502Y306030D02*
D03*
X442579Y103348D02*
D03*
X332178Y236634D02*
D03*
X331890Y245105D02*
D03*
X352250Y320782D02*
D03*
Y267403D02*
D03*
X341533Y295000D02*
D03*
X332334Y227754D02*
D03*
X328000Y290380D02*
D03*
X340790Y280000D02*
D03*
X434526Y374750D02*
D03*
X633076Y141040D02*
D03*
X521214Y141041D02*
D03*
X211007Y427750D02*
D03*
X175136D02*
D03*
X338030Y382585D02*
D03*
X350989Y382593D02*
D03*
X520902Y186502D02*
D03*
X521214Y96040D02*
D03*
X609043Y59012D02*
D03*
X520902Y231503D02*
D03*
X80598Y474344D02*
D03*
X226533Y61430D02*
D03*
X275028Y196622D02*
D03*
X274918Y88750D02*
D03*
X210940Y404340D02*
D03*
X442915Y335056D02*
D03*
X520514Y282954D02*
D03*
X433143Y316143D02*
D03*
X496657Y359750D02*
D03*
X510821Y372450D02*
D03*
X217284Y390940D02*
D03*
X258803Y363000D02*
D03*
X603220Y346750D02*
D03*
X350200Y372229D02*
D03*
X287369Y353288D02*
D03*
X243080Y88580D02*
D03*
X206355Y447792D02*
D03*
X240595Y125933D02*
D03*
X145810Y144125D02*
D03*
X312373Y313083D02*
D03*
M02*
