G04 Layer_Physical_Order=3*
G04 Layer_Color=16440176*
%FSLAX44Y44*%
%MOMM*%
G71*
G01*
G75*
%ADD33C,0.3000*%
%ADD34C,0.5000*%
%ADD35C,0.2030*%
%ADD37C,1.0000*%
%ADD41C,1.3000*%
%ADD42R,2.0000X2.0000*%
%ADD43C,2.0000*%
%ADD46C,0.6100*%
G36*
X10889Y530819D02*
X11916Y530819D01*
X651850D01*
X666281Y516387D01*
Y396330D01*
X666317Y395771D01*
X666427Y395222D01*
X666607Y394692D01*
X666854Y394190D01*
X667165Y393725D01*
X667534Y393304D01*
X695491Y365347D01*
Y66813D01*
X667511Y38833D01*
X667142Y38412D01*
X666831Y37947D01*
X666584Y37445D01*
X666404Y36915D01*
X666295Y36366D01*
X666258Y35807D01*
Y10903D01*
X665937Y10207D01*
X665496Y9419D01*
X664994Y8668D01*
X664435Y7959D01*
X663822Y7296D01*
X663159Y6683D01*
X662449Y6124D01*
X661699Y5622D01*
X660978Y5218D01*
X13447D01*
X13149Y5199D01*
X13148Y5208D01*
X12710Y5184D01*
X12693Y5185D01*
X11470Y5314D01*
X11183Y5364D01*
X10707Y5396D01*
X9553Y5675D01*
X9160Y5808D01*
X9121Y5816D01*
X9111Y5819D01*
X9111Y5819D01*
X8667Y5947D01*
X8113Y6176D01*
X7589Y6466D01*
X7101Y6812D01*
X6654Y7211D01*
X6255Y7658D01*
X5909Y8146D01*
X5619Y8670D01*
X5390Y9224D01*
X5224Y9799D01*
X5182Y10045D01*
X5106Y11264D01*
X5111Y11485D01*
X5101Y11636D01*
X5089Y12503D01*
Y526121D01*
X5186Y526688D01*
X5351Y527263D01*
X5581Y527816D01*
X5870Y528340D01*
X6217Y528829D01*
X6616Y529275D01*
X7062Y529674D01*
X7551Y530021D01*
X8075Y530311D01*
X8628Y530540D01*
X9204Y530705D01*
X9449Y530747D01*
X10668Y530824D01*
X10889Y530819D01*
D02*
G37*
%LPC*%
G36*
X392080Y522408D02*
X391152Y522375D01*
X390229Y522276D01*
X389315Y522111D01*
X388415Y521881D01*
X387534Y521588D01*
X386676Y521233D01*
X385846Y520817D01*
X385047Y520343D01*
X384284Y519814D01*
X383561Y519231D01*
X382882Y518598D01*
X382249Y517919D01*
X381666Y517196D01*
X381137Y516433D01*
X380663Y515634D01*
X380488Y515285D01*
X380345Y515227D01*
X379215D01*
X379072Y515285D01*
X378897Y515634D01*
X378423Y516433D01*
X377894Y517196D01*
X377311Y517919D01*
X376678Y518598D01*
X375999Y519231D01*
X375276Y519814D01*
X374513Y520343D01*
X373714Y520817D01*
X372884Y521233D01*
X372026Y521588D01*
X371145Y521881D01*
X370245Y522111D01*
X369331Y522276D01*
X368408Y522375D01*
X367480Y522408D01*
X366552Y522375D01*
X365629Y522276D01*
X364715Y522111D01*
X363815Y521881D01*
X362934Y521588D01*
X362076Y521233D01*
X361246Y520817D01*
X360447Y520343D01*
X359684Y519814D01*
X358961Y519231D01*
X358282Y518598D01*
X357649Y517919D01*
X357066Y517196D01*
X356537Y516433D01*
X356063Y515634D01*
X355669Y514848D01*
X355524Y514804D01*
X354436D01*
X354291Y514848D01*
X353897Y515634D01*
X353423Y516433D01*
X352894Y517196D01*
X352311Y517919D01*
X351678Y518598D01*
X350999Y519231D01*
X350276Y519814D01*
X349513Y520343D01*
X348714Y520817D01*
X347884Y521233D01*
X347026Y521588D01*
X346145Y521881D01*
X345245Y522111D01*
X344331Y522276D01*
X343408Y522375D01*
X342480Y522408D01*
X341552Y522375D01*
X340629Y522276D01*
X339715Y522111D01*
X338815Y521881D01*
X337934Y521588D01*
X337076Y521233D01*
X336246Y520817D01*
X335447Y520343D01*
X334684Y519814D01*
X333961Y519231D01*
X333282Y518598D01*
X332649Y517919D01*
X332066Y517196D01*
X331537Y516433D01*
X331063Y515634D01*
X330647Y514804D01*
X330292Y513946D01*
X330249Y513818D01*
X328911D01*
X328868Y513946D01*
X328513Y514804D01*
X328097Y515634D01*
X327623Y516433D01*
X327094Y517196D01*
X326511Y517919D01*
X325878Y518598D01*
X325199Y519231D01*
X324476Y519814D01*
X323713Y520343D01*
X322914Y520817D01*
X322084Y521233D01*
X321226Y521588D01*
X320345Y521881D01*
X319445Y522111D01*
X318531Y522276D01*
X317608Y522375D01*
X316680Y522408D01*
X315752Y522375D01*
X314829Y522276D01*
X313915Y522111D01*
X313015Y521881D01*
X312134Y521588D01*
X311276Y521233D01*
X310446Y520817D01*
X309647Y520343D01*
X308884Y519814D01*
X308161Y519231D01*
X307482Y518598D01*
X306849Y517919D01*
X306266Y517196D01*
X305737Y516433D01*
X305263Y515634D01*
X304847Y514804D01*
X304663Y514359D01*
X304513Y514307D01*
X303447D01*
X303297Y514359D01*
X303113Y514804D01*
X302697Y515634D01*
X302223Y516433D01*
X301694Y517196D01*
X301111Y517919D01*
X300478Y518598D01*
X299799Y519231D01*
X299076Y519814D01*
X298313Y520343D01*
X297514Y520817D01*
X296684Y521233D01*
X295826Y521588D01*
X294945Y521881D01*
X294045Y522111D01*
X293131Y522276D01*
X292208Y522375D01*
X291280Y522408D01*
X290352Y522375D01*
X289429Y522276D01*
X288515Y522111D01*
X287615Y521881D01*
X286734Y521588D01*
X285876Y521233D01*
X285046Y520817D01*
X284247Y520343D01*
X283484Y519814D01*
X282761Y519231D01*
X282082Y518598D01*
X281449Y517919D01*
X280866Y517196D01*
X280337Y516433D01*
X279863Y515634D01*
X279447Y514804D01*
X279263Y514359D01*
X279113Y514307D01*
X278047D01*
X277897Y514359D01*
X277713Y514804D01*
X277297Y515634D01*
X276823Y516433D01*
X276294Y517196D01*
X275711Y517919D01*
X275078Y518598D01*
X274399Y519231D01*
X273676Y519814D01*
X272913Y520343D01*
X272114Y520817D01*
X271284Y521233D01*
X270426Y521588D01*
X269545Y521881D01*
X268645Y522111D01*
X267731Y522276D01*
X266808Y522375D01*
X265880Y522408D01*
X264952Y522375D01*
X264029Y522276D01*
X263115Y522111D01*
X262215Y521881D01*
X261334Y521588D01*
X260476Y521233D01*
X259646Y520817D01*
X258847Y520343D01*
X258084Y519814D01*
X257361Y519231D01*
X256682Y518598D01*
X256049Y517919D01*
X255466Y517196D01*
X254937Y516433D01*
X254463Y515634D01*
X254047Y514804D01*
X253863Y514359D01*
X253713Y514307D01*
X252647D01*
X252497Y514359D01*
X252313Y514804D01*
X251897Y515634D01*
X251423Y516433D01*
X250894Y517196D01*
X250311Y517919D01*
X249678Y518598D01*
X248999Y519231D01*
X248276Y519814D01*
X247513Y520343D01*
X246714Y520817D01*
X245884Y521233D01*
X245026Y521588D01*
X244145Y521881D01*
X243245Y522111D01*
X242331Y522276D01*
X241408Y522375D01*
X240480Y522408D01*
X239552Y522375D01*
X238629Y522276D01*
X237715Y522111D01*
X236815Y521881D01*
X235934Y521588D01*
X235076Y521233D01*
X234246Y520817D01*
X233447Y520343D01*
X232684Y519814D01*
X231961Y519231D01*
X231282Y518598D01*
X230649Y517919D01*
X230066Y517196D01*
X229537Y516433D01*
X229063Y515634D01*
X228647Y514804D01*
X228463Y514359D01*
X228313Y514307D01*
X227247D01*
X227097Y514359D01*
X226913Y514804D01*
X226497Y515634D01*
X226023Y516433D01*
X225494Y517196D01*
X224911Y517919D01*
X224278Y518598D01*
X223599Y519231D01*
X222876Y519814D01*
X222113Y520343D01*
X221314Y520817D01*
X220484Y521233D01*
X219626Y521588D01*
X218745Y521881D01*
X217845Y522111D01*
X216931Y522276D01*
X216008Y522375D01*
X215080Y522408D01*
X214152Y522375D01*
X213229Y522276D01*
X212315Y522111D01*
X211415Y521881D01*
X210534Y521588D01*
X209676Y521233D01*
X208846Y520817D01*
X208047Y520343D01*
X207284Y519814D01*
X206561Y519231D01*
X205882Y518598D01*
X205249Y517919D01*
X204666Y517196D01*
X204137Y516433D01*
X203663Y515634D01*
X203247Y514804D01*
X203063Y514359D01*
X202913Y514307D01*
X201847D01*
X201697Y514359D01*
X201513Y514804D01*
X201097Y515634D01*
X200623Y516433D01*
X200094Y517196D01*
X199511Y517919D01*
X198878Y518598D01*
X198199Y519231D01*
X197476Y519814D01*
X196713Y520343D01*
X195914Y520817D01*
X195084Y521233D01*
X194226Y521588D01*
X193345Y521881D01*
X192445Y522111D01*
X191531Y522276D01*
X190608Y522375D01*
X189680Y522408D01*
X188752Y522375D01*
X187829Y522276D01*
X186915Y522111D01*
X186015Y521881D01*
X185134Y521588D01*
X184276Y521233D01*
X183446Y520817D01*
X182647Y520343D01*
X181884Y519814D01*
X181161Y519231D01*
X180482Y518598D01*
X179849Y517919D01*
X179266Y517196D01*
X178737Y516433D01*
X178263Y515634D01*
X177847Y514804D01*
X177492Y513946D01*
X177199Y513065D01*
X176969Y512165D01*
X176804Y511251D01*
X176705Y510328D01*
X176672Y509400D01*
X176705Y508472D01*
X176804Y507549D01*
X176969Y506635D01*
X177199Y505735D01*
X177492Y504854D01*
X177847Y503996D01*
X178263Y503166D01*
X178737Y502367D01*
X179266Y501604D01*
X179849Y500881D01*
X180482Y500202D01*
X181161Y499569D01*
X181884Y498986D01*
X182647Y498457D01*
X183446Y497983D01*
X184276Y497567D01*
X185134Y497212D01*
X186015Y496919D01*
X186915Y496689D01*
X187829Y496524D01*
X188752Y496425D01*
X189680Y496392D01*
X190608Y496425D01*
X191531Y496524D01*
X192445Y496689D01*
X193345Y496919D01*
X194226Y497212D01*
X195084Y497567D01*
X195914Y497983D01*
X196713Y498457D01*
X197476Y498986D01*
X198199Y499569D01*
X198878Y500202D01*
X199511Y500881D01*
X200094Y501604D01*
X200623Y502367D01*
X201097Y503166D01*
X201513Y503996D01*
X201697Y504441D01*
X201847Y504493D01*
X202913D01*
X203063Y504441D01*
X203247Y503996D01*
X203663Y503166D01*
X204137Y502367D01*
X204666Y501604D01*
X205249Y500881D01*
X205882Y500202D01*
X206561Y499569D01*
X207284Y498986D01*
X208047Y498457D01*
X208846Y497983D01*
X209676Y497567D01*
X210534Y497212D01*
X211415Y496919D01*
X212315Y496689D01*
X213229Y496524D01*
X214152Y496425D01*
X215080Y496392D01*
X216008Y496425D01*
X216931Y496524D01*
X217845Y496689D01*
X218745Y496919D01*
X219626Y497212D01*
X220484Y497567D01*
X221314Y497983D01*
X222113Y498457D01*
X222876Y498986D01*
X223599Y499569D01*
X224278Y500202D01*
X224911Y500881D01*
X225494Y501604D01*
X226023Y502367D01*
X226497Y503166D01*
X226913Y503996D01*
X227097Y504441D01*
X227247Y504493D01*
X228313D01*
X228463Y504441D01*
X228647Y503996D01*
X229063Y503166D01*
X229537Y502367D01*
X230066Y501604D01*
X230649Y500881D01*
X231282Y500202D01*
X231961Y499569D01*
X232684Y498986D01*
X233447Y498457D01*
X234246Y497983D01*
X235076Y497567D01*
X235934Y497212D01*
X236815Y496919D01*
X237715Y496689D01*
X238629Y496524D01*
X239552Y496425D01*
X240480Y496392D01*
X241408Y496425D01*
X242331Y496524D01*
X243245Y496689D01*
X244145Y496919D01*
X245026Y497212D01*
X245884Y497567D01*
X246714Y497983D01*
X247513Y498457D01*
X248276Y498986D01*
X248999Y499569D01*
X249678Y500202D01*
X250311Y500881D01*
X250894Y501604D01*
X251423Y502367D01*
X251897Y503166D01*
X252313Y503996D01*
X252497Y504441D01*
X252647Y504493D01*
X253713D01*
X253863Y504441D01*
X254047Y503996D01*
X254463Y503166D01*
X254937Y502367D01*
X255466Y501604D01*
X256049Y500881D01*
X256682Y500202D01*
X257361Y499569D01*
X258084Y498986D01*
X258847Y498457D01*
X259646Y497983D01*
X260476Y497567D01*
X261334Y497212D01*
X262215Y496919D01*
X263115Y496689D01*
X264029Y496524D01*
X264952Y496425D01*
X265880Y496392D01*
X266808Y496425D01*
X267731Y496524D01*
X268645Y496689D01*
X269545Y496919D01*
X270426Y497212D01*
X271284Y497567D01*
X272114Y497983D01*
X272913Y498457D01*
X273676Y498986D01*
X274399Y499569D01*
X275078Y500202D01*
X275711Y500881D01*
X276294Y501604D01*
X276823Y502367D01*
X277297Y503166D01*
X277713Y503996D01*
X277897Y504441D01*
X278047Y504493D01*
X279113D01*
X279263Y504441D01*
X279447Y503996D01*
X279863Y503166D01*
X280337Y502367D01*
X280866Y501604D01*
X281449Y500881D01*
X282082Y500202D01*
X282761Y499569D01*
X283484Y498986D01*
X284247Y498457D01*
X285046Y497983D01*
X285771Y497620D01*
Y488329D01*
X285806Y487712D01*
X285910Y487103D01*
X286080Y486510D01*
X286317Y485939D01*
X286616Y485398D01*
X286973Y484894D01*
X287385Y484434D01*
X305095Y466723D01*
Y390378D01*
X305130Y389761D01*
X305233Y389152D01*
X305404Y388559D01*
X305641Y387988D01*
X305940Y387447D01*
X306297Y386943D01*
X306709Y386483D01*
X324858Y368334D01*
X325319Y367922D01*
X325822Y367564D01*
X326363Y367266D01*
X326934Y367029D01*
X327528Y366858D01*
X328136Y366755D01*
X328753Y366720D01*
X347690D01*
X348199Y366509D01*
X348852Y366321D01*
X349522Y366207D01*
X350200Y366169D01*
X350878Y366207D01*
X351548Y366321D01*
X352201Y366509D01*
X352829Y366769D01*
X353424Y367098D01*
X353978Y367491D01*
X354485Y367944D01*
X354938Y368451D01*
X355331Y369005D01*
X355659Y369599D01*
X355919Y370227D01*
X356108Y370880D01*
X356221Y371550D01*
X356259Y372229D01*
X356221Y372907D01*
X356108Y373577D01*
X355919Y374230D01*
X355659Y374858D01*
X355331Y375452D01*
X354938Y376007D01*
X354696Y376278D01*
X354627Y376445D01*
X354623Y377171D01*
X354760Y377820D01*
X354828Y377910D01*
X355274Y378308D01*
X355727Y378815D01*
X356120Y379369D01*
X356449Y379964D01*
X356709Y380591D01*
X356897Y381244D01*
X357011Y381914D01*
X357049Y382593D01*
X357011Y383271D01*
X356897Y383941D01*
X356709Y384594D01*
X356449Y385222D01*
X356120Y385817D01*
X355758Y386327D01*
X355787Y386492D01*
X356334Y387597D01*
X377047D01*
X377302Y387369D01*
X377856Y386976D01*
X378451Y386647D01*
X379078Y386387D01*
X379731Y386199D01*
X380401Y386085D01*
X381080Y386047D01*
X381758Y386085D01*
X382428Y386199D01*
X383081Y386387D01*
X383709Y386647D01*
X384303Y386976D01*
X384858Y387369D01*
X385364Y387822D01*
X385817Y388329D01*
X386210Y388883D01*
X386539Y389478D01*
X386799Y390105D01*
X386987Y390758D01*
X387101Y391428D01*
X387139Y392107D01*
X387101Y392785D01*
X386987Y393455D01*
X386799Y394108D01*
X386539Y394736D01*
X386210Y395330D01*
X385817Y395885D01*
X385364Y396391D01*
X384858Y396844D01*
X384303Y397237D01*
X383709Y397566D01*
X383081Y397826D01*
X382428Y398014D01*
X381758Y398128D01*
X381080Y398166D01*
X380401Y398128D01*
X379731Y398014D01*
X379078Y397826D01*
X378451Y397566D01*
X377856Y397237D01*
X377302Y396844D01*
X377047Y396616D01*
X347551D01*
X346963Y396578D01*
X346384Y396463D01*
X345826Y396273D01*
X345297Y396012D01*
X344806Y395684D01*
X344363Y395295D01*
X337693Y388626D01*
X337351Y388606D01*
X336682Y388493D01*
X336029Y388304D01*
X335401Y388045D01*
X334806Y387716D01*
X334252Y387323D01*
X333745Y386870D01*
X333293Y386363D01*
X332899Y385809D01*
X332571Y385214D01*
X332310Y384586D01*
X332122Y383933D01*
X332009Y383264D01*
X331970Y382585D01*
X332009Y381907D01*
X332122Y381237D01*
X332310Y380584D01*
X332571Y379956D01*
X332899Y379361D01*
X333150Y379007D01*
X332957Y378327D01*
X332545Y377737D01*
X331035D01*
X316113Y392660D01*
Y469005D01*
X316078Y469622D01*
X315975Y470231D01*
X315804Y470824D01*
X315567Y471395D01*
X315268Y471936D01*
X314911Y472439D01*
X314499Y472900D01*
X296789Y490611D01*
Y497620D01*
X297514Y497983D01*
X298313Y498457D01*
X299076Y498986D01*
X299799Y499569D01*
X300478Y500202D01*
X301111Y500881D01*
X301694Y501604D01*
X302223Y502367D01*
X302697Y503166D01*
X303113Y503996D01*
X303297Y504441D01*
X303447Y504493D01*
X304513D01*
X304663Y504441D01*
X304847Y503996D01*
X305263Y503166D01*
X305737Y502367D01*
X306266Y501604D01*
X306849Y500881D01*
X307482Y500202D01*
X308161Y499569D01*
X308884Y498986D01*
X309647Y498457D01*
X310446Y497983D01*
X311276Y497567D01*
X312134Y497212D01*
X313015Y496919D01*
X313915Y496689D01*
X314829Y496524D01*
X315752Y496425D01*
X316680Y496392D01*
X317608Y496425D01*
X318531Y496524D01*
X319445Y496689D01*
X320345Y496919D01*
X321226Y497212D01*
X322084Y497567D01*
X322914Y497983D01*
X323713Y498457D01*
X324476Y498986D01*
X325199Y499569D01*
X325878Y500202D01*
X326511Y500881D01*
X327094Y501604D01*
X327623Y502367D01*
X328097Y503166D01*
X328513Y503996D01*
X328868Y504854D01*
X328911Y504982D01*
X330249D01*
X330292Y504854D01*
X330647Y503996D01*
X331063Y503166D01*
X331537Y502367D01*
X332066Y501604D01*
X332649Y500881D01*
X333282Y500202D01*
X333961Y499569D01*
X334684Y498986D01*
X335447Y498457D01*
X336246Y497983D01*
X337076Y497567D01*
X337934Y497212D01*
X338815Y496919D01*
X339715Y496689D01*
X340629Y496524D01*
X341552Y496425D01*
X342480Y496392D01*
X343408Y496425D01*
X344331Y496524D01*
X345245Y496689D01*
X346145Y496919D01*
X347026Y497212D01*
X347884Y497567D01*
X348714Y497983D01*
X349513Y498457D01*
X350276Y498986D01*
X350999Y499569D01*
X351678Y500202D01*
X352311Y500881D01*
X352894Y501604D01*
X353423Y502367D01*
X353897Y503166D01*
X354291Y503952D01*
X354436Y503996D01*
X355524D01*
X355669Y503952D01*
X356063Y503166D01*
X356537Y502367D01*
X357066Y501604D01*
X357649Y500881D01*
X358282Y500202D01*
X358961Y499569D01*
X359684Y498986D01*
X360447Y498457D01*
X361246Y497983D01*
X362076Y497567D01*
X362934Y497212D01*
X363815Y496919D01*
X364715Y496689D01*
X365629Y496524D01*
X366552Y496425D01*
X367480Y496392D01*
X368408Y496425D01*
X369331Y496524D01*
X370245Y496689D01*
X371145Y496919D01*
X372026Y497212D01*
X372884Y497567D01*
X373714Y497983D01*
X374513Y498457D01*
X375276Y498986D01*
X375999Y499569D01*
X376678Y500202D01*
X377311Y500881D01*
X377894Y501604D01*
X378423Y502367D01*
X378897Y503166D01*
X379072Y503515D01*
X379215Y503573D01*
X380345D01*
X380488Y503515D01*
X380663Y503166D01*
X381137Y502367D01*
X381666Y501604D01*
X382249Y500881D01*
X382882Y500202D01*
X383561Y499569D01*
X384284Y498986D01*
X385047Y498457D01*
X385846Y497983D01*
X386676Y497567D01*
X387534Y497212D01*
X388415Y496919D01*
X389315Y496689D01*
X390229Y496524D01*
X391152Y496425D01*
X392080Y496392D01*
X393008Y496425D01*
X393931Y496524D01*
X394845Y496689D01*
X395745Y496919D01*
X396626Y497212D01*
X397484Y497567D01*
X398314Y497983D01*
X399113Y498457D01*
X399876Y498986D01*
X400599Y499569D01*
X401278Y500202D01*
X401911Y500881D01*
X402494Y501604D01*
X403023Y502367D01*
X403210Y502682D01*
X404480Y502333D01*
Y496400D01*
X430480D01*
Y522400D01*
X404480D01*
Y516466D01*
X403210Y516118D01*
X403023Y516433D01*
X402494Y517196D01*
X401911Y517919D01*
X401278Y518598D01*
X400599Y519231D01*
X399876Y519814D01*
X399113Y520343D01*
X398314Y520817D01*
X397484Y521233D01*
X396626Y521588D01*
X395745Y521881D01*
X394845Y522111D01*
X393931Y522276D01*
X393008Y522375D01*
X392080Y522408D01*
D02*
G37*
G36*
X610519Y522405D02*
X609591Y522372D01*
X608668Y522273D01*
X607754Y522108D01*
X606855Y521878D01*
X605974Y521585D01*
X605116Y521230D01*
X604285Y520814D01*
X603487Y520340D01*
X602724Y519811D01*
X602001Y519228D01*
X601321Y518595D01*
X600689Y517916D01*
X600106Y517193D01*
X599576Y516430D01*
X599102Y515631D01*
X598928Y515282D01*
X598785Y515224D01*
X597654D01*
X597511Y515282D01*
X597337Y515631D01*
X596863Y516430D01*
X596333Y517193D01*
X595751Y517916D01*
X595118Y518595D01*
X594438Y519228D01*
X593715Y519811D01*
X592952Y520340D01*
X592154Y520814D01*
X591323Y521230D01*
X590466Y521585D01*
X589584Y521878D01*
X588685Y522108D01*
X587771Y522273D01*
X586848Y522372D01*
X585920Y522405D01*
X584992Y522372D01*
X584068Y522273D01*
X583154Y522108D01*
X582255Y521878D01*
X581374Y521585D01*
X580516Y521230D01*
X579685Y520814D01*
X578887Y520340D01*
X578124Y519811D01*
X577401Y519228D01*
X576721Y518595D01*
X576089Y517916D01*
X575506Y517193D01*
X574976Y516430D01*
X574502Y515631D01*
X574109Y514845D01*
X573965Y514801D01*
X572874D01*
X572730Y514845D01*
X572337Y515631D01*
X571863Y516430D01*
X571333Y517193D01*
X570750Y517916D01*
X570118Y518595D01*
X569438Y519228D01*
X568715Y519811D01*
X567952Y520340D01*
X567154Y520814D01*
X566323Y521230D01*
X565465Y521585D01*
X564584Y521878D01*
X563685Y522108D01*
X562771Y522273D01*
X561847Y522372D01*
X560919Y522405D01*
X559991Y522372D01*
X559068Y522273D01*
X558154Y522108D01*
X557254Y521878D01*
X556373Y521585D01*
X555516Y521230D01*
X554685Y520814D01*
X553887Y520340D01*
X553124Y519811D01*
X552401Y519228D01*
X551721Y518595D01*
X551088Y517916D01*
X550506Y517193D01*
X549976Y516430D01*
X549502Y515631D01*
X549087Y514801D01*
X548731Y513943D01*
X548689Y513815D01*
X547350D01*
X547308Y513943D01*
X546952Y514801D01*
X546537Y515631D01*
X546063Y516430D01*
X545533Y517193D01*
X544951Y517916D01*
X544318Y518595D01*
X543638Y519228D01*
X542915Y519811D01*
X542152Y520340D01*
X541354Y520814D01*
X540523Y521230D01*
X539665Y521585D01*
X538784Y521878D01*
X537885Y522108D01*
X536971Y522273D01*
X536048Y522372D01*
X535120Y522405D01*
X534192Y522372D01*
X533268Y522273D01*
X532355Y522108D01*
X531455Y521878D01*
X530574Y521585D01*
X529716Y521230D01*
X528885Y520814D01*
X528087Y520340D01*
X527324Y519811D01*
X526601Y519228D01*
X525921Y518595D01*
X525289Y517916D01*
X524706Y517193D01*
X524176Y516430D01*
X523703Y515631D01*
X523287Y514801D01*
X523102Y514356D01*
X522952Y514304D01*
X521887D01*
X521737Y514356D01*
X521552Y514801D01*
X521137Y515631D01*
X520663Y516430D01*
X520133Y517193D01*
X519551Y517916D01*
X518918Y518595D01*
X518238Y519228D01*
X517515Y519811D01*
X516752Y520340D01*
X515954Y520814D01*
X515123Y521230D01*
X514266Y521585D01*
X513384Y521878D01*
X512485Y522108D01*
X511571Y522273D01*
X510648Y522372D01*
X509720Y522405D01*
X508792Y522372D01*
X507868Y522273D01*
X506954Y522108D01*
X506055Y521878D01*
X505174Y521585D01*
X504316Y521230D01*
X503485Y520814D01*
X502687Y520340D01*
X501924Y519811D01*
X501201Y519228D01*
X500521Y518595D01*
X499889Y517916D01*
X499306Y517193D01*
X498776Y516430D01*
X498302Y515631D01*
X497887Y514801D01*
X497702Y514356D01*
X497552Y514304D01*
X496487D01*
X496337Y514356D01*
X496152Y514801D01*
X495737Y515631D01*
X495263Y516430D01*
X494733Y517193D01*
X494151Y517916D01*
X493518Y518595D01*
X492838Y519228D01*
X492115Y519811D01*
X491352Y520340D01*
X490554Y520814D01*
X489723Y521230D01*
X488866Y521585D01*
X487984Y521878D01*
X487085Y522108D01*
X486171Y522273D01*
X485248Y522372D01*
X484320Y522405D01*
X483392Y522372D01*
X482468Y522273D01*
X481554Y522108D01*
X480655Y521878D01*
X479774Y521585D01*
X478916Y521230D01*
X478085Y520814D01*
X477287Y520340D01*
X476524Y519811D01*
X475801Y519228D01*
X475121Y518595D01*
X474489Y517916D01*
X473906Y517193D01*
X473376Y516430D01*
X472902Y515631D01*
X472487Y514801D01*
X472303Y514356D01*
X472152Y514304D01*
X471087D01*
X470937Y514356D01*
X470752Y514801D01*
X470337Y515631D01*
X469863Y516430D01*
X469333Y517193D01*
X468751Y517916D01*
X468118Y518595D01*
X467438Y519228D01*
X466715Y519811D01*
X465952Y520340D01*
X465154Y520814D01*
X464323Y521230D01*
X463465Y521585D01*
X462584Y521878D01*
X461685Y522108D01*
X460771Y522273D01*
X459848Y522372D01*
X458920Y522405D01*
X457992Y522372D01*
X457068Y522273D01*
X456155Y522108D01*
X455255Y521878D01*
X454374Y521585D01*
X453516Y521230D01*
X452685Y520814D01*
X451887Y520340D01*
X451124Y519811D01*
X450401Y519228D01*
X449721Y518595D01*
X449089Y517916D01*
X448506Y517193D01*
X447976Y516430D01*
X447503Y515631D01*
X447087Y514801D01*
X446731Y513943D01*
X446438Y513062D01*
X446209Y512162D01*
X446044Y511248D01*
X445944Y510325D01*
X445911Y509397D01*
X445944Y508469D01*
X446044Y507546D01*
X446209Y506632D01*
X446438Y505732D01*
X446731Y504851D01*
X447087Y503993D01*
X447503Y503163D01*
X447976Y502364D01*
X448506Y501601D01*
X449089Y500878D01*
X449721Y500199D01*
X450401Y499566D01*
X451124Y498983D01*
X451887Y498454D01*
X452685Y497980D01*
X453516Y497564D01*
X454374Y497209D01*
X454410Y497197D01*
Y434002D01*
X361358Y340950D01*
X259249D01*
X258937Y342182D01*
X259565Y342442D01*
X260160Y342771D01*
X260714Y343164D01*
X261221Y343617D01*
X261673Y344123D01*
X262067Y344677D01*
X262395Y345272D01*
X262655Y345900D01*
X262843Y346553D01*
X262957Y347223D01*
X262995Y347901D01*
X262957Y348580D01*
X262843Y349250D01*
X262655Y349903D01*
X262395Y350530D01*
X262067Y351125D01*
X261673Y351679D01*
X261221Y352186D01*
X260714Y352639D01*
X260160Y353032D01*
X259565Y353361D01*
X258937Y353621D01*
X258284Y353809D01*
X257614Y353923D01*
X256936Y353961D01*
X256257Y353923D01*
X255588Y353809D01*
X254935Y353621D01*
X254307Y353361D01*
X253712Y353032D01*
X253158Y352639D01*
X252651Y352186D01*
X252198Y351679D01*
X251805Y351125D01*
X251476Y350530D01*
X251217Y349903D01*
X251028Y349250D01*
X250914Y348580D01*
X250876Y347901D01*
X250914Y347223D01*
X251028Y346553D01*
X251217Y345900D01*
X251476Y345272D01*
X251805Y344677D01*
X252198Y344123D01*
X252651Y343617D01*
X253158Y343164D01*
X253712Y342771D01*
X254307Y342442D01*
X254935Y342182D01*
X254623Y340950D01*
X252088D01*
X238320Y354718D01*
Y394490D01*
X238281Y395079D01*
X238166Y395657D01*
X237976Y396216D01*
X237715Y396745D01*
X237388Y397235D01*
X236999Y397679D01*
X227149Y407529D01*
X226705Y407918D01*
X226215Y408246D01*
X225686Y408506D01*
X225127Y408696D01*
X224549Y408811D01*
X223960Y408850D01*
X214973D01*
X214718Y409078D01*
X214164Y409471D01*
X213569Y409799D01*
X212941Y410060D01*
X212288Y410248D01*
X211619Y410362D01*
X210940Y410400D01*
X210262Y410362D01*
X209592Y410248D01*
X208939Y410060D01*
X208311Y409799D01*
X207716Y409471D01*
X207162Y409078D01*
X206655Y408625D01*
X206203Y408118D01*
X205809Y407564D01*
X205481Y406969D01*
X205221Y406341D01*
X205033Y405688D01*
X204919Y405019D01*
X204881Y404340D01*
X204919Y403662D01*
X205033Y402992D01*
X205221Y402339D01*
X205481Y401711D01*
X205809Y401116D01*
X206203Y400562D01*
X206655Y400055D01*
X207162Y399603D01*
X207716Y399209D01*
X208311Y398881D01*
X208939Y398621D01*
X209592Y398433D01*
X210262Y398319D01*
X210940Y398281D01*
X211619Y398319D01*
X212288Y398433D01*
X212941Y398621D01*
X213569Y398881D01*
X214164Y399209D01*
X214718Y399603D01*
X214973Y399830D01*
X222092D01*
X229300Y392622D01*
Y352850D01*
X229339Y352262D01*
X229454Y351683D01*
X229644Y351124D01*
X229904Y350595D01*
X230232Y350105D01*
X230621Y349661D01*
X247031Y333251D01*
X247475Y332863D01*
X247965Y332535D01*
X248494Y332274D01*
X249053Y332084D01*
X249631Y331969D01*
X250220Y331931D01*
X361392D01*
X362116Y331111D01*
X362306Y330661D01*
X362236Y330248D01*
X362201Y329631D01*
Y254242D01*
X350102Y242142D01*
X338586D01*
X338101Y242620D01*
X337698Y243412D01*
X337797Y243757D01*
X337911Y244427D01*
X337949Y245105D01*
X337911Y245784D01*
X337797Y246453D01*
X337609Y247106D01*
X337349Y247734D01*
X337021Y248329D01*
X336627Y248883D01*
X336175Y249390D01*
X335668Y249843D01*
X335114Y250236D01*
X334519Y250564D01*
X333891Y250825D01*
X333238Y251013D01*
X332568Y251126D01*
X331890Y251164D01*
X331211Y251126D01*
X330541Y251013D01*
X329888Y250825D01*
X329261Y250564D01*
X328666Y250236D01*
X328112Y249843D01*
X327605Y249390D01*
X327152Y248883D01*
X326759Y248329D01*
X326430Y247734D01*
X326170Y247106D01*
X325982Y246453D01*
X325868Y245784D01*
X325830Y245105D01*
X325868Y244427D01*
X325982Y243757D01*
X326170Y243104D01*
X326430Y242476D01*
X326759Y241881D01*
X327152Y241327D01*
X327605Y240820D01*
X327717Y240721D01*
X327441Y240412D01*
X327048Y239858D01*
X326719Y239263D01*
X326459Y238635D01*
X326271Y237982D01*
X326157Y237312D01*
X326119Y236634D01*
X326157Y235955D01*
X326271Y235285D01*
X326459Y234632D01*
X326719Y234005D01*
X327048Y233410D01*
X327441Y232856D01*
X327893Y232349D01*
X327597Y231532D01*
X327204Y230978D01*
X326875Y230383D01*
X326615Y229755D01*
X326427Y229103D01*
X326313Y228433D01*
X326275Y227754D01*
X326313Y227076D01*
X326427Y226406D01*
X326615Y225753D01*
X326875Y225125D01*
X327204Y224530D01*
X327597Y223976D01*
X328050Y223470D01*
X328556Y223017D01*
X329110Y222624D01*
X329705Y222295D01*
X330333Y222035D01*
X330986Y221847D01*
X331656Y221733D01*
X332334Y221695D01*
X333013Y221733D01*
X333683Y221847D01*
X334336Y222035D01*
X334963Y222295D01*
X335558Y222624D01*
X336112Y223017D01*
X336619Y223470D01*
X337072Y223976D01*
X337465Y224530D01*
X337794Y225125D01*
X338054Y225753D01*
X338242Y226406D01*
X338356Y227076D01*
X338394Y227754D01*
X338356Y228433D01*
X338242Y229103D01*
X338054Y229755D01*
X338013Y229855D01*
X338632Y230980D01*
X338835Y231125D01*
X352384D01*
X353000Y231160D01*
X353610Y231263D01*
X354203Y231434D01*
X354774Y231671D01*
X355315Y231969D01*
X355727Y232262D01*
X356549Y231288D01*
X344478Y219217D01*
X329797D01*
X320265Y228749D01*
Y264618D01*
X331189Y275542D01*
X331578Y275986D01*
X331906Y276476D01*
X332166Y277005D01*
X332356Y277564D01*
X332471Y278142D01*
X332510Y278731D01*
Y286347D01*
X332738Y286602D01*
X333131Y287157D01*
X333459Y287751D01*
X333719Y288379D01*
X333908Y289032D01*
X334021Y289702D01*
X334059Y290380D01*
X334021Y291059D01*
X333908Y291729D01*
X333719Y292382D01*
X333459Y293009D01*
X333131Y293604D01*
X332738Y294158D01*
X332285Y294665D01*
X331778Y295118D01*
X331224Y295511D01*
X330629Y295840D01*
X330001Y296100D01*
X329348Y296288D01*
X328679Y296402D01*
X328000Y296440D01*
X327322Y296402D01*
X326652Y296288D01*
X325999Y296100D01*
X325371Y295840D01*
X324776Y295511D01*
X324222Y295118D01*
X323715Y294665D01*
X323262Y294158D01*
X322869Y293604D01*
X322541Y293009D01*
X322281Y292382D01*
X322250Y292275D01*
X320949Y292348D01*
X320948Y292355D01*
X320760Y293008D01*
X320500Y293635D01*
X320171Y294230D01*
X319778Y294784D01*
X319325Y295291D01*
X318819Y295744D01*
X318264Y296137D01*
X317670Y296466D01*
X317042Y296726D01*
X316389Y296914D01*
X315719Y297027D01*
X315040Y297066D01*
X314362Y297027D01*
X313692Y296914D01*
X313039Y296726D01*
X312411Y296466D01*
X311817Y296137D01*
X311262Y295744D01*
X310756Y295291D01*
X310303Y294784D01*
X309910Y294230D01*
X309581Y293635D01*
X309321Y293008D01*
X309133Y292355D01*
X309019Y291685D01*
X308981Y291006D01*
X309019Y290328D01*
X309133Y289658D01*
X309321Y289005D01*
X309581Y288377D01*
X309910Y287782D01*
X310303Y287228D01*
X310756Y286721D01*
X311262Y286269D01*
X311817Y285875D01*
X312411Y285547D01*
X313039Y285287D01*
X313692Y285099D01*
X314362Y284985D01*
X315040Y284947D01*
X315719Y284985D01*
X316389Y285099D01*
X317042Y285287D01*
X317670Y285547D01*
X318264Y285875D01*
X318819Y286269D01*
X319325Y286721D01*
X319778Y287228D01*
X320171Y287782D01*
X320500Y288377D01*
X320760Y289005D01*
X320791Y289111D01*
X322091Y289038D01*
X322092Y289032D01*
X322281Y288379D01*
X322541Y287751D01*
X322869Y287157D01*
X323262Y286602D01*
X323490Y286347D01*
Y280599D01*
X312567Y269675D01*
X312178Y269232D01*
X311850Y268741D01*
X311589Y268212D01*
X311399Y267654D01*
X311284Y267075D01*
X311246Y266486D01*
Y226881D01*
X311284Y226292D01*
X311399Y225714D01*
X311589Y225155D01*
X311850Y224626D01*
X312178Y224136D01*
X312567Y223692D01*
X324740Y211518D01*
X325184Y211129D01*
X325674Y210802D01*
X326203Y210541D01*
X326762Y210351D01*
X327340Y210236D01*
X327929Y210198D01*
X346346D01*
X346934Y210236D01*
X347513Y210351D01*
X348071Y210541D01*
X348601Y210802D01*
X349091Y211129D01*
X349534Y211518D01*
X381199Y243183D01*
X381588Y243626D01*
X381915Y244117D01*
X382176Y244646D01*
X382366Y245204D01*
X382481Y245783D01*
X382520Y246371D01*
Y326598D01*
X420548Y364626D01*
X427794Y371873D01*
X428097Y371932D01*
X429341Y371624D01*
X429395Y371526D01*
X429788Y370972D01*
X430241Y370465D01*
X430748Y370012D01*
X431302Y369619D01*
X431897Y369290D01*
X432524Y369030D01*
X432977Y368900D01*
X433258Y368344D01*
X433391Y367518D01*
X404691Y338819D01*
X404302Y338375D01*
X403975Y337884D01*
X403714Y337355D01*
X403524Y336797D01*
X403409Y336218D01*
X403370Y335630D01*
Y195508D01*
X377172Y169310D01*
X192997D01*
X161609Y200697D01*
Y407846D01*
X175473Y421710D01*
X175814Y421729D01*
X176484Y421843D01*
X177137Y422031D01*
X177765Y422291D01*
X178360Y422620D01*
X178914Y423013D01*
X179420Y423465D01*
X179873Y423972D01*
X180266Y424526D01*
X180595Y425121D01*
X180855Y425749D01*
X181043Y426402D01*
X181157Y427072D01*
X181195Y427750D01*
X181157Y428429D01*
X181043Y429099D01*
X180855Y429752D01*
X180595Y430379D01*
X180266Y430974D01*
X179873Y431528D01*
X179420Y432035D01*
X178914Y432488D01*
X178360Y432881D01*
X177765Y433210D01*
X177137Y433470D01*
X176484Y433658D01*
X175814Y433772D01*
X175136Y433810D01*
X174457Y433772D01*
X173787Y433658D01*
X173134Y433470D01*
X172507Y433210D01*
X171912Y432881D01*
X171358Y432488D01*
X170851Y432035D01*
X170398Y431528D01*
X170005Y430974D01*
X169676Y430379D01*
X169416Y429752D01*
X169228Y429099D01*
X169114Y428429D01*
X169095Y428087D01*
X153911Y412903D01*
X153522Y412459D01*
X153194Y411969D01*
X152933Y411440D01*
X152744Y410881D01*
X152628Y410303D01*
X152590Y409714D01*
Y198829D01*
X152628Y198241D01*
X152744Y197662D01*
X152933Y197104D01*
X153194Y196575D01*
X153522Y196084D01*
X153911Y195641D01*
X187940Y161611D01*
X188384Y161222D01*
X188874Y160895D01*
X189403Y160634D01*
X189962Y160444D01*
X190540Y160329D01*
X191129Y160290D01*
X306387D01*
X306833Y159441D01*
X306885Y159020D01*
X297417Y149553D01*
X296908Y149342D01*
X296313Y149013D01*
X295759Y148620D01*
X295252Y148167D01*
X294800Y147661D01*
X294407Y147107D01*
X294078Y146512D01*
X293818Y145884D01*
X293630Y145231D01*
X293516Y144561D01*
X293478Y143883D01*
X293516Y143204D01*
X293595Y142739D01*
X293384Y142268D01*
X292646Y141469D01*
X190772D01*
X149709Y182532D01*
Y426198D01*
X160902Y437391D01*
X193575D01*
X205336Y425630D01*
X205547Y425121D01*
X205876Y424526D01*
X206269Y423972D01*
X206722Y423465D01*
X207229Y423013D01*
X207783Y422620D01*
X208377Y422291D01*
X209005Y422031D01*
X209658Y421843D01*
X210328Y421729D01*
X211007Y421691D01*
X211685Y421729D01*
X212355Y421843D01*
X213008Y422031D01*
X213636Y422291D01*
X214230Y422620D01*
X214785Y423013D01*
X215291Y423465D01*
X215744Y423972D01*
X216137Y424526D01*
X216466Y425121D01*
X216726Y425749D01*
X216914Y426402D01*
X217028Y427072D01*
X217066Y427750D01*
X217028Y428429D01*
X216914Y429099D01*
X216726Y429752D01*
X216466Y430379D01*
X216137Y430974D01*
X215744Y431528D01*
X215291Y432035D01*
X214785Y432488D01*
X214230Y432881D01*
X213636Y433210D01*
X213127Y433420D01*
X206071Y440476D01*
X206226Y441164D01*
X206597Y441746D01*
X207033Y441771D01*
X207703Y441884D01*
X208356Y442072D01*
X208984Y442333D01*
X209578Y442661D01*
X210133Y443055D01*
X210639Y443507D01*
X211092Y444014D01*
X211485Y444568D01*
X211814Y445163D01*
X212074Y445791D01*
X212262Y446444D01*
X212376Y447113D01*
X212414Y447792D01*
X212376Y448470D01*
X212262Y449140D01*
X212074Y449793D01*
X211814Y450421D01*
X211485Y451016D01*
X211092Y451570D01*
X210639Y452077D01*
X210133Y452529D01*
X209578Y452923D01*
X208984Y453251D01*
X208356Y453512D01*
X207703Y453700D01*
X207033Y453813D01*
X206355Y453852D01*
X205676Y453813D01*
X205006Y453700D01*
X204353Y453512D01*
X203725Y453251D01*
X203131Y452923D01*
X202577Y452529D01*
X202070Y452077D01*
X201617Y451570D01*
X201224Y451016D01*
X200895Y450421D01*
X200635Y449793D01*
X200447Y449140D01*
X200333Y448470D01*
X200307Y448003D01*
X199852Y447646D01*
X199046Y447381D01*
X198787Y447564D01*
X198247Y447863D01*
X197676Y448100D01*
X197083Y448270D01*
X196474Y448374D01*
X195857Y448409D01*
X158620D01*
X158003Y448374D01*
X157394Y448270D01*
X156801Y448100D01*
X156230Y447863D01*
X155689Y447564D01*
X155185Y447207D01*
X154725Y446795D01*
X140305Y432375D01*
X139893Y431915D01*
X139536Y431411D01*
X139237Y430870D01*
X139001Y430299D01*
X138829Y429706D01*
X138726Y429097D01*
X138691Y428480D01*
Y180250D01*
X138726Y179633D01*
X138829Y179024D01*
X139001Y178431D01*
X139237Y177860D01*
X139536Y177319D01*
X139893Y176815D01*
X140305Y176355D01*
X184595Y132065D01*
X185055Y131653D01*
X185559Y131296D01*
X186100Y130997D01*
X186671Y130760D01*
X187264Y130590D01*
X187873Y130486D01*
X188490Y130451D01*
X234830D01*
X235482Y129181D01*
X235464Y129157D01*
X235136Y128562D01*
X234876Y127934D01*
X234688Y127281D01*
X234574Y126611D01*
X234536Y125933D01*
X234555Y125583D01*
X233609Y124637D01*
X159635D01*
X159110Y124603D01*
X158594Y124500D01*
X158095Y124331D01*
X157623Y124098D01*
X157186Y123806D01*
X156790Y123459D01*
X156443Y123063D01*
X156151Y122625D01*
X155918Y122153D01*
X155749Y121655D01*
X155646Y121139D01*
X155611Y120613D01*
X155646Y120088D01*
X155749Y119572D01*
X155918Y119074D01*
X156151Y118602D01*
X156443Y118164D01*
X156790Y117768D01*
X157186Y117421D01*
X157623Y117129D01*
X158095Y116896D01*
X158594Y116727D01*
X159110Y116624D01*
X159635Y116590D01*
X235276D01*
X235801Y116624D01*
X236317Y116727D01*
X236815Y116896D01*
X237288Y117129D01*
X237725Y117421D01*
X238121Y117768D01*
X240245Y119893D01*
X240595Y119874D01*
X241274Y119912D01*
X241944Y120025D01*
X242596Y120214D01*
X243224Y120474D01*
X243819Y120802D01*
X244373Y121195D01*
X244880Y121648D01*
X245333Y122155D01*
X245726Y122709D01*
X246055Y123304D01*
X246315Y123932D01*
X246503Y124585D01*
X246617Y125255D01*
X246655Y125933D01*
X246617Y126611D01*
X246503Y127281D01*
X246315Y127934D01*
X246055Y128562D01*
X245726Y129157D01*
X245709Y129181D01*
X246360Y130451D01*
X419520D01*
X428481Y121490D01*
Y70622D01*
X426198Y68339D01*
X366684D01*
X366068Y68304D01*
X365459Y68200D01*
X364865Y68029D01*
X364294Y67793D01*
X363754Y67494D01*
X363250Y67137D01*
X362789Y66725D01*
X353424Y57360D01*
X353013Y56900D01*
X352655Y56396D01*
X352356Y55855D01*
X352120Y55285D01*
X351949Y54691D01*
X351846Y54082D01*
X351811Y53465D01*
Y38577D01*
X351085Y38214D01*
X350287Y37740D01*
X349524Y37211D01*
X348801Y36628D01*
X348121Y35995D01*
X347489Y35316D01*
X346906Y34593D01*
X346376Y33830D01*
X345902Y33031D01*
X345487Y32201D01*
X345303Y31756D01*
X345153Y31704D01*
X344087D01*
X343937Y31756D01*
X343752Y32201D01*
X343337Y33031D01*
X342863Y33830D01*
X342333Y34593D01*
X341751Y35316D01*
X341118Y35995D01*
X340438Y36628D01*
X339715Y37211D01*
X338952Y37740D01*
X338154Y38214D01*
X337323Y38630D01*
X336465Y38985D01*
X335584Y39278D01*
X334685Y39508D01*
X333771Y39673D01*
X332848Y39772D01*
X331920Y39805D01*
X330992Y39772D01*
X330068Y39673D01*
X329155Y39508D01*
X328255Y39278D01*
X327374Y38985D01*
X326516Y38630D01*
X325685Y38214D01*
X324887Y37740D01*
X324124Y37211D01*
X323401Y36628D01*
X322721Y35995D01*
X322089Y35316D01*
X321506Y34593D01*
X320976Y33830D01*
X320503Y33031D01*
X320087Y32201D01*
X319902Y31756D01*
X319753Y31704D01*
X318687D01*
X318537Y31756D01*
X318352Y32201D01*
X317937Y33031D01*
X317463Y33830D01*
X316933Y34593D01*
X316351Y35316D01*
X315718Y35995D01*
X315038Y36628D01*
X314315Y37211D01*
X313552Y37740D01*
X312754Y38214D01*
X311923Y38630D01*
X311066Y38985D01*
X310184Y39278D01*
X309285Y39508D01*
X308371Y39673D01*
X307448Y39772D01*
X306520Y39805D01*
X305592Y39772D01*
X304668Y39673D01*
X303755Y39508D01*
X302855Y39278D01*
X301974Y38985D01*
X301116Y38630D01*
X300285Y38214D01*
X299487Y37740D01*
X298724Y37211D01*
X298001Y36628D01*
X297321Y35995D01*
X296689Y35316D01*
X296106Y34593D01*
X295576Y33830D01*
X295103Y33031D01*
X294687Y32201D01*
X294503Y31756D01*
X294352Y31704D01*
X293287D01*
X293137Y31756D01*
X292952Y32201D01*
X292537Y33031D01*
X292063Y33830D01*
X291533Y34593D01*
X290951Y35316D01*
X290318Y35995D01*
X289638Y36628D01*
X288915Y37211D01*
X288152Y37740D01*
X287354Y38214D01*
X286523Y38630D01*
X285665Y38985D01*
X284784Y39278D01*
X283885Y39508D01*
X282971Y39673D01*
X282048Y39772D01*
X281120Y39805D01*
X280192Y39772D01*
X279268Y39673D01*
X278354Y39508D01*
X277455Y39278D01*
X276574Y38985D01*
X275716Y38630D01*
X274885Y38214D01*
X274087Y37740D01*
X273324Y37211D01*
X272601Y36628D01*
X271921Y35995D01*
X271289Y35316D01*
X270706Y34593D01*
X270176Y33830D01*
X269702Y33031D01*
X269287Y32201D01*
X268932Y31343D01*
X268638Y30462D01*
X268409Y29562D01*
X268244Y28648D01*
X268144Y27725D01*
X268111Y26797D01*
X268144Y25869D01*
X268244Y24946D01*
X268409Y24032D01*
X268638Y23132D01*
X268932Y22251D01*
X269287Y21393D01*
X269702Y20563D01*
X270176Y19764D01*
X270706Y19001D01*
X271289Y18278D01*
X271921Y17599D01*
X272601Y16966D01*
X273324Y16383D01*
X274087Y15854D01*
X274885Y15380D01*
X275716Y14964D01*
X276574Y14609D01*
X277455Y14316D01*
X278354Y14086D01*
X279268Y13921D01*
X280192Y13822D01*
X281120Y13789D01*
X282048Y13822D01*
X282971Y13921D01*
X283885Y14086D01*
X284784Y14316D01*
X285665Y14609D01*
X286523Y14964D01*
X287354Y15380D01*
X288152Y15854D01*
X288915Y16383D01*
X289638Y16966D01*
X290318Y17599D01*
X290951Y18278D01*
X291533Y19001D01*
X292063Y19764D01*
X292537Y20563D01*
X292952Y21393D01*
X293137Y21838D01*
X293287Y21890D01*
X294352D01*
X294503Y21838D01*
X294687Y21393D01*
X295103Y20563D01*
X295576Y19764D01*
X296106Y19001D01*
X296689Y18278D01*
X297321Y17599D01*
X298001Y16966D01*
X298724Y16383D01*
X299487Y15854D01*
X300285Y15380D01*
X301116Y14964D01*
X301974Y14609D01*
X302855Y14316D01*
X303755Y14086D01*
X304668Y13921D01*
X305592Y13822D01*
X306520Y13789D01*
X307448Y13822D01*
X308371Y13921D01*
X309285Y14086D01*
X310184Y14316D01*
X311066Y14609D01*
X311923Y14964D01*
X312754Y15380D01*
X313552Y15854D01*
X314315Y16383D01*
X315038Y16966D01*
X315718Y17599D01*
X316351Y18278D01*
X316933Y19001D01*
X317463Y19764D01*
X317937Y20563D01*
X318352Y21393D01*
X318537Y21838D01*
X318687Y21890D01*
X319753D01*
X319902Y21838D01*
X320087Y21393D01*
X320503Y20563D01*
X320976Y19764D01*
X321506Y19001D01*
X322089Y18278D01*
X322721Y17599D01*
X323401Y16966D01*
X324124Y16383D01*
X324887Y15854D01*
X325685Y15380D01*
X326516Y14964D01*
X327374Y14609D01*
X328255Y14316D01*
X329155Y14086D01*
X330068Y13921D01*
X330992Y13822D01*
X331920Y13789D01*
X332848Y13822D01*
X333771Y13921D01*
X334685Y14086D01*
X335584Y14316D01*
X336465Y14609D01*
X337323Y14964D01*
X338154Y15380D01*
X338952Y15854D01*
X339715Y16383D01*
X340438Y16966D01*
X341118Y17599D01*
X341751Y18278D01*
X342333Y19001D01*
X342863Y19764D01*
X343337Y20563D01*
X343752Y21393D01*
X343937Y21838D01*
X344087Y21890D01*
X345153D01*
X345303Y21838D01*
X345487Y21393D01*
X345902Y20563D01*
X346376Y19764D01*
X346906Y19001D01*
X347489Y18278D01*
X348121Y17599D01*
X348801Y16966D01*
X349524Y16383D01*
X350287Y15854D01*
X351085Y15380D01*
X351916Y14964D01*
X352774Y14609D01*
X353655Y14316D01*
X354554Y14086D01*
X355468Y13921D01*
X356392Y13822D01*
X357320Y13789D01*
X358248Y13822D01*
X359171Y13921D01*
X360085Y14086D01*
X360984Y14316D01*
X361866Y14609D01*
X362723Y14964D01*
X363554Y15380D01*
X364352Y15854D01*
X365115Y16383D01*
X365838Y16966D01*
X366518Y17599D01*
X367151Y18278D01*
X367733Y19001D01*
X368263Y19764D01*
X368737Y20563D01*
X369152Y21393D01*
X369508Y22251D01*
X369550Y22379D01*
X370889D01*
X370931Y22251D01*
X371287Y21393D01*
X371702Y20563D01*
X372176Y19764D01*
X372706Y19001D01*
X373288Y18278D01*
X373921Y17599D01*
X374601Y16966D01*
X375324Y16383D01*
X376087Y15854D01*
X376885Y15380D01*
X377716Y14964D01*
X378573Y14609D01*
X379454Y14316D01*
X380354Y14086D01*
X381268Y13921D01*
X382191Y13822D01*
X383119Y13789D01*
X384047Y13822D01*
X384971Y13921D01*
X385885Y14086D01*
X386784Y14316D01*
X387665Y14609D01*
X388523Y14964D01*
X389354Y15380D01*
X390152Y15854D01*
X390915Y16383D01*
X391638Y16966D01*
X392318Y17599D01*
X392950Y18278D01*
X393533Y19001D01*
X394063Y19764D01*
X394537Y20563D01*
X394930Y21349D01*
X395075Y21393D01*
X396165D01*
X396309Y21349D01*
X396702Y20563D01*
X397176Y19764D01*
X397706Y19001D01*
X398289Y18278D01*
X398921Y17599D01*
X399601Y16966D01*
X400324Y16383D01*
X401087Y15854D01*
X401885Y15380D01*
X402716Y14964D01*
X403574Y14609D01*
X404455Y14316D01*
X405354Y14086D01*
X406268Y13921D01*
X407192Y13822D01*
X408120Y13789D01*
X409048Y13822D01*
X409971Y13921D01*
X410885Y14086D01*
X411784Y14316D01*
X412665Y14609D01*
X413523Y14964D01*
X414354Y15380D01*
X415152Y15854D01*
X415915Y16383D01*
X416638Y16966D01*
X417318Y17599D01*
X417951Y18278D01*
X418533Y19001D01*
X419063Y19764D01*
X419537Y20563D01*
X419711Y20912D01*
X419854Y20970D01*
X420985D01*
X421128Y20912D01*
X421302Y20563D01*
X421776Y19764D01*
X422306Y19001D01*
X422888Y18278D01*
X423521Y17599D01*
X424201Y16966D01*
X424924Y16383D01*
X425687Y15854D01*
X426485Y15380D01*
X427316Y14964D01*
X428173Y14609D01*
X429055Y14316D01*
X429954Y14086D01*
X430868Y13921D01*
X431791Y13822D01*
X432719Y13789D01*
X433647Y13822D01*
X434571Y13921D01*
X435485Y14086D01*
X436384Y14316D01*
X437265Y14609D01*
X438123Y14964D01*
X438954Y15380D01*
X439752Y15854D01*
X440515Y16383D01*
X441238Y16966D01*
X441918Y17599D01*
X442551Y18278D01*
X443133Y19001D01*
X443663Y19764D01*
X443849Y20079D01*
X445120Y19730D01*
Y13797D01*
X471119D01*
Y39797D01*
X445120D01*
Y33863D01*
X443849Y33515D01*
X443663Y33830D01*
X443133Y34593D01*
X442551Y35316D01*
X441918Y35995D01*
X441238Y36628D01*
X440515Y37211D01*
X439752Y37740D01*
X438954Y38214D01*
X438123Y38630D01*
X437265Y38985D01*
X436384Y39278D01*
X435485Y39508D01*
X434571Y39673D01*
X433647Y39772D01*
X432719Y39805D01*
X431791Y39772D01*
X430868Y39673D01*
X429954Y39508D01*
X429055Y39278D01*
X428173Y38985D01*
X427316Y38630D01*
X426485Y38214D01*
X425687Y37740D01*
X424924Y37211D01*
X424201Y36628D01*
X423521Y35995D01*
X422888Y35316D01*
X422306Y34593D01*
X421776Y33830D01*
X421302Y33031D01*
X421128Y32682D01*
X420985Y32624D01*
X419854D01*
X419711Y32682D01*
X419537Y33031D01*
X419063Y33830D01*
X418533Y34593D01*
X417951Y35316D01*
X417318Y35995D01*
X416638Y36628D01*
X415915Y37211D01*
X415152Y37740D01*
X414354Y38214D01*
X413523Y38630D01*
X412665Y38985D01*
X411784Y39278D01*
X410885Y39508D01*
X409971Y39673D01*
X409048Y39772D01*
X408120Y39805D01*
X407192Y39772D01*
X406268Y39673D01*
X405354Y39508D01*
X404455Y39278D01*
X403574Y38985D01*
X402716Y38630D01*
X401885Y38214D01*
X401087Y37740D01*
X400324Y37211D01*
X399601Y36628D01*
X398921Y35995D01*
X398289Y35316D01*
X397706Y34593D01*
X397176Y33830D01*
X396702Y33031D01*
X396309Y32245D01*
X396165Y32201D01*
X395075D01*
X394930Y32245D01*
X394537Y33031D01*
X394063Y33830D01*
X393533Y34593D01*
X392950Y35316D01*
X392318Y35995D01*
X391638Y36628D01*
X390915Y37211D01*
X390152Y37740D01*
X389354Y38214D01*
X388523Y38630D01*
X387665Y38985D01*
X386784Y39278D01*
X385885Y39508D01*
X384971Y39673D01*
X384047Y39772D01*
X383119Y39805D01*
X382191Y39772D01*
X381268Y39673D01*
X380354Y39508D01*
X379454Y39278D01*
X378573Y38985D01*
X377716Y38630D01*
X376885Y38214D01*
X376087Y37740D01*
X375324Y37211D01*
X374601Y36628D01*
X373921Y35995D01*
X373288Y35316D01*
X372706Y34593D01*
X372176Y33830D01*
X371702Y33031D01*
X371287Y32201D01*
X370931Y31343D01*
X370889Y31215D01*
X369550D01*
X369508Y31343D01*
X369152Y32201D01*
X368737Y33031D01*
X368263Y33830D01*
X367733Y34593D01*
X367151Y35316D01*
X366518Y35995D01*
X365838Y36628D01*
X365115Y37211D01*
X364352Y37740D01*
X363554Y38214D01*
X362828Y38577D01*
Y51184D01*
X368966Y57321D01*
X428480D01*
X429097Y57356D01*
X429706Y57460D01*
X430299Y57631D01*
X430870Y57867D01*
X431411Y58166D01*
X431915Y58523D01*
X432375Y58935D01*
X437885Y64445D01*
X438297Y64906D01*
X438654Y65409D01*
X438953Y65950D01*
X439190Y66521D01*
X439361Y67114D01*
X439464Y67723D01*
X439499Y68340D01*
Y96700D01*
X440218Y97319D01*
X440769Y97573D01*
X441230Y97440D01*
X441900Y97326D01*
X442579Y97288D01*
X443257Y97326D01*
X443927Y97440D01*
X444361Y97565D01*
X444974Y97276D01*
X445631Y96689D01*
Y80340D01*
X445666Y79723D01*
X445770Y79114D01*
X445941Y78521D01*
X446177Y77950D01*
X446476Y77409D01*
X446833Y76905D01*
X447245Y76445D01*
X471397Y52293D01*
X471858Y51881D01*
X472361Y51523D01*
X472902Y51225D01*
X473473Y50988D01*
X474067Y50817D01*
X474675Y50714D01*
X475292Y50679D01*
X590659D01*
X602640Y38698D01*
X602692Y37768D01*
X602506Y37035D01*
X602001Y36628D01*
X601321Y35995D01*
X600689Y35316D01*
X600106Y34593D01*
X599576Y33830D01*
X599102Y33031D01*
X598928Y32682D01*
X598785Y32624D01*
X597654D01*
X597511Y32682D01*
X597337Y33031D01*
X596863Y33830D01*
X596333Y34593D01*
X595751Y35316D01*
X595118Y35995D01*
X594438Y36628D01*
X593715Y37211D01*
X592952Y37740D01*
X592154Y38214D01*
X591323Y38630D01*
X590466Y38985D01*
X589584Y39278D01*
X588685Y39508D01*
X587771Y39673D01*
X586848Y39772D01*
X585920Y39805D01*
X584992Y39772D01*
X584068Y39673D01*
X583154Y39508D01*
X582255Y39278D01*
X581374Y38985D01*
X580516Y38630D01*
X579685Y38214D01*
X578887Y37740D01*
X578124Y37211D01*
X577401Y36628D01*
X576721Y35995D01*
X576089Y35316D01*
X575506Y34593D01*
X574976Y33830D01*
X574502Y33031D01*
X574109Y32245D01*
X573965Y32201D01*
X572874D01*
X572730Y32245D01*
X572337Y33031D01*
X571863Y33830D01*
X571333Y34593D01*
X570750Y35316D01*
X570118Y35995D01*
X569438Y36628D01*
X568715Y37211D01*
X567952Y37740D01*
X567154Y38214D01*
X566323Y38630D01*
X565465Y38985D01*
X564584Y39278D01*
X563685Y39508D01*
X562771Y39673D01*
X561847Y39772D01*
X560919Y39805D01*
X559991Y39772D01*
X559068Y39673D01*
X558154Y39508D01*
X557254Y39278D01*
X556373Y38985D01*
X555516Y38630D01*
X554685Y38214D01*
X553887Y37740D01*
X553124Y37211D01*
X552401Y36628D01*
X551721Y35995D01*
X551088Y35316D01*
X550506Y34593D01*
X549976Y33830D01*
X549502Y33031D01*
X549087Y32201D01*
X548731Y31343D01*
X548689Y31215D01*
X547350D01*
X547308Y31343D01*
X546952Y32201D01*
X546537Y33031D01*
X546063Y33830D01*
X545533Y34593D01*
X544951Y35316D01*
X544318Y35995D01*
X543638Y36628D01*
X542915Y37211D01*
X542152Y37740D01*
X541354Y38214D01*
X540523Y38630D01*
X539665Y38985D01*
X538784Y39278D01*
X537885Y39508D01*
X536971Y39673D01*
X536048Y39772D01*
X535120Y39805D01*
X534192Y39772D01*
X533268Y39673D01*
X532355Y39508D01*
X531455Y39278D01*
X530574Y38985D01*
X529716Y38630D01*
X528885Y38214D01*
X528087Y37740D01*
X527324Y37211D01*
X526601Y36628D01*
X525921Y35995D01*
X525289Y35316D01*
X524706Y34593D01*
X524176Y33830D01*
X523703Y33031D01*
X523287Y32201D01*
X523102Y31756D01*
X522952Y31704D01*
X521887D01*
X521737Y31756D01*
X521552Y32201D01*
X521137Y33031D01*
X520663Y33830D01*
X520133Y34593D01*
X519551Y35316D01*
X518918Y35995D01*
X518238Y36628D01*
X517515Y37211D01*
X516752Y37740D01*
X515954Y38214D01*
X515123Y38630D01*
X514266Y38985D01*
X513384Y39278D01*
X512485Y39508D01*
X511571Y39673D01*
X510648Y39772D01*
X509720Y39805D01*
X508792Y39772D01*
X507868Y39673D01*
X506954Y39508D01*
X506055Y39278D01*
X505174Y38985D01*
X504316Y38630D01*
X503485Y38214D01*
X502687Y37740D01*
X501924Y37211D01*
X501201Y36628D01*
X500521Y35995D01*
X499889Y35316D01*
X499306Y34593D01*
X498776Y33830D01*
X498302Y33031D01*
X497887Y32201D01*
X497532Y31343D01*
X497238Y30462D01*
X497009Y29562D01*
X496844Y28648D01*
X496744Y27725D01*
X496711Y26797D01*
X496744Y25869D01*
X496844Y24946D01*
X497009Y24032D01*
X497238Y23132D01*
X497532Y22251D01*
X497887Y21393D01*
X498302Y20563D01*
X498776Y19764D01*
X499306Y19001D01*
X499889Y18278D01*
X500521Y17599D01*
X501201Y16966D01*
X501924Y16383D01*
X502687Y15854D01*
X503485Y15380D01*
X504316Y14964D01*
X505174Y14609D01*
X506055Y14316D01*
X506954Y14086D01*
X507868Y13921D01*
X508792Y13822D01*
X509720Y13789D01*
X510648Y13822D01*
X511571Y13921D01*
X512485Y14086D01*
X513384Y14316D01*
X514266Y14609D01*
X515123Y14964D01*
X515954Y15380D01*
X516752Y15854D01*
X517515Y16383D01*
X518238Y16966D01*
X518918Y17599D01*
X519551Y18278D01*
X520133Y19001D01*
X520663Y19764D01*
X521137Y20563D01*
X521552Y21393D01*
X521737Y21838D01*
X521887Y21890D01*
X522952D01*
X523102Y21838D01*
X523287Y21393D01*
X523703Y20563D01*
X524176Y19764D01*
X524706Y19001D01*
X525289Y18278D01*
X525921Y17599D01*
X526601Y16966D01*
X527324Y16383D01*
X528087Y15854D01*
X528885Y15380D01*
X529716Y14964D01*
X530574Y14609D01*
X531455Y14316D01*
X532355Y14086D01*
X533268Y13921D01*
X534192Y13822D01*
X535120Y13789D01*
X536048Y13822D01*
X536971Y13921D01*
X537885Y14086D01*
X538784Y14316D01*
X539665Y14609D01*
X540523Y14964D01*
X541354Y15380D01*
X542152Y15854D01*
X542915Y16383D01*
X543638Y16966D01*
X544318Y17599D01*
X544951Y18278D01*
X545533Y19001D01*
X546063Y19764D01*
X546537Y20563D01*
X546952Y21393D01*
X547308Y22251D01*
X547350Y22379D01*
X548689D01*
X548731Y22251D01*
X549087Y21393D01*
X549502Y20563D01*
X549976Y19764D01*
X550506Y19001D01*
X551088Y18278D01*
X551721Y17599D01*
X552401Y16966D01*
X553124Y16383D01*
X553887Y15854D01*
X554685Y15380D01*
X555516Y14964D01*
X556373Y14609D01*
X557254Y14316D01*
X558154Y14086D01*
X559068Y13921D01*
X559991Y13822D01*
X560919Y13789D01*
X561847Y13822D01*
X562771Y13921D01*
X563685Y14086D01*
X564584Y14316D01*
X565465Y14609D01*
X566323Y14964D01*
X567154Y15380D01*
X567952Y15854D01*
X568715Y16383D01*
X569438Y16966D01*
X570118Y17599D01*
X570750Y18278D01*
X571333Y19001D01*
X571863Y19764D01*
X572337Y20563D01*
X572730Y21349D01*
X572874Y21393D01*
X573965D01*
X574109Y21349D01*
X574502Y20563D01*
X574976Y19764D01*
X575506Y19001D01*
X576089Y18278D01*
X576721Y17599D01*
X577401Y16966D01*
X578124Y16383D01*
X578887Y15854D01*
X579685Y15380D01*
X580516Y14964D01*
X581374Y14609D01*
X582255Y14316D01*
X583154Y14086D01*
X584068Y13921D01*
X584992Y13822D01*
X585920Y13789D01*
X586848Y13822D01*
X587771Y13921D01*
X588685Y14086D01*
X589584Y14316D01*
X590466Y14609D01*
X591323Y14964D01*
X592154Y15380D01*
X592952Y15854D01*
X593715Y16383D01*
X594438Y16966D01*
X595118Y17599D01*
X595751Y18278D01*
X596333Y19001D01*
X596863Y19764D01*
X597337Y20563D01*
X597511Y20912D01*
X597654Y20970D01*
X598785D01*
X598928Y20912D01*
X599102Y20563D01*
X599576Y19764D01*
X600106Y19001D01*
X600689Y18278D01*
X601321Y17599D01*
X602001Y16966D01*
X602724Y16383D01*
X603487Y15854D01*
X604285Y15380D01*
X605116Y14964D01*
X605974Y14609D01*
X606855Y14316D01*
X607754Y14086D01*
X608668Y13921D01*
X609591Y13822D01*
X610519Y13789D01*
X611447Y13822D01*
X612371Y13921D01*
X613285Y14086D01*
X614184Y14316D01*
X615065Y14609D01*
X615923Y14964D01*
X616754Y15380D01*
X617552Y15854D01*
X618315Y16383D01*
X619038Y16966D01*
X619718Y17599D01*
X620350Y18278D01*
X620933Y19001D01*
X621463Y19764D01*
X621650Y20079D01*
X622920Y19730D01*
Y13797D01*
X648920D01*
Y39797D01*
X622920D01*
Y33863D01*
X621650Y33515D01*
X621463Y33830D01*
X620933Y34593D01*
X620350Y35316D01*
X619718Y35995D01*
X619038Y36628D01*
X618315Y37211D01*
X617552Y37740D01*
X616754Y38214D01*
X616028Y38577D01*
Y38609D01*
X615993Y39225D01*
X615890Y39834D01*
X615719Y40428D01*
X615483Y40999D01*
X615184Y41539D01*
X614826Y42043D01*
X614415Y42504D01*
X596836Y60083D01*
X596375Y60495D01*
X595871Y60852D01*
X595330Y61151D01*
X594760Y61387D01*
X594166Y61558D01*
X593557Y61662D01*
X592940Y61696D01*
X477574D01*
X456649Y82622D01*
Y132505D01*
X456614Y133122D01*
X456511Y133731D01*
X456339Y134325D01*
X456103Y134895D01*
X455804Y135436D01*
X455447Y135940D01*
X455035Y136400D01*
X432305Y159131D01*
X431844Y159543D01*
X431340Y159900D01*
X430799Y160199D01*
X430229Y160435D01*
X429635Y160606D01*
X429026Y160710D01*
X428409Y160745D01*
X383158D01*
X382632Y162015D01*
X411069Y190451D01*
X411458Y190895D01*
X411786Y191385D01*
X412046Y191914D01*
X412236Y192473D01*
X412351Y193051D01*
X412390Y193640D01*
Y240976D01*
X413660Y241502D01*
X426848Y228314D01*
X427291Y227925D01*
X427782Y227597D01*
X428311Y227336D01*
X428869Y227147D01*
X429448Y227032D01*
X430037Y226993D01*
X516869D01*
X517124Y226765D01*
X517678Y226372D01*
X518273Y226043D01*
X518901Y225783D01*
X519554Y225595D01*
X520224Y225481D01*
X520902Y225443D01*
X521581Y225481D01*
X522251Y225595D01*
X522904Y225783D01*
X523531Y226043D01*
X524126Y226372D01*
X524680Y226765D01*
X525187Y227218D01*
X525640Y227725D01*
X526033Y228279D01*
X526362Y228874D01*
X526622Y229501D01*
X526810Y230154D01*
X526924Y230824D01*
X526962Y231503D01*
X526924Y232181D01*
X526810Y232851D01*
X526622Y233504D01*
X526362Y234132D01*
X526033Y234727D01*
X525640Y235281D01*
X525187Y235787D01*
X524680Y236240D01*
X524126Y236633D01*
X523531Y236962D01*
X522904Y237222D01*
X522251Y237410D01*
X521581Y237524D01*
X520902Y237562D01*
X520224Y237524D01*
X519554Y237410D01*
X518901Y237222D01*
X518273Y236962D01*
X517678Y236633D01*
X517124Y236240D01*
X516869Y236012D01*
X431904D01*
X420733Y247184D01*
Y330776D01*
X437274Y347317D01*
X543507D01*
X544095Y347356D01*
X544674Y347471D01*
X545233Y347660D01*
X545762Y347921D01*
X546252Y348249D01*
X546696Y348638D01*
X639108Y441051D01*
X639497Y441494D01*
X639825Y441985D01*
X640086Y442514D01*
X640275Y443072D01*
X640390Y443651D01*
X640429Y444239D01*
Y496397D01*
X648920D01*
Y522397D01*
X622920D01*
Y516464D01*
X621650Y516115D01*
X621463Y516430D01*
X620933Y517193D01*
X620350Y517916D01*
X619718Y518595D01*
X619038Y519228D01*
X618315Y519811D01*
X617552Y520340D01*
X616754Y520814D01*
X615923Y521230D01*
X615065Y521585D01*
X614184Y521878D01*
X613285Y522108D01*
X612371Y522273D01*
X611447Y522372D01*
X610519Y522405D01*
D02*
G37*
G36*
X206000Y486040D02*
X205322Y486001D01*
X204652Y485888D01*
X203999Y485700D01*
X203371Y485439D01*
X202776Y485111D01*
X202222Y484717D01*
X201715Y484265D01*
X201262Y483758D01*
X200869Y483204D01*
X200541Y482609D01*
X200280Y481981D01*
X200092Y481328D01*
X199979Y480658D01*
X199940Y479980D01*
X199979Y479301D01*
X200092Y478632D01*
X200280Y477979D01*
X200541Y477351D01*
X200869Y476756D01*
X201262Y476202D01*
X201715Y475695D01*
X202222Y475243D01*
X202776Y474849D01*
X203371Y474521D01*
X203999Y474260D01*
X204652Y474072D01*
X205322Y473959D01*
X206000Y473921D01*
X206679Y473959D01*
X207348Y474072D01*
X208001Y474260D01*
X208629Y474521D01*
X209224Y474849D01*
X209778Y475243D01*
X210285Y475695D01*
X210737Y476202D01*
X211131Y476756D01*
X211459Y477351D01*
X211719Y477979D01*
X211908Y478632D01*
X212021Y479301D01*
X212059Y479980D01*
X212021Y480658D01*
X211908Y481328D01*
X211719Y481981D01*
X211459Y482609D01*
X211131Y483204D01*
X210737Y483758D01*
X210285Y484265D01*
X209778Y484717D01*
X209224Y485111D01*
X208629Y485439D01*
X208001Y485700D01*
X207348Y485888D01*
X206679Y486001D01*
X206000Y486040D01*
D02*
G37*
G36*
X419655Y477839D02*
X418977Y477801D01*
X418307Y477687D01*
X417654Y477499D01*
X417026Y477239D01*
X416431Y476910D01*
X415877Y476517D01*
X415370Y476064D01*
X414918Y475558D01*
X414524Y475003D01*
X414196Y474409D01*
X413936Y473781D01*
X413748Y473128D01*
X413634Y472458D01*
X413596Y471780D01*
X413634Y471101D01*
X413748Y470431D01*
X413936Y469778D01*
X414196Y469150D01*
X414524Y468556D01*
X414918Y468002D01*
X415370Y467495D01*
X415877Y467042D01*
X416431Y466649D01*
X417026Y466320D01*
X417654Y466060D01*
X418307Y465872D01*
X418977Y465758D01*
X419655Y465720D01*
X420334Y465758D01*
X421003Y465872D01*
X421656Y466060D01*
X422284Y466320D01*
X422879Y466649D01*
X423433Y467042D01*
X423940Y467495D01*
X424393Y468002D01*
X424786Y468556D01*
X425115Y469150D01*
X425375Y469778D01*
X425563Y470431D01*
X425677Y471101D01*
X425715Y471780D01*
X425677Y472458D01*
X425563Y473128D01*
X425375Y473781D01*
X425115Y474409D01*
X424786Y475003D01*
X424393Y475558D01*
X423940Y476064D01*
X423433Y476517D01*
X422879Y476910D01*
X422284Y477239D01*
X421656Y477499D01*
X421003Y477687D01*
X420334Y477801D01*
X419655Y477839D01*
D02*
G37*
G36*
X333960Y462060D02*
X333282Y462021D01*
X332612Y461908D01*
X331959Y461720D01*
X331331Y461460D01*
X330737Y461131D01*
X330182Y460738D01*
X329676Y460285D01*
X329223Y459778D01*
X328830Y459224D01*
X328501Y458629D01*
X328241Y458001D01*
X328053Y457349D01*
X327939Y456679D01*
X327901Y456000D01*
X327939Y455322D01*
X328053Y454652D01*
X328241Y453999D01*
X328501Y453371D01*
X328830Y452776D01*
X329223Y452222D01*
X329676Y451715D01*
X330182Y451263D01*
X330737Y450869D01*
X331331Y450541D01*
X331959Y450281D01*
X332612Y450093D01*
X333282Y449979D01*
X333960Y449941D01*
X334639Y449979D01*
X335309Y450093D01*
X335962Y450281D01*
X336590Y450541D01*
X337184Y450869D01*
X337738Y451263D01*
X338245Y451715D01*
X338698Y452222D01*
X339091Y452776D01*
X339420Y453371D01*
X339680Y453999D01*
X339868Y454652D01*
X339982Y455322D01*
X340020Y456000D01*
X339982Y456679D01*
X339868Y457349D01*
X339680Y458001D01*
X339420Y458629D01*
X339091Y459224D01*
X338698Y459778D01*
X338245Y460285D01*
X337738Y460738D01*
X337184Y461131D01*
X336590Y461460D01*
X335962Y461720D01*
X335309Y461908D01*
X334639Y462021D01*
X333960Y462060D01*
D02*
G37*
G36*
X284554Y400400D02*
X283875Y400362D01*
X283205Y400248D01*
X282552Y400060D01*
X281924Y399799D01*
X281330Y399471D01*
X280775Y399078D01*
X280269Y398625D01*
X279816Y398118D01*
X279423Y397564D01*
X279094Y396969D01*
X278834Y396341D01*
X278646Y395688D01*
X278532Y395019D01*
X278494Y394340D01*
X278532Y393662D01*
X278646Y392992D01*
X278834Y392339D01*
X279094Y391711D01*
X279423Y391116D01*
X279816Y390562D01*
X280269Y390055D01*
X280775Y389603D01*
X281330Y389209D01*
X281924Y388881D01*
X282552Y388621D01*
X283205Y388433D01*
X283875Y388319D01*
X284554Y388281D01*
X285232Y388319D01*
X285902Y388433D01*
X286555Y388621D01*
X287183Y388881D01*
X287777Y389209D01*
X288332Y389603D01*
X288838Y390055D01*
X289291Y390562D01*
X289684Y391116D01*
X290013Y391711D01*
X290273Y392339D01*
X290461Y392992D01*
X290575Y393662D01*
X290613Y394340D01*
X290575Y395019D01*
X290461Y395688D01*
X290273Y396341D01*
X290013Y396969D01*
X289684Y397564D01*
X289291Y398118D01*
X288838Y398625D01*
X288332Y399078D01*
X287777Y399471D01*
X287183Y399799D01*
X286555Y400060D01*
X285902Y400248D01*
X285232Y400362D01*
X284554Y400400D01*
D02*
G37*
G36*
X175971Y397060D02*
X175293Y397021D01*
X174623Y396908D01*
X173970Y396720D01*
X173342Y396459D01*
X172747Y396131D01*
X172193Y395737D01*
X171687Y395285D01*
X171234Y394778D01*
X170841Y394224D01*
X170512Y393629D01*
X170252Y393001D01*
X170064Y392348D01*
X169950Y391678D01*
X169912Y391000D01*
X169950Y390322D01*
X170064Y389652D01*
X170252Y388999D01*
X170512Y388371D01*
X170841Y387776D01*
X171234Y387222D01*
X171687Y386715D01*
X172193Y386263D01*
X172747Y385869D01*
X173342Y385541D01*
X173970Y385280D01*
X174623Y385092D01*
X175293Y384979D01*
X175971Y384940D01*
X176650Y384979D01*
X177320Y385092D01*
X177973Y385280D01*
X178601Y385541D01*
X179195Y385869D01*
X179749Y386263D01*
X180256Y386715D01*
X180709Y387222D01*
X181102Y387776D01*
X181431Y388371D01*
X181691Y388999D01*
X181879Y389652D01*
X181993Y390322D01*
X182031Y391000D01*
X181993Y391678D01*
X181879Y392348D01*
X181691Y393001D01*
X181431Y393629D01*
X181102Y394224D01*
X180709Y394778D01*
X180256Y395285D01*
X179749Y395737D01*
X179195Y396131D01*
X178601Y396459D01*
X177973Y396720D01*
X177320Y396908D01*
X176650Y397021D01*
X175971Y397060D01*
D02*
G37*
G36*
X217284Y397000D02*
X216606Y396961D01*
X215936Y396848D01*
X215283Y396660D01*
X214655Y396399D01*
X214060Y396071D01*
X213506Y395677D01*
X213000Y395225D01*
X212547Y394718D01*
X212154Y394164D01*
X211825Y393569D01*
X211565Y392941D01*
X211377Y392288D01*
X211263Y391618D01*
X211225Y390940D01*
X211263Y390261D01*
X211377Y389592D01*
X211565Y388939D01*
X211825Y388311D01*
X212154Y387716D01*
X212547Y387162D01*
X213000Y386655D01*
X213506Y386203D01*
X214060Y385809D01*
X214655Y385481D01*
X215283Y385220D01*
X215936Y385032D01*
X216606Y384919D01*
X217284Y384880D01*
X217963Y384919D01*
X218633Y385032D01*
X219286Y385220D01*
X219914Y385481D01*
X220508Y385809D01*
X221062Y386203D01*
X221569Y386655D01*
X222022Y387162D01*
X222415Y387716D01*
X222744Y388311D01*
X223004Y388939D01*
X223192Y389592D01*
X223306Y390261D01*
X223344Y390940D01*
X223306Y391618D01*
X223192Y392288D01*
X223004Y392941D01*
X222744Y393569D01*
X222415Y394164D01*
X222022Y394718D01*
X221569Y395225D01*
X221062Y395677D01*
X220508Y396071D01*
X219914Y396399D01*
X219286Y396660D01*
X218633Y396848D01*
X217963Y396961D01*
X217284Y397000D01*
D02*
G37*
G36*
X258803Y369059D02*
X258125Y369021D01*
X257455Y368908D01*
X256802Y368719D01*
X256174Y368459D01*
X255579Y368131D01*
X255025Y367737D01*
X254518Y367285D01*
X254066Y366778D01*
X253672Y366224D01*
X253344Y365629D01*
X253084Y365001D01*
X252896Y364348D01*
X252782Y363678D01*
X252744Y363000D01*
X252782Y362322D01*
X252896Y361652D01*
X253084Y360999D01*
X253344Y360371D01*
X253672Y359776D01*
X254066Y359222D01*
X254518Y358715D01*
X255025Y358262D01*
X255579Y357869D01*
X256174Y357541D01*
X256802Y357281D01*
X257455Y357092D01*
X258125Y356978D01*
X258803Y356940D01*
X259482Y356978D01*
X260151Y357092D01*
X260804Y357281D01*
X261432Y357541D01*
X262027Y357869D01*
X262581Y358262D01*
X263088Y358715D01*
X263541Y359222D01*
X263934Y359776D01*
X264263Y360371D01*
X264523Y360999D01*
X264711Y361652D01*
X264825Y362322D01*
X264863Y363000D01*
X264825Y363678D01*
X264711Y364348D01*
X264523Y365001D01*
X264263Y365629D01*
X263934Y366224D01*
X263541Y366778D01*
X263088Y367285D01*
X262581Y367737D01*
X262027Y368131D01*
X261432Y368459D01*
X260804Y368719D01*
X260151Y368908D01*
X259482Y369021D01*
X258803Y369059D01*
D02*
G37*
G36*
X287369Y359348D02*
X286690Y359310D01*
X286020Y359196D01*
X285367Y359008D01*
X284740Y358748D01*
X284145Y358419D01*
X283591Y358026D01*
X283084Y357573D01*
X282631Y357066D01*
X282238Y356512D01*
X281909Y355918D01*
X281649Y355290D01*
X281461Y354637D01*
X281347Y353967D01*
X281309Y353288D01*
X281347Y352610D01*
X281461Y351940D01*
X281649Y351287D01*
X281909Y350659D01*
X282238Y350065D01*
X282631Y349510D01*
X283084Y349004D01*
X283591Y348551D01*
X284145Y348158D01*
X284740Y347829D01*
X285367Y347569D01*
X286020Y347381D01*
X286690Y347267D01*
X287369Y347229D01*
X288047Y347267D01*
X288717Y347381D01*
X289370Y347569D01*
X289998Y347829D01*
X290593Y348158D01*
X291147Y348551D01*
X291653Y349004D01*
X292106Y349510D01*
X292499Y350065D01*
X292828Y350659D01*
X293088Y351287D01*
X293276Y351940D01*
X293390Y352610D01*
X293428Y353288D01*
X293390Y353967D01*
X293276Y354637D01*
X293088Y355290D01*
X292828Y355918D01*
X292499Y356512D01*
X292106Y357066D01*
X291653Y357573D01*
X291147Y358026D01*
X290593Y358419D01*
X289998Y358748D01*
X289370Y359008D01*
X288717Y359196D01*
X288047Y359310D01*
X287369Y359348D01*
D02*
G37*
G36*
X70315Y408519D02*
X69486Y408483D01*
X68664Y408375D01*
X67854Y408195D01*
X67063Y407946D01*
X66296Y407628D01*
X65560Y407245D01*
X64861Y406799D01*
X64203Y406294D01*
X63591Y405734D01*
X63031Y405122D01*
X62526Y404464D01*
X62080Y403764D01*
X61697Y403029D01*
X61379Y402262D01*
X61130Y401471D01*
X60950Y400661D01*
X60842Y399839D01*
X60806Y399010D01*
X60842Y398181D01*
X60950Y397359D01*
X61130Y396549D01*
X61379Y395758D01*
X61697Y394991D01*
X62080Y394255D01*
X62526Y393556D01*
X63031Y392898D01*
X63591Y392286D01*
X64203Y391726D01*
X64861Y391221D01*
X65560Y390775D01*
X66296Y390392D01*
X67063Y390075D01*
X67854Y389825D01*
X68664Y389646D01*
Y388375D01*
X67854Y388195D01*
X67063Y387946D01*
X66296Y387628D01*
X65560Y387245D01*
X64861Y386799D01*
X64203Y386294D01*
X63591Y385734D01*
X63031Y385122D01*
X62526Y384464D01*
X62080Y383764D01*
X61697Y383029D01*
X61379Y382262D01*
X61130Y381471D01*
X60950Y380661D01*
X60842Y379839D01*
X60806Y379010D01*
X60842Y378181D01*
X60950Y377359D01*
X61130Y376549D01*
X61379Y375758D01*
X61697Y374991D01*
X62080Y374255D01*
X62526Y373556D01*
X63031Y372898D01*
X63591Y372286D01*
X64203Y371726D01*
X64861Y371221D01*
X65560Y370775D01*
X66296Y370392D01*
X67063Y370074D01*
X67854Y369825D01*
X68664Y369646D01*
Y368374D01*
X67854Y368195D01*
X67063Y367946D01*
X66296Y367628D01*
X65560Y367245D01*
X64861Y366799D01*
X64203Y366294D01*
X63591Y365734D01*
X63031Y365122D01*
X62526Y364464D01*
X62080Y363764D01*
X61697Y363029D01*
X61379Y362262D01*
X61130Y361471D01*
X60950Y360661D01*
X60842Y359839D01*
X60806Y359010D01*
X60842Y358181D01*
X60950Y357359D01*
X61130Y356549D01*
X61379Y355758D01*
X61697Y354991D01*
X62080Y354255D01*
X62526Y353556D01*
X63031Y352898D01*
X63591Y352286D01*
X64203Y351726D01*
X64861Y351221D01*
X65560Y350775D01*
X66296Y350392D01*
X67063Y350074D01*
X67854Y349825D01*
X68664Y349646D01*
Y348374D01*
X67854Y348195D01*
X67063Y347946D01*
X66296Y347628D01*
X65560Y347245D01*
X64861Y346799D01*
X64203Y346294D01*
X63591Y345734D01*
X63031Y345122D01*
X62526Y344464D01*
X62080Y343764D01*
X61697Y343029D01*
X61379Y342262D01*
X61130Y341471D01*
X60950Y340661D01*
X60842Y339839D01*
X60806Y339010D01*
X60842Y338181D01*
X60950Y337359D01*
X61130Y336549D01*
X61379Y335758D01*
X61697Y334991D01*
X62080Y334255D01*
X62526Y333556D01*
X63031Y332898D01*
X63591Y332286D01*
X64203Y331726D01*
X64861Y331221D01*
X65560Y330775D01*
X66296Y330392D01*
X67063Y330074D01*
X67854Y329825D01*
X68664Y329645D01*
X69486Y329537D01*
X70315Y329501D01*
X71144Y329537D01*
X71966Y329645D01*
X72776Y329825D01*
X73567Y330074D01*
X74334Y330392D01*
X75069Y330775D01*
X75769Y331221D01*
X76427Y331726D01*
X77039Y332286D01*
X77599Y332898D01*
X78104Y333556D01*
X78550Y334255D01*
X78933Y334991D01*
X79250Y335758D01*
X79500Y336549D01*
X79679Y337359D01*
X79788Y338181D01*
X79824Y339010D01*
X79788Y339839D01*
X79679Y340661D01*
X79500Y341471D01*
X79250Y342262D01*
X78933Y343029D01*
X78550Y343764D01*
X78104Y344464D01*
X77599Y345122D01*
X77039Y345734D01*
X76427Y346294D01*
X75769Y346799D01*
X75069Y347245D01*
X74334Y347628D01*
X73567Y347946D01*
X72776Y348195D01*
X71966Y348374D01*
Y349646D01*
X72776Y349825D01*
X73567Y350074D01*
X74334Y350392D01*
X75069Y350775D01*
X75769Y351221D01*
X76427Y351726D01*
X77039Y352286D01*
X77599Y352898D01*
X78104Y353556D01*
X78550Y354255D01*
X78933Y354991D01*
X79250Y355758D01*
X79500Y356549D01*
X79679Y357359D01*
X79788Y358181D01*
X79824Y359010D01*
X79788Y359839D01*
X79679Y360661D01*
X79500Y361471D01*
X79250Y362262D01*
X78933Y363029D01*
X78550Y363764D01*
X78104Y364464D01*
X77599Y365122D01*
X77039Y365734D01*
X76427Y366294D01*
X75769Y366799D01*
X75069Y367245D01*
X74334Y367628D01*
X73567Y367946D01*
X72776Y368195D01*
X71966Y368374D01*
Y369646D01*
X72776Y369825D01*
X73567Y370074D01*
X74334Y370392D01*
X75069Y370775D01*
X75769Y371221D01*
X76427Y371726D01*
X77039Y372286D01*
X77599Y372898D01*
X78104Y373556D01*
X78550Y374255D01*
X78933Y374991D01*
X79250Y375758D01*
X79500Y376549D01*
X79679Y377359D01*
X79788Y378181D01*
X79824Y379010D01*
X79788Y379839D01*
X79679Y380661D01*
X79500Y381471D01*
X79250Y382262D01*
X78933Y383029D01*
X78550Y383764D01*
X78104Y384464D01*
X77599Y385122D01*
X77039Y385734D01*
X76427Y386294D01*
X75769Y386799D01*
X75069Y387245D01*
X74334Y387628D01*
X73567Y387946D01*
X72776Y388195D01*
X71966Y388375D01*
Y389646D01*
X72776Y389825D01*
X73567Y390075D01*
X74334Y390392D01*
X75069Y390775D01*
X75769Y391221D01*
X76427Y391726D01*
X77039Y392286D01*
X77599Y392898D01*
X78104Y393556D01*
X78550Y394255D01*
X78933Y394991D01*
X79250Y395758D01*
X79500Y396549D01*
X79679Y397359D01*
X79788Y398181D01*
X79824Y399010D01*
X79788Y399839D01*
X79679Y400661D01*
X79500Y401471D01*
X79250Y402262D01*
X78933Y403029D01*
X78550Y403764D01*
X78104Y404464D01*
X77599Y405122D01*
X77039Y405734D01*
X76427Y406294D01*
X75769Y406799D01*
X75069Y407245D01*
X74334Y407628D01*
X73567Y407946D01*
X72776Y408195D01*
X71966Y408375D01*
X71144Y408483D01*
X70315Y408519D01*
D02*
G37*
G36*
X245750Y329276D02*
X245072Y329238D01*
X244402Y329124D01*
X243749Y328936D01*
X243121Y328676D01*
X242526Y328347D01*
X241972Y327954D01*
X241465Y327501D01*
X241013Y326995D01*
X240619Y326440D01*
X240291Y325846D01*
X240031Y325218D01*
X239842Y324565D01*
X239729Y323895D01*
X239691Y323217D01*
X239729Y322538D01*
X239842Y321868D01*
X240031Y321215D01*
X240291Y320587D01*
X240619Y319993D01*
X241013Y319438D01*
X241465Y318932D01*
X241972Y318479D01*
X242526Y318086D01*
X243121Y317757D01*
X243749Y317497D01*
X244402Y317309D01*
X245072Y317195D01*
X245750Y317157D01*
X246429Y317195D01*
X247098Y317309D01*
X247751Y317497D01*
X248379Y317757D01*
X248974Y318086D01*
X249528Y318479D01*
X250035Y318932D01*
X250488Y319438D01*
X250881Y319993D01*
X251210Y320587D01*
X251470Y321215D01*
X251658Y321868D01*
X251772Y322538D01*
X251810Y323217D01*
X251772Y323895D01*
X251658Y324565D01*
X251470Y325218D01*
X251210Y325846D01*
X250881Y326440D01*
X250488Y326995D01*
X250035Y327501D01*
X249528Y327954D01*
X248974Y328347D01*
X248379Y328676D01*
X247751Y328936D01*
X247098Y329124D01*
X246429Y329238D01*
X245750Y329276D01*
D02*
G37*
G36*
X352250Y326841D02*
X351571Y326803D01*
X350901Y326689D01*
X350248Y326501D01*
X349621Y326241D01*
X349026Y325913D01*
X348472Y325519D01*
X347965Y325066D01*
X347512Y324560D01*
X347119Y324006D01*
X346790Y323411D01*
X346530Y322783D01*
X346342Y322130D01*
X346228Y321460D01*
X346190Y320782D01*
X346228Y320103D01*
X346342Y319433D01*
X346530Y318780D01*
X346790Y318153D01*
X347119Y317558D01*
X347512Y317004D01*
X347965Y316497D01*
X348472Y316044D01*
X349026Y315651D01*
X349621Y315322D01*
X350248Y315062D01*
X350901Y314874D01*
X351571Y314760D01*
X352250Y314722D01*
X352928Y314760D01*
X353598Y314874D01*
X354251Y315062D01*
X354879Y315322D01*
X355474Y315651D01*
X356028Y316044D01*
X356535Y316497D01*
X356987Y317004D01*
X357380Y317558D01*
X357709Y318153D01*
X357969Y318780D01*
X358157Y319433D01*
X358271Y320103D01*
X358309Y320782D01*
X358271Y321460D01*
X358157Y322130D01*
X357969Y322783D01*
X357709Y323411D01*
X357380Y324006D01*
X356987Y324560D01*
X356535Y325066D01*
X356028Y325519D01*
X355474Y325913D01*
X354879Y326241D01*
X354251Y326501D01*
X353598Y326689D01*
X352928Y326803D01*
X352250Y326841D01*
D02*
G37*
G36*
X433143Y322202D02*
X432465Y322164D01*
X431795Y322051D01*
X431142Y321862D01*
X430514Y321602D01*
X429919Y321274D01*
X429365Y320880D01*
X428858Y320428D01*
X428406Y319921D01*
X428013Y319367D01*
X427684Y318772D01*
X427424Y318144D01*
X427236Y317491D01*
X427122Y316821D01*
X427084Y316143D01*
X427122Y315464D01*
X427236Y314795D01*
X427424Y314142D01*
X427684Y313514D01*
X428013Y312919D01*
X428406Y312365D01*
X428858Y311858D01*
X429365Y311405D01*
X429919Y311012D01*
X430514Y310683D01*
X431142Y310423D01*
X431795Y310235D01*
X432465Y310121D01*
X433143Y310083D01*
X433822Y310121D01*
X434492Y310235D01*
X435145Y310423D01*
X435772Y310683D01*
X436367Y311012D01*
X436921Y311405D01*
X437428Y311858D01*
X437881Y312365D01*
X438274Y312919D01*
X438603Y313514D01*
X438863Y314142D01*
X439051Y314795D01*
X439165Y315464D01*
X439203Y316143D01*
X439165Y316821D01*
X439051Y317491D01*
X438863Y318144D01*
X438603Y318772D01*
X438274Y319367D01*
X437881Y319921D01*
X437428Y320428D01*
X436921Y320880D01*
X436367Y321274D01*
X435772Y321602D01*
X435145Y321862D01*
X434492Y322051D01*
X433822Y322164D01*
X433143Y322202D01*
D02*
G37*
G36*
X312373Y319143D02*
X311695Y319105D01*
X311025Y318991D01*
X310372Y318803D01*
X309744Y318543D01*
X309149Y318214D01*
X308595Y317821D01*
X308088Y317368D01*
X307636Y316861D01*
X307243Y316307D01*
X306914Y315713D01*
X306654Y315085D01*
X306466Y314432D01*
X306352Y313762D01*
X306314Y313083D01*
X306352Y312405D01*
X306466Y311735D01*
X306654Y311082D01*
X306914Y310454D01*
X307243Y309860D01*
X307636Y309305D01*
X308088Y308799D01*
X308595Y308346D01*
X309149Y307953D01*
X309744Y307624D01*
X310372Y307364D01*
X311025Y307176D01*
X311695Y307062D01*
X312373Y307024D01*
X313052Y307062D01*
X313722Y307176D01*
X314375Y307364D01*
X315002Y307624D01*
X315597Y307953D01*
X316151Y308346D01*
X316658Y308799D01*
X317111Y309305D01*
X317504Y309860D01*
X317833Y310454D01*
X318093Y311082D01*
X318281Y311735D01*
X318395Y312405D01*
X318433Y313083D01*
X318395Y313762D01*
X318281Y314432D01*
X318093Y315085D01*
X317833Y315713D01*
X317504Y316307D01*
X317111Y316861D01*
X316658Y317368D01*
X316151Y317821D01*
X315597Y318214D01*
X315002Y318543D01*
X314375Y318803D01*
X313722Y318991D01*
X313052Y319105D01*
X312373Y319143D01*
D02*
G37*
G36*
X544042Y315392D02*
X543363Y315354D01*
X542693Y315240D01*
X542040Y315052D01*
X541413Y314792D01*
X540818Y314463D01*
X540264Y314070D01*
X539757Y313617D01*
X539304Y313111D01*
X538911Y312556D01*
X538582Y311962D01*
X538322Y311334D01*
X538134Y310681D01*
X538021Y310011D01*
X537982Y309333D01*
X538021Y308654D01*
X538134Y307984D01*
X538322Y307331D01*
X538582Y306703D01*
X538911Y306109D01*
X539304Y305555D01*
X539757Y305048D01*
X540264Y304595D01*
X540818Y304202D01*
X541413Y303873D01*
X542040Y303613D01*
X542693Y303425D01*
X543363Y303311D01*
X544042Y303273D01*
X544720Y303311D01*
X545390Y303425D01*
X546043Y303613D01*
X546671Y303873D01*
X547266Y304202D01*
X547820Y304595D01*
X548327Y305048D01*
X548779Y305555D01*
X549173Y306109D01*
X549501Y306703D01*
X549761Y307331D01*
X549949Y307984D01*
X550063Y308654D01*
X550101Y309333D01*
X550063Y310011D01*
X549949Y310681D01*
X549761Y311334D01*
X549501Y311962D01*
X549173Y312556D01*
X548779Y313111D01*
X548327Y313617D01*
X547820Y314070D01*
X547266Y314463D01*
X546671Y314792D01*
X546043Y315052D01*
X545390Y315240D01*
X544720Y315354D01*
X544042Y315392D01*
D02*
G37*
G36*
X495039Y315010D02*
X494360Y314972D01*
X493690Y314858D01*
X493037Y314670D01*
X492410Y314410D01*
X491815Y314081D01*
X491260Y313688D01*
X490754Y313235D01*
X490301Y312728D01*
X489908Y312174D01*
X489579Y311579D01*
X489319Y310951D01*
X489131Y310299D01*
X489017Y309629D01*
X488979Y308950D01*
X489017Y308272D01*
X489131Y307602D01*
X489319Y306949D01*
X489579Y306321D01*
X489908Y305726D01*
X490301Y305172D01*
X490754Y304665D01*
X491260Y304213D01*
X491815Y303819D01*
X492410Y303491D01*
X493037Y303231D01*
X493690Y303043D01*
X494360Y302929D01*
X495039Y302891D01*
X495717Y302929D01*
X496387Y303043D01*
X497040Y303231D01*
X497668Y303491D01*
X498262Y303819D01*
X498817Y304213D01*
X499323Y304665D01*
X499776Y305172D01*
X500169Y305726D01*
X500498Y306321D01*
X500758Y306949D01*
X500946Y307602D01*
X501060Y308272D01*
X501098Y308950D01*
X501060Y309629D01*
X500946Y310299D01*
X500758Y310951D01*
X500498Y311579D01*
X500169Y312174D01*
X499776Y312728D01*
X499323Y313235D01*
X498817Y313688D01*
X498262Y314081D01*
X497668Y314410D01*
X497040Y314670D01*
X496387Y314858D01*
X495717Y314972D01*
X495039Y315010D01*
D02*
G37*
G36*
X601597Y312257D02*
X600919Y312218D01*
X600249Y312105D01*
X599596Y311917D01*
X598968Y311656D01*
X598373Y311328D01*
X597819Y310935D01*
X597312Y310482D01*
X596859Y309975D01*
X596466Y309421D01*
X596138Y308826D01*
X595877Y308198D01*
X595689Y307545D01*
X595575Y306875D01*
X595537Y306197D01*
X595575Y305518D01*
X595689Y304849D01*
X595877Y304196D01*
X596138Y303568D01*
X596466Y302973D01*
X596859Y302419D01*
X597312Y301912D01*
X597819Y301460D01*
X598373Y301066D01*
X598968Y300738D01*
X599596Y300478D01*
X600249Y300289D01*
X600919Y300176D01*
X601597Y300138D01*
X602275Y300176D01*
X602945Y300289D01*
X603598Y300478D01*
X604226Y300738D01*
X604821Y301066D01*
X605375Y301460D01*
X605882Y301912D01*
X606334Y302419D01*
X606728Y302973D01*
X607056Y303568D01*
X607316Y304196D01*
X607505Y304849D01*
X607618Y305518D01*
X607656Y306197D01*
X607618Y306875D01*
X607505Y307545D01*
X607316Y308198D01*
X607056Y308826D01*
X606728Y309421D01*
X606334Y309975D01*
X605882Y310482D01*
X605375Y310935D01*
X604821Y311328D01*
X604226Y311656D01*
X603598Y311917D01*
X602945Y312105D01*
X602275Y312218D01*
X601597Y312257D01*
D02*
G37*
G36*
X265502Y312089D02*
X264824Y312051D01*
X264154Y311937D01*
X263501Y311749D01*
X262873Y311489D01*
X262278Y311160D01*
X261724Y310767D01*
X261217Y310314D01*
X260765Y309808D01*
X260371Y309253D01*
X260043Y308659D01*
X259783Y308031D01*
X259594Y307378D01*
X259481Y306708D01*
X259443Y306030D01*
X259481Y305351D01*
X259594Y304681D01*
X259783Y304028D01*
X260043Y303400D01*
X260371Y302806D01*
X260765Y302251D01*
X261217Y301745D01*
X261724Y301292D01*
X262278Y300899D01*
X262873Y300570D01*
X263501Y300310D01*
X264154Y300122D01*
X264824Y300008D01*
X265502Y299970D01*
X266180Y300008D01*
X266850Y300122D01*
X267503Y300310D01*
X268131Y300570D01*
X268726Y300899D01*
X269280Y301292D01*
X269787Y301745D01*
X270240Y302251D01*
X270633Y302806D01*
X270961Y303400D01*
X271222Y304028D01*
X271410Y304681D01*
X271523Y305351D01*
X271562Y306030D01*
X271523Y306708D01*
X271410Y307378D01*
X271222Y308031D01*
X270961Y308659D01*
X270633Y309253D01*
X270240Y309808D01*
X269787Y310314D01*
X269280Y310767D01*
X268726Y311160D01*
X268131Y311489D01*
X267503Y311749D01*
X266850Y311937D01*
X266180Y312051D01*
X265502Y312089D01*
D02*
G37*
G36*
X341533Y301060D02*
X340855Y301022D01*
X340185Y300908D01*
X339532Y300720D01*
X338904Y300460D01*
X338310Y300131D01*
X337755Y299738D01*
X337249Y299285D01*
X336796Y298778D01*
X336403Y298224D01*
X336074Y297629D01*
X335814Y297001D01*
X335626Y296348D01*
X335512Y295679D01*
X335474Y295000D01*
X335512Y294322D01*
X335626Y293652D01*
X335814Y292999D01*
X336074Y292371D01*
X336403Y291776D01*
X336796Y291222D01*
X337249Y290715D01*
X337755Y290263D01*
X338310Y289869D01*
X338904Y289541D01*
X339532Y289281D01*
X340185Y289093D01*
X340855Y288979D01*
X341533Y288941D01*
X342212Y288979D01*
X342882Y289093D01*
X343535Y289281D01*
X344162Y289541D01*
X344757Y289869D01*
X345311Y290263D01*
X345818Y290715D01*
X346271Y291222D01*
X346664Y291776D01*
X346993Y292371D01*
X347253Y292999D01*
X347441Y293652D01*
X347555Y294322D01*
X347593Y295000D01*
X347555Y295679D01*
X347441Y296348D01*
X347253Y297001D01*
X346993Y297629D01*
X346664Y298224D01*
X346271Y298778D01*
X345818Y299285D01*
X345311Y299738D01*
X344757Y300131D01*
X344162Y300460D01*
X343535Y300720D01*
X342882Y300908D01*
X342212Y301022D01*
X341533Y301060D01*
D02*
G37*
G36*
X256936Y300059D02*
X256257Y300021D01*
X255588Y299907D01*
X254935Y299719D01*
X254307Y299459D01*
X253712Y299131D01*
X253158Y298737D01*
X252651Y298285D01*
X252198Y297778D01*
X251805Y297224D01*
X251476Y296629D01*
X251217Y296001D01*
X251028Y295348D01*
X250914Y294678D01*
X250876Y294000D01*
X250914Y293321D01*
X251028Y292652D01*
X251217Y291999D01*
X251476Y291371D01*
X251805Y290776D01*
X252198Y290222D01*
X252651Y289715D01*
X253158Y289262D01*
X253712Y288869D01*
X254307Y288540D01*
X254935Y288280D01*
X255588Y288092D01*
X256257Y287978D01*
X256936Y287940D01*
X257614Y287978D01*
X258284Y288092D01*
X258937Y288280D01*
X259565Y288540D01*
X260160Y288869D01*
X260714Y289262D01*
X261221Y289715D01*
X261673Y290222D01*
X262067Y290776D01*
X262395Y291371D01*
X262655Y291999D01*
X262843Y292652D01*
X262957Y293321D01*
X262995Y294000D01*
X262957Y294678D01*
X262843Y295348D01*
X262655Y296001D01*
X262395Y296629D01*
X262067Y297224D01*
X261673Y297778D01*
X261221Y298285D01*
X260714Y298737D01*
X260160Y299131D01*
X259565Y299459D01*
X258937Y299719D01*
X258284Y299907D01*
X257614Y300021D01*
X256936Y300059D01*
D02*
G37*
G36*
X110552Y482354D02*
X80598D01*
X79812Y482315D01*
X79035Y482200D01*
X78273Y482009D01*
X77532Y481744D01*
X76822Y481408D01*
X76148Y481004D01*
X75516Y480536D01*
X74934Y480008D01*
X74406Y479426D01*
X73938Y478794D01*
X73534Y478120D01*
X73198Y477410D01*
X72933Y476669D01*
X72742Y475907D01*
X72627Y475129D01*
X72588Y474344D01*
X72627Y473559D01*
X72742Y472782D01*
X72933Y472019D01*
X73198Y471279D01*
X73534Y470569D01*
X73938Y469894D01*
X74406Y469263D01*
X74934Y468681D01*
X75516Y468153D01*
X76148Y467685D01*
X76822Y467281D01*
X77532Y466944D01*
X78273Y466680D01*
X79035Y466489D01*
X79812Y466373D01*
X80598Y466335D01*
X107234D01*
X117023Y456546D01*
Y296661D01*
X99625Y279263D01*
X76215D01*
X75862Y279488D01*
X75126Y279871D01*
X74359Y280189D01*
X73568Y280438D01*
X72758Y280618D01*
X71936Y280726D01*
X71107Y280762D01*
X70278Y280726D01*
X69456Y280618D01*
X68646Y280438D01*
X67855Y280189D01*
X67088Y279871D01*
X66352Y279488D01*
X65653Y279042D01*
X64995Y278537D01*
X64383Y277977D01*
X63823Y277365D01*
X63318Y276707D01*
X62872Y276007D01*
X62489Y275272D01*
X62171Y274505D01*
X61922Y273714D01*
X61742Y272904D01*
X61634Y272082D01*
X61598Y271253D01*
X61634Y270424D01*
X61742Y269602D01*
X61922Y268792D01*
X62171Y268001D01*
X62489Y267234D01*
X62872Y266499D01*
X63318Y265799D01*
X63823Y265141D01*
X64383Y264529D01*
X64995Y263969D01*
X65653Y263464D01*
X66352Y263018D01*
X67088Y262635D01*
X67855Y262317D01*
X68646Y262068D01*
X69456Y261889D01*
Y260618D01*
X68646Y260438D01*
X67855Y260189D01*
X67088Y259871D01*
X66352Y259488D01*
X65653Y259042D01*
X64995Y258537D01*
X64383Y257977D01*
X63823Y257365D01*
X63318Y256707D01*
X62872Y256007D01*
X62489Y255272D01*
X62171Y254505D01*
X61922Y253714D01*
X61742Y252904D01*
X61634Y252082D01*
X61598Y251253D01*
X61634Y250424D01*
X61742Y249602D01*
X61922Y248792D01*
X62171Y248001D01*
X62489Y247234D01*
X62872Y246499D01*
X63318Y245799D01*
X63823Y245141D01*
X64383Y244529D01*
X64995Y243969D01*
X65653Y243464D01*
X66352Y243018D01*
X67088Y242635D01*
X67855Y242317D01*
X68646Y242068D01*
X69456Y241888D01*
X70278Y241780D01*
X71107Y241744D01*
X71936Y241780D01*
X72758Y241888D01*
X73568Y242068D01*
X74359Y242317D01*
X75126Y242635D01*
X75862Y243018D01*
X76561Y243464D01*
X77219Y243969D01*
X77831Y244529D01*
X78391Y245141D01*
X78896Y245799D01*
X79342Y246499D01*
X79725Y247234D01*
X80042Y248001D01*
X80292Y248792D01*
X80471Y249602D01*
X80580Y250424D01*
X80616Y251253D01*
X80580Y252082D01*
X80471Y252904D01*
X80292Y253714D01*
X80042Y254505D01*
X79725Y255272D01*
X79342Y256007D01*
X78896Y256707D01*
X78391Y257365D01*
X77831Y257977D01*
X77219Y258537D01*
X76561Y259042D01*
X75862Y259488D01*
X75126Y259871D01*
X74359Y260189D01*
X73568Y260438D01*
X72758Y260618D01*
Y261889D01*
X73568Y262068D01*
X74359Y262317D01*
X75126Y262635D01*
X75862Y263018D01*
X76215Y263243D01*
X102942D01*
X103728Y263282D01*
X104505Y263397D01*
X105267Y263588D01*
X106008Y263853D01*
X106718Y264189D01*
X107392Y264593D01*
X108024Y265061D01*
X108606Y265589D01*
X115850Y272833D01*
X117023Y272347D01*
Y164903D01*
X117062Y164118D01*
X117177Y163340D01*
X117368Y162578D01*
X117633Y161838D01*
X117969Y161127D01*
X118373Y160453D01*
X118841Y159822D01*
X119369Y159239D01*
X140147Y138462D01*
X140729Y137934D01*
X141361Y137466D01*
X142035Y137062D01*
X142745Y136725D01*
X143485Y136461D01*
X144248Y136270D01*
X145025Y136154D01*
X145810Y136116D01*
X146596Y136154D01*
X147373Y136270D01*
X148136Y136461D01*
X148876Y136725D01*
X149586Y137062D01*
X150260Y137466D01*
X150892Y137934D01*
X151474Y138462D01*
X152002Y139044D01*
X152470Y139675D01*
X152874Y140350D01*
X153210Y141060D01*
X153475Y141800D01*
X153666Y142563D01*
X153782Y143340D01*
X153820Y144125D01*
X153782Y144910D01*
X153666Y145688D01*
X153475Y146450D01*
X153210Y147191D01*
X152874Y147901D01*
X152470Y148575D01*
X152002Y149207D01*
X151474Y149789D01*
X133042Y168221D01*
Y293343D01*
Y459863D01*
X133004Y460648D01*
X132889Y461426D01*
X132698Y462188D01*
X132433Y462928D01*
X132097Y463639D01*
X131693Y464313D01*
X131224Y464944D01*
X130696Y465527D01*
X116215Y480008D01*
X115633Y480536D01*
X115002Y481004D01*
X114327Y481408D01*
X113617Y481744D01*
X112877Y482009D01*
X112114Y482200D01*
X111337Y482315D01*
X110552Y482354D01*
D02*
G37*
G36*
X520514Y289013D02*
X519836Y288975D01*
X519166Y288861D01*
X518513Y288673D01*
X517885Y288413D01*
X517290Y288084D01*
X516736Y287691D01*
X516229Y287238D01*
X515777Y286732D01*
X515383Y286177D01*
X515055Y285583D01*
X514795Y284955D01*
X514607Y284302D01*
X514493Y283632D01*
X514455Y282954D01*
X514493Y282275D01*
X514607Y281605D01*
X514795Y280952D01*
X515055Y280324D01*
X515383Y279730D01*
X515777Y279175D01*
X516229Y278669D01*
X516736Y278216D01*
X517290Y277823D01*
X517885Y277494D01*
X518513Y277234D01*
X519166Y277046D01*
X519836Y276932D01*
X520514Y276894D01*
X521193Y276932D01*
X521862Y277046D01*
X522515Y277234D01*
X523143Y277494D01*
X523738Y277823D01*
X524292Y278216D01*
X524799Y278669D01*
X525252Y279175D01*
X525645Y279730D01*
X525974Y280324D01*
X526234Y280952D01*
X526422Y281605D01*
X526535Y282275D01*
X526574Y282954D01*
X526535Y283632D01*
X526422Y284302D01*
X526234Y284955D01*
X525974Y285583D01*
X525645Y286177D01*
X525252Y286732D01*
X524799Y287238D01*
X524292Y287691D01*
X523738Y288084D01*
X523143Y288413D01*
X522515Y288673D01*
X521862Y288861D01*
X521193Y288975D01*
X520514Y289013D01*
D02*
G37*
G36*
X600788Y286856D02*
X600109Y286818D01*
X599440Y286705D01*
X598787Y286516D01*
X598159Y286256D01*
X597564Y285928D01*
X597010Y285534D01*
X596503Y285082D01*
X596050Y284575D01*
X595657Y284021D01*
X595328Y283426D01*
X595069Y282798D01*
X594880Y282145D01*
X594767Y281476D01*
X594729Y280797D01*
X594767Y280119D01*
X594880Y279449D01*
X595069Y278796D01*
X595328Y278168D01*
X595657Y277573D01*
X596050Y277019D01*
X596503Y276512D01*
X597010Y276059D01*
X597564Y275666D01*
X598159Y275338D01*
X598787Y275077D01*
X599440Y274889D01*
X600109Y274776D01*
X600788Y274737D01*
X601466Y274776D01*
X602136Y274889D01*
X602789Y275077D01*
X603417Y275338D01*
X604012Y275666D01*
X604566Y276059D01*
X605073Y276512D01*
X605526Y277019D01*
X605919Y277573D01*
X606247Y278168D01*
X606507Y278796D01*
X606696Y279449D01*
X606809Y280119D01*
X606847Y280797D01*
X606809Y281476D01*
X606696Y282145D01*
X606507Y282798D01*
X606247Y283426D01*
X605919Y284021D01*
X605526Y284575D01*
X605073Y285082D01*
X604566Y285534D01*
X604012Y285928D01*
X603417Y286256D01*
X602789Y286516D01*
X602136Y286705D01*
X601466Y286818D01*
X600788Y286856D01*
D02*
G37*
G36*
X340790Y286059D02*
X340111Y286021D01*
X339441Y285907D01*
X338788Y285719D01*
X338161Y285459D01*
X337566Y285131D01*
X337012Y284737D01*
X336505Y284285D01*
X336052Y283778D01*
X335659Y283224D01*
X335330Y282629D01*
X335070Y282001D01*
X334882Y281348D01*
X334768Y280678D01*
X334730Y280000D01*
X334768Y279321D01*
X334882Y278652D01*
X335070Y277999D01*
X335330Y277371D01*
X335659Y276776D01*
X336052Y276222D01*
X336505Y275715D01*
X337012Y275262D01*
X337566Y274869D01*
X338161Y274541D01*
X338788Y274280D01*
X339441Y274092D01*
X340111Y273979D01*
X340790Y273940D01*
X341468Y273979D01*
X342138Y274092D01*
X342791Y274280D01*
X343419Y274541D01*
X344014Y274869D01*
X344568Y275262D01*
X345075Y275715D01*
X345527Y276222D01*
X345921Y276776D01*
X346249Y277371D01*
X346509Y277999D01*
X346697Y278652D01*
X346811Y279321D01*
X346849Y280000D01*
X346811Y280678D01*
X346697Y281348D01*
X346509Y282001D01*
X346249Y282629D01*
X345921Y283224D01*
X345527Y283778D01*
X345075Y284285D01*
X344568Y284737D01*
X344014Y285131D01*
X343419Y285459D01*
X342791Y285719D01*
X342138Y285907D01*
X341468Y286021D01*
X340790Y286059D01*
D02*
G37*
G36*
X656913Y275112D02*
X656234Y275074D01*
X655564Y274960D01*
X654911Y274772D01*
X654284Y274512D01*
X653689Y274184D01*
X653135Y273790D01*
X652628Y273338D01*
X652175Y272831D01*
X651782Y272277D01*
X651453Y271682D01*
X651193Y271054D01*
X651005Y270401D01*
X650891Y269731D01*
X650853Y269053D01*
X650891Y268375D01*
X651005Y267705D01*
X651193Y267052D01*
X651453Y266424D01*
X651782Y265829D01*
X652175Y265275D01*
X652628Y264768D01*
X653135Y264315D01*
X653689Y263922D01*
X654284Y263594D01*
X654911Y263333D01*
X655564Y263145D01*
X656234Y263032D01*
X656913Y262994D01*
X657591Y263032D01*
X658261Y263145D01*
X658914Y263333D01*
X659542Y263594D01*
X660137Y263922D01*
X660691Y264315D01*
X661198Y264768D01*
X661650Y265275D01*
X662044Y265829D01*
X662372Y266424D01*
X662632Y267052D01*
X662820Y267705D01*
X662934Y268375D01*
X662972Y269053D01*
X662934Y269731D01*
X662820Y270401D01*
X662632Y271054D01*
X662372Y271682D01*
X662044Y272277D01*
X661650Y272831D01*
X661198Y273338D01*
X660691Y273790D01*
X660137Y274184D01*
X659542Y274512D01*
X658914Y274772D01*
X658261Y274960D01*
X657591Y275074D01*
X656913Y275112D01*
D02*
G37*
G36*
X245750Y274904D02*
X245072Y274866D01*
X244402Y274752D01*
X243749Y274564D01*
X243121Y274304D01*
X242526Y273975D01*
X241972Y273582D01*
X241465Y273129D01*
X241013Y272623D01*
X240619Y272069D01*
X240291Y271474D01*
X240031Y270846D01*
X239842Y270193D01*
X239729Y269523D01*
X239691Y268845D01*
X239729Y268166D01*
X239842Y267496D01*
X240031Y266843D01*
X240291Y266216D01*
X240619Y265621D01*
X241013Y265067D01*
X241465Y264560D01*
X241972Y264107D01*
X242526Y263714D01*
X243121Y263385D01*
X243749Y263125D01*
X244402Y262937D01*
X245072Y262823D01*
X245750Y262785D01*
X246429Y262823D01*
X247098Y262937D01*
X247751Y263125D01*
X248379Y263385D01*
X248974Y263714D01*
X249528Y264107D01*
X250035Y264560D01*
X250488Y265067D01*
X250881Y265621D01*
X251210Y266216D01*
X251470Y266843D01*
X251658Y267496D01*
X251772Y268166D01*
X251810Y268845D01*
X251772Y269523D01*
X251658Y270193D01*
X251470Y270846D01*
X251210Y271474D01*
X250881Y272069D01*
X250488Y272623D01*
X250035Y273129D01*
X249528Y273582D01*
X248974Y273975D01*
X248379Y274304D01*
X247751Y274564D01*
X247098Y274752D01*
X246429Y274866D01*
X245750Y274904D01*
D02*
G37*
G36*
X352250Y273462D02*
X351571Y273424D01*
X350901Y273310D01*
X350248Y273122D01*
X349621Y272862D01*
X349026Y272533D01*
X348472Y272140D01*
X347965Y271687D01*
X347512Y271181D01*
X347119Y270627D01*
X346790Y270032D01*
X346530Y269404D01*
X346342Y268751D01*
X346228Y268081D01*
X346190Y267403D01*
X346228Y266724D01*
X346342Y266054D01*
X346530Y265401D01*
X346790Y264774D01*
X347119Y264179D01*
X347512Y263625D01*
X347965Y263118D01*
X348472Y262665D01*
X349026Y262272D01*
X349621Y261943D01*
X350248Y261683D01*
X350901Y261495D01*
X351571Y261381D01*
X352250Y261343D01*
X352928Y261381D01*
X353598Y261495D01*
X354251Y261683D01*
X354879Y261943D01*
X355474Y262272D01*
X356028Y262665D01*
X356535Y263118D01*
X356987Y263625D01*
X357380Y264179D01*
X357709Y264774D01*
X357969Y265401D01*
X358157Y266054D01*
X358271Y266724D01*
X358309Y267403D01*
X358271Y268081D01*
X358157Y268751D01*
X357969Y269404D01*
X357709Y270032D01*
X357380Y270627D01*
X356987Y271181D01*
X356535Y271687D01*
X356028Y272140D01*
X355474Y272533D01*
X354879Y272862D01*
X354251Y273122D01*
X353598Y273310D01*
X352928Y273424D01*
X352250Y273462D01*
D02*
G37*
G36*
X671830Y272258D02*
X671152Y272220D01*
X670482Y272106D01*
X669829Y271918D01*
X669201Y271658D01*
X668606Y271330D01*
X668052Y270936D01*
X667545Y270484D01*
X667093Y269977D01*
X666699Y269423D01*
X666371Y268828D01*
X666111Y268200D01*
X665922Y267547D01*
X665809Y266877D01*
X665770Y266199D01*
X665809Y265520D01*
X665922Y264851D01*
X666111Y264198D01*
X666371Y263570D01*
X666699Y262975D01*
X667093Y262421D01*
X667545Y261914D01*
X668052Y261461D01*
X668606Y261068D01*
X669201Y260739D01*
X669829Y260479D01*
X670482Y260291D01*
X671152Y260177D01*
X671830Y260139D01*
X672508Y260177D01*
X673178Y260291D01*
X673831Y260479D01*
X674459Y260739D01*
X675054Y261068D01*
X675608Y261461D01*
X676115Y261914D01*
X676568Y262421D01*
X676961Y262975D01*
X677289Y263570D01*
X677550Y264198D01*
X677738Y264851D01*
X677851Y265520D01*
X677889Y266199D01*
X677851Y266877D01*
X677738Y267547D01*
X677550Y268200D01*
X677289Y268828D01*
X676961Y269423D01*
X676568Y269977D01*
X676115Y270484D01*
X675608Y270936D01*
X675054Y271330D01*
X674459Y271658D01*
X673831Y271918D01*
X673178Y272106D01*
X672508Y272220D01*
X671830Y272258D01*
D02*
G37*
G36*
X600686Y261457D02*
X600008Y261418D01*
X599338Y261305D01*
X598685Y261117D01*
X598057Y260856D01*
X597462Y260528D01*
X596908Y260135D01*
X596401Y259682D01*
X595948Y259175D01*
X595555Y258621D01*
X595227Y258026D01*
X594967Y257398D01*
X594779Y256745D01*
X594665Y256075D01*
X594627Y255397D01*
X594665Y254718D01*
X594779Y254049D01*
X594967Y253396D01*
X595227Y252768D01*
X595555Y252173D01*
X595948Y251619D01*
X596401Y251112D01*
X596908Y250660D01*
X597462Y250266D01*
X598057Y249938D01*
X598685Y249678D01*
X599338Y249489D01*
X600008Y249376D01*
X600686Y249338D01*
X601365Y249376D01*
X602034Y249489D01*
X602687Y249678D01*
X603315Y249938D01*
X603910Y250266D01*
X604464Y250660D01*
X604971Y251112D01*
X605424Y251619D01*
X605817Y252173D01*
X606146Y252768D01*
X606405Y253396D01*
X606594Y254049D01*
X606707Y254718D01*
X606745Y255397D01*
X606707Y256075D01*
X606594Y256745D01*
X606405Y257398D01*
X606146Y258026D01*
X605817Y258621D01*
X605424Y259175D01*
X604971Y259682D01*
X604464Y260135D01*
X603910Y260528D01*
X603315Y260856D01*
X602687Y261117D01*
X602034Y261305D01*
X601365Y261418D01*
X600686Y261457D01*
D02*
G37*
G36*
X297156Y258060D02*
X296478Y258021D01*
X295808Y257908D01*
X295155Y257719D01*
X294527Y257459D01*
X293933Y257131D01*
X293378Y256737D01*
X292872Y256285D01*
X292419Y255778D01*
X292026Y255224D01*
X291697Y254629D01*
X291437Y254001D01*
X291249Y253348D01*
X291135Y252679D01*
X291097Y252000D01*
X291135Y251322D01*
X291249Y250652D01*
X291437Y249999D01*
X291697Y249371D01*
X292026Y248776D01*
X292419Y248222D01*
X292872Y247715D01*
X293378Y247262D01*
X293933Y246869D01*
X294527Y246541D01*
X295155Y246280D01*
X295808Y246092D01*
X296478Y245979D01*
X297156Y245940D01*
X297835Y245979D01*
X298505Y246092D01*
X299158Y246280D01*
X299785Y246541D01*
X300380Y246869D01*
X300935Y247262D01*
X301441Y247715D01*
X301894Y248222D01*
X302287Y248776D01*
X302616Y249371D01*
X302876Y249999D01*
X303064Y250652D01*
X303178Y251322D01*
X303216Y252000D01*
X303178Y252679D01*
X303064Y253348D01*
X302876Y254001D01*
X302616Y254629D01*
X302287Y255224D01*
X301894Y255778D01*
X301441Y256285D01*
X300935Y256737D01*
X300380Y257131D01*
X299785Y257459D01*
X299158Y257719D01*
X298505Y257908D01*
X297835Y258021D01*
X297156Y258060D01*
D02*
G37*
G36*
X257201Y248060D02*
X256523Y248021D01*
X255853Y247908D01*
X255200Y247719D01*
X254572Y247459D01*
X253977Y247131D01*
X253423Y246737D01*
X252916Y246285D01*
X252463Y245778D01*
X252070Y245224D01*
X251742Y244629D01*
X251481Y244001D01*
X251293Y243348D01*
X251180Y242679D01*
X251141Y242000D01*
X251180Y241322D01*
X251293Y240652D01*
X251481Y239999D01*
X251742Y239371D01*
X252070Y238776D01*
X252463Y238222D01*
X252916Y237715D01*
X253423Y237262D01*
X253977Y236869D01*
X254572Y236541D01*
X255200Y236281D01*
X255853Y236092D01*
X256523Y235979D01*
X257201Y235940D01*
X257879Y235979D01*
X258549Y236092D01*
X259202Y236281D01*
X259830Y236541D01*
X260425Y236869D01*
X260979Y237262D01*
X261486Y237715D01*
X261938Y238222D01*
X262332Y238776D01*
X262660Y239371D01*
X262920Y239999D01*
X263109Y240652D01*
X263222Y241322D01*
X263260Y242000D01*
X263222Y242679D01*
X263109Y243348D01*
X262920Y244001D01*
X262660Y244629D01*
X262332Y245224D01*
X261938Y245778D01*
X261486Y246285D01*
X260979Y246737D01*
X260425Y247131D01*
X259830Y247459D01*
X259202Y247719D01*
X258549Y247908D01*
X257879Y248021D01*
X257201Y248060D01*
D02*
G37*
G36*
X287960Y244245D02*
X287281Y244207D01*
X286612Y244093D01*
X285959Y243905D01*
X285331Y243645D01*
X284736Y243316D01*
X284182Y242923D01*
X283675Y242470D01*
X283223Y241964D01*
X282829Y241410D01*
X282501Y240815D01*
X282241Y240187D01*
X282052Y239534D01*
X281939Y238864D01*
X281901Y238186D01*
X281939Y237507D01*
X282052Y236837D01*
X282241Y236184D01*
X282501Y235557D01*
X282829Y234962D01*
X283223Y234408D01*
X283675Y233901D01*
X284182Y233448D01*
X284736Y233055D01*
X285331Y232726D01*
X285959Y232466D01*
X286612Y232278D01*
X287281Y232164D01*
X287960Y232126D01*
X288638Y232164D01*
X289308Y232278D01*
X289961Y232466D01*
X290589Y232726D01*
X291184Y233055D01*
X291738Y233448D01*
X292245Y233901D01*
X292698Y234408D01*
X293091Y234962D01*
X293419Y235557D01*
X293679Y236184D01*
X293868Y236837D01*
X293981Y237507D01*
X294020Y238186D01*
X293981Y238864D01*
X293868Y239534D01*
X293679Y240187D01*
X293419Y240815D01*
X293091Y241410D01*
X292698Y241964D01*
X292245Y242470D01*
X291738Y242923D01*
X291184Y243316D01*
X290589Y243645D01*
X289961Y243905D01*
X289308Y244093D01*
X288638Y244207D01*
X287960Y244245D01*
D02*
G37*
G36*
X245750Y222178D02*
X245072Y222140D01*
X244402Y222026D01*
X243749Y221838D01*
X243121Y221578D01*
X242526Y221249D01*
X241972Y220856D01*
X241465Y220403D01*
X241013Y219896D01*
X240619Y219342D01*
X240291Y218747D01*
X240031Y218120D01*
X239842Y217467D01*
X239729Y216797D01*
X239691Y216118D01*
X239729Y215440D01*
X239842Y214770D01*
X240031Y214117D01*
X240291Y213489D01*
X240619Y212894D01*
X241013Y212340D01*
X241465Y211834D01*
X241972Y211381D01*
X242526Y210988D01*
X243121Y210659D01*
X243749Y210399D01*
X244402Y210211D01*
X245072Y210097D01*
X245750Y210059D01*
X246429Y210097D01*
X247098Y210211D01*
X247751Y210399D01*
X248379Y210659D01*
X248974Y210988D01*
X249528Y211381D01*
X250035Y211834D01*
X250488Y212340D01*
X250881Y212894D01*
X251210Y213489D01*
X251470Y214117D01*
X251658Y214770D01*
X251772Y215440D01*
X251810Y216118D01*
X251772Y216797D01*
X251658Y217467D01*
X251470Y218120D01*
X251210Y218747D01*
X250881Y219342D01*
X250488Y219896D01*
X250035Y220403D01*
X249528Y220856D01*
X248974Y221249D01*
X248379Y221578D01*
X247751Y221838D01*
X247098Y222026D01*
X246429Y222140D01*
X245750Y222178D01*
D02*
G37*
G36*
X265435Y227582D02*
X264757Y227544D01*
X264087Y227431D01*
X263434Y227243D01*
X262806Y226982D01*
X262211Y226654D01*
X261657Y226261D01*
X261150Y225808D01*
X260697Y225301D01*
X260304Y224747D01*
X259975Y224152D01*
X259715Y223524D01*
X259527Y222871D01*
X259414Y222201D01*
X259375Y221523D01*
X259414Y220844D01*
X259527Y220175D01*
X259715Y219522D01*
X259975Y218894D01*
X260304Y218299D01*
X260697Y217745D01*
X261150Y217238D01*
X261657Y216786D01*
X262211Y216392D01*
X262727Y216107D01*
X262868Y215524D01*
X262750Y214712D01*
X262370Y214502D01*
X261815Y214109D01*
X261309Y213656D01*
X260856Y213149D01*
X260463Y212595D01*
X260134Y212000D01*
X259874Y211373D01*
X259686Y210720D01*
X259572Y210050D01*
X259534Y209371D01*
X259572Y208693D01*
X259686Y208023D01*
X259874Y207370D01*
X260134Y206742D01*
X260463Y206147D01*
X260856Y205593D01*
X261309Y205087D01*
X261815Y204634D01*
X262370Y204241D01*
X262964Y203912D01*
X263592Y203652D01*
X264245Y203464D01*
X264915Y203350D01*
X265593Y203312D01*
X266272Y203350D01*
X266942Y203464D01*
X267595Y203652D01*
X268223Y203912D01*
X268817Y204241D01*
X269371Y204634D01*
X269878Y205087D01*
X270331Y205593D01*
X270724Y206147D01*
X271053Y206742D01*
X271313Y207370D01*
X271501Y208023D01*
X271615Y208693D01*
X271653Y209371D01*
X271615Y210050D01*
X271501Y210720D01*
X271313Y211373D01*
X271053Y212000D01*
X270724Y212595D01*
X270331Y213149D01*
X269878Y213656D01*
X269371Y214109D01*
X268817Y214502D01*
X268301Y214787D01*
X268160Y215370D01*
X268279Y216182D01*
X268659Y216392D01*
X269213Y216786D01*
X269720Y217238D01*
X270173Y217745D01*
X270566Y218299D01*
X270894Y218894D01*
X271154Y219522D01*
X271343Y220175D01*
X271456Y220844D01*
X271495Y221523D01*
X271456Y222201D01*
X271343Y222871D01*
X271154Y223524D01*
X270894Y224152D01*
X270566Y224747D01*
X270173Y225301D01*
X269720Y225808D01*
X269213Y226261D01*
X268659Y226654D01*
X268064Y226982D01*
X267436Y227243D01*
X266783Y227431D01*
X266113Y227544D01*
X265435Y227582D01*
D02*
G37*
G36*
X373152Y210142D02*
X372473Y210104D01*
X371804Y209990D01*
X371151Y209802D01*
X370523Y209542D01*
X369928Y209213D01*
X369374Y208820D01*
X368867Y208367D01*
X368414Y207860D01*
X368021Y207306D01*
X367692Y206712D01*
X367433Y206084D01*
X367244Y205431D01*
X367131Y204761D01*
X367092Y204082D01*
X367131Y203404D01*
X367244Y202734D01*
X367433Y202081D01*
X367692Y201453D01*
X368021Y200859D01*
X368414Y200304D01*
X368867Y199798D01*
X369374Y199345D01*
X369928Y198952D01*
X370523Y198623D01*
X371151Y198363D01*
X371804Y198175D01*
X372473Y198061D01*
X373152Y198023D01*
X373830Y198061D01*
X374500Y198175D01*
X375153Y198363D01*
X375781Y198623D01*
X376376Y198952D01*
X376930Y199345D01*
X377437Y199798D01*
X377889Y200304D01*
X378283Y200859D01*
X378611Y201453D01*
X378871Y202081D01*
X379059Y202734D01*
X379173Y203404D01*
X379211Y204082D01*
X379173Y204761D01*
X379059Y205431D01*
X378871Y206084D01*
X378611Y206712D01*
X378283Y207306D01*
X377889Y207860D01*
X377437Y208367D01*
X376930Y208820D01*
X376376Y209213D01*
X375781Y209542D01*
X375153Y209802D01*
X374500Y209990D01*
X373830Y210104D01*
X373152Y210142D01*
D02*
G37*
G36*
X275028Y202681D02*
X274350Y202643D01*
X273680Y202529D01*
X273027Y202341D01*
X272399Y202081D01*
X271804Y201752D01*
X271250Y201359D01*
X270743Y200906D01*
X270291Y200400D01*
X269897Y199846D01*
X269569Y199251D01*
X269309Y198623D01*
X269121Y197970D01*
X269007Y197300D01*
X268969Y196622D01*
X269007Y195943D01*
X269121Y195273D01*
X269309Y194620D01*
X269569Y193993D01*
X269897Y193398D01*
X270291Y192844D01*
X270743Y192337D01*
X271250Y191884D01*
X271804Y191491D01*
X272399Y191162D01*
X273027Y190902D01*
X273680Y190714D01*
X274350Y190600D01*
X275028Y190562D01*
X275707Y190600D01*
X276376Y190714D01*
X277029Y190902D01*
X277657Y191162D01*
X278252Y191491D01*
X278806Y191884D01*
X279313Y192337D01*
X279766Y192844D01*
X280159Y193398D01*
X280487Y193993D01*
X280748Y194620D01*
X280936Y195273D01*
X281049Y195943D01*
X281088Y196622D01*
X281049Y197300D01*
X280936Y197970D01*
X280748Y198623D01*
X280487Y199251D01*
X280159Y199846D01*
X279766Y200400D01*
X279313Y200906D01*
X278806Y201359D01*
X278252Y201752D01*
X277657Y202081D01*
X277029Y202341D01*
X276376Y202529D01*
X275707Y202643D01*
X275028Y202681D01*
D02*
G37*
G36*
X72615Y191050D02*
Y183369D01*
X80296D01*
X80256Y183670D01*
X80085Y184441D01*
X79848Y185194D01*
X79546Y185923D01*
X79181Y186623D01*
X78757Y187289D01*
X78277Y187915D01*
X77743Y188497D01*
X77161Y189031D01*
X76535Y189511D01*
X75869Y189935D01*
X75169Y190300D01*
X74440Y190602D01*
X73687Y190839D01*
X72916Y191010D01*
X72615Y191050D01*
D02*
G37*
G36*
X70075D02*
X69774Y191010D01*
X69003Y190839D01*
X68250Y190602D01*
X67521Y190300D01*
X66821Y189935D01*
X66155Y189511D01*
X65529Y189031D01*
X64947Y188497D01*
X64413Y187915D01*
X63933Y187289D01*
X63509Y186623D01*
X63144Y185923D01*
X62842Y185194D01*
X62605Y184441D01*
X62434Y183670D01*
X62394Y183369D01*
X70075D01*
Y191050D01*
D02*
G37*
G36*
X257099Y194060D02*
X256421Y194021D01*
X255751Y193908D01*
X255098Y193720D01*
X254470Y193460D01*
X253876Y193131D01*
X253321Y192738D01*
X252815Y192285D01*
X252362Y191778D01*
X251969Y191224D01*
X251640Y190629D01*
X251380Y190001D01*
X251192Y189349D01*
X251078Y188679D01*
X251040Y188000D01*
X251078Y187322D01*
X251192Y186652D01*
X251380Y185999D01*
X251640Y185371D01*
X251969Y184776D01*
X252362Y184222D01*
X252815Y183715D01*
X253321Y183263D01*
X253876Y182869D01*
X254470Y182541D01*
X255098Y182281D01*
X255751Y182092D01*
X256421Y181979D01*
X257099Y181941D01*
X257778Y181979D01*
X258448Y182092D01*
X259101Y182281D01*
X259729Y182541D01*
X260323Y182869D01*
X260877Y183263D01*
X261384Y183715D01*
X261837Y184222D01*
X262230Y184776D01*
X262559Y185371D01*
X262819Y185999D01*
X263007Y186652D01*
X263121Y187322D01*
X263159Y188000D01*
X263121Y188679D01*
X263007Y189349D01*
X262819Y190001D01*
X262559Y190629D01*
X262230Y191224D01*
X261837Y191778D01*
X261384Y192285D01*
X260877Y192738D01*
X260323Y193131D01*
X259729Y193460D01*
X259101Y193720D01*
X258448Y193908D01*
X257778Y194021D01*
X257099Y194060D01*
D02*
G37*
G36*
X520902Y192562D02*
X520224Y192524D01*
X519554Y192410D01*
X518901Y192222D01*
X518273Y191962D01*
X517678Y191633D01*
X517124Y191240D01*
X516618Y190787D01*
X516165Y190281D01*
X515771Y189726D01*
X515443Y189132D01*
X515183Y188504D01*
X514995Y187851D01*
X514881Y187181D01*
X514843Y186502D01*
X514881Y185824D01*
X514995Y185154D01*
X515183Y184501D01*
X515443Y183873D01*
X515771Y183279D01*
X516165Y182724D01*
X516618Y182218D01*
X517124Y181765D01*
X517678Y181372D01*
X518273Y181043D01*
X518901Y180783D01*
X519554Y180595D01*
X520224Y180481D01*
X520902Y180443D01*
X521581Y180481D01*
X522251Y180595D01*
X522904Y180783D01*
X523531Y181043D01*
X524126Y181372D01*
X524680Y181765D01*
X525187Y182218D01*
X525640Y182724D01*
X526033Y183279D01*
X526362Y183873D01*
X526622Y184501D01*
X526810Y185154D01*
X526924Y185824D01*
X526962Y186502D01*
X526924Y187181D01*
X526810Y187851D01*
X526622Y188504D01*
X526362Y189132D01*
X526033Y189726D01*
X525640Y190281D01*
X525187Y190787D01*
X524680Y191240D01*
X524126Y191633D01*
X523531Y191962D01*
X522904Y192222D01*
X522251Y192410D01*
X521581Y192524D01*
X520902Y192562D01*
D02*
G37*
G36*
X70075Y180829D02*
X62394D01*
X62434Y180528D01*
X62605Y179757D01*
X62842Y179004D01*
X63144Y178275D01*
X63509Y177575D01*
X63933Y176909D01*
X64413Y176283D01*
X64947Y175701D01*
X65529Y175167D01*
X66155Y174687D01*
X66821Y174263D01*
X67521Y173898D01*
X68250Y173596D01*
X69003Y173359D01*
X69774Y173188D01*
X70075Y173148D01*
Y180829D01*
D02*
G37*
G36*
X80296D02*
X72615D01*
Y173148D01*
X72916Y173188D01*
X73687Y173359D01*
X74440Y173596D01*
X75169Y173898D01*
X75869Y174263D01*
X76535Y174687D01*
X77161Y175167D01*
X77743Y175701D01*
X78277Y176283D01*
X78757Y176909D01*
X79181Y177575D01*
X79546Y178275D01*
X79848Y179004D01*
X80085Y179757D01*
X80256Y180528D01*
X80296Y180829D01*
D02*
G37*
G36*
X71345Y171608D02*
X70516Y171572D01*
X69694Y171464D01*
X68884Y171284D01*
X68093Y171035D01*
X67326Y170717D01*
X66590Y170334D01*
X65891Y169888D01*
X65233Y169383D01*
X64621Y168823D01*
X64061Y168211D01*
X63556Y167553D01*
X63110Y166854D01*
X62727Y166118D01*
X62409Y165351D01*
X62160Y164560D01*
X61980Y163750D01*
X61872Y162928D01*
X61836Y162099D01*
X61872Y161270D01*
X61980Y160448D01*
X62160Y159638D01*
X62409Y158847D01*
X62727Y158080D01*
X63110Y157345D01*
X63556Y156645D01*
X64061Y155987D01*
X64621Y155375D01*
X65233Y154815D01*
X65891Y154310D01*
X66590Y153864D01*
X67326Y153481D01*
X68093Y153163D01*
X68884Y152914D01*
X69694Y152734D01*
X70516Y152626D01*
X71345Y152590D01*
X72174Y152626D01*
X72996Y152734D01*
X73806Y152914D01*
X74597Y153163D01*
X75364Y153481D01*
X76100Y153864D01*
X76799Y154310D01*
X77457Y154815D01*
X78069Y155375D01*
X78629Y155987D01*
X79134Y156645D01*
X79580Y157345D01*
X79963Y158080D01*
X80281Y158847D01*
X80530Y159638D01*
X80709Y160448D01*
X80818Y161270D01*
X80854Y162099D01*
X80818Y162928D01*
X80709Y163750D01*
X80530Y164560D01*
X80281Y165351D01*
X79963Y166118D01*
X79580Y166854D01*
X79134Y167553D01*
X78629Y168211D01*
X78069Y168823D01*
X77457Y169383D01*
X76799Y169888D01*
X76100Y170334D01*
X75364Y170717D01*
X74597Y171035D01*
X73806Y171284D01*
X72996Y171464D01*
X72174Y171572D01*
X71345Y171608D01*
D02*
G37*
G36*
X610439Y397846D02*
X609761Y397808D01*
X609091Y397695D01*
X608438Y397506D01*
X607810Y397246D01*
X607215Y396918D01*
X606661Y396525D01*
X606155Y396072D01*
X605702Y395565D01*
X605308Y395011D01*
X604980Y394416D01*
X604720Y393788D01*
X604532Y393135D01*
X604418Y392465D01*
X604380Y391787D01*
X604418Y391109D01*
X604532Y390439D01*
X604720Y389786D01*
X604980Y389158D01*
X605308Y388563D01*
X605702Y388009D01*
X606155Y387502D01*
X606661Y387049D01*
X607215Y386656D01*
X607810Y386328D01*
X608438Y386068D01*
X609091Y385879D01*
X609761Y385766D01*
X610102Y385746D01*
X620783Y375065D01*
Y180675D01*
X585658Y145550D01*
X525247D01*
X524992Y145778D01*
X524438Y146171D01*
X523843Y146500D01*
X523215Y146760D01*
X522562Y146948D01*
X521893Y147062D01*
X521214Y147100D01*
X520536Y147062D01*
X519866Y146948D01*
X519213Y146760D01*
X518585Y146500D01*
X517990Y146171D01*
X517436Y145778D01*
X516929Y145325D01*
X516477Y144819D01*
X516083Y144264D01*
X515755Y143670D01*
X515495Y143042D01*
X515307Y142389D01*
X515193Y141719D01*
X515155Y141041D01*
X515193Y140362D01*
X515307Y139692D01*
X515495Y139039D01*
X515755Y138412D01*
X516083Y137817D01*
X516477Y137263D01*
X516929Y136756D01*
X517436Y136303D01*
X517990Y135910D01*
X518585Y135581D01*
X519213Y135321D01*
X519866Y135133D01*
X520536Y135019D01*
X521214Y134981D01*
X521893Y135019D01*
X522562Y135133D01*
X523215Y135321D01*
X523843Y135581D01*
X524438Y135910D01*
X524992Y136303D01*
X525247Y136531D01*
X587526D01*
X588115Y136570D01*
X588693Y136685D01*
X589252Y136874D01*
X589781Y137135D01*
X590271Y137463D01*
X590715Y137852D01*
X628481Y175619D01*
X628871Y176062D01*
X629198Y176553D01*
X629459Y177082D01*
X629649Y177640D01*
X629764Y178219D01*
X629802Y178808D01*
Y376934D01*
X629764Y377522D01*
X629649Y378101D01*
X629459Y378659D01*
X629198Y379188D01*
X628871Y379679D01*
X628481Y380122D01*
X616480Y392124D01*
X616461Y392465D01*
X616347Y393135D01*
X616159Y393788D01*
X615899Y394416D01*
X615570Y395011D01*
X615177Y395565D01*
X614724Y396072D01*
X614217Y396525D01*
X613663Y396918D01*
X613068Y397246D01*
X612440Y397506D01*
X611788Y397695D01*
X611118Y397808D01*
X610439Y397846D01*
D02*
G37*
G36*
X633076Y147100D02*
X632397Y147062D01*
X631727Y146948D01*
X631074Y146760D01*
X630447Y146500D01*
X629852Y146171D01*
X629298Y145778D01*
X628791Y145325D01*
X628338Y144818D01*
X627945Y144264D01*
X627616Y143669D01*
X627356Y143041D01*
X627168Y142388D01*
X627054Y141719D01*
X627016Y141040D01*
X627054Y140362D01*
X627168Y139692D01*
X627356Y139039D01*
X627616Y138411D01*
X627945Y137816D01*
X628338Y137262D01*
X628791Y136755D01*
X629298Y136303D01*
X629852Y135909D01*
X630447Y135581D01*
X631074Y135321D01*
X631727Y135133D01*
X632397Y135019D01*
X633076Y134981D01*
X633754Y135019D01*
X634424Y135133D01*
X635077Y135321D01*
X635705Y135581D01*
X636300Y135909D01*
X636854Y136303D01*
X637360Y136755D01*
X637813Y137262D01*
X638206Y137816D01*
X638535Y138411D01*
X638795Y139039D01*
X638983Y139692D01*
X639097Y140362D01*
X639135Y141040D01*
X639097Y141719D01*
X638983Y142388D01*
X638795Y143041D01*
X638535Y143669D01*
X638206Y144264D01*
X637813Y144818D01*
X637360Y145325D01*
X636854Y145778D01*
X636300Y146171D01*
X635705Y146500D01*
X635077Y146760D01*
X634424Y146948D01*
X633754Y147062D01*
X633076Y147100D01*
D02*
G37*
G36*
X239512Y114719D02*
X238833Y114681D01*
X238163Y114567D01*
X237510Y114379D01*
X236882Y114119D01*
X236288Y113791D01*
X235733Y113397D01*
X235227Y112944D01*
X234774Y112438D01*
X234381Y111884D01*
X234052Y111289D01*
X233792Y110661D01*
X233604Y110008D01*
X233490Y109338D01*
X233452Y108660D01*
X233490Y107981D01*
X233604Y107311D01*
X233792Y106658D01*
X234052Y106031D01*
X234381Y105436D01*
X234774Y104882D01*
X235227Y104375D01*
X235733Y103922D01*
X236288Y103529D01*
X236882Y103200D01*
X237510Y102940D01*
X238163Y102752D01*
X238833Y102638D01*
X239512Y102600D01*
X240190Y102638D01*
X240860Y102752D01*
X241513Y102940D01*
X242141Y103200D01*
X242735Y103529D01*
X243290Y103922D01*
X243796Y104375D01*
X244249Y104882D01*
X244642Y105436D01*
X244971Y106031D01*
X245231Y106658D01*
X245419Y107311D01*
X245533Y107981D01*
X245571Y108660D01*
X245533Y109338D01*
X245419Y110008D01*
X245231Y110661D01*
X244971Y111289D01*
X244642Y111884D01*
X244249Y112438D01*
X243796Y112944D01*
X243290Y113397D01*
X242735Y113791D01*
X242141Y114119D01*
X241513Y114379D01*
X240860Y114567D01*
X240190Y114681D01*
X239512Y114719D01*
D02*
G37*
G36*
X296478Y114059D02*
X295799Y114021D01*
X295129Y113907D01*
X294477Y113719D01*
X293849Y113459D01*
X293254Y113131D01*
X292700Y112737D01*
X292193Y112284D01*
X291740Y111778D01*
X291347Y111224D01*
X291018Y110629D01*
X290758Y110001D01*
X290570Y109348D01*
X290456Y108678D01*
X290418Y108000D01*
X290456Y107321D01*
X290570Y106651D01*
X290758Y105998D01*
X291018Y105371D01*
X291347Y104776D01*
X291740Y104222D01*
X292193Y103715D01*
X292700Y103262D01*
X293254Y102869D01*
X293849Y102540D01*
X294477Y102280D01*
X295129Y102092D01*
X295799Y101978D01*
X296478Y101940D01*
X297156Y101978D01*
X297826Y102092D01*
X298479Y102280D01*
X299107Y102540D01*
X299702Y102869D01*
X300256Y103262D01*
X300763Y103715D01*
X301215Y104222D01*
X301609Y104776D01*
X301937Y105371D01*
X302197Y105998D01*
X302385Y106651D01*
X302499Y107321D01*
X302537Y108000D01*
X302499Y108678D01*
X302385Y109348D01*
X302197Y110001D01*
X301937Y110629D01*
X301609Y111224D01*
X301215Y111778D01*
X300763Y112284D01*
X300256Y112737D01*
X299702Y113131D01*
X299107Y113459D01*
X298479Y113719D01*
X297826Y113907D01*
X297156Y114021D01*
X296478Y114059D01*
D02*
G37*
G36*
X577145Y102100D02*
X576466Y102062D01*
X575796Y101948D01*
X575143Y101760D01*
X574515Y101500D01*
X573921Y101171D01*
X573367Y100778D01*
X572860Y100325D01*
X572407Y99818D01*
X572014Y99264D01*
X571685Y98670D01*
X571425Y98042D01*
X571237Y97389D01*
X571123Y96719D01*
X571085Y96040D01*
X571123Y95362D01*
X571237Y94692D01*
X571425Y94039D01*
X571685Y93411D01*
X572014Y92817D01*
X572407Y92262D01*
X572860Y91756D01*
X573367Y91303D01*
X573921Y90910D01*
X574515Y90581D01*
X575143Y90321D01*
X575796Y90133D01*
X576466Y90019D01*
X577145Y89981D01*
X577823Y90019D01*
X578493Y90133D01*
X579146Y90321D01*
X579774Y90581D01*
X580368Y90910D01*
X580923Y91303D01*
X581429Y91756D01*
X581882Y92262D01*
X582275Y92817D01*
X582604Y93411D01*
X582864Y94039D01*
X583052Y94692D01*
X583166Y95362D01*
X583204Y96040D01*
X583166Y96719D01*
X583052Y97389D01*
X582864Y98042D01*
X582604Y98670D01*
X582275Y99264D01*
X581882Y99818D01*
X581429Y100325D01*
X580923Y100778D01*
X580368Y101171D01*
X579774Y101500D01*
X579146Y101760D01*
X578493Y101948D01*
X577823Y102062D01*
X577145Y102100D01*
D02*
G37*
G36*
X521214D02*
X520536Y102062D01*
X519866Y101948D01*
X519213Y101760D01*
X518585Y101500D01*
X517990Y101171D01*
X517436Y100778D01*
X516929Y100325D01*
X516477Y99818D01*
X516083Y99264D01*
X515755Y98670D01*
X515495Y98042D01*
X515307Y97389D01*
X515193Y96719D01*
X515155Y96040D01*
X515193Y95362D01*
X515307Y94692D01*
X515495Y94039D01*
X515755Y93411D01*
X516083Y92817D01*
X516477Y92262D01*
X516929Y91756D01*
X517436Y91303D01*
X517990Y90910D01*
X518585Y90581D01*
X519213Y90321D01*
X519866Y90133D01*
X520536Y90019D01*
X521214Y89981D01*
X521893Y90019D01*
X522562Y90133D01*
X523215Y90321D01*
X523843Y90581D01*
X524438Y90910D01*
X524992Y91303D01*
X525499Y91756D01*
X525952Y92262D01*
X526345Y92817D01*
X526674Y93411D01*
X526934Y94039D01*
X527122Y94692D01*
X527235Y95362D01*
X527274Y96040D01*
X527235Y96719D01*
X527122Y97389D01*
X526934Y98042D01*
X526674Y98670D01*
X526345Y99264D01*
X525952Y99818D01*
X525499Y100325D01*
X524992Y100778D01*
X524438Y101171D01*
X523843Y101500D01*
X523215Y101760D01*
X522562Y101948D01*
X521893Y102062D01*
X521214Y102100D01*
D02*
G37*
G36*
X274918Y94810D02*
X274240Y94771D01*
X273570Y94658D01*
X272917Y94470D01*
X272289Y94210D01*
X271694Y93881D01*
X271140Y93488D01*
X270633Y93035D01*
X270181Y92528D01*
X269787Y91974D01*
X269459Y91379D01*
X269199Y90751D01*
X269011Y90098D01*
X268897Y89429D01*
X268859Y88750D01*
X268897Y88072D01*
X269011Y87402D01*
X269199Y86749D01*
X269459Y86121D01*
X269787Y85526D01*
X270181Y84972D01*
X270633Y84465D01*
X271140Y84013D01*
X271694Y83619D01*
X272289Y83291D01*
X272917Y83031D01*
X273570Y82843D01*
X274240Y82729D01*
X274918Y82691D01*
X275597Y82729D01*
X276266Y82843D01*
X276919Y83031D01*
X277547Y83291D01*
X278142Y83619D01*
X278696Y84013D01*
X279203Y84465D01*
X279656Y84972D01*
X280049Y85526D01*
X280378Y86121D01*
X280638Y86749D01*
X280826Y87402D01*
X280940Y88072D01*
X280978Y88750D01*
X280940Y89429D01*
X280826Y90098D01*
X280638Y90751D01*
X280378Y91379D01*
X280049Y91974D01*
X279656Y92528D01*
X279203Y93035D01*
X278696Y93488D01*
X278142Y93881D01*
X277547Y94210D01*
X276919Y94470D01*
X276266Y94658D01*
X275597Y94771D01*
X274918Y94810D01*
D02*
G37*
G36*
X249610Y85391D02*
X248931Y85353D01*
X248262Y85239D01*
X247609Y85051D01*
X246981Y84791D01*
X246386Y84462D01*
X245832Y84069D01*
X245325Y83617D01*
X244872Y83110D01*
X244479Y82556D01*
X244151Y81961D01*
X243890Y81333D01*
X243702Y80680D01*
X243589Y80010D01*
X243550Y79332D01*
X243589Y78653D01*
X243702Y77983D01*
X243890Y77330D01*
X244151Y76703D01*
X244479Y76108D01*
X244872Y75554D01*
X245325Y75047D01*
X245832Y74594D01*
X246386Y74201D01*
X246981Y73872D01*
X247609Y73612D01*
X248262Y73424D01*
X248931Y73310D01*
X249610Y73272D01*
X250288Y73310D01*
X250958Y73424D01*
X251611Y73612D01*
X252239Y73872D01*
X252834Y74201D01*
X253388Y74594D01*
X253895Y75047D01*
X254347Y75554D01*
X254741Y76108D01*
X255069Y76703D01*
X255329Y77330D01*
X255518Y77983D01*
X255631Y78653D01*
X255669Y79332D01*
X255631Y80010D01*
X255518Y80680D01*
X255329Y81333D01*
X255069Y81961D01*
X254741Y82556D01*
X254347Y83110D01*
X253895Y83617D01*
X253388Y84069D01*
X252834Y84462D01*
X252239Y84791D01*
X251611Y85051D01*
X250958Y85239D01*
X250288Y85353D01*
X249610Y85391D01*
D02*
G37*
G36*
X277670Y70458D02*
X276992Y70420D01*
X276322Y70306D01*
X275669Y70118D01*
X275041Y69858D01*
X274447Y69529D01*
X273892Y69136D01*
X273386Y68683D01*
X272933Y68176D01*
X272540Y67622D01*
X272211Y67027D01*
X271951Y66399D01*
X271763Y65746D01*
X271649Y65077D01*
X271611Y64398D01*
X271649Y63720D01*
X271763Y63050D01*
X271951Y62397D01*
X272211Y61769D01*
X272540Y61174D01*
X272933Y60620D01*
X273386Y60113D01*
X273892Y59661D01*
X274447Y59267D01*
X275041Y58939D01*
X275669Y58679D01*
X276322Y58491D01*
X276992Y58377D01*
X277670Y58339D01*
X278349Y58377D01*
X279019Y58491D01*
X279672Y58679D01*
X280300Y58939D01*
X280894Y59267D01*
X281448Y59661D01*
X281955Y60113D01*
X282408Y60620D01*
X282801Y61174D01*
X283130Y61769D01*
X283390Y62397D01*
X283578Y63050D01*
X283692Y63720D01*
X283730Y64398D01*
X283692Y65077D01*
X283578Y65746D01*
X283390Y66399D01*
X283130Y67027D01*
X282801Y67622D01*
X282408Y68176D01*
X281955Y68683D01*
X281448Y69136D01*
X280894Y69529D01*
X280300Y69858D01*
X279672Y70118D01*
X279019Y70306D01*
X278349Y70420D01*
X277670Y70458D01*
D02*
G37*
G36*
X226533Y67490D02*
X225854Y67452D01*
X225184Y67338D01*
X224532Y67150D01*
X223904Y66890D01*
X223309Y66561D01*
X222755Y66168D01*
X222248Y65715D01*
X221795Y65208D01*
X221402Y64654D01*
X221073Y64059D01*
X220813Y63432D01*
X220625Y62779D01*
X220511Y62109D01*
X220473Y61430D01*
X220511Y60752D01*
X220625Y60082D01*
X220813Y59429D01*
X221073Y58801D01*
X221402Y58207D01*
X221795Y57652D01*
X222248Y57146D01*
X222755Y56693D01*
X223309Y56300D01*
X223904Y55971D01*
X224532Y55711D01*
X225184Y55523D01*
X225854Y55409D01*
X226533Y55371D01*
X227211Y55409D01*
X227881Y55523D01*
X228534Y55711D01*
X229162Y55971D01*
X229757Y56300D01*
X230311Y56693D01*
X230818Y57146D01*
X231270Y57652D01*
X231664Y58207D01*
X231992Y58801D01*
X232252Y59429D01*
X232440Y60082D01*
X232554Y60752D01*
X232592Y61430D01*
X232554Y62109D01*
X232440Y62779D01*
X232252Y63432D01*
X231992Y64059D01*
X231664Y64654D01*
X231270Y65208D01*
X230818Y65715D01*
X230311Y66168D01*
X229757Y66561D01*
X229162Y66890D01*
X228534Y67150D01*
X227881Y67338D01*
X227211Y67452D01*
X226533Y67490D01*
D02*
G37*
G36*
X112454Y96010D02*
X103954D01*
X103243Y95975D01*
X102538Y95870D01*
X101847Y95697D01*
X101176Y95457D01*
X100532Y95153D01*
X99921Y94786D01*
X99349Y94362D01*
X98821Y93884D01*
X98343Y93356D01*
X97919Y92784D01*
X97552Y92173D01*
X97248Y91529D01*
X97008Y90858D01*
X96835Y90167D01*
X96730Y89462D01*
X96695Y88751D01*
Y62251D01*
X96730Y61540D01*
X96835Y60835D01*
X97008Y60144D01*
X97248Y59473D01*
X97552Y58829D01*
X97919Y58218D01*
X98343Y57646D01*
X98821Y57118D01*
X99349Y56640D01*
X99921Y56216D01*
X100532Y55849D01*
X101176Y55545D01*
X101847Y55305D01*
X102538Y55132D01*
X103243Y55027D01*
X103954Y54992D01*
X112454D01*
X113166Y55027D01*
X113870Y55132D01*
X114561Y55305D01*
X115232Y55545D01*
X115876Y55849D01*
X116487Y56216D01*
X117059Y56640D01*
X117587Y57118D01*
X118065Y57646D01*
X118489Y58218D01*
X118856Y58829D01*
X119160Y59473D01*
X119400Y60144D01*
X119573Y60835D01*
X119678Y61540D01*
X119713Y62251D01*
Y88751D01*
X119678Y89462D01*
X119573Y90167D01*
X119400Y90858D01*
X119160Y91529D01*
X118856Y92173D01*
X118489Y92784D01*
X118065Y93356D01*
X117587Y93884D01*
X117059Y94362D01*
X116487Y94786D01*
X115876Y95153D01*
X115232Y95457D01*
X114561Y95697D01*
X113870Y95870D01*
X113166Y95975D01*
X112454Y96010D01*
D02*
G37*
G36*
X52454D02*
X43954D01*
X43243Y95975D01*
X42538Y95870D01*
X41847Y95697D01*
X41176Y95457D01*
X40532Y95153D01*
X39921Y94786D01*
X39349Y94362D01*
X38821Y93884D01*
X38343Y93356D01*
X37919Y92784D01*
X37552Y92173D01*
X37248Y91529D01*
X37008Y90858D01*
X36835Y90167D01*
X36730Y89462D01*
X36695Y88751D01*
Y62251D01*
X36730Y61540D01*
X36835Y60835D01*
X37008Y60144D01*
X37248Y59473D01*
X37552Y58829D01*
X37919Y58218D01*
X38343Y57646D01*
X38821Y57118D01*
X39349Y56640D01*
X39921Y56216D01*
X40532Y55849D01*
X41176Y55545D01*
X41847Y55305D01*
X42538Y55132D01*
X43243Y55027D01*
X43954Y54992D01*
X52454D01*
X53166Y55027D01*
X53870Y55132D01*
X54561Y55305D01*
X55232Y55545D01*
X55876Y55849D01*
X56487Y56216D01*
X57059Y56640D01*
X57587Y57118D01*
X58065Y57646D01*
X58489Y58218D01*
X58856Y58829D01*
X59160Y59473D01*
X59400Y60144D01*
X59573Y60835D01*
X59678Y61540D01*
X59713Y62251D01*
Y88751D01*
X59678Y89462D01*
X59573Y90167D01*
X59400Y90858D01*
X59160Y91529D01*
X58856Y92173D01*
X58489Y92784D01*
X58065Y93356D01*
X57587Y93884D01*
X57059Y94362D01*
X56487Y94786D01*
X55876Y95153D01*
X55232Y95457D01*
X54561Y95697D01*
X53870Y95870D01*
X53166Y95975D01*
X52454Y96010D01*
D02*
G37*
G36*
X442915Y341116D02*
X442236Y341078D01*
X441566Y340964D01*
X440913Y340776D01*
X440285Y340516D01*
X439691Y340187D01*
X439137Y339794D01*
X438630Y339341D01*
X438177Y338834D01*
X437784Y338280D01*
X437455Y337686D01*
X437195Y337058D01*
X437007Y336405D01*
X436893Y335735D01*
X436855Y335056D01*
X436893Y334378D01*
X437007Y333708D01*
X437195Y333055D01*
X437455Y332427D01*
X437784Y331833D01*
X438177Y331278D01*
X438630Y330772D01*
X439137Y330319D01*
X439691Y329926D01*
X440285Y329597D01*
X440794Y329386D01*
X449491Y320689D01*
Y270012D01*
X449526Y269395D01*
X449629Y268786D01*
X449800Y268193D01*
X450037Y267622D01*
X450336Y267081D01*
X450693Y266577D01*
X451105Y266117D01*
X473857Y243365D01*
X474317Y242953D01*
X474821Y242596D01*
X475362Y242297D01*
X475932Y242061D01*
X476526Y241890D01*
X477135Y241786D01*
X477752Y241752D01*
X532638D01*
X545974Y228416D01*
Y187565D01*
X530501Y172092D01*
X499123D01*
X498506Y172057D01*
X497897Y171954D01*
X497304Y171783D01*
X496733Y171547D01*
X496192Y171248D01*
X495689Y170890D01*
X495228Y170479D01*
X474925Y150176D01*
X474514Y149715D01*
X474156Y149212D01*
X473857Y148671D01*
X473621Y148100D01*
X473450Y147507D01*
X473346Y146897D01*
X473312Y146281D01*
Y96058D01*
X473346Y95441D01*
X473450Y94832D01*
X473621Y94239D01*
X473857Y93668D01*
X474156Y93127D01*
X474514Y92624D01*
X474925Y92163D01*
X494159Y72929D01*
X494620Y72517D01*
X495124Y72160D01*
X495664Y71861D01*
X496235Y71624D01*
X496829Y71453D01*
X497438Y71350D01*
X498055Y71315D01*
X588949D01*
X603373Y56891D01*
X603584Y56382D01*
X603913Y55788D01*
X604306Y55233D01*
X604759Y54727D01*
X605265Y54274D01*
X605820Y53881D01*
X606414Y53552D01*
X607042Y53292D01*
X607695Y53104D01*
X608365Y52990D01*
X609043Y52952D01*
X609722Y52990D01*
X610392Y53104D01*
X611045Y53292D01*
X611673Y53552D01*
X612267Y53881D01*
X612821Y54274D01*
X613328Y54727D01*
X613781Y55233D01*
X614174Y55788D01*
X614503Y56382D01*
X614763Y57010D01*
X614951Y57663D01*
X615065Y58333D01*
X615103Y59012D01*
X615065Y59690D01*
X614951Y60360D01*
X614763Y61013D01*
X614503Y61641D01*
X614174Y62235D01*
X613781Y62790D01*
X613328Y63296D01*
X612821Y63749D01*
X612267Y64142D01*
X611673Y64471D01*
X611163Y64682D01*
X595126Y80719D01*
X594665Y81131D01*
X594162Y81488D01*
X593621Y81787D01*
X593050Y82023D01*
X592457Y82194D01*
X591848Y82298D01*
X591231Y82333D01*
X500336D01*
X484329Y98340D01*
Y143999D01*
X501405Y161075D01*
X532783D01*
X533400Y161110D01*
X534009Y161213D01*
X534602Y161384D01*
X535173Y161620D01*
X535714Y161919D01*
X536217Y162277D01*
X536678Y162688D01*
X555378Y181388D01*
X555790Y181849D01*
X556147Y182353D01*
X556446Y182893D01*
X556682Y183464D01*
X556853Y184058D01*
X556957Y184667D01*
X556992Y185283D01*
Y230697D01*
X556957Y231314D01*
X556853Y231923D01*
X556682Y232517D01*
X556446Y233088D01*
X556147Y233628D01*
X555790Y234132D01*
X555378Y234593D01*
X538815Y251155D01*
X538355Y251567D01*
X537851Y251924D01*
X537310Y252223D01*
X536739Y252460D01*
X536146Y252631D01*
X535537Y252734D01*
X534920Y252769D01*
X480033D01*
X460509Y272294D01*
Y322971D01*
X460474Y323588D01*
X460370Y324197D01*
X460200Y324790D01*
X459963Y325361D01*
X459664Y325902D01*
X459307Y326406D01*
X458895Y326866D01*
X448585Y337177D01*
X448374Y337686D01*
X448045Y338280D01*
X447652Y338834D01*
X447199Y339341D01*
X446693Y339794D01*
X446138Y340187D01*
X445544Y340516D01*
X444916Y340776D01*
X444263Y340964D01*
X443593Y341078D01*
X442915Y341116D01*
D02*
G37*
G36*
X447498Y65071D02*
X446819Y65033D01*
X446149Y64919D01*
X445496Y64731D01*
X444869Y64471D01*
X444274Y64142D01*
X443720Y63749D01*
X443213Y63296D01*
X442760Y62790D01*
X442367Y62235D01*
X442038Y61641D01*
X441778Y61013D01*
X441590Y60360D01*
X441476Y59690D01*
X441438Y59012D01*
X441476Y58333D01*
X441590Y57663D01*
X441778Y57010D01*
X442038Y56382D01*
X442367Y55788D01*
X442760Y55233D01*
X443213Y54727D01*
X443720Y54274D01*
X444274Y53881D01*
X444869Y53552D01*
X445496Y53292D01*
X446149Y53104D01*
X446819Y52990D01*
X447498Y52952D01*
X448176Y52990D01*
X448846Y53104D01*
X449499Y53292D01*
X450127Y53552D01*
X450722Y53881D01*
X451276Y54274D01*
X451782Y54727D01*
X452235Y55233D01*
X452629Y55788D01*
X452957Y56382D01*
X453217Y57010D01*
X453405Y57663D01*
X453519Y58333D01*
X453557Y59012D01*
X453519Y59690D01*
X453405Y60360D01*
X453217Y61013D01*
X452957Y61641D01*
X452629Y62235D01*
X452235Y62790D01*
X451782Y63296D01*
X451276Y63749D01*
X450722Y64142D01*
X450127Y64471D01*
X449499Y64731D01*
X448846Y64919D01*
X448176Y65033D01*
X447498Y65071D01*
D02*
G37*
G36*
X343840Y54013D02*
X343162Y53975D01*
X342492Y53861D01*
X341839Y53673D01*
X341211Y53413D01*
X340617Y53084D01*
X340062Y52691D01*
X339556Y52238D01*
X339103Y51731D01*
X338710Y51177D01*
X338381Y50582D01*
X338121Y49955D01*
X337933Y49302D01*
X337819Y48632D01*
X337781Y47953D01*
X337819Y47275D01*
X337933Y46605D01*
X338121Y45952D01*
X338381Y45324D01*
X338710Y44729D01*
X339103Y44175D01*
X339556Y43669D01*
X340062Y43216D01*
X340617Y42823D01*
X341211Y42494D01*
X341839Y42234D01*
X342492Y42046D01*
X343162Y41932D01*
X343840Y41894D01*
X344519Y41932D01*
X345189Y42046D01*
X345842Y42234D01*
X346469Y42494D01*
X347064Y42823D01*
X347618Y43216D01*
X348125Y43669D01*
X348578Y44175D01*
X348971Y44729D01*
X349300Y45324D01*
X349560Y45952D01*
X349748Y46605D01*
X349862Y47275D01*
X349900Y47953D01*
X349862Y48632D01*
X349748Y49302D01*
X349560Y49955D01*
X349300Y50582D01*
X348971Y51177D01*
X348578Y51731D01*
X348125Y52238D01*
X347618Y52691D01*
X347064Y53084D01*
X346469Y53413D01*
X345842Y53673D01*
X345189Y53861D01*
X344519Y53975D01*
X343840Y54013D01*
D02*
G37*
G36*
X91454Y39010D02*
X64954D01*
X64243Y38975D01*
X63538Y38870D01*
X62847Y38697D01*
X62176Y38457D01*
X61532Y38153D01*
X60921Y37787D01*
X60349Y37362D01*
X59821Y36884D01*
X59343Y36356D01*
X58919Y35784D01*
X58552Y35173D01*
X58248Y34529D01*
X58008Y33858D01*
X57835Y33167D01*
X57730Y32463D01*
X57695Y31751D01*
Y23251D01*
X57730Y22540D01*
X57835Y21835D01*
X58008Y21144D01*
X58248Y20473D01*
X58552Y19829D01*
X58919Y19218D01*
X59343Y18646D01*
X59821Y18118D01*
X60349Y17640D01*
X60921Y17216D01*
X61532Y16849D01*
X62176Y16545D01*
X62847Y16305D01*
X63538Y16132D01*
X64243Y16027D01*
X64954Y15992D01*
X91454D01*
X92166Y16027D01*
X92870Y16132D01*
X93561Y16305D01*
X94232Y16545D01*
X94876Y16849D01*
X95487Y17216D01*
X96059Y17640D01*
X96587Y18118D01*
X97065Y18646D01*
X97490Y19218D01*
X97856Y19829D01*
X98160Y20473D01*
X98400Y21144D01*
X98573Y21835D01*
X98678Y22540D01*
X98713Y23251D01*
Y31751D01*
X98678Y32463D01*
X98573Y33167D01*
X98400Y33858D01*
X98160Y34529D01*
X97856Y35173D01*
X97490Y35784D01*
X97065Y36356D01*
X96587Y36884D01*
X96059Y37362D01*
X95487Y37787D01*
X94876Y38153D01*
X94232Y38457D01*
X93561Y38697D01*
X92870Y38870D01*
X92166Y38975D01*
X91454Y39010D01*
D02*
G37*
%LPD*%
D33*
X625293Y178808D02*
Y376934D01*
X587526Y141041D02*
X625293Y178808D01*
X521214Y141041D02*
X587526D01*
X610439Y391787D02*
X625293Y376934D01*
X435406Y351827D02*
X543507D01*
X416223Y332644D02*
X435406Y351827D01*
X416223Y245316D02*
Y332644D01*
X338030Y382585D02*
X347551Y392107D01*
X381080D01*
X458920Y432134D02*
Y509397D01*
X363226Y336440D02*
X458920Y432134D01*
X250220Y336440D02*
X363226D01*
X233810Y352850D02*
X250220Y336440D01*
X328000Y278731D02*
Y290380D01*
X315755Y266486D02*
X328000Y278731D01*
X315755Y226881D02*
Y266486D01*
Y226881D02*
X327929Y214707D01*
X346346D01*
X157100Y409714D02*
X175136Y427750D01*
X157100Y198829D02*
Y409714D01*
X535120Y462869D02*
Y509397D01*
X416223Y245316D02*
X430037Y231503D01*
X520902D01*
X543507Y351827D02*
X635919Y444239D01*
Y509397D01*
X233810Y352850D02*
Y394490D01*
X223960Y404340D02*
X233810Y394490D01*
X210940Y404340D02*
X223960D01*
X407880Y335630D02*
X535120Y462869D01*
X346346Y214707D02*
X378010Y246371D01*
Y328466D01*
X417359Y367815D01*
X407880Y193640D02*
Y335630D01*
X417359Y367815D02*
X509720Y460176D01*
Y509397D01*
X157100Y198829D02*
X191129Y164800D01*
X379040D01*
X407880Y193640D01*
D34*
X451140Y80340D02*
Y132505D01*
X428409Y155236D02*
X451140Y132505D01*
X310891Y155236D02*
X428409D01*
X433990Y68340D02*
Y123772D01*
X421802Y135960D02*
X433990Y123772D01*
X188490Y135960D02*
X421802D01*
X428480Y62830D02*
X433990Y68340D01*
X299537Y143883D02*
X310891Y155236D01*
X366684Y62830D02*
X428480D01*
X357320Y53465D02*
X366684Y62830D01*
X357320Y26797D02*
Y53465D01*
X610519Y26797D02*
Y38609D01*
X592940Y56188D02*
X610519Y38609D01*
X475292Y56188D02*
X592940D01*
X451140Y80340D02*
X475292Y56188D01*
X484320Y446241D02*
Y509397D01*
X367710Y329631D02*
X484320Y446241D01*
X367710Y251960D02*
Y329631D01*
X291280Y488329D02*
X310604Y469005D01*
Y390378D02*
Y469005D01*
X291280Y488329D02*
Y509400D01*
X591231Y76824D02*
X609043Y59012D01*
X498055Y76824D02*
X591231D01*
X478820Y96058D02*
X498055Y76824D01*
X478820Y96058D02*
Y146281D01*
X499123Y166583D01*
X532783D01*
X551483Y185283D01*
Y230697D01*
X534920Y247260D02*
X551483Y230697D01*
X477752Y247260D02*
X534920D01*
X455000Y270012D02*
X477752Y247260D01*
X455000Y270012D02*
Y322971D01*
X442915Y335056D02*
X455000Y322971D01*
X332178Y236634D02*
X352384D01*
X310604Y390378D02*
X328753Y372229D01*
X350200D01*
X352384Y236634D02*
X367710Y251960D01*
X144200Y180250D02*
X188490Y135960D01*
X144200Y180250D02*
Y428480D01*
X158620Y442900D01*
X195857D01*
X211007Y427750D01*
D35*
X257099Y241898D02*
X257201Y242000D01*
X204000Y362000D02*
X204000Y362000D01*
X235276Y120613D02*
X240595Y125933D01*
X159635Y120613D02*
X235276D01*
D37*
X299711Y361530D02*
X371451D01*
X270890Y390351D02*
X299711Y361530D01*
X270890Y390351D02*
Y400860D01*
X257904Y103405D02*
X273601D01*
X243080Y88580D02*
X257904Y103405D01*
X378308Y419960D02*
X393009Y405259D01*
Y383088D02*
Y405259D01*
X371451Y361530D02*
X393009Y383088D01*
X350990Y419960D02*
X378308D01*
X125033Y293343D02*
Y459863D01*
X110552Y474344D02*
X125033Y459863D01*
X80598Y474344D02*
X110552D01*
X102942Y271253D02*
X125033Y293343D01*
Y164903D02*
Y293343D01*
Y164903D02*
X145810Y144125D01*
X71345Y182099D02*
X132934Y120510D01*
X284370Y414340D02*
X289430Y419400D01*
X256029Y439999D02*
X284091D01*
X289430Y434660D01*
Y419400D02*
Y434660D01*
X204000Y201636D02*
Y256636D01*
Y309000D01*
Y362000D01*
X392000Y227364D02*
Y278364D01*
Y195270D02*
Y227364D01*
X270890Y400860D02*
X284370Y414340D01*
X273601Y103405D02*
X273765Y103569D01*
X421000Y77250D02*
Y108420D01*
X204000Y197700D02*
Y201636D01*
X223750Y177950D02*
X374680D01*
X204000Y197700D02*
X223750Y177950D01*
X374680D02*
X392000Y195270D01*
X408910Y120510D02*
X421000Y108420D01*
X273765Y103569D02*
Y119265D01*
X132934Y120510D02*
X408910D01*
X71107Y271253D02*
X102942D01*
D41*
X71345Y182099D02*
D03*
X71107Y271253D02*
D03*
D42*
X635919Y509397D02*
D03*
D43*
X610519Y26797D02*
D03*
X357320D02*
D03*
X509720Y509397D02*
D03*
X535120D02*
D03*
X484320D02*
D03*
X458920D02*
D03*
X291280Y509400D02*
D03*
D46*
X381080Y392107D02*
D03*
X610439Y391787D02*
D03*
X256029Y439999D02*
D03*
X284370Y414340D02*
D03*
X350990Y419960D02*
D03*
X204000Y362000D02*
D03*
X204000Y309000D02*
D03*
Y256636D02*
D03*
Y201636D02*
D03*
X273601Y103405D02*
D03*
X421000Y77250D02*
D03*
X667385Y294146D02*
D03*
X392000Y278364D02*
D03*
Y227364D02*
D03*
X299537Y143883D02*
D03*
X257201Y242000D02*
D03*
X332178Y236634D02*
D03*
X328000Y290380D02*
D03*
X521214Y141041D02*
D03*
X211007Y427750D02*
D03*
X175136D02*
D03*
X338030Y382585D02*
D03*
X609043Y59012D02*
D03*
X520902Y231503D02*
D03*
X80598Y474344D02*
D03*
X210940Y404340D02*
D03*
X442915Y335056D02*
D03*
X603220Y346750D02*
D03*
X350200Y372229D02*
D03*
X243080Y88580D02*
D03*
X240595Y125933D02*
D03*
X145810Y144125D02*
D03*
M02*
