G04 Layer_Color=32896*
%FSLAX44Y44*%
%MOMM*%
G71*
G01*
G75*
%ADD49C,0.1500*%
%ADD53C,0.5080*%
%ADD54C,0.2540*%
%ADD55C,0.0254*%
G36*
X639304Y322627D02*
X636934D01*
Y328023D01*
X635009D01*
X634649Y328044D01*
X634311Y328065D01*
X634014Y328086D01*
X633739Y328129D01*
X633507Y328150D01*
X633274Y328192D01*
X633083Y328234D01*
X632914Y328277D01*
X632766Y328319D01*
X632660Y328340D01*
X632555Y328382D01*
X632470Y328404D01*
X632428Y328425D01*
X632385Y328446D01*
X632068Y328636D01*
X631772Y328848D01*
X631518Y329102D01*
X631306Y329334D01*
X631137Y329546D01*
X631010Y329737D01*
X630925Y329864D01*
X630904Y329885D01*
Y329906D01*
X630714Y330329D01*
X630566Y330752D01*
X630460Y331196D01*
X630375Y331598D01*
X630333Y331958D01*
Y332127D01*
X630312Y332254D01*
Y332360D01*
Y332445D01*
Y332487D01*
Y332508D01*
X630333Y333122D01*
X630418Y333672D01*
X630523Y334137D01*
X630650Y334539D01*
X630735Y334730D01*
X630798Y334878D01*
X630841Y335005D01*
X630904Y335111D01*
X630947Y335195D01*
X630989Y335259D01*
X631010Y335280D01*
Y335301D01*
X631285Y335682D01*
X631560Y335978D01*
X631856Y336232D01*
X632110Y336423D01*
X632364Y336549D01*
X632555Y336655D01*
X632682Y336698D01*
X632703Y336719D01*
X632724D01*
X632872Y336761D01*
X633041Y336782D01*
X633232Y336824D01*
X633443Y336846D01*
X633887Y336888D01*
X634374Y336909D01*
X634797Y336930D01*
X639304D01*
Y322627D01*
D02*
G37*
G36*
X646582Y337142D02*
X647048Y337078D01*
X647429Y337015D01*
X647767Y336930D01*
X648042Y336824D01*
X648254Y336761D01*
X648381Y336698D01*
X648402Y336676D01*
X648423D01*
X648762Y336486D01*
X649037Y336253D01*
X649291Y336021D01*
X649502Y335788D01*
X649671Y335576D01*
X649777Y335407D01*
X649862Y335301D01*
X649883Y335280D01*
Y335259D01*
X650052Y334899D01*
X650179Y334539D01*
X650285Y334180D01*
X650349Y333862D01*
X650391Y333587D01*
X650412Y333355D01*
Y333270D01*
Y333206D01*
Y333185D01*
Y333164D01*
X650391Y332804D01*
X650349Y332445D01*
X650285Y332127D01*
X650201Y331852D01*
X650137Y331620D01*
X650073Y331429D01*
X650031Y331323D01*
X650010Y331281D01*
X649841Y330964D01*
X649650Y330689D01*
X649460Y330456D01*
X649291Y330266D01*
X649121Y330096D01*
X648994Y329990D01*
X648910Y329906D01*
X648889Y329885D01*
X648592Y329694D01*
X648254Y329504D01*
X647873Y329334D01*
X647513Y329186D01*
X647175Y329059D01*
X647048Y329017D01*
X646921Y328975D01*
X646815Y328932D01*
X646730Y328911D01*
X646688Y328890D01*
X646667D01*
X646371Y328806D01*
X646096Y328721D01*
X645842Y328636D01*
X645630Y328552D01*
X645419Y328488D01*
X645249Y328425D01*
X645101Y328382D01*
X644974Y328340D01*
X644784Y328256D01*
X644636Y328192D01*
X644572Y328171D01*
X644551Y328150D01*
X644403Y328065D01*
X644255Y327980D01*
X644149Y327875D01*
X644065Y327790D01*
X643938Y327663D01*
X643895Y327621D01*
Y327599D01*
X643811Y327473D01*
X643768Y327324D01*
X643684Y327071D01*
Y326944D01*
X643663Y326859D01*
Y326796D01*
Y326774D01*
X643684Y326478D01*
X643768Y326203D01*
X643853Y325970D01*
X643980Y325759D01*
X644086Y325611D01*
X644192Y325484D01*
X644276Y325399D01*
X644297Y325378D01*
X644551Y325187D01*
X644826Y325061D01*
X645101Y324955D01*
X645355Y324891D01*
X645609Y324849D01*
X645799Y324828D01*
X645969D01*
X646350Y324849D01*
X646709Y324955D01*
X647006Y325082D01*
X647281Y325251D01*
X647534Y325463D01*
X647746Y325695D01*
X647915Y325949D01*
X648064Y326203D01*
X648190Y326457D01*
X648296Y326711D01*
X648381Y326944D01*
X648444Y327155D01*
X648487Y327324D01*
X648508Y327451D01*
X648529Y327557D01*
Y327578D01*
X650835Y327303D01*
X650772Y326859D01*
X650708Y326436D01*
X650602Y326055D01*
X650497Y325674D01*
X650349Y325336D01*
X650201Y325018D01*
X650052Y324743D01*
X649883Y324468D01*
X649693Y324214D01*
X649502Y323982D01*
X649100Y323601D01*
X648677Y323262D01*
X648254Y323008D01*
X647831Y322797D01*
X647429Y322649D01*
X647048Y322543D01*
X646709Y322479D01*
X646434Y322437D01*
X646223Y322395D01*
X646032D01*
X645588Y322416D01*
X645186Y322458D01*
X644805Y322500D01*
X644445Y322585D01*
X644128Y322691D01*
X643832Y322797D01*
X643557Y322902D01*
X643324Y323029D01*
X643134Y323135D01*
X642943Y323241D01*
X642795Y323347D01*
X642668Y323452D01*
X642583Y323537D01*
X642520Y323579D01*
X642478Y323622D01*
X642457Y323643D01*
X642245Y323897D01*
X642076Y324151D01*
X641906Y324405D01*
X641779Y324659D01*
X641568Y325187D01*
X641441Y325695D01*
X641399Y325907D01*
X641356Y326119D01*
X641335Y326309D01*
X641314Y326457D01*
X641293Y326605D01*
Y326690D01*
Y326753D01*
Y326774D01*
X641314Y327240D01*
X641356Y327663D01*
X641420Y328044D01*
X641504Y328361D01*
X641589Y328615D01*
X641653Y328806D01*
X641695Y328932D01*
X641716Y328975D01*
X641885Y329292D01*
X642076Y329588D01*
X642287Y329842D01*
X642478Y330054D01*
X642668Y330223D01*
X642816Y330329D01*
X642901Y330414D01*
X642943Y330435D01*
X643091Y330541D01*
X643282Y330646D01*
X643684Y330858D01*
X644107Y331027D01*
X644530Y331196D01*
X644911Y331344D01*
X645080Y331387D01*
X645228Y331450D01*
X645355Y331493D01*
X645440Y331514D01*
X645503Y331535D01*
X645525D01*
X645821Y331620D01*
X646096Y331704D01*
X646350Y331789D01*
X646561Y331874D01*
X646773Y331958D01*
X646942Y332022D01*
X647090Y332106D01*
X647238Y332170D01*
X647450Y332276D01*
X647577Y332360D01*
X647662Y332402D01*
X647683Y332424D01*
X647831Y332572D01*
X647958Y332741D01*
X648042Y332889D01*
X648085Y333037D01*
X648127Y333185D01*
X648148Y333291D01*
Y333355D01*
Y333376D01*
X648127Y333587D01*
X648064Y333778D01*
X647979Y333947D01*
X647894Y334095D01*
X647810Y334222D01*
X647725Y334307D01*
X647662Y334349D01*
X647640Y334370D01*
X647429Y334497D01*
X647175Y334603D01*
X646942Y334666D01*
X646709Y334730D01*
X646498Y334751D01*
X646307Y334772D01*
X646159D01*
X645821Y334751D01*
X645525Y334709D01*
X645271Y334624D01*
X645059Y334539D01*
X644890Y334455D01*
X644763Y334370D01*
X644699Y334328D01*
X644678Y334307D01*
X644488Y334095D01*
X644340Y333862D01*
X644234Y333587D01*
X644128Y333333D01*
X644065Y333079D01*
X644022Y332889D01*
X644001Y332804D01*
X643980Y332741D01*
Y332720D01*
Y332699D01*
X641610Y332826D01*
X641631Y333206D01*
X641695Y333566D01*
X641758Y333884D01*
X641843Y334201D01*
X641928Y334476D01*
X642033Y334751D01*
X642160Y334984D01*
X642266Y335195D01*
X642372Y335386D01*
X642478Y335555D01*
X642583Y335703D01*
X642668Y335809D01*
X642753Y335894D01*
X642816Y335978D01*
X642837Y335999D01*
X642859Y336021D01*
X643091Y336232D01*
X643324Y336401D01*
X643599Y336549D01*
X643853Y336676D01*
X644403Y336888D01*
X644911Y337015D01*
X645165Y337078D01*
X645376Y337100D01*
X645588Y337121D01*
X645757Y337142D01*
X645905Y337163D01*
X646096D01*
X646582Y337142D01*
D02*
G37*
G36*
X666683Y322627D02*
X664313D01*
Y336930D01*
X666683D01*
Y322627D01*
D02*
G37*
G36*
X657415Y337142D02*
X657839Y337078D01*
X658219Y336994D01*
X658600Y336888D01*
X658939Y336740D01*
X659256Y336592D01*
X659552Y336423D01*
X659806Y336274D01*
X660039Y336105D01*
X660251Y335936D01*
X660420Y335788D01*
X660568Y335640D01*
X660674Y335534D01*
X660758Y335449D01*
X660801Y335386D01*
X660822Y335365D01*
X661118Y334963D01*
X661372Y334518D01*
X661584Y334074D01*
X661774Y333609D01*
X661943Y333122D01*
X662070Y332656D01*
X662176Y332191D01*
X662261Y331725D01*
X662324Y331302D01*
X662388Y330921D01*
X662430Y330562D01*
X662451Y330244D01*
Y330012D01*
X662472Y329821D01*
Y329694D01*
Y329673D01*
Y329652D01*
X662451Y329017D01*
X662409Y328425D01*
X662324Y327853D01*
X662218Y327324D01*
X662091Y326838D01*
X661964Y326394D01*
X661816Y325970D01*
X661647Y325611D01*
X661499Y325272D01*
X661351Y324976D01*
X661224Y324722D01*
X661097Y324532D01*
X660991Y324362D01*
X660907Y324235D01*
X660864Y324172D01*
X660843Y324151D01*
X660568Y323833D01*
X660272Y323579D01*
X659976Y323347D01*
X659658Y323135D01*
X659341Y322966D01*
X659045Y322818D01*
X658748Y322712D01*
X658452Y322606D01*
X658177Y322543D01*
X657923Y322479D01*
X657691Y322458D01*
X657500Y322416D01*
X657331D01*
X657225Y322395D01*
X657119D01*
X656781Y322416D01*
X656463Y322437D01*
X655871Y322564D01*
X655342Y322733D01*
X655109Y322839D01*
X654898Y322945D01*
X654707Y323050D01*
X654538Y323156D01*
X654390Y323241D01*
X654284Y323326D01*
X654178Y323389D01*
X654115Y323452D01*
X654072Y323474D01*
X654051Y323495D01*
X653819Y323728D01*
X653607Y323960D01*
X653247Y324510D01*
X652930Y325103D01*
X652676Y325674D01*
X652570Y325949D01*
X652486Y326203D01*
X652422Y326436D01*
X652359Y326626D01*
X652316Y326796D01*
X652274Y326922D01*
X652253Y327007D01*
Y327028D01*
X654559Y327917D01*
X654686Y327346D01*
X654855Y326880D01*
X655003Y326478D01*
X655173Y326161D01*
X655321Y325907D01*
X655448Y325738D01*
X655532Y325632D01*
X655554Y325589D01*
X655807Y325357D01*
X656082Y325166D01*
X656357Y325039D01*
X656611Y324955D01*
X656823Y324912D01*
X657013Y324891D01*
X657119Y324870D01*
X657161D01*
X657394Y324891D01*
X657606Y324912D01*
X658029Y325039D01*
X658367Y325230D01*
X658664Y325441D01*
X658918Y325632D01*
X659087Y325822D01*
X659193Y325949D01*
X659235Y325970D01*
Y325992D01*
X659362Y326224D01*
X659489Y326478D01*
X659595Y326774D01*
X659679Y327071D01*
X659827Y327705D01*
X659912Y328340D01*
X659954Y328636D01*
X659976Y328911D01*
X659997Y329165D01*
Y329377D01*
X660018Y329567D01*
Y329694D01*
Y329800D01*
Y329821D01*
Y330287D01*
X659976Y330731D01*
X659933Y331133D01*
X659891Y331493D01*
X659827Y331831D01*
X659764Y332149D01*
X659700Y332424D01*
X659616Y332656D01*
X659531Y332868D01*
X659468Y333058D01*
X659404Y333206D01*
X659341Y333333D01*
X659277Y333418D01*
X659256Y333503D01*
X659214Y333524D01*
Y333545D01*
X659045Y333757D01*
X658875Y333926D01*
X658706Y334074D01*
X658537Y334201D01*
X658177Y334412D01*
X657839Y334539D01*
X657542Y334624D01*
X657310Y334666D01*
X657225Y334688D01*
X657098D01*
X656759Y334666D01*
X656463Y334582D01*
X656209Y334497D01*
X655977Y334370D01*
X655786Y334264D01*
X655638Y334159D01*
X655554Y334074D01*
X655532Y334053D01*
X655300Y333799D01*
X655109Y333524D01*
X654940Y333228D01*
X654813Y332931D01*
X654728Y332677D01*
X654665Y332466D01*
X654644Y332381D01*
Y332318D01*
X654622Y332297D01*
Y332276D01*
X652274Y332953D01*
X652359Y333291D01*
X652464Y333609D01*
X652570Y333905D01*
X652676Y334201D01*
X652803Y334455D01*
X652909Y334688D01*
X653036Y334878D01*
X653141Y335068D01*
X653247Y335238D01*
X653353Y335386D01*
X653438Y335513D01*
X653522Y335619D01*
X653586Y335682D01*
X653628Y335746D01*
X653649Y335788D01*
X653670D01*
X653924Y336021D01*
X654199Y336232D01*
X654474Y336423D01*
X654750Y336592D01*
X655024Y336719D01*
X655300Y336824D01*
X655828Y336994D01*
X656061Y337057D01*
X656273Y337100D01*
X656463Y337121D01*
X656633Y337142D01*
X656781Y337163D01*
X656971D01*
X657415Y337142D01*
D02*
G37*
%LPC*%
G36*
X636934Y334518D02*
X635284D01*
X635072Y334497D01*
X634861D01*
X634522Y334476D01*
X634268Y334434D01*
X634078Y334412D01*
X633951Y334370D01*
X633887Y334349D01*
X633866D01*
X633697Y334264D01*
X633549Y334180D01*
X633422Y334053D01*
X633295Y333947D01*
X633210Y333841D01*
X633147Y333757D01*
X633105Y333693D01*
X633083Y333672D01*
X632978Y333481D01*
X632893Y333270D01*
X632851Y333079D01*
X632808Y332889D01*
X632787Y332720D01*
X632766Y332593D01*
Y332508D01*
Y332466D01*
X632787Y332212D01*
X632808Y331979D01*
X632872Y331789D01*
X632914Y331620D01*
X632978Y331471D01*
X633041Y331366D01*
X633062Y331302D01*
X633083Y331281D01*
X633210Y331112D01*
X633337Y330964D01*
X633464Y330858D01*
X633591Y330752D01*
X633697Y330689D01*
X633782Y330646D01*
X633845Y330604D01*
X633866D01*
X634078Y330541D01*
X634332Y330498D01*
X634628Y330477D01*
X634924Y330456D01*
X635199Y330435D01*
X636934D01*
Y334518D01*
D02*
G37*
%LPD*%
D49*
X685841Y231224D02*
Y237222D01*
X682841D01*
X681842Y236222D01*
Y234223D01*
X682841Y233223D01*
X685841D01*
X675844Y237222D02*
X677843Y236222D01*
X679842Y234223D01*
Y232224D01*
X678843Y231224D01*
X676843D01*
X675844Y232224D01*
Y233223D01*
X676843Y234223D01*
X679842D01*
D53*
X619005Y318897D02*
G03*
X619005Y318897I-2540J0D01*
G01*
D54*
X624085Y242697D02*
X674885D01*
Y318897D01*
X624085D02*
X674885D01*
X624085Y242697D02*
Y318897D01*
X653622Y535098D02*
X653640Y535080D01*
D55*
X515695Y469232D02*
X517473D01*
X515187Y468978D02*
X518235D01*
X483183D02*
X488263D01*
X632535Y468724D02*
X637107D01*
X608659D02*
X613485D01*
X592403D02*
X596213D01*
X560145D02*
X575131D01*
X524331D02*
X545159D01*
X514933D02*
X518489D01*
X504011D02*
X509345D01*
X483183D02*
X488517D01*
X466927D02*
X469467D01*
X632281Y468470D02*
X637107D01*
X608659D02*
X613485D01*
X592149D02*
X596467D01*
X558875D02*
X575131D01*
X524331D02*
X545159D01*
X514679D02*
X518743D01*
X504011D02*
X509091D01*
X483437D02*
X488771D01*
X466419D02*
X470229D01*
X632281Y468216D02*
X637107D01*
X608913D02*
X613485D01*
X592149D02*
X596467D01*
X557859D02*
X575131D01*
X524331D02*
X545159D01*
X514425D02*
X518743D01*
X503757D02*
X508837D01*
X483691D02*
X488771D01*
X465911D02*
X470483D01*
X632281Y467962D02*
X636853D01*
X608913D02*
X613739D01*
X592149D02*
X596467D01*
X557097D02*
X575131D01*
X524331D02*
X545159D01*
X514425D02*
X518997D01*
X503757D02*
X508837D01*
X483691D02*
X489025D01*
X465657D02*
X470737D01*
X632027Y467708D02*
X636853D01*
X608913D02*
X613739D01*
X591895D02*
X596721D01*
X556589D02*
X575131D01*
X524331D02*
X545159D01*
X514171D02*
X518997D01*
X503503D02*
X508583D01*
X483945D02*
X489025D01*
X465403D02*
X470991D01*
X632027Y467454D02*
X636853D01*
X609167D02*
X613993D01*
X591895D02*
X596721D01*
X556081D02*
X575131D01*
X524331D02*
X545159D01*
X514171D02*
X518997D01*
X503249D02*
X508329D01*
X483945D02*
X489279D01*
X465149D02*
X471245D01*
X632027Y467200D02*
X636599D01*
X609167D02*
X613993D01*
X591641D02*
X596975D01*
X555573D02*
X575131D01*
X524331D02*
X545159D01*
X514171D02*
X518997D01*
X503249D02*
X508329D01*
X484199D02*
X489533D01*
X465149D02*
X471499D01*
X631773Y466946D02*
X636599D01*
X609421D02*
X613993D01*
X591641D02*
X596975D01*
X555065D02*
X575131D01*
X524331D02*
X545159D01*
X514171D02*
X519251D01*
X502995D02*
X508075D01*
X484453D02*
X489533D01*
X464895D02*
X471499D01*
X631773Y466692D02*
X636345D01*
X609421D02*
X614247D01*
X591641D02*
X596975D01*
X554811D02*
X575131D01*
X524331D02*
X545159D01*
X514171D02*
X518997D01*
X502741D02*
X507821D01*
X484453D02*
X489787D01*
X464895D02*
X471753D01*
X631773Y466438D02*
X636345D01*
X609421D02*
X614247D01*
X591387D02*
X597229D01*
X554557D02*
X575131D01*
X524331D02*
X545159D01*
X514171D02*
X518997D01*
X502741D02*
X507821D01*
X484707D02*
X490041D01*
X464641D02*
X471753D01*
X631519Y466184D02*
X636345D01*
X609675D02*
X614247D01*
X591387D02*
X597229D01*
X554049D02*
X575131D01*
X524331D02*
X545159D01*
X514171D02*
X518997D01*
X502487D02*
X507567D01*
X484961D02*
X490041D01*
X464641D02*
X472007D01*
X631519Y465930D02*
X636091D01*
X609675D02*
X614501D01*
X591133D02*
X597483D01*
X553795D02*
X575131D01*
X524331D02*
X545159D01*
X514425D02*
X518997D01*
X502233D02*
X507567D01*
X484961D02*
X490295D01*
X464641D02*
X472007D01*
X631519Y465676D02*
X636091D01*
X609675D02*
X614501D01*
X591133D02*
X597483D01*
X553541D02*
X575131D01*
X524331D02*
X545159D01*
X514425D02*
X518743D01*
X502233D02*
X507313D01*
X485215D02*
X490295D01*
X464387D02*
X472007D01*
X631265Y465422D02*
X636091D01*
X609929D02*
X614501D01*
X591133D02*
X597483D01*
X553287D02*
X575131D01*
X524331D02*
X545159D01*
X514679D02*
X518743D01*
X501979D02*
X507059D01*
X485469D02*
X490549D01*
X464387D02*
X472007D01*
X631265Y465168D02*
X635837D01*
X609929D02*
X614755D01*
X590879D02*
X597737D01*
X570559D02*
X575131D01*
X553287D02*
X560907D01*
X540841D02*
X545159D01*
X514933D02*
X518489D01*
X501979D02*
X507059D01*
X485469D02*
X490803D01*
X464387D02*
X472261D01*
X631011Y464914D02*
X635837D01*
X610183D02*
X614755D01*
X590879D02*
X597737D01*
X570559D02*
X575131D01*
X553033D02*
X559891D01*
X540841D02*
X545159D01*
X515187D02*
X518235D01*
X501725D02*
X506805D01*
X485723D02*
X490803D01*
X463625D02*
X472769D01*
X631011Y464660D02*
X635583D01*
X610183D02*
X614755D01*
X590879D02*
X597737D01*
X570559D02*
X575131D01*
X552779D02*
X559129D01*
X540841D02*
X545159D01*
X515695D02*
X517473D01*
X501471D02*
X506551D01*
X485977D02*
X491057D01*
X463117D02*
X473531D01*
X631011Y464406D02*
X635583D01*
X610183D02*
X615009D01*
X590625D02*
X597991D01*
X570559D02*
X575131D01*
X552525D02*
X558621D01*
X540841D02*
X545159D01*
X501471D02*
X506551D01*
X485977D02*
X491311D01*
X462609D02*
X474039D01*
X630757Y464152D02*
X635583D01*
X610437D02*
X615009D01*
X590625D02*
X597991D01*
X570559D02*
X575131D01*
X552525D02*
X558113D01*
X540841D02*
X545159D01*
X501217D02*
X506297D01*
X486231D02*
X491311D01*
X462101D02*
X474547D01*
X630757Y463898D02*
X635329D01*
X610437D02*
X615009D01*
X590371D02*
X598245D01*
X570559D02*
X575131D01*
X552271D02*
X557859D01*
X540841D02*
X545159D01*
X500963D02*
X506043D01*
X486231D02*
X491565D01*
X472261D02*
X474801D01*
X464641D02*
X471753D01*
X461593D02*
X464387D01*
X630757Y463644D02*
X635329D01*
X610437D02*
X615263D01*
X590371D02*
X598245D01*
X570559D02*
X575131D01*
X552271D02*
X557351D01*
X540841D02*
X545159D01*
X500963D02*
X506043D01*
X486485D02*
X491565D01*
X472769D02*
X475309D01*
X464895D02*
X471753D01*
X461339D02*
X463625D01*
X630503Y463390D02*
X635329D01*
X610691D02*
X615263D01*
X590371D02*
X598245D01*
X570559D02*
X575131D01*
X552017D02*
X557097D01*
X540841D02*
X545159D01*
X500709D02*
X505789D01*
X486739D02*
X491819D01*
X473277D02*
X475563D01*
X464895D02*
X471499D01*
X460831D02*
X463117D01*
X630503Y463136D02*
X635075D01*
X610691D02*
X615263D01*
X594435D02*
X598499D01*
X590117D02*
X594181D01*
X570559D02*
X575131D01*
X551763D02*
X556843D01*
X540841D02*
X545159D01*
X500455D02*
X505789D01*
X486739D02*
X492073D01*
X473785D02*
X476071D01*
X465149D02*
X471499D01*
X460577D02*
X462609D01*
X630503Y462882D02*
X635075D01*
X610945D02*
X615517D01*
X594435D02*
X598499D01*
X590117D02*
X594181D01*
X570559D02*
X575131D01*
X551763D02*
X556589D01*
X540841D02*
X545159D01*
X500455D02*
X505535D01*
X486993D02*
X492073D01*
X474293D02*
X476325D01*
X465149D02*
X471245D01*
X460323D02*
X462355D01*
X630249Y462628D02*
X634821D01*
X610945D02*
X615517D01*
X594689D02*
X598753D01*
X589863D02*
X593927D01*
X570559D02*
X575131D01*
X551763D02*
X556589D01*
X540841D02*
X545159D01*
X500201D02*
X505281D01*
X487247D02*
X492327D01*
X474801D02*
X476579D01*
X465403D02*
X470991D01*
X459815D02*
X461847D01*
X630249Y462374D02*
X634821D01*
X610945D02*
X615517D01*
X594689D02*
X598753D01*
X589863D02*
X593927D01*
X570559D02*
X575131D01*
X551509D02*
X556335D01*
X540841D02*
X545159D01*
X500201D02*
X505281D01*
X487247D02*
X492581D01*
X475055D02*
X476833D01*
X465657D02*
X470737D01*
X459561D02*
X461593D01*
X630249Y462120D02*
X634821D01*
X611199D02*
X615771D01*
X594689D02*
X598753D01*
X589863D02*
X593673D01*
X570559D02*
X575131D01*
X551509D02*
X556335D01*
X540841D02*
X545159D01*
X499947D02*
X505027D01*
X487501D02*
X492581D01*
X475309D02*
X477087D01*
X466165D02*
X470483D01*
X459307D02*
X461085D01*
X629995Y461866D02*
X634567D01*
X611199D02*
X615771D01*
X594943D02*
X599007D01*
X589609D02*
X593673D01*
X570559D02*
X575131D01*
X551509D02*
X556081D01*
X540841D02*
X545159D01*
X499693D02*
X504773D01*
X487755D02*
X492835D01*
X475563D02*
X477341D01*
X466419D02*
X469975D01*
X459053D02*
X460831D01*
X629995Y461612D02*
X634567D01*
X611199D02*
X616025D01*
X594943D02*
X599007D01*
X589609D02*
X593673D01*
X570559D02*
X575131D01*
X551255D02*
X555827D01*
X540841D02*
X545159D01*
X499693D02*
X504773D01*
X487755D02*
X492835D01*
X476071D02*
X477595D01*
X466927D02*
X469467D01*
X458799D02*
X460577D01*
X629995Y461358D02*
X634567D01*
X611453D02*
X616025D01*
X595197D02*
X599007D01*
X589609D02*
X593419D01*
X570559D02*
X575131D01*
X551255D02*
X555827D01*
X540841D02*
X545159D01*
X499439D02*
X504519D01*
X488009D02*
X493089D01*
X476325D02*
X477849D01*
X458545D02*
X460323D01*
X629741Y461104D02*
X634313D01*
X611453D02*
X616025D01*
X595197D02*
X599261D01*
X589355D02*
X593419D01*
X570559D02*
X575131D01*
X551255D02*
X555827D01*
X540841D02*
X545159D01*
X499185D02*
X504265D01*
X488009D02*
X493343D01*
X476579D02*
X478103D01*
X458545D02*
X460069D01*
X629741Y460850D02*
X634313D01*
X611707D02*
X616279D01*
X595197D02*
X599261D01*
X589355D02*
X593419D01*
X570559D02*
X575131D01*
X551255D02*
X555573D01*
X540841D02*
X545159D01*
X499185D02*
X504265D01*
X488263D02*
X493343D01*
X476833D02*
X478357D01*
X458291D02*
X459815D01*
X629741Y460596D02*
X634059D01*
X611707D02*
X616279D01*
X595451D02*
X599515D01*
X589101D02*
X593165D01*
X570559D02*
X575131D01*
X551001D02*
X555573D01*
X540841D02*
X545159D01*
X498931D02*
X504011D01*
X488517D02*
X493597D01*
X477087D02*
X478357D01*
X458037D02*
X459561D01*
X629487Y460342D02*
X634059D01*
X611707D02*
X616279D01*
X595451D02*
X599515D01*
X589101D02*
X593165D01*
X570559D02*
X575131D01*
X551001D02*
X555573D01*
X540841D02*
X545159D01*
X498677D02*
X503757D01*
X488517D02*
X493597D01*
X477087D02*
X478611D01*
X457783D02*
X459307D01*
X629487Y460088D02*
X634059D01*
X611961D02*
X616533D01*
X595451D02*
X599515D01*
X589101D02*
X593165D01*
X570559D02*
X575131D01*
X551001D02*
X555573D01*
X540841D02*
X545159D01*
X514679D02*
X518743D01*
X498677D02*
X503757D01*
X488771D02*
X493343D01*
X477341D02*
X478865D01*
X457783D02*
X459053D01*
X629487Y459834D02*
X633805D01*
X611961D02*
X616533D01*
X595705D02*
X599769D01*
X588847D02*
X592911D01*
X570559D02*
X575131D01*
X551001D02*
X555573D01*
X540841D02*
X545159D01*
X514679D02*
X518743D01*
X498423D02*
X503503D01*
X489025D02*
X493343D01*
X477595D02*
X479119D01*
X457529D02*
X459053D01*
X629233Y459580D02*
X633805D01*
X611961D02*
X616533D01*
X595705D02*
X599769D01*
X588847D02*
X592911D01*
X570559D02*
X575131D01*
X551001D02*
X555319D01*
X540841D02*
X545159D01*
X514679D02*
X518743D01*
X498423D02*
X503503D01*
X489025D02*
X493089D01*
X477849D02*
X479119D01*
X457275D02*
X458799D01*
X629233Y459326D02*
X633805D01*
X612215D02*
X616787D01*
X595705D02*
X599769D01*
X588593D02*
X592657D01*
X570559D02*
X575131D01*
X551001D02*
X555319D01*
X540841D02*
X545159D01*
X514679D02*
X518743D01*
X498169D02*
X503249D01*
X489279D02*
X493089D01*
X477849D02*
X479373D01*
X457275D02*
X458545D01*
X629233Y459072D02*
X633551D01*
X612215D02*
X616787D01*
X595959D02*
X600023D01*
X588593D02*
X592657D01*
X570559D02*
X575131D01*
X551001D02*
X555319D01*
X540841D02*
X545159D01*
X514679D02*
X518743D01*
X497915D02*
X502995D01*
X489533D02*
X492835D01*
X478103D02*
X479373D01*
X457021D02*
X458545D01*
X628979Y458818D02*
X633551D01*
X612215D02*
X616787D01*
X595959D02*
X600023D01*
X588593D02*
X592657D01*
X570559D02*
X575131D01*
X551001D02*
X555319D01*
X540841D02*
X545159D01*
X514679D02*
X518743D01*
X497915D02*
X502995D01*
X489533D02*
X492581D01*
X478103D02*
X479627D01*
X457021D02*
X458291D01*
X628979Y458564D02*
X633551D01*
X612469D02*
X617041D01*
X596213D02*
X600277D01*
X588339D02*
X592403D01*
X570559D02*
X575131D01*
X551001D02*
X555319D01*
X540841D02*
X545159D01*
X514679D02*
X518743D01*
X497661D02*
X502741D01*
X489787D02*
X492581D01*
X478357D02*
X479627D01*
X456767D02*
X458291D01*
X628725Y458310D02*
X633297D01*
X612469D02*
X617041D01*
X596213D02*
X600277D01*
X588339D02*
X592403D01*
X570559D02*
X575131D01*
X551001D02*
X555319D01*
X540841D02*
X545159D01*
X514679D02*
X518743D01*
X497407D02*
X502487D01*
X490041D02*
X492327D01*
X478611D02*
X479881D01*
X456767D02*
X458037D01*
X628725Y458056D02*
X633297D01*
X612723D02*
X617041D01*
X596213D02*
X600277D01*
X588339D02*
X592403D01*
X570559D02*
X575131D01*
X551001D02*
X555319D01*
X540841D02*
X545159D01*
X514679D02*
X518743D01*
X497407D02*
X502487D01*
X490041D02*
X492073D01*
X478611D02*
X479881D01*
X456513D02*
X457783D01*
X628725Y457802D02*
X633043D01*
X612723D02*
X617295D01*
X596467D02*
X600531D01*
X588085D02*
X592149D01*
X570559D02*
X575131D01*
X551001D02*
X555319D01*
X540841D02*
X545159D01*
X514679D02*
X518743D01*
X497153D02*
X502233D01*
X490295D02*
X492073D01*
X478611D02*
X480135D01*
X456513D02*
X457783D01*
X628471Y457548D02*
X633043D01*
X612723D02*
X617295D01*
X596467D02*
X600531D01*
X588085D02*
X592149D01*
X570559D02*
X575131D01*
X551001D02*
X555319D01*
X540841D02*
X545159D01*
X514679D02*
X518743D01*
X496899D02*
X501979D01*
X490295D02*
X491819D01*
X478865D02*
X480135D01*
X456513D02*
X457783D01*
X628471Y457294D02*
X633043D01*
X612977D02*
X617295D01*
X596467D02*
X600785D01*
X587831D02*
X592149D01*
X570559D02*
X575131D01*
X551001D02*
X555573D01*
X540841D02*
X545159D01*
X514679D02*
X518743D01*
X496899D02*
X501979D01*
X490549D02*
X491819D01*
X478865D02*
X480135D01*
X456259D02*
X457529D01*
X628471Y457040D02*
X632789D01*
X612977D02*
X617549D01*
X596721D02*
X600785D01*
X587831D02*
X591895D01*
X570559D02*
X575131D01*
X551001D02*
X555573D01*
X540841D02*
X545159D01*
X514679D02*
X518743D01*
X496645D02*
X501725D01*
X490803D02*
X491565D01*
X479119D02*
X480389D01*
X456259D02*
X457529D01*
X628217Y456786D02*
X632789D01*
X612977D02*
X617549D01*
X596721D02*
X600785D01*
X587831D02*
X591895D01*
X570559D02*
X575131D01*
X551001D02*
X555573D01*
X540841D02*
X545159D01*
X514679D02*
X518743D01*
X496645D02*
X501471D01*
X490803D02*
X491311D01*
X479119D02*
X481405D01*
X454989D02*
X457529D01*
X628217Y456532D02*
X632789D01*
X613231D02*
X617549D01*
X596975D02*
X601039D01*
X587577D02*
X591641D01*
X570559D02*
X575131D01*
X551255D02*
X555573D01*
X540841D02*
X545159D01*
X514679D02*
X518743D01*
X496391D02*
X501471D01*
X491057D02*
X491311D01*
X478611D02*
X482167D01*
X454481D02*
X458037D01*
X628217Y456278D02*
X632535D01*
X613231D02*
X617803D01*
X596975D02*
X601039D01*
X587577D02*
X591641D01*
X570559D02*
X575131D01*
X551255D02*
X555573D01*
X540841D02*
X545159D01*
X514679D02*
X518743D01*
X496137D02*
X501217D01*
X478103D02*
X482421D01*
X453973D02*
X458291D01*
X627963Y456024D02*
X632535D01*
X613485D02*
X617803D01*
X596975D02*
X601039D01*
X587323D02*
X591641D01*
X570559D02*
X575131D01*
X551255D02*
X555827D01*
X540841D02*
X545159D01*
X514679D02*
X518743D01*
X496137D02*
X501217D01*
X477849D02*
X482929D01*
X453719D02*
X458799D01*
X627963Y455770D02*
X632281D01*
X613485D02*
X618057D01*
X597229D02*
X601293D01*
X587323D02*
X591387D01*
X570559D02*
X575131D01*
X551255D02*
X555827D01*
X540841D02*
X545159D01*
X514679D02*
X518743D01*
X495883D02*
X500963D01*
X477595D02*
X483183D01*
X453465D02*
X459053D01*
X627963Y455516D02*
X632281D01*
X613485D02*
X618057D01*
X597229D02*
X601293D01*
X587323D02*
X591387D01*
X570559D02*
X575131D01*
X551255D02*
X556081D01*
X540841D02*
X545159D01*
X514679D02*
X518743D01*
X495629D02*
X500709D01*
X477341D02*
X483183D01*
X453211D02*
X459307D01*
X627709Y455262D02*
X632281D01*
X613739D02*
X618057D01*
X597229D02*
X601547D01*
X587069D02*
X591387D01*
X570559D02*
X575131D01*
X551509D02*
X556081D01*
X540841D02*
X545159D01*
X514679D02*
X518743D01*
X495629D02*
X500709D01*
X477087D02*
X483437D01*
X452957D02*
X459307D01*
X627709Y455008D02*
X632027D01*
X613739D02*
X618311D01*
X597483D02*
X601547D01*
X587069D02*
X591133D01*
X570559D02*
X575131D01*
X551509D02*
X556335D01*
X540841D02*
X545159D01*
X514679D02*
X518743D01*
X495375D02*
X500455D01*
X477087D02*
X483691D01*
X452957D02*
X459561D01*
X627709Y454754D02*
X632027D01*
X613739D02*
X618311D01*
X597483D02*
X601547D01*
X587069D02*
X591133D01*
X570559D02*
X575131D01*
X551509D02*
X556589D01*
X540841D02*
X545159D01*
X514679D02*
X518743D01*
X495121D02*
X500201D01*
X476833D02*
X483691D01*
X452703D02*
X459561D01*
X627455Y454500D02*
X632027D01*
X613993D02*
X618311D01*
X597483D02*
X601801D01*
X586815D02*
X591133D01*
X570559D02*
X575131D01*
X551763D02*
X556589D01*
X526363D02*
X545159D01*
X514679D02*
X518743D01*
X495121D02*
X500201D01*
X476833D02*
X483945D01*
X452703D02*
X459815D01*
X627455Y454246D02*
X631773D01*
X613993D02*
X618565D01*
X597737D02*
X601801D01*
X586815D02*
X590879D01*
X570559D02*
X575131D01*
X551763D02*
X556843D01*
X526363D02*
X545159D01*
X514679D02*
X518743D01*
X494867D02*
X499947D01*
X476579D02*
X483945D01*
X452703D02*
X459815D01*
X627455Y453992D02*
X631773D01*
X614247D02*
X618565D01*
X597737D02*
X602055D01*
X586561D02*
X590879D01*
X570559D02*
X575131D01*
X552017D02*
X557097D01*
X526363D02*
X545159D01*
X514679D02*
X518743D01*
X494867D02*
X499693D01*
X476579D02*
X483945D01*
X452449D02*
X459815D01*
X627201Y453738D02*
X631519D01*
X614247D02*
X618565D01*
X597991D02*
X602055D01*
X586561D02*
X590625D01*
X570559D02*
X575131D01*
X552017D02*
X557351D01*
X526363D02*
X545159D01*
X514679D02*
X518743D01*
X494613D02*
X499693D01*
X476579D02*
X483945D01*
X452449D02*
X460069D01*
X627201Y453484D02*
X631519D01*
X614247D02*
X618819D01*
X597991D02*
X602055D01*
X586561D02*
X590625D01*
X570559D02*
X575131D01*
X552271D02*
X557859D01*
X526363D02*
X545159D01*
X514679D02*
X518743D01*
X494359D02*
X499439D01*
X476579D02*
X484199D01*
X452449D02*
X460069D01*
X627201Y453230D02*
X631519D01*
X614501D02*
X618819D01*
X597991D02*
X602309D01*
X586307D02*
X590625D01*
X570559D02*
X575131D01*
X552271D02*
X558113D01*
X526363D02*
X545159D01*
X514679D02*
X518743D01*
X494359D02*
X499439D01*
X476579D02*
X484199D01*
X452449D02*
X460069D01*
X626947Y452976D02*
X631265D01*
X614501D02*
X618819D01*
X598245D02*
X602309D01*
X586307D02*
X590371D01*
X570559D02*
X575131D01*
X552525D02*
X558621D01*
X526363D02*
X545159D01*
X514679D02*
X518743D01*
X494105D02*
X499185D01*
X476579D02*
X484199D01*
X452449D02*
X460069D01*
X626947Y452722D02*
X631265D01*
X614501D02*
X619073D01*
X598245D02*
X602309D01*
X586307D02*
X590371D01*
X570559D02*
X575131D01*
X552779D02*
X559129D01*
X526363D02*
X545159D01*
X514679D02*
X518743D01*
X493851D02*
X498931D01*
X476579D02*
X483945D01*
X452449D02*
X460069D01*
X626947Y452468D02*
X631265D01*
X614755D02*
X619073D01*
X598245D02*
X602563D01*
X586053D02*
X590371D01*
X570559D02*
X575131D01*
X552779D02*
X560145D01*
X526363D02*
X545159D01*
X514679D02*
X518743D01*
X493851D02*
X498931D01*
X476579D02*
X483945D01*
X452449D02*
X459815D01*
X626693Y452214D02*
X631011D01*
X614755D02*
X619073D01*
X598499D02*
X602563D01*
X586053D02*
X590117D01*
X570559D02*
X575131D01*
X553033D02*
X561923D01*
X526363D02*
X545159D01*
X514679D02*
X518743D01*
X493597D02*
X498931D01*
X476579D02*
X483945D01*
X452449D02*
X459815D01*
X626693Y451960D02*
X631011D01*
X615009D02*
X619327D01*
X598499D02*
X602817D01*
X585799D02*
X590117D01*
X553287D02*
X575131D01*
X526363D02*
X545159D01*
X514679D02*
X518743D01*
X493851D02*
X498931D01*
X476833D02*
X483945D01*
X452703D02*
X459815D01*
X626439Y451706D02*
X630757D01*
X615009D02*
X619327D01*
X598499D02*
X602817D01*
X585799D02*
X590117D01*
X553541D02*
X575131D01*
X526363D02*
X545159D01*
X514679D02*
X518743D01*
X494105D02*
X499185D01*
X476833D02*
X483691D01*
X452703D02*
X459815D01*
X626439Y451452D02*
X630757D01*
X615009D02*
X619327D01*
X598753D02*
X602817D01*
X585799D02*
X589863D01*
X553795D02*
X575131D01*
X526363D02*
X545159D01*
X514679D02*
X518743D01*
X494105D02*
X499439D01*
X476833D02*
X483691D01*
X452957D02*
X459561D01*
X626439Y451198D02*
X630757D01*
X615263D02*
X619581D01*
X598753D02*
X603071D01*
X585545D02*
X589863D01*
X554049D02*
X575131D01*
X526363D02*
X545159D01*
X514679D02*
X518743D01*
X494359D02*
X499439D01*
X477087D02*
X483437D01*
X452957D02*
X459307D01*
X626185Y450944D02*
X630503D01*
X615263D02*
X619581D01*
X599007D02*
X603071D01*
X585545D02*
X589609D01*
X554303D02*
X575131D01*
X540841D02*
X545159D01*
X514679D02*
X518743D01*
X494359D02*
X499693D01*
X477341D02*
X483437D01*
X453211D02*
X459307D01*
X626185Y450690D02*
X630503D01*
X615263D02*
X619581D01*
X599007D02*
X603325D01*
X585291D02*
X589609D01*
X554811D02*
X575131D01*
X540841D02*
X545159D01*
X514679D02*
X518743D01*
X494613D02*
X499947D01*
X477595D02*
X483183D01*
X453465D02*
X459053D01*
X626185Y450436D02*
X630503D01*
X615517D02*
X619835D01*
X599007D02*
X603325D01*
X585291D02*
X589609D01*
X555065D02*
X575131D01*
X540841D02*
X545159D01*
X514679D02*
X518743D01*
X494867D02*
X499947D01*
X477849D02*
X482929D01*
X453719D02*
X458799D01*
X625931Y450182D02*
X630249D01*
X615517D02*
X619835D01*
X599261D02*
X603325D01*
X585291D02*
X589355D01*
X555573D02*
X575131D01*
X540841D02*
X545159D01*
X514679D02*
X518743D01*
X494867D02*
X500201D01*
X478103D02*
X482675D01*
X453973D02*
X458545D01*
X625931Y449928D02*
X630249D01*
X615771D02*
X620089D01*
X599261D02*
X603579D01*
X585037D02*
X589355D01*
X556081D02*
X575131D01*
X540841D02*
X545159D01*
X514679D02*
X518743D01*
X495121D02*
X500455D01*
X478357D02*
X482167D01*
X454227D02*
X458037D01*
X625931Y449674D02*
X630249D01*
X615771D02*
X620089D01*
X599261D02*
X603579D01*
X585037D02*
X589355D01*
X556589D02*
X575131D01*
X540841D02*
X545159D01*
X514679D02*
X518743D01*
X495375D02*
X500455D01*
X478865D02*
X481659D01*
X454989D02*
X457529D01*
X625677Y449420D02*
X629995D01*
X615771D02*
X620089D01*
X599515D02*
X603579D01*
X585037D02*
X589101D01*
X557351D02*
X575131D01*
X540841D02*
X545159D01*
X514679D02*
X518743D01*
X495375D02*
X500709D01*
X479119D02*
X480643D01*
X456005D02*
X457529D01*
X625677Y449166D02*
X629995D01*
X616025D02*
X620343D01*
X599515D02*
X603833D01*
X584783D02*
X589101D01*
X558113D02*
X575131D01*
X540841D02*
X545159D01*
X514679D02*
X518743D01*
X495629D02*
X500709D01*
X478865D02*
X480135D01*
X456259D02*
X457529D01*
X625677Y448912D02*
X629741D01*
X616025D02*
X620343D01*
X599515D02*
X603833D01*
X584783D02*
X588847D01*
X559383D02*
X575131D01*
X540841D02*
X545159D01*
X514679D02*
X518743D01*
X495883D02*
X500963D01*
X478865D02*
X480135D01*
X456259D02*
X457783D01*
X625423Y448658D02*
X629741D01*
X616025D02*
X620343D01*
X599769D02*
X604087D01*
X584529D02*
X588847D01*
X561669D02*
X575131D01*
X540841D02*
X545159D01*
X514679D02*
X518743D01*
X495883D02*
X501217D01*
X478865D02*
X480135D01*
X456513D02*
X457783D01*
X625423Y448404D02*
X629741D01*
X616279D02*
X620597D01*
X599769D02*
X604087D01*
X584529D02*
X588847D01*
X570559D02*
X575131D01*
X540841D02*
X545159D01*
X514679D02*
X518743D01*
X496137D02*
X501217D01*
X478611D02*
X479881D01*
X456513D02*
X457783D01*
X625423Y448150D02*
X629487D01*
X616279D02*
X620597D01*
X600023D02*
X604087D01*
X584529D02*
X588593D01*
X570559D02*
X575131D01*
X540841D02*
X545159D01*
X514679D02*
X518743D01*
X496391D02*
X501471D01*
X478611D02*
X479881D01*
X456767D02*
X458037D01*
X625169Y447896D02*
X629487D01*
X616533D02*
X620597D01*
X599769D02*
X604341D01*
X584275D02*
X588593D01*
X570559D02*
X575131D01*
X540841D02*
X545159D01*
X514679D02*
X518743D01*
X496391D02*
X501725D01*
X490803D02*
X491311D01*
X478357D02*
X479627D01*
X456767D02*
X458037D01*
X625169Y447642D02*
X629487D01*
X616533D02*
X620851D01*
X584275D02*
X604341D01*
X570559D02*
X575131D01*
X540841D02*
X545159D01*
X514679D02*
X518743D01*
X496645D02*
X501725D01*
X490803D02*
X491565D01*
X478357D02*
X479627D01*
X457021D02*
X458291D01*
X625169Y447388D02*
X629233D01*
X616533D02*
X620851D01*
X584021D02*
X604595D01*
X570559D02*
X575131D01*
X540841D02*
X545159D01*
X514679D02*
X518743D01*
X496899D02*
X501979D01*
X490549D02*
X491565D01*
X478103D02*
X479373D01*
X457021D02*
X458291D01*
X624915Y447134D02*
X629233D01*
X616787D02*
X620851D01*
X584021D02*
X604595D01*
X570559D02*
X575131D01*
X540841D02*
X545159D01*
X514679D02*
X518743D01*
X496899D02*
X502233D01*
X490295D02*
X491819D01*
X477849D02*
X479373D01*
X457275D02*
X458545D01*
X624915Y446880D02*
X628979D01*
X616787D02*
X621105D01*
X584021D02*
X604595D01*
X570559D02*
X575131D01*
X540841D02*
X545159D01*
X514679D02*
X518743D01*
X497153D02*
X502233D01*
X490295D02*
X492073D01*
X477849D02*
X479119D01*
X457275D02*
X458799D01*
X624915Y446626D02*
X628979D01*
X616787D02*
X621105D01*
X583767D02*
X604849D01*
X570559D02*
X575131D01*
X540841D02*
X545159D01*
X514679D02*
X518743D01*
X497153D02*
X502487D01*
X490041D02*
X492073D01*
X477595D02*
X479119D01*
X457529D02*
X458799D01*
X624661Y446372D02*
X628979D01*
X617041D02*
X621105D01*
X583767D02*
X604849D01*
X570559D02*
X575131D01*
X540841D02*
X545159D01*
X514679D02*
X518743D01*
X497407D02*
X502741D01*
X490041D02*
X492327D01*
X477341D02*
X478865D01*
X457529D02*
X459053D01*
X624661Y446118D02*
X628725D01*
X617041D02*
X621359D01*
X583767D02*
X604849D01*
X570559D02*
X575131D01*
X540841D02*
X545159D01*
X514679D02*
X518743D01*
X497661D02*
X502741D01*
X489787D02*
X492581D01*
X477341D02*
X478611D01*
X457783D02*
X459307D01*
X624661Y445864D02*
X628725D01*
X617041D02*
X621359D01*
X583513D02*
X605103D01*
X570559D02*
X575131D01*
X540841D02*
X545159D01*
X514679D02*
X518743D01*
X497661D02*
X502995D01*
X489533D02*
X492581D01*
X477087D02*
X478611D01*
X458037D02*
X459561D01*
X624407Y445610D02*
X628725D01*
X617295D02*
X621359D01*
X583513D02*
X605103D01*
X570559D02*
X575131D01*
X540841D02*
X545159D01*
X514679D02*
X518743D01*
X497915D02*
X503249D01*
X489533D02*
X492835D01*
X476833D02*
X478357D01*
X458291D02*
X459815D01*
X624407Y445356D02*
X628471D01*
X617295D02*
X621613D01*
X583259D02*
X605357D01*
X570559D02*
X575131D01*
X540841D02*
X545159D01*
X514679D02*
X518743D01*
X498169D02*
X503249D01*
X489279D02*
X493089D01*
X476579D02*
X478103D01*
X458291D02*
X460069D01*
X624153Y445102D02*
X628471D01*
X617549D02*
X621613D01*
X583259D02*
X605357D01*
X570559D02*
X575131D01*
X540841D02*
X545159D01*
X514679D02*
X518743D01*
X498169D02*
X503503D01*
X489025D02*
X493089D01*
X476325D02*
X477849D01*
X458545D02*
X460323D01*
X624153Y444848D02*
X628217D01*
X617549D02*
X621613D01*
X583259D02*
X605357D01*
X570559D02*
X575131D01*
X540841D02*
X545159D01*
X514679D02*
X518743D01*
X498423D02*
X503503D01*
X489025D02*
X493343D01*
X476071D02*
X477595D01*
X467181D02*
X469213D01*
X458799D02*
X460577D01*
X624153Y444594D02*
X628217D01*
X617549D02*
X621867D01*
X583005D02*
X605611D01*
X570559D02*
X575131D01*
X540841D02*
X545159D01*
X514679D02*
X518743D01*
X498677D02*
X503757D01*
X488771D02*
X493597D01*
X475817D02*
X477595D01*
X466673D02*
X469975D01*
X459053D02*
X460831D01*
X623899Y444340D02*
X628217D01*
X617803D02*
X621867D01*
X583005D02*
X605611D01*
X570559D02*
X575131D01*
X540841D02*
X545159D01*
X514679D02*
X518743D01*
X498677D02*
X504011D01*
X488771D02*
X493597D01*
X475563D02*
X477341D01*
X466165D02*
X470229D01*
X459307D02*
X461085D01*
X623899Y444086D02*
X627963D01*
X617803D02*
X622121D01*
X601293D02*
X605611D01*
X582751D02*
X587323D01*
X570559D02*
X575131D01*
X540841D02*
X545159D01*
X514679D02*
X518743D01*
X498931D02*
X504011D01*
X488517D02*
X493597D01*
X475055D02*
X477087D01*
X465911D02*
X470737D01*
X459561D02*
X461339D01*
X623899Y443832D02*
X627963D01*
X617803D02*
X622121D01*
X601547D02*
X605865D01*
X582751D02*
X587069D01*
X570559D02*
X575131D01*
X540841D02*
X545159D01*
X514679D02*
X518743D01*
X499185D02*
X504265D01*
X488263D02*
X493597D01*
X474801D02*
X476579D01*
X465657D02*
X470991D01*
X459815D02*
X461847D01*
X623645Y443578D02*
X627963D01*
X618057D02*
X622121D01*
X601547D02*
X605865D01*
X582751D02*
X587069D01*
X570559D02*
X575131D01*
X540841D02*
X545159D01*
X514679D02*
X518743D01*
X499185D02*
X504519D01*
X488263D02*
X493343D01*
X474293D02*
X476325D01*
X465403D02*
X471245D01*
X460069D02*
X462101D01*
X623645Y443324D02*
X627709D01*
X618057D02*
X622375D01*
X601801D02*
X606119D01*
X582497D02*
X586815D01*
X570559D02*
X575131D01*
X540841D02*
X545159D01*
X514679D02*
X518743D01*
X499439D02*
X504519D01*
X488009D02*
X493343D01*
X474039D02*
X476071D01*
X465149D02*
X471499D01*
X460323D02*
X462609D01*
X623645Y443070D02*
X627709D01*
X618311D02*
X622375D01*
X601801D02*
X606119D01*
X582497D02*
X586815D01*
X570559D02*
X575131D01*
X540841D02*
X545159D01*
X514679D02*
X518743D01*
X499693D02*
X504773D01*
X487755D02*
X493089D01*
X473531D02*
X475817D01*
X464895D02*
X471499D01*
X460831D02*
X463117D01*
X623391Y442816D02*
X627455D01*
X618311D02*
X622375D01*
X601801D02*
X606119D01*
X582243D02*
X586815D01*
X570559D02*
X575131D01*
X540841D02*
X545159D01*
X514679D02*
X518743D01*
X499693D02*
X505027D01*
X487755D02*
X492835D01*
X473023D02*
X475309D01*
X464895D02*
X471753D01*
X461085D02*
X463625D01*
X623391Y442562D02*
X627455D01*
X618311D02*
X622629D01*
X602055D02*
X606373D01*
X582243D02*
X586561D01*
X570559D02*
X575131D01*
X540841D02*
X545159D01*
X514679D02*
X518743D01*
X499947D02*
X505027D01*
X487501D02*
X492835D01*
X472261D02*
X475055D01*
X464641D02*
X471753D01*
X461593D02*
X464133D01*
X623391Y442308D02*
X627455D01*
X618565D02*
X622629D01*
X602055D02*
X606373D01*
X582243D02*
X586561D01*
X570559D02*
X575131D01*
X540841D02*
X545159D01*
X514679D02*
X518743D01*
X499947D02*
X505281D01*
X487501D02*
X492581D01*
X461847D02*
X474547D01*
X623137Y442054D02*
X627201D01*
X618565D02*
X622629D01*
X602055D02*
X606627D01*
X581989D02*
X586561D01*
X570559D02*
X575131D01*
X540841D02*
X545159D01*
X514679D02*
X518743D01*
X500201D02*
X505535D01*
X487247D02*
X492327D01*
X462355D02*
X474039D01*
X623137Y441800D02*
X627201D01*
X618565D02*
X622883D01*
X602309D02*
X606627D01*
X581989D02*
X586307D01*
X570559D02*
X575131D01*
X540841D02*
X545159D01*
X514679D02*
X518743D01*
X500455D02*
X505535D01*
X486993D02*
X492327D01*
X462863D02*
X473531D01*
X623137Y441546D02*
X627201D01*
X618819D02*
X622883D01*
X602309D02*
X606627D01*
X581989D02*
X586307D01*
X570559D02*
X575131D01*
X540841D02*
X545159D01*
X514679D02*
X518743D01*
X500455D02*
X505789D01*
X486993D02*
X492073D01*
X463371D02*
X473023D01*
X618819Y441292D02*
X626947D01*
X602309D02*
X606881D01*
X581735D02*
X586053D01*
X570559D02*
X575131D01*
X540841D02*
X545159D01*
X514679D02*
X518743D01*
X500709D02*
X505789D01*
X486739D02*
X492073D01*
X464133D02*
X472261D01*
X619073Y441038D02*
X626947D01*
X602563D02*
X606881D01*
X581735D02*
X586053D01*
X570559D02*
X575131D01*
X540841D02*
X545159D01*
X514679D02*
X518743D01*
X500963D02*
X506043D01*
X486485D02*
X491819D01*
X464387D02*
X472007D01*
X619073Y440784D02*
X626693D01*
X602563D02*
X606881D01*
X581481D02*
X586053D01*
X570559D02*
X575131D01*
X540841D02*
X545159D01*
X514679D02*
X518743D01*
X500963D02*
X506297D01*
X486485D02*
X491565D01*
X464387D02*
X472007D01*
X619073Y440530D02*
X626693D01*
X602817D02*
X607135D01*
X581481D02*
X585799D01*
X570559D02*
X575131D01*
X540841D02*
X545159D01*
X514679D02*
X518743D01*
X501217D02*
X506297D01*
X486231D02*
X491565D01*
X464641D02*
X472007D01*
X619327Y440276D02*
X626693D01*
X602817D02*
X607135D01*
X581481D02*
X585799D01*
X570559D02*
X575131D01*
X540841D02*
X545159D01*
X514679D02*
X518743D01*
X501471D02*
X506551D01*
X486231D02*
X491311D01*
X464641D02*
X472007D01*
X619327Y440022D02*
X626439D01*
X602817D02*
X607389D01*
X581227D02*
X585799D01*
X570559D02*
X575131D01*
X540841D02*
X545159D01*
X514679D02*
X518743D01*
X501471D02*
X506805D01*
X485977D02*
X491311D01*
X464641D02*
X471753D01*
X619327Y439768D02*
X626439D01*
X603071D02*
X607389D01*
X581227D02*
X585545D01*
X570559D02*
X575131D01*
X540841D02*
X545159D01*
X514679D02*
X518743D01*
X501725D02*
X506805D01*
X485723D02*
X491057D01*
X464641D02*
X471753D01*
X619581Y439514D02*
X626439D01*
X603071D02*
X607389D01*
X581227D02*
X585545D01*
X570559D02*
X575131D01*
X540841D02*
X545159D01*
X514679D02*
X518743D01*
X501979D02*
X507059D01*
X485723D02*
X490803D01*
X464895D02*
X471753D01*
X619581Y439260D02*
X626185D01*
X603071D02*
X607643D01*
X580973D02*
X585545D01*
X570559D02*
X575131D01*
X540841D02*
X545159D01*
X514679D02*
X518743D01*
X501979D02*
X507313D01*
X485469D02*
X490803D01*
X464895D02*
X471499D01*
X619835Y439006D02*
X626185D01*
X603325D02*
X607643D01*
X580973D02*
X585291D01*
X570559D02*
X575131D01*
X524077D02*
X545159D01*
X514679D02*
X518743D01*
X502233D02*
X507313D01*
X485469D02*
X490549D01*
X465149D02*
X471245D01*
X619835Y438752D02*
X626185D01*
X603325D02*
X607897D01*
X580719D02*
X585291D01*
X570559D02*
X575131D01*
X524077D02*
X545159D01*
X514679D02*
X518743D01*
X502487D02*
X507567D01*
X485215D02*
X490295D01*
X465403D02*
X471245D01*
X619835Y438498D02*
X625931D01*
X603325D02*
X607897D01*
X580719D02*
X585037D01*
X570559D02*
X575131D01*
X524077D02*
X545159D01*
X514679D02*
X518743D01*
X502487D02*
X507821D01*
X484961D02*
X490295D01*
X465657D02*
X470991D01*
X620089Y438244D02*
X625931D01*
X603579D02*
X607897D01*
X580719D02*
X585037D01*
X570559D02*
X575131D01*
X524077D02*
X545159D01*
X514679D02*
X518743D01*
X502741D02*
X507821D01*
X484961D02*
X490041D01*
X465911D02*
X470737D01*
X620089Y437990D02*
X625677D01*
X603579D02*
X608151D01*
X580465D02*
X585037D01*
X570559D02*
X575131D01*
X524077D02*
X545159D01*
X514679D02*
X518743D01*
X502741D02*
X508075D01*
X484707D02*
X490041D01*
X466165D02*
X470229D01*
X620089Y437736D02*
X625677D01*
X603833D02*
X608151D01*
X580465D02*
X584783D01*
X570559D02*
X575131D01*
X524077D02*
X545159D01*
X514679D02*
X518743D01*
X502995D02*
X508329D01*
X484453D02*
X489787D01*
X466673D02*
X469721D01*
X620343Y437482D02*
X625677D01*
X603833D02*
X608151D01*
X580211D02*
X584783D01*
X570559D02*
X575131D01*
X524077D02*
X545159D01*
X514679D02*
X518743D01*
X503249D02*
X508329D01*
X484453D02*
X489533D01*
X467689D02*
X468959D01*
X620343Y437228D02*
X625423D01*
X603833D02*
X608405D01*
X580211D02*
X584783D01*
X570559D02*
X575131D01*
X524077D02*
X545159D01*
X514679D02*
X518743D01*
X503249D02*
X508583D01*
X484199D02*
X489533D01*
X620597Y436974D02*
X625423D01*
X604087D02*
X608405D01*
X580211D02*
X584529D01*
X570559D02*
X575131D01*
X524077D02*
X545159D01*
X514679D02*
X518743D01*
X503503D02*
X508583D01*
X484199D02*
X489279D01*
X620597Y436720D02*
X625423D01*
X604087D02*
X608659D01*
X579957D02*
X584529D01*
X570559D02*
X575131D01*
X524077D02*
X545159D01*
X514679D02*
X518743D01*
X503757D02*
X508837D01*
X483945D02*
X489025D01*
X620597Y436466D02*
X625169D01*
X604087D02*
X608659D01*
X579957D02*
X584275D01*
X570559D02*
X575131D01*
X524077D02*
X545159D01*
X514679D02*
X518743D01*
X503757D02*
X509091D01*
X483691D02*
X489025D01*
X620851Y436212D02*
X625169D01*
X604341D02*
X608659D01*
X579957D02*
X584275D01*
X570559D02*
X575131D01*
X524077D02*
X545159D01*
X514679D02*
X518743D01*
X504011D02*
X509091D01*
X483691D02*
X488771D01*
X620851Y435958D02*
X624915D01*
X604341D02*
X608913D01*
X579703D02*
X584275D01*
X570559D02*
X575131D01*
X524077D02*
X545159D01*
X514679D02*
X518743D01*
X504265D02*
X509345D01*
X483437D02*
X488771D01*
X620851Y435704D02*
X624915D01*
X604341D02*
X608913D01*
X579703D02*
X584021D01*
X570559D02*
X575131D01*
X524077D02*
X545159D01*
X514679D02*
X518743D01*
X504265D02*
X509599D01*
X483183D02*
X488517D01*
X483183Y435450D02*
X488263D01*
X482929Y435196D02*
X488263D01*
X482929Y434942D02*
X488009D01*
X482675Y434688D02*
X488009D01*
X482421Y434434D02*
X487755D01*
X482421Y434180D02*
X487501D01*
X482167Y433926D02*
X487501D01*
X481913Y433672D02*
X487247D01*
X481913Y433418D02*
X486993D01*
X481659Y433164D02*
X486993D01*
X575385Y432910D02*
X576909D01*
X481659D02*
X486739D01*
X589609Y432656D02*
X596467D01*
X574115D02*
X578179D01*
X565987D02*
X567257D01*
X556843D02*
X558113D01*
X547699D02*
X548969D01*
X534491D02*
X544905D01*
X524839D02*
X531443D01*
X506043D02*
X516457D01*
X497407D02*
X502995D01*
X481405D02*
X486739D01*
X588339Y432402D02*
X596467D01*
X573353D02*
X578687D01*
X565733D02*
X567257D01*
X556589D02*
X558113D01*
X547699D02*
X549223D01*
X534491D02*
X544905D01*
X523569D02*
X531443D01*
X506043D02*
X516457D01*
X496137D02*
X502995D01*
X481151D02*
X486485D01*
X587831Y432148D02*
X596467D01*
X572845D02*
X579195D01*
X565733D02*
X567257D01*
X556589D02*
X558367D01*
X547699D02*
X549223D01*
X534491D02*
X544905D01*
X523061D02*
X531443D01*
X506043D02*
X516457D01*
X495375D02*
X502995D01*
X481151D02*
X486231D01*
X587323Y431894D02*
X596467D01*
X572337D02*
X579703D01*
X565733D02*
X567257D01*
X556589D02*
X558367D01*
X547699D02*
X549223D01*
X534491D02*
X544905D01*
X522553D02*
X531443D01*
X506043D02*
X516457D01*
X494867D02*
X502995D01*
X480897D02*
X486231D01*
X586815Y431640D02*
X596467D01*
X576655D02*
X579957D01*
X572083D02*
X575385D01*
X565733D02*
X567003D01*
X556589D02*
X558367D01*
X547699D02*
X549223D01*
X534491D02*
X544905D01*
X522045D02*
X531443D01*
X506043D02*
X516457D01*
X494359D02*
X502995D01*
X480643D02*
X485977D01*
X594943Y431386D02*
X596467D01*
X586561D02*
X589609D01*
X577925D02*
X580211D01*
X571829D02*
X574369D01*
X565479D02*
X567003D01*
X556335D02*
X558621D01*
X547953D02*
X549477D01*
X543381D02*
X544905D01*
X529919D02*
X531443D01*
X521791D02*
X524839D01*
X514933D02*
X516457D01*
X501725D02*
X502995D01*
X494105D02*
X497407D01*
X480643D02*
X485723D01*
X594943Y431132D02*
X596467D01*
X586307D02*
X588593D01*
X578433D02*
X580465D01*
X571575D02*
X573861D01*
X565479D02*
X567003D01*
X556335D02*
X558621D01*
X547953D02*
X549477D01*
X543381D02*
X544905D01*
X529919D02*
X531443D01*
X521537D02*
X523823D01*
X514933D02*
X516457D01*
X501725D02*
X502995D01*
X493851D02*
X496391D01*
X480389D02*
X485723D01*
X594943Y430878D02*
X596467D01*
X586053D02*
X588085D01*
X578687D02*
X580719D01*
X571321D02*
X573353D01*
X565479D02*
X567003D01*
X556335D02*
X558621D01*
X547953D02*
X549477D01*
X543381D02*
X544905D01*
X529919D02*
X531443D01*
X521283D02*
X523315D01*
X514933D02*
X516457D01*
X501725D02*
X502995D01*
X493343D02*
X495629D01*
X480389D02*
X485469D01*
X594943Y430624D02*
X596467D01*
X586053D02*
X587831D01*
X579195D02*
X580973D01*
X571067D02*
X573099D01*
X565479D02*
X566749D01*
X556081D02*
X558621D01*
X547953D02*
X549477D01*
X543381D02*
X544905D01*
X529919D02*
X531443D01*
X521029D02*
X523061D01*
X514933D02*
X516457D01*
X501725D02*
X502995D01*
X493089D02*
X495375D01*
X480135D02*
X485469D01*
X594943Y430370D02*
X596467D01*
X585799D02*
X587577D01*
X579449D02*
X581227D01*
X570813D02*
X572591D01*
X565225D02*
X566749D01*
X557605D02*
X558875D01*
X556081D02*
X557351D01*
X548207D02*
X549731D01*
X543381D02*
X544905D01*
X529919D02*
X531443D01*
X521029D02*
X522807D01*
X514933D02*
X516457D01*
X501725D02*
X502995D01*
X493089D02*
X494867D01*
X479881D02*
X485215D01*
X594943Y430116D02*
X596467D01*
X585545D02*
X587323D01*
X579703D02*
X581227D01*
X570813D02*
X572337D01*
X565225D02*
X566749D01*
X557605D02*
X558875D01*
X556081D02*
X557351D01*
X548207D02*
X549731D01*
X543381D02*
X544905D01*
X529919D02*
X531443D01*
X520775D02*
X522553D01*
X514933D02*
X516457D01*
X501725D02*
X502995D01*
X492835D02*
X494613D01*
X479881D02*
X484961D01*
X594943Y429862D02*
X596467D01*
X585545D02*
X587069D01*
X579957D02*
X581481D01*
X570559D02*
X572337D01*
X565225D02*
X566749D01*
X557605D02*
X558875D01*
X555827D02*
X557351D01*
X548207D02*
X549731D01*
X543381D02*
X544905D01*
X529919D02*
X531443D01*
X520775D02*
X522299D01*
X514933D02*
X516457D01*
X501725D02*
X502995D01*
X492581D02*
X494359D01*
X479627D02*
X484961D01*
X594943Y429608D02*
X596467D01*
X585291D02*
X587069D01*
X579957D02*
X581735D01*
X570559D02*
X572083D01*
X565225D02*
X566495D01*
X557605D02*
X559129D01*
X555827D02*
X557097D01*
X548461D02*
X549731D01*
X543381D02*
X544905D01*
X529919D02*
X531443D01*
X520521D02*
X522299D01*
X514933D02*
X516457D01*
X501725D02*
X502995D01*
X492327D02*
X494105D01*
X479627D02*
X484707D01*
X594943Y429354D02*
X596467D01*
X585291D02*
X586815D01*
X580211D02*
X581735D01*
X570305D02*
X571829D01*
X564971D02*
X566495D01*
X557859D02*
X559129D01*
X555827D02*
X557097D01*
X548461D02*
X549985D01*
X543381D02*
X544905D01*
X529919D02*
X531443D01*
X520521D02*
X522045D01*
X514933D02*
X516457D01*
X501725D02*
X502995D01*
X492327D02*
X493851D01*
X479373D02*
X484707D01*
X594943Y429100D02*
X596467D01*
X585291D02*
X586815D01*
X580211D02*
X581989D01*
X570305D02*
X571829D01*
X564971D02*
X566495D01*
X557859D02*
X559129D01*
X555827D02*
X557097D01*
X548461D02*
X549985D01*
X543381D02*
X544905D01*
X529919D02*
X531443D01*
X520521D02*
X522045D01*
X514933D02*
X516457D01*
X501725D02*
X502995D01*
X492073D02*
X493597D01*
X479119D02*
X484453D01*
X594943Y428846D02*
X596467D01*
X585291D02*
X586561D01*
X580465D02*
X581989D01*
X570051D02*
X571575D01*
X564971D02*
X566495D01*
X557859D02*
X559129D01*
X555573D02*
X556843D01*
X548461D02*
X549985D01*
X543381D02*
X544905D01*
X529919D02*
X531443D01*
X520521D02*
X521791D01*
X514933D02*
X516457D01*
X501725D02*
X502995D01*
X492073D02*
X493597D01*
X479119D02*
X484199D01*
X594943Y428592D02*
X596467D01*
X585037D02*
X586561D01*
X580465D02*
X581989D01*
X570051D02*
X571575D01*
X564971D02*
X566241D01*
X557859D02*
X559383D01*
X555573D02*
X556843D01*
X548715D02*
X549985D01*
X543381D02*
X544905D01*
X529919D02*
X531443D01*
X520267D02*
X521791D01*
X514933D02*
X516457D01*
X501725D02*
X502995D01*
X491819D02*
X493343D01*
X478865D02*
X484199D01*
X594943Y428338D02*
X596467D01*
X585037D02*
X586561D01*
X580719D02*
X582243D01*
X570051D02*
X571321D01*
X564717D02*
X566241D01*
X558113D02*
X559383D01*
X555573D02*
X556843D01*
X548715D02*
X550239D01*
X543381D02*
X544905D01*
X529919D02*
X531443D01*
X520267D02*
X521791D01*
X514933D02*
X516457D01*
X501725D02*
X502995D01*
X491819D02*
X493343D01*
X478611D02*
X483945D01*
X594943Y428084D02*
X596467D01*
X585037D02*
X586561D01*
X580719D02*
X582243D01*
X569797D02*
X571321D01*
X564717D02*
X566241D01*
X558113D02*
X559383D01*
X555319D02*
X556843D01*
X548715D02*
X550239D01*
X543381D02*
X544905D01*
X529919D02*
X531443D01*
X520267D02*
X521791D01*
X514933D02*
X516457D01*
X501725D02*
X502995D01*
X491565D02*
X493089D01*
X478611D02*
X483691D01*
X594943Y427830D02*
X596467D01*
X585037D02*
X586561D01*
X580719D02*
X582243D01*
X569797D02*
X571321D01*
X564717D02*
X566241D01*
X558113D02*
X559637D01*
X555319D02*
X556589D01*
X548715D02*
X550239D01*
X543381D02*
X544905D01*
X529919D02*
X531443D01*
X520267D02*
X521791D01*
X514933D02*
X516457D01*
X501725D02*
X502995D01*
X491565D02*
X493089D01*
X478357D02*
X483691D01*
X594943Y427576D02*
X596467D01*
X585037D02*
X586561D01*
X580973D02*
X582497D01*
X569797D02*
X571321D01*
X564717D02*
X565987D01*
X558367D02*
X559637D01*
X555319D02*
X556589D01*
X548969D02*
X550239D01*
X543381D02*
X544905D01*
X529919D02*
X531443D01*
X520267D02*
X521791D01*
X514933D02*
X516457D01*
X501725D02*
X502995D01*
X491565D02*
X493089D01*
X478357D02*
X483437D01*
X594943Y427322D02*
X596467D01*
X585037D02*
X586561D01*
X580973D02*
X582497D01*
X569797D02*
X571067D01*
X564463D02*
X565987D01*
X558367D02*
X559637D01*
X555319D02*
X556589D01*
X548969D02*
X550493D01*
X543381D02*
X544905D01*
X529919D02*
X531443D01*
X520267D02*
X521791D01*
X514933D02*
X516457D01*
X501725D02*
X502995D01*
X491565D02*
X492835D01*
X478103D02*
X483437D01*
X594943Y427068D02*
X596467D01*
X585037D02*
X586561D01*
X580973D02*
X582497D01*
X569543D02*
X571067D01*
X564463D02*
X565987D01*
X558367D02*
X559891D01*
X555065D02*
X556335D01*
X548969D02*
X550493D01*
X543381D02*
X544905D01*
X529919D02*
X531443D01*
X520267D02*
X521791D01*
X514933D02*
X516457D01*
X501725D02*
X502995D01*
X491311D02*
X492835D01*
X477849D02*
X483183D01*
X594943Y426814D02*
X596467D01*
X585037D02*
X586561D01*
X580973D02*
X582497D01*
X569543D02*
X571067D01*
X564463D02*
X565987D01*
X558621D02*
X559891D01*
X555065D02*
X556335D01*
X548969D02*
X550493D01*
X543381D02*
X544905D01*
X529919D02*
X531443D01*
X520521D02*
X521791D01*
X514933D02*
X516457D01*
X501725D02*
X502995D01*
X491311D02*
X492835D01*
X477849D02*
X482929D01*
X594943Y426560D02*
X596467D01*
X585291D02*
X586561D01*
X580973D02*
X582497D01*
X569543D02*
X571067D01*
X564463D02*
X565733D01*
X558621D02*
X559891D01*
X555065D02*
X556335D01*
X549223D02*
X550493D01*
X543381D02*
X544905D01*
X529919D02*
X531443D01*
X520521D02*
X522045D01*
X514933D02*
X516457D01*
X501725D02*
X502995D01*
X491311D02*
X492835D01*
X477595D02*
X482929D01*
X594943Y426306D02*
X596467D01*
X585291D02*
X586815D01*
X581227D02*
X582497D01*
X569543D02*
X571067D01*
X564209D02*
X565733D01*
X558621D02*
X559891D01*
X554811D02*
X556335D01*
X549223D02*
X550747D01*
X543381D02*
X544905D01*
X529919D02*
X531443D01*
X520521D02*
X522045D01*
X514933D02*
X516457D01*
X501725D02*
X502995D01*
X491311D02*
X492835D01*
X477341D02*
X482675D01*
X594943Y426052D02*
X596467D01*
X585291D02*
X586815D01*
X581227D02*
X582497D01*
X569543D02*
X571067D01*
X564209D02*
X565733D01*
X558621D02*
X560145D01*
X554811D02*
X556081D01*
X549223D02*
X550747D01*
X543381D02*
X544905D01*
X529919D02*
X531443D01*
X520521D02*
X522299D01*
X514933D02*
X516457D01*
X501725D02*
X502995D01*
X491311D02*
X492581D01*
X477341D02*
X482421D01*
X594943Y425798D02*
X596467D01*
X585291D02*
X587069D01*
X581227D02*
X582497D01*
X569543D02*
X571067D01*
X564209D02*
X565733D01*
X558875D02*
X560145D01*
X554811D02*
X556081D01*
X549223D02*
X550747D01*
X543381D02*
X544905D01*
X529919D02*
X531443D01*
X520775D02*
X522299D01*
X514933D02*
X516457D01*
X501725D02*
X502995D01*
X491311D02*
X492581D01*
X477087D02*
X482421D01*
X594943Y425544D02*
X596467D01*
X585545D02*
X587069D01*
X581227D02*
X582497D01*
X569543D02*
X571067D01*
X564209D02*
X565479D01*
X558875D02*
X560145D01*
X554811D02*
X556081D01*
X549477D02*
X550747D01*
X543381D02*
X544905D01*
X529919D02*
X531443D01*
X520775D02*
X522553D01*
X514933D02*
X516457D01*
X501725D02*
X502995D01*
X491311D02*
X492581D01*
X477087D02*
X482167D01*
X594943Y425290D02*
X596467D01*
X585545D02*
X587323D01*
X581227D02*
X582497D01*
X569543D02*
X571067D01*
X563955D02*
X565479D01*
X558875D02*
X560399D01*
X554557D02*
X555827D01*
X549477D02*
X551001D01*
X543381D02*
X544905D01*
X529919D02*
X531443D01*
X521029D02*
X522807D01*
X514933D02*
X516457D01*
X501725D02*
X502995D01*
X491311D02*
X492581D01*
X476833D02*
X482167D01*
X594943Y425036D02*
X596467D01*
X585799D02*
X587577D01*
X581227D02*
X582497D01*
X569543D02*
X571067D01*
X563955D02*
X565479D01*
X559129D02*
X560399D01*
X554557D02*
X555827D01*
X549477D02*
X551001D01*
X535507D02*
X544905D01*
X529919D02*
X531443D01*
X521283D02*
X523061D01*
X507313D02*
X516457D01*
X501725D02*
X502995D01*
X491311D02*
X492581D01*
X476579D02*
X481913D01*
X594943Y424782D02*
X596467D01*
X586053D02*
X587831D01*
X581227D02*
X582497D01*
X569543D02*
X571067D01*
X563955D02*
X565479D01*
X559129D02*
X560399D01*
X554557D02*
X555827D01*
X549477D02*
X551001D01*
X535507D02*
X544905D01*
X529919D02*
X531443D01*
X521283D02*
X523315D01*
X507313D02*
X516457D01*
X501725D02*
X502995D01*
X491311D02*
X492581D01*
X476579D02*
X481659D01*
X594943Y424528D02*
X596467D01*
X586053D02*
X588339D01*
X581227D02*
X582497D01*
X569543D02*
X571067D01*
X563955D02*
X565225D01*
X559129D02*
X560399D01*
X554303D02*
X555827D01*
X549731D02*
X551001D01*
X535507D02*
X544905D01*
X529919D02*
X531443D01*
X521537D02*
X523823D01*
X507313D02*
X516457D01*
X501725D02*
X502995D01*
X491311D02*
X492581D01*
X476325D02*
X481659D01*
X594943Y424274D02*
X596467D01*
X586307D02*
X588847D01*
X581227D02*
X582497D01*
X569543D02*
X571067D01*
X563701D02*
X565225D01*
X559383D02*
X560653D01*
X554303D02*
X555573D01*
X549731D02*
X551255D01*
X535507D02*
X544905D01*
X529919D02*
X531443D01*
X521791D02*
X524839D01*
X507313D02*
X516457D01*
X501725D02*
X502995D01*
X491311D02*
X492581D01*
X476071D02*
X481405D01*
X586561Y424020D02*
X596467D01*
X581227D02*
X582497D01*
X569543D02*
X571067D01*
X563701D02*
X565225D01*
X559383D02*
X560653D01*
X554303D02*
X555573D01*
X549731D02*
X551255D01*
X535761D02*
X544905D01*
X522299D02*
X531443D01*
X507313D02*
X516457D01*
X501725D02*
X502995D01*
X491311D02*
X492581D01*
X476071D02*
X481405D01*
X586815Y423766D02*
X596467D01*
X581227D02*
X582497D01*
X569543D02*
X571067D01*
X563701D02*
X565225D01*
X559383D02*
X560653D01*
X554049D02*
X555573D01*
X549731D02*
X551255D01*
X543381D02*
X544905D01*
X522553D02*
X531443D01*
X514933D02*
X516457D01*
X501725D02*
X502995D01*
X491311D02*
X492581D01*
X475817D02*
X481151D01*
X587323Y423512D02*
X596467D01*
X581227D02*
X582497D01*
X569543D02*
X571067D01*
X563701D02*
X564971D01*
X559383D02*
X560907D01*
X554049D02*
X555319D01*
X549985D02*
X551255D01*
X543381D02*
X544905D01*
X523061D02*
X531443D01*
X514933D02*
X516457D01*
X501725D02*
X502995D01*
X491311D02*
X492581D01*
X475817D02*
X480897D01*
X587831Y423258D02*
X596467D01*
X581227D02*
X582497D01*
X569543D02*
X571067D01*
X563447D02*
X564971D01*
X559637D02*
X560907D01*
X554049D02*
X555319D01*
X549985D02*
X551255D01*
X543381D02*
X544905D01*
X523569D02*
X531443D01*
X514933D02*
X516457D01*
X501725D02*
X502995D01*
X491311D02*
X492581D01*
X475563D02*
X480897D01*
X588847Y423004D02*
X596467D01*
X581227D02*
X582497D01*
X569543D02*
X571067D01*
X563447D02*
X564971D01*
X559637D02*
X560907D01*
X554049D02*
X555319D01*
X549985D02*
X551509D01*
X543381D02*
X544905D01*
X523569D02*
X531443D01*
X514933D02*
X516457D01*
X501725D02*
X502995D01*
X491311D02*
X492581D01*
X475309D02*
X480643D01*
X594943Y422750D02*
X596467D01*
X581227D02*
X582497D01*
X569543D02*
X571067D01*
X563447D02*
X564717D01*
X559637D02*
X561161D01*
X553795D02*
X555319D01*
X549985D02*
X551509D01*
X543381D02*
X544905D01*
X529919D02*
X531443D01*
X523569D02*
X525093D01*
X514933D02*
X516457D01*
X501725D02*
X502995D01*
X491311D02*
X492581D01*
X475309D02*
X480389D01*
X594943Y422496D02*
X596467D01*
X581227D02*
X582497D01*
X569543D02*
X571067D01*
X563447D02*
X564717D01*
X559891D02*
X561161D01*
X553795D02*
X555065D01*
X550239D02*
X551509D01*
X543381D02*
X544905D01*
X529919D02*
X531443D01*
X523315D02*
X524839D01*
X514933D02*
X516457D01*
X501725D02*
X502995D01*
X491311D02*
X492835D01*
X475055D02*
X480389D01*
X594943Y422242D02*
X596467D01*
X580973D02*
X582497D01*
X569543D02*
X571067D01*
X563193D02*
X564717D01*
X559891D02*
X561161D01*
X553795D02*
X555065D01*
X550239D02*
X551763D01*
X543381D02*
X544905D01*
X529919D02*
X531443D01*
X523061D02*
X524839D01*
X514933D02*
X516457D01*
X501725D02*
X502995D01*
X491311D02*
X492835D01*
X474801D02*
X480135D01*
X594943Y421988D02*
X596467D01*
X580973D02*
X582497D01*
X569543D02*
X571067D01*
X563193D02*
X564717D01*
X559891D02*
X561161D01*
X553541D02*
X555065D01*
X550239D02*
X551763D01*
X543381D02*
X544905D01*
X529919D02*
X531443D01*
X523061D02*
X524585D01*
X514933D02*
X516457D01*
X501725D02*
X502995D01*
X491311D02*
X492835D01*
X474801D02*
X480135D01*
X594943Y421734D02*
X596467D01*
X580973D02*
X582497D01*
X569543D02*
X571067D01*
X563193D02*
X564463D01*
X559891D02*
X561415D01*
X553541D02*
X554811D01*
X550239D02*
X551763D01*
X543381D02*
X544905D01*
X529919D02*
X531443D01*
X522807D02*
X524585D01*
X514933D02*
X516457D01*
X501725D02*
X502995D01*
X491311D02*
X492835D01*
X474547D02*
X479881D01*
X594943Y421480D02*
X596467D01*
X580973D02*
X582497D01*
X569797D02*
X571067D01*
X563193D02*
X564463D01*
X560145D02*
X561415D01*
X553541D02*
X554811D01*
X550493D02*
X551763D01*
X543381D02*
X544905D01*
X529919D02*
X531443D01*
X522807D02*
X524331D01*
X514933D02*
X516457D01*
X501725D02*
X502995D01*
X491311D02*
X492835D01*
X474547D02*
X479627D01*
X594943Y421226D02*
X596467D01*
X580973D02*
X582497D01*
X569797D02*
X571321D01*
X562939D02*
X564463D01*
X560145D02*
X561415D01*
X553541D02*
X554811D01*
X550493D02*
X551763D01*
X543381D02*
X544905D01*
X529919D02*
X531443D01*
X522553D02*
X524077D01*
X514933D02*
X516457D01*
X501725D02*
X502995D01*
X491565D02*
X493089D01*
X474293D02*
X479627D01*
X594943Y420972D02*
X596467D01*
X580973D02*
X582243D01*
X569797D02*
X571321D01*
X562939D02*
X564463D01*
X560145D02*
X561669D01*
X553287D02*
X554557D01*
X550493D02*
X552017D01*
X543381D02*
X544905D01*
X529919D02*
X531443D01*
X522553D02*
X524077D01*
X514933D02*
X516457D01*
X501725D02*
X502995D01*
X491565D02*
X493089D01*
X474039D02*
X479373D01*
X594943Y420718D02*
X596467D01*
X580719D02*
X582243D01*
X569797D02*
X571321D01*
X562939D02*
X564209D01*
X560399D02*
X561669D01*
X553287D02*
X554557D01*
X550747D02*
X552017D01*
X543381D02*
X544905D01*
X529919D02*
X531443D01*
X522299D02*
X523823D01*
X514933D02*
X516457D01*
X501725D02*
X502995D01*
X491565D02*
X493089D01*
X474039D02*
X479119D01*
X594943Y420464D02*
X596467D01*
X580719D02*
X582243D01*
X570051D02*
X571321D01*
X562939D02*
X564209D01*
X560399D02*
X561669D01*
X553287D02*
X554557D01*
X550747D02*
X552017D01*
X543381D02*
X544905D01*
X529919D02*
X531443D01*
X522045D02*
X523823D01*
X514933D02*
X516457D01*
X501725D02*
X502995D01*
X491819D02*
X493343D01*
X473785D02*
X479119D01*
X594943Y420210D02*
X596467D01*
X580719D02*
X581989D01*
X570051D02*
X571575D01*
X562685D02*
X564209D01*
X560399D02*
X561669D01*
X553033D02*
X554557D01*
X550747D02*
X552017D01*
X543381D02*
X544905D01*
X529919D02*
X531443D01*
X522045D02*
X523569D01*
X514933D02*
X516457D01*
X501725D02*
X502995D01*
X491819D02*
X493343D01*
X473531D02*
X478865D01*
X594943Y419956D02*
X596467D01*
X580465D02*
X581989D01*
X570051D02*
X571575D01*
X562685D02*
X564209D01*
X560653D02*
X561923D01*
X553033D02*
X554303D01*
X550747D02*
X552271D01*
X543381D02*
X544905D01*
X529919D02*
X531443D01*
X521791D02*
X523315D01*
X514933D02*
X516457D01*
X501725D02*
X502995D01*
X491819D02*
X493597D01*
X473531D02*
X478865D01*
X594943Y419702D02*
X596467D01*
X580465D02*
X581989D01*
X570305D02*
X571829D01*
X562685D02*
X563955D01*
X560653D02*
X561923D01*
X553033D02*
X554303D01*
X551001D02*
X552271D01*
X543381D02*
X544905D01*
X529919D02*
X531443D01*
X521791D02*
X523315D01*
X514933D02*
X516457D01*
X501725D02*
X502995D01*
X492073D02*
X493597D01*
X473277D02*
X478611D01*
X594943Y419448D02*
X596467D01*
X580211D02*
X581735D01*
X570305D02*
X571829D01*
X562685D02*
X563955D01*
X560653D02*
X561923D01*
X553033D02*
X554303D01*
X551001D02*
X552271D01*
X543381D02*
X544905D01*
X529919D02*
X531443D01*
X521537D02*
X523061D01*
X514933D02*
X516457D01*
X501725D02*
X502995D01*
X492327D02*
X493851D01*
X473277D02*
X478357D01*
X594943Y419194D02*
X596467D01*
X580211D02*
X581735D01*
X570305D02*
X572083D01*
X562685D02*
X563955D01*
X560653D02*
X562177D01*
X552779D02*
X554049D01*
X551001D02*
X552271D01*
X543381D02*
X544905D01*
X529919D02*
X531443D01*
X521283D02*
X523061D01*
X514933D02*
X516457D01*
X501725D02*
X502995D01*
X492327D02*
X494105D01*
X473023D02*
X478357D01*
X594943Y418940D02*
X596467D01*
X579957D02*
X581481D01*
X570559D02*
X572083D01*
X562431D02*
X563955D01*
X560907D02*
X562177D01*
X552779D02*
X554049D01*
X551001D02*
X552271D01*
X543381D02*
X544905D01*
X529919D02*
X531443D01*
X521283D02*
X522807D01*
X514933D02*
X516457D01*
X501725D02*
X502995D01*
X492581D02*
X494359D01*
X472769D02*
X478103D01*
X594943Y418686D02*
X596467D01*
X579703D02*
X581481D01*
X570813D02*
X572337D01*
X562431D02*
X563701D01*
X560907D02*
X562177D01*
X552779D02*
X554049D01*
X551255D02*
X552525D01*
X543381D02*
X544905D01*
X529919D02*
X531443D01*
X521029D02*
X522807D01*
X514933D02*
X516457D01*
X501725D02*
X502995D01*
X492835D02*
X494613D01*
X472769D02*
X478103D01*
X594943Y418432D02*
X596467D01*
X579449D02*
X581227D01*
X570813D02*
X572591D01*
X562431D02*
X563701D01*
X560907D02*
X562177D01*
X552779D02*
X554049D01*
X551255D02*
X552525D01*
X543381D02*
X544905D01*
X529919D02*
X531443D01*
X521029D02*
X522553D01*
X514933D02*
X516457D01*
X501725D02*
X502995D01*
X492835D02*
X494867D01*
X472515D02*
X477849D01*
X594943Y418178D02*
X596467D01*
X579195D02*
X580973D01*
X571067D02*
X572845D01*
X561161D02*
X563701D01*
X551255D02*
X553795D01*
X543381D02*
X544905D01*
X529919D02*
X531443D01*
X520775D02*
X522299D01*
X514933D02*
X516457D01*
X501725D02*
X502995D01*
X493089D02*
X495121D01*
X472515D02*
X477595D01*
X594943Y417924D02*
X596467D01*
X578941D02*
X580973D01*
X571321D02*
X573099D01*
X561161D02*
X563701D01*
X551255D02*
X553795D01*
X543381D02*
X544905D01*
X529919D02*
X531443D01*
X520521D02*
X522299D01*
X514933D02*
X516457D01*
X501725D02*
X502995D01*
X493343D02*
X495629D01*
X472261D02*
X477595D01*
X594943Y417670D02*
X596467D01*
X578433D02*
X580719D01*
X571575D02*
X573607D01*
X561161D02*
X563447D01*
X551509D02*
X553795D01*
X543381D02*
X544905D01*
X529919D02*
X531443D01*
X520521D02*
X522045D01*
X514933D02*
X516457D01*
X501725D02*
X502995D01*
X493597D02*
X496137D01*
X472007D02*
X477341D01*
X594943Y417416D02*
X596467D01*
X577925D02*
X580465D01*
X571829D02*
X574115D01*
X561415D02*
X563447D01*
X551509D02*
X553541D01*
X543381D02*
X544905D01*
X529919D02*
X531443D01*
X520267D02*
X522045D01*
X514933D02*
X516457D01*
X501725D02*
X502995D01*
X494105D02*
X496899D01*
X472007D02*
X477087D01*
X594943Y417162D02*
X596467D01*
X577163D02*
X579957D01*
X572083D02*
X574877D01*
X561415D02*
X563447D01*
X551509D02*
X553541D01*
X534491D02*
X544905D01*
X529919D02*
X531443D01*
X520267D02*
X521791D01*
X506043D02*
X516457D01*
X494359D02*
X502995D01*
X471753D02*
X477087D01*
X594943Y416908D02*
X596467D01*
X572337D02*
X579703D01*
X561415D02*
X563447D01*
X551509D02*
X553541D01*
X534491D02*
X544905D01*
X529919D02*
X531443D01*
X520013D02*
X521537D01*
X506043D02*
X516457D01*
X494613D02*
X502995D01*
X471499D02*
X476833D01*
X594943Y416654D02*
X596467D01*
X572591D02*
X579449D01*
X561415D02*
X563193D01*
X551763D02*
X553541D01*
X534491D02*
X544905D01*
X529919D02*
X531443D01*
X519759D02*
X521537D01*
X506043D02*
X516457D01*
X495375D02*
X502995D01*
X471499D02*
X476833D01*
X594943Y416400D02*
X596467D01*
X573099D02*
X578941D01*
X561669D02*
X563193D01*
X551763D02*
X553287D01*
X534491D02*
X544905D01*
X529919D02*
X531443D01*
X519759D02*
X521283D01*
X506043D02*
X516457D01*
X495883D02*
X502995D01*
X471245D02*
X476579D01*
X594943Y416146D02*
X596467D01*
X573861D02*
X578433D01*
X561669D02*
X563193D01*
X551763D02*
X553287D01*
X534491D02*
X544905D01*
X529919D02*
X531443D01*
X519505D02*
X521283D01*
X506043D02*
X516457D01*
X496899D02*
X502995D01*
X471245D02*
X476325D01*
X574623Y415892D02*
X577163D01*
M02*
