G04 Layer_Color=65535*
%FSLAX25Y25*%
%MOIN*%
G70*
G01*
G75*
%ADD24C,0.01000*%
%ADD25C,0.00984*%
%ADD26C,0.00800*%
%ADD27C,0.00787*%
%ADD28C,0.00394*%
%ADD29R,0.01150X0.06501*%
G36*
X100956Y104550D02*
X102171Y102815D01*
X100680D01*
X100068Y103879D01*
X99347Y102815D01*
X97964D01*
X99171Y104550D01*
X98023Y106142D01*
X99540D01*
X100068Y105212D01*
X100680Y106142D01*
X102087D01*
X100956Y104550D01*
D02*
G37*
G36*
X136688Y106209D02*
X136831Y106201D01*
X136990Y106192D01*
X137141Y106175D01*
X137275Y106150D01*
X137292D01*
X137334Y106134D01*
X137401Y106117D01*
X137484Y106092D01*
X137577Y106058D01*
X137669Y106008D01*
X137769Y105949D01*
X137862Y105882D01*
X137870Y105874D01*
X137887Y105857D01*
X137920Y105824D01*
X137954Y105782D01*
X137996Y105723D01*
X138038Y105656D01*
X138079Y105572D01*
X138113Y105480D01*
X138121Y105472D01*
X138130Y105438D01*
X138146Y105388D01*
X138163Y105321D01*
X138180Y105245D01*
X138197Y105161D01*
X138214Y105078D01*
Y104985D01*
Y103519D01*
Y103511D01*
Y103477D01*
Y103435D01*
Y103385D01*
X138222Y103268D01*
X138230Y103209D01*
X138239Y103150D01*
Y103142D01*
X138247Y103125D01*
X138255Y103100D01*
X138272Y103058D01*
X138289Y103008D01*
X138306Y102949D01*
X138373Y102815D01*
X137174D01*
Y102823D01*
X137166Y102840D01*
X137133Y102891D01*
X137099Y102949D01*
X137074Y103008D01*
Y103025D01*
X137065Y103058D01*
X137049Y103125D01*
X137032Y103217D01*
X137023Y103209D01*
X136990Y103175D01*
X136940Y103133D01*
X136873Y103083D01*
X136797Y103025D01*
X136714Y102974D01*
X136630Y102916D01*
X136538Y102874D01*
X136521Y102865D01*
X136479Y102857D01*
X136403Y102832D01*
X136311Y102807D01*
X136194Y102782D01*
X136060Y102765D01*
X135909Y102748D01*
X135750Y102740D01*
X135691D01*
X135649Y102748D01*
X135599D01*
X135540Y102756D01*
X135406Y102773D01*
X135264Y102807D01*
X135113Y102857D01*
X134962Y102916D01*
X134836Y103008D01*
X134820Y103025D01*
X134786Y103058D01*
X134744Y103117D01*
X134686Y103201D01*
X134627Y103301D01*
X134585Y103419D01*
X134551Y103544D01*
X134535Y103695D01*
Y103703D01*
Y103712D01*
Y103762D01*
X134543Y103829D01*
X134560Y103913D01*
X134585Y104013D01*
X134627Y104114D01*
X134677Y104223D01*
X134753Y104315D01*
X134761Y104323D01*
X134794Y104357D01*
X134853Y104399D01*
X134937Y104449D01*
X135054Y104508D01*
X135197Y104567D01*
X135364Y104625D01*
X135465Y104650D01*
X135574Y104675D01*
X135582D01*
X135607Y104684D01*
X135641Y104692D01*
X135691Y104701D01*
X135750Y104709D01*
X135817Y104726D01*
X135959Y104751D01*
X136118Y104784D01*
X136269Y104818D01*
X136403Y104851D01*
X136462Y104868D01*
X136504Y104877D01*
X136512D01*
X136546Y104885D01*
X136588Y104902D01*
X136646Y104919D01*
X136714Y104944D01*
X136789Y104969D01*
X136965Y105036D01*
Y105044D01*
Y105069D01*
X136957Y105111D01*
Y105161D01*
X136923Y105262D01*
X136898Y105312D01*
X136864Y105354D01*
X136856Y105363D01*
X136847Y105371D01*
X136822Y105388D01*
X136781Y105404D01*
X136739Y105421D01*
X136680Y105438D01*
X136604Y105455D01*
X136470D01*
X136412Y105446D01*
X136345D01*
X136194Y105413D01*
X136118Y105388D01*
X136051Y105354D01*
X136043D01*
X136035Y105338D01*
X136010Y105321D01*
X135984Y105287D01*
X135951Y105245D01*
X135917Y105195D01*
X135884Y105136D01*
X135859Y105061D01*
X134635Y105187D01*
Y105203D01*
X134652Y105237D01*
X134660Y105296D01*
X134686Y105371D01*
X134711Y105446D01*
X134744Y105530D01*
X134786Y105614D01*
X134828Y105689D01*
X134836Y105698D01*
X134853Y105723D01*
X134887Y105756D01*
X134929Y105798D01*
X134979Y105849D01*
X135046Y105899D01*
X135121Y105958D01*
X135205Y106008D01*
X135213Y106016D01*
X135239Y106025D01*
X135281Y106041D01*
X135331Y106067D01*
X135398Y106092D01*
X135482Y106117D01*
X135574Y106142D01*
X135683Y106159D01*
X135699D01*
X135733Y106167D01*
X135800Y106175D01*
X135884Y106192D01*
X135984Y106201D01*
X136093Y106209D01*
X136219Y106217D01*
X136554D01*
X136688Y106209D01*
D02*
G37*
G36*
X128266Y107399D02*
X128325D01*
X128384Y107391D01*
X128535Y107365D01*
X128702Y107324D01*
X128870Y107265D01*
X129029Y107181D01*
X129180Y107072D01*
X129188D01*
X129197Y107055D01*
X129238Y107013D01*
X129297Y106946D01*
X129364Y106846D01*
X129423Y106728D01*
X129481Y106595D01*
X129523Y106435D01*
X129540Y106351D01*
Y106259D01*
Y106251D01*
Y106243D01*
Y106192D01*
X129523Y106117D01*
X129507Y106025D01*
X129473Y105916D01*
X129431Y105798D01*
X129364Y105681D01*
X129280Y105564D01*
X129272Y105555D01*
X129247Y105530D01*
X129213Y105497D01*
X129155Y105455D01*
X129088Y105404D01*
X129004Y105354D01*
X128903Y105304D01*
X128786Y105254D01*
X128794D01*
X128811Y105245D01*
X128836D01*
X128870Y105228D01*
X128954Y105203D01*
X129062Y105161D01*
X129180Y105103D01*
X129306Y105027D01*
X129414Y104944D01*
X129515Y104843D01*
X129523Y104826D01*
X129549Y104793D01*
X129590Y104726D01*
X129632Y104642D01*
X129674Y104541D01*
X129716Y104416D01*
X129741Y104273D01*
X129750Y104114D01*
Y104097D01*
Y104055D01*
X129741Y103988D01*
X129733Y103904D01*
X129708Y103804D01*
X129683Y103695D01*
X129641Y103586D01*
X129582Y103477D01*
X129574Y103469D01*
X129549Y103427D01*
X129515Y103376D01*
X129465Y103318D01*
X129398Y103243D01*
X129314Y103167D01*
X129222Y103092D01*
X129121Y103025D01*
X129113D01*
X129088Y103008D01*
X129046Y102991D01*
X128987Y102966D01*
X128912Y102941D01*
X128820Y102916D01*
X128711Y102899D01*
X128585Y102874D01*
X128568D01*
X128543Y102865D01*
X128509D01*
X128426Y102857D01*
X128325Y102849D01*
X128216Y102832D01*
X128116Y102823D01*
X128023Y102815D01*
X125501D01*
Y107407D01*
X128225D01*
X128266Y107399D01*
D02*
G37*
G36*
X141105Y106209D02*
X141180Y106192D01*
X141272Y106175D01*
X141373Y106142D01*
X141490Y106100D01*
X141616Y106041D01*
X141214Y105128D01*
X141205Y105136D01*
X141180Y105145D01*
X141138Y105161D01*
X141088Y105178D01*
X140971Y105212D01*
X140912Y105228D01*
X140820D01*
X140778Y105220D01*
X140719Y105203D01*
X140652Y105178D01*
X140593Y105136D01*
X140526Y105086D01*
X140468Y105019D01*
X140459Y105002D01*
X140434Y104960D01*
X140426Y104927D01*
X140409Y104885D01*
X140392Y104835D01*
X140375Y104776D01*
X140350Y104701D01*
X140334Y104625D01*
X140317Y104533D01*
X140308Y104432D01*
X140292Y104323D01*
X140283Y104206D01*
X140275Y104072D01*
Y103930D01*
Y102815D01*
X138993D01*
Y106142D01*
X140183D01*
Y105597D01*
X140191Y105614D01*
X140216Y105656D01*
X140250Y105715D01*
X140292Y105790D01*
X140409Y105949D01*
X140468Y106025D01*
X140535Y106083D01*
X140543Y106092D01*
X140568Y106108D01*
X140610Y106125D01*
X140660Y106150D01*
X140727Y106175D01*
X140811Y106201D01*
X140895Y106209D01*
X140996Y106217D01*
X141046D01*
X141105Y106209D01*
D02*
G37*
G36*
X115051D02*
X115152Y106201D01*
X115269Y106175D01*
X115403Y106142D01*
X115537Y106083D01*
X115671Y106008D01*
X115797Y105899D01*
X115814Y105882D01*
X115847Y105840D01*
X115889Y105765D01*
X115948Y105656D01*
X116007Y105522D01*
X116048Y105354D01*
X116082Y105153D01*
X116099Y104927D01*
Y102815D01*
X114816D01*
Y104642D01*
Y104659D01*
Y104692D01*
X114808Y104751D01*
X114800Y104818D01*
X114766Y104960D01*
X114741Y105027D01*
X114699Y105086D01*
X114691Y105095D01*
X114674Y105111D01*
X114649Y105128D01*
X114615Y105153D01*
X114565Y105178D01*
X114515Y105203D01*
X114448Y105212D01*
X114372Y105220D01*
X114330D01*
X114289Y105212D01*
X114238Y105195D01*
X114180Y105178D01*
X114113Y105145D01*
X114054Y105103D01*
X113995Y105044D01*
X113987Y105036D01*
X113970Y105011D01*
X113953Y104960D01*
X113928Y104902D01*
X113895Y104809D01*
X113878Y104701D01*
X113861Y104567D01*
X113853Y104407D01*
Y102815D01*
X112579D01*
Y106142D01*
X113761D01*
Y105597D01*
X113769Y105614D01*
X113811Y105656D01*
X113861Y105715D01*
X113928Y105782D01*
X114012Y105865D01*
X114104Y105941D01*
X114196Y106016D01*
X114297Y106075D01*
X114314Y106083D01*
X114347Y106100D01*
X114406Y106117D01*
X114481Y106150D01*
X114582Y106175D01*
X114699Y106192D01*
X114825Y106209D01*
X114967Y106217D01*
X115018D01*
X115051Y106209D01*
D02*
G37*
G36*
X111858D02*
X111934Y106192D01*
X112026Y106175D01*
X112127Y106142D01*
X112244Y106100D01*
X112370Y106041D01*
X111967Y105128D01*
X111959Y105136D01*
X111934Y105145D01*
X111892Y105161D01*
X111842Y105178D01*
X111724Y105212D01*
X111666Y105228D01*
X111574D01*
X111532Y105220D01*
X111473Y105203D01*
X111406Y105178D01*
X111347Y105136D01*
X111280Y105086D01*
X111222Y105019D01*
X111213Y105002D01*
X111188Y104960D01*
X111180Y104927D01*
X111163Y104885D01*
X111146Y104835D01*
X111129Y104776D01*
X111104Y104701D01*
X111087Y104625D01*
X111071Y104533D01*
X111062Y104432D01*
X111046Y104323D01*
X111037Y104206D01*
X111029Y104072D01*
Y103930D01*
Y102815D01*
X109747D01*
Y106142D01*
X110937D01*
Y105597D01*
X110945Y105614D01*
X110970Y105656D01*
X111004Y105715D01*
X111046Y105790D01*
X111163Y105949D01*
X111222Y106025D01*
X111288Y106083D01*
X111297Y106092D01*
X111322Y106108D01*
X111364Y106125D01*
X111414Y106150D01*
X111481Y106175D01*
X111565Y106201D01*
X111649Y106209D01*
X111749Y106217D01*
X111800D01*
X111858Y106209D01*
D02*
G37*
G36*
X132322D02*
X132398Y106201D01*
X132498Y106184D01*
X132607Y106167D01*
X132716Y106142D01*
X132834Y106117D01*
X132959Y106075D01*
X133085Y106025D01*
X133211Y105974D01*
X133336Y105899D01*
X133454Y105824D01*
X133563Y105731D01*
X133663Y105631D01*
X133671Y105622D01*
X133680Y105614D01*
X133705Y105580D01*
X133730Y105547D01*
X133764Y105505D01*
X133797Y105446D01*
X133831Y105388D01*
X133873Y105312D01*
X133948Y105145D01*
X134015Y104952D01*
X134065Y104726D01*
X134074Y104608D01*
X134082Y104483D01*
Y104474D01*
Y104449D01*
Y104407D01*
X134074Y104357D01*
X134065Y104290D01*
X134057Y104215D01*
X134040Y104131D01*
X134015Y104039D01*
X133956Y103837D01*
X133914Y103737D01*
X133864Y103628D01*
X133806Y103527D01*
X133739Y103419D01*
X133663Y103318D01*
X133571Y103226D01*
X133563Y103217D01*
X133546Y103209D01*
X133521Y103184D01*
X133479Y103150D01*
X133429Y103117D01*
X133361Y103075D01*
X133286Y103025D01*
X133202Y102983D01*
X133110Y102941D01*
X133001Y102891D01*
X132884Y102849D01*
X132758Y102815D01*
X132624Y102782D01*
X132473Y102765D01*
X132322Y102748D01*
X132155Y102740D01*
X132079D01*
X132021Y102748D01*
X131954D01*
X131878Y102765D01*
X131786Y102773D01*
X131694Y102790D01*
X131484Y102840D01*
X131266Y102907D01*
X131057Y103008D01*
X130948Y103075D01*
X130856Y103142D01*
X130848Y103150D01*
X130831Y103167D01*
X130797Y103192D01*
X130764Y103234D01*
X130713Y103284D01*
X130663Y103343D01*
X130613Y103419D01*
X130554Y103494D01*
X130496Y103586D01*
X130445Y103687D01*
X130395Y103796D01*
X130345Y103913D01*
X130311Y104039D01*
X130278Y104173D01*
X130261Y104315D01*
X130253Y104466D01*
Y104474D01*
Y104499D01*
Y104541D01*
X130261Y104592D01*
X130269Y104659D01*
X130278Y104734D01*
X130294Y104818D01*
X130319Y104910D01*
X130378Y105111D01*
X130420Y105212D01*
X130470Y105321D01*
X130529Y105421D01*
X130596Y105530D01*
X130672Y105631D01*
X130764Y105723D01*
X130772Y105731D01*
X130789Y105748D01*
X130814Y105765D01*
X130856Y105798D01*
X130906Y105840D01*
X130973Y105882D01*
X131049Y105924D01*
X131132Y105974D01*
X131225Y106016D01*
X131325Y106058D01*
X131442Y106100D01*
X131568Y106142D01*
X131702Y106175D01*
X131845Y106192D01*
X131995Y106209D01*
X132155Y106217D01*
X132247D01*
X132322Y106209D01*
D02*
G37*
G36*
X107342D02*
X107417D01*
X107576Y106192D01*
X107752Y106167D01*
X107937Y106125D01*
X108121Y106075D01*
X108289Y106000D01*
X108297D01*
X108305Y105991D01*
X108355Y105958D01*
X108431Y105907D01*
X108523Y105840D01*
X108632Y105748D01*
X108733Y105639D01*
X108833Y105513D01*
X108925Y105371D01*
Y105363D01*
X108934Y105354D01*
X108942Y105329D01*
X108959Y105296D01*
X108976Y105254D01*
X108992Y105203D01*
X109034Y105086D01*
X109076Y104927D01*
X109110Y104751D01*
X109135Y104541D01*
X109143Y104307D01*
Y104164D01*
X106587D01*
Y104148D01*
X106596Y104114D01*
X106604Y104055D01*
X106621Y103988D01*
X106671Y103837D01*
X106705Y103770D01*
X106747Y103703D01*
X106755Y103695D01*
X106780Y103670D01*
X106822Y103636D01*
X106881Y103594D01*
X106948Y103552D01*
X107032Y103519D01*
X107124Y103494D01*
X107233Y103486D01*
X107266D01*
X107300Y103494D01*
X107350D01*
X107459Y103527D01*
X107518Y103544D01*
X107585Y103578D01*
X107593D01*
X107601Y103586D01*
X107652Y103628D01*
X107685Y103653D01*
X107719Y103695D01*
X107769Y103737D01*
X107811Y103796D01*
X109068Y103678D01*
Y103670D01*
X109051Y103653D01*
X109034Y103628D01*
X109018Y103594D01*
X108950Y103511D01*
X108867Y103402D01*
X108766Y103284D01*
X108649Y103159D01*
X108515Y103050D01*
X108364Y102957D01*
X108355D01*
X108347Y102949D01*
X108322Y102941D01*
X108289Y102924D01*
X108247Y102907D01*
X108196Y102891D01*
X108138Y102865D01*
X108071Y102849D01*
X107987Y102832D01*
X107903Y102807D01*
X107811Y102790D01*
X107702Y102773D01*
X107593Y102756D01*
X107467Y102748D01*
X107342Y102740D01*
X107090D01*
X107032Y102748D01*
X106973D01*
X106822Y102765D01*
X106654Y102782D01*
X106478Y102815D01*
X106311Y102865D01*
X106160Y102924D01*
X106143Y102932D01*
X106101Y102957D01*
X106026Y103008D01*
X105942Y103067D01*
X105842Y103150D01*
X105733Y103251D01*
X105632Y103368D01*
X105532Y103511D01*
Y103519D01*
X105523Y103527D01*
X105506Y103552D01*
X105498Y103586D01*
X105456Y103670D01*
X105414Y103787D01*
X105364Y103921D01*
X105330Y104089D01*
X105297Y104265D01*
X105289Y104466D01*
Y104474D01*
Y104499D01*
Y104541D01*
X105297Y104592D01*
X105305Y104659D01*
X105314Y104743D01*
X105330Y104826D01*
X105347Y104919D01*
X105406Y105120D01*
X105448Y105220D01*
X105498Y105329D01*
X105557Y105438D01*
X105624Y105539D01*
X105699Y105639D01*
X105783Y105731D01*
X105791Y105740D01*
X105808Y105756D01*
X105833Y105773D01*
X105875Y105807D01*
X105925Y105840D01*
X105992Y105882D01*
X106059Y105932D01*
X106143Y105974D01*
X106235Y106016D01*
X106344Y106067D01*
X106453Y106108D01*
X106579Y106142D01*
X106713Y106175D01*
X106855Y106201D01*
X107006Y106209D01*
X107166Y106217D01*
X107283D01*
X107342Y106209D01*
D02*
G37*
G36*
X104140Y106142D02*
X104844D01*
Y105212D01*
X104140D01*
Y104030D01*
Y104022D01*
Y103997D01*
Y103955D01*
X104149Y103913D01*
X104157Y103821D01*
X104165Y103779D01*
X104174Y103745D01*
X104191Y103728D01*
X104224Y103695D01*
X104291Y103662D01*
X104341Y103653D01*
X104392Y103645D01*
X104417D01*
X104451Y103653D01*
X104492D01*
X104551Y103662D01*
X104618Y103678D01*
X104693Y103695D01*
X104786Y103720D01*
X104886Y102840D01*
X104861D01*
X104836Y102832D01*
X104802Y102823D01*
X104710Y102807D01*
X104593Y102790D01*
X104459Y102773D01*
X104308Y102756D01*
X104157Y102748D01*
X103998Y102740D01*
X103922D01*
X103839Y102748D01*
X103730Y102756D01*
X103612Y102765D01*
X103504Y102790D01*
X103386Y102815D01*
X103294Y102857D01*
X103286Y102865D01*
X103261Y102882D01*
X103219Y102907D01*
X103168Y102949D01*
X103110Y102999D01*
X103059Y103067D01*
X103001Y103142D01*
X102959Y103226D01*
Y103234D01*
X102942Y103276D01*
X102925Y103335D01*
X102909Y103419D01*
X102892Y103536D01*
X102875Y103678D01*
X102867Y103846D01*
X102858Y104039D01*
Y105212D01*
X102389D01*
Y106142D01*
X102858D01*
Y106745D01*
X104140Y107407D01*
Y106142D01*
D02*
G37*
G36*
X122468Y102815D02*
X121185D01*
Y107407D01*
X122468D01*
Y102815D01*
D02*
G37*
G36*
X118856Y106209D02*
X118998Y106201D01*
X119157Y106192D01*
X119308Y106175D01*
X119442Y106150D01*
X119459D01*
X119501Y106134D01*
X119568Y106117D01*
X119652Y106092D01*
X119744Y106058D01*
X119836Y106008D01*
X119937Y105949D01*
X120029Y105882D01*
X120037Y105874D01*
X120054Y105857D01*
X120088Y105824D01*
X120121Y105782D01*
X120163Y105723D01*
X120205Y105656D01*
X120247Y105572D01*
X120280Y105480D01*
X120289Y105472D01*
X120297Y105438D01*
X120314Y105388D01*
X120331Y105321D01*
X120347Y105245D01*
X120364Y105161D01*
X120381Y105078D01*
Y104985D01*
Y103519D01*
Y103511D01*
Y103477D01*
Y103435D01*
Y103385D01*
X120389Y103268D01*
X120398Y103209D01*
X120406Y103150D01*
Y103142D01*
X120414Y103125D01*
X120423Y103100D01*
X120440Y103058D01*
X120456Y103008D01*
X120473Y102949D01*
X120540Y102815D01*
X119342D01*
Y102823D01*
X119333Y102840D01*
X119300Y102891D01*
X119266Y102949D01*
X119241Y103008D01*
Y103025D01*
X119233Y103058D01*
X119216Y103125D01*
X119199Y103217D01*
X119191Y103209D01*
X119157Y103175D01*
X119107Y103133D01*
X119040Y103083D01*
X118965Y103025D01*
X118881Y102974D01*
X118797Y102916D01*
X118705Y102874D01*
X118688Y102865D01*
X118646Y102857D01*
X118571Y102832D01*
X118479Y102807D01*
X118361Y102782D01*
X118227Y102765D01*
X118076Y102748D01*
X117917Y102740D01*
X117859D01*
X117817Y102748D01*
X117766D01*
X117708Y102756D01*
X117573Y102773D01*
X117431Y102807D01*
X117280Y102857D01*
X117129Y102916D01*
X117004Y103008D01*
X116987Y103025D01*
X116953Y103058D01*
X116911Y103117D01*
X116853Y103201D01*
X116794Y103301D01*
X116752Y103419D01*
X116719Y103544D01*
X116702Y103695D01*
Y103703D01*
Y103712D01*
Y103762D01*
X116710Y103829D01*
X116727Y103913D01*
X116752Y104013D01*
X116794Y104114D01*
X116844Y104223D01*
X116920Y104315D01*
X116928Y104323D01*
X116962Y104357D01*
X117020Y104399D01*
X117104Y104449D01*
X117222Y104508D01*
X117364Y104567D01*
X117532Y104625D01*
X117632Y104650D01*
X117741Y104675D01*
X117750D01*
X117775Y104684D01*
X117808Y104692D01*
X117859Y104701D01*
X117917Y104709D01*
X117984Y104726D01*
X118127Y104751D01*
X118286Y104784D01*
X118437Y104818D01*
X118571Y104851D01*
X118629Y104868D01*
X118671Y104877D01*
X118680D01*
X118713Y104885D01*
X118755Y104902D01*
X118814Y104919D01*
X118881Y104944D01*
X118956Y104969D01*
X119132Y105036D01*
Y105044D01*
Y105069D01*
X119124Y105111D01*
Y105161D01*
X119090Y105262D01*
X119065Y105312D01*
X119032Y105354D01*
X119023Y105363D01*
X119015Y105371D01*
X118990Y105388D01*
X118948Y105404D01*
X118906Y105421D01*
X118847Y105438D01*
X118772Y105455D01*
X118638D01*
X118579Y105446D01*
X118512D01*
X118361Y105413D01*
X118286Y105388D01*
X118219Y105354D01*
X118210D01*
X118202Y105338D01*
X118177Y105321D01*
X118152Y105287D01*
X118118Y105245D01*
X118085Y105195D01*
X118051Y105136D01*
X118026Y105061D01*
X116803Y105187D01*
Y105203D01*
X116819Y105237D01*
X116828Y105296D01*
X116853Y105371D01*
X116878Y105446D01*
X116911Y105530D01*
X116953Y105614D01*
X116995Y105689D01*
X117004Y105698D01*
X117020Y105723D01*
X117054Y105756D01*
X117096Y105798D01*
X117146Y105849D01*
X117213Y105899D01*
X117289Y105958D01*
X117372Y106008D01*
X117381Y106016D01*
X117406Y106025D01*
X117448Y106041D01*
X117498Y106067D01*
X117565Y106092D01*
X117649Y106117D01*
X117741Y106142D01*
X117850Y106159D01*
X117867D01*
X117900Y106167D01*
X117967Y106175D01*
X118051Y106192D01*
X118152Y106201D01*
X118261Y106209D01*
X118386Y106217D01*
X118722D01*
X118856Y106209D01*
D02*
G37*
G36*
X97571Y106427D02*
X95191D01*
Y105698D01*
X97395D01*
Y104759D01*
X95191D01*
Y103854D01*
X97637D01*
Y102815D01*
X93766D01*
Y107407D01*
X97571D01*
Y106427D01*
D02*
G37*
G36*
X145328Y102815D02*
X144130D01*
Y103301D01*
X144121Y103284D01*
X144088Y103251D01*
X144038Y103201D01*
X143979Y103133D01*
X143904Y103067D01*
X143828Y102991D01*
X143753Y102932D01*
X143669Y102882D01*
X143660Y102874D01*
X143619Y102857D01*
X143560Y102840D01*
X143493Y102815D01*
X143401Y102782D01*
X143292Y102765D01*
X143183Y102748D01*
X143057Y102740D01*
X142990D01*
X142948Y102748D01*
X142889Y102756D01*
X142823Y102765D01*
X142672Y102807D01*
X142504Y102865D01*
X142420Y102907D01*
X142336Y102957D01*
X142244Y103016D01*
X142169Y103083D01*
X142093Y103159D01*
X142018Y103251D01*
Y103259D01*
X142001Y103276D01*
X141984Y103301D01*
X141959Y103343D01*
X141934Y103393D01*
X141909Y103452D01*
X141876Y103527D01*
X141842Y103603D01*
X141808Y103687D01*
X141775Y103787D01*
X141725Y103997D01*
X141683Y104240D01*
X141666Y104508D01*
Y104516D01*
Y104541D01*
Y104592D01*
X141674Y104642D01*
Y104717D01*
X141691Y104793D01*
X141700Y104885D01*
X141716Y104977D01*
X141767Y105178D01*
X141834Y105396D01*
X141934Y105597D01*
X141993Y105689D01*
X142060Y105773D01*
X142068Y105782D01*
X142077Y105790D01*
X142102Y105815D01*
X142135Y105840D01*
X142219Y105916D01*
X142336Y106000D01*
X142479Y106075D01*
X142647Y106150D01*
X142848Y106201D01*
X142957Y106209D01*
X143066Y106217D01*
X143116D01*
X143174Y106209D01*
X143242D01*
X143325Y106192D01*
X143418Y106175D01*
X143510Y106150D01*
X143602Y106117D01*
X143610Y106108D01*
X143644Y106100D01*
X143686Y106075D01*
X143744Y106041D01*
X143811Y106000D01*
X143887Y105949D01*
X143962Y105882D01*
X144038Y105815D01*
Y107407D01*
X145328D01*
Y102815D01*
D02*
G37*
G36*
X120887Y99052D02*
X120947D01*
X121012Y99046D01*
X121084Y99039D01*
X121163Y99026D01*
X121334Y98993D01*
X121498Y98947D01*
X121662Y98882D01*
X121727Y98842D01*
X121793Y98796D01*
X121799D01*
X121806Y98783D01*
X121845Y98751D01*
X121891Y98691D01*
X121950Y98613D01*
X122009Y98521D01*
X122062Y98409D01*
X122095Y98278D01*
X122101Y98206D01*
X122108Y98134D01*
Y98121D01*
Y98094D01*
X122101Y98049D01*
X122095Y97996D01*
X122075Y97931D01*
X122055Y97858D01*
X122022Y97786D01*
X121976Y97714D01*
X121970Y97707D01*
X121950Y97681D01*
X121924Y97648D01*
X121885Y97602D01*
X121832Y97557D01*
X121766Y97497D01*
X121688Y97439D01*
X121596Y97386D01*
X121602D01*
X121629Y97379D01*
X121668Y97366D01*
X121714Y97353D01*
X121812Y97314D01*
X121865Y97294D01*
X121911Y97268D01*
X121917Y97261D01*
X121937Y97248D01*
X121970Y97222D01*
X122009Y97189D01*
X122055Y97150D01*
X122101Y97097D01*
X122147Y97038D01*
X122186Y96973D01*
X122193Y96966D01*
X122206Y96940D01*
X122219Y96900D01*
X122239Y96855D01*
X122258Y96789D01*
X122278Y96717D01*
X122285Y96638D01*
X122291Y96546D01*
Y96540D01*
Y96533D01*
Y96494D01*
X122285Y96435D01*
X122272Y96356D01*
X122252Y96258D01*
X122219Y96159D01*
X122180Y96054D01*
X122121Y95943D01*
X122114Y95930D01*
X122088Y95897D01*
X122055Y95844D01*
X122003Y95779D01*
X121931Y95707D01*
X121852Y95635D01*
X121760Y95562D01*
X121648Y95497D01*
X121642D01*
X121635Y95490D01*
X121616Y95484D01*
X121589Y95470D01*
X121563Y95464D01*
X121524Y95451D01*
X121432Y95424D01*
X121314Y95392D01*
X121176Y95372D01*
X121012Y95352D01*
X120835Y95346D01*
X120756D01*
X120717Y95352D01*
X120664D01*
X120560Y95359D01*
X120435Y95372D01*
X120304Y95392D01*
X120179Y95418D01*
X120061Y95457D01*
X120048Y95464D01*
X120015Y95477D01*
X119963Y95503D01*
X119897Y95543D01*
X119825Y95588D01*
X119746Y95648D01*
X119667Y95713D01*
X119595Y95792D01*
X119589Y95805D01*
X119562Y95831D01*
X119529Y95877D01*
X119490Y95943D01*
X119444Y96028D01*
X119405Y96120D01*
X119359Y96231D01*
X119320Y96350D01*
X120317Y96487D01*
Y96474D01*
X120330Y96441D01*
X120343Y96389D01*
X120363Y96323D01*
X120415Y96185D01*
X120455Y96120D01*
X120494Y96067D01*
X120500Y96061D01*
X120514Y96048D01*
X120546Y96035D01*
X120579Y96015D01*
X120625Y95989D01*
X120684Y95976D01*
X120743Y95963D01*
X120815Y95956D01*
X120848D01*
X120887Y95963D01*
X120933Y95976D01*
X120986Y95989D01*
X121045Y96015D01*
X121097Y96054D01*
X121150Y96100D01*
X121156Y96107D01*
X121170Y96127D01*
X121196Y96159D01*
X121222Y96205D01*
X121242Y96258D01*
X121268Y96330D01*
X121281Y96409D01*
X121288Y96494D01*
Y96507D01*
Y96533D01*
X121281Y96579D01*
X121274Y96638D01*
X121255Y96697D01*
X121235Y96763D01*
X121202Y96822D01*
X121156Y96881D01*
X121150Y96887D01*
X121130Y96900D01*
X121104Y96927D01*
X121065Y96953D01*
X121012Y96973D01*
X120953Y96999D01*
X120881Y97012D01*
X120802Y97019D01*
X120756D01*
X120717Y97012D01*
X120671Y97005D01*
X120618Y96992D01*
X120553Y96979D01*
X120481Y96960D01*
X120527Y97668D01*
X120573D01*
X120618Y97662D01*
X120691D01*
X120730Y97668D01*
X120776Y97675D01*
X120822Y97688D01*
X120881Y97714D01*
X120933Y97740D01*
X120986Y97780D01*
X120992Y97786D01*
X121005Y97799D01*
X121032Y97825D01*
X121058Y97865D01*
X121078Y97904D01*
X121104Y97957D01*
X121117Y98016D01*
X121124Y98075D01*
Y98081D01*
Y98101D01*
X121117Y98134D01*
X121110Y98167D01*
X121097Y98212D01*
X121084Y98252D01*
X121058Y98298D01*
X121025Y98337D01*
X121019Y98344D01*
X121005Y98350D01*
X120986Y98370D01*
X120953Y98390D01*
X120914Y98403D01*
X120868Y98422D01*
X120815Y98429D01*
X120750Y98436D01*
X120723D01*
X120691Y98429D01*
X120645Y98422D01*
X120599Y98409D01*
X120553Y98390D01*
X120507Y98363D01*
X120461Y98324D01*
X120455Y98317D01*
X120441Y98304D01*
X120428Y98278D01*
X120402Y98239D01*
X120382Y98186D01*
X120356Y98127D01*
X120336Y98049D01*
X120317Y97957D01*
X119372Y98121D01*
Y98127D01*
X119379Y98140D01*
X119385Y98167D01*
X119392Y98193D01*
X119412Y98232D01*
X119425Y98278D01*
X119471Y98377D01*
X119529Y98488D01*
X119608Y98606D01*
X119700Y98718D01*
X119818Y98816D01*
X119825D01*
X119831Y98829D01*
X119851Y98836D01*
X119884Y98855D01*
X119917Y98875D01*
X119956Y98895D01*
X120008Y98914D01*
X120068Y98941D01*
X120126Y98960D01*
X120199Y98980D01*
X120277Y99000D01*
X120363Y99019D01*
X120455Y99039D01*
X120553Y99046D01*
X120769Y99059D01*
X120835D01*
X120887Y99052D01*
D02*
G37*
G36*
X136658D02*
X136717D01*
X136782Y99046D01*
X136855Y99039D01*
X136933Y99026D01*
X137110Y98993D01*
X137287Y98941D01*
X137458Y98875D01*
X137537Y98829D01*
X137616Y98783D01*
X137622D01*
X137635Y98770D01*
X137655Y98757D01*
X137681Y98731D01*
X137714Y98704D01*
X137753Y98665D01*
X137793Y98626D01*
X137838Y98573D01*
X137884Y98521D01*
X137930Y98455D01*
X137983Y98390D01*
X138029Y98311D01*
X138075Y98226D01*
X138121Y98140D01*
X138160Y98042D01*
X138199Y97937D01*
X137215Y97721D01*
Y97727D01*
X137209Y97747D01*
X137196Y97780D01*
X137182Y97812D01*
X137143Y97891D01*
X137124Y97924D01*
X137104Y97957D01*
X137097Y97963D01*
X137091Y97976D01*
X137064Y98003D01*
X137038Y98029D01*
X136966Y98094D01*
X136874Y98154D01*
X136868Y98160D01*
X136855Y98167D01*
X136822Y98180D01*
X136789Y98193D01*
X136743Y98206D01*
X136690Y98212D01*
X136632Y98226D01*
X136533D01*
X136513Y98219D01*
X136441Y98212D01*
X136356Y98186D01*
X136264Y98154D01*
X136166Y98094D01*
X136074Y98022D01*
X136035Y97970D01*
X135995Y97917D01*
X135989Y97904D01*
X135969Y97878D01*
X135949Y97819D01*
X135923Y97747D01*
X135890Y97648D01*
X135871Y97530D01*
X135851Y97386D01*
X135844Y97215D01*
Y97209D01*
Y97189D01*
Y97156D01*
Y97117D01*
X135851Y97071D01*
Y97012D01*
X135864Y96887D01*
X135890Y96756D01*
X135916Y96618D01*
X135962Y96494D01*
X135989Y96441D01*
X136021Y96395D01*
X136028Y96389D01*
X136054Y96363D01*
X136100Y96330D01*
X136153Y96290D01*
X136225Y96245D01*
X136317Y96212D01*
X136415Y96185D01*
X136533Y96179D01*
X136585D01*
X136645Y96185D01*
X136717Y96199D01*
X136795Y96225D01*
X136874Y96251D01*
X136953Y96297D01*
X137019Y96356D01*
X137025Y96363D01*
X137045Y96389D01*
X137077Y96428D01*
X137110Y96487D01*
X137150Y96559D01*
X137189Y96651D01*
X137228Y96756D01*
X137261Y96881D01*
X138232Y96579D01*
Y96573D01*
X138225Y96559D01*
X138219Y96540D01*
X138212Y96513D01*
X138193Y96435D01*
X138153Y96343D01*
X138114Y96231D01*
X138055Y96120D01*
X137996Y96008D01*
X137917Y95897D01*
X137911Y95884D01*
X137878Y95851D01*
X137832Y95805D01*
X137773Y95739D01*
X137694Y95674D01*
X137609Y95608D01*
X137504Y95543D01*
X137392Y95484D01*
X137386D01*
X137379Y95477D01*
X137360Y95470D01*
X137340Y95464D01*
X137268Y95438D01*
X137176Y95418D01*
X137064Y95392D01*
X136927Y95366D01*
X136769Y95352D01*
X136599Y95346D01*
X136500D01*
X136448Y95352D01*
X136395D01*
X136330Y95359D01*
X136258Y95366D01*
X136107Y95385D01*
X135943Y95418D01*
X135785Y95457D01*
X135634Y95510D01*
X135628D01*
X135621Y95516D01*
X135601Y95530D01*
X135575Y95543D01*
X135503Y95588D01*
X135418Y95648D01*
X135319Y95733D01*
X135208Y95831D01*
X135103Y95956D01*
X134998Y96107D01*
Y96113D01*
X134985Y96127D01*
X134972Y96153D01*
X134959Y96185D01*
X134939Y96225D01*
X134913Y96277D01*
X134887Y96336D01*
X134867Y96409D01*
X134841Y96481D01*
X134814Y96566D01*
X134795Y96658D01*
X134768Y96756D01*
X134755Y96861D01*
X134742Y96973D01*
X134729Y97209D01*
Y97222D01*
Y97248D01*
X134736Y97294D01*
Y97353D01*
X134742Y97432D01*
X134755Y97517D01*
X134768Y97609D01*
X134788Y97714D01*
X134814Y97825D01*
X134847Y97937D01*
X134880Y98049D01*
X134926Y98167D01*
X134985Y98278D01*
X135044Y98383D01*
X135116Y98488D01*
X135201Y98580D01*
X135208Y98586D01*
X135221Y98600D01*
X135254Y98626D01*
X135287Y98652D01*
X135339Y98691D01*
X135398Y98731D01*
X135464Y98777D01*
X135549Y98823D01*
X135634Y98862D01*
X135739Y98908D01*
X135851Y98947D01*
X135969Y98987D01*
X136100Y99013D01*
X136238Y99039D01*
X136389Y99052D01*
X136546Y99059D01*
X136612D01*
X136658Y99052D01*
D02*
G37*
G36*
X125729Y96330D02*
X124279D01*
Y97104D01*
X125729D01*
Y96330D01*
D02*
G37*
G36*
X107072Y95405D02*
X106160D01*
Y98147D01*
X105458Y95405D01*
X104632D01*
X103936Y98147D01*
Y95405D01*
X103025D01*
Y99000D01*
X104488D01*
X105045Y96809D01*
X105609Y99000D01*
X107072D01*
Y95405D01*
D02*
G37*
G36*
X132925Y99052D02*
X132977D01*
X133096Y99046D01*
X133227Y99026D01*
X133365Y99006D01*
X133496Y98974D01*
X133614Y98934D01*
X133620D01*
X133627Y98928D01*
X133660Y98914D01*
X133719Y98882D01*
X133784Y98842D01*
X133857Y98790D01*
X133935Y98731D01*
X134014Y98652D01*
X134080Y98567D01*
X134086Y98554D01*
X134106Y98521D01*
X134132Y98475D01*
X134165Y98403D01*
X134198Y98324D01*
X134224Y98226D01*
X134244Y98121D01*
X134250Y98009D01*
Y98003D01*
Y97996D01*
Y97976D01*
Y97957D01*
X134237Y97891D01*
X134224Y97806D01*
X134204Y97714D01*
X134165Y97602D01*
X134119Y97491D01*
X134053Y97379D01*
X134047Y97366D01*
X134014Y97327D01*
X133968Y97268D01*
X133896Y97189D01*
X133798Y97091D01*
X133739Y97038D01*
X133679Y96979D01*
X133607Y96920D01*
X133529Y96855D01*
X133443Y96789D01*
X133352Y96723D01*
X133338Y96717D01*
X133306Y96691D01*
X133253Y96651D01*
X133187Y96605D01*
X133122Y96559D01*
X133050Y96513D01*
X132991Y96468D01*
X132945Y96428D01*
X132938Y96422D01*
X132925Y96415D01*
X132905Y96395D01*
X132879Y96376D01*
X132807Y96304D01*
X132709Y96218D01*
X134276D01*
Y95405D01*
X131272D01*
Y95411D01*
Y95424D01*
X131279Y95451D01*
X131285Y95477D01*
X131292Y95516D01*
X131298Y95562D01*
X131331Y95674D01*
X131370Y95798D01*
X131423Y95936D01*
X131495Y96087D01*
X131580Y96231D01*
X131587Y96238D01*
X131593Y96251D01*
X131606Y96271D01*
X131633Y96304D01*
X131666Y96336D01*
X131698Y96382D01*
X131751Y96435D01*
X131803Y96494D01*
X131862Y96559D01*
X131934Y96632D01*
X132013Y96704D01*
X132105Y96789D01*
X132203Y96874D01*
X132315Y96966D01*
X132433Y97058D01*
X132564Y97156D01*
X132571Y97163D01*
X132584Y97170D01*
X132604Y97189D01*
X132636Y97209D01*
X132709Y97268D01*
X132800Y97340D01*
X132892Y97425D01*
X132991Y97504D01*
X133069Y97583D01*
X133102Y97622D01*
X133128Y97655D01*
X133135Y97662D01*
X133148Y97681D01*
X133168Y97714D01*
X133194Y97760D01*
X133214Y97806D01*
X133233Y97865D01*
X133247Y97917D01*
X133253Y97976D01*
Y97983D01*
Y98003D01*
X133247Y98035D01*
X133240Y98075D01*
X133220Y98121D01*
X133201Y98167D01*
X133168Y98212D01*
X133128Y98259D01*
X133122Y98265D01*
X133109Y98278D01*
X133082Y98298D01*
X133043Y98317D01*
X132997Y98337D01*
X132945Y98357D01*
X132886Y98370D01*
X132820Y98377D01*
X132787D01*
X132755Y98370D01*
X132709Y98363D01*
X132663Y98344D01*
X132610Y98324D01*
X132558Y98291D01*
X132505Y98252D01*
X132499Y98245D01*
X132485Y98232D01*
X132466Y98199D01*
X132440Y98154D01*
X132413Y98094D01*
X132387Y98022D01*
X132368Y97937D01*
X132348Y97832D01*
X131344Y97911D01*
Y97917D01*
Y97931D01*
X131351Y97950D01*
X131357Y97983D01*
X131370Y98055D01*
X131390Y98154D01*
X131423Y98259D01*
X131456Y98363D01*
X131501Y98468D01*
X131554Y98567D01*
X131561Y98580D01*
X131580Y98606D01*
X131620Y98646D01*
X131672Y98698D01*
X131731Y98757D01*
X131810Y98816D01*
X131895Y98875D01*
X132000Y98928D01*
X132007D01*
X132013Y98934D01*
X132053Y98947D01*
X132118Y98967D01*
X132210Y98993D01*
X132322Y99019D01*
X132459Y99039D01*
X132617Y99052D01*
X132794Y99059D01*
X132879D01*
X132925Y99052D01*
D02*
G37*
G36*
X113809Y95405D02*
X112871D01*
Y95785D01*
X112865Y95772D01*
X112838Y95746D01*
X112799Y95707D01*
X112753Y95654D01*
X112694Y95602D01*
X112635Y95543D01*
X112576Y95497D01*
X112510Y95457D01*
X112504Y95451D01*
X112471Y95438D01*
X112425Y95424D01*
X112373Y95405D01*
X112300Y95379D01*
X112215Y95366D01*
X112130Y95352D01*
X112031Y95346D01*
X111979D01*
X111946Y95352D01*
X111900Y95359D01*
X111848Y95366D01*
X111730Y95398D01*
X111599Y95444D01*
X111533Y95477D01*
X111467Y95516D01*
X111395Y95562D01*
X111336Y95615D01*
X111277Y95674D01*
X111218Y95746D01*
Y95753D01*
X111205Y95766D01*
X111192Y95785D01*
X111172Y95818D01*
X111152Y95858D01*
X111133Y95903D01*
X111107Y95963D01*
X111080Y96021D01*
X111054Y96087D01*
X111028Y96166D01*
X110988Y96330D01*
X110956Y96520D01*
X110942Y96730D01*
Y96737D01*
Y96756D01*
Y96796D01*
X110949Y96835D01*
Y96894D01*
X110962Y96953D01*
X110969Y97025D01*
X110982Y97097D01*
X111021Y97255D01*
X111074Y97425D01*
X111152Y97583D01*
X111198Y97655D01*
X111251Y97721D01*
X111257Y97727D01*
X111264Y97734D01*
X111284Y97753D01*
X111310Y97773D01*
X111375Y97832D01*
X111467Y97898D01*
X111579Y97957D01*
X111710Y98016D01*
X111867Y98055D01*
X111953Y98062D01*
X112038Y98068D01*
X112077D01*
X112123Y98062D01*
X112176D01*
X112241Y98049D01*
X112314Y98035D01*
X112386Y98016D01*
X112458Y97989D01*
X112464Y97983D01*
X112491Y97976D01*
X112523Y97957D01*
X112569Y97931D01*
X112622Y97898D01*
X112681Y97858D01*
X112740Y97806D01*
X112799Y97753D01*
Y99000D01*
X113809D01*
Y95405D01*
D02*
G37*
G36*
X109211Y98062D02*
X109270Y98055D01*
X109348Y98042D01*
X109434Y98029D01*
X109519Y98009D01*
X109611Y97989D01*
X109709Y97957D01*
X109808Y97917D01*
X109906Y97878D01*
X110004Y97819D01*
X110096Y97760D01*
X110181Y97688D01*
X110260Y97609D01*
X110267Y97602D01*
X110273Y97596D01*
X110293Y97570D01*
X110313Y97543D01*
X110339Y97511D01*
X110365Y97465D01*
X110391Y97419D01*
X110424Y97360D01*
X110483Y97228D01*
X110536Y97078D01*
X110575Y96900D01*
X110582Y96809D01*
X110588Y96710D01*
Y96704D01*
Y96684D01*
Y96651D01*
X110582Y96612D01*
X110575Y96559D01*
X110569Y96500D01*
X110556Y96435D01*
X110536Y96363D01*
X110490Y96205D01*
X110457Y96127D01*
X110418Y96041D01*
X110372Y95963D01*
X110319Y95877D01*
X110260Y95798D01*
X110188Y95726D01*
X110181Y95720D01*
X110168Y95713D01*
X110149Y95693D01*
X110116Y95667D01*
X110077Y95641D01*
X110024Y95608D01*
X109965Y95569D01*
X109899Y95536D01*
X109827Y95503D01*
X109742Y95464D01*
X109650Y95431D01*
X109552Y95405D01*
X109447Y95379D01*
X109329Y95366D01*
X109211Y95352D01*
X109080Y95346D01*
X109020D01*
X108975Y95352D01*
X108922D01*
X108863Y95366D01*
X108791Y95372D01*
X108719Y95385D01*
X108555Y95424D01*
X108384Y95477D01*
X108220Y95556D01*
X108135Y95608D01*
X108063Y95661D01*
X108056Y95667D01*
X108043Y95680D01*
X108017Y95700D01*
X107991Y95733D01*
X107951Y95772D01*
X107912Y95818D01*
X107872Y95877D01*
X107826Y95936D01*
X107781Y96008D01*
X107741Y96087D01*
X107702Y96172D01*
X107662Y96264D01*
X107636Y96363D01*
X107610Y96468D01*
X107597Y96579D01*
X107590Y96697D01*
Y96704D01*
Y96723D01*
Y96756D01*
X107597Y96796D01*
X107604Y96848D01*
X107610Y96907D01*
X107623Y96973D01*
X107643Y97045D01*
X107689Y97202D01*
X107722Y97281D01*
X107761Y97366D01*
X107807Y97445D01*
X107859Y97530D01*
X107918Y97609D01*
X107991Y97681D01*
X107997Y97688D01*
X108010Y97701D01*
X108030Y97714D01*
X108063Y97740D01*
X108102Y97773D01*
X108154Y97806D01*
X108214Y97839D01*
X108279Y97878D01*
X108351Y97911D01*
X108430Y97944D01*
X108522Y97976D01*
X108620Y98009D01*
X108725Y98035D01*
X108837Y98049D01*
X108955Y98062D01*
X109080Y98068D01*
X109152D01*
X109211Y98062D01*
D02*
G37*
G36*
X130714Y95405D02*
X129599D01*
Y99000D01*
X130714D01*
Y95405D01*
D02*
G37*
G36*
X115902Y98062D02*
X115961D01*
X116086Y98049D01*
X116223Y98029D01*
X116368Y97996D01*
X116512Y97957D01*
X116643Y97898D01*
X116650D01*
X116656Y97891D01*
X116696Y97865D01*
X116755Y97825D01*
X116827Y97773D01*
X116912Y97701D01*
X116991Y97616D01*
X117070Y97517D01*
X117142Y97406D01*
Y97399D01*
X117148Y97393D01*
X117155Y97373D01*
X117168Y97347D01*
X117181Y97314D01*
X117194Y97275D01*
X117227Y97183D01*
X117260Y97058D01*
X117286Y96920D01*
X117306Y96756D01*
X117312Y96573D01*
Y96461D01*
X115312D01*
Y96448D01*
X115318Y96422D01*
X115325Y96376D01*
X115338Y96323D01*
X115377Y96205D01*
X115403Y96153D01*
X115436Y96100D01*
X115443Y96094D01*
X115462Y96074D01*
X115495Y96048D01*
X115541Y96015D01*
X115594Y95982D01*
X115659Y95956D01*
X115731Y95936D01*
X115817Y95930D01*
X115843D01*
X115869Y95936D01*
X115908D01*
X115994Y95963D01*
X116040Y95976D01*
X116092Y96002D01*
X116099D01*
X116105Y96008D01*
X116145Y96041D01*
X116171Y96061D01*
X116197Y96094D01*
X116236Y96127D01*
X116269Y96172D01*
X117253Y96081D01*
Y96074D01*
X117240Y96061D01*
X117227Y96041D01*
X117214Y96015D01*
X117161Y95949D01*
X117096Y95864D01*
X117017Y95772D01*
X116925Y95674D01*
X116820Y95588D01*
X116702Y95516D01*
X116696D01*
X116689Y95510D01*
X116669Y95503D01*
X116643Y95490D01*
X116610Y95477D01*
X116571Y95464D01*
X116525Y95444D01*
X116473Y95431D01*
X116407Y95418D01*
X116341Y95398D01*
X116269Y95385D01*
X116184Y95372D01*
X116099Y95359D01*
X116000Y95352D01*
X115902Y95346D01*
X115705D01*
X115659Y95352D01*
X115613D01*
X115495Y95366D01*
X115364Y95379D01*
X115226Y95405D01*
X115095Y95444D01*
X114977Y95490D01*
X114964Y95497D01*
X114931Y95516D01*
X114872Y95556D01*
X114806Y95602D01*
X114728Y95667D01*
X114642Y95746D01*
X114564Y95838D01*
X114485Y95949D01*
Y95956D01*
X114478Y95963D01*
X114465Y95982D01*
X114459Y96008D01*
X114426Y96074D01*
X114393Y96166D01*
X114354Y96271D01*
X114328Y96402D01*
X114301Y96540D01*
X114295Y96697D01*
Y96704D01*
Y96723D01*
Y96756D01*
X114301Y96796D01*
X114308Y96848D01*
X114314Y96914D01*
X114328Y96979D01*
X114341Y97051D01*
X114386Y97209D01*
X114419Y97288D01*
X114459Y97373D01*
X114505Y97458D01*
X114557Y97537D01*
X114616Y97616D01*
X114682Y97688D01*
X114688Y97694D01*
X114701Y97707D01*
X114721Y97721D01*
X114754Y97747D01*
X114793Y97773D01*
X114846Y97806D01*
X114898Y97845D01*
X114964Y97878D01*
X115036Y97911D01*
X115121Y97950D01*
X115207Y97983D01*
X115305Y98009D01*
X115410Y98035D01*
X115521Y98055D01*
X115639Y98062D01*
X115764Y98068D01*
X115856D01*
X115902Y98062D01*
D02*
G37*
%LPC*%
G36*
X136965Y104391D02*
X136957D01*
X136923Y104374D01*
X136864Y104357D01*
X136797Y104332D01*
X136714Y104307D01*
X136621Y104282D01*
X136412Y104223D01*
X136395Y104215D01*
X136353Y104206D01*
X136286Y104189D01*
X136202Y104164D01*
X136118Y104131D01*
X136043Y104097D01*
X135968Y104064D01*
X135917Y104022D01*
Y104013D01*
X135901Y104005D01*
X135867Y103955D01*
X135834Y103879D01*
X135825Y103837D01*
X135817Y103787D01*
Y103779D01*
Y103762D01*
X135825Y103737D01*
X135834Y103703D01*
X135859Y103620D01*
X135884Y103578D01*
X135917Y103544D01*
X135926D01*
X135934Y103527D01*
X135959Y103519D01*
X136001Y103502D01*
X136043Y103486D01*
X136093Y103469D01*
X136160Y103460D01*
X136227Y103452D01*
X136261D01*
X136303Y103460D01*
X136353Y103469D01*
X136412Y103477D01*
X136479Y103494D01*
X136554Y103519D01*
X136621Y103552D01*
X136630Y103561D01*
X136655Y103569D01*
X136680Y103594D01*
X136722Y103620D01*
X136806Y103695D01*
X136847Y103745D01*
X136881Y103796D01*
Y103804D01*
X136898Y103821D01*
X136906Y103854D01*
X136923Y103904D01*
X136940Y103955D01*
X136948Y104022D01*
X136965Y104097D01*
Y104181D01*
Y104391D01*
D02*
G37*
G36*
X127646Y104734D02*
X126934D01*
Y103804D01*
X127713D01*
X127780Y103812D01*
X127856Y103821D01*
X127948Y103837D01*
X128032Y103854D01*
X128107Y103888D01*
X128174Y103930D01*
X128183Y103938D01*
X128199Y103955D01*
X128225Y103980D01*
X128250Y104022D01*
X128275Y104072D01*
X128300Y104139D01*
X128317Y104206D01*
X128325Y104282D01*
Y104290D01*
Y104315D01*
X128317Y104349D01*
X128308Y104399D01*
X128292Y104449D01*
X128258Y104508D01*
X128225Y104558D01*
X128174Y104608D01*
X128166Y104617D01*
X128149Y104625D01*
X128107Y104650D01*
X128049Y104675D01*
X127981Y104692D01*
X127889Y104717D01*
X127780Y104726D01*
X127646Y104734D01*
D02*
G37*
G36*
X127562Y106477D02*
X126934D01*
Y105606D01*
X127604D01*
X127663Y105614D01*
X127738Y105622D01*
X127889Y105656D01*
X127956Y105681D01*
X128015Y105715D01*
X128023Y105723D01*
X128040Y105740D01*
X128057Y105765D01*
X128082Y105798D01*
X128107Y105849D01*
X128132Y105907D01*
X128141Y105974D01*
X128149Y106050D01*
Y106058D01*
Y106083D01*
X128141Y106117D01*
X128132Y106167D01*
X128116Y106217D01*
X128090Y106268D01*
X128057Y106318D01*
X128015Y106360D01*
X128007Y106368D01*
X127990Y106377D01*
X127956Y106393D01*
X127906Y106419D01*
X127847Y106444D01*
X127772Y106460D01*
X127671Y106469D01*
X127562Y106477D01*
D02*
G37*
G36*
X132171Y105338D02*
X132130D01*
X132071Y105329D01*
X132012Y105312D01*
X131937Y105287D01*
X131861Y105245D01*
X131786Y105195D01*
X131711Y105120D01*
X131702Y105111D01*
X131685Y105078D01*
X131652Y105027D01*
X131627Y104960D01*
X131593Y104868D01*
X131560Y104751D01*
X131543Y104617D01*
X131535Y104466D01*
Y104458D01*
Y104449D01*
Y104424D01*
Y104391D01*
X131543Y104315D01*
X131560Y104215D01*
X131577Y104114D01*
X131610Y104005D01*
X131652Y103904D01*
X131711Y103812D01*
X131719Y103804D01*
X131744Y103779D01*
X131786Y103745D01*
X131836Y103712D01*
X131903Y103670D01*
X131979Y103636D01*
X132071Y103611D01*
X132163Y103603D01*
X132213D01*
X132264Y103611D01*
X132322Y103628D01*
X132398Y103653D01*
X132473Y103687D01*
X132549Y103737D01*
X132616Y103804D01*
X132624Y103812D01*
X132641Y103846D01*
X132674Y103896D01*
X132708Y103972D01*
X132741Y104064D01*
X132775Y104181D01*
X132792Y104315D01*
X132800Y104483D01*
Y104491D01*
Y104499D01*
Y104550D01*
X132792Y104625D01*
X132775Y104726D01*
X132758Y104826D01*
X132725Y104935D01*
X132674Y105036D01*
X132616Y105120D01*
X132607Y105128D01*
X132582Y105153D01*
X132549Y105187D01*
X132498Y105228D01*
X132431Y105270D01*
X132356Y105304D01*
X132264Y105329D01*
X132171Y105338D01*
D02*
G37*
G36*
X107216Y105463D02*
X107166D01*
X107107Y105455D01*
X107040Y105430D01*
X106965Y105404D01*
X106881Y105363D01*
X106805Y105304D01*
X106730Y105220D01*
X106721Y105212D01*
X106713Y105195D01*
X106696Y105153D01*
X106671Y105111D01*
X106646Y105044D01*
X106621Y104969D01*
X106604Y104877D01*
X106587Y104776D01*
X107844D01*
Y104784D01*
Y104793D01*
X107836Y104835D01*
X107819Y104902D01*
X107802Y104977D01*
X107777Y105061D01*
X107744Y105145D01*
X107702Y105228D01*
X107643Y105296D01*
X107635Y105304D01*
X107618Y105321D01*
X107576Y105346D01*
X107534Y105379D01*
X107467Y105413D01*
X107400Y105438D01*
X107308Y105455D01*
X107216Y105463D01*
D02*
G37*
G36*
X119132Y104391D02*
X119124D01*
X119090Y104374D01*
X119032Y104357D01*
X118965Y104332D01*
X118881Y104307D01*
X118789Y104282D01*
X118579Y104223D01*
X118562Y104215D01*
X118520Y104206D01*
X118453Y104189D01*
X118370Y104164D01*
X118286Y104131D01*
X118210Y104097D01*
X118135Y104064D01*
X118085Y104022D01*
Y104013D01*
X118068Y104005D01*
X118034Y103955D01*
X118001Y103879D01*
X117992Y103837D01*
X117984Y103787D01*
Y103779D01*
Y103762D01*
X117992Y103737D01*
X118001Y103703D01*
X118026Y103620D01*
X118051Y103578D01*
X118085Y103544D01*
X118093D01*
X118102Y103527D01*
X118127Y103519D01*
X118168Y103502D01*
X118210Y103486D01*
X118261Y103469D01*
X118328Y103460D01*
X118395Y103452D01*
X118428D01*
X118470Y103460D01*
X118520Y103469D01*
X118579Y103477D01*
X118646Y103494D01*
X118722Y103519D01*
X118789Y103552D01*
X118797Y103561D01*
X118822Y103569D01*
X118847Y103594D01*
X118889Y103620D01*
X118973Y103695D01*
X119015Y103745D01*
X119048Y103796D01*
Y103804D01*
X119065Y103821D01*
X119074Y103854D01*
X119090Y103904D01*
X119107Y103955D01*
X119115Y104022D01*
X119132Y104097D01*
Y104181D01*
Y104391D01*
D02*
G37*
G36*
X143459Y105262D02*
X143426D01*
X143384Y105254D01*
X143325Y105237D01*
X143267Y105212D01*
X143208Y105178D01*
X143141Y105136D01*
X143082Y105069D01*
X143074Y105061D01*
X143057Y105036D01*
X143040Y104985D01*
X143015Y104927D01*
X142982Y104835D01*
X142965Y104734D01*
X142948Y104600D01*
X142940Y104449D01*
Y104441D01*
Y104432D01*
Y104382D01*
X142948Y104315D01*
X142957Y104223D01*
X142973Y104131D01*
X143007Y104030D01*
X143040Y103938D01*
X143091Y103854D01*
X143099Y103846D01*
X143116Y103829D01*
X143149Y103796D01*
X143200Y103762D01*
X143250Y103728D01*
X143317Y103695D01*
X143392Y103678D01*
X143476Y103670D01*
X143518D01*
X143560Y103678D01*
X143619Y103695D01*
X143677Y103712D01*
X143753Y103745D01*
X143820Y103796D01*
X143878Y103854D01*
X143887Y103863D01*
X143904Y103888D01*
X143929Y103938D01*
X143962Y104005D01*
X143996Y104089D01*
X144021Y104198D01*
X144038Y104332D01*
X144046Y104483D01*
Y104491D01*
Y104499D01*
Y104550D01*
X144038Y104617D01*
X144029Y104701D01*
X144004Y104801D01*
X143979Y104893D01*
X143937Y104985D01*
X143878Y105069D01*
X143870Y105078D01*
X143845Y105103D01*
X143811Y105128D01*
X143761Y105170D01*
X143702Y105203D01*
X143635Y105228D01*
X143552Y105254D01*
X143459Y105262D01*
D02*
G37*
G36*
X112346Y97320D02*
X112320D01*
X112287Y97314D01*
X112241Y97301D01*
X112196Y97281D01*
X112150Y97255D01*
X112097Y97222D01*
X112051Y97170D01*
X112045Y97163D01*
X112031Y97143D01*
X112018Y97104D01*
X111999Y97058D01*
X111972Y96986D01*
X111959Y96907D01*
X111946Y96802D01*
X111940Y96684D01*
Y96678D01*
Y96671D01*
Y96632D01*
X111946Y96579D01*
X111953Y96507D01*
X111966Y96435D01*
X111992Y96356D01*
X112018Y96284D01*
X112058Y96218D01*
X112064Y96212D01*
X112077Y96199D01*
X112104Y96172D01*
X112143Y96146D01*
X112182Y96120D01*
X112235Y96094D01*
X112294Y96081D01*
X112359Y96074D01*
X112392D01*
X112425Y96081D01*
X112471Y96094D01*
X112517Y96107D01*
X112576Y96133D01*
X112628Y96172D01*
X112674Y96218D01*
X112681Y96225D01*
X112694Y96245D01*
X112714Y96284D01*
X112740Y96336D01*
X112766Y96402D01*
X112786Y96487D01*
X112799Y96592D01*
X112805Y96710D01*
Y96717D01*
Y96723D01*
Y96763D01*
X112799Y96815D01*
X112792Y96881D01*
X112773Y96960D01*
X112753Y97032D01*
X112720Y97104D01*
X112674Y97170D01*
X112668Y97176D01*
X112648Y97196D01*
X112622Y97215D01*
X112583Y97248D01*
X112537Y97275D01*
X112484Y97294D01*
X112418Y97314D01*
X112346Y97320D01*
D02*
G37*
G36*
X109093Y97379D02*
X109060D01*
X109014Y97373D01*
X108968Y97360D01*
X108909Y97340D01*
X108850Y97307D01*
X108791Y97268D01*
X108732Y97209D01*
X108725Y97202D01*
X108712Y97176D01*
X108686Y97137D01*
X108666Y97084D01*
X108640Y97012D01*
X108614Y96920D01*
X108601Y96815D01*
X108594Y96697D01*
Y96691D01*
Y96684D01*
Y96664D01*
Y96638D01*
X108601Y96579D01*
X108614Y96500D01*
X108627Y96422D01*
X108653Y96336D01*
X108686Y96258D01*
X108732Y96185D01*
X108738Y96179D01*
X108758Y96159D01*
X108791Y96133D01*
X108830Y96107D01*
X108883Y96074D01*
X108942Y96048D01*
X109014Y96028D01*
X109086Y96021D01*
X109125D01*
X109165Y96028D01*
X109211Y96041D01*
X109270Y96061D01*
X109329Y96087D01*
X109388Y96127D01*
X109440Y96179D01*
X109447Y96185D01*
X109460Y96212D01*
X109486Y96251D01*
X109512Y96310D01*
X109539Y96382D01*
X109565Y96474D01*
X109578Y96579D01*
X109585Y96710D01*
Y96717D01*
Y96723D01*
Y96763D01*
X109578Y96822D01*
X109565Y96900D01*
X109552Y96979D01*
X109526Y97065D01*
X109486Y97143D01*
X109440Y97209D01*
X109434Y97215D01*
X109414Y97235D01*
X109388Y97261D01*
X109348Y97294D01*
X109296Y97327D01*
X109237Y97353D01*
X109165Y97373D01*
X109093Y97379D01*
D02*
G37*
G36*
X115804Y97478D02*
X115764D01*
X115718Y97471D01*
X115666Y97452D01*
X115607Y97432D01*
X115541Y97399D01*
X115482Y97353D01*
X115423Y97288D01*
X115416Y97281D01*
X115410Y97268D01*
X115397Y97235D01*
X115377Y97202D01*
X115357Y97150D01*
X115338Y97091D01*
X115325Y97019D01*
X115312Y96940D01*
X116296D01*
Y96947D01*
Y96953D01*
X116289Y96986D01*
X116276Y97038D01*
X116263Y97097D01*
X116243Y97163D01*
X116217Y97228D01*
X116184Y97294D01*
X116138Y97347D01*
X116131Y97353D01*
X116118Y97366D01*
X116086Y97386D01*
X116053Y97412D01*
X116000Y97439D01*
X115948Y97458D01*
X115876Y97471D01*
X115804Y97478D01*
D02*
G37*
%LPD*%
D24*
X198175Y17500D02*
G03*
X198175Y17500I-5675J0D01*
G01*
X184675D02*
G03*
X184675Y17500I-5675J0D01*
G01*
X171175D02*
G03*
X171175Y17500I-5675J0D01*
G01*
X157675D02*
G03*
X157675Y17500I-5675J0D01*
G01*
X144175D02*
G03*
X144175Y17500I-5675J0D01*
G01*
X130675D02*
G03*
X130675Y17500I-5675J0D01*
G01*
X117175D02*
G03*
X117175Y17500I-5675J0D01*
G01*
X103675D02*
G03*
X103675Y17500I-5675J0D01*
G01*
X90175D02*
G03*
X90175Y17500I-5675J0D01*
G01*
X76675D02*
G03*
X76675Y17500I-5675J0D01*
G01*
X63175D02*
G03*
X63175Y17500I-5675J0D01*
G01*
X49675D02*
G03*
X49675Y17500I-5675J0D01*
G01*
X618Y89522D02*
X31934D01*
X618Y49112D02*
Y89522D01*
X690Y75919D02*
X14151D01*
Y62495D02*
Y75919D01*
X711Y62495D02*
X14151D01*
X31934Y49112D02*
Y89522D01*
X618Y49112D02*
X31934D01*
X204066Y48478D02*
X235382D01*
Y88888D01*
X221849Y62081D02*
X235310D01*
X221849D02*
Y75505D01*
X235289D01*
X204066Y48478D02*
Y88888D01*
X235382D01*
X62812Y115157D02*
X174000D01*
Y126574D01*
X62812D02*
X174000D01*
X62812Y115157D02*
Y126574D01*
X139907Y66847D02*
Y71197D01*
X101259Y64500D02*
Y74000D01*
X82259Y64500D02*
X101259D01*
X82259Y74000D02*
X101259D01*
X82259Y64500D02*
Y74000D01*
X137500Y64000D02*
X156000D01*
X137500D02*
Y74000D01*
X156000Y64000D02*
Y74000D01*
X137500D02*
X156000D01*
X128500Y60500D02*
Y77500D01*
X109500D02*
X128500D01*
X109500Y60500D02*
Y77500D01*
Y60500D02*
X128500D01*
X21624Y96436D02*
X20312D01*
X20968D01*
Y93156D01*
X20312Y92500D01*
X19656D01*
X19000Y93156D01*
X22936Y92500D02*
X24248D01*
X23592D01*
Y96436D01*
X22936Y95780D01*
X26215Y94468D02*
X28839D01*
X30151Y95780D02*
X30807Y96436D01*
X32119D01*
X32775Y95780D01*
Y95124D01*
X32119Y94468D01*
X31463D01*
X32119D01*
X32775Y93812D01*
Y93156D01*
X32119Y92500D01*
X30807D01*
X30151Y93156D01*
X207224Y96336D02*
X205912D01*
X206568D01*
Y93056D01*
X205912Y92400D01*
X205256D01*
X204600Y93056D01*
X211160Y92400D02*
X208536D01*
X211160Y95024D01*
Y95680D01*
X210504Y96336D01*
X209192D01*
X208536Y95680D01*
X212472Y94368D02*
X215095D01*
X216407Y95680D02*
X217063Y96336D01*
X218375D01*
X219031Y95680D01*
Y95024D01*
X218375Y94368D01*
X217719D01*
X218375D01*
X219031Y93712D01*
Y93056D01*
X218375Y92400D01*
X217063D01*
X216407Y93056D01*
X64000Y128500D02*
Y132436D01*
X65968D01*
X66624Y131780D01*
Y130468D01*
X65968Y129812D01*
X64000D01*
X67936Y128500D02*
X69248D01*
X68592D01*
Y132436D01*
X67936Y131780D01*
X71215Y130468D02*
X73839D01*
X75151Y131780D02*
X75807Y132436D01*
X77119D01*
X77775Y131780D01*
Y131124D01*
X77119Y130468D01*
X76463D01*
X77119D01*
X77775Y129812D01*
Y129156D01*
X77119Y128500D01*
X75807D01*
X75151Y129156D01*
D25*
X22001Y57491D02*
G03*
X22001Y57491I-492J0D01*
G01*
X214983Y80509D02*
G03*
X214983Y80509I-492J0D01*
G01*
X114492Y75945D02*
G03*
X114492Y75945I-492J0D01*
G01*
D26*
X192500Y6000D02*
Y12000D01*
X179000Y6000D02*
Y12000D01*
X165500Y6000D02*
Y12000D01*
X152000Y6000D02*
Y12000D01*
X138500Y6000D02*
Y12000D01*
X125000Y6000D02*
Y12000D01*
X111500Y6000D02*
Y12000D01*
X98000Y6000D02*
Y12000D01*
X84500Y6000D02*
Y12000D01*
X71000Y6000D02*
Y12000D01*
X57500Y6000D02*
Y12000D01*
X44000Y6000D02*
X192500D01*
X44000D02*
Y11500D01*
D27*
X117347Y74862D02*
X120102D01*
X117347Y62657D02*
X120102D01*
X117347D02*
Y74862D01*
X120102Y62657D02*
Y74862D01*
X187500Y29436D02*
Y25500D01*
Y27468D01*
X190124D01*
Y29436D01*
Y25500D01*
X191436D02*
X192748D01*
X192092D01*
Y29436D01*
X191436Y28780D01*
X197339Y25500D02*
X194715D01*
X197339Y28124D01*
Y28780D01*
X196683Y29436D01*
X195371D01*
X194715Y28780D01*
X175000Y29436D02*
Y25500D01*
Y27468D01*
X177624D01*
Y29436D01*
Y25500D01*
X178936D02*
X180248D01*
X179592D01*
Y29436D01*
X178936Y28780D01*
X182215Y25500D02*
X183527D01*
X182871D01*
Y29436D01*
X182215Y28780D01*
X160500Y29436D02*
Y25500D01*
Y27468D01*
X163124D01*
Y29436D01*
Y25500D01*
X164436D02*
X165748D01*
X165092D01*
Y29436D01*
X164436Y28780D01*
X167716D02*
X168371Y29436D01*
X169683D01*
X170339Y28780D01*
Y26156D01*
X169683Y25500D01*
X168371D01*
X167716Y26156D01*
Y28780D01*
X149000Y29436D02*
Y25500D01*
Y27468D01*
X151624D01*
Y29436D01*
Y25500D01*
X152936Y26156D02*
X153592Y25500D01*
X154904D01*
X155560Y26156D01*
Y28780D01*
X154904Y29436D01*
X153592D01*
X152936Y28780D01*
Y28124D01*
X153592Y27468D01*
X155560D01*
X135000Y29436D02*
Y25500D01*
Y27468D01*
X137624D01*
Y29436D01*
Y25500D01*
X138936Y28780D02*
X139592Y29436D01*
X140904D01*
X141560Y28780D01*
Y28124D01*
X140904Y27468D01*
X141560Y26812D01*
Y26156D01*
X140904Y25500D01*
X139592D01*
X138936Y26156D01*
Y26812D01*
X139592Y27468D01*
X138936Y28124D01*
Y28780D01*
X139592Y27468D02*
X140904D01*
X122000Y29436D02*
Y25500D01*
Y27468D01*
X124624D01*
Y29436D01*
Y25500D01*
X125936Y29436D02*
X128560D01*
Y28780D01*
X125936Y26156D01*
Y25500D01*
X108500Y29436D02*
Y25500D01*
Y27468D01*
X111124D01*
Y29436D01*
Y25500D01*
X115060Y29436D02*
X113748Y28780D01*
X112436Y27468D01*
Y26156D01*
X113092Y25500D01*
X114404D01*
X115060Y26156D01*
Y26812D01*
X114404Y27468D01*
X112436D01*
X94500Y29436D02*
Y25500D01*
Y27468D01*
X97124D01*
Y29436D01*
Y25500D01*
X101060Y29436D02*
X98436D01*
Y27468D01*
X99748Y28124D01*
X100404D01*
X101060Y27468D01*
Y26156D01*
X100404Y25500D01*
X99092D01*
X98436Y26156D01*
X81000Y29436D02*
Y25500D01*
Y27468D01*
X83624D01*
Y29436D01*
Y25500D01*
X86904D02*
Y29436D01*
X84936Y27468D01*
X87560D01*
X67500Y29436D02*
Y25500D01*
Y27468D01*
X70124D01*
Y29436D01*
Y25500D01*
X71436Y28780D02*
X72092Y29436D01*
X73404D01*
X74060Y28780D01*
Y28124D01*
X73404Y27468D01*
X72748D01*
X73404D01*
X74060Y26812D01*
Y26156D01*
X73404Y25500D01*
X72092D01*
X71436Y26156D01*
X54500Y29436D02*
Y25500D01*
Y27468D01*
X57124D01*
Y29436D01*
Y25500D01*
X61060D02*
X58436D01*
X61060Y28124D01*
Y28780D01*
X60404Y29436D01*
X59092D01*
X58436Y28780D01*
X41500Y29436D02*
Y25500D01*
Y27468D01*
X44124D01*
Y29436D01*
Y25500D01*
X45436D02*
X46748D01*
X46092D01*
Y29436D01*
X45436Y28780D01*
X139500Y79149D02*
Y76000D01*
X141074D01*
X141599Y76525D01*
Y78624D01*
X141074Y79149D01*
X139500D01*
X142649Y76000D02*
X143698D01*
X143173D01*
Y79149D01*
X142649Y78624D01*
X111000Y83436D02*
Y80156D01*
X111656Y79500D01*
X112968D01*
X113624Y80156D01*
Y83436D01*
X114936Y79500D02*
X116248D01*
X115592D01*
Y83436D01*
X114936Y82780D01*
X118216Y81468D02*
X120839D01*
X122151Y82780D02*
X122807Y83436D01*
X124119D01*
X124775Y82780D01*
Y82124D01*
X124119Y81468D01*
X123463D01*
X124119D01*
X124775Y80812D01*
Y80156D01*
X124119Y79500D01*
X122807D01*
X122151Y80156D01*
X85599Y78124D02*
X85074Y78649D01*
X84025D01*
X83500Y78124D01*
Y76025D01*
X84025Y75500D01*
X85074D01*
X85599Y76025D01*
X86649Y75500D02*
X87698D01*
X87173D01*
Y78649D01*
X86649Y78124D01*
D28*
X141157Y72047D02*
X154107D01*
X141057Y65947D02*
X154007D01*
D29*
X89664Y69258D02*
D03*
M02*
