G04 Layer_Color=8388736*
%FSLAX25Y25*%
%MOIN*%
G70*
G01*
G75*
%ADD25R,0.05131X0.07493*%
%ADD26C,0.03162*%
%ADD27C,0.24422*%
%ADD28C,0.05918*%
%ADD29C,0.09855*%
%ADD30C,0.08674*%
%ADD31R,0.08674X0.08674*%
%ADD32C,0.01575*%
D25*
X114870Y67000D02*
D03*
X125500D02*
D03*
D26*
X12975Y13232D02*
D03*
X10490Y19750D02*
D03*
X13127Y26141D02*
D03*
X19671Y28830D02*
D03*
X26112Y26294D02*
D03*
X28824Y19651D02*
D03*
X26112Y13283D02*
D03*
X19673Y10551D02*
D03*
X210105Y13232D02*
D03*
X207620Y19750D02*
D03*
X210257Y26141D02*
D03*
X216800Y28830D02*
D03*
X223242Y26294D02*
D03*
X225954Y19651D02*
D03*
X223242Y13283D02*
D03*
X216803Y10551D02*
D03*
X210105Y111862D02*
D03*
X207620Y118380D02*
D03*
X210257Y124771D02*
D03*
X216800Y127460D02*
D03*
X223242Y124923D02*
D03*
X225954Y118281D02*
D03*
X223242Y111913D02*
D03*
X216803Y109180D02*
D03*
X19673D02*
D03*
X26112Y111913D02*
D03*
X28824Y118281D02*
D03*
X26112Y124923D02*
D03*
X19671Y127460D02*
D03*
X13127Y124771D02*
D03*
X10490Y118380D02*
D03*
X12975Y111862D02*
D03*
D27*
X19685Y19685D02*
D03*
X216815D02*
D03*
Y118315D02*
D03*
X19685D02*
D03*
D28*
X28009Y81113D02*
D03*
Y73239D02*
D03*
Y57491D02*
D03*
Y65365D02*
D03*
X207991Y56887D02*
D03*
Y64761D02*
D03*
Y80509D02*
D03*
Y72635D02*
D03*
D29*
X44000Y17500D02*
D03*
X57500D02*
D03*
X71000D02*
D03*
X84500D02*
D03*
X98000D02*
D03*
X111500D02*
D03*
X125000D02*
D03*
X138500D02*
D03*
X152000D02*
D03*
X165500D02*
D03*
X179000D02*
D03*
X192500D02*
D03*
D30*
X158205Y120472D02*
D03*
X148205D02*
D03*
X138205D02*
D03*
X128205D02*
D03*
X78520D02*
D03*
X88205D02*
D03*
X98048D02*
D03*
X108205D02*
D03*
X118205D02*
D03*
X168205D02*
D03*
D31*
X68520D02*
D03*
D32*
X121500Y67000D02*
D03*
M02*
