G04 Layer_Physical_Order=2*
G04 Layer_Color=16711680*
%FSLAX25Y25*%
%MOIN*%
G70*
G01*
G75*
%ADD14C,0.02362*%
%ADD15C,0.09055*%
%ADD16C,0.23622*%
%ADD17C,0.07874*%
%ADD18R,0.07874X0.07874*%
%ADD19C,0.05118*%
%ADD20C,0.03543*%
G36*
X231532Y135954D02*
X232016Y135890D01*
X232826Y135555D01*
X233521Y135021D01*
X234055Y134326D01*
X234390Y133517D01*
X234489Y132766D01*
Y5894D01*
X234457Y5535D01*
X234444Y5468D01*
X234447Y5416D01*
X234409Y4936D01*
X234345Y4451D01*
X234010Y3641D01*
X233476Y2946D01*
X232781Y2413D01*
X231972Y2077D01*
X231468Y2011D01*
X5029D01*
X4279Y2110D01*
X3469Y2445D01*
X2774Y2979D01*
X2241Y3674D01*
X1905Y4484D01*
X1806Y5234D01*
Y132056D01*
X1806Y132500D01*
X1804Y132552D01*
X1841Y133032D01*
X1905Y133516D01*
X2241Y134326D01*
X2774Y135021D01*
X3469Y135555D01*
X4279Y135890D01*
X5030Y135989D01*
X230556Y135989D01*
X231000Y135989D01*
X231052Y135992D01*
X231532Y135954D01*
D02*
G37*
%LPC*%
G36*
X88205Y125634D02*
X86869Y125458D01*
X85624Y124943D01*
X84555Y124122D01*
X83735Y123053D01*
X83613Y122759D01*
X83113D01*
X82991Y123053D01*
X82171Y124122D01*
X81101Y124943D01*
X79856Y125458D01*
X78520Y125634D01*
X77184Y125458D01*
X75939Y124943D01*
X74870Y124122D01*
X74138Y123169D01*
X73638Y123303D01*
Y125590D01*
X63402D01*
Y115354D01*
X73638D01*
Y117641D01*
X74138Y117775D01*
X74870Y116822D01*
X75939Y116001D01*
X77184Y115486D01*
X78520Y115310D01*
X79856Y115486D01*
X81101Y116001D01*
X82171Y116822D01*
X82991Y117891D01*
X83113Y118185D01*
X83613D01*
X83735Y117891D01*
X84555Y116822D01*
X85624Y116001D01*
X86869Y115486D01*
X88205Y115310D01*
X89541Y115486D01*
X90786Y116001D01*
X91856Y116822D01*
X92676Y117891D01*
X92954Y118562D01*
X93495D01*
X93735Y117982D01*
X94527Y116951D01*
X95558Y116159D01*
X96759Y115662D01*
X97548Y115558D01*
Y120472D01*
Y125386D01*
X96759Y125282D01*
X95558Y124785D01*
X94527Y123993D01*
X93735Y122962D01*
X93495Y122382D01*
X92954D01*
X92676Y123053D01*
X91856Y124122D01*
X90786Y124943D01*
X89541Y125458D01*
X88205Y125634D01*
D02*
G37*
G36*
X168205D02*
X166869Y125458D01*
X165624Y124943D01*
X164555Y124122D01*
X163735Y123053D01*
X163476Y122429D01*
X162935D01*
X162676Y123053D01*
X161856Y124122D01*
X160786Y124943D01*
X159541Y125458D01*
X158205Y125634D01*
X156869Y125458D01*
X155624Y124943D01*
X154555Y124122D01*
X153735Y123053D01*
X153476Y122429D01*
X152935D01*
X152676Y123053D01*
X151856Y124122D01*
X150786Y124943D01*
X149541Y125458D01*
X148205Y125634D01*
X146869Y125458D01*
X145624Y124943D01*
X144555Y124122D01*
X143735Y123053D01*
X143378Y122192D01*
X142837D01*
X142518Y122962D01*
X141727Y123993D01*
X140695Y124785D01*
X139494Y125282D01*
X138705Y125386D01*
Y120472D01*
Y115558D01*
X139494Y115662D01*
X140695Y116159D01*
X141727Y116951D01*
X142518Y117982D01*
X142837Y118752D01*
X143378D01*
X143735Y117891D01*
X144555Y116822D01*
X145624Y116001D01*
X146869Y115486D01*
X148205Y115310D01*
X149541Y115486D01*
X150786Y116001D01*
X151856Y116822D01*
X152676Y117891D01*
X152935Y118516D01*
X153476D01*
X153735Y117891D01*
X154555Y116822D01*
X155624Y116001D01*
X156869Y115486D01*
X158205Y115310D01*
X159541Y115486D01*
X160786Y116001D01*
X161856Y116822D01*
X162676Y117891D01*
X162935Y118516D01*
X163476D01*
X163735Y117891D01*
X164555Y116822D01*
X165624Y116001D01*
X166869Y115486D01*
X168205Y115310D01*
X169541Y115486D01*
X170786Y116001D01*
X171856Y116822D01*
X172676Y117891D01*
X173192Y119136D01*
X173368Y120472D01*
X173192Y121808D01*
X172676Y123053D01*
X171856Y124122D01*
X170786Y124943D01*
X169541Y125458D01*
X168205Y125634D01*
D02*
G37*
G36*
X128205D02*
X126869Y125458D01*
X125624Y124943D01*
X124555Y124122D01*
X123735Y123053D01*
X123476Y122429D01*
X122935D01*
X122676Y123053D01*
X121856Y124122D01*
X120786Y124943D01*
X119541Y125458D01*
X118205Y125634D01*
X116869Y125458D01*
X115624Y124943D01*
X114555Y124122D01*
X113735Y123053D01*
X113476Y122429D01*
X112935D01*
X112676Y123053D01*
X111856Y124122D01*
X110786Y124943D01*
X109541Y125458D01*
X108205Y125634D01*
X106869Y125458D01*
X105624Y124943D01*
X104555Y124122D01*
X103735Y123053D01*
X103299Y122002D01*
X102758D01*
X102360Y122962D01*
X101569Y123993D01*
X100538Y124785D01*
X99337Y125282D01*
X98548Y125386D01*
Y120472D01*
Y115558D01*
X99337Y115662D01*
X100538Y116159D01*
X101569Y116951D01*
X102360Y117982D01*
X102758Y118942D01*
X103299D01*
X103735Y117891D01*
X104555Y116822D01*
X105624Y116001D01*
X106869Y115486D01*
X108205Y115310D01*
X109541Y115486D01*
X110786Y116001D01*
X111856Y116822D01*
X112676Y117891D01*
X112935Y118516D01*
X113476D01*
X113735Y117891D01*
X114555Y116822D01*
X115624Y116001D01*
X116869Y115486D01*
X118205Y115310D01*
X119541Y115486D01*
X120786Y116001D01*
X121856Y116822D01*
X122676Y117891D01*
X122935Y118516D01*
X123476D01*
X123735Y117891D01*
X124555Y116822D01*
X125624Y116001D01*
X126869Y115486D01*
X128205Y115310D01*
X129541Y115486D01*
X130787Y116001D01*
X131856Y116822D01*
X132676Y117891D01*
X133033Y118752D01*
X133574D01*
X133893Y117982D01*
X134684Y116951D01*
X135715Y116159D01*
X136916Y115662D01*
X137705Y115558D01*
Y120472D01*
Y125386D01*
X136916Y125282D01*
X135715Y124785D01*
X134684Y123993D01*
X133893Y122962D01*
X133574Y122192D01*
X133033D01*
X132676Y123053D01*
X131856Y124122D01*
X130787Y124943D01*
X129541Y125458D01*
X128205Y125634D01*
D02*
G37*
G36*
X217315Y131126D02*
Y118815D01*
X229626D01*
X229507Y120325D01*
X229037Y122286D01*
X228265Y124149D01*
X227211Y125868D01*
X225902Y127402D01*
X224368Y128711D01*
X222649Y129765D01*
X220786Y130537D01*
X218825Y131007D01*
X217315Y131126D01*
D02*
G37*
G36*
X216315D02*
X214805Y131007D01*
X212844Y130537D01*
X210981Y129765D01*
X209261Y128711D01*
X207728Y127402D01*
X206419Y125868D01*
X205365Y124149D01*
X204593Y122286D01*
X204122Y120325D01*
X204004Y118815D01*
X216315D01*
Y131126D01*
D02*
G37*
G36*
X20185D02*
Y118815D01*
X32496D01*
X32377Y120325D01*
X31907Y122286D01*
X31135Y124149D01*
X30081Y125868D01*
X28772Y127402D01*
X27239Y128711D01*
X25519Y129765D01*
X23656Y130537D01*
X21695Y131007D01*
X20185Y131126D01*
D02*
G37*
G36*
X19185D02*
X17675Y131007D01*
X15714Y130537D01*
X13851Y129765D01*
X12132Y128711D01*
X10598Y127402D01*
X9289Y125868D01*
X8235Y124149D01*
X7463Y122286D01*
X6993Y120325D01*
X6874Y118815D01*
X19185D01*
Y131126D01*
D02*
G37*
G36*
X229626Y117815D02*
X217315D01*
Y105504D01*
X218825Y105622D01*
X220786Y106093D01*
X222649Y106865D01*
X224368Y107919D01*
X225902Y109228D01*
X227211Y110762D01*
X228265Y112481D01*
X229037Y114344D01*
X229507Y116305D01*
X229626Y117815D01*
D02*
G37*
G36*
X216315D02*
X204004D01*
X204122Y116305D01*
X204593Y114344D01*
X205365Y112481D01*
X206419Y110762D01*
X207728Y109228D01*
X209261Y107919D01*
X210981Y106865D01*
X212844Y106093D01*
X214805Y105622D01*
X216315Y105504D01*
Y117815D01*
D02*
G37*
G36*
X32496D02*
X20185D01*
Y105504D01*
X21695Y105622D01*
X23656Y106093D01*
X25519Y106865D01*
X27239Y107919D01*
X28772Y109228D01*
X30081Y110762D01*
X31135Y112481D01*
X31907Y114344D01*
X32377Y116305D01*
X32496Y117815D01*
D02*
G37*
G36*
X19185D02*
X6874D01*
X6993Y116305D01*
X7463Y114344D01*
X8235Y112481D01*
X9289Y110762D01*
X10598Y109228D01*
X12132Y107919D01*
X13851Y106865D01*
X15714Y106093D01*
X17675Y105622D01*
X19185Y105504D01*
Y117815D01*
D02*
G37*
G36*
X28009Y84885D02*
X27033Y84757D01*
X26123Y84380D01*
X25342Y83780D01*
X24742Y82999D01*
X24365Y82089D01*
X24237Y81113D01*
X24365Y80137D01*
X24742Y79227D01*
X25342Y78445D01*
X26123Y77846D01*
X27033Y77469D01*
X27344Y77428D01*
Y76924D01*
X27033Y76883D01*
X26123Y76506D01*
X25342Y75906D01*
X24742Y75125D01*
X24365Y74215D01*
X24237Y73239D01*
X24365Y72263D01*
X24742Y71353D01*
X25342Y70571D01*
X26123Y69972D01*
X27033Y69595D01*
X27344Y69554D01*
Y69050D01*
X27033Y69009D01*
X26123Y68632D01*
X25342Y68032D01*
X24742Y67251D01*
X24365Y66341D01*
X24237Y65365D01*
X24365Y64388D01*
X24742Y63479D01*
X25342Y62697D01*
X26123Y62098D01*
X27033Y61721D01*
X28009Y61592D01*
X28986Y61721D01*
X29895Y62098D01*
X30677Y62697D01*
X31276Y63479D01*
X31653Y64388D01*
X31782Y65365D01*
X31653Y66341D01*
X31276Y67251D01*
X30677Y68032D01*
X29895Y68632D01*
X28986Y69009D01*
X28674Y69050D01*
Y69554D01*
X28986Y69595D01*
X29895Y69972D01*
X30677Y70571D01*
X31276Y71353D01*
X31653Y72263D01*
X31782Y73239D01*
X31653Y74215D01*
X31276Y75125D01*
X30677Y75906D01*
X29895Y76506D01*
X28986Y76883D01*
X28674Y76924D01*
Y77428D01*
X28986Y77469D01*
X29895Y77846D01*
X30677Y78445D01*
X31276Y79227D01*
X31653Y80137D01*
X31782Y81113D01*
X31653Y82089D01*
X31276Y82999D01*
X30677Y83780D01*
X29895Y84380D01*
X28986Y84757D01*
X28009Y84885D01*
D02*
G37*
G36*
X207991Y84282D02*
X207014Y84153D01*
X206105Y83776D01*
X205323Y83177D01*
X204724Y82395D01*
X204347Y81486D01*
X204218Y80509D01*
X204347Y79533D01*
X204724Y78623D01*
X205323Y77842D01*
X206105Y77242D01*
X207014Y76865D01*
X207326Y76824D01*
Y76320D01*
X207014Y76279D01*
X206105Y75902D01*
X205323Y75303D01*
X204724Y74521D01*
X204347Y73612D01*
X204218Y72635D01*
X204347Y71659D01*
X204724Y70749D01*
X205323Y69968D01*
X206105Y69368D01*
X207014Y68991D01*
X207326Y68950D01*
Y68446D01*
X207014Y68405D01*
X206105Y68028D01*
X205323Y67429D01*
X204724Y66647D01*
X204347Y65737D01*
X204218Y64761D01*
X204347Y63785D01*
X204724Y62875D01*
X205323Y62094D01*
X206105Y61494D01*
X207014Y61117D01*
X207991Y60989D01*
X208967Y61117D01*
X209877Y61494D01*
X210658Y62094D01*
X211258Y62875D01*
X211635Y63785D01*
X211763Y64761D01*
X211635Y65737D01*
X211258Y66647D01*
X210658Y67429D01*
X209877Y68028D01*
X208967Y68405D01*
X208656Y68446D01*
Y68950D01*
X208967Y68991D01*
X209877Y69368D01*
X210658Y69968D01*
X211258Y70749D01*
X211635Y71659D01*
X211763Y72635D01*
X211635Y73612D01*
X211258Y74521D01*
X210658Y75303D01*
X209877Y75902D01*
X208967Y76279D01*
X208656Y76320D01*
Y76824D01*
X208967Y76865D01*
X209877Y77242D01*
X210658Y77842D01*
X211258Y78623D01*
X211635Y79533D01*
X211763Y80509D01*
X211635Y81486D01*
X211258Y82395D01*
X210658Y83177D01*
X209877Y83776D01*
X208967Y84153D01*
X207991Y84282D01*
D02*
G37*
G36*
X28509Y61015D02*
Y57991D01*
X31533D01*
X31477Y58420D01*
X31118Y59286D01*
X30548Y60029D01*
X29804Y60600D01*
X28938Y60958D01*
X28509Y61015D01*
D02*
G37*
G36*
X27509D02*
X27080Y60958D01*
X26214Y60600D01*
X25471Y60029D01*
X24900Y59286D01*
X24542Y58420D01*
X24485Y57991D01*
X27509D01*
Y61015D01*
D02*
G37*
G36*
X208491Y60411D02*
Y57387D01*
X211515D01*
X211458Y57816D01*
X211100Y58682D01*
X210529Y59425D01*
X209786Y59996D01*
X208920Y60355D01*
X208491Y60411D01*
D02*
G37*
G36*
X207491D02*
X207062Y60355D01*
X206196Y59996D01*
X205452Y59425D01*
X204882Y58682D01*
X204523Y57816D01*
X204467Y57387D01*
X207491D01*
Y60411D01*
D02*
G37*
G36*
X31533Y56991D02*
X28509D01*
Y53967D01*
X28938Y54023D01*
X29804Y54382D01*
X30548Y54952D01*
X31118Y55696D01*
X31477Y56562D01*
X31533Y56991D01*
D02*
G37*
G36*
X27509D02*
X24485D01*
X24542Y56562D01*
X24900Y55696D01*
X25471Y54952D01*
X26214Y54382D01*
X27080Y54023D01*
X27509Y53967D01*
Y56991D01*
D02*
G37*
G36*
X211515Y56387D02*
X208491D01*
Y53363D01*
X208920Y53420D01*
X209786Y53778D01*
X210529Y54349D01*
X211100Y55092D01*
X211458Y55958D01*
X211515Y56387D01*
D02*
G37*
G36*
X207491D02*
X204467D01*
X204523Y55958D01*
X204882Y55092D01*
X205452Y54349D01*
X206196Y53778D01*
X207062Y53420D01*
X207491Y53363D01*
Y56387D01*
D02*
G37*
G36*
X217315Y32496D02*
Y20185D01*
X229626D01*
X229507Y21695D01*
X229037Y23656D01*
X228265Y25519D01*
X227211Y27239D01*
X225902Y28772D01*
X224368Y30081D01*
X222649Y31135D01*
X220786Y31907D01*
X218825Y32377D01*
X217315Y32496D01*
D02*
G37*
G36*
X216315D02*
X214805Y32377D01*
X212844Y31907D01*
X210981Y31135D01*
X209261Y30081D01*
X207728Y28772D01*
X206419Y27239D01*
X205365Y25519D01*
X204593Y23656D01*
X204122Y21695D01*
X204004Y20185D01*
X216315D01*
Y32496D01*
D02*
G37*
G36*
X20185D02*
Y20185D01*
X32496D01*
X32377Y21695D01*
X31907Y23656D01*
X31135Y25519D01*
X30081Y27239D01*
X28772Y28772D01*
X27239Y30081D01*
X25519Y31135D01*
X23656Y31907D01*
X21695Y32377D01*
X20185Y32496D01*
D02*
G37*
G36*
X19185D02*
X17675Y32377D01*
X15714Y31907D01*
X13851Y31135D01*
X12132Y30081D01*
X10598Y28772D01*
X9289Y27239D01*
X8235Y25519D01*
X7463Y23656D01*
X6993Y21695D01*
X6874Y20185D01*
X19185D01*
Y32496D01*
D02*
G37*
G36*
X152500Y23009D02*
Y18000D01*
X157509D01*
X157385Y18943D01*
X156828Y20288D01*
X155942Y21442D01*
X154788Y22328D01*
X153443Y22885D01*
X152500Y23009D01*
D02*
G37*
G36*
X151500D02*
X150557Y22885D01*
X149212Y22328D01*
X148058Y21442D01*
X147172Y20288D01*
X146615Y18943D01*
X146491Y18000D01*
X151500D01*
Y23009D01*
D02*
G37*
G36*
X139000D02*
Y18000D01*
X144009D01*
X143885Y18943D01*
X143328Y20288D01*
X142442Y21442D01*
X141288Y22328D01*
X139943Y22885D01*
X139000Y23009D01*
D02*
G37*
G36*
X138000D02*
X137057Y22885D01*
X135712Y22328D01*
X134558Y21442D01*
X133672Y20288D01*
X133115Y18943D01*
X132991Y18000D01*
X138000D01*
Y23009D01*
D02*
G37*
G36*
X157509Y17000D02*
X152500D01*
Y11991D01*
X153443Y12115D01*
X154788Y12672D01*
X155942Y13558D01*
X156828Y14712D01*
X157385Y16057D01*
X157509Y17000D01*
D02*
G37*
G36*
X151500D02*
X146491D01*
X146615Y16057D01*
X147172Y14712D01*
X148058Y13558D01*
X149212Y12672D01*
X150557Y12115D01*
X151500Y11991D01*
Y17000D01*
D02*
G37*
G36*
X144009D02*
X139000D01*
Y11991D01*
X139943Y12115D01*
X141288Y12672D01*
X142442Y13558D01*
X143328Y14712D01*
X143885Y16057D01*
X144009Y17000D01*
D02*
G37*
G36*
X138000D02*
X132991D01*
X133115Y16057D01*
X133672Y14712D01*
X134558Y13558D01*
X135712Y12672D01*
X137057Y12115D01*
X138000Y11991D01*
Y17000D01*
D02*
G37*
G36*
X192500Y23258D02*
X191010Y23062D01*
X189621Y22487D01*
X188428Y21572D01*
X187513Y20379D01*
X186938Y18990D01*
X186742Y17500D01*
X186938Y16010D01*
X187513Y14621D01*
X188428Y13429D01*
X189621Y12514D01*
X191010Y11938D01*
X192500Y11742D01*
X193990Y11938D01*
X195379Y12514D01*
X196572Y13429D01*
X197486Y14621D01*
X198062Y16010D01*
X198258Y17500D01*
X198062Y18990D01*
X197486Y20379D01*
X196572Y21572D01*
X195379Y22487D01*
X193990Y23062D01*
X192500Y23258D01*
D02*
G37*
G36*
X179000D02*
X177510Y23062D01*
X176121Y22487D01*
X174928Y21572D01*
X174013Y20379D01*
X173438Y18990D01*
X173242Y17500D01*
X173438Y16010D01*
X174013Y14621D01*
X174928Y13429D01*
X176121Y12514D01*
X177510Y11938D01*
X179000Y11742D01*
X180490Y11938D01*
X181879Y12514D01*
X183071Y13429D01*
X183986Y14621D01*
X184562Y16010D01*
X184758Y17500D01*
X184562Y18990D01*
X183986Y20379D01*
X183071Y21572D01*
X181879Y22487D01*
X180490Y23062D01*
X179000Y23258D01*
D02*
G37*
G36*
X165500D02*
X164010Y23062D01*
X162621Y22487D01*
X161428Y21572D01*
X160513Y20379D01*
X159938Y18990D01*
X159742Y17500D01*
X159938Y16010D01*
X160513Y14621D01*
X161428Y13429D01*
X162621Y12514D01*
X164010Y11938D01*
X165500Y11742D01*
X166990Y11938D01*
X168379Y12514D01*
X169571Y13429D01*
X170486Y14621D01*
X171062Y16010D01*
X171258Y17500D01*
X171062Y18990D01*
X170486Y20379D01*
X169571Y21572D01*
X168379Y22487D01*
X166990Y23062D01*
X165500Y23258D01*
D02*
G37*
G36*
X125000D02*
X123510Y23062D01*
X122121Y22487D01*
X120929Y21572D01*
X120013Y20379D01*
X119438Y18990D01*
X119242Y17500D01*
X119438Y16010D01*
X120013Y14621D01*
X120929Y13429D01*
X122121Y12514D01*
X123510Y11938D01*
X125000Y11742D01*
X126490Y11938D01*
X127879Y12514D01*
X129071Y13429D01*
X129987Y14621D01*
X130562Y16010D01*
X130758Y17500D01*
X130562Y18990D01*
X129987Y20379D01*
X129071Y21572D01*
X127879Y22487D01*
X126490Y23062D01*
X125000Y23258D01*
D02*
G37*
G36*
X111500D02*
X110010Y23062D01*
X108621Y22487D01*
X107429Y21572D01*
X106514Y20379D01*
X105938Y18990D01*
X105742Y17500D01*
X105938Y16010D01*
X106514Y14621D01*
X107429Y13429D01*
X108621Y12514D01*
X110010Y11938D01*
X111500Y11742D01*
X112990Y11938D01*
X114379Y12514D01*
X115571Y13429D01*
X116487Y14621D01*
X117062Y16010D01*
X117258Y17500D01*
X117062Y18990D01*
X116487Y20379D01*
X115571Y21572D01*
X114379Y22487D01*
X112990Y23062D01*
X111500Y23258D01*
D02*
G37*
G36*
X98000D02*
X96510Y23062D01*
X95121Y22487D01*
X93928Y21572D01*
X93014Y20379D01*
X92438Y18990D01*
X92242Y17500D01*
X92438Y16010D01*
X93014Y14621D01*
X93928Y13429D01*
X95121Y12514D01*
X96510Y11938D01*
X98000Y11742D01*
X99490Y11938D01*
X100879Y12514D01*
X102071Y13429D01*
X102987Y14621D01*
X103562Y16010D01*
X103758Y17500D01*
X103562Y18990D01*
X102987Y20379D01*
X102071Y21572D01*
X100879Y22487D01*
X99490Y23062D01*
X98000Y23258D01*
D02*
G37*
G36*
X84500D02*
X83010Y23062D01*
X81621Y22487D01*
X80428Y21572D01*
X79514Y20379D01*
X78938Y18990D01*
X78742Y17500D01*
X78938Y16010D01*
X79514Y14621D01*
X80428Y13429D01*
X81621Y12514D01*
X83010Y11938D01*
X84500Y11742D01*
X85990Y11938D01*
X87379Y12514D01*
X88572Y13429D01*
X89486Y14621D01*
X90062Y16010D01*
X90258Y17500D01*
X90062Y18990D01*
X89486Y20379D01*
X88572Y21572D01*
X87379Y22487D01*
X85990Y23062D01*
X84500Y23258D01*
D02*
G37*
G36*
X71000D02*
X69510Y23062D01*
X68121Y22487D01*
X66928Y21572D01*
X66013Y20379D01*
X65438Y18990D01*
X65242Y17500D01*
X65438Y16010D01*
X66013Y14621D01*
X66928Y13429D01*
X68121Y12514D01*
X69510Y11938D01*
X71000Y11742D01*
X72490Y11938D01*
X73879Y12514D01*
X75072Y13429D01*
X75986Y14621D01*
X76562Y16010D01*
X76758Y17500D01*
X76562Y18990D01*
X75986Y20379D01*
X75072Y21572D01*
X73879Y22487D01*
X72490Y23062D01*
X71000Y23258D01*
D02*
G37*
G36*
X57500D02*
X56010Y23062D01*
X54621Y22487D01*
X53429Y21572D01*
X52513Y20379D01*
X51938Y18990D01*
X51742Y17500D01*
X51938Y16010D01*
X52513Y14621D01*
X53429Y13429D01*
X54621Y12514D01*
X56010Y11938D01*
X57500Y11742D01*
X58990Y11938D01*
X60379Y12514D01*
X61572Y13429D01*
X62486Y14621D01*
X63062Y16010D01*
X63258Y17500D01*
X63062Y18990D01*
X62486Y20379D01*
X61572Y21572D01*
X60379Y22487D01*
X58990Y23062D01*
X57500Y23258D01*
D02*
G37*
G36*
X44000D02*
X42510Y23062D01*
X41121Y22487D01*
X39928Y21572D01*
X39013Y20379D01*
X38438Y18990D01*
X38242Y17500D01*
X38438Y16010D01*
X39013Y14621D01*
X39928Y13429D01*
X41121Y12514D01*
X42510Y11938D01*
X44000Y11742D01*
X45490Y11938D01*
X46879Y12514D01*
X48072Y13429D01*
X48987Y14621D01*
X49562Y16010D01*
X49758Y17500D01*
X49562Y18990D01*
X48987Y20379D01*
X48072Y21572D01*
X46879Y22487D01*
X45490Y23062D01*
X44000Y23258D01*
D02*
G37*
G36*
X229626Y19185D02*
X217315D01*
Y6874D01*
X218825Y6993D01*
X220786Y7463D01*
X222649Y8235D01*
X224368Y9289D01*
X225902Y10598D01*
X227211Y12132D01*
X228265Y13851D01*
X229037Y15714D01*
X229507Y17675D01*
X229626Y19185D01*
D02*
G37*
G36*
X216315D02*
X204004D01*
X204122Y17675D01*
X204593Y15714D01*
X205365Y13851D01*
X206419Y12132D01*
X207728Y10598D01*
X209261Y9289D01*
X210981Y8235D01*
X212844Y7463D01*
X214805Y6993D01*
X216315Y6874D01*
Y19185D01*
D02*
G37*
G36*
X32496D02*
X20185D01*
Y6874D01*
X21695Y6993D01*
X23656Y7463D01*
X25519Y8235D01*
X27239Y9289D01*
X28772Y10598D01*
X30081Y12132D01*
X31135Y13851D01*
X31907Y15714D01*
X32377Y17675D01*
X32496Y19185D01*
D02*
G37*
G36*
X19185D02*
X6874D01*
X6993Y17675D01*
X7463Y15714D01*
X8235Y13851D01*
X9289Y12132D01*
X10598Y10598D01*
X12132Y9289D01*
X13851Y8235D01*
X15714Y7463D01*
X17675Y6993D01*
X19185Y6874D01*
Y19185D01*
D02*
G37*
%LPD*%
D14*
X216803Y10551D02*
D03*
X223242Y13283D02*
D03*
X225954Y19651D02*
D03*
X223242Y26294D02*
D03*
X216800Y28830D02*
D03*
X210257Y26141D02*
D03*
X207620Y19750D02*
D03*
X210105Y13232D02*
D03*
X19673Y10551D02*
D03*
X26112Y13283D02*
D03*
X28824Y19651D02*
D03*
X26112Y26294D02*
D03*
X19671Y28830D02*
D03*
X13127Y26141D02*
D03*
X10490Y19750D02*
D03*
X12975Y13232D02*
D03*
Y111862D02*
D03*
X10490Y118380D02*
D03*
X13127Y124771D02*
D03*
X19671Y127460D02*
D03*
X26112Y124923D02*
D03*
X28824Y118281D02*
D03*
X26112Y111913D02*
D03*
X19673Y109180D02*
D03*
X216803D02*
D03*
X223242Y111913D02*
D03*
X225954Y118281D02*
D03*
X223242Y124923D02*
D03*
X216800Y127460D02*
D03*
X210257Y124771D02*
D03*
X207620Y118380D02*
D03*
X210105Y111862D02*
D03*
D15*
X192500Y17500D02*
D03*
X179000D02*
D03*
X165500D02*
D03*
X152000D02*
D03*
X138500D02*
D03*
X125000D02*
D03*
X111500D02*
D03*
X98000D02*
D03*
X84500D02*
D03*
X71000D02*
D03*
X57500D02*
D03*
X44000D02*
D03*
D16*
X216815Y19685D02*
D03*
X19685D02*
D03*
Y118315D02*
D03*
X216815D02*
D03*
D17*
X168205Y120472D02*
D03*
X118205D02*
D03*
X108205D02*
D03*
X98048D02*
D03*
X88205D02*
D03*
X78520D02*
D03*
X128205D02*
D03*
X138205D02*
D03*
X148205D02*
D03*
X158205D02*
D03*
D18*
X68520D02*
D03*
D19*
X207991Y72635D02*
D03*
Y80509D02*
D03*
Y64761D02*
D03*
Y56887D02*
D03*
X28009Y65365D02*
D03*
Y57491D02*
D03*
Y73239D02*
D03*
Y81113D02*
D03*
D20*
X95000Y57500D02*
D03*
X147000D02*
D03*
M02*
