G04 Layer_Physical_Order=2*
G04 Layer_Color=36540*
%FSLAX44Y44*%
%MOMM*%
G71*
G01*
G75*
%ADD41C,1.3000*%
%ADD43C,2.0000*%
G04:AMPARAMS|DCode=44|XSize=1.7mm|YSize=3.5mm|CornerRadius=0.425mm|HoleSize=0mm|Usage=FLASHONLY|Rotation=180.000|XOffset=0mm|YOffset=0mm|HoleType=Round|Shape=RoundedRectangle|*
%AMROUNDEDRECTD44*
21,1,1.7000,2.6500,0,0,180.0*
21,1,0.8500,3.5000,0,0,180.0*
1,1,0.8500,-0.4250,1.3250*
1,1,0.8500,0.4250,1.3250*
1,1,0.8500,0.4250,-1.3250*
1,1,0.8500,-0.4250,-1.3250*
%
%ADD44ROUNDEDRECTD44*%
G04:AMPARAMS|DCode=45|XSize=1.7mm|YSize=3.5mm|CornerRadius=0.425mm|HoleSize=0mm|Usage=FLASHONLY|Rotation=270.000|XOffset=0mm|YOffset=0mm|HoleType=Round|Shape=RoundedRectangle|*
%AMROUNDEDRECTD45*
21,1,1.7000,2.6500,0,0,270.0*
21,1,0.8500,3.5000,0,0,270.0*
1,1,0.8500,-1.3250,-0.4250*
1,1,0.8500,-1.3250,0.4250*
1,1,0.8500,1.3250,0.4250*
1,1,0.8500,1.3250,-0.4250*
%
%ADD45ROUNDEDRECTD45*%
%ADD46C,0.6100*%
G36*
X666281Y516387D02*
Y396330D01*
X666317Y395771D01*
X666427Y395222D01*
X666607Y394692D01*
X666854Y394190D01*
X667165Y393725D01*
X667534Y393304D01*
X695491Y365347D01*
Y66813D01*
X667511Y38833D01*
X667142Y38412D01*
X666831Y37947D01*
X666584Y37445D01*
X666404Y36915D01*
X666295Y36366D01*
X666258Y35807D01*
Y10903D01*
X665937Y10207D01*
X665496Y9419D01*
X664994Y8668D01*
X664979Y8650D01*
X662468Y6138D01*
X662449Y6124D01*
X661699Y5622D01*
X661224Y5356D01*
X11224D01*
X11183Y5364D01*
X10707Y5396D01*
Y5396D01*
X10286Y5429D01*
X9941Y5512D01*
X5137Y10316D01*
X5124Y10389D01*
X5120Y10459D01*
X5149Y10488D01*
Y526471D01*
X5186Y526688D01*
X5351Y527263D01*
X5581Y527816D01*
X5870Y528340D01*
X6217Y528829D01*
X6616Y529275D01*
X7062Y529674D01*
X7551Y530021D01*
X8075Y530311D01*
X8158Y530345D01*
X652324D01*
X666281Y516387D01*
D02*
G37*
%LPC*%
G36*
X392080Y522408D02*
X391152Y522375D01*
X390229Y522276D01*
X389315Y522111D01*
X388415Y521881D01*
X387534Y521588D01*
X386676Y521233D01*
X385846Y520817D01*
X385047Y520343D01*
X384284Y519814D01*
X383561Y519231D01*
X382882Y518598D01*
X382249Y517919D01*
X381666Y517196D01*
X381137Y516433D01*
X380663Y515634D01*
X380488Y515285D01*
X380345Y515227D01*
X379215D01*
X379072Y515285D01*
X378897Y515634D01*
X378423Y516433D01*
X377894Y517196D01*
X377311Y517919D01*
X376678Y518598D01*
X375999Y519231D01*
X375276Y519814D01*
X374513Y520343D01*
X373714Y520817D01*
X372884Y521233D01*
X372026Y521588D01*
X371145Y521881D01*
X370245Y522111D01*
X369331Y522276D01*
X368408Y522375D01*
X367480Y522408D01*
X366552Y522375D01*
X365629Y522276D01*
X364715Y522111D01*
X363815Y521881D01*
X362934Y521588D01*
X362076Y521233D01*
X361246Y520817D01*
X360447Y520343D01*
X359684Y519814D01*
X358961Y519231D01*
X358282Y518598D01*
X357649Y517919D01*
X357066Y517196D01*
X356537Y516433D01*
X356063Y515634D01*
X355669Y514848D01*
X355524Y514804D01*
X354436D01*
X354291Y514848D01*
X353897Y515634D01*
X353423Y516433D01*
X352894Y517196D01*
X352311Y517919D01*
X351678Y518598D01*
X350999Y519231D01*
X350276Y519814D01*
X349513Y520343D01*
X348714Y520817D01*
X347884Y521233D01*
X347026Y521588D01*
X346145Y521881D01*
X345245Y522111D01*
X344331Y522276D01*
X343408Y522375D01*
X342480Y522408D01*
X341552Y522375D01*
X340629Y522276D01*
X339715Y522111D01*
X338815Y521881D01*
X337934Y521588D01*
X337076Y521233D01*
X336246Y520817D01*
X335447Y520343D01*
X334684Y519814D01*
X333961Y519231D01*
X333282Y518598D01*
X332649Y517919D01*
X332066Y517196D01*
X331537Y516433D01*
X331063Y515634D01*
X330647Y514804D01*
X330292Y513946D01*
X330249Y513818D01*
X328911D01*
X328868Y513946D01*
X328513Y514804D01*
X328097Y515634D01*
X327623Y516433D01*
X327094Y517196D01*
X326511Y517919D01*
X325878Y518598D01*
X325199Y519231D01*
X324476Y519814D01*
X323713Y520343D01*
X322914Y520817D01*
X322084Y521233D01*
X321226Y521588D01*
X320345Y521881D01*
X319445Y522111D01*
X318531Y522276D01*
X317608Y522375D01*
X316680Y522408D01*
X315752Y522375D01*
X314829Y522276D01*
X313915Y522111D01*
X313015Y521881D01*
X312134Y521588D01*
X311276Y521233D01*
X310446Y520817D01*
X309647Y520343D01*
X308884Y519814D01*
X308161Y519231D01*
X307482Y518598D01*
X306849Y517919D01*
X306266Y517196D01*
X305737Y516433D01*
X305263Y515634D01*
X304847Y514804D01*
X304663Y514359D01*
X304513Y514307D01*
X303447D01*
X303297Y514359D01*
X303113Y514804D01*
X302697Y515634D01*
X302223Y516433D01*
X301694Y517196D01*
X301111Y517919D01*
X300478Y518598D01*
X299799Y519231D01*
X299076Y519814D01*
X298313Y520343D01*
X297514Y520817D01*
X296684Y521233D01*
X295826Y521588D01*
X294945Y521881D01*
X294045Y522111D01*
X293131Y522276D01*
X292208Y522375D01*
X291280Y522408D01*
X290352Y522375D01*
X289429Y522276D01*
X288515Y522111D01*
X287615Y521881D01*
X286734Y521588D01*
X285876Y521233D01*
X285046Y520817D01*
X284247Y520343D01*
X283484Y519814D01*
X282761Y519231D01*
X282082Y518598D01*
X281449Y517919D01*
X280866Y517196D01*
X280337Y516433D01*
X279863Y515634D01*
X279447Y514804D01*
X279092Y513946D01*
X279006Y513687D01*
X277666Y513683D01*
X277474Y514203D01*
X277062Y515097D01*
X276580Y515957D01*
X276033Y516777D01*
X275423Y517550D01*
X274754Y518274D01*
X274030Y518943D01*
X273256Y519553D01*
X272437Y520100D01*
X271577Y520582D01*
X270683Y520994D01*
X269758Y521335D01*
X268810Y521603D01*
X267843Y521795D01*
X267150Y521877D01*
Y509400D01*
Y496923D01*
X267843Y497005D01*
X268810Y497197D01*
X269758Y497464D01*
X270683Y497806D01*
X271577Y498218D01*
X272437Y498700D01*
X273256Y499247D01*
X274030Y499857D01*
X274754Y500526D01*
X275423Y501250D01*
X276033Y502024D01*
X276580Y502843D01*
X277062Y503703D01*
X277474Y504597D01*
X277666Y505117D01*
X279006Y505113D01*
X279092Y504854D01*
X279447Y503996D01*
X279863Y503166D01*
X280337Y502367D01*
X280866Y501604D01*
X281449Y500881D01*
X282082Y500202D01*
X282761Y499569D01*
X283484Y498986D01*
X284247Y498457D01*
X285046Y497983D01*
X285876Y497567D01*
X286734Y497212D01*
X287615Y496919D01*
X288515Y496689D01*
X289429Y496524D01*
X290352Y496425D01*
X291280Y496392D01*
X292208Y496425D01*
X293131Y496524D01*
X294045Y496689D01*
X294945Y496919D01*
X295826Y497212D01*
X296684Y497567D01*
X297514Y497983D01*
X298313Y498457D01*
X299076Y498986D01*
X299799Y499569D01*
X300478Y500202D01*
X301111Y500881D01*
X301694Y501604D01*
X302223Y502367D01*
X302697Y503166D01*
X303113Y503996D01*
X303297Y504441D01*
X303447Y504493D01*
X304513D01*
X304663Y504441D01*
X304847Y503996D01*
X305263Y503166D01*
X305737Y502367D01*
X306266Y501604D01*
X306849Y500881D01*
X307482Y500202D01*
X308161Y499569D01*
X308884Y498986D01*
X309647Y498457D01*
X310446Y497983D01*
X311276Y497567D01*
X312134Y497212D01*
X313015Y496919D01*
X313915Y496689D01*
X314829Y496524D01*
X315752Y496425D01*
X316680Y496392D01*
X317608Y496425D01*
X318531Y496524D01*
X319445Y496689D01*
X320345Y496919D01*
X321226Y497212D01*
X322084Y497567D01*
X322914Y497983D01*
X323713Y498457D01*
X324476Y498986D01*
X325199Y499569D01*
X325878Y500202D01*
X326511Y500881D01*
X327094Y501604D01*
X327623Y502367D01*
X328097Y503166D01*
X328513Y503996D01*
X328868Y504854D01*
X328911Y504982D01*
X330249D01*
X330292Y504854D01*
X330647Y503996D01*
X331063Y503166D01*
X331537Y502367D01*
X332066Y501604D01*
X332649Y500881D01*
X333282Y500202D01*
X333961Y499569D01*
X334684Y498986D01*
X335447Y498457D01*
X336246Y497983D01*
X337076Y497567D01*
X337934Y497212D01*
X338815Y496919D01*
X339715Y496689D01*
X340629Y496524D01*
X341552Y496425D01*
X342480Y496392D01*
X343408Y496425D01*
X344331Y496524D01*
X345245Y496689D01*
X346145Y496919D01*
X347026Y497212D01*
X347884Y497567D01*
X348714Y497983D01*
X349513Y498457D01*
X350276Y498986D01*
X350999Y499569D01*
X351678Y500202D01*
X352311Y500881D01*
X352894Y501604D01*
X353423Y502367D01*
X353897Y503166D01*
X354291Y503952D01*
X354436Y503996D01*
X355524D01*
X355669Y503952D01*
X356063Y503166D01*
X356537Y502367D01*
X357066Y501604D01*
X357649Y500881D01*
X358282Y500202D01*
X358961Y499569D01*
X359684Y498986D01*
X360447Y498457D01*
X361246Y497983D01*
X362076Y497567D01*
X362934Y497212D01*
X363815Y496919D01*
X364715Y496689D01*
X365629Y496524D01*
X366552Y496425D01*
X367480Y496392D01*
X368408Y496425D01*
X369331Y496524D01*
X370245Y496689D01*
X371145Y496919D01*
X372026Y497212D01*
X372884Y497567D01*
X373714Y497983D01*
X374513Y498457D01*
X375276Y498986D01*
X375999Y499569D01*
X376678Y500202D01*
X377311Y500881D01*
X377894Y501604D01*
X378423Y502367D01*
X378897Y503166D01*
X379072Y503515D01*
X379215Y503573D01*
X380345D01*
X380488Y503515D01*
X380663Y503166D01*
X381137Y502367D01*
X381666Y501604D01*
X382249Y500881D01*
X382882Y500202D01*
X383561Y499569D01*
X384284Y498986D01*
X385047Y498457D01*
X385846Y497983D01*
X386676Y497567D01*
X387534Y497212D01*
X388415Y496919D01*
X389315Y496689D01*
X390229Y496524D01*
X391152Y496425D01*
X392080Y496392D01*
X393008Y496425D01*
X393931Y496524D01*
X394845Y496689D01*
X395745Y496919D01*
X396626Y497212D01*
X397484Y497567D01*
X398314Y497983D01*
X399113Y498457D01*
X399876Y498986D01*
X400599Y499569D01*
X401278Y500202D01*
X401911Y500881D01*
X402494Y501604D01*
X403023Y502367D01*
X403210Y502682D01*
X404480Y502333D01*
Y496400D01*
X430480D01*
Y522400D01*
X404480D01*
Y516466D01*
X403210Y516118D01*
X403023Y516433D01*
X402494Y517196D01*
X401911Y517919D01*
X401278Y518598D01*
X400599Y519231D01*
X399876Y519814D01*
X399113Y520343D01*
X398314Y520817D01*
X397484Y521233D01*
X396626Y521588D01*
X395745Y521881D01*
X394845Y522111D01*
X393931Y522276D01*
X393008Y522375D01*
X392080Y522408D01*
D02*
G37*
G36*
X610519Y522405D02*
X609591Y522372D01*
X608668Y522273D01*
X607754Y522108D01*
X606855Y521878D01*
X605974Y521585D01*
X605116Y521230D01*
X604285Y520814D01*
X603487Y520340D01*
X602724Y519811D01*
X602001Y519228D01*
X601321Y518595D01*
X600689Y517916D01*
X600106Y517193D01*
X599576Y516430D01*
X599102Y515631D01*
X598928Y515282D01*
X598785Y515224D01*
X597654D01*
X597511Y515282D01*
X597337Y515631D01*
X596863Y516430D01*
X596333Y517193D01*
X595751Y517916D01*
X595118Y518595D01*
X594438Y519228D01*
X593715Y519811D01*
X592952Y520340D01*
X592154Y520814D01*
X591323Y521230D01*
X590466Y521585D01*
X589584Y521878D01*
X588685Y522108D01*
X587771Y522273D01*
X586848Y522372D01*
X585920Y522405D01*
X584992Y522372D01*
X584068Y522273D01*
X583154Y522108D01*
X582255Y521878D01*
X581374Y521585D01*
X580516Y521230D01*
X579685Y520814D01*
X578887Y520340D01*
X578124Y519811D01*
X577401Y519228D01*
X576721Y518595D01*
X576089Y517916D01*
X575506Y517193D01*
X574976Y516430D01*
X574502Y515631D01*
X574109Y514845D01*
X573965Y514801D01*
X572874D01*
X572730Y514845D01*
X572337Y515631D01*
X571863Y516430D01*
X571333Y517193D01*
X570750Y517916D01*
X570118Y518595D01*
X569438Y519228D01*
X568715Y519811D01*
X567952Y520340D01*
X567154Y520814D01*
X566323Y521230D01*
X565465Y521585D01*
X564584Y521878D01*
X563685Y522108D01*
X562771Y522273D01*
X561847Y522372D01*
X560919Y522405D01*
X559991Y522372D01*
X559068Y522273D01*
X558154Y522108D01*
X557254Y521878D01*
X556373Y521585D01*
X555516Y521230D01*
X554685Y520814D01*
X553887Y520340D01*
X553124Y519811D01*
X552401Y519228D01*
X551721Y518595D01*
X551088Y517916D01*
X550506Y517193D01*
X549976Y516430D01*
X549502Y515631D01*
X549087Y514801D01*
X548731Y513943D01*
X548689Y513815D01*
X547350D01*
X547308Y513943D01*
X546952Y514801D01*
X546537Y515631D01*
X546063Y516430D01*
X545533Y517193D01*
X544951Y517916D01*
X544318Y518595D01*
X543638Y519228D01*
X542915Y519811D01*
X542152Y520340D01*
X541354Y520814D01*
X540523Y521230D01*
X539665Y521585D01*
X538784Y521878D01*
X537885Y522108D01*
X536971Y522273D01*
X536048Y522372D01*
X535120Y522405D01*
X534192Y522372D01*
X533268Y522273D01*
X532355Y522108D01*
X531455Y521878D01*
X530574Y521585D01*
X529716Y521230D01*
X528885Y520814D01*
X528087Y520340D01*
X527324Y519811D01*
X526601Y519228D01*
X525921Y518595D01*
X525289Y517916D01*
X524706Y517193D01*
X524176Y516430D01*
X523703Y515631D01*
X523287Y514801D01*
X523102Y514356D01*
X522952Y514304D01*
X521887D01*
X521737Y514356D01*
X521552Y514801D01*
X521137Y515631D01*
X520663Y516430D01*
X520133Y517193D01*
X519551Y517916D01*
X518918Y518595D01*
X518238Y519228D01*
X517515Y519811D01*
X516752Y520340D01*
X515954Y520814D01*
X515123Y521230D01*
X514266Y521585D01*
X513384Y521878D01*
X512485Y522108D01*
X511571Y522273D01*
X510648Y522372D01*
X509720Y522405D01*
X508792Y522372D01*
X507868Y522273D01*
X506954Y522108D01*
X506055Y521878D01*
X505174Y521585D01*
X504316Y521230D01*
X503485Y520814D01*
X502687Y520340D01*
X501924Y519811D01*
X501201Y519228D01*
X500521Y518595D01*
X499889Y517916D01*
X499306Y517193D01*
X498776Y516430D01*
X498302Y515631D01*
X497887Y514801D01*
X497702Y514356D01*
X497552Y514304D01*
X496487D01*
X496337Y514356D01*
X496152Y514801D01*
X495737Y515631D01*
X495263Y516430D01*
X494733Y517193D01*
X494151Y517916D01*
X493518Y518595D01*
X492838Y519228D01*
X492115Y519811D01*
X491352Y520340D01*
X490554Y520814D01*
X489723Y521230D01*
X488866Y521585D01*
X487984Y521878D01*
X487085Y522108D01*
X486171Y522273D01*
X485248Y522372D01*
X484320Y522405D01*
X483392Y522372D01*
X482468Y522273D01*
X481554Y522108D01*
X480655Y521878D01*
X479774Y521585D01*
X478916Y521230D01*
X478085Y520814D01*
X477287Y520340D01*
X476524Y519811D01*
X475801Y519228D01*
X475121Y518595D01*
X474489Y517916D01*
X473906Y517193D01*
X473376Y516430D01*
X472902Y515631D01*
X472487Y514801D01*
X472303Y514356D01*
X472152Y514304D01*
X471087D01*
X470937Y514356D01*
X470752Y514801D01*
X470337Y515631D01*
X469863Y516430D01*
X469333Y517193D01*
X468751Y517916D01*
X468118Y518595D01*
X467438Y519228D01*
X466715Y519811D01*
X465952Y520340D01*
X465154Y520814D01*
X464323Y521230D01*
X463465Y521585D01*
X462584Y521878D01*
X461685Y522108D01*
X460771Y522273D01*
X459848Y522372D01*
X458920Y522405D01*
X457992Y522372D01*
X457068Y522273D01*
X456155Y522108D01*
X455255Y521878D01*
X454374Y521585D01*
X453516Y521230D01*
X452685Y520814D01*
X451887Y520340D01*
X451124Y519811D01*
X450401Y519228D01*
X449721Y518595D01*
X449089Y517916D01*
X448506Y517193D01*
X447976Y516430D01*
X447503Y515631D01*
X447087Y514801D01*
X446731Y513943D01*
X446438Y513062D01*
X446209Y512162D01*
X446044Y511248D01*
X445944Y510325D01*
X445911Y509397D01*
X445944Y508469D01*
X446044Y507546D01*
X446209Y506632D01*
X446438Y505732D01*
X446731Y504851D01*
X447087Y503993D01*
X447503Y503163D01*
X447976Y502364D01*
X448506Y501601D01*
X449089Y500878D01*
X449721Y500199D01*
X450401Y499566D01*
X451124Y498983D01*
X451887Y498454D01*
X452685Y497980D01*
X453516Y497564D01*
X454374Y497209D01*
X455255Y496916D01*
X456155Y496686D01*
X457068Y496521D01*
X457992Y496422D01*
X458920Y496389D01*
X459848Y496422D01*
X460771Y496521D01*
X461685Y496686D01*
X462584Y496916D01*
X463465Y497209D01*
X464323Y497564D01*
X465154Y497980D01*
X465952Y498454D01*
X466715Y498983D01*
X467438Y499566D01*
X468118Y500199D01*
X468751Y500878D01*
X469333Y501601D01*
X469863Y502364D01*
X470337Y503163D01*
X470752Y503993D01*
X470937Y504438D01*
X471087Y504490D01*
X472152D01*
X472303Y504438D01*
X472487Y503993D01*
X472902Y503163D01*
X473376Y502364D01*
X473906Y501601D01*
X474489Y500878D01*
X475121Y500199D01*
X475801Y499566D01*
X476524Y498983D01*
X477287Y498454D01*
X478085Y497980D01*
X478916Y497564D01*
X479774Y497209D01*
X480655Y496916D01*
X481554Y496686D01*
X482468Y496521D01*
X483392Y496422D01*
X484320Y496389D01*
X485248Y496422D01*
X486171Y496521D01*
X487085Y496686D01*
X487984Y496916D01*
X488866Y497209D01*
X489723Y497564D01*
X490554Y497980D01*
X491352Y498454D01*
X492115Y498983D01*
X492838Y499566D01*
X493518Y500199D01*
X494151Y500878D01*
X494733Y501601D01*
X495263Y502364D01*
X495737Y503163D01*
X496152Y503993D01*
X496337Y504438D01*
X496487Y504490D01*
X497552D01*
X497702Y504438D01*
X497887Y503993D01*
X498302Y503163D01*
X498776Y502364D01*
X499306Y501601D01*
X499889Y500878D01*
X500521Y500199D01*
X501201Y499566D01*
X501924Y498983D01*
X502687Y498454D01*
X503485Y497980D01*
X504316Y497564D01*
X505174Y497209D01*
X506055Y496916D01*
X506954Y496686D01*
X507868Y496521D01*
X508792Y496422D01*
X509720Y496389D01*
X510648Y496422D01*
X511571Y496521D01*
X512485Y496686D01*
X513384Y496916D01*
X514266Y497209D01*
X515123Y497564D01*
X515954Y497980D01*
X516752Y498454D01*
X517515Y498983D01*
X518238Y499566D01*
X518918Y500199D01*
X519551Y500878D01*
X520133Y501601D01*
X520663Y502364D01*
X521137Y503163D01*
X521552Y503993D01*
X521737Y504438D01*
X521887Y504490D01*
X522952D01*
X523102Y504438D01*
X523287Y503993D01*
X523703Y503163D01*
X524176Y502364D01*
X524706Y501601D01*
X525289Y500878D01*
X525921Y500199D01*
X526601Y499566D01*
X527324Y498983D01*
X528087Y498454D01*
X528885Y497980D01*
X529716Y497564D01*
X530574Y497209D01*
X531455Y496916D01*
X532355Y496686D01*
X533268Y496521D01*
X534192Y496422D01*
X535120Y496389D01*
X536048Y496422D01*
X536971Y496521D01*
X537885Y496686D01*
X538784Y496916D01*
X539665Y497209D01*
X540523Y497564D01*
X541354Y497980D01*
X542152Y498454D01*
X542915Y498983D01*
X543638Y499566D01*
X544318Y500199D01*
X544951Y500878D01*
X545533Y501601D01*
X546063Y502364D01*
X546537Y503163D01*
X546952Y503993D01*
X547308Y504851D01*
X547350Y504979D01*
X548689D01*
X548731Y504851D01*
X549087Y503993D01*
X549502Y503163D01*
X549976Y502364D01*
X550506Y501601D01*
X551088Y500878D01*
X551721Y500199D01*
X552401Y499566D01*
X553124Y498983D01*
X553887Y498454D01*
X554685Y497980D01*
X555516Y497564D01*
X556373Y497209D01*
X557254Y496916D01*
X558154Y496686D01*
X559068Y496521D01*
X559991Y496422D01*
X560919Y496389D01*
X561847Y496422D01*
X562771Y496521D01*
X563685Y496686D01*
X564584Y496916D01*
X565465Y497209D01*
X566323Y497564D01*
X567154Y497980D01*
X567952Y498454D01*
X568715Y498983D01*
X569438Y499566D01*
X570118Y500199D01*
X570750Y500878D01*
X571333Y501601D01*
X571863Y502364D01*
X572337Y503163D01*
X572730Y503950D01*
X572874Y503993D01*
X573965D01*
X574109Y503950D01*
X574502Y503163D01*
X574976Y502364D01*
X575506Y501601D01*
X576089Y500878D01*
X576721Y500199D01*
X577401Y499566D01*
X578124Y498983D01*
X578887Y498454D01*
X579685Y497980D01*
X580516Y497564D01*
X581374Y497209D01*
X582255Y496916D01*
X583154Y496686D01*
X584068Y496521D01*
X584992Y496422D01*
X585920Y496389D01*
X586848Y496422D01*
X587771Y496521D01*
X588685Y496686D01*
X589584Y496916D01*
X590466Y497209D01*
X591323Y497564D01*
X592154Y497980D01*
X592952Y498454D01*
X593715Y498983D01*
X594438Y499566D01*
X595118Y500199D01*
X595751Y500878D01*
X596333Y501601D01*
X596863Y502364D01*
X597337Y503163D01*
X597511Y503512D01*
X597654Y503570D01*
X598785D01*
X598928Y503512D01*
X599102Y503163D01*
X599576Y502364D01*
X600106Y501601D01*
X600689Y500878D01*
X601321Y500199D01*
X602001Y499566D01*
X602724Y498983D01*
X603487Y498454D01*
X604285Y497980D01*
X605116Y497564D01*
X605974Y497209D01*
X606855Y496916D01*
X607754Y496686D01*
X608668Y496521D01*
X609591Y496422D01*
X610519Y496389D01*
X611447Y496422D01*
X612371Y496521D01*
X613285Y496686D01*
X614184Y496916D01*
X615065Y497209D01*
X615923Y497564D01*
X616754Y497980D01*
X617552Y498454D01*
X618315Y498983D01*
X619038Y499566D01*
X619718Y500199D01*
X620350Y500878D01*
X620933Y501601D01*
X621463Y502364D01*
X621650Y502679D01*
X622920Y502331D01*
Y496397D01*
X648920D01*
Y522397D01*
X622920D01*
Y516464D01*
X621650Y516115D01*
X621463Y516430D01*
X620933Y517193D01*
X620350Y517916D01*
X619718Y518595D01*
X619038Y519228D01*
X618315Y519811D01*
X617552Y520340D01*
X616754Y520814D01*
X615923Y521230D01*
X615065Y521585D01*
X614184Y521878D01*
X613285Y522108D01*
X612371Y522273D01*
X611447Y522372D01*
X610519Y522405D01*
D02*
G37*
G36*
X240480Y522408D02*
X239552Y522375D01*
X238629Y522276D01*
X237715Y522111D01*
X236815Y521881D01*
X235934Y521588D01*
X235076Y521233D01*
X234246Y520817D01*
X233447Y520343D01*
X232684Y519814D01*
X231961Y519231D01*
X231282Y518598D01*
X230649Y517919D01*
X230066Y517196D01*
X229537Y516433D01*
X229063Y515634D01*
X228647Y514804D01*
X228463Y514359D01*
X228313Y514307D01*
X227247D01*
X227097Y514359D01*
X226913Y514804D01*
X226497Y515634D01*
X226023Y516433D01*
X225494Y517196D01*
X224911Y517919D01*
X224278Y518598D01*
X223599Y519231D01*
X222876Y519814D01*
X222113Y520343D01*
X221314Y520817D01*
X220484Y521233D01*
X219626Y521588D01*
X218745Y521881D01*
X217845Y522111D01*
X216931Y522276D01*
X216008Y522375D01*
X215080Y522408D01*
X214152Y522375D01*
X213229Y522276D01*
X212315Y522111D01*
X211415Y521881D01*
X210534Y521588D01*
X209676Y521233D01*
X208846Y520817D01*
X208047Y520343D01*
X207284Y519814D01*
X206561Y519231D01*
X205882Y518598D01*
X205249Y517919D01*
X204666Y517196D01*
X204137Y516433D01*
X203663Y515634D01*
X203247Y514804D01*
X203063Y514359D01*
X202913Y514307D01*
X201847D01*
X201697Y514359D01*
X201513Y514804D01*
X201097Y515634D01*
X200623Y516433D01*
X200094Y517196D01*
X199511Y517919D01*
X198878Y518598D01*
X198199Y519231D01*
X197476Y519814D01*
X196713Y520343D01*
X195914Y520817D01*
X195084Y521233D01*
X194226Y521588D01*
X193345Y521881D01*
X192445Y522111D01*
X191531Y522276D01*
X190608Y522375D01*
X189680Y522408D01*
X188752Y522375D01*
X187829Y522276D01*
X186915Y522111D01*
X186015Y521881D01*
X185134Y521588D01*
X184276Y521233D01*
X183446Y520817D01*
X182647Y520343D01*
X181884Y519814D01*
X181161Y519231D01*
X180482Y518598D01*
X179849Y517919D01*
X179266Y517196D01*
X178737Y516433D01*
X178263Y515634D01*
X177847Y514804D01*
X177492Y513946D01*
X177199Y513065D01*
X176969Y512165D01*
X176804Y511251D01*
X176705Y510328D01*
X176672Y509400D01*
X176705Y508472D01*
X176804Y507549D01*
X176969Y506635D01*
X177199Y505735D01*
X177492Y504854D01*
X177847Y503996D01*
X178263Y503166D01*
X178737Y502367D01*
X179266Y501604D01*
X179849Y500881D01*
X180482Y500202D01*
X181161Y499569D01*
X181884Y498986D01*
X182647Y498457D01*
X183446Y497983D01*
X184276Y497567D01*
X185134Y497212D01*
X186015Y496919D01*
X186915Y496689D01*
X187829Y496524D01*
X188752Y496425D01*
X189680Y496392D01*
X190608Y496425D01*
X191531Y496524D01*
X192445Y496689D01*
X193345Y496919D01*
X194226Y497212D01*
X195084Y497567D01*
X195914Y497983D01*
X196713Y498457D01*
X197476Y498986D01*
X198199Y499569D01*
X198878Y500202D01*
X199511Y500881D01*
X200094Y501604D01*
X200623Y502367D01*
X201097Y503166D01*
X201513Y503996D01*
X201697Y504441D01*
X201847Y504493D01*
X202913D01*
X203063Y504441D01*
X203247Y503996D01*
X203663Y503166D01*
X204137Y502367D01*
X204666Y501604D01*
X205249Y500881D01*
X205882Y500202D01*
X206561Y499569D01*
X207284Y498986D01*
X208047Y498457D01*
X208846Y497983D01*
X209676Y497567D01*
X210534Y497212D01*
X211415Y496919D01*
X212315Y496689D01*
X213229Y496524D01*
X214152Y496425D01*
X215080Y496392D01*
X216008Y496425D01*
X216931Y496524D01*
X217845Y496689D01*
X218745Y496919D01*
X219626Y497212D01*
X220484Y497567D01*
X221314Y497983D01*
X222113Y498457D01*
X222876Y498986D01*
X223599Y499569D01*
X224278Y500202D01*
X224911Y500881D01*
X225494Y501604D01*
X226023Y502367D01*
X226497Y503166D01*
X226913Y503996D01*
X227097Y504441D01*
X227247Y504493D01*
X228313D01*
X228463Y504441D01*
X228647Y503996D01*
X229063Y503166D01*
X229537Y502367D01*
X230066Y501604D01*
X230649Y500881D01*
X231282Y500202D01*
X231961Y499569D01*
X232684Y498986D01*
X233447Y498457D01*
X234246Y497983D01*
X235076Y497567D01*
X235934Y497212D01*
X236815Y496919D01*
X237715Y496689D01*
X238629Y496524D01*
X239552Y496425D01*
X240480Y496392D01*
X241408Y496425D01*
X242331Y496524D01*
X243245Y496689D01*
X244145Y496919D01*
X245026Y497212D01*
X245884Y497567D01*
X246714Y497983D01*
X247513Y498457D01*
X248276Y498986D01*
X248999Y499569D01*
X249678Y500202D01*
X250311Y500881D01*
X250894Y501604D01*
X251423Y502367D01*
X251897Y503166D01*
X252313Y503996D01*
X252668Y504854D01*
X252754Y505113D01*
X254094Y505117D01*
X254286Y504597D01*
X254698Y503703D01*
X255180Y502843D01*
X255727Y502024D01*
X256337Y501250D01*
X257006Y500526D01*
X257730Y499857D01*
X258503Y499247D01*
X259323Y498700D01*
X260182Y498218D01*
X261077Y497806D01*
X262002Y497464D01*
X262950Y497197D01*
X263917Y497005D01*
X264610Y496923D01*
Y509400D01*
Y521877D01*
X263917Y521795D01*
X262950Y521603D01*
X262002Y521335D01*
X261077Y520994D01*
X260182Y520582D01*
X259323Y520100D01*
X258503Y519553D01*
X257730Y518943D01*
X257006Y518274D01*
X256337Y517550D01*
X255727Y516777D01*
X255180Y515957D01*
X254698Y515097D01*
X254286Y514203D01*
X254094Y513683D01*
X252754Y513687D01*
X252668Y513946D01*
X252313Y514804D01*
X251897Y515634D01*
X251423Y516433D01*
X250894Y517196D01*
X250311Y517919D01*
X249678Y518598D01*
X248999Y519231D01*
X248276Y519814D01*
X247513Y520343D01*
X246714Y520817D01*
X245884Y521233D01*
X245026Y521588D01*
X244145Y521881D01*
X243245Y522111D01*
X242331Y522276D01*
X241408Y522375D01*
X240480Y522408D01*
D02*
G37*
G36*
X206000Y486040D02*
X205322Y486001D01*
X204652Y485888D01*
X203999Y485700D01*
X203371Y485439D01*
X202776Y485111D01*
X202222Y484717D01*
X201715Y484265D01*
X201262Y483758D01*
X200869Y483204D01*
X200541Y482609D01*
X200280Y481981D01*
X200092Y481328D01*
X199979Y480658D01*
X199940Y479980D01*
X199979Y479301D01*
X200092Y478632D01*
X200280Y477979D01*
X200541Y477351D01*
X200869Y476756D01*
X201262Y476202D01*
X201715Y475695D01*
X202222Y475243D01*
X202776Y474849D01*
X203371Y474521D01*
X203999Y474260D01*
X204652Y474072D01*
X205322Y473959D01*
X206000Y473921D01*
X206679Y473959D01*
X207348Y474072D01*
X208001Y474260D01*
X208629Y474521D01*
X209224Y474849D01*
X209778Y475243D01*
X210285Y475695D01*
X210737Y476202D01*
X211131Y476756D01*
X211459Y477351D01*
X211719Y477979D01*
X211908Y478632D01*
X212021Y479301D01*
X212059Y479980D01*
X212021Y480658D01*
X211908Y481328D01*
X211719Y481981D01*
X211459Y482609D01*
X211131Y483204D01*
X210737Y483758D01*
X210285Y484265D01*
X209778Y484717D01*
X209224Y485111D01*
X208629Y485439D01*
X208001Y485700D01*
X207348Y485888D01*
X206679Y486001D01*
X206000Y486040D01*
D02*
G37*
G36*
X80598Y480404D02*
X79919Y480366D01*
X79249Y480252D01*
X78596Y480064D01*
X77968Y479804D01*
X77374Y479475D01*
X76820Y479082D01*
X76313Y478629D01*
X75860Y478122D01*
X75467Y477568D01*
X75138Y476973D01*
X74878Y476346D01*
X74690Y475693D01*
X74576Y475023D01*
X74538Y474344D01*
X74576Y473666D01*
X74690Y472996D01*
X74878Y472343D01*
X75138Y471715D01*
X75467Y471120D01*
X75860Y470566D01*
X76313Y470060D01*
X76820Y469607D01*
X77374Y469214D01*
X77968Y468885D01*
X78596Y468625D01*
X79249Y468437D01*
X79919Y468323D01*
X80598Y468285D01*
X81276Y468323D01*
X81946Y468437D01*
X82599Y468625D01*
X83227Y468885D01*
X83821Y469214D01*
X84376Y469607D01*
X84882Y470060D01*
X85335Y470566D01*
X85728Y471120D01*
X86057Y471715D01*
X86317Y472343D01*
X86505Y472996D01*
X86619Y473666D01*
X86657Y474344D01*
X86619Y475023D01*
X86505Y475693D01*
X86317Y476346D01*
X86057Y476973D01*
X85728Y477568D01*
X85335Y478122D01*
X84882Y478629D01*
X84376Y479082D01*
X83821Y479475D01*
X83227Y479804D01*
X82599Y480064D01*
X81946Y480252D01*
X81276Y480366D01*
X80598Y480404D01*
D02*
G37*
G36*
X419655Y477839D02*
X418977Y477801D01*
X418307Y477687D01*
X417654Y477499D01*
X417026Y477239D01*
X416431Y476910D01*
X415877Y476517D01*
X415370Y476064D01*
X414918Y475558D01*
X414524Y475003D01*
X414196Y474409D01*
X413936Y473781D01*
X413748Y473128D01*
X413634Y472458D01*
X413596Y471780D01*
X413634Y471101D01*
X413748Y470431D01*
X413936Y469778D01*
X414196Y469150D01*
X414524Y468556D01*
X414918Y468002D01*
X415370Y467495D01*
X415877Y467042D01*
X416431Y466649D01*
X417026Y466320D01*
X417654Y466060D01*
X418307Y465872D01*
X418977Y465758D01*
X419655Y465720D01*
X420334Y465758D01*
X421003Y465872D01*
X421656Y466060D01*
X422284Y466320D01*
X422879Y466649D01*
X423433Y467042D01*
X423940Y467495D01*
X424393Y468002D01*
X424786Y468556D01*
X425115Y469150D01*
X425375Y469778D01*
X425563Y470431D01*
X425677Y471101D01*
X425715Y471780D01*
X425677Y472458D01*
X425563Y473128D01*
X425375Y473781D01*
X425115Y474409D01*
X424786Y475003D01*
X424393Y475558D01*
X423940Y476064D01*
X423433Y476517D01*
X422879Y476910D01*
X422284Y477239D01*
X421656Y477499D01*
X421003Y477687D01*
X420334Y477801D01*
X419655Y477839D01*
D02*
G37*
G36*
X256029Y446059D02*
X255351Y446021D01*
X254681Y445907D01*
X254028Y445719D01*
X253400Y445458D01*
X252805Y445130D01*
X252251Y444737D01*
X251744Y444284D01*
X251292Y443777D01*
X250898Y443223D01*
X250570Y442628D01*
X250310Y442000D01*
X250121Y441348D01*
X250008Y440678D01*
X249970Y439999D01*
X250008Y439321D01*
X250121Y438651D01*
X250310Y437998D01*
X250570Y437370D01*
X250898Y436775D01*
X251292Y436221D01*
X251744Y435714D01*
X252251Y435262D01*
X252805Y434868D01*
X253400Y434540D01*
X254028Y434280D01*
X254681Y434091D01*
X255351Y433978D01*
X256029Y433940D01*
X256708Y433978D01*
X257377Y434091D01*
X258030Y434280D01*
X258658Y434540D01*
X259253Y434868D01*
X259807Y435262D01*
X260314Y435714D01*
X260767Y436221D01*
X261160Y436775D01*
X261488Y437370D01*
X261749Y437998D01*
X261937Y438651D01*
X262050Y439321D01*
X262089Y439999D01*
X262050Y440678D01*
X261937Y441348D01*
X261749Y442000D01*
X261488Y442628D01*
X261160Y443223D01*
X260767Y443777D01*
X260314Y444284D01*
X259807Y444737D01*
X259253Y445130D01*
X258658Y445458D01*
X258030Y445719D01*
X257377Y445907D01*
X256708Y446021D01*
X256029Y446059D01*
D02*
G37*
G36*
X211007Y433810D02*
X210328Y433772D01*
X209658Y433658D01*
X209005Y433470D01*
X208377Y433210D01*
X207783Y432881D01*
X207229Y432488D01*
X206722Y432035D01*
X206269Y431528D01*
X205876Y430974D01*
X205547Y430379D01*
X205287Y429752D01*
X205099Y429099D01*
X204985Y428429D01*
X204947Y427750D01*
X204985Y427072D01*
X205099Y426402D01*
X205287Y425749D01*
X205547Y425121D01*
X205876Y424526D01*
X206269Y423972D01*
X206722Y423465D01*
X207229Y423013D01*
X207783Y422620D01*
X208377Y422291D01*
X209005Y422031D01*
X209658Y421843D01*
X210328Y421729D01*
X211007Y421691D01*
X211685Y421729D01*
X212355Y421843D01*
X213008Y422031D01*
X213636Y422291D01*
X214230Y422620D01*
X214785Y423013D01*
X215291Y423465D01*
X215744Y423972D01*
X216137Y424526D01*
X216466Y425121D01*
X216726Y425749D01*
X216914Y426402D01*
X217028Y427072D01*
X217066Y427750D01*
X217028Y428429D01*
X216914Y429099D01*
X216726Y429752D01*
X216466Y430379D01*
X216137Y430974D01*
X215744Y431528D01*
X215291Y432035D01*
X214785Y432488D01*
X214230Y432881D01*
X213636Y433210D01*
X213008Y433470D01*
X212355Y433658D01*
X211685Y433772D01*
X211007Y433810D01*
D02*
G37*
G36*
X175136D02*
X174457Y433772D01*
X173787Y433658D01*
X173134Y433470D01*
X172507Y433210D01*
X171912Y432881D01*
X171358Y432488D01*
X170851Y432035D01*
X170398Y431528D01*
X170005Y430974D01*
X169676Y430379D01*
X169416Y429752D01*
X169228Y429099D01*
X169114Y428429D01*
X169076Y427750D01*
X169114Y427072D01*
X169228Y426402D01*
X169416Y425749D01*
X169676Y425121D01*
X170005Y424526D01*
X170398Y423972D01*
X170851Y423465D01*
X171358Y423013D01*
X171912Y422620D01*
X172507Y422291D01*
X173134Y422031D01*
X173787Y421843D01*
X174457Y421729D01*
X175136Y421691D01*
X175814Y421729D01*
X176484Y421843D01*
X177137Y422031D01*
X177765Y422291D01*
X178360Y422620D01*
X178914Y423013D01*
X179420Y423465D01*
X179873Y423972D01*
X180266Y424526D01*
X180595Y425121D01*
X180855Y425749D01*
X181043Y426402D01*
X181157Y427072D01*
X181195Y427750D01*
X181157Y428429D01*
X181043Y429099D01*
X180855Y429752D01*
X180595Y430379D01*
X180266Y430974D01*
X179873Y431528D01*
X179420Y432035D01*
X178914Y432488D01*
X178360Y432881D01*
X177765Y433210D01*
X177137Y433470D01*
X176484Y433658D01*
X175814Y433772D01*
X175136Y433810D01*
D02*
G37*
G36*
X350990Y426020D02*
X350312Y425981D01*
X349642Y425868D01*
X348989Y425679D01*
X348361Y425419D01*
X347766Y425091D01*
X347212Y424697D01*
X346705Y424245D01*
X346253Y423738D01*
X345859Y423184D01*
X345531Y422589D01*
X345271Y421961D01*
X345082Y421308D01*
X344969Y420638D01*
X344930Y419960D01*
X344969Y419282D01*
X345082Y418612D01*
X345271Y417959D01*
X345531Y417331D01*
X345859Y416736D01*
X346253Y416182D01*
X346705Y415675D01*
X347212Y415223D01*
X347766Y414829D01*
X348361Y414501D01*
X348989Y414240D01*
X349642Y414052D01*
X350312Y413939D01*
X350990Y413900D01*
X351668Y413939D01*
X352338Y414052D01*
X352991Y414240D01*
X353619Y414501D01*
X354214Y414829D01*
X354768Y415223D01*
X355275Y415675D01*
X355728Y416182D01*
X356121Y416736D01*
X356449Y417331D01*
X356709Y417959D01*
X356898Y418612D01*
X357011Y419282D01*
X357049Y419960D01*
X357011Y420638D01*
X356898Y421308D01*
X356709Y421961D01*
X356449Y422589D01*
X356121Y423184D01*
X355728Y423738D01*
X355275Y424245D01*
X354768Y424697D01*
X354214Y425091D01*
X353619Y425419D01*
X352991Y425679D01*
X352338Y425868D01*
X351668Y425981D01*
X350990Y426020D01*
D02*
G37*
G36*
X284370Y420400D02*
X283692Y420361D01*
X283022Y420248D01*
X282369Y420060D01*
X281741Y419799D01*
X281146Y419471D01*
X280592Y419077D01*
X280085Y418625D01*
X279632Y418118D01*
X279239Y417564D01*
X278911Y416969D01*
X278650Y416341D01*
X278462Y415688D01*
X278349Y415019D01*
X278311Y414340D01*
X278349Y413662D01*
X278462Y412992D01*
X278650Y412339D01*
X278911Y411711D01*
X279239Y411116D01*
X279632Y410562D01*
X280085Y410055D01*
X280592Y409603D01*
X281146Y409209D01*
X281741Y408881D01*
X282369Y408621D01*
X283022Y408433D01*
X283692Y408319D01*
X284370Y408280D01*
X285049Y408319D01*
X285718Y408433D01*
X286371Y408621D01*
X286999Y408881D01*
X287594Y409209D01*
X288148Y409603D01*
X288655Y410055D01*
X289107Y410562D01*
X289501Y411116D01*
X289829Y411711D01*
X290089Y412339D01*
X290278Y412992D01*
X290391Y413662D01*
X290429Y414340D01*
X290391Y415019D01*
X290278Y415688D01*
X290089Y416341D01*
X289829Y416969D01*
X289501Y417564D01*
X289107Y418118D01*
X288655Y418625D01*
X288148Y419077D01*
X287594Y419471D01*
X286999Y419799D01*
X286371Y420060D01*
X285718Y420248D01*
X285049Y420361D01*
X284370Y420400D01*
D02*
G37*
G36*
X210940Y410400D02*
X210262Y410362D01*
X209592Y410248D01*
X208939Y410060D01*
X208311Y409799D01*
X207716Y409471D01*
X207162Y409078D01*
X206655Y408625D01*
X206203Y408118D01*
X205809Y407564D01*
X205481Y406969D01*
X205221Y406341D01*
X205033Y405688D01*
X204919Y405019D01*
X204881Y404340D01*
X204919Y403662D01*
X205033Y402992D01*
X205221Y402339D01*
X205481Y401711D01*
X205809Y401116D01*
X206203Y400562D01*
X206655Y400055D01*
X207162Y399603D01*
X207716Y399209D01*
X208311Y398881D01*
X208939Y398621D01*
X209592Y398433D01*
X210262Y398319D01*
X210940Y398281D01*
X211619Y398319D01*
X212288Y398433D01*
X212941Y398621D01*
X213569Y398881D01*
X214164Y399209D01*
X214718Y399603D01*
X215225Y400055D01*
X215678Y400562D01*
X216071Y401116D01*
X216400Y401711D01*
X216660Y402339D01*
X216848Y402992D01*
X216962Y403662D01*
X217000Y404340D01*
X216962Y405019D01*
X216848Y405688D01*
X216660Y406341D01*
X216400Y406969D01*
X216071Y407564D01*
X215678Y408118D01*
X215225Y408625D01*
X214718Y409078D01*
X214164Y409471D01*
X213569Y409799D01*
X212941Y410060D01*
X212288Y410248D01*
X211619Y410362D01*
X210940Y410400D01*
D02*
G37*
G36*
X381080Y398166D02*
X380401Y398128D01*
X379731Y398014D01*
X379078Y397826D01*
X378451Y397566D01*
X377856Y397237D01*
X377302Y396844D01*
X376795Y396391D01*
X376342Y395885D01*
X375949Y395330D01*
X375620Y394736D01*
X375360Y394108D01*
X375172Y393455D01*
X375058Y392785D01*
X375020Y392107D01*
X375058Y391428D01*
X375172Y390758D01*
X375360Y390105D01*
X375620Y389478D01*
X375949Y388883D01*
X376342Y388329D01*
X376795Y387822D01*
X377302Y387369D01*
X377856Y386976D01*
X378451Y386647D01*
X379078Y386387D01*
X379731Y386199D01*
X380401Y386085D01*
X381080Y386047D01*
X381758Y386085D01*
X382428Y386199D01*
X383081Y386387D01*
X383709Y386647D01*
X384303Y386976D01*
X384858Y387369D01*
X385364Y387822D01*
X385817Y388329D01*
X386210Y388883D01*
X386539Y389478D01*
X386799Y390105D01*
X386987Y390758D01*
X387101Y391428D01*
X387139Y392107D01*
X387101Y392785D01*
X386987Y393455D01*
X386799Y394108D01*
X386539Y394736D01*
X386210Y395330D01*
X385817Y395885D01*
X385364Y396391D01*
X384858Y396844D01*
X384303Y397237D01*
X383709Y397566D01*
X383081Y397826D01*
X382428Y398014D01*
X381758Y398128D01*
X381080Y398166D01*
D02*
G37*
G36*
X610439Y397846D02*
X609761Y397808D01*
X609091Y397695D01*
X608438Y397506D01*
X607810Y397246D01*
X607215Y396918D01*
X606661Y396525D01*
X606155Y396072D01*
X605702Y395565D01*
X605308Y395011D01*
X604980Y394416D01*
X604720Y393788D01*
X604532Y393135D01*
X604418Y392465D01*
X604380Y391787D01*
X604418Y391109D01*
X604532Y390439D01*
X604720Y389786D01*
X604980Y389158D01*
X605308Y388563D01*
X605702Y388009D01*
X606155Y387502D01*
X606661Y387049D01*
X607215Y386656D01*
X607810Y386328D01*
X608438Y386068D01*
X609091Y385879D01*
X609761Y385766D01*
X610439Y385728D01*
X611118Y385766D01*
X611788Y385879D01*
X612440Y386068D01*
X613068Y386328D01*
X613663Y386656D01*
X614217Y387049D01*
X614724Y387502D01*
X615177Y388009D01*
X615570Y388563D01*
X615899Y389158D01*
X616159Y389786D01*
X616347Y390439D01*
X616461Y391109D01*
X616499Y391787D01*
X616461Y392465D01*
X616347Y393135D01*
X616159Y393788D01*
X615899Y394416D01*
X615570Y395011D01*
X615177Y395565D01*
X614724Y396072D01*
X614217Y396525D01*
X613663Y396918D01*
X613068Y397246D01*
X612440Y397506D01*
X611788Y397695D01*
X611118Y397808D01*
X610439Y397846D01*
D02*
G37*
G36*
X565425Y397132D02*
X564746Y397094D01*
X564076Y396980D01*
X563424Y396792D01*
X562796Y396532D01*
X562201Y396203D01*
X561647Y395810D01*
X561140Y395357D01*
X560687Y394851D01*
X560294Y394296D01*
X559965Y393702D01*
X559705Y393074D01*
X559517Y392421D01*
X559403Y391751D01*
X559365Y391072D01*
X559403Y390394D01*
X559517Y389724D01*
X559705Y389071D01*
X559965Y388443D01*
X560294Y387849D01*
X560687Y387294D01*
X561140Y386788D01*
X561647Y386335D01*
X562201Y385942D01*
X562796Y385613D01*
X563424Y385353D01*
X564076Y385165D01*
X564746Y385051D01*
X565425Y385013D01*
X566103Y385051D01*
X566773Y385165D01*
X567426Y385353D01*
X568054Y385613D01*
X568649Y385942D01*
X569203Y386335D01*
X569710Y386788D01*
X570162Y387294D01*
X570555Y387849D01*
X570884Y388443D01*
X571144Y389071D01*
X571332Y389724D01*
X571446Y390394D01*
X571484Y391072D01*
X571446Y391751D01*
X571332Y392421D01*
X571144Y393074D01*
X570884Y393702D01*
X570555Y394296D01*
X570162Y394851D01*
X569710Y395357D01*
X569203Y395810D01*
X568649Y396203D01*
X568054Y396532D01*
X567426Y396792D01*
X566773Y396980D01*
X566103Y397094D01*
X565425Y397132D01*
D02*
G37*
G36*
X338030Y388645D02*
X337351Y388606D01*
X336682Y388493D01*
X336029Y388304D01*
X335401Y388045D01*
X334806Y387716D01*
X334252Y387323D01*
X333745Y386870D01*
X333293Y386363D01*
X332899Y385809D01*
X332571Y385214D01*
X332310Y384586D01*
X332122Y383933D01*
X332009Y383264D01*
X331970Y382585D01*
X332009Y381907D01*
X332122Y381237D01*
X332310Y380584D01*
X332571Y379956D01*
X332899Y379361D01*
X333293Y378807D01*
X333745Y378300D01*
X334252Y377848D01*
X334806Y377454D01*
X335401Y377126D01*
X336029Y376866D01*
X336682Y376678D01*
X337351Y376564D01*
X338030Y376526D01*
X338708Y376564D01*
X339378Y376678D01*
X340031Y376866D01*
X340659Y377126D01*
X341254Y377454D01*
X341808Y377848D01*
X342315Y378300D01*
X342767Y378807D01*
X343161Y379361D01*
X343489Y379956D01*
X343750Y380584D01*
X343938Y381237D01*
X344051Y381907D01*
X344090Y382585D01*
X344051Y383264D01*
X343938Y383933D01*
X343750Y384586D01*
X343489Y385214D01*
X343161Y385809D01*
X342767Y386363D01*
X342315Y386870D01*
X341808Y387323D01*
X341254Y387716D01*
X340659Y388045D01*
X340031Y388304D01*
X339378Y388493D01*
X338708Y388606D01*
X338030Y388645D01*
D02*
G37*
G36*
X510821Y378510D02*
X510142Y378471D01*
X509472Y378358D01*
X508819Y378170D01*
X508191Y377910D01*
X507597Y377581D01*
X507042Y377188D01*
X506536Y376735D01*
X506083Y376228D01*
X505690Y375674D01*
X505361Y375079D01*
X505101Y374451D01*
X504913Y373798D01*
X504799Y373129D01*
X504761Y372450D01*
X504799Y371772D01*
X504913Y371102D01*
X505101Y370449D01*
X505361Y369821D01*
X505690Y369226D01*
X506083Y368672D01*
X506536Y368165D01*
X507042Y367713D01*
X507597Y367319D01*
X508191Y366991D01*
X508819Y366731D01*
X509472Y366543D01*
X510142Y366429D01*
X510821Y366391D01*
X511499Y366429D01*
X512169Y366543D01*
X512822Y366731D01*
X513450Y366991D01*
X514044Y367319D01*
X514599Y367713D01*
X515105Y368165D01*
X515558Y368672D01*
X515951Y369226D01*
X516280Y369821D01*
X516540Y370449D01*
X516728Y371102D01*
X516842Y371772D01*
X516880Y372450D01*
X516842Y373129D01*
X516728Y373798D01*
X516540Y374451D01*
X516280Y375079D01*
X515951Y375674D01*
X515558Y376228D01*
X515105Y376735D01*
X514599Y377188D01*
X514044Y377581D01*
X513450Y377910D01*
X512822Y378170D01*
X512169Y378358D01*
X511499Y378471D01*
X510821Y378510D01*
D02*
G37*
G36*
X350200Y378288D02*
X349522Y378250D01*
X348852Y378136D01*
X348199Y377948D01*
X347571Y377688D01*
X346976Y377359D01*
X346422Y376966D01*
X345915Y376513D01*
X345462Y376007D01*
X345069Y375452D01*
X344741Y374858D01*
X344481Y374230D01*
X344292Y373577D01*
X344179Y372907D01*
X344141Y372229D01*
X344179Y371550D01*
X344292Y370880D01*
X344481Y370227D01*
X344741Y369599D01*
X345069Y369005D01*
X345462Y368451D01*
X345915Y367944D01*
X346422Y367491D01*
X346976Y367098D01*
X347571Y366769D01*
X348199Y366509D01*
X348852Y366321D01*
X349522Y366207D01*
X350200Y366169D01*
X350878Y366207D01*
X351548Y366321D01*
X352201Y366509D01*
X352829Y366769D01*
X353424Y367098D01*
X353978Y367491D01*
X354485Y367944D01*
X354938Y368451D01*
X355331Y369005D01*
X355659Y369599D01*
X355919Y370227D01*
X356108Y370880D01*
X356221Y371550D01*
X356259Y372229D01*
X356221Y372907D01*
X356108Y373577D01*
X355919Y374230D01*
X355659Y374858D01*
X355331Y375452D01*
X354938Y376007D01*
X354485Y376513D01*
X353978Y376966D01*
X353424Y377359D01*
X352829Y377688D01*
X352201Y377948D01*
X351548Y378136D01*
X350878Y378250D01*
X350200Y378288D01*
D02*
G37*
G36*
X258803Y369059D02*
X258125Y369021D01*
X257455Y368908D01*
X256802Y368719D01*
X256174Y368459D01*
X255579Y368131D01*
X255025Y367737D01*
X254518Y367285D01*
X254066Y366778D01*
X253672Y366224D01*
X253344Y365629D01*
X253084Y365001D01*
X252896Y364348D01*
X252782Y363678D01*
X252744Y363000D01*
X252782Y362322D01*
X252896Y361652D01*
X253084Y360999D01*
X253344Y360371D01*
X253672Y359776D01*
X254066Y359222D01*
X254518Y358715D01*
X255025Y358262D01*
X255579Y357869D01*
X256174Y357541D01*
X256802Y357281D01*
X257455Y357092D01*
X258125Y356978D01*
X258803Y356940D01*
X259482Y356978D01*
X260151Y357092D01*
X260804Y357281D01*
X261432Y357541D01*
X262027Y357869D01*
X262581Y358262D01*
X263088Y358715D01*
X263541Y359222D01*
X263934Y359776D01*
X264263Y360371D01*
X264523Y360999D01*
X264711Y361652D01*
X264825Y362322D01*
X264863Y363000D01*
X264825Y363678D01*
X264711Y364348D01*
X264523Y365001D01*
X264263Y365629D01*
X263934Y366224D01*
X263541Y366778D01*
X263088Y367285D01*
X262581Y367737D01*
X262027Y368131D01*
X261432Y368459D01*
X260804Y368719D01*
X260151Y368908D01*
X259482Y369021D01*
X258803Y369059D01*
D02*
G37*
G36*
X204000Y368060D02*
X203321Y368021D01*
X202652Y367908D01*
X201999Y367719D01*
X201371Y367459D01*
X200776Y367131D01*
X200222Y366738D01*
X199715Y366285D01*
X199263Y365778D01*
X198869Y365224D01*
X198541Y364629D01*
X198281Y364001D01*
X198092Y363348D01*
X197979Y362678D01*
X197941Y362000D01*
X197979Y361322D01*
X198092Y360652D01*
X198281Y359999D01*
X198541Y359371D01*
X198869Y358776D01*
X199263Y358222D01*
X199715Y357715D01*
X200222Y357262D01*
X200776Y356869D01*
X201371Y356541D01*
X201999Y356281D01*
X202652Y356092D01*
X203321Y355979D01*
X204000Y355941D01*
X204678Y355979D01*
X205348Y356092D01*
X206001Y356281D01*
X206629Y356541D01*
X207224Y356869D01*
X207778Y357262D01*
X208285Y357715D01*
X208738Y358222D01*
X209131Y358776D01*
X209459Y359371D01*
X209720Y359999D01*
X209908Y360652D01*
X210021Y361322D01*
X210060Y362000D01*
X210021Y362678D01*
X209908Y363348D01*
X209720Y364001D01*
X209459Y364629D01*
X209131Y365224D01*
X208738Y365778D01*
X208285Y366285D01*
X207778Y366738D01*
X207224Y367131D01*
X206629Y367459D01*
X206001Y367719D01*
X205348Y367908D01*
X204678Y368021D01*
X204000Y368060D01*
D02*
G37*
G36*
X496657Y365810D02*
X495979Y365771D01*
X495309Y365658D01*
X494656Y365470D01*
X494028Y365210D01*
X493433Y364881D01*
X492879Y364488D01*
X492372Y364035D01*
X491920Y363528D01*
X491526Y362974D01*
X491198Y362379D01*
X490938Y361751D01*
X490750Y361099D01*
X490636Y360429D01*
X490598Y359750D01*
X490636Y359072D01*
X490750Y358402D01*
X490938Y357749D01*
X491198Y357121D01*
X491526Y356526D01*
X491920Y355972D01*
X492372Y355465D01*
X492879Y355013D01*
X493433Y354619D01*
X494028Y354291D01*
X494656Y354031D01*
X495309Y353843D01*
X495979Y353729D01*
X496657Y353691D01*
X497336Y353729D01*
X498005Y353843D01*
X498658Y354031D01*
X499286Y354291D01*
X499881Y354619D01*
X500435Y355013D01*
X500942Y355465D01*
X501395Y355972D01*
X501788Y356526D01*
X502117Y357121D01*
X502377Y357749D01*
X502565Y358402D01*
X502678Y359072D01*
X502717Y359750D01*
X502678Y360429D01*
X502565Y361099D01*
X502377Y361751D01*
X502117Y362379D01*
X501788Y362974D01*
X501395Y363528D01*
X500942Y364035D01*
X500435Y364488D01*
X499881Y364881D01*
X499286Y365210D01*
X498658Y365470D01*
X498005Y365658D01*
X497336Y365771D01*
X496657Y365810D01*
D02*
G37*
G36*
X256936Y353961D02*
X256257Y353923D01*
X255588Y353809D01*
X254935Y353621D01*
X254307Y353361D01*
X253712Y353032D01*
X253158Y352639D01*
X252651Y352186D01*
X252198Y351679D01*
X251805Y351125D01*
X251476Y350530D01*
X251217Y349903D01*
X251028Y349250D01*
X250914Y348580D01*
X250876Y347901D01*
X250914Y347223D01*
X251028Y346553D01*
X251217Y345900D01*
X251476Y345272D01*
X251805Y344677D01*
X252198Y344123D01*
X252651Y343617D01*
X253158Y343164D01*
X253712Y342771D01*
X254307Y342442D01*
X254935Y342182D01*
X255588Y341994D01*
X256257Y341880D01*
X256936Y341842D01*
X257614Y341880D01*
X258284Y341994D01*
X258937Y342182D01*
X259565Y342442D01*
X260160Y342771D01*
X260714Y343164D01*
X261221Y343617D01*
X261673Y344123D01*
X262067Y344677D01*
X262395Y345272D01*
X262655Y345900D01*
X262843Y346553D01*
X262957Y347223D01*
X262995Y347901D01*
X262957Y348580D01*
X262843Y349250D01*
X262655Y349903D01*
X262395Y350530D01*
X262067Y351125D01*
X261673Y351679D01*
X261221Y352186D01*
X260714Y352639D01*
X260160Y353032D01*
X259565Y353361D01*
X258937Y353621D01*
X258284Y353809D01*
X257614Y353923D01*
X256936Y353961D01*
D02*
G37*
G36*
X603220Y352809D02*
X602541Y352771D01*
X601871Y352658D01*
X601219Y352469D01*
X600591Y352209D01*
X599996Y351881D01*
X599442Y351487D01*
X598935Y351035D01*
X598482Y350528D01*
X598089Y349974D01*
X597761Y349379D01*
X597500Y348751D01*
X597312Y348098D01*
X597198Y347428D01*
X597160Y346750D01*
X597198Y346071D01*
X597312Y345401D01*
X597500Y344749D01*
X597761Y344121D01*
X598089Y343526D01*
X598482Y342972D01*
X598935Y342465D01*
X599442Y342012D01*
X599996Y341619D01*
X600591Y341291D01*
X601219Y341030D01*
X601871Y340842D01*
X602541Y340728D01*
X603220Y340690D01*
X603898Y340728D01*
X604568Y340842D01*
X605221Y341030D01*
X605849Y341291D01*
X606444Y341619D01*
X606998Y342012D01*
X607505Y342465D01*
X607957Y342972D01*
X608351Y343526D01*
X608679Y344121D01*
X608939Y344749D01*
X609128Y345401D01*
X609241Y346071D01*
X609279Y346750D01*
X609241Y347428D01*
X609128Y348098D01*
X608939Y348751D01*
X608679Y349379D01*
X608351Y349974D01*
X607957Y350528D01*
X607505Y351035D01*
X606998Y351487D01*
X606444Y351881D01*
X605849Y352209D01*
X605221Y352469D01*
X604568Y352658D01*
X603898Y352771D01*
X603220Y352809D01*
D02*
G37*
G36*
X70315Y408519D02*
X69486Y408483D01*
X68664Y408375D01*
X67854Y408195D01*
X67063Y407946D01*
X66296Y407628D01*
X65560Y407245D01*
X64861Y406799D01*
X64203Y406294D01*
X63591Y405734D01*
X63031Y405122D01*
X62526Y404464D01*
X62080Y403764D01*
X61697Y403029D01*
X61379Y402262D01*
X61130Y401471D01*
X60950Y400661D01*
X60842Y399839D01*
X60806Y399010D01*
X60842Y398181D01*
X60950Y397359D01*
X61130Y396549D01*
X61379Y395758D01*
X61697Y394991D01*
X62080Y394255D01*
X62526Y393556D01*
X63031Y392898D01*
X63591Y392286D01*
X64203Y391726D01*
X64861Y391221D01*
X65560Y390775D01*
X66296Y390392D01*
X67063Y390075D01*
X67854Y389825D01*
X68664Y389646D01*
Y388375D01*
X67854Y388195D01*
X67063Y387946D01*
X66296Y387628D01*
X65560Y387245D01*
X64861Y386799D01*
X64203Y386294D01*
X63591Y385734D01*
X63031Y385122D01*
X62526Y384464D01*
X62080Y383764D01*
X61697Y383029D01*
X61379Y382262D01*
X61130Y381471D01*
X60950Y380661D01*
X60842Y379839D01*
X60806Y379010D01*
X60842Y378181D01*
X60950Y377359D01*
X61130Y376549D01*
X61379Y375758D01*
X61697Y374991D01*
X62080Y374255D01*
X62526Y373556D01*
X63031Y372898D01*
X63591Y372286D01*
X64203Y371726D01*
X64861Y371221D01*
X65560Y370775D01*
X66296Y370392D01*
X67063Y370074D01*
X67854Y369825D01*
X68664Y369646D01*
Y368374D01*
X67854Y368195D01*
X67063Y367946D01*
X66296Y367628D01*
X65560Y367245D01*
X64861Y366799D01*
X64203Y366294D01*
X63591Y365734D01*
X63031Y365122D01*
X62526Y364464D01*
X62080Y363764D01*
X61697Y363029D01*
X61379Y362262D01*
X61130Y361471D01*
X60950Y360661D01*
X60842Y359839D01*
X60806Y359010D01*
X60842Y358181D01*
X60950Y357359D01*
X61130Y356549D01*
X61379Y355758D01*
X61697Y354991D01*
X62080Y354255D01*
X62526Y353556D01*
X63031Y352898D01*
X63591Y352286D01*
X64203Y351726D01*
X64861Y351221D01*
X65560Y350775D01*
X66296Y350392D01*
X67063Y350074D01*
X67854Y349825D01*
X68664Y349646D01*
Y348374D01*
X67854Y348195D01*
X67063Y347946D01*
X66296Y347628D01*
X65560Y347245D01*
X64861Y346799D01*
X64203Y346294D01*
X63591Y345734D01*
X63031Y345122D01*
X62526Y344464D01*
X62080Y343764D01*
X61697Y343029D01*
X61379Y342262D01*
X61130Y341471D01*
X60950Y340661D01*
X60842Y339839D01*
X60806Y339010D01*
X60842Y338181D01*
X60950Y337359D01*
X61130Y336549D01*
X61379Y335758D01*
X61697Y334991D01*
X62080Y334255D01*
X62526Y333556D01*
X63031Y332898D01*
X63591Y332286D01*
X64203Y331726D01*
X64861Y331221D01*
X65560Y330775D01*
X66296Y330392D01*
X67063Y330074D01*
X67854Y329825D01*
X68664Y329645D01*
X69486Y329537D01*
X70315Y329501D01*
X71144Y329537D01*
X71966Y329645D01*
X72776Y329825D01*
X73567Y330074D01*
X74334Y330392D01*
X75069Y330775D01*
X75769Y331221D01*
X76427Y331726D01*
X77039Y332286D01*
X77599Y332898D01*
X78104Y333556D01*
X78550Y334255D01*
X78933Y334991D01*
X79250Y335758D01*
X79500Y336549D01*
X79679Y337359D01*
X79788Y338181D01*
X79824Y339010D01*
X79788Y339839D01*
X79679Y340661D01*
X79500Y341471D01*
X79250Y342262D01*
X78933Y343029D01*
X78550Y343764D01*
X78104Y344464D01*
X77599Y345122D01*
X77039Y345734D01*
X76427Y346294D01*
X75769Y346799D01*
X75069Y347245D01*
X74334Y347628D01*
X73567Y347946D01*
X72776Y348195D01*
X71966Y348374D01*
Y349646D01*
X72776Y349825D01*
X73567Y350074D01*
X74334Y350392D01*
X75069Y350775D01*
X75769Y351221D01*
X76427Y351726D01*
X77039Y352286D01*
X77599Y352898D01*
X78104Y353556D01*
X78550Y354255D01*
X78933Y354991D01*
X79250Y355758D01*
X79500Y356549D01*
X79679Y357359D01*
X79788Y358181D01*
X79824Y359010D01*
X79788Y359839D01*
X79679Y360661D01*
X79500Y361471D01*
X79250Y362262D01*
X78933Y363029D01*
X78550Y363764D01*
X78104Y364464D01*
X77599Y365122D01*
X77039Y365734D01*
X76427Y366294D01*
X75769Y366799D01*
X75069Y367245D01*
X74334Y367628D01*
X73567Y367946D01*
X72776Y368195D01*
X71966Y368374D01*
Y369646D01*
X72776Y369825D01*
X73567Y370074D01*
X74334Y370392D01*
X75069Y370775D01*
X75769Y371221D01*
X76427Y371726D01*
X77039Y372286D01*
X77599Y372898D01*
X78104Y373556D01*
X78550Y374255D01*
X78933Y374991D01*
X79250Y375758D01*
X79500Y376549D01*
X79679Y377359D01*
X79788Y378181D01*
X79824Y379010D01*
X79788Y379839D01*
X79679Y380661D01*
X79500Y381471D01*
X79250Y382262D01*
X78933Y383029D01*
X78550Y383764D01*
X78104Y384464D01*
X77599Y385122D01*
X77039Y385734D01*
X76427Y386294D01*
X75769Y386799D01*
X75069Y387245D01*
X74334Y387628D01*
X73567Y387946D01*
X72776Y388195D01*
X71966Y388375D01*
Y389646D01*
X72776Y389825D01*
X73567Y390075D01*
X74334Y390392D01*
X75069Y390775D01*
X75769Y391221D01*
X76427Y391726D01*
X77039Y392286D01*
X77599Y392898D01*
X78104Y393556D01*
X78550Y394255D01*
X78933Y394991D01*
X79250Y395758D01*
X79500Y396549D01*
X79679Y397359D01*
X79788Y398181D01*
X79824Y399010D01*
X79788Y399839D01*
X79679Y400661D01*
X79500Y401471D01*
X79250Y402262D01*
X78933Y403029D01*
X78550Y403764D01*
X78104Y404464D01*
X77599Y405122D01*
X77039Y405734D01*
X76427Y406294D01*
X75769Y406799D01*
X75069Y407245D01*
X74334Y407628D01*
X73567Y407946D01*
X72776Y408195D01*
X71966Y408375D01*
X71144Y408483D01*
X70315Y408519D01*
D02*
G37*
G36*
X442915Y341116D02*
X442236Y341078D01*
X441566Y340964D01*
X440913Y340776D01*
X440285Y340516D01*
X439691Y340187D01*
X439137Y339794D01*
X438630Y339341D01*
X438177Y338834D01*
X437784Y338280D01*
X437455Y337686D01*
X437195Y337058D01*
X437007Y336405D01*
X436893Y335735D01*
X436855Y335056D01*
X436893Y334378D01*
X437007Y333708D01*
X437195Y333055D01*
X437455Y332427D01*
X437784Y331833D01*
X438177Y331278D01*
X438630Y330772D01*
X439137Y330319D01*
X439691Y329926D01*
X440285Y329597D01*
X440913Y329337D01*
X441566Y329149D01*
X442236Y329035D01*
X442915Y328997D01*
X443593Y329035D01*
X444263Y329149D01*
X444916Y329337D01*
X445544Y329597D01*
X446138Y329926D01*
X446693Y330319D01*
X447199Y330772D01*
X447652Y331278D01*
X448045Y331833D01*
X448374Y332427D01*
X448634Y333055D01*
X448822Y333708D01*
X448936Y334378D01*
X448974Y335056D01*
X448936Y335735D01*
X448822Y336405D01*
X448634Y337058D01*
X448374Y337686D01*
X448045Y338280D01*
X447652Y338834D01*
X447199Y339341D01*
X446693Y339794D01*
X446138Y340187D01*
X445544Y340516D01*
X444916Y340776D01*
X444263Y340964D01*
X443593Y341078D01*
X442915Y341116D01*
D02*
G37*
G36*
X245750Y329276D02*
X245072Y329238D01*
X244402Y329124D01*
X243749Y328936D01*
X243121Y328676D01*
X242526Y328347D01*
X241972Y327954D01*
X241465Y327501D01*
X241013Y326995D01*
X240619Y326440D01*
X240291Y325846D01*
X240031Y325218D01*
X239842Y324565D01*
X239729Y323895D01*
X239691Y323217D01*
X239729Y322538D01*
X239842Y321868D01*
X240031Y321215D01*
X240291Y320587D01*
X240619Y319993D01*
X241013Y319438D01*
X241465Y318932D01*
X241972Y318479D01*
X242526Y318086D01*
X243121Y317757D01*
X243749Y317497D01*
X244402Y317309D01*
X245072Y317195D01*
X245750Y317157D01*
X246429Y317195D01*
X247098Y317309D01*
X247751Y317497D01*
X248379Y317757D01*
X248974Y318086D01*
X249528Y318479D01*
X250035Y318932D01*
X250488Y319438D01*
X250881Y319993D01*
X251210Y320587D01*
X251470Y321215D01*
X251658Y321868D01*
X251772Y322538D01*
X251810Y323217D01*
X251772Y323895D01*
X251658Y324565D01*
X251470Y325218D01*
X251210Y325846D01*
X250881Y326440D01*
X250488Y326995D01*
X250035Y327501D01*
X249528Y327954D01*
X248974Y328347D01*
X248379Y328676D01*
X247751Y328936D01*
X247098Y329124D01*
X246429Y329238D01*
X245750Y329276D01*
D02*
G37*
G36*
X352250Y326841D02*
X351571Y326803D01*
X350901Y326689D01*
X350248Y326501D01*
X349621Y326241D01*
X349026Y325913D01*
X348472Y325519D01*
X347965Y325066D01*
X347512Y324560D01*
X347119Y324006D01*
X346790Y323411D01*
X346530Y322783D01*
X346342Y322130D01*
X346228Y321460D01*
X346190Y320782D01*
X346228Y320103D01*
X346342Y319433D01*
X346530Y318780D01*
X346790Y318153D01*
X347119Y317558D01*
X347512Y317004D01*
X347965Y316497D01*
X348472Y316044D01*
X349026Y315651D01*
X349621Y315322D01*
X350248Y315062D01*
X350901Y314874D01*
X351571Y314760D01*
X352250Y314722D01*
X352928Y314760D01*
X353598Y314874D01*
X354251Y315062D01*
X354879Y315322D01*
X355474Y315651D01*
X356028Y316044D01*
X356535Y316497D01*
X356987Y317004D01*
X357380Y317558D01*
X357709Y318153D01*
X357969Y318780D01*
X358157Y319433D01*
X358271Y320103D01*
X358309Y320782D01*
X358271Y321460D01*
X358157Y322130D01*
X357969Y322783D01*
X357709Y323411D01*
X357380Y324006D01*
X356987Y324560D01*
X356535Y325066D01*
X356028Y325519D01*
X355474Y325913D01*
X354879Y326241D01*
X354251Y326501D01*
X353598Y326689D01*
X352928Y326803D01*
X352250Y326841D01*
D02*
G37*
G36*
X433143Y322202D02*
X432465Y322164D01*
X431795Y322051D01*
X431142Y321862D01*
X430514Y321602D01*
X429919Y321274D01*
X429365Y320880D01*
X428858Y320428D01*
X428406Y319921D01*
X428013Y319367D01*
X427684Y318772D01*
X427424Y318144D01*
X427236Y317491D01*
X427122Y316821D01*
X427084Y316143D01*
X427122Y315464D01*
X427236Y314795D01*
X427424Y314142D01*
X427684Y313514D01*
X428013Y312919D01*
X428406Y312365D01*
X428858Y311858D01*
X429365Y311405D01*
X429919Y311012D01*
X430514Y310683D01*
X431142Y310423D01*
X431795Y310235D01*
X432465Y310121D01*
X433143Y310083D01*
X433822Y310121D01*
X434492Y310235D01*
X435145Y310423D01*
X435772Y310683D01*
X436367Y311012D01*
X436921Y311405D01*
X437428Y311858D01*
X437881Y312365D01*
X438274Y312919D01*
X438603Y313514D01*
X438863Y314142D01*
X439051Y314795D01*
X439165Y315464D01*
X439203Y316143D01*
X439165Y316821D01*
X439051Y317491D01*
X438863Y318144D01*
X438603Y318772D01*
X438274Y319367D01*
X437881Y319921D01*
X437428Y320428D01*
X436921Y320880D01*
X436367Y321274D01*
X435772Y321602D01*
X435145Y321862D01*
X434492Y322051D01*
X433822Y322164D01*
X433143Y322202D01*
D02*
G37*
G36*
X312373Y319143D02*
X311695Y319105D01*
X311025Y318991D01*
X310372Y318803D01*
X309744Y318543D01*
X309149Y318214D01*
X308595Y317821D01*
X308088Y317368D01*
X307636Y316861D01*
X307243Y316307D01*
X306914Y315713D01*
X306654Y315085D01*
X306466Y314432D01*
X306352Y313762D01*
X306314Y313083D01*
X306352Y312405D01*
X306466Y311735D01*
X306654Y311082D01*
X306914Y310454D01*
X307243Y309860D01*
X307636Y309305D01*
X308088Y308799D01*
X308595Y308346D01*
X309149Y307953D01*
X309744Y307624D01*
X310372Y307364D01*
X311025Y307176D01*
X311695Y307062D01*
X312373Y307024D01*
X313052Y307062D01*
X313722Y307176D01*
X314375Y307364D01*
X315002Y307624D01*
X315597Y307953D01*
X316151Y308346D01*
X316658Y308799D01*
X317111Y309305D01*
X317504Y309860D01*
X317833Y310454D01*
X318093Y311082D01*
X318281Y311735D01*
X318395Y312405D01*
X318433Y313083D01*
X318395Y313762D01*
X318281Y314432D01*
X318093Y315085D01*
X317833Y315713D01*
X317504Y316307D01*
X317111Y316861D01*
X316658Y317368D01*
X316151Y317821D01*
X315597Y318214D01*
X315002Y318543D01*
X314375Y318803D01*
X313722Y318991D01*
X313052Y319105D01*
X312373Y319143D01*
D02*
G37*
G36*
X204000Y315059D02*
X203322Y315021D01*
X202652Y314907D01*
X201999Y314719D01*
X201371Y314459D01*
X200776Y314131D01*
X200222Y313737D01*
X199715Y313285D01*
X199263Y312778D01*
X198869Y312224D01*
X198541Y311629D01*
X198281Y311001D01*
X198092Y310348D01*
X197979Y309678D01*
X197941Y309000D01*
X197979Y308321D01*
X198092Y307652D01*
X198281Y306999D01*
X198541Y306371D01*
X198869Y305776D01*
X199263Y305222D01*
X199715Y304715D01*
X200222Y304262D01*
X200776Y303869D01*
X201371Y303540D01*
X201999Y303280D01*
X202652Y303092D01*
X203322Y302978D01*
X204000Y302940D01*
X204679Y302978D01*
X205348Y303092D01*
X206001Y303280D01*
X206629Y303540D01*
X207224Y303869D01*
X207778Y304262D01*
X208285Y304715D01*
X208738Y305222D01*
X209131Y305776D01*
X209459Y306371D01*
X209720Y306999D01*
X209908Y307652D01*
X210021Y308321D01*
X210060Y309000D01*
X210021Y309678D01*
X209908Y310348D01*
X209720Y311001D01*
X209459Y311629D01*
X209131Y312224D01*
X208738Y312778D01*
X208285Y313285D01*
X207778Y313737D01*
X207224Y314131D01*
X206629Y314459D01*
X206001Y314719D01*
X205348Y314907D01*
X204679Y315021D01*
X204000Y315059D01*
D02*
G37*
G36*
X601597Y312257D02*
X600919Y312218D01*
X600249Y312105D01*
X599596Y311917D01*
X598968Y311656D01*
X598373Y311328D01*
X597819Y310935D01*
X597312Y310482D01*
X596859Y309975D01*
X596466Y309421D01*
X596138Y308826D01*
X595877Y308198D01*
X595689Y307545D01*
X595575Y306875D01*
X595537Y306197D01*
X595575Y305518D01*
X595689Y304849D01*
X595877Y304196D01*
X596138Y303568D01*
X596466Y302973D01*
X596859Y302419D01*
X597312Y301912D01*
X597819Y301460D01*
X598373Y301066D01*
X598968Y300738D01*
X599596Y300478D01*
X600249Y300289D01*
X600919Y300176D01*
X601597Y300138D01*
X602275Y300176D01*
X602945Y300289D01*
X603598Y300478D01*
X604226Y300738D01*
X604821Y301066D01*
X605375Y301460D01*
X605882Y301912D01*
X606334Y302419D01*
X606728Y302973D01*
X607056Y303568D01*
X607316Y304196D01*
X607505Y304849D01*
X607618Y305518D01*
X607656Y306197D01*
X607618Y306875D01*
X607505Y307545D01*
X607316Y308198D01*
X607056Y308826D01*
X606728Y309421D01*
X606334Y309975D01*
X605882Y310482D01*
X605375Y310935D01*
X604821Y311328D01*
X604226Y311656D01*
X603598Y311917D01*
X602945Y312105D01*
X602275Y312218D01*
X601597Y312257D01*
D02*
G37*
G36*
X265502Y312089D02*
X264824Y312051D01*
X264154Y311937D01*
X263501Y311749D01*
X262873Y311489D01*
X262278Y311160D01*
X261724Y310767D01*
X261217Y310314D01*
X260765Y309808D01*
X260371Y309253D01*
X260043Y308659D01*
X259783Y308031D01*
X259594Y307378D01*
X259481Y306708D01*
X259443Y306030D01*
X259481Y305351D01*
X259594Y304681D01*
X259783Y304028D01*
X260043Y303400D01*
X260371Y302806D01*
X260765Y302251D01*
X261217Y301745D01*
X261724Y301292D01*
X262278Y300899D01*
X262873Y300570D01*
X263501Y300310D01*
X264154Y300122D01*
X264824Y300008D01*
X265502Y299970D01*
X266180Y300008D01*
X266850Y300122D01*
X267503Y300310D01*
X268131Y300570D01*
X268726Y300899D01*
X269280Y301292D01*
X269787Y301745D01*
X270240Y302251D01*
X270633Y302806D01*
X270961Y303400D01*
X271222Y304028D01*
X271410Y304681D01*
X271523Y305351D01*
X271562Y306030D01*
X271523Y306708D01*
X271410Y307378D01*
X271222Y308031D01*
X270961Y308659D01*
X270633Y309253D01*
X270240Y309808D01*
X269787Y310314D01*
X269280Y310767D01*
X268726Y311160D01*
X268131Y311489D01*
X267503Y311749D01*
X266850Y311937D01*
X266180Y312051D01*
X265502Y312089D01*
D02*
G37*
G36*
X341533Y301060D02*
X340855Y301022D01*
X340185Y300908D01*
X339532Y300720D01*
X338904Y300460D01*
X338310Y300131D01*
X337755Y299738D01*
X337249Y299285D01*
X336796Y298778D01*
X336403Y298224D01*
X336074Y297629D01*
X335814Y297001D01*
X335626Y296348D01*
X335512Y295679D01*
X335474Y295000D01*
X335512Y294322D01*
X335626Y293652D01*
X335814Y292999D01*
X336074Y292371D01*
X336403Y291776D01*
X336796Y291222D01*
X337249Y290715D01*
X337755Y290263D01*
X338310Y289869D01*
X338904Y289541D01*
X339532Y289281D01*
X340185Y289093D01*
X340855Y288979D01*
X341533Y288941D01*
X342212Y288979D01*
X342882Y289093D01*
X343535Y289281D01*
X344162Y289541D01*
X344757Y289869D01*
X345311Y290263D01*
X345818Y290715D01*
X346271Y291222D01*
X346664Y291776D01*
X346993Y292371D01*
X347253Y292999D01*
X347441Y293652D01*
X347555Y294322D01*
X347593Y295000D01*
X347555Y295679D01*
X347441Y296348D01*
X347253Y297001D01*
X346993Y297629D01*
X346664Y298224D01*
X346271Y298778D01*
X345818Y299285D01*
X345311Y299738D01*
X344757Y300131D01*
X344162Y300460D01*
X343535Y300720D01*
X342882Y300908D01*
X342212Y301022D01*
X341533Y301060D01*
D02*
G37*
G36*
X667385Y300205D02*
X666706Y300167D01*
X666037Y300053D01*
X665384Y299865D01*
X664756Y299605D01*
X664161Y299276D01*
X663607Y298883D01*
X663100Y298430D01*
X662647Y297924D01*
X662254Y297369D01*
X661926Y296775D01*
X661665Y296147D01*
X661477Y295494D01*
X661364Y294824D01*
X661326Y294146D01*
X661364Y293467D01*
X661477Y292797D01*
X661665Y292144D01*
X661926Y291516D01*
X662254Y290922D01*
X662647Y290368D01*
X663100Y289861D01*
X663607Y289408D01*
X664161Y289015D01*
X664756Y288686D01*
X665384Y288426D01*
X666037Y288238D01*
X666706Y288124D01*
X667385Y288086D01*
X668063Y288124D01*
X668733Y288238D01*
X669386Y288426D01*
X670014Y288686D01*
X670609Y289015D01*
X671163Y289408D01*
X671670Y289861D01*
X672122Y290368D01*
X672516Y290922D01*
X672844Y291516D01*
X673104Y292144D01*
X673293Y292797D01*
X673406Y293467D01*
X673445Y294146D01*
X673406Y294824D01*
X673293Y295494D01*
X673104Y296147D01*
X672844Y296775D01*
X672516Y297369D01*
X672122Y297924D01*
X671670Y298430D01*
X671163Y298883D01*
X670609Y299276D01*
X670014Y299605D01*
X669386Y299865D01*
X668733Y300053D01*
X668063Y300167D01*
X667385Y300205D01*
D02*
G37*
G36*
X256936Y300059D02*
X256257Y300021D01*
X255588Y299907D01*
X254935Y299719D01*
X254307Y299459D01*
X253712Y299131D01*
X253158Y298737D01*
X252651Y298285D01*
X252198Y297778D01*
X251805Y297224D01*
X251476Y296629D01*
X251217Y296001D01*
X251028Y295348D01*
X250914Y294678D01*
X250876Y294000D01*
X250914Y293321D01*
X251028Y292652D01*
X251217Y291999D01*
X251476Y291371D01*
X251805Y290776D01*
X252198Y290222D01*
X252651Y289715D01*
X253158Y289262D01*
X253712Y288869D01*
X254307Y288540D01*
X254935Y288280D01*
X255588Y288092D01*
X256257Y287978D01*
X256936Y287940D01*
X257614Y287978D01*
X258284Y288092D01*
X258937Y288280D01*
X259565Y288540D01*
X260160Y288869D01*
X260714Y289262D01*
X261221Y289715D01*
X261673Y290222D01*
X262067Y290776D01*
X262395Y291371D01*
X262655Y291999D01*
X262843Y292652D01*
X262957Y293321D01*
X262995Y294000D01*
X262957Y294678D01*
X262843Y295348D01*
X262655Y296001D01*
X262395Y296629D01*
X262067Y297224D01*
X261673Y297778D01*
X261221Y298285D01*
X260714Y298737D01*
X260160Y299131D01*
X259565Y299459D01*
X258937Y299719D01*
X258284Y299907D01*
X257614Y300021D01*
X256936Y300059D01*
D02*
G37*
G36*
X328000Y296440D02*
X327322Y296402D01*
X326652Y296288D01*
X325999Y296100D01*
X325371Y295840D01*
X324776Y295511D01*
X324222Y295118D01*
X323715Y294665D01*
X323262Y294158D01*
X322869Y293604D01*
X322541Y293009D01*
X322281Y292382D01*
X322092Y291729D01*
X321979Y291059D01*
X321940Y290380D01*
X321979Y289702D01*
X322092Y289032D01*
X322281Y288379D01*
X322541Y287751D01*
X322869Y287157D01*
X323262Y286602D01*
X323715Y286096D01*
X324222Y285643D01*
X324776Y285250D01*
X325371Y284921D01*
X325999Y284661D01*
X326652Y284473D01*
X327322Y284359D01*
X328000Y284321D01*
X328679Y284359D01*
X329348Y284473D01*
X330001Y284661D01*
X330629Y284921D01*
X331224Y285250D01*
X331778Y285643D01*
X332285Y286096D01*
X332738Y286602D01*
X333131Y287157D01*
X333459Y287751D01*
X333719Y288379D01*
X333908Y289032D01*
X334021Y289702D01*
X334059Y290380D01*
X334021Y291059D01*
X333908Y291729D01*
X333719Y292382D01*
X333459Y293009D01*
X333131Y293604D01*
X332738Y294158D01*
X332285Y294665D01*
X331778Y295118D01*
X331224Y295511D01*
X330629Y295840D01*
X330001Y296100D01*
X329348Y296288D01*
X328679Y296402D01*
X328000Y296440D01*
D02*
G37*
G36*
X520514Y289013D02*
X519836Y288975D01*
X519166Y288861D01*
X518513Y288673D01*
X517885Y288413D01*
X517290Y288084D01*
X516736Y287691D01*
X516229Y287238D01*
X515777Y286732D01*
X515383Y286177D01*
X515055Y285583D01*
X514795Y284955D01*
X514607Y284302D01*
X514493Y283632D01*
X514455Y282954D01*
X514493Y282275D01*
X514607Y281605D01*
X514795Y280952D01*
X515055Y280324D01*
X515383Y279730D01*
X515777Y279175D01*
X516229Y278669D01*
X516736Y278216D01*
X517290Y277823D01*
X517885Y277494D01*
X518513Y277234D01*
X519166Y277046D01*
X519836Y276932D01*
X520514Y276894D01*
X521193Y276932D01*
X521862Y277046D01*
X522515Y277234D01*
X523143Y277494D01*
X523738Y277823D01*
X524292Y278216D01*
X524799Y278669D01*
X525252Y279175D01*
X525645Y279730D01*
X525974Y280324D01*
X526234Y280952D01*
X526422Y281605D01*
X526535Y282275D01*
X526574Y282954D01*
X526535Y283632D01*
X526422Y284302D01*
X526234Y284955D01*
X525974Y285583D01*
X525645Y286177D01*
X525252Y286732D01*
X524799Y287238D01*
X524292Y287691D01*
X523738Y288084D01*
X523143Y288413D01*
X522515Y288673D01*
X521862Y288861D01*
X521193Y288975D01*
X520514Y289013D01*
D02*
G37*
G36*
X600788Y286856D02*
X600109Y286818D01*
X599440Y286705D01*
X598787Y286516D01*
X598159Y286256D01*
X597564Y285928D01*
X597010Y285534D01*
X596503Y285082D01*
X596050Y284575D01*
X595657Y284021D01*
X595328Y283426D01*
X595069Y282798D01*
X594880Y282145D01*
X594767Y281476D01*
X594729Y280797D01*
X594767Y280119D01*
X594880Y279449D01*
X595069Y278796D01*
X595328Y278168D01*
X595657Y277573D01*
X596050Y277019D01*
X596503Y276512D01*
X597010Y276059D01*
X597564Y275666D01*
X598159Y275338D01*
X598787Y275077D01*
X599440Y274889D01*
X600109Y274776D01*
X600788Y274737D01*
X601466Y274776D01*
X602136Y274889D01*
X602789Y275077D01*
X603417Y275338D01*
X604012Y275666D01*
X604566Y276059D01*
X605073Y276512D01*
X605526Y277019D01*
X605919Y277573D01*
X606247Y278168D01*
X606507Y278796D01*
X606696Y279449D01*
X606809Y280119D01*
X606847Y280797D01*
X606809Y281476D01*
X606696Y282145D01*
X606507Y282798D01*
X606247Y283426D01*
X605919Y284021D01*
X605526Y284575D01*
X605073Y285082D01*
X604566Y285534D01*
X604012Y285928D01*
X603417Y286256D01*
X602789Y286516D01*
X602136Y286705D01*
X601466Y286818D01*
X600788Y286856D01*
D02*
G37*
G36*
X340790Y286059D02*
X340111Y286021D01*
X339441Y285907D01*
X338788Y285719D01*
X338161Y285459D01*
X337566Y285131D01*
X337012Y284737D01*
X336505Y284285D01*
X336052Y283778D01*
X335659Y283224D01*
X335330Y282629D01*
X335070Y282001D01*
X334882Y281348D01*
X334768Y280678D01*
X334730Y280000D01*
X334768Y279321D01*
X334882Y278652D01*
X335070Y277999D01*
X335330Y277371D01*
X335659Y276776D01*
X336052Y276222D01*
X336505Y275715D01*
X337012Y275262D01*
X337566Y274869D01*
X338161Y274541D01*
X338788Y274280D01*
X339441Y274092D01*
X340111Y273979D01*
X340790Y273940D01*
X341468Y273979D01*
X342138Y274092D01*
X342791Y274280D01*
X343419Y274541D01*
X344014Y274869D01*
X344568Y275262D01*
X345075Y275715D01*
X345527Y276222D01*
X345921Y276776D01*
X346249Y277371D01*
X346509Y277999D01*
X346697Y278652D01*
X346811Y279321D01*
X346849Y280000D01*
X346811Y280678D01*
X346697Y281348D01*
X346509Y282001D01*
X346249Y282629D01*
X345921Y283224D01*
X345527Y283778D01*
X345075Y284285D01*
X344568Y284737D01*
X344014Y285131D01*
X343419Y285459D01*
X342791Y285719D01*
X342138Y285907D01*
X341468Y286021D01*
X340790Y286059D01*
D02*
G37*
G36*
X392000Y284424D02*
X391321Y284386D01*
X390651Y284272D01*
X389998Y284084D01*
X389371Y283824D01*
X388776Y283495D01*
X388222Y283102D01*
X387715Y282649D01*
X387262Y282142D01*
X386869Y281588D01*
X386540Y280993D01*
X386280Y280366D01*
X386092Y279713D01*
X385978Y279043D01*
X385940Y278364D01*
X385978Y277686D01*
X386092Y277016D01*
X386280Y276363D01*
X386540Y275735D01*
X386869Y275140D01*
X387262Y274586D01*
X387715Y274079D01*
X388222Y273627D01*
X388776Y273234D01*
X389371Y272905D01*
X389998Y272645D01*
X390651Y272457D01*
X391321Y272343D01*
X392000Y272305D01*
X392678Y272343D01*
X393348Y272457D01*
X394001Y272645D01*
X394629Y272905D01*
X395224Y273234D01*
X395778Y273627D01*
X396284Y274079D01*
X396737Y274586D01*
X397130Y275140D01*
X397459Y275735D01*
X397719Y276363D01*
X397907Y277016D01*
X398021Y277686D01*
X398059Y278364D01*
X398021Y279043D01*
X397907Y279713D01*
X397719Y280366D01*
X397459Y280993D01*
X397130Y281588D01*
X396737Y282142D01*
X396284Y282649D01*
X395778Y283102D01*
X395224Y283495D01*
X394629Y283824D01*
X394001Y284084D01*
X393348Y284272D01*
X392678Y284386D01*
X392000Y284424D01*
D02*
G37*
G36*
X656913Y275112D02*
X656234Y275074D01*
X655564Y274960D01*
X654911Y274772D01*
X654284Y274512D01*
X653689Y274184D01*
X653135Y273790D01*
X652628Y273338D01*
X652175Y272831D01*
X651782Y272277D01*
X651453Y271682D01*
X651193Y271054D01*
X651005Y270401D01*
X650891Y269731D01*
X650853Y269053D01*
X650891Y268375D01*
X651005Y267705D01*
X651193Y267052D01*
X651453Y266424D01*
X651782Y265829D01*
X652175Y265275D01*
X652628Y264768D01*
X653135Y264315D01*
X653689Y263922D01*
X654284Y263594D01*
X654911Y263333D01*
X655564Y263145D01*
X656234Y263032D01*
X656913Y262994D01*
X657591Y263032D01*
X658261Y263145D01*
X658914Y263333D01*
X659542Y263594D01*
X660137Y263922D01*
X660691Y264315D01*
X661198Y264768D01*
X661650Y265275D01*
X662044Y265829D01*
X662372Y266424D01*
X662632Y267052D01*
X662820Y267705D01*
X662934Y268375D01*
X662972Y269053D01*
X662934Y269731D01*
X662820Y270401D01*
X662632Y271054D01*
X662372Y271682D01*
X662044Y272277D01*
X661650Y272831D01*
X661198Y273338D01*
X660691Y273790D01*
X660137Y274184D01*
X659542Y274512D01*
X658914Y274772D01*
X658261Y274960D01*
X657591Y275074D01*
X656913Y275112D01*
D02*
G37*
G36*
X245750Y274904D02*
X245072Y274866D01*
X244402Y274752D01*
X243749Y274564D01*
X243121Y274304D01*
X242526Y273975D01*
X241972Y273582D01*
X241465Y273129D01*
X241013Y272623D01*
X240619Y272069D01*
X240291Y271474D01*
X240031Y270846D01*
X239842Y270193D01*
X239729Y269523D01*
X239691Y268845D01*
X239729Y268166D01*
X239842Y267496D01*
X240031Y266843D01*
X240291Y266216D01*
X240619Y265621D01*
X241013Y265067D01*
X241465Y264560D01*
X241972Y264107D01*
X242526Y263714D01*
X243121Y263385D01*
X243749Y263125D01*
X244402Y262937D01*
X245072Y262823D01*
X245750Y262785D01*
X246429Y262823D01*
X247098Y262937D01*
X247751Y263125D01*
X248379Y263385D01*
X248974Y263714D01*
X249528Y264107D01*
X250035Y264560D01*
X250488Y265067D01*
X250881Y265621D01*
X251210Y266216D01*
X251470Y266843D01*
X251658Y267496D01*
X251772Y268166D01*
X251810Y268845D01*
X251772Y269523D01*
X251658Y270193D01*
X251470Y270846D01*
X251210Y271474D01*
X250881Y272069D01*
X250488Y272623D01*
X250035Y273129D01*
X249528Y273582D01*
X248974Y273975D01*
X248379Y274304D01*
X247751Y274564D01*
X247098Y274752D01*
X246429Y274866D01*
X245750Y274904D01*
D02*
G37*
G36*
X71107Y280762D02*
X70278Y280726D01*
X69456Y280618D01*
X68646Y280438D01*
X67855Y280189D01*
X67088Y279871D01*
X66352Y279488D01*
X65653Y279042D01*
X64995Y278537D01*
X64383Y277977D01*
X63823Y277365D01*
X63318Y276707D01*
X62872Y276007D01*
X62489Y275272D01*
X62171Y274505D01*
X61922Y273714D01*
X61742Y272904D01*
X61634Y272082D01*
X61598Y271253D01*
X61634Y270424D01*
X61742Y269602D01*
X61922Y268792D01*
X62171Y268001D01*
X62489Y267234D01*
X62872Y266499D01*
X63318Y265799D01*
X63823Y265141D01*
X64383Y264529D01*
X64995Y263969D01*
X65653Y263464D01*
X66352Y263018D01*
X67088Y262635D01*
X67855Y262317D01*
X68646Y262068D01*
X69456Y261889D01*
X70278Y261780D01*
X71107Y261744D01*
X71936Y261780D01*
X72758Y261889D01*
X73568Y262068D01*
X74359Y262317D01*
X75126Y262635D01*
X75862Y263018D01*
X76561Y263464D01*
X77219Y263969D01*
X77831Y264529D01*
X78391Y265141D01*
X78896Y265799D01*
X79342Y266499D01*
X79725Y267234D01*
X80042Y268001D01*
X80292Y268792D01*
X80471Y269602D01*
X80580Y270424D01*
X80616Y271253D01*
X80580Y272082D01*
X80471Y272904D01*
X80292Y273714D01*
X80042Y274505D01*
X79725Y275272D01*
X79342Y276007D01*
X78896Y276707D01*
X78391Y277365D01*
X77831Y277977D01*
X77219Y278537D01*
X76561Y279042D01*
X75862Y279488D01*
X75126Y279871D01*
X74359Y280189D01*
X73568Y280438D01*
X72758Y280618D01*
X71936Y280726D01*
X71107Y280762D01*
D02*
G37*
G36*
X352250Y273462D02*
X351571Y273424D01*
X350901Y273310D01*
X350248Y273122D01*
X349621Y272862D01*
X349026Y272533D01*
X348472Y272140D01*
X347965Y271687D01*
X347512Y271181D01*
X347119Y270627D01*
X346790Y270032D01*
X346530Y269404D01*
X346342Y268751D01*
X346228Y268081D01*
X346190Y267403D01*
X346228Y266724D01*
X346342Y266054D01*
X346530Y265401D01*
X346790Y264774D01*
X347119Y264179D01*
X347512Y263625D01*
X347965Y263118D01*
X348472Y262665D01*
X349026Y262272D01*
X349621Y261943D01*
X350248Y261683D01*
X350901Y261495D01*
X351571Y261381D01*
X352250Y261343D01*
X352928Y261381D01*
X353598Y261495D01*
X354251Y261683D01*
X354879Y261943D01*
X355474Y262272D01*
X356028Y262665D01*
X356535Y263118D01*
X356987Y263625D01*
X357380Y264179D01*
X357709Y264774D01*
X357969Y265401D01*
X358157Y266054D01*
X358271Y266724D01*
X358309Y267403D01*
X358271Y268081D01*
X358157Y268751D01*
X357969Y269404D01*
X357709Y270032D01*
X357380Y270627D01*
X356987Y271181D01*
X356535Y271687D01*
X356028Y272140D01*
X355474Y272533D01*
X354879Y272862D01*
X354251Y273122D01*
X353598Y273310D01*
X352928Y273424D01*
X352250Y273462D01*
D02*
G37*
G36*
X72377Y260204D02*
Y252523D01*
X80058D01*
X80018Y252824D01*
X79847Y253595D01*
X79610Y254348D01*
X79308Y255077D01*
X78943Y255777D01*
X78519Y256443D01*
X78039Y257069D01*
X77505Y257651D01*
X76923Y258185D01*
X76297Y258665D01*
X75631Y259089D01*
X74931Y259454D01*
X74202Y259756D01*
X73449Y259993D01*
X72678Y260164D01*
X72377Y260204D01*
D02*
G37*
G36*
X69837D02*
X69536Y260164D01*
X68765Y259993D01*
X68012Y259756D01*
X67283Y259454D01*
X66583Y259089D01*
X65917Y258665D01*
X65291Y258185D01*
X64709Y257651D01*
X64175Y257069D01*
X63695Y256443D01*
X63271Y255777D01*
X62906Y255077D01*
X62604Y254348D01*
X62367Y253595D01*
X62196Y252824D01*
X62156Y252523D01*
X69837D01*
Y260204D01*
D02*
G37*
G36*
X204000Y262696D02*
X203322Y262658D01*
X202652Y262544D01*
X201999Y262356D01*
X201371Y262096D01*
X200776Y261767D01*
X200222Y261374D01*
X199715Y260921D01*
X199263Y260414D01*
X198869Y259860D01*
X198541Y259265D01*
X198281Y258637D01*
X198092Y257984D01*
X197979Y257314D01*
X197941Y256636D01*
X197979Y255958D01*
X198092Y255288D01*
X198281Y254635D01*
X198541Y254007D01*
X198869Y253412D01*
X199263Y252858D01*
X199715Y252351D01*
X200222Y251899D01*
X200776Y251505D01*
X201371Y251177D01*
X201999Y250917D01*
X202652Y250728D01*
X203322Y250615D01*
X204000Y250577D01*
X204679Y250615D01*
X205348Y250728D01*
X206001Y250917D01*
X206629Y251177D01*
X207224Y251505D01*
X207778Y251899D01*
X208285Y252351D01*
X208738Y252858D01*
X209131Y253412D01*
X209459Y254007D01*
X209720Y254635D01*
X209908Y255288D01*
X210021Y255958D01*
X210060Y256636D01*
X210021Y257314D01*
X209908Y257984D01*
X209720Y258637D01*
X209459Y259265D01*
X209131Y259860D01*
X208738Y260414D01*
X208285Y260921D01*
X207778Y261374D01*
X207224Y261767D01*
X206629Y262096D01*
X206001Y262356D01*
X205348Y262544D01*
X204679Y262658D01*
X204000Y262696D01*
D02*
G37*
G36*
X600686Y261457D02*
X600008Y261418D01*
X599338Y261305D01*
X598685Y261117D01*
X598057Y260856D01*
X597462Y260528D01*
X596908Y260135D01*
X596401Y259682D01*
X595948Y259175D01*
X595555Y258621D01*
X595227Y258026D01*
X594967Y257398D01*
X594779Y256745D01*
X594665Y256075D01*
X594627Y255397D01*
X594665Y254718D01*
X594779Y254049D01*
X594967Y253396D01*
X595227Y252768D01*
X595555Y252173D01*
X595948Y251619D01*
X596401Y251112D01*
X596908Y250660D01*
X597462Y250266D01*
X598057Y249938D01*
X598685Y249678D01*
X599338Y249489D01*
X600008Y249376D01*
X600686Y249338D01*
X601365Y249376D01*
X602034Y249489D01*
X602687Y249678D01*
X603315Y249938D01*
X603910Y250266D01*
X604464Y250660D01*
X604971Y251112D01*
X605424Y251619D01*
X605817Y252173D01*
X606146Y252768D01*
X606405Y253396D01*
X606594Y254049D01*
X606707Y254718D01*
X606745Y255397D01*
X606707Y256075D01*
X606594Y256745D01*
X606405Y257398D01*
X606146Y258026D01*
X605817Y258621D01*
X605424Y259175D01*
X604971Y259682D01*
X604464Y260135D01*
X603910Y260528D01*
X603315Y260856D01*
X602687Y261117D01*
X602034Y261305D01*
X601365Y261418D01*
X600686Y261457D01*
D02*
G37*
G36*
X297156Y258060D02*
X296478Y258021D01*
X295808Y257908D01*
X295155Y257719D01*
X294527Y257459D01*
X293933Y257131D01*
X293378Y256737D01*
X292872Y256285D01*
X292419Y255778D01*
X292026Y255224D01*
X291697Y254629D01*
X291437Y254001D01*
X291249Y253348D01*
X291135Y252679D01*
X291097Y252000D01*
X291135Y251322D01*
X291249Y250652D01*
X291437Y249999D01*
X291697Y249371D01*
X292026Y248776D01*
X292419Y248222D01*
X292872Y247715D01*
X293378Y247262D01*
X293933Y246869D01*
X294527Y246541D01*
X295155Y246280D01*
X295808Y246092D01*
X296478Y245979D01*
X297156Y245940D01*
X297835Y245979D01*
X298505Y246092D01*
X299158Y246280D01*
X299785Y246541D01*
X300380Y246869D01*
X300935Y247262D01*
X301441Y247715D01*
X301894Y248222D01*
X302287Y248776D01*
X302616Y249371D01*
X302876Y249999D01*
X303064Y250652D01*
X303178Y251322D01*
X303216Y252000D01*
X303178Y252679D01*
X303064Y253348D01*
X302876Y254001D01*
X302616Y254629D01*
X302287Y255224D01*
X301894Y255778D01*
X301441Y256285D01*
X300935Y256737D01*
X300380Y257131D01*
X299785Y257459D01*
X299158Y257719D01*
X298505Y257908D01*
X297835Y258021D01*
X297156Y258060D01*
D02*
G37*
G36*
X69837Y249983D02*
X62156D01*
X62196Y249682D01*
X62367Y248911D01*
X62604Y248158D01*
X62906Y247429D01*
X63271Y246729D01*
X63695Y246063D01*
X64175Y245437D01*
X64709Y244855D01*
X65291Y244321D01*
X65917Y243841D01*
X66583Y243417D01*
X67283Y243052D01*
X68012Y242750D01*
X68765Y242513D01*
X69536Y242342D01*
X69837Y242302D01*
Y249983D01*
D02*
G37*
G36*
X80058D02*
X72377D01*
Y242302D01*
X72678Y242342D01*
X73449Y242513D01*
X74202Y242750D01*
X74931Y243052D01*
X75631Y243417D01*
X76297Y243841D01*
X76923Y244321D01*
X77505Y244855D01*
X78039Y245437D01*
X78519Y246063D01*
X78943Y246729D01*
X79308Y247429D01*
X79610Y248158D01*
X79847Y248911D01*
X80018Y249682D01*
X80058Y249983D01*
D02*
G37*
G36*
X257201Y248060D02*
X256523Y248021D01*
X255853Y247908D01*
X255200Y247719D01*
X254572Y247459D01*
X253977Y247131D01*
X253423Y246737D01*
X252916Y246285D01*
X252463Y245778D01*
X252070Y245224D01*
X251742Y244629D01*
X251481Y244001D01*
X251293Y243348D01*
X251180Y242679D01*
X251141Y242000D01*
X251180Y241322D01*
X251293Y240652D01*
X251481Y239999D01*
X251742Y239371D01*
X252070Y238776D01*
X252463Y238222D01*
X252916Y237715D01*
X253423Y237262D01*
X253977Y236869D01*
X254572Y236541D01*
X255200Y236281D01*
X255853Y236092D01*
X256523Y235979D01*
X257201Y235940D01*
X257879Y235979D01*
X258549Y236092D01*
X259202Y236281D01*
X259830Y236541D01*
X260425Y236869D01*
X260979Y237262D01*
X261486Y237715D01*
X261938Y238222D01*
X262332Y238776D01*
X262660Y239371D01*
X262920Y239999D01*
X263109Y240652D01*
X263222Y241322D01*
X263260Y242000D01*
X263222Y242679D01*
X263109Y243348D01*
X262920Y244001D01*
X262660Y244629D01*
X262332Y245224D01*
X261938Y245778D01*
X261486Y246285D01*
X260979Y246737D01*
X260425Y247131D01*
X259830Y247459D01*
X259202Y247719D01*
X258549Y247908D01*
X257879Y248021D01*
X257201Y248060D01*
D02*
G37*
G36*
X520902Y237562D02*
X520224Y237524D01*
X519554Y237410D01*
X518901Y237222D01*
X518273Y236962D01*
X517678Y236633D01*
X517124Y236240D01*
X516618Y235787D01*
X516165Y235281D01*
X515771Y234727D01*
X515443Y234132D01*
X515183Y233504D01*
X514995Y232851D01*
X514881Y232181D01*
X514843Y231503D01*
X514881Y230824D01*
X514995Y230154D01*
X515183Y229501D01*
X515443Y228874D01*
X515771Y228279D01*
X516165Y227725D01*
X516618Y227218D01*
X517124Y226765D01*
X517678Y226372D01*
X518273Y226043D01*
X518901Y225783D01*
X519554Y225595D01*
X520224Y225481D01*
X520902Y225443D01*
X521581Y225481D01*
X522251Y225595D01*
X522904Y225783D01*
X523531Y226043D01*
X524126Y226372D01*
X524680Y226765D01*
X525187Y227218D01*
X525640Y227725D01*
X526033Y228279D01*
X526362Y228874D01*
X526622Y229501D01*
X526810Y230154D01*
X526924Y230824D01*
X526962Y231503D01*
X526924Y232181D01*
X526810Y232851D01*
X526622Y233504D01*
X526362Y234132D01*
X526033Y234727D01*
X525640Y235281D01*
X525187Y235787D01*
X524680Y236240D01*
X524126Y236633D01*
X523531Y236962D01*
X522904Y237222D01*
X522251Y237410D01*
X521581Y237524D01*
X520902Y237562D01*
D02*
G37*
G36*
X331890Y251164D02*
X331211Y251126D01*
X330541Y251013D01*
X329888Y250825D01*
X329261Y250564D01*
X328666Y250236D01*
X328112Y249843D01*
X327605Y249390D01*
X327152Y248883D01*
X326759Y248329D01*
X326430Y247734D01*
X326170Y247106D01*
X325982Y246453D01*
X325868Y245784D01*
X325830Y245105D01*
X325868Y244427D01*
X325982Y243757D01*
X326170Y243104D01*
X326430Y242476D01*
X326759Y241881D01*
X327152Y241327D01*
X327605Y240820D01*
X327717Y240721D01*
X327441Y240412D01*
X327048Y239858D01*
X326719Y239263D01*
X326459Y238635D01*
X326271Y237982D01*
X326157Y237312D01*
X326119Y236634D01*
X326157Y235955D01*
X326271Y235285D01*
X326459Y234632D01*
X326719Y234005D01*
X327048Y233410D01*
X327441Y232856D01*
X327893Y232349D01*
X327597Y231532D01*
X327204Y230978D01*
X326875Y230383D01*
X326615Y229755D01*
X326427Y229103D01*
X326313Y228433D01*
X326275Y227754D01*
X326313Y227076D01*
X326427Y226406D01*
X326615Y225753D01*
X326875Y225125D01*
X327204Y224530D01*
X327597Y223976D01*
X328050Y223470D01*
X328556Y223017D01*
X329110Y222624D01*
X329705Y222295D01*
X330333Y222035D01*
X330986Y221847D01*
X331656Y221733D01*
X332334Y221695D01*
X333013Y221733D01*
X333683Y221847D01*
X334336Y222035D01*
X334963Y222295D01*
X335558Y222624D01*
X336112Y223017D01*
X336619Y223470D01*
X337072Y223976D01*
X337465Y224530D01*
X337794Y225125D01*
X338054Y225753D01*
X338242Y226406D01*
X338356Y227076D01*
X338394Y227754D01*
X338356Y228433D01*
X338242Y229103D01*
X338054Y229755D01*
X337794Y230383D01*
X337465Y230978D01*
X337072Y231532D01*
X336619Y232039D01*
X336916Y232856D01*
X337309Y233410D01*
X337638Y234005D01*
X337898Y234632D01*
X338086Y235285D01*
X338200Y235955D01*
X338238Y236634D01*
X338200Y237312D01*
X338086Y237982D01*
X337898Y238635D01*
X337638Y239263D01*
X337309Y239858D01*
X336916Y240412D01*
X336463Y240918D01*
X336351Y241018D01*
X336627Y241327D01*
X337021Y241881D01*
X337349Y242476D01*
X337609Y243104D01*
X337797Y243757D01*
X337911Y244427D01*
X337949Y245105D01*
X337911Y245784D01*
X337797Y246453D01*
X337609Y247106D01*
X337349Y247734D01*
X337021Y248329D01*
X336627Y248883D01*
X336175Y249390D01*
X335668Y249843D01*
X335114Y250236D01*
X334519Y250564D01*
X333891Y250825D01*
X333238Y251013D01*
X332568Y251126D01*
X331890Y251164D01*
D02*
G37*
G36*
X392000Y233424D02*
X391321Y233386D01*
X390651Y233272D01*
X389998Y233084D01*
X389371Y232824D01*
X388776Y232495D01*
X388222Y232102D01*
X387715Y231649D01*
X387262Y231142D01*
X386869Y230588D01*
X386540Y229993D01*
X386280Y229366D01*
X386092Y228713D01*
X385978Y228043D01*
X385940Y227364D01*
X385978Y226686D01*
X386092Y226016D01*
X386280Y225363D01*
X386540Y224735D01*
X386869Y224140D01*
X387262Y223586D01*
X387715Y223079D01*
X388222Y222627D01*
X388776Y222234D01*
X389371Y221905D01*
X389998Y221645D01*
X390651Y221457D01*
X391321Y221343D01*
X392000Y221305D01*
X392678Y221343D01*
X393348Y221457D01*
X394001Y221645D01*
X394629Y221905D01*
X395224Y222234D01*
X395778Y222627D01*
X396284Y223079D01*
X396737Y223586D01*
X397130Y224140D01*
X397459Y224735D01*
X397719Y225363D01*
X397907Y226016D01*
X398021Y226686D01*
X398059Y227364D01*
X398021Y228043D01*
X397907Y228713D01*
X397719Y229366D01*
X397459Y229993D01*
X397130Y230588D01*
X396737Y231142D01*
X396284Y231649D01*
X395778Y232102D01*
X395224Y232495D01*
X394629Y232824D01*
X394001Y233084D01*
X393348Y233272D01*
X392678Y233386D01*
X392000Y233424D01*
D02*
G37*
G36*
X245750Y222178D02*
X245072Y222140D01*
X244402Y222026D01*
X243749Y221838D01*
X243121Y221578D01*
X242526Y221249D01*
X241972Y220856D01*
X241465Y220403D01*
X241013Y219896D01*
X240619Y219342D01*
X240291Y218747D01*
X240031Y218120D01*
X239842Y217467D01*
X239729Y216797D01*
X239691Y216118D01*
X239729Y215440D01*
X239842Y214770D01*
X240031Y214117D01*
X240291Y213489D01*
X240619Y212894D01*
X241013Y212340D01*
X241465Y211834D01*
X241972Y211381D01*
X242526Y210988D01*
X243121Y210659D01*
X243749Y210399D01*
X244402Y210211D01*
X245072Y210097D01*
X245750Y210059D01*
X246429Y210097D01*
X247098Y210211D01*
X247751Y210399D01*
X248379Y210659D01*
X248974Y210988D01*
X249528Y211381D01*
X250035Y211834D01*
X250488Y212340D01*
X250881Y212894D01*
X251210Y213489D01*
X251470Y214117D01*
X251658Y214770D01*
X251772Y215440D01*
X251810Y216118D01*
X251772Y216797D01*
X251658Y217467D01*
X251470Y218120D01*
X251210Y218747D01*
X250881Y219342D01*
X250488Y219896D01*
X250035Y220403D01*
X249528Y220856D01*
X248974Y221249D01*
X248379Y221578D01*
X247751Y221838D01*
X247098Y222026D01*
X246429Y222140D01*
X245750Y222178D01*
D02*
G37*
G36*
X265435Y227582D02*
X264757Y227544D01*
X264087Y227431D01*
X263434Y227243D01*
X262806Y226982D01*
X262211Y226654D01*
X261657Y226261D01*
X261150Y225808D01*
X260697Y225301D01*
X260304Y224747D01*
X259975Y224152D01*
X259715Y223524D01*
X259527Y222871D01*
X259414Y222201D01*
X259375Y221523D01*
X259414Y220844D01*
X259527Y220175D01*
X259715Y219522D01*
X259975Y218894D01*
X260304Y218299D01*
X260697Y217745D01*
X261150Y217238D01*
X261657Y216786D01*
X262211Y216392D01*
X262727Y216107D01*
X262868Y215524D01*
X262750Y214712D01*
X262370Y214502D01*
X261815Y214109D01*
X261309Y213656D01*
X260856Y213149D01*
X260463Y212595D01*
X260134Y212000D01*
X259874Y211373D01*
X259686Y210720D01*
X259572Y210050D01*
X259534Y209371D01*
X259572Y208693D01*
X259686Y208023D01*
X259874Y207370D01*
X260134Y206742D01*
X260463Y206147D01*
X260856Y205593D01*
X261309Y205087D01*
X261815Y204634D01*
X262370Y204241D01*
X262964Y203912D01*
X263592Y203652D01*
X264245Y203464D01*
X264915Y203350D01*
X265593Y203312D01*
X266272Y203350D01*
X266942Y203464D01*
X267595Y203652D01*
X268223Y203912D01*
X268817Y204241D01*
X269371Y204634D01*
X269878Y205087D01*
X270331Y205593D01*
X270724Y206147D01*
X271053Y206742D01*
X271313Y207370D01*
X271501Y208023D01*
X271615Y208693D01*
X271653Y209371D01*
X271615Y210050D01*
X271501Y210720D01*
X271313Y211373D01*
X271053Y212000D01*
X270724Y212595D01*
X270331Y213149D01*
X269878Y213656D01*
X269371Y214109D01*
X268817Y214502D01*
X268301Y214787D01*
X268160Y215370D01*
X268279Y216182D01*
X268659Y216392D01*
X269213Y216786D01*
X269720Y217238D01*
X270173Y217745D01*
X270566Y218299D01*
X270894Y218894D01*
X271154Y219522D01*
X271343Y220175D01*
X271456Y220844D01*
X271495Y221523D01*
X271456Y222201D01*
X271343Y222871D01*
X271154Y223524D01*
X270894Y224152D01*
X270566Y224747D01*
X270173Y225301D01*
X269720Y225808D01*
X269213Y226261D01*
X268659Y226654D01*
X268064Y226982D01*
X267436Y227243D01*
X266783Y227431D01*
X266113Y227544D01*
X265435Y227582D01*
D02*
G37*
G36*
X373152Y210142D02*
X372473Y210104D01*
X371804Y209990D01*
X371151Y209802D01*
X370523Y209542D01*
X369928Y209213D01*
X369374Y208820D01*
X368867Y208367D01*
X368414Y207860D01*
X368021Y207306D01*
X367692Y206712D01*
X367433Y206084D01*
X367244Y205431D01*
X367131Y204761D01*
X367092Y204082D01*
X367131Y203404D01*
X367244Y202734D01*
X367433Y202081D01*
X367692Y201453D01*
X368021Y200859D01*
X368414Y200304D01*
X368867Y199798D01*
X369374Y199345D01*
X369928Y198952D01*
X370523Y198623D01*
X371151Y198363D01*
X371804Y198175D01*
X372473Y198061D01*
X373152Y198023D01*
X373830Y198061D01*
X374500Y198175D01*
X375153Y198363D01*
X375781Y198623D01*
X376376Y198952D01*
X376930Y199345D01*
X377437Y199798D01*
X377889Y200304D01*
X378283Y200859D01*
X378611Y201453D01*
X378871Y202081D01*
X379059Y202734D01*
X379173Y203404D01*
X379211Y204082D01*
X379173Y204761D01*
X379059Y205431D01*
X378871Y206084D01*
X378611Y206712D01*
X378283Y207306D01*
X377889Y207860D01*
X377437Y208367D01*
X376930Y208820D01*
X376376Y209213D01*
X375781Y209542D01*
X375153Y209802D01*
X374500Y209990D01*
X373830Y210104D01*
X373152Y210142D01*
D02*
G37*
G36*
X204000Y207696D02*
X203322Y207658D01*
X202652Y207544D01*
X201999Y207356D01*
X201371Y207096D01*
X200776Y206767D01*
X200222Y206374D01*
X199715Y205921D01*
X199263Y205414D01*
X198869Y204860D01*
X198541Y204265D01*
X198281Y203637D01*
X198092Y202985D01*
X197979Y202315D01*
X197941Y201636D01*
X197979Y200958D01*
X198092Y200288D01*
X198281Y199635D01*
X198541Y199007D01*
X198869Y198412D01*
X199263Y197858D01*
X199715Y197351D01*
X200222Y196899D01*
X200776Y196505D01*
X201371Y196177D01*
X201999Y195917D01*
X202652Y195728D01*
X203322Y195615D01*
X204000Y195577D01*
X204679Y195615D01*
X205348Y195728D01*
X206001Y195917D01*
X206629Y196177D01*
X207224Y196505D01*
X207778Y196899D01*
X208285Y197351D01*
X208738Y197858D01*
X209131Y198412D01*
X209459Y199007D01*
X209720Y199635D01*
X209908Y200288D01*
X210021Y200958D01*
X210060Y201636D01*
X210021Y202315D01*
X209908Y202985D01*
X209720Y203637D01*
X209459Y204265D01*
X209131Y204860D01*
X208738Y205414D01*
X208285Y205921D01*
X207778Y206374D01*
X207224Y206767D01*
X206629Y207096D01*
X206001Y207356D01*
X205348Y207544D01*
X204679Y207658D01*
X204000Y207696D01*
D02*
G37*
G36*
X275028Y202681D02*
X274350Y202643D01*
X273680Y202529D01*
X273027Y202341D01*
X272399Y202081D01*
X271804Y201752D01*
X271250Y201359D01*
X270743Y200906D01*
X270291Y200400D01*
X269897Y199846D01*
X269569Y199251D01*
X269309Y198623D01*
X269121Y197970D01*
X269007Y197300D01*
X268969Y196622D01*
X269007Y195943D01*
X269121Y195273D01*
X269309Y194620D01*
X269569Y193993D01*
X269897Y193398D01*
X270291Y192844D01*
X270743Y192337D01*
X271250Y191884D01*
X271804Y191491D01*
X272399Y191162D01*
X273027Y190902D01*
X273680Y190714D01*
X274350Y190600D01*
X275028Y190562D01*
X275707Y190600D01*
X276376Y190714D01*
X277029Y190902D01*
X277657Y191162D01*
X278252Y191491D01*
X278806Y191884D01*
X279313Y192337D01*
X279766Y192844D01*
X280159Y193398D01*
X280487Y193993D01*
X280748Y194620D01*
X280936Y195273D01*
X281049Y195943D01*
X281088Y196622D01*
X281049Y197300D01*
X280936Y197970D01*
X280748Y198623D01*
X280487Y199251D01*
X280159Y199846D01*
X279766Y200400D01*
X279313Y200906D01*
X278806Y201359D01*
X278252Y201752D01*
X277657Y202081D01*
X277029Y202341D01*
X276376Y202529D01*
X275707Y202643D01*
X275028Y202681D01*
D02*
G37*
G36*
X257099Y194060D02*
X256421Y194021D01*
X255751Y193908D01*
X255098Y193720D01*
X254470Y193460D01*
X253876Y193131D01*
X253321Y192738D01*
X252815Y192285D01*
X252362Y191778D01*
X251969Y191224D01*
X251640Y190629D01*
X251380Y190001D01*
X251192Y189349D01*
X251078Y188679D01*
X251040Y188000D01*
X251078Y187322D01*
X251192Y186652D01*
X251380Y185999D01*
X251640Y185371D01*
X251969Y184776D01*
X252362Y184222D01*
X252815Y183715D01*
X253321Y183263D01*
X253876Y182869D01*
X254470Y182541D01*
X255098Y182281D01*
X255751Y182092D01*
X256421Y181979D01*
X257099Y181941D01*
X257778Y181979D01*
X258448Y182092D01*
X259101Y182281D01*
X259729Y182541D01*
X260323Y182869D01*
X260877Y183263D01*
X261384Y183715D01*
X261837Y184222D01*
X262230Y184776D01*
X262559Y185371D01*
X262819Y185999D01*
X263007Y186652D01*
X263121Y187322D01*
X263159Y188000D01*
X263121Y188679D01*
X263007Y189349D01*
X262819Y190001D01*
X262559Y190629D01*
X262230Y191224D01*
X261837Y191778D01*
X261384Y192285D01*
X260877Y192738D01*
X260323Y193131D01*
X259729Y193460D01*
X259101Y193720D01*
X258448Y193908D01*
X257778Y194021D01*
X257099Y194060D01*
D02*
G37*
G36*
X71345Y191608D02*
X70516Y191572D01*
X69694Y191464D01*
X68884Y191284D01*
X68093Y191035D01*
X67326Y190717D01*
X66590Y190334D01*
X65891Y189888D01*
X65233Y189383D01*
X64621Y188823D01*
X64061Y188211D01*
X63556Y187553D01*
X63110Y186854D01*
X62727Y186118D01*
X62409Y185351D01*
X62160Y184560D01*
X61980Y183750D01*
X61872Y182928D01*
X61836Y182099D01*
X61872Y181270D01*
X61980Y180448D01*
X62160Y179638D01*
X62409Y178847D01*
X62727Y178080D01*
X63110Y177344D01*
X63556Y176645D01*
X64061Y175987D01*
X64621Y175375D01*
X65233Y174815D01*
X65891Y174310D01*
X66590Y173864D01*
X67326Y173481D01*
X68093Y173163D01*
X68884Y172914D01*
X69694Y172735D01*
X70516Y172626D01*
X71345Y172590D01*
X72174Y172626D01*
X72996Y172735D01*
X73806Y172914D01*
X74597Y173163D01*
X75364Y173481D01*
X76100Y173864D01*
X76799Y174310D01*
X77457Y174815D01*
X78069Y175375D01*
X78629Y175987D01*
X79134Y176645D01*
X79580Y177344D01*
X79963Y178080D01*
X80281Y178847D01*
X80530Y179638D01*
X80709Y180448D01*
X80818Y181270D01*
X80854Y182099D01*
X80818Y182928D01*
X80709Y183750D01*
X80530Y184560D01*
X80281Y185351D01*
X79963Y186118D01*
X79580Y186854D01*
X79134Y187553D01*
X78629Y188211D01*
X78069Y188823D01*
X77457Y189383D01*
X76799Y189888D01*
X76100Y190334D01*
X75364Y190717D01*
X74597Y191035D01*
X73806Y191284D01*
X72996Y191464D01*
X72174Y191572D01*
X71345Y191608D01*
D02*
G37*
G36*
X72615Y171050D02*
Y163369D01*
X80296D01*
X80256Y163670D01*
X80085Y164441D01*
X79848Y165194D01*
X79546Y165923D01*
X79181Y166623D01*
X78757Y167289D01*
X78277Y167915D01*
X77743Y168497D01*
X77161Y169031D01*
X76535Y169511D01*
X75869Y169935D01*
X75169Y170300D01*
X74440Y170602D01*
X73687Y170839D01*
X72916Y171010D01*
X72615Y171050D01*
D02*
G37*
G36*
X70075Y171050D02*
X69774Y171010D01*
X69003Y170839D01*
X68250Y170602D01*
X67521Y170300D01*
X66821Y169935D01*
X66155Y169511D01*
X65529Y169031D01*
X64947Y168497D01*
X64413Y167915D01*
X63933Y167289D01*
X63509Y166623D01*
X63144Y165923D01*
X62842Y165194D01*
X62605Y164441D01*
X62434Y163670D01*
X62394Y163369D01*
X70075D01*
Y171050D01*
D02*
G37*
G36*
Y160829D02*
X62394D01*
X62434Y160528D01*
X62605Y159757D01*
X62842Y159004D01*
X63144Y158275D01*
X63509Y157575D01*
X63933Y156909D01*
X64413Y156283D01*
X64947Y155701D01*
X65529Y155167D01*
X66155Y154687D01*
X66821Y154263D01*
X67521Y153898D01*
X68250Y153596D01*
X69003Y153359D01*
X69774Y153188D01*
X70075Y153148D01*
Y160829D01*
D02*
G37*
G36*
X80296D02*
X72615D01*
Y153148D01*
X72916Y153188D01*
X73687Y153359D01*
X74440Y153596D01*
X75169Y153898D01*
X75869Y154263D01*
X76535Y154687D01*
X77161Y155167D01*
X77743Y155701D01*
X78277Y156283D01*
X78757Y156909D01*
X79181Y157575D01*
X79546Y158275D01*
X79848Y159004D01*
X80085Y159757D01*
X80256Y160528D01*
X80296Y160829D01*
D02*
G37*
G36*
X145810Y150185D02*
X145132Y150147D01*
X144462Y150033D01*
X143809Y149845D01*
X143181Y149585D01*
X142587Y149256D01*
X142032Y148863D01*
X141526Y148410D01*
X141073Y147903D01*
X140680Y147349D01*
X140351Y146755D01*
X140091Y146127D01*
X139903Y145474D01*
X139789Y144804D01*
X139751Y144125D01*
X139789Y143447D01*
X139903Y142777D01*
X140091Y142124D01*
X140351Y141496D01*
X140680Y140901D01*
X141073Y140347D01*
X141526Y139841D01*
X142032Y139388D01*
X142587Y138995D01*
X143181Y138666D01*
X143809Y138406D01*
X144462Y138218D01*
X145132Y138104D01*
X145810Y138066D01*
X146489Y138104D01*
X147159Y138218D01*
X147812Y138406D01*
X148440Y138666D01*
X149034Y138995D01*
X149589Y139388D01*
X150095Y139841D01*
X150548Y140347D01*
X150941Y140901D01*
X151270Y141496D01*
X151530Y142124D01*
X151718Y142777D01*
X151832Y143447D01*
X151870Y144125D01*
X151832Y144804D01*
X151718Y145474D01*
X151530Y146127D01*
X151270Y146755D01*
X150941Y147349D01*
X150548Y147903D01*
X150095Y148410D01*
X149589Y148863D01*
X149034Y149256D01*
X148440Y149585D01*
X147812Y149845D01*
X147159Y150033D01*
X146489Y150147D01*
X145810Y150185D01*
D02*
G37*
G36*
X299537Y149942D02*
X298859Y149904D01*
X298189Y149790D01*
X297536Y149602D01*
X296908Y149342D01*
X296313Y149013D01*
X295759Y148620D01*
X295252Y148167D01*
X294800Y147661D01*
X294407Y147107D01*
X294078Y146512D01*
X293818Y145884D01*
X293630Y145231D01*
X293516Y144561D01*
X293478Y143883D01*
X293516Y143204D01*
X293630Y142534D01*
X293818Y141881D01*
X294078Y141253D01*
X294407Y140659D01*
X294800Y140105D01*
X295252Y139598D01*
X295759Y139145D01*
X296313Y138752D01*
X296908Y138423D01*
X297536Y138163D01*
X298189Y137975D01*
X298859Y137861D01*
X299537Y137823D01*
X300216Y137861D01*
X300886Y137975D01*
X301539Y138163D01*
X302166Y138423D01*
X302761Y138752D01*
X303315Y139145D01*
X303822Y139598D01*
X304275Y140105D01*
X304668Y140659D01*
X304997Y141253D01*
X305257Y141881D01*
X305445Y142534D01*
X305559Y143204D01*
X305597Y143883D01*
X305559Y144561D01*
X305445Y145231D01*
X305257Y145884D01*
X304997Y146512D01*
X304668Y147107D01*
X304275Y147661D01*
X303822Y148167D01*
X303315Y148620D01*
X302761Y149013D01*
X302166Y149342D01*
X301539Y149602D01*
X300886Y149790D01*
X300216Y149904D01*
X299537Y149942D01*
D02*
G37*
G36*
X521214Y147100D02*
X520536Y147062D01*
X519866Y146948D01*
X519213Y146760D01*
X518585Y146500D01*
X517990Y146171D01*
X517436Y145778D01*
X516929Y145325D01*
X516477Y144819D01*
X516083Y144264D01*
X515755Y143670D01*
X515495Y143042D01*
X515307Y142389D01*
X515193Y141719D01*
X515155Y141041D01*
X515193Y140362D01*
X515307Y139692D01*
X515495Y139039D01*
X515755Y138412D01*
X516083Y137817D01*
X516477Y137263D01*
X516929Y136756D01*
X517436Y136303D01*
X517990Y135910D01*
X518585Y135581D01*
X519213Y135321D01*
X519866Y135133D01*
X520536Y135019D01*
X521214Y134981D01*
X521893Y135019D01*
X522562Y135133D01*
X523215Y135321D01*
X523843Y135581D01*
X524438Y135910D01*
X524992Y136303D01*
X525499Y136756D01*
X525952Y137263D01*
X526345Y137817D01*
X526674Y138412D01*
X526934Y139039D01*
X527122Y139692D01*
X527235Y140362D01*
X527274Y141041D01*
X527235Y141719D01*
X527122Y142389D01*
X526934Y143042D01*
X526674Y143670D01*
X526345Y144264D01*
X525952Y144819D01*
X525499Y145325D01*
X524992Y145778D01*
X524438Y146171D01*
X523843Y146500D01*
X523215Y146760D01*
X522562Y146948D01*
X521893Y147062D01*
X521214Y147100D01*
D02*
G37*
G36*
X633076Y147100D02*
X632397Y147062D01*
X631727Y146948D01*
X631074Y146760D01*
X630447Y146500D01*
X629852Y146171D01*
X629298Y145778D01*
X628791Y145325D01*
X628338Y144818D01*
X627945Y144264D01*
X627616Y143669D01*
X627356Y143041D01*
X627168Y142388D01*
X627054Y141719D01*
X627016Y141040D01*
X627054Y140362D01*
X627168Y139692D01*
X627356Y139039D01*
X627616Y138411D01*
X627945Y137816D01*
X628338Y137262D01*
X628791Y136755D01*
X629298Y136303D01*
X629852Y135909D01*
X630447Y135581D01*
X631074Y135321D01*
X631727Y135133D01*
X632397Y135019D01*
X633076Y134981D01*
X633754Y135019D01*
X634424Y135133D01*
X635077Y135321D01*
X635705Y135581D01*
X636300Y135909D01*
X636854Y136303D01*
X637360Y136755D01*
X637813Y137262D01*
X638206Y137816D01*
X638535Y138411D01*
X638795Y139039D01*
X638983Y139692D01*
X639097Y140362D01*
X639135Y141040D01*
X639097Y141719D01*
X638983Y142388D01*
X638795Y143041D01*
X638535Y143669D01*
X638206Y144264D01*
X637813Y144818D01*
X637360Y145325D01*
X636854Y145778D01*
X636300Y146171D01*
X635705Y146500D01*
X635077Y146760D01*
X634424Y146948D01*
X633754Y147062D01*
X633076Y147100D01*
D02*
G37*
G36*
X240595Y131993D02*
X239917Y131954D01*
X239247Y131841D01*
X238594Y131652D01*
X237966Y131392D01*
X237371Y131064D01*
X236817Y130670D01*
X236311Y130218D01*
X235858Y129711D01*
X235464Y129157D01*
X235136Y128562D01*
X234876Y127934D01*
X234688Y127281D01*
X234574Y126611D01*
X234536Y125933D01*
X234574Y125255D01*
X234688Y124585D01*
X234876Y123932D01*
X235136Y123304D01*
X235464Y122709D01*
X235858Y122155D01*
X236311Y121648D01*
X236817Y121195D01*
X237371Y120802D01*
X237966Y120474D01*
X238594Y120214D01*
X239247Y120025D01*
X239917Y119912D01*
X240595Y119874D01*
X241274Y119912D01*
X241944Y120025D01*
X242596Y120214D01*
X243224Y120474D01*
X243819Y120802D01*
X244373Y121195D01*
X244880Y121648D01*
X245333Y122155D01*
X245726Y122709D01*
X246055Y123304D01*
X246315Y123932D01*
X246503Y124585D01*
X246617Y125255D01*
X246655Y125933D01*
X246617Y126611D01*
X246503Y127281D01*
X246315Y127934D01*
X246055Y128562D01*
X245726Y129157D01*
X245333Y129711D01*
X244880Y130218D01*
X244373Y130670D01*
X243819Y131064D01*
X243224Y131392D01*
X242596Y131652D01*
X241944Y131841D01*
X241274Y131954D01*
X240595Y131993D01*
D02*
G37*
G36*
X296478Y114059D02*
X295799Y114021D01*
X295129Y113907D01*
X294477Y113719D01*
X293849Y113459D01*
X293254Y113131D01*
X292700Y112737D01*
X292193Y112284D01*
X291740Y111778D01*
X291347Y111224D01*
X291018Y110629D01*
X290758Y110001D01*
X290570Y109348D01*
X290456Y108678D01*
X290418Y108000D01*
X290456Y107321D01*
X290570Y106651D01*
X290758Y105998D01*
X291018Y105371D01*
X291347Y104776D01*
X291740Y104222D01*
X292193Y103715D01*
X292700Y103262D01*
X293254Y102869D01*
X293849Y102540D01*
X294477Y102280D01*
X295129Y102092D01*
X295799Y101978D01*
X296478Y101940D01*
X297156Y101978D01*
X297826Y102092D01*
X298479Y102280D01*
X299107Y102540D01*
X299702Y102869D01*
X300256Y103262D01*
X300763Y103715D01*
X301215Y104222D01*
X301609Y104776D01*
X301937Y105371D01*
X302197Y105998D01*
X302385Y106651D01*
X302499Y107321D01*
X302537Y108000D01*
X302499Y108678D01*
X302385Y109348D01*
X302197Y110001D01*
X301937Y110629D01*
X301609Y111224D01*
X301215Y111778D01*
X300763Y112284D01*
X300256Y112737D01*
X299702Y113131D01*
X299107Y113459D01*
X298479Y113719D01*
X297826Y113907D01*
X297156Y114021D01*
X296478Y114059D01*
D02*
G37*
G36*
X273601Y109464D02*
X272922Y109426D01*
X272253Y109312D01*
X271600Y109124D01*
X270972Y108864D01*
X270377Y108535D01*
X269823Y108142D01*
X269316Y107689D01*
X268863Y107183D01*
X268470Y106628D01*
X268141Y106034D01*
X267881Y105406D01*
X267693Y104753D01*
X267579Y104083D01*
X267541Y103405D01*
X267579Y102726D01*
X267693Y102056D01*
X267881Y101403D01*
X268141Y100775D01*
X268470Y100181D01*
X268863Y99626D01*
X269316Y99120D01*
X269823Y98667D01*
X270377Y98274D01*
X270972Y97945D01*
X271600Y97685D01*
X272253Y97497D01*
X272922Y97383D01*
X273601Y97345D01*
X274279Y97383D01*
X274949Y97497D01*
X275602Y97685D01*
X276230Y97945D01*
X276825Y98274D01*
X277379Y98667D01*
X277886Y99120D01*
X278338Y99626D01*
X278731Y100181D01*
X279060Y100775D01*
X279320Y101403D01*
X279508Y102056D01*
X279622Y102726D01*
X279660Y103405D01*
X279622Y104083D01*
X279508Y104753D01*
X279320Y105406D01*
X279060Y106034D01*
X278731Y106628D01*
X278338Y107183D01*
X277886Y107689D01*
X277379Y108142D01*
X276825Y108535D01*
X276230Y108864D01*
X275602Y109124D01*
X274949Y109312D01*
X274279Y109426D01*
X273601Y109464D01*
D02*
G37*
G36*
X274918Y94810D02*
X274240Y94771D01*
X273570Y94658D01*
X272917Y94470D01*
X272289Y94210D01*
X271694Y93881D01*
X271140Y93488D01*
X270633Y93035D01*
X270181Y92528D01*
X269787Y91974D01*
X269459Y91379D01*
X269199Y90751D01*
X269011Y90098D01*
X268897Y89429D01*
X268859Y88750D01*
X268897Y88072D01*
X269011Y87402D01*
X269199Y86749D01*
X269459Y86121D01*
X269787Y85526D01*
X270181Y84972D01*
X270633Y84465D01*
X271140Y84013D01*
X271694Y83619D01*
X272289Y83291D01*
X272917Y83031D01*
X273570Y82843D01*
X274240Y82729D01*
X274918Y82691D01*
X275597Y82729D01*
X276266Y82843D01*
X276919Y83031D01*
X277547Y83291D01*
X278142Y83619D01*
X278696Y84013D01*
X279203Y84465D01*
X279656Y84972D01*
X280049Y85526D01*
X280378Y86121D01*
X280638Y86749D01*
X280826Y87402D01*
X280940Y88072D01*
X280978Y88750D01*
X280940Y89429D01*
X280826Y90098D01*
X280638Y90751D01*
X280378Y91379D01*
X280049Y91974D01*
X279656Y92528D01*
X279203Y93035D01*
X278696Y93488D01*
X278142Y93881D01*
X277547Y94210D01*
X276919Y94470D01*
X276266Y94658D01*
X275597Y94771D01*
X274918Y94810D01*
D02*
G37*
G36*
X243080Y94640D02*
X242402Y94601D01*
X241732Y94488D01*
X241079Y94299D01*
X240451Y94039D01*
X239856Y93711D01*
X239302Y93317D01*
X238795Y92865D01*
X238342Y92358D01*
X237949Y91804D01*
X237621Y91209D01*
X237360Y90581D01*
X237172Y89928D01*
X237059Y89258D01*
X237020Y88580D01*
X237059Y87902D01*
X237172Y87232D01*
X237360Y86579D01*
X237621Y85951D01*
X237949Y85356D01*
X238342Y84802D01*
X238795Y84295D01*
X239302Y83842D01*
X239856Y83449D01*
X240451Y83121D01*
X241079Y82860D01*
X241732Y82672D01*
X242402Y82559D01*
X243080Y82521D01*
X243759Y82559D01*
X244428Y82672D01*
X245081Y82860D01*
X245709Y83121D01*
X246304Y83449D01*
X246858Y83842D01*
X247365Y84295D01*
X247817Y84802D01*
X248211Y85356D01*
X248539Y85951D01*
X248799Y86579D01*
X248988Y87232D01*
X249101Y87902D01*
X249139Y88580D01*
X249101Y89258D01*
X248988Y89928D01*
X248799Y90581D01*
X248539Y91209D01*
X248211Y91804D01*
X247817Y92358D01*
X247365Y92865D01*
X246858Y93317D01*
X246304Y93711D01*
X245709Y94039D01*
X245081Y94299D01*
X244428Y94488D01*
X243759Y94601D01*
X243080Y94640D01*
D02*
G37*
G36*
X52454Y95549D02*
X49474D01*
Y76771D01*
X59252D01*
Y88751D01*
X59219Y89417D01*
X59122Y90077D01*
X58959Y90724D01*
X58735Y91353D01*
X58450Y91956D01*
X58107Y92528D01*
X57709Y93064D01*
X57261Y93558D01*
X56767Y94006D01*
X56231Y94403D01*
X55659Y94746D01*
X55056Y95032D01*
X54427Y95256D01*
X53780Y95419D01*
X53120Y95516D01*
X52454Y95549D01*
D02*
G37*
G36*
X46934D02*
X43954D01*
X43288Y95516D01*
X42628Y95419D01*
X41981Y95256D01*
X41353Y95032D01*
X40750Y94746D01*
X40177Y94403D01*
X39641Y94006D01*
X39147Y93558D01*
X38699Y93064D01*
X38302Y92528D01*
X37959Y91956D01*
X37673Y91353D01*
X37449Y90724D01*
X37287Y90077D01*
X37189Y89417D01*
X37156Y88751D01*
Y76771D01*
X46934D01*
Y95549D01*
D02*
G37*
G36*
X421000Y83309D02*
X420322Y83271D01*
X419652Y83158D01*
X418999Y82970D01*
X418371Y82710D01*
X417776Y82381D01*
X417222Y81987D01*
X416715Y81535D01*
X416262Y81028D01*
X415869Y80474D01*
X415541Y79879D01*
X415280Y79251D01*
X415092Y78598D01*
X414978Y77929D01*
X414940Y77250D01*
X414978Y76572D01*
X415092Y75902D01*
X415280Y75249D01*
X415541Y74621D01*
X415869Y74026D01*
X416262Y73472D01*
X416715Y72965D01*
X417222Y72512D01*
X417776Y72119D01*
X418371Y71791D01*
X418999Y71531D01*
X419652Y71343D01*
X420322Y71229D01*
X421000Y71191D01*
X421678Y71229D01*
X422348Y71343D01*
X423001Y71531D01*
X423629Y71791D01*
X424224Y72119D01*
X424778Y72512D01*
X425285Y72965D01*
X425737Y73472D01*
X426131Y74026D01*
X426459Y74621D01*
X426719Y75249D01*
X426908Y75902D01*
X427021Y76572D01*
X427059Y77250D01*
X427021Y77929D01*
X426908Y78598D01*
X426719Y79251D01*
X426459Y79879D01*
X426131Y80474D01*
X425737Y81028D01*
X425285Y81535D01*
X424778Y81987D01*
X424224Y82381D01*
X423629Y82710D01*
X423001Y82970D01*
X422348Y83158D01*
X421678Y83271D01*
X421000Y83309D01*
D02*
G37*
G36*
X59252Y74231D02*
X49474D01*
Y55453D01*
X52454D01*
X53120Y55486D01*
X53780Y55584D01*
X54427Y55746D01*
X55056Y55970D01*
X55659Y56255D01*
X56231Y56599D01*
X56767Y56996D01*
X57261Y57444D01*
X57709Y57938D01*
X58107Y58474D01*
X58450Y59046D01*
X58735Y59649D01*
X58959Y60278D01*
X59122Y60925D01*
X59219Y61585D01*
X59252Y62251D01*
Y74231D01*
D02*
G37*
G36*
X46934D02*
X37156D01*
Y62251D01*
X37189Y61585D01*
X37287Y60925D01*
X37449Y60278D01*
X37673Y59649D01*
X37959Y59046D01*
X38302Y58474D01*
X38699Y57938D01*
X39147Y57444D01*
X39641Y56996D01*
X40177Y56599D01*
X40750Y56255D01*
X41353Y55970D01*
X41981Y55746D01*
X42628Y55584D01*
X43288Y55486D01*
X43954Y55453D01*
X46934D01*
Y74231D01*
D02*
G37*
G36*
X226533Y67490D02*
X225854Y67452D01*
X225184Y67338D01*
X224532Y67150D01*
X223904Y66890D01*
X223309Y66561D01*
X222755Y66168D01*
X222248Y65715D01*
X221795Y65208D01*
X221402Y64654D01*
X221073Y64059D01*
X220813Y63432D01*
X220625Y62779D01*
X220511Y62109D01*
X220473Y61430D01*
X220511Y60752D01*
X220625Y60082D01*
X220813Y59429D01*
X221073Y58801D01*
X221402Y58207D01*
X221795Y57652D01*
X222248Y57146D01*
X222755Y56693D01*
X223309Y56300D01*
X223904Y55971D01*
X224532Y55711D01*
X225184Y55523D01*
X225854Y55409D01*
X226533Y55371D01*
X227211Y55409D01*
X227881Y55523D01*
X228534Y55711D01*
X229162Y55971D01*
X229757Y56300D01*
X230311Y56693D01*
X230818Y57146D01*
X231270Y57652D01*
X231664Y58207D01*
X231992Y58801D01*
X232252Y59429D01*
X232440Y60082D01*
X232554Y60752D01*
X232592Y61430D01*
X232554Y62109D01*
X232440Y62779D01*
X232252Y63432D01*
X231992Y64059D01*
X231664Y64654D01*
X231270Y65208D01*
X230818Y65715D01*
X230311Y66168D01*
X229757Y66561D01*
X229162Y66890D01*
X228534Y67150D01*
X227881Y67338D01*
X227211Y67452D01*
X226533Y67490D01*
D02*
G37*
G36*
X112454Y96010D02*
X103954D01*
X103243Y95975D01*
X102538Y95870D01*
X101847Y95697D01*
X101176Y95457D01*
X100532Y95153D01*
X99921Y94786D01*
X99349Y94362D01*
X98821Y93884D01*
X98343Y93356D01*
X97919Y92784D01*
X97552Y92173D01*
X97248Y91529D01*
X97008Y90858D01*
X96835Y90167D01*
X96730Y89462D01*
X96695Y88751D01*
Y62251D01*
X96730Y61540D01*
X96835Y60835D01*
X97008Y60144D01*
X97248Y59473D01*
X97552Y58829D01*
X97919Y58218D01*
X98343Y57646D01*
X98821Y57118D01*
X99349Y56640D01*
X99921Y56216D01*
X100532Y55849D01*
X101176Y55545D01*
X101847Y55305D01*
X102538Y55132D01*
X103243Y55027D01*
X103954Y54992D01*
X112454D01*
X113166Y55027D01*
X113870Y55132D01*
X114561Y55305D01*
X115232Y55545D01*
X115876Y55849D01*
X116487Y56216D01*
X117059Y56640D01*
X117587Y57118D01*
X118065Y57646D01*
X118489Y58218D01*
X118856Y58829D01*
X119160Y59473D01*
X119400Y60144D01*
X119573Y60835D01*
X119678Y61540D01*
X119713Y62251D01*
Y88751D01*
X119678Y89462D01*
X119573Y90167D01*
X119400Y90858D01*
X119160Y91529D01*
X118856Y92173D01*
X118489Y92784D01*
X118065Y93356D01*
X117587Y93884D01*
X117059Y94362D01*
X116487Y94786D01*
X115876Y95153D01*
X115232Y95457D01*
X114561Y95697D01*
X113870Y95870D01*
X113166Y95975D01*
X112454Y96010D01*
D02*
G37*
G36*
X609043Y65071D02*
X608365Y65033D01*
X607695Y64919D01*
X607042Y64731D01*
X606414Y64471D01*
X605820Y64142D01*
X605265Y63749D01*
X604759Y63296D01*
X604306Y62790D01*
X603913Y62235D01*
X603584Y61641D01*
X603324Y61013D01*
X603136Y60360D01*
X603022Y59690D01*
X602984Y59012D01*
X603022Y58333D01*
X603136Y57663D01*
X603324Y57010D01*
X603584Y56382D01*
X603913Y55788D01*
X604306Y55233D01*
X604759Y54727D01*
X605265Y54274D01*
X605820Y53881D01*
X606414Y53552D01*
X607042Y53292D01*
X607695Y53104D01*
X608365Y52990D01*
X609043Y52952D01*
X609722Y52990D01*
X610392Y53104D01*
X611045Y53292D01*
X611673Y53552D01*
X612267Y53881D01*
X612821Y54274D01*
X613328Y54727D01*
X613781Y55233D01*
X614174Y55788D01*
X614503Y56382D01*
X614763Y57010D01*
X614951Y57663D01*
X615065Y58333D01*
X615103Y59012D01*
X615065Y59690D01*
X614951Y60360D01*
X614763Y61013D01*
X614503Y61641D01*
X614174Y62235D01*
X613781Y62790D01*
X613328Y63296D01*
X612821Y63749D01*
X612267Y64142D01*
X611673Y64471D01*
X611045Y64731D01*
X610392Y64919D01*
X609722Y65033D01*
X609043Y65071D01*
D02*
G37*
G36*
X447498D02*
X446819Y65033D01*
X446149Y64919D01*
X445496Y64731D01*
X444869Y64471D01*
X444274Y64142D01*
X443720Y63749D01*
X443213Y63296D01*
X442760Y62790D01*
X442367Y62235D01*
X442038Y61641D01*
X441778Y61013D01*
X441590Y60360D01*
X441476Y59690D01*
X441438Y59012D01*
X441476Y58333D01*
X441590Y57663D01*
X441778Y57010D01*
X442038Y56382D01*
X442367Y55788D01*
X442760Y55233D01*
X443213Y54727D01*
X443720Y54274D01*
X444274Y53881D01*
X444869Y53552D01*
X445496Y53292D01*
X446149Y53104D01*
X446819Y52990D01*
X447498Y52952D01*
X448176Y52990D01*
X448846Y53104D01*
X449499Y53292D01*
X450127Y53552D01*
X450722Y53881D01*
X451276Y54274D01*
X451782Y54727D01*
X452235Y55233D01*
X452629Y55788D01*
X452957Y56382D01*
X453217Y57010D01*
X453405Y57663D01*
X453519Y58333D01*
X453557Y59012D01*
X453519Y59690D01*
X453405Y60360D01*
X453217Y61013D01*
X452957Y61641D01*
X452629Y62235D01*
X452235Y62790D01*
X451782Y63296D01*
X451276Y63749D01*
X450722Y64142D01*
X450127Y64471D01*
X449499Y64731D01*
X448846Y64919D01*
X448176Y65033D01*
X447498Y65071D01*
D02*
G37*
G36*
X343840Y54013D02*
X343162Y53975D01*
X342492Y53861D01*
X341839Y53673D01*
X341211Y53413D01*
X340617Y53084D01*
X340062Y52691D01*
X339556Y52238D01*
X339103Y51731D01*
X338710Y51177D01*
X338381Y50582D01*
X338121Y49955D01*
X337933Y49302D01*
X337819Y48632D01*
X337781Y47953D01*
X337819Y47275D01*
X337933Y46605D01*
X338121Y45952D01*
X338381Y45324D01*
X338710Y44729D01*
X339103Y44175D01*
X339556Y43669D01*
X340062Y43216D01*
X340617Y42823D01*
X341211Y42494D01*
X341839Y42234D01*
X342492Y42046D01*
X343162Y41932D01*
X343840Y41894D01*
X344519Y41932D01*
X345189Y42046D01*
X345842Y42234D01*
X346469Y42494D01*
X347064Y42823D01*
X347618Y43216D01*
X348125Y43669D01*
X348578Y44175D01*
X348971Y44729D01*
X349300Y45324D01*
X349560Y45952D01*
X349748Y46605D01*
X349862Y47275D01*
X349900Y47953D01*
X349862Y48632D01*
X349748Y49302D01*
X349560Y49955D01*
X349300Y50582D01*
X348971Y51177D01*
X348578Y51731D01*
X348125Y52238D01*
X347618Y52691D01*
X347064Y53084D01*
X346469Y53413D01*
X345842Y53673D01*
X345189Y53861D01*
X344519Y53975D01*
X343840Y54013D01*
D02*
G37*
G36*
X610519Y39805D02*
X609591Y39772D01*
X608668Y39673D01*
X607754Y39508D01*
X606855Y39278D01*
X605974Y38985D01*
X605116Y38630D01*
X604285Y38214D01*
X603487Y37740D01*
X602724Y37211D01*
X602001Y36628D01*
X601321Y35995D01*
X600689Y35316D01*
X600106Y34593D01*
X599576Y33830D01*
X599102Y33031D01*
X598928Y32682D01*
X598785Y32624D01*
X597654D01*
X597511Y32682D01*
X597337Y33031D01*
X596863Y33830D01*
X596333Y34593D01*
X595751Y35316D01*
X595118Y35995D01*
X594438Y36628D01*
X593715Y37211D01*
X592952Y37740D01*
X592154Y38214D01*
X591323Y38630D01*
X590466Y38985D01*
X589584Y39278D01*
X588685Y39508D01*
X587771Y39673D01*
X586848Y39772D01*
X585920Y39805D01*
X584992Y39772D01*
X584068Y39673D01*
X583154Y39508D01*
X582255Y39278D01*
X581374Y38985D01*
X580516Y38630D01*
X579685Y38214D01*
X578887Y37740D01*
X578124Y37211D01*
X577401Y36628D01*
X576721Y35995D01*
X576089Y35316D01*
X575506Y34593D01*
X574976Y33830D01*
X574502Y33031D01*
X574109Y32245D01*
X573965Y32201D01*
X572874D01*
X572730Y32245D01*
X572337Y33031D01*
X571863Y33830D01*
X571333Y34593D01*
X570750Y35316D01*
X570118Y35995D01*
X569438Y36628D01*
X568715Y37211D01*
X567952Y37740D01*
X567154Y38214D01*
X566323Y38630D01*
X565465Y38985D01*
X564584Y39278D01*
X563685Y39508D01*
X562771Y39673D01*
X561847Y39772D01*
X560919Y39805D01*
X559991Y39772D01*
X559068Y39673D01*
X558154Y39508D01*
X557254Y39278D01*
X556373Y38985D01*
X555516Y38630D01*
X554685Y38214D01*
X553887Y37740D01*
X553124Y37211D01*
X552401Y36628D01*
X551721Y35995D01*
X551088Y35316D01*
X550506Y34593D01*
X549976Y33830D01*
X549502Y33031D01*
X549087Y32201D01*
X548731Y31343D01*
X548689Y31215D01*
X547350D01*
X547308Y31343D01*
X546952Y32201D01*
X546537Y33031D01*
X546063Y33830D01*
X545533Y34593D01*
X544951Y35316D01*
X544318Y35995D01*
X543638Y36628D01*
X542915Y37211D01*
X542152Y37740D01*
X541354Y38214D01*
X540523Y38630D01*
X539665Y38985D01*
X538784Y39278D01*
X537885Y39508D01*
X536971Y39673D01*
X536048Y39772D01*
X535120Y39805D01*
X534192Y39772D01*
X533268Y39673D01*
X532355Y39508D01*
X531455Y39278D01*
X530574Y38985D01*
X529716Y38630D01*
X528885Y38214D01*
X528087Y37740D01*
X527324Y37211D01*
X526601Y36628D01*
X525921Y35995D01*
X525289Y35316D01*
X524706Y34593D01*
X524176Y33830D01*
X523703Y33031D01*
X523287Y32201D01*
X523102Y31756D01*
X522952Y31704D01*
X521887D01*
X521737Y31756D01*
X521552Y32201D01*
X521137Y33031D01*
X520663Y33830D01*
X520133Y34593D01*
X519551Y35316D01*
X518918Y35995D01*
X518238Y36628D01*
X517515Y37211D01*
X516752Y37740D01*
X515954Y38214D01*
X515123Y38630D01*
X514266Y38985D01*
X513384Y39278D01*
X512485Y39508D01*
X511571Y39673D01*
X510648Y39772D01*
X509720Y39805D01*
X508792Y39772D01*
X507868Y39673D01*
X506954Y39508D01*
X506055Y39278D01*
X505174Y38985D01*
X504316Y38630D01*
X503485Y38214D01*
X502687Y37740D01*
X501924Y37211D01*
X501201Y36628D01*
X500521Y35995D01*
X499889Y35316D01*
X499306Y34593D01*
X498776Y33830D01*
X498302Y33031D01*
X497887Y32201D01*
X497532Y31343D01*
X497238Y30462D01*
X497009Y29562D01*
X496844Y28648D01*
X496744Y27725D01*
X496711Y26797D01*
X496744Y25869D01*
X496844Y24946D01*
X497009Y24032D01*
X497238Y23132D01*
X497532Y22251D01*
X497887Y21393D01*
X498302Y20563D01*
X498776Y19764D01*
X499306Y19001D01*
X499889Y18278D01*
X500521Y17599D01*
X501201Y16966D01*
X501924Y16383D01*
X502687Y15854D01*
X503485Y15380D01*
X504316Y14964D01*
X505174Y14609D01*
X506055Y14316D01*
X506954Y14086D01*
X507868Y13921D01*
X508792Y13822D01*
X509720Y13789D01*
X510648Y13822D01*
X511571Y13921D01*
X512485Y14086D01*
X513384Y14316D01*
X514266Y14609D01*
X515123Y14964D01*
X515954Y15380D01*
X516752Y15854D01*
X517515Y16383D01*
X518238Y16966D01*
X518918Y17599D01*
X519551Y18278D01*
X520133Y19001D01*
X520663Y19764D01*
X521137Y20563D01*
X521552Y21393D01*
X521737Y21838D01*
X521887Y21890D01*
X522952D01*
X523102Y21838D01*
X523287Y21393D01*
X523703Y20563D01*
X524176Y19764D01*
X524706Y19001D01*
X525289Y18278D01*
X525921Y17599D01*
X526601Y16966D01*
X527324Y16383D01*
X528087Y15854D01*
X528885Y15380D01*
X529716Y14964D01*
X530574Y14609D01*
X531455Y14316D01*
X532355Y14086D01*
X533268Y13921D01*
X534192Y13822D01*
X535120Y13789D01*
X536048Y13822D01*
X536971Y13921D01*
X537885Y14086D01*
X538784Y14316D01*
X539665Y14609D01*
X540523Y14964D01*
X541354Y15380D01*
X542152Y15854D01*
X542915Y16383D01*
X543638Y16966D01*
X544318Y17599D01*
X544951Y18278D01*
X545533Y19001D01*
X546063Y19764D01*
X546537Y20563D01*
X546952Y21393D01*
X547308Y22251D01*
X547350Y22379D01*
X548689D01*
X548731Y22251D01*
X549087Y21393D01*
X549502Y20563D01*
X549976Y19764D01*
X550506Y19001D01*
X551088Y18278D01*
X551721Y17599D01*
X552401Y16966D01*
X553124Y16383D01*
X553887Y15854D01*
X554685Y15380D01*
X555516Y14964D01*
X556373Y14609D01*
X557254Y14316D01*
X558154Y14086D01*
X559068Y13921D01*
X559991Y13822D01*
X560919Y13789D01*
X561847Y13822D01*
X562771Y13921D01*
X563685Y14086D01*
X564584Y14316D01*
X565465Y14609D01*
X566323Y14964D01*
X567154Y15380D01*
X567952Y15854D01*
X568715Y16383D01*
X569438Y16966D01*
X570118Y17599D01*
X570750Y18278D01*
X571333Y19001D01*
X571863Y19764D01*
X572337Y20563D01*
X572730Y21349D01*
X572874Y21393D01*
X573965D01*
X574109Y21349D01*
X574502Y20563D01*
X574976Y19764D01*
X575506Y19001D01*
X576089Y18278D01*
X576721Y17599D01*
X577401Y16966D01*
X578124Y16383D01*
X578887Y15854D01*
X579685Y15380D01*
X580516Y14964D01*
X581374Y14609D01*
X582255Y14316D01*
X583154Y14086D01*
X584068Y13921D01*
X584992Y13822D01*
X585920Y13789D01*
X586848Y13822D01*
X587771Y13921D01*
X588685Y14086D01*
X589584Y14316D01*
X590466Y14609D01*
X591323Y14964D01*
X592154Y15380D01*
X592952Y15854D01*
X593715Y16383D01*
X594438Y16966D01*
X595118Y17599D01*
X595751Y18278D01*
X596333Y19001D01*
X596863Y19764D01*
X597337Y20563D01*
X597511Y20912D01*
X597654Y20970D01*
X598785D01*
X598928Y20912D01*
X599102Y20563D01*
X599576Y19764D01*
X600106Y19001D01*
X600689Y18278D01*
X601321Y17599D01*
X602001Y16966D01*
X602724Y16383D01*
X603487Y15854D01*
X604285Y15380D01*
X605116Y14964D01*
X605974Y14609D01*
X606855Y14316D01*
X607754Y14086D01*
X608668Y13921D01*
X609591Y13822D01*
X610519Y13789D01*
X611447Y13822D01*
X612371Y13921D01*
X613285Y14086D01*
X614184Y14316D01*
X615065Y14609D01*
X615923Y14964D01*
X616754Y15380D01*
X617552Y15854D01*
X618315Y16383D01*
X619038Y16966D01*
X619718Y17599D01*
X620350Y18278D01*
X620933Y19001D01*
X621463Y19764D01*
X621650Y20079D01*
X622920Y19730D01*
Y13797D01*
X648920D01*
Y39797D01*
X622920D01*
Y33863D01*
X621650Y33515D01*
X621463Y33830D01*
X620933Y34593D01*
X620350Y35316D01*
X619718Y35995D01*
X619038Y36628D01*
X618315Y37211D01*
X617552Y37740D01*
X616754Y38214D01*
X615923Y38630D01*
X615065Y38985D01*
X614184Y39278D01*
X613285Y39508D01*
X612371Y39673D01*
X611447Y39772D01*
X610519Y39805D01*
D02*
G37*
G36*
X471119Y39797D02*
X445120D01*
Y33142D01*
X443992Y32542D01*
X443849Y32587D01*
X443420Y33354D01*
X442872Y34174D01*
X442262Y34947D01*
X441594Y35671D01*
X440870Y36340D01*
X440096Y36950D01*
X439277Y37497D01*
X438417Y37979D01*
X437522Y38391D01*
X436598Y38733D01*
X435649Y39000D01*
X434683Y39192D01*
X433989Y39274D01*
Y26797D01*
Y14320D01*
X434683Y14402D01*
X435649Y14594D01*
X436598Y14862D01*
X437522Y15203D01*
X438417Y15615D01*
X439277Y16097D01*
X440096Y16644D01*
X440870Y17254D01*
X441594Y17923D01*
X442262Y18647D01*
X442872Y19420D01*
X443420Y20240D01*
X443849Y21007D01*
X443992Y21052D01*
X445120Y20452D01*
Y13797D01*
X471119D01*
Y39797D01*
D02*
G37*
G36*
X383119Y39805D02*
X382191Y39772D01*
X381268Y39673D01*
X380354Y39508D01*
X379454Y39278D01*
X378573Y38985D01*
X377716Y38630D01*
X376885Y38214D01*
X376087Y37740D01*
X375324Y37211D01*
X374601Y36628D01*
X373921Y35995D01*
X373288Y35316D01*
X372706Y34593D01*
X372176Y33830D01*
X371702Y33031D01*
X371287Y32201D01*
X370931Y31343D01*
X370889Y31215D01*
X369550D01*
X369508Y31343D01*
X369152Y32201D01*
X368737Y33031D01*
X368263Y33830D01*
X367733Y34593D01*
X367151Y35316D01*
X366518Y35995D01*
X365838Y36628D01*
X365115Y37211D01*
X364352Y37740D01*
X363554Y38214D01*
X362723Y38630D01*
X361866Y38985D01*
X360984Y39278D01*
X360085Y39508D01*
X359171Y39673D01*
X358248Y39772D01*
X357320Y39805D01*
X356392Y39772D01*
X355468Y39673D01*
X354554Y39508D01*
X353655Y39278D01*
X352774Y38985D01*
X351916Y38630D01*
X351085Y38214D01*
X350287Y37740D01*
X349524Y37211D01*
X348801Y36628D01*
X348121Y35995D01*
X347489Y35316D01*
X346906Y34593D01*
X346376Y33830D01*
X345902Y33031D01*
X345487Y32201D01*
X345303Y31756D01*
X345153Y31704D01*
X344087D01*
X343937Y31756D01*
X343752Y32201D01*
X343337Y33031D01*
X342863Y33830D01*
X342333Y34593D01*
X341751Y35316D01*
X341118Y35995D01*
X340438Y36628D01*
X339715Y37211D01*
X338952Y37740D01*
X338154Y38214D01*
X337323Y38630D01*
X336465Y38985D01*
X335584Y39278D01*
X334685Y39508D01*
X333771Y39673D01*
X332848Y39772D01*
X331920Y39805D01*
X330992Y39772D01*
X330068Y39673D01*
X329155Y39508D01*
X328255Y39278D01*
X327374Y38985D01*
X326516Y38630D01*
X325685Y38214D01*
X324887Y37740D01*
X324124Y37211D01*
X323401Y36628D01*
X322721Y35995D01*
X322089Y35316D01*
X321506Y34593D01*
X320976Y33830D01*
X320503Y33031D01*
X320087Y32201D01*
X319902Y31756D01*
X319753Y31704D01*
X318687D01*
X318537Y31756D01*
X318352Y32201D01*
X317937Y33031D01*
X317463Y33830D01*
X316933Y34593D01*
X316351Y35316D01*
X315718Y35995D01*
X315038Y36628D01*
X314315Y37211D01*
X313552Y37740D01*
X312754Y38214D01*
X311923Y38630D01*
X311066Y38985D01*
X310184Y39278D01*
X309285Y39508D01*
X308371Y39673D01*
X307448Y39772D01*
X306520Y39805D01*
X305592Y39772D01*
X304668Y39673D01*
X303755Y39508D01*
X302855Y39278D01*
X301974Y38985D01*
X301116Y38630D01*
X300285Y38214D01*
X299487Y37740D01*
X298724Y37211D01*
X298001Y36628D01*
X297321Y35995D01*
X296689Y35316D01*
X296106Y34593D01*
X295576Y33830D01*
X295103Y33031D01*
X294687Y32201D01*
X294503Y31756D01*
X294352Y31704D01*
X293287D01*
X293137Y31756D01*
X292952Y32201D01*
X292537Y33031D01*
X292063Y33830D01*
X291533Y34593D01*
X290951Y35316D01*
X290318Y35995D01*
X289638Y36628D01*
X288915Y37211D01*
X288152Y37740D01*
X287354Y38214D01*
X286523Y38630D01*
X285665Y38985D01*
X284784Y39278D01*
X283885Y39508D01*
X282971Y39673D01*
X282048Y39772D01*
X281120Y39805D01*
X280192Y39772D01*
X279268Y39673D01*
X278354Y39508D01*
X277455Y39278D01*
X276574Y38985D01*
X275716Y38630D01*
X274885Y38214D01*
X274087Y37740D01*
X273324Y37211D01*
X272601Y36628D01*
X271921Y35995D01*
X271289Y35316D01*
X270706Y34593D01*
X270176Y33830D01*
X269702Y33031D01*
X269287Y32201D01*
X268932Y31343D01*
X268638Y30462D01*
X268409Y29562D01*
X268244Y28648D01*
X268144Y27725D01*
X268111Y26797D01*
X268144Y25869D01*
X268244Y24946D01*
X268409Y24032D01*
X268638Y23132D01*
X268932Y22251D01*
X269287Y21393D01*
X269702Y20563D01*
X270176Y19764D01*
X270706Y19001D01*
X271289Y18278D01*
X271921Y17599D01*
X272601Y16966D01*
X273324Y16383D01*
X274087Y15854D01*
X274885Y15380D01*
X275716Y14964D01*
X276574Y14609D01*
X277455Y14316D01*
X278354Y14086D01*
X279268Y13921D01*
X280192Y13822D01*
X281120Y13789D01*
X282048Y13822D01*
X282971Y13921D01*
X283885Y14086D01*
X284784Y14316D01*
X285665Y14609D01*
X286523Y14964D01*
X287354Y15380D01*
X288152Y15854D01*
X288915Y16383D01*
X289638Y16966D01*
X290318Y17599D01*
X290951Y18278D01*
X291533Y19001D01*
X292063Y19764D01*
X292537Y20563D01*
X292952Y21393D01*
X293137Y21838D01*
X293287Y21890D01*
X294352D01*
X294503Y21838D01*
X294687Y21393D01*
X295103Y20563D01*
X295576Y19764D01*
X296106Y19001D01*
X296689Y18278D01*
X297321Y17599D01*
X298001Y16966D01*
X298724Y16383D01*
X299487Y15854D01*
X300285Y15380D01*
X301116Y14964D01*
X301974Y14609D01*
X302855Y14316D01*
X303755Y14086D01*
X304668Y13921D01*
X305592Y13822D01*
X306520Y13789D01*
X307448Y13822D01*
X308371Y13921D01*
X309285Y14086D01*
X310184Y14316D01*
X311066Y14609D01*
X311923Y14964D01*
X312754Y15380D01*
X313552Y15854D01*
X314315Y16383D01*
X315038Y16966D01*
X315718Y17599D01*
X316351Y18278D01*
X316933Y19001D01*
X317463Y19764D01*
X317937Y20563D01*
X318352Y21393D01*
X318537Y21838D01*
X318687Y21890D01*
X319753D01*
X319902Y21838D01*
X320087Y21393D01*
X320503Y20563D01*
X320976Y19764D01*
X321506Y19001D01*
X322089Y18278D01*
X322721Y17599D01*
X323401Y16966D01*
X324124Y16383D01*
X324887Y15854D01*
X325685Y15380D01*
X326516Y14964D01*
X327374Y14609D01*
X328255Y14316D01*
X329155Y14086D01*
X330068Y13921D01*
X330992Y13822D01*
X331920Y13789D01*
X332848Y13822D01*
X333771Y13921D01*
X334685Y14086D01*
X335584Y14316D01*
X336465Y14609D01*
X337323Y14964D01*
X338154Y15380D01*
X338952Y15854D01*
X339715Y16383D01*
X340438Y16966D01*
X341118Y17599D01*
X341751Y18278D01*
X342333Y19001D01*
X342863Y19764D01*
X343337Y20563D01*
X343752Y21393D01*
X343937Y21838D01*
X344087Y21890D01*
X345153D01*
X345303Y21838D01*
X345487Y21393D01*
X345902Y20563D01*
X346376Y19764D01*
X346906Y19001D01*
X347489Y18278D01*
X348121Y17599D01*
X348801Y16966D01*
X349524Y16383D01*
X350287Y15854D01*
X351085Y15380D01*
X351916Y14964D01*
X352774Y14609D01*
X353655Y14316D01*
X354554Y14086D01*
X355468Y13921D01*
X356392Y13822D01*
X357320Y13789D01*
X358248Y13822D01*
X359171Y13921D01*
X360085Y14086D01*
X360984Y14316D01*
X361866Y14609D01*
X362723Y14964D01*
X363554Y15380D01*
X364352Y15854D01*
X365115Y16383D01*
X365838Y16966D01*
X366518Y17599D01*
X367151Y18278D01*
X367733Y19001D01*
X368263Y19764D01*
X368737Y20563D01*
X369152Y21393D01*
X369508Y22251D01*
X369550Y22379D01*
X370889D01*
X370931Y22251D01*
X371287Y21393D01*
X371702Y20563D01*
X372176Y19764D01*
X372706Y19001D01*
X373288Y18278D01*
X373921Y17599D01*
X374601Y16966D01*
X375324Y16383D01*
X376087Y15854D01*
X376885Y15380D01*
X377716Y14964D01*
X378573Y14609D01*
X379454Y14316D01*
X380354Y14086D01*
X381268Y13921D01*
X382191Y13822D01*
X383119Y13789D01*
X384047Y13822D01*
X384971Y13921D01*
X385885Y14086D01*
X386784Y14316D01*
X387665Y14609D01*
X388523Y14964D01*
X389354Y15380D01*
X390152Y15854D01*
X390915Y16383D01*
X391638Y16966D01*
X392318Y17599D01*
X392950Y18278D01*
X393533Y19001D01*
X394063Y19764D01*
X394537Y20563D01*
X394952Y21393D01*
X395186Y21957D01*
X396147Y22074D01*
X396189Y22065D01*
X396546Y21950D01*
X396938Y21100D01*
X397419Y20240D01*
X397967Y19420D01*
X398577Y18647D01*
X399246Y17923D01*
X399969Y17254D01*
X400743Y16644D01*
X401562Y16097D01*
X402422Y15615D01*
X403317Y15203D01*
X404241Y14862D01*
X405190Y14594D01*
X406156Y14402D01*
X406850Y14320D01*
Y26797D01*
Y39274D01*
X406156Y39192D01*
X405190Y39000D01*
X404241Y38733D01*
X403317Y38391D01*
X402422Y37979D01*
X401562Y37497D01*
X400743Y36950D01*
X399969Y36340D01*
X399246Y35671D01*
X398577Y34947D01*
X397967Y34174D01*
X397419Y33354D01*
X396938Y32494D01*
X396546Y31644D01*
X396189Y31529D01*
X396147Y31520D01*
X395186Y31637D01*
X394952Y32201D01*
X394537Y33031D01*
X394063Y33830D01*
X393533Y34593D01*
X392950Y35316D01*
X392318Y35995D01*
X391638Y36628D01*
X390915Y37211D01*
X390152Y37740D01*
X389354Y38214D01*
X388523Y38630D01*
X387665Y38985D01*
X386784Y39278D01*
X385885Y39508D01*
X384971Y39673D01*
X384047Y39772D01*
X383119Y39805D01*
D02*
G37*
G36*
X91454Y38549D02*
X79474D01*
Y28771D01*
X98252D01*
Y31751D01*
X98219Y32417D01*
X98122Y33077D01*
X97959Y33725D01*
X97735Y34353D01*
X97450Y34956D01*
X97107Y35528D01*
X96709Y36064D01*
X96261Y36558D01*
X95767Y37006D01*
X95231Y37404D01*
X94659Y37747D01*
X94056Y38032D01*
X93427Y38256D01*
X92780Y38419D01*
X92120Y38516D01*
X91454Y38549D01*
D02*
G37*
G36*
X76934D02*
X64954D01*
X64288Y38516D01*
X63628Y38419D01*
X62981Y38256D01*
X62352Y38032D01*
X61749Y37747D01*
X61177Y37404D01*
X60641Y37006D01*
X60147Y36558D01*
X59699Y36064D01*
X59302Y35528D01*
X58959Y34956D01*
X58673Y34353D01*
X58449Y33725D01*
X58286Y33077D01*
X58189Y32417D01*
X58156Y31751D01*
Y28771D01*
X76934D01*
Y38549D01*
D02*
G37*
G36*
X98252Y26231D02*
X79474D01*
Y16453D01*
X91454D01*
X92120Y16486D01*
X92780Y16584D01*
X93427Y16746D01*
X94056Y16970D01*
X94659Y17256D01*
X95231Y17599D01*
X95767Y17996D01*
X96261Y18444D01*
X96709Y18938D01*
X97107Y19474D01*
X97450Y20046D01*
X97735Y20649D01*
X97959Y21278D01*
X98122Y21925D01*
X98219Y22585D01*
X98252Y23251D01*
Y26231D01*
D02*
G37*
G36*
X76934D02*
X58156D01*
Y23251D01*
X58189Y22585D01*
X58286Y21925D01*
X58449Y21278D01*
X58673Y20649D01*
X58959Y20046D01*
X59302Y19474D01*
X59699Y18938D01*
X60147Y18444D01*
X60641Y17996D01*
X61177Y17599D01*
X61749Y17256D01*
X62352Y16970D01*
X62981Y16746D01*
X63628Y16584D01*
X64288Y16486D01*
X64954Y16453D01*
X76934D01*
Y26231D01*
D02*
G37*
G36*
X409390Y39274D02*
Y26797D01*
Y14320D01*
X410083Y14402D01*
X411049Y14594D01*
X411998Y14862D01*
X412922Y15203D01*
X413817Y15615D01*
X414677Y16097D01*
X415496Y16644D01*
X416270Y17254D01*
X416994Y17923D01*
X417662Y18647D01*
X418273Y19420D01*
X418820Y20240D01*
X419301Y21100D01*
X419714Y21994D01*
X419743Y22072D01*
X421096D01*
X421125Y21994D01*
X421538Y21100D01*
X422019Y20240D01*
X422567Y19420D01*
X423177Y18647D01*
X423845Y17923D01*
X424569Y17254D01*
X425343Y16644D01*
X426162Y16097D01*
X427022Y15615D01*
X427917Y15203D01*
X428841Y14862D01*
X429790Y14594D01*
X430756Y14402D01*
X431450Y14320D01*
Y26797D01*
Y39274D01*
X430756Y39192D01*
X429790Y39000D01*
X428841Y38733D01*
X427917Y38391D01*
X427022Y37979D01*
X426162Y37497D01*
X425343Y36950D01*
X424569Y36340D01*
X423845Y35671D01*
X423177Y34947D01*
X422567Y34174D01*
X422019Y33354D01*
X421538Y32494D01*
X421125Y31600D01*
X421096Y31522D01*
X419743D01*
X419714Y31600D01*
X419301Y32494D01*
X418820Y33354D01*
X418273Y34174D01*
X417662Y34947D01*
X416994Y35671D01*
X416270Y36340D01*
X415496Y36950D01*
X414677Y37497D01*
X413817Y37979D01*
X412922Y38391D01*
X411998Y38733D01*
X411049Y39000D01*
X410083Y39192D01*
X409390Y39274D01*
D02*
G37*
%LPD*%
D41*
X71345Y162099D02*
D03*
X71107Y251253D02*
D03*
D43*
X408120Y26797D02*
D03*
X432719D02*
D03*
X265880Y509400D02*
D03*
D44*
X48204Y75501D02*
D03*
D45*
X78204Y27501D02*
D03*
D46*
X175971Y391000D02*
D03*
X284554Y394340D02*
D03*
X495039Y308950D02*
D03*
X544042Y309333D02*
D03*
X333960Y456000D02*
D03*
X315040Y291006D02*
D03*
X287960Y238186D02*
D03*
X249610Y79332D02*
D03*
X277670Y64398D02*
D03*
X331481Y144000D02*
D03*
X577145Y96040D02*
D03*
X671830Y266199D02*
D03*
X239512Y108660D02*
D03*
X442579Y103348D02*
D03*
X434526Y374750D02*
D03*
X350989Y382593D02*
D03*
X520902Y186502D02*
D03*
X521214Y96040D02*
D03*
X217284Y390940D02*
D03*
X287369Y353288D02*
D03*
X206355Y447792D02*
D03*
M02*
