G04 Layer_Color=8421504*
%FSLAX44Y44*%
%MOMM*%
G71*
G01*
G75*
%ADD11R,0.7500X0.8000*%
%ADD12R,0.8000X0.7500*%
%ADD13R,1.1000X2.0000*%
%ADD14R,0.8000X0.8000*%
%ADD15R,0.9000X0.7000*%
%ADD16R,0.8000X0.8000*%
%ADD17R,2.0000X1.1000*%
%ADD18R,1.5000X1.3000*%
%ADD19R,1.3000X1.5000*%
%ADD20O,1.7000X0.3000*%
%ADD21O,2.3000X0.6000*%
%ADD22R,1.2000X2.5000*%
%ADD23R,1.5500X1.3000*%
%ADD24R,3.8100X1.2700*%
%ADD25R,0.7000X0.3000*%
%ADD26R,1.0000X0.9470*%
%ADD27R,1.0000X0.9450*%
%ADD28R,0.3000X0.7000*%
%ADD29R,0.9470X1.0000*%
%ADD30R,0.9450X1.0000*%
%ADD31R,0.4000X0.2000*%
%ADD32R,0.5000X0.5000*%
D11*
X308340Y144000D02*
D03*
X321840D02*
D03*
X276250D02*
D03*
X289750D02*
D03*
X226533Y73006D02*
D03*
X240033D02*
D03*
X245250Y98000D02*
D03*
X258750D02*
D03*
X599456Y59012D02*
D03*
X585956D02*
D03*
X232250Y363000D02*
D03*
X245750D02*
D03*
X232250Y333000D02*
D03*
X245750D02*
D03*
X232250Y348000D02*
D03*
X245750D02*
D03*
X232250Y309000D02*
D03*
X245750D02*
D03*
X232250Y294000D02*
D03*
X245750D02*
D03*
X232250Y279000D02*
D03*
X245750D02*
D03*
X232250Y257000D02*
D03*
X245750D02*
D03*
X232250Y242000D02*
D03*
X245750D02*
D03*
X232250Y203000D02*
D03*
X245750D02*
D03*
X232250Y227000D02*
D03*
X245750D02*
D03*
X232250Y188000D02*
D03*
X245750D02*
D03*
X232250Y173000D02*
D03*
X245750D02*
D03*
X365750Y225000D02*
D03*
X352250D02*
D03*
X365750Y255000D02*
D03*
X352250D02*
D03*
X365750Y240000D02*
D03*
X352250D02*
D03*
X365750Y280000D02*
D03*
X352250D02*
D03*
X365750Y310000D02*
D03*
X352250D02*
D03*
X365750Y295000D02*
D03*
X352250D02*
D03*
X244780Y414060D02*
D03*
X231280D02*
D03*
X199780Y391000D02*
D03*
X186280D02*
D03*
X307280Y456000D02*
D03*
X320780D02*
D03*
X324280Y437000D02*
D03*
X337780D02*
D03*
X244780Y390940D02*
D03*
X231280D02*
D03*
X527750Y395000D02*
D03*
X514250D02*
D03*
D12*
X286000Y88750D02*
D03*
Y75250D02*
D03*
Y103250D02*
D03*
Y116750D02*
D03*
X185030Y414250D02*
D03*
Y427750D02*
D03*
X201030D02*
D03*
Y414250D02*
D03*
X428000Y360750D02*
D03*
Y347250D02*
D03*
X592000Y346750D02*
D03*
Y333250D02*
D03*
X447000Y361250D02*
D03*
Y374750D02*
D03*
D13*
X228000Y108000D02*
D03*
D14*
Y127000D02*
D03*
D15*
X407000Y245492D02*
D03*
Y235508D02*
D03*
X392000Y245492D02*
D03*
Y235508D02*
D03*
X407000Y296492D02*
D03*
Y286508D02*
D03*
X392000Y296492D02*
D03*
Y286508D02*
D03*
X189000Y342508D02*
D03*
Y352492D02*
D03*
X204000Y342508D02*
D03*
Y352492D02*
D03*
X189000Y183508D02*
D03*
Y193492D02*
D03*
X204000Y183508D02*
D03*
Y193492D02*
D03*
X189000Y288508D02*
D03*
Y298492D02*
D03*
X204000Y288508D02*
D03*
Y298492D02*
D03*
X189000Y238508D02*
D03*
Y248492D02*
D03*
X204000Y238508D02*
D03*
Y248492D02*
D03*
D16*
X421000Y64000D02*
D03*
X277030Y437000D02*
D03*
D17*
X402000Y64000D02*
D03*
X296030Y437000D02*
D03*
D18*
X420999Y90501D02*
D03*
Y107501D02*
D03*
D19*
X241529Y439999D02*
D03*
X224529D02*
D03*
D20*
X268850Y414340D02*
D03*
Y409340D02*
D03*
Y404340D02*
D03*
Y399340D02*
D03*
Y394340D02*
D03*
X309850Y414340D02*
D03*
Y409340D02*
D03*
Y404340D02*
D03*
Y399340D02*
D03*
Y394340D02*
D03*
D21*
X565373Y283550D02*
D03*
Y296250D02*
D03*
Y308950D02*
D03*
Y321650D02*
D03*
Y334350D02*
D03*
Y347050D02*
D03*
Y359750D02*
D03*
Y372450D02*
D03*
X474373Y283550D02*
D03*
Y296250D02*
D03*
Y308950D02*
D03*
Y321650D02*
D03*
Y334350D02*
D03*
Y347050D02*
D03*
Y359750D02*
D03*
Y372450D02*
D03*
D22*
X55570Y509500D02*
D03*
X105570D02*
D03*
X80570D02*
D03*
Y454500D02*
D03*
X105570D02*
D03*
X55570D02*
D03*
D23*
X593326Y141040D02*
D03*
X672826D02*
D03*
Y96040D02*
D03*
X593326D02*
D03*
X481152Y231503D02*
D03*
X560652D02*
D03*
Y186502D02*
D03*
X481152D02*
D03*
X481464Y141041D02*
D03*
X560964D02*
D03*
Y96040D02*
D03*
X481464D02*
D03*
D24*
X627380Y306197D02*
D03*
X671830D02*
D03*
X627380Y280797D02*
D03*
X671830D02*
D03*
X627380Y255397D02*
D03*
X671830D02*
D03*
D25*
X293415Y345000D02*
D03*
Y338523D02*
D03*
Y325546D02*
D03*
Y332046D02*
D03*
X275000D02*
D03*
Y325546D02*
D03*
Y338523D02*
D03*
Y345000D02*
D03*
X309585Y259000D02*
D03*
Y265477D02*
D03*
Y278454D02*
D03*
Y271954D02*
D03*
X328000D02*
D03*
Y278454D02*
D03*
Y265477D02*
D03*
Y259000D02*
D03*
X293415Y228000D02*
D03*
Y221523D02*
D03*
Y208546D02*
D03*
Y215046D02*
D03*
X275000D02*
D03*
Y208546D02*
D03*
Y221523D02*
D03*
Y228000D02*
D03*
X356445Y412000D02*
D03*
Y405523D02*
D03*
Y392546D02*
D03*
Y399046D02*
D03*
X338030D02*
D03*
Y392546D02*
D03*
Y405523D02*
D03*
Y412000D02*
D03*
D26*
X287960Y341770D02*
D03*
X315040Y262230D02*
D03*
X287960Y224770D02*
D03*
X350990Y408770D02*
D03*
D27*
X287959Y328810D02*
D03*
X315040Y275190D02*
D03*
X287959Y211810D02*
D03*
X350989Y395810D02*
D03*
D28*
X249000Y131415D02*
D03*
X255477D02*
D03*
X268454D02*
D03*
X261954D02*
D03*
Y113000D02*
D03*
X268454D02*
D03*
X255477D02*
D03*
X249000D02*
D03*
D29*
X252230Y125960D02*
D03*
D30*
X265190Y125960D02*
D03*
D31*
X258796Y72435D02*
D03*
X258793Y76493D02*
D03*
X269718Y68443D02*
D03*
Y64398D02*
D03*
D32*
X266081Y74666D02*
D03*
X261925Y66366D02*
D03*
M02*
