G04 Layer_Color=8421504*
%FSLAX24Y24*%
%MOIN*%
G70*
G01*
G75*
%ADD58R,0.0158X0.0080*%
%ADD59R,0.0198X0.0198*%
%ADD60R,0.0373X0.0394*%
%ADD61R,0.0374X0.0394*%
%ADD62R,0.0119X0.0276*%
%ADD63R,0.0394X0.0373*%
%ADD64R,0.0394X0.0374*%
%ADD65R,0.0276X0.0119*%
%ADD66R,0.0316X0.0296*%
%ADD67R,0.0296X0.0316*%
%ADD68R,0.1501X0.0501*%
%ADD69R,0.0611X0.0513*%
%ADD70R,0.0473X0.0985*%
%ADD71O,0.0906X0.0237*%
%ADD72O,0.0670X0.0119*%
%ADD73R,0.0513X0.0591*%
%ADD74R,0.0788X0.0434*%
%ADD75R,0.0316X0.0316*%
%ADD76R,0.0355X0.0276*%
%ADD77R,0.0316X0.0316*%
%ADD78R,0.0434X0.0788*%
D58*
X10457Y2616D02*
D03*
Y2776D02*
D03*
X10027Y3093D02*
D03*
X10027Y2933D02*
D03*
D59*
X10150Y2694D02*
D03*
X10313Y3021D02*
D03*
D60*
X10278Y5040D02*
D03*
D61*
X9768Y5040D02*
D03*
D62*
X9641Y4530D02*
D03*
X9896D02*
D03*
X10407D02*
D03*
X10151D02*
D03*
Y5255D02*
D03*
X10407D02*
D03*
X9896D02*
D03*
X9641D02*
D03*
D63*
X13575Y15826D02*
D03*
X11175Y8177D02*
D03*
X12079Y11118D02*
D03*
X11175Y13229D02*
D03*
D64*
X13575Y16337D02*
D03*
X11175Y8687D02*
D03*
X12079Y10608D02*
D03*
X11175Y13739D02*
D03*
D65*
X13065Y16464D02*
D03*
Y16209D02*
D03*
Y15698D02*
D03*
Y15954D02*
D03*
X13790D02*
D03*
Y15698D02*
D03*
Y16209D02*
D03*
Y16464D02*
D03*
X10665Y8814D02*
D03*
Y8559D02*
D03*
Y8048D02*
D03*
Y8304D02*
D03*
X11390D02*
D03*
Y8048D02*
D03*
Y8559D02*
D03*
Y8814D02*
D03*
X12589Y10481D02*
D03*
Y10736D02*
D03*
Y11247D02*
D03*
Y10991D02*
D03*
X11864D02*
D03*
Y11247D02*
D03*
Y10736D02*
D03*
Y10481D02*
D03*
X10665Y13867D02*
D03*
Y13612D02*
D03*
Y13101D02*
D03*
Y13357D02*
D03*
X11390D02*
D03*
Y13101D02*
D03*
Y13612D02*
D03*
Y13867D02*
D03*
D66*
X17598Y14511D02*
D03*
Y13979D02*
D03*
X23307Y12958D02*
D03*
Y13489D02*
D03*
X16850Y13509D02*
D03*
Y14041D02*
D03*
X7671Y17282D02*
D03*
Y17814D02*
D03*
X7041D02*
D03*
Y17282D02*
D03*
X11138Y4921D02*
D03*
Y4389D02*
D03*
Y3044D02*
D03*
Y3575D02*
D03*
D67*
X20246Y15389D02*
D03*
X20778D02*
D03*
X8858Y15653D02*
D03*
X9390D02*
D03*
X13567Y17843D02*
D03*
X13035D02*
D03*
X10926Y17478D02*
D03*
X11458D02*
D03*
X7131Y15637D02*
D03*
X7663D02*
D03*
X8858Y16545D02*
D03*
X9390D02*
D03*
X13625Y11736D02*
D03*
X14156D02*
D03*
X13625Y12326D02*
D03*
X14156D02*
D03*
X13625Y11145D02*
D03*
X14156D02*
D03*
X13625Y9570D02*
D03*
X14156D02*
D03*
X13625Y10161D02*
D03*
X14156D02*
D03*
X13625Y8980D02*
D03*
X14156D02*
D03*
X9432Y7014D02*
D03*
X8900D02*
D03*
X9432Y7604D02*
D03*
X8900D02*
D03*
X9432Y9140D02*
D03*
X8900D02*
D03*
X9432Y8195D02*
D03*
X8900D02*
D03*
X9432Y9730D02*
D03*
X8900D02*
D03*
X9432Y10321D02*
D03*
X8900D02*
D03*
X9432Y11187D02*
D03*
X8900D02*
D03*
X9432Y11778D02*
D03*
X8900D02*
D03*
X9432Y12368D02*
D03*
X8900D02*
D03*
X9432Y13904D02*
D03*
X8900D02*
D03*
X9432Y13313D02*
D03*
X8900D02*
D03*
X9432Y14494D02*
D03*
X8900D02*
D03*
X10025Y3899D02*
D03*
X9493D02*
D03*
X9207Y2915D02*
D03*
X8675D02*
D03*
X11174Y6083D02*
D03*
X10643D02*
D03*
X12431Y6083D02*
D03*
X11900D02*
D03*
D68*
X26491Y10055D02*
D03*
X24741D02*
D03*
X26491Y11055D02*
D03*
X24741D02*
D03*
X26491Y12055D02*
D03*
X24741D02*
D03*
D69*
X20212Y2970D02*
D03*
X23342D02*
D03*
Y4742D02*
D03*
X20212D02*
D03*
X20200Y6734D02*
D03*
X23330D02*
D03*
Y8506D02*
D03*
X20200D02*
D03*
X15133Y2964D02*
D03*
X18263D02*
D03*
Y4736D02*
D03*
X15133D02*
D03*
D70*
X2147Y17853D02*
D03*
X4116D02*
D03*
X3131D02*
D03*
Y20019D02*
D03*
X4116D02*
D03*
X2147D02*
D03*
D71*
X18676Y14501D02*
D03*
Y14001D02*
D03*
Y13501D02*
D03*
Y13001D02*
D03*
Y12501D02*
D03*
Y12001D02*
D03*
Y11501D02*
D03*
Y11001D02*
D03*
X22259Y14501D02*
D03*
Y14001D02*
D03*
Y13501D02*
D03*
Y13001D02*
D03*
Y12501D02*
D03*
Y12001D02*
D03*
Y11501D02*
D03*
Y11001D02*
D03*
D72*
X12037Y15769D02*
D03*
Y15965D02*
D03*
Y16162D02*
D03*
Y16359D02*
D03*
Y16556D02*
D03*
X10422Y15769D02*
D03*
Y15965D02*
D03*
Y16162D02*
D03*
Y16359D02*
D03*
Y16556D02*
D03*
D73*
X8870Y17640D02*
D03*
X9540D02*
D03*
D74*
X11476Y18207D02*
D03*
D75*
X10728D02*
D03*
D76*
X7788Y9864D02*
D03*
Y9471D02*
D03*
X7198Y9864D02*
D03*
Y9471D02*
D03*
X7788Y11995D02*
D03*
Y11602D02*
D03*
X7198Y11995D02*
D03*
Y11602D02*
D03*
X7788Y7739D02*
D03*
Y7346D02*
D03*
X7198Y7739D02*
D03*
Y7346D02*
D03*
X7788Y14121D02*
D03*
Y13728D02*
D03*
X7198Y14121D02*
D03*
Y13728D02*
D03*
X15190Y11442D02*
D03*
Y11835D02*
D03*
X15780Y11442D02*
D03*
Y11835D02*
D03*
X15190Y9231D02*
D03*
Y9624D02*
D03*
X15780Y9231D02*
D03*
Y9624D02*
D03*
D77*
X8733Y5081D02*
D03*
D78*
Y4333D02*
D03*
M02*
