G04 Layer_Color=16711935*
%FSLAX24Y24*%
%MOIN*%
G70*
G01*
G75*
%ADD43C,0.0315*%
%ADD87R,0.0354X0.0335*%
%ADD88R,0.0335X0.0354*%
%ADD89R,0.1539X0.0539*%
%ADD94R,0.0551X0.0630*%
%ADD95R,0.0827X0.0472*%
%ADD96R,0.0354X0.0354*%
%ADD99R,0.0354X0.0354*%
%ADD100R,0.0472X0.0827*%
%ADD101C,0.0551*%
%ADD102C,0.0827*%
%ADD103R,0.0827X0.0827*%
G04:AMPARAMS|DCode=104|XSize=70.9mil|YSize=141.7mil|CornerRadius=18.7mil|HoleSize=0mil|Usage=FLASHONLY|Rotation=0.000|XOffset=0mil|YOffset=0mil|HoleType=Round|Shape=RoundedRectangle|*
%AMROUNDEDRECTD104*
21,1,0.0709,0.1043,0,0,0.0*
21,1,0.0335,0.1417,0,0,0.0*
1,1,0.0374,0.0167,-0.0522*
1,1,0.0374,-0.0167,-0.0522*
1,1,0.0374,-0.0167,0.0522*
1,1,0.0374,0.0167,0.0522*
%
%ADD104ROUNDEDRECTD104*%
G04:AMPARAMS|DCode=105|XSize=70.9mil|YSize=141.7mil|CornerRadius=18.7mil|HoleSize=0mil|Usage=FLASHONLY|Rotation=270.000|XOffset=0mil|YOffset=0mil|HoleType=Round|Shape=RoundedRectangle|*
%AMROUNDEDRECTD105*
21,1,0.0709,0.1043,0,0,270.0*
21,1,0.0335,0.1417,0,0,270.0*
1,1,0.0374,-0.0522,-0.0167*
1,1,0.0374,-0.0522,0.0167*
1,1,0.0374,0.0522,0.0167*
1,1,0.0374,0.0522,-0.0167*
%
%ADD105ROUNDEDRECTD105*%
%ADD106C,0.0354*%
%ADD107R,0.0439X0.0339*%
%ADD108R,0.0339X0.0439*%
%ADD109R,0.0630X0.0551*%
D43*
X10097Y9408D02*
D03*
X23804Y12958D02*
D03*
X26485Y12560D02*
D03*
X26491Y11562D02*
D03*
X23567Y10055D02*
D03*
Y11055D02*
D03*
X23572Y12055D02*
D03*
X7056Y8394D02*
D03*
X10138Y7867D02*
D03*
X13065Y15328D02*
D03*
X10422Y15450D02*
D03*
X11435Y15288D02*
D03*
X10728Y18697D02*
D03*
X9246Y19059D02*
D03*
X16626Y6894D02*
D03*
X23317Y5474D02*
D03*
X21452Y10057D02*
D03*
X14031Y17721D02*
D03*
X12571Y15328D02*
D03*
X13194Y10835D02*
D03*
X13194Y11736D02*
D03*
X10746Y2616D02*
D03*
X17194Y12044D02*
D03*
X20124Y14001D02*
D03*
X8354Y15937D02*
D03*
X13666Y14112D02*
D03*
X8435Y18491D02*
D03*
X11111Y15896D02*
D03*
X11585Y3558D02*
D03*
X10665Y7664D02*
D03*
X11192Y6529D02*
D03*
X8678Y2433D02*
D03*
X21817Y3893D02*
D03*
X19667Y14501D02*
D03*
X17275Y6934D02*
D03*
X15115Y7046D02*
D03*
X11864Y9733D02*
D03*
X15190Y8836D02*
D03*
Y11047D02*
D03*
X26491Y10492D02*
D03*
X17732Y12501D02*
D03*
X17228Y14511D02*
D03*
X22871Y14001D02*
D03*
Y14501D02*
D03*
X12431Y6430D02*
D03*
X10613Y4096D02*
D03*
X8272Y3609D02*
D03*
X10665Y9205D02*
D03*
X9651Y3244D02*
D03*
X9750Y7604D02*
D03*
Y8195D02*
D03*
Y10321D02*
D03*
Y11187D02*
D03*
Y12368D02*
D03*
Y13313D02*
D03*
X9750Y14494D02*
D03*
X8101Y7739D02*
D03*
Y9864D02*
D03*
Y11995D02*
D03*
Y14121D02*
D03*
X6691Y15637D02*
D03*
D87*
X19238Y4203D02*
D03*
Y3671D02*
D03*
X18248Y8818D02*
D03*
Y9349D02*
D03*
Y10399D02*
D03*
Y10931D02*
D03*
D88*
X23056Y2839D02*
D03*
X22524D02*
D03*
D89*
X24736Y10055D02*
D03*
Y11055D02*
D03*
Y12055D02*
D03*
X26486Y10055D02*
D03*
Y11055D02*
D03*
Y12055D02*
D03*
D94*
X15115Y6367D02*
D03*
X15785D02*
D03*
D95*
X19084Y6883D02*
D03*
D96*
X18336D02*
D03*
D99*
X15126Y4154D02*
D03*
D100*
Y3406D02*
D03*
D101*
X24777Y5946D02*
D03*
Y6733D02*
D03*
Y5158D02*
D03*
Y4371D02*
D03*
X2799Y10841D02*
D03*
Y10054D02*
D03*
X2809Y7372D02*
D03*
Y6585D02*
D03*
X2768Y15831D02*
D03*
Y15043D02*
D03*
Y13469D02*
D03*
Y14256D02*
D03*
D102*
X11468Y20055D02*
D03*
X12468D02*
D03*
X13483D02*
D03*
X14468D02*
D03*
X15436D02*
D03*
X10468D02*
D03*
X9468D02*
D03*
X8468D02*
D03*
X7468D02*
D03*
X18068Y20055D02*
D03*
X19068D02*
D03*
X24036D02*
D03*
X23068D02*
D03*
X22083D02*
D03*
X21068D02*
D03*
X20068D02*
D03*
X11068Y1055D02*
D03*
X12068D02*
D03*
X17036D02*
D03*
X16068D02*
D03*
X15083D02*
D03*
X14068D02*
D03*
X13068D02*
D03*
X20068D02*
D03*
X21068D02*
D03*
X22083D02*
D03*
X23068D02*
D03*
X24036D02*
D03*
D103*
X16436Y20055D02*
D03*
X25036Y20055D02*
D03*
X18036Y1055D02*
D03*
X25036D02*
D03*
D104*
X1857Y2972D02*
D03*
X4219D02*
D03*
D105*
X3038Y1083D02*
D03*
D106*
X12855Y10161D02*
D03*
Y9570D02*
D03*
X22465Y8516D02*
D03*
X5393Y6326D02*
D03*
D107*
X16420Y7943D02*
D03*
X15594Y8317D02*
D03*
Y7569D02*
D03*
X19867Y10049D02*
D03*
X19040Y10423D02*
D03*
Y9675D02*
D03*
D108*
X18868Y5959D02*
D03*
X18494Y5132D02*
D03*
X19242D02*
D03*
D109*
X14639Y7573D02*
D03*
Y8242D02*
D03*
X16139Y3234D02*
D03*
Y3903D02*
D03*
M02*
