G04 Layer_Color=8388736*
%FSLAX24Y24*%
%MOIN*%
G70*
G01*
G75*
%ADD43C,0.0315*%
%ADD79R,0.0197X0.0118*%
%ADD80R,0.0236X0.0236*%
%ADD81R,0.0411X0.0433*%
%ADD82R,0.0412X0.0433*%
%ADD83R,0.0157X0.0315*%
%ADD84R,0.0433X0.0411*%
%ADD85R,0.0433X0.0412*%
%ADD86R,0.0315X0.0157*%
%ADD87R,0.0354X0.0335*%
%ADD88R,0.0335X0.0354*%
%ADD89R,0.1539X0.0539*%
%ADD90R,0.0650X0.0551*%
%ADD91R,0.0512X0.1024*%
%ADD92O,0.0945X0.0276*%
%ADD93O,0.0709X0.0157*%
%ADD94R,0.0551X0.0630*%
%ADD95R,0.0827X0.0472*%
%ADD96R,0.0354X0.0354*%
%ADD97R,0.0394X0.0315*%
%ADD98C,0.0433*%
%ADD99R,0.0354X0.0354*%
%ADD100R,0.0472X0.0827*%
%ADD101C,0.0551*%
%ADD102C,0.0827*%
%ADD103R,0.0827X0.0827*%
G04:AMPARAMS|DCode=104|XSize=70.9mil|YSize=141.7mil|CornerRadius=18.7mil|HoleSize=0mil|Usage=FLASHONLY|Rotation=0.000|XOffset=0mil|YOffset=0mil|HoleType=Round|Shape=RoundedRectangle|*
%AMROUNDEDRECTD104*
21,1,0.0709,0.1043,0,0,0.0*
21,1,0.0335,0.1417,0,0,0.0*
1,1,0.0374,0.0167,-0.0522*
1,1,0.0374,-0.0167,-0.0522*
1,1,0.0374,-0.0167,0.0522*
1,1,0.0374,0.0167,0.0522*
%
%ADD104ROUNDEDRECTD104*%
G04:AMPARAMS|DCode=105|XSize=70.9mil|YSize=141.7mil|CornerRadius=18.7mil|HoleSize=0mil|Usage=FLASHONLY|Rotation=270.000|XOffset=0mil|YOffset=0mil|HoleType=Round|Shape=RoundedRectangle|*
%AMROUNDEDRECTD105*
21,1,0.0709,0.1043,0,0,270.0*
21,1,0.0335,0.1417,0,0,270.0*
1,1,0.0374,-0.0522,-0.0167*
1,1,0.0374,-0.0522,0.0167*
1,1,0.0374,0.0522,0.0167*
1,1,0.0374,0.0522,-0.0167*
%
%ADD105ROUNDEDRECTD105*%
%ADD106C,0.0354*%
D43*
X10097Y9408D02*
D03*
X23804Y12958D02*
D03*
X26485Y12560D02*
D03*
X26491Y11562D02*
D03*
X23567Y10055D02*
D03*
Y11055D02*
D03*
X23572Y12055D02*
D03*
X7056Y8394D02*
D03*
X10138Y7867D02*
D03*
X13065Y15328D02*
D03*
X10422Y15450D02*
D03*
X11435Y15288D02*
D03*
X10728Y18697D02*
D03*
X9246Y19059D02*
D03*
X16626Y6894D02*
D03*
X23317Y5474D02*
D03*
X21452Y10057D02*
D03*
X14031Y17721D02*
D03*
X12571Y15328D02*
D03*
X13194Y10835D02*
D03*
X13194Y11736D02*
D03*
X10746Y2616D02*
D03*
X17194Y12044D02*
D03*
X20124Y14001D02*
D03*
X8354Y15937D02*
D03*
X13666Y14112D02*
D03*
X8435Y18491D02*
D03*
X11111Y15896D02*
D03*
X11585Y3558D02*
D03*
X10665Y7664D02*
D03*
X11192Y6529D02*
D03*
X8678Y2433D02*
D03*
X21817Y3893D02*
D03*
X19667Y14501D02*
D03*
X17275Y6934D02*
D03*
X15115Y7046D02*
D03*
X11864Y9733D02*
D03*
X15190Y8836D02*
D03*
Y11047D02*
D03*
X26491Y10492D02*
D03*
X17732Y12501D02*
D03*
X17228Y14511D02*
D03*
X22871Y14001D02*
D03*
Y14501D02*
D03*
X12431Y6430D02*
D03*
X10613Y4096D02*
D03*
X8272Y3609D02*
D03*
X10665Y9205D02*
D03*
X9651Y3244D02*
D03*
X9750Y7604D02*
D03*
Y8195D02*
D03*
Y10321D02*
D03*
Y11187D02*
D03*
Y12368D02*
D03*
Y13313D02*
D03*
X9750Y14494D02*
D03*
X8101Y7739D02*
D03*
Y9864D02*
D03*
Y11995D02*
D03*
Y14121D02*
D03*
X6691Y15637D02*
D03*
D79*
X10457Y2616D02*
D03*
Y2776D02*
D03*
X10027Y3093D02*
D03*
X10027Y2933D02*
D03*
D80*
X10150Y2694D02*
D03*
X10313Y3021D02*
D03*
D81*
X10278Y5040D02*
D03*
D82*
X9768Y5040D02*
D03*
D83*
X9641Y4530D02*
D03*
X9896D02*
D03*
X10407D02*
D03*
X10151D02*
D03*
Y5255D02*
D03*
X10407D02*
D03*
X9896D02*
D03*
X9641D02*
D03*
D84*
X13575Y15826D02*
D03*
X11175Y8177D02*
D03*
X12079Y11118D02*
D03*
X11175Y13229D02*
D03*
D85*
X13575Y16337D02*
D03*
X11175Y8687D02*
D03*
X12079Y10608D02*
D03*
X11175Y13739D02*
D03*
D86*
X13065Y16464D02*
D03*
Y16209D02*
D03*
Y15698D02*
D03*
Y15954D02*
D03*
X13790D02*
D03*
Y15698D02*
D03*
Y16209D02*
D03*
Y16464D02*
D03*
X10665Y8814D02*
D03*
Y8559D02*
D03*
Y8048D02*
D03*
Y8304D02*
D03*
X11390D02*
D03*
Y8048D02*
D03*
Y8559D02*
D03*
Y8814D02*
D03*
X12589Y10481D02*
D03*
Y10736D02*
D03*
Y11247D02*
D03*
Y10991D02*
D03*
X11864D02*
D03*
Y11247D02*
D03*
Y10736D02*
D03*
Y10481D02*
D03*
X10665Y13867D02*
D03*
Y13612D02*
D03*
Y13101D02*
D03*
Y13357D02*
D03*
X11390D02*
D03*
Y13101D02*
D03*
Y13612D02*
D03*
Y13867D02*
D03*
D87*
X17598Y14511D02*
D03*
Y13979D02*
D03*
X23307Y12958D02*
D03*
Y13489D02*
D03*
X16850Y13509D02*
D03*
Y14041D02*
D03*
X7671Y17282D02*
D03*
Y17814D02*
D03*
X7041D02*
D03*
Y17282D02*
D03*
X11138Y4921D02*
D03*
Y4389D02*
D03*
Y3044D02*
D03*
Y3575D02*
D03*
D88*
X20246Y15389D02*
D03*
X20778D02*
D03*
X8858Y15653D02*
D03*
X9390D02*
D03*
X13567Y17843D02*
D03*
X13035D02*
D03*
X10926Y17478D02*
D03*
X11458D02*
D03*
X7131Y15637D02*
D03*
X7663D02*
D03*
X8858Y16545D02*
D03*
X9390D02*
D03*
X13625Y11736D02*
D03*
X14156D02*
D03*
X13625Y12326D02*
D03*
X14156D02*
D03*
X13625Y11145D02*
D03*
X14156D02*
D03*
X13625Y9570D02*
D03*
X14156D02*
D03*
X13625Y10161D02*
D03*
X14156D02*
D03*
X13625Y8980D02*
D03*
X14156D02*
D03*
X9432Y7014D02*
D03*
X8900D02*
D03*
X9432Y7604D02*
D03*
X8900D02*
D03*
X9432Y9140D02*
D03*
X8900D02*
D03*
X9432Y8195D02*
D03*
X8900D02*
D03*
X9432Y9730D02*
D03*
X8900D02*
D03*
X9432Y10321D02*
D03*
X8900D02*
D03*
X9432Y11187D02*
D03*
X8900D02*
D03*
X9432Y11778D02*
D03*
X8900D02*
D03*
X9432Y12368D02*
D03*
X8900D02*
D03*
X9432Y13904D02*
D03*
X8900D02*
D03*
X9432Y13313D02*
D03*
X8900D02*
D03*
X9432Y14494D02*
D03*
X8900D02*
D03*
X10025Y3899D02*
D03*
X9493D02*
D03*
X9207Y2915D02*
D03*
X8675D02*
D03*
X11174Y6083D02*
D03*
X10643D02*
D03*
X12431Y6083D02*
D03*
X11900D02*
D03*
D89*
X26491Y10055D02*
D03*
X24741D02*
D03*
X26491Y11055D02*
D03*
X24741D02*
D03*
X26491Y12055D02*
D03*
X24741D02*
D03*
D90*
X20212Y2970D02*
D03*
X23342D02*
D03*
Y4742D02*
D03*
X20212D02*
D03*
X20200Y6734D02*
D03*
X23330D02*
D03*
Y8506D02*
D03*
X20200D02*
D03*
X15133Y2964D02*
D03*
X18263D02*
D03*
Y4736D02*
D03*
X15133D02*
D03*
D91*
X2147Y17853D02*
D03*
X4116D02*
D03*
X3131D02*
D03*
Y20019D02*
D03*
X4116D02*
D03*
X2147D02*
D03*
D92*
X18676Y14501D02*
D03*
Y14001D02*
D03*
Y13501D02*
D03*
Y13001D02*
D03*
Y12501D02*
D03*
Y12001D02*
D03*
Y11501D02*
D03*
Y11001D02*
D03*
X22259Y14501D02*
D03*
Y14001D02*
D03*
Y13501D02*
D03*
Y13001D02*
D03*
Y12501D02*
D03*
Y12001D02*
D03*
Y11501D02*
D03*
Y11001D02*
D03*
D93*
X12037Y15769D02*
D03*
Y15965D02*
D03*
Y16162D02*
D03*
Y16359D02*
D03*
Y16556D02*
D03*
X10422Y15769D02*
D03*
Y15965D02*
D03*
Y16162D02*
D03*
Y16359D02*
D03*
Y16556D02*
D03*
D94*
X8870Y17640D02*
D03*
X9540D02*
D03*
D95*
X11476Y18207D02*
D03*
D96*
X10728D02*
D03*
D97*
X7788Y9864D02*
D03*
Y9471D02*
D03*
X7198Y9864D02*
D03*
Y9471D02*
D03*
X7788Y11995D02*
D03*
Y11602D02*
D03*
X7198Y11995D02*
D03*
Y11602D02*
D03*
X7788Y7739D02*
D03*
Y7346D02*
D03*
X7198Y7739D02*
D03*
Y7346D02*
D03*
X7788Y14121D02*
D03*
Y13728D02*
D03*
X7198Y14121D02*
D03*
Y13728D02*
D03*
X15190Y11442D02*
D03*
Y11835D02*
D03*
X15780Y11442D02*
D03*
Y11835D02*
D03*
X15190Y9231D02*
D03*
Y9624D02*
D03*
X15780Y9231D02*
D03*
Y9624D02*
D03*
D98*
X11101Y7124D02*
D03*
X11019Y11767D02*
D03*
Y10083D02*
D03*
X7552Y5323D02*
D03*
Y2909D02*
D03*
Y4136D02*
D03*
X12095Y3558D02*
D03*
X12085Y4374D02*
D03*
Y5202D02*
D03*
Y2758D02*
D03*
D99*
X8733Y5081D02*
D03*
D100*
Y4333D02*
D03*
D101*
X24777Y5946D02*
D03*
Y6733D02*
D03*
Y5158D02*
D03*
Y4371D02*
D03*
X2799Y10841D02*
D03*
Y10054D02*
D03*
X2809Y7372D02*
D03*
Y6585D02*
D03*
X2768Y15831D02*
D03*
Y15043D02*
D03*
Y13469D02*
D03*
Y14256D02*
D03*
D102*
X11468Y20055D02*
D03*
X12468D02*
D03*
X13483D02*
D03*
X14468D02*
D03*
X15436D02*
D03*
X10468D02*
D03*
X9468D02*
D03*
X8468D02*
D03*
X7468D02*
D03*
X18068Y20055D02*
D03*
X19068D02*
D03*
X24036D02*
D03*
X23068D02*
D03*
X22083D02*
D03*
X21068D02*
D03*
X20068D02*
D03*
X11068Y1055D02*
D03*
X12068D02*
D03*
X17036D02*
D03*
X16068D02*
D03*
X15083D02*
D03*
X14068D02*
D03*
X13068D02*
D03*
X20068D02*
D03*
X21068D02*
D03*
X22083D02*
D03*
X23068D02*
D03*
X24036D02*
D03*
D103*
X16436Y20055D02*
D03*
X25036Y20055D02*
D03*
X18036Y1055D02*
D03*
X25036D02*
D03*
D104*
X1857Y2972D02*
D03*
X4219D02*
D03*
D105*
X3038Y1083D02*
D03*
D106*
X12855Y10161D02*
D03*
Y9570D02*
D03*
X22465Y8516D02*
D03*
X5393Y6326D02*
D03*
M02*
