G04 Layer_Color=128*
%FSLAX24Y24*%
%MOIN*%
G70*
G01*
G75*
%ADD117C,0.0020*%
D117*
X2611Y14256D02*
X2926D01*
X2768Y14098D02*
Y14413D01*
X2611Y13469D02*
X2926D01*
X2768Y13311D02*
Y13626D01*
X2611Y15043D02*
X2926D01*
X2768Y14886D02*
Y15201D01*
X2611Y15831D02*
X2926D01*
X2768Y15673D02*
Y15988D01*
X2651Y6585D02*
X2966D01*
X2809Y6427D02*
Y6742D01*
X2651Y7372D02*
X2966D01*
X2809Y7215D02*
Y7529D01*
X2642Y10054D02*
X2957D01*
X2799Y9897D02*
Y10212D01*
X2642Y10841D02*
X2957D01*
X2799Y10684D02*
Y10999D01*
X24839Y1055D02*
X25233D01*
X25036Y858D02*
Y1252D01*
X23839Y1055D02*
X24233D01*
X24036Y858D02*
Y1252D01*
X22871Y1055D02*
X23265D01*
X23068Y858D02*
Y1252D01*
X21887Y1055D02*
X22280D01*
X22083Y858D02*
Y1252D01*
X20871Y1055D02*
X21265D01*
X21068Y858D02*
Y1252D01*
X19871Y1055D02*
X20265D01*
X20068Y858D02*
Y1252D01*
X12871Y1055D02*
X13265D01*
X13068Y858D02*
Y1252D01*
X13871Y1055D02*
X14265D01*
X14068Y858D02*
Y1252D01*
X14887Y1055D02*
X15280D01*
X15083Y858D02*
Y1252D01*
X15871Y1055D02*
X16265D01*
X16068Y858D02*
Y1252D01*
X16839Y1055D02*
X17233D01*
X17036Y858D02*
Y1252D01*
X17839Y1055D02*
X18233D01*
X18036Y858D02*
Y1252D01*
X11871Y1055D02*
X12265D01*
X12068Y858D02*
Y1252D01*
X10871Y1055D02*
X11265D01*
X11068Y858D02*
Y1252D01*
X19871Y20055D02*
X20265D01*
X20068Y19858D02*
Y20252D01*
X20871Y20055D02*
X21265D01*
X21068Y19858D02*
Y20252D01*
X21887Y20055D02*
X22280D01*
X22083Y19858D02*
Y20252D01*
X22871Y20055D02*
X23265D01*
X23068Y19858D02*
Y20252D01*
X23839Y20055D02*
X24233D01*
X24036Y19858D02*
Y20252D01*
X24839Y20055D02*
X25233D01*
X25036Y19858D02*
Y20252D01*
X18871Y20055D02*
X19265D01*
X19068Y19858D02*
Y20252D01*
X17871Y20055D02*
X18265D01*
X18068Y19858D02*
Y20252D01*
X4023Y2972D02*
X4416D01*
X4219Y2776D02*
Y3169D01*
X2842Y1083D02*
X3235D01*
X3038Y886D02*
Y1280D01*
X1660Y2972D02*
X2054D01*
X1857Y2776D02*
Y3169D01*
X7271Y20055D02*
X7665D01*
X7468Y19858D02*
Y20252D01*
X8271Y20055D02*
X8665D01*
X8468Y19858D02*
Y20252D01*
X9271Y20055D02*
X9665D01*
X9468Y19858D02*
Y20252D01*
X10271Y20055D02*
X10665D01*
X10468Y19858D02*
Y20252D01*
X16239Y20055D02*
X16633D01*
X16436Y19858D02*
Y20252D01*
X15239Y20055D02*
X15633D01*
X15436Y19858D02*
Y20252D01*
X14271Y20055D02*
X14665D01*
X14468Y19858D02*
Y20252D01*
X13287Y20055D02*
X13680D01*
X13483Y19858D02*
Y20252D01*
X12271Y20055D02*
X12665D01*
X12468Y19858D02*
Y20252D01*
X11271Y20055D02*
X11665D01*
X11468Y19858D02*
Y20252D01*
X24620Y4371D02*
X24934D01*
X24777Y4213D02*
Y4528D01*
X24620Y5158D02*
X24934D01*
X24777Y5001D02*
Y5316D01*
X24620Y6733D02*
X24934D01*
X24777Y6576D02*
Y6890D01*
X24620Y5946D02*
X24934D01*
X24777Y5788D02*
Y6103D01*
X21454Y11340D02*
X21611D01*
X21533Y11261D02*
Y11419D01*
X21454Y10868D02*
X21611D01*
X21533Y10789D02*
Y10946D01*
X23501Y11517D02*
X23619D01*
X23560Y11457D02*
Y11576D01*
X20744Y11679D02*
X20862D01*
X20803Y11620D02*
Y11738D01*
X18189Y11719D02*
X18307D01*
X18248Y11660D02*
Y11778D01*
X19000Y12976D02*
X19118D01*
X19059Y12917D02*
Y13035D01*
X16567Y6894D02*
X16685D01*
X16626Y6835D02*
Y6953D01*
X6632Y15637D02*
X6750D01*
X6691Y15578D02*
Y15696D01*
X8042Y14121D02*
X8160D01*
X8101Y14062D02*
Y14180D01*
X8042Y11995D02*
X8160D01*
X8101Y11936D02*
Y12054D01*
X8042Y9864D02*
X8160D01*
X8101Y9805D02*
Y9923D01*
X8042Y7739D02*
X8160D01*
X8101Y7680D02*
Y7799D01*
X9691Y14494D02*
X9809D01*
X9750Y14435D02*
Y14553D01*
X9691Y13313D02*
X9809D01*
X9750Y13254D02*
Y13372D01*
X9691Y12368D02*
X9809D01*
X9750Y12309D02*
Y12427D01*
X9691Y11187D02*
X9809D01*
X9750Y11128D02*
Y11246D01*
X9691Y10321D02*
X9809D01*
X9750Y10262D02*
Y10380D01*
X9691Y8195D02*
X9809D01*
X9750Y8136D02*
Y8254D01*
X9691Y7604D02*
X9809D01*
X9750Y7545D02*
Y7663D01*
X9592Y3244D02*
X9710D01*
X9651Y3185D02*
Y3303D01*
X10606Y9205D02*
X10724D01*
X10665Y9146D02*
Y9264D01*
X8213Y3609D02*
X8332D01*
X8272Y3550D02*
Y3668D01*
X10554Y4096D02*
X10672D01*
X10613Y4037D02*
Y4155D01*
X12372Y6430D02*
X12490D01*
X12431Y6370D02*
Y6489D01*
X26432Y10492D02*
X26550D01*
X26491Y10433D02*
Y10551D01*
X15131Y11047D02*
X15249D01*
X15190Y10988D02*
Y11106D01*
X15131Y8836D02*
X15249D01*
X15190Y8777D02*
Y8895D01*
X11805Y9733D02*
X11923D01*
X11864Y9674D02*
Y9792D01*
X21757Y3893D02*
X21876D01*
X21817Y3834D02*
Y3952D01*
X5315Y6326D02*
X5472D01*
X5393Y6247D02*
Y6405D01*
X8619Y2433D02*
X8737D01*
X8678Y2374D02*
Y2492D01*
X11133Y6529D02*
X11251D01*
X11192Y6470D02*
Y6588D01*
X10606Y7664D02*
X10724D01*
X10665Y7605D02*
Y7723D01*
X11525Y3558D02*
X11644D01*
X11585Y3499D02*
Y3617D01*
X11052Y15896D02*
X11170D01*
X11111Y15837D02*
Y15955D01*
X8376Y18491D02*
X8494D01*
X8435Y18432D02*
Y18550D01*
X13607Y14112D02*
X13725D01*
X13666Y14053D02*
Y14171D01*
X8294Y15937D02*
X8413D01*
X8354Y15878D02*
Y15996D01*
X10687Y2616D02*
X10805D01*
X10746Y2557D02*
Y2676D01*
X13135Y11736D02*
X13253D01*
X13194Y11677D02*
Y11795D01*
X13135Y10835D02*
X13253D01*
X13194Y10776D02*
Y10894D01*
X12512Y15328D02*
X12630D01*
X12571Y15269D02*
Y15387D01*
X13972Y17721D02*
X14090D01*
X14031Y17662D02*
Y17780D01*
X22387Y8516D02*
X22544D01*
X22465Y8437D02*
Y8594D01*
X23258Y5474D02*
X23376D01*
X23317Y5415D02*
Y5533D01*
X9187Y19059D02*
X9305D01*
X9246Y19000D02*
Y19118D01*
X10669Y18697D02*
X10787D01*
X10728Y18638D02*
Y18756D01*
X11376Y15288D02*
X11494D01*
X11435Y15229D02*
Y15347D01*
X10363Y15450D02*
X10481D01*
X10422Y15391D02*
Y15509D01*
X13006Y15328D02*
X13124D01*
X13065Y15269D02*
Y15387D01*
X10079Y7867D02*
X10197D01*
X10138Y7808D02*
Y7926D01*
X6997Y8394D02*
X7115D01*
X7056Y8335D02*
Y8453D01*
X23512Y12055D02*
X23631D01*
X23572Y11996D02*
Y12114D01*
X23508Y11055D02*
X23626D01*
X23567Y10996D02*
Y11114D01*
X26432Y11562D02*
X26550D01*
X26491Y11503D02*
Y11621D01*
X26426Y12560D02*
X26544D01*
X26485Y12501D02*
Y12619D01*
X12776Y9570D02*
X12933D01*
X12855Y9491D02*
Y9649D01*
X12776Y10161D02*
X12933D01*
X12855Y10082D02*
Y10240D01*
X10038Y9408D02*
X10156D01*
X10097Y9349D02*
Y9467D01*
X17094Y13139D02*
X17212D01*
X17153Y13080D02*
Y13198D01*
X16729Y14112D02*
X16847D01*
X16788Y14053D02*
Y14171D01*
X20892Y13990D02*
X21010D01*
X20951Y13931D02*
Y14049D01*
X21149Y14284D02*
X21267D01*
X21208Y14225D02*
Y14343D01*
X19487Y14274D02*
X19605D01*
X19546Y14215D02*
Y14333D01*
X24556Y15126D02*
X24674D01*
X24615Y15067D02*
Y15185D01*
X25083Y15085D02*
X25201D01*
X25142Y15026D02*
Y15144D01*
X25083Y13625D02*
X25201D01*
X25142Y13566D02*
Y13684D01*
X16729Y15409D02*
X16847D01*
X16788Y15350D02*
Y15468D01*
X21393Y10057D02*
X21511D01*
X21452Y9998D02*
Y10116D01*
X23501Y10057D02*
X23619D01*
X23560Y9998D02*
Y10116D01*
X21757Y13909D02*
X21876D01*
X21817Y13850D02*
Y13968D01*
X20333Y13441D02*
X20412D01*
X20372Y13401D02*
Y13480D01*
M02*
