G04 Layer_Color=16711935*
%FSLAX24Y24*%
%MOIN*%
G70*
G01*
G75*
%ADD43C,0.0315*%
%ADD80R,0.0335X0.0354*%
%ADD81R,0.0354X0.0335*%
%ADD82R,0.0472X0.0827*%
%ADD83R,0.0354X0.0354*%
%ADD85R,0.0354X0.0354*%
%ADD86R,0.0827X0.0472*%
%ADD92R,0.1539X0.0539*%
%ADD101C,0.0551*%
%ADD102R,0.0827X0.0827*%
%ADD103C,0.0827*%
G04:AMPARAMS|DCode=104|XSize=70.9mil|YSize=141.7mil|CornerRadius=18.7mil|HoleSize=0mil|Usage=FLASHONLY|Rotation=180.000|XOffset=0mil|YOffset=0mil|HoleType=Round|Shape=RoundedRectangle|*
%AMROUNDEDRECTD104*
21,1,0.0709,0.1043,0,0,180.0*
21,1,0.0335,0.1417,0,0,180.0*
1,1,0.0374,-0.0167,0.0522*
1,1,0.0374,0.0167,0.0522*
1,1,0.0374,0.0167,-0.0522*
1,1,0.0374,-0.0167,-0.0522*
%
%ADD104ROUNDEDRECTD104*%
G04:AMPARAMS|DCode=105|XSize=70.9mil|YSize=141.7mil|CornerRadius=18.7mil|HoleSize=0mil|Usage=FLASHONLY|Rotation=270.000|XOffset=0mil|YOffset=0mil|HoleType=Round|Shape=RoundedRectangle|*
%AMROUNDEDRECTD105*
21,1,0.0709,0.1043,0,0,270.0*
21,1,0.0335,0.1417,0,0,270.0*
1,1,0.0374,-0.0522,-0.0167*
1,1,0.0374,-0.0522,0.0167*
1,1,0.0374,0.0522,0.0167*
1,1,0.0374,0.0522,-0.0167*
%
%ADD105ROUNDEDRECTD105*%
%ADD106C,0.0354*%
%ADD107R,0.0630X0.0551*%
%ADD108R,0.0439X0.0339*%
%ADD109R,0.0339X0.0439*%
D43*
X16626Y6894D02*
D03*
X6691Y15637D02*
D03*
X8101Y14121D02*
D03*
Y11995D02*
D03*
Y9864D02*
D03*
Y7739D02*
D03*
X9750Y14494D02*
D03*
X9750Y13313D02*
D03*
Y12368D02*
D03*
Y11187D02*
D03*
Y10321D02*
D03*
Y8195D02*
D03*
Y7604D02*
D03*
X9651Y3244D02*
D03*
X10665Y9205D02*
D03*
X8272Y3609D02*
D03*
X10613Y4096D02*
D03*
X12431Y6430D02*
D03*
X22871Y14501D02*
D03*
Y14001D02*
D03*
X17228Y14511D02*
D03*
X17732Y12501D02*
D03*
X26491Y10492D02*
D03*
X15190Y11047D02*
D03*
Y8836D02*
D03*
X11864Y9733D02*
D03*
X19667Y14501D02*
D03*
X21817Y3893D02*
D03*
X8678Y2433D02*
D03*
X11192Y6529D02*
D03*
X10665Y7664D02*
D03*
X11585Y3558D02*
D03*
X11111Y15896D02*
D03*
X8435Y18491D02*
D03*
X13666Y14112D02*
D03*
X8354Y15937D02*
D03*
X20124Y14001D02*
D03*
X17194Y12044D02*
D03*
X10746Y2616D02*
D03*
X13194Y11736D02*
D03*
X13194Y10835D02*
D03*
X12571Y15328D02*
D03*
X14031Y17721D02*
D03*
X21452Y10057D02*
D03*
X23317Y5474D02*
D03*
X9246Y19059D02*
D03*
X10728Y18697D02*
D03*
X11435Y15288D02*
D03*
X10422Y15450D02*
D03*
X13065Y15328D02*
D03*
X10138Y7867D02*
D03*
X7056Y8394D02*
D03*
X23572Y12055D02*
D03*
X23567Y11055D02*
D03*
Y10055D02*
D03*
X26491Y11562D02*
D03*
X26485Y12560D02*
D03*
X23804Y12958D02*
D03*
X10097Y9408D02*
D03*
D80*
X22524Y2839D02*
D03*
X23056D02*
D03*
D81*
X18248Y10931D02*
D03*
Y10399D02*
D03*
Y9349D02*
D03*
Y8818D02*
D03*
X19238Y3671D02*
D03*
Y4203D02*
D03*
D82*
X15126Y3406D02*
D03*
D83*
Y4154D02*
D03*
D85*
X18336Y6883D02*
D03*
D86*
X19084D02*
D03*
D92*
X26486Y12055D02*
D03*
Y11055D02*
D03*
Y10055D02*
D03*
X24736Y12055D02*
D03*
Y11055D02*
D03*
Y10055D02*
D03*
D101*
X2768Y14256D02*
D03*
Y13469D02*
D03*
Y15043D02*
D03*
Y15831D02*
D03*
X2809Y6585D02*
D03*
Y7372D02*
D03*
X2799Y10054D02*
D03*
Y10841D02*
D03*
X24777Y4371D02*
D03*
Y5158D02*
D03*
Y6733D02*
D03*
Y5946D02*
D03*
D102*
X25036Y1055D02*
D03*
X18036D02*
D03*
X25036Y20055D02*
D03*
X16436Y20055D02*
D03*
D103*
X24036Y1055D02*
D03*
X23068D02*
D03*
X22083D02*
D03*
X21068D02*
D03*
X20068D02*
D03*
X13068D02*
D03*
X14068D02*
D03*
X15083D02*
D03*
X16068D02*
D03*
X17036D02*
D03*
X12068D02*
D03*
X11068D02*
D03*
X20068Y20055D02*
D03*
X21068D02*
D03*
X22083D02*
D03*
X23068D02*
D03*
X24036D02*
D03*
X19068D02*
D03*
X18068D02*
D03*
X7468Y20055D02*
D03*
X8468D02*
D03*
X9468D02*
D03*
X10468D02*
D03*
X15436D02*
D03*
X14468D02*
D03*
X13483D02*
D03*
X12468D02*
D03*
X11468D02*
D03*
D104*
X4219Y2972D02*
D03*
X1857D02*
D03*
D105*
X3038Y1083D02*
D03*
D106*
X5393Y6326D02*
D03*
X22465Y8516D02*
D03*
X12855Y9570D02*
D03*
Y10161D02*
D03*
D107*
X16139Y3903D02*
D03*
Y3234D02*
D03*
D108*
X19040Y9675D02*
D03*
Y10423D02*
D03*
X19867Y10049D02*
D03*
D109*
X19242Y5132D02*
D03*
X18494D02*
D03*
X18868Y5959D02*
D03*
M02*
