G04 Layer_Physical_Order=2*
G04 Layer_Color=36540*
%FSLAX24Y24*%
%MOIN*%
G70*
G01*
G75*
%ADD37C,0.0512*%
%ADD39C,0.0787*%
G04:AMPARAMS|DCode=40|XSize=66.9mil|YSize=137.8mil|CornerRadius=16.7mil|HoleSize=0mil|Usage=FLASHONLY|Rotation=180.000|XOffset=0mil|YOffset=0mil|HoleType=Round|Shape=RoundedRectangle|*
%AMROUNDEDRECTD40*
21,1,0.0669,0.1043,0,0,180.0*
21,1,0.0335,0.1378,0,0,180.0*
1,1,0.0335,-0.0167,0.0522*
1,1,0.0335,0.0167,0.0522*
1,1,0.0335,0.0167,-0.0522*
1,1,0.0335,-0.0167,-0.0522*
%
%ADD40ROUNDEDRECTD40*%
G04:AMPARAMS|DCode=41|XSize=66.9mil|YSize=137.8mil|CornerRadius=16.7mil|HoleSize=0mil|Usage=FLASHONLY|Rotation=270.000|XOffset=0mil|YOffset=0mil|HoleType=Round|Shape=RoundedRectangle|*
%AMROUNDEDRECTD41*
21,1,0.0669,0.1043,0,0,270.0*
21,1,0.0335,0.1378,0,0,270.0*
1,1,0.0335,-0.0522,-0.0167*
1,1,0.0335,-0.0522,0.0167*
1,1,0.0335,0.0522,0.0167*
1,1,0.0335,0.0522,-0.0167*
%
%ADD41ROUNDEDRECTD41*%
%ADD42C,0.0276*%
G36*
X26271Y20347D02*
Y15604D01*
X26272Y15587D01*
X26275Y15570D01*
X26278Y15562D01*
Y15526D01*
X26525Y15279D01*
X27414Y14390D01*
Y14050D01*
Y2619D01*
X27132Y2337D01*
X26274Y1480D01*
Y1441D01*
X26271Y1427D01*
X26270Y1410D01*
Y430D01*
X26043Y203D01*
X26035Y211D01*
X397D01*
X199Y409D01*
X203Y413D01*
Y20829D01*
X214Y20845D01*
X233Y20865D01*
X248Y20880D01*
X25738D01*
X26271Y20347D01*
D02*
G37*
%LPC*%
G36*
X15436Y20528D02*
X15399Y20526D01*
X15362Y20522D01*
X15326Y20515D01*
X15290Y20505D01*
X15255Y20492D01*
X15222Y20476D01*
X15189Y20458D01*
X15158Y20438D01*
X15129Y20415D01*
X15102Y20389D01*
X15077Y20362D01*
X15054Y20333D01*
X15033Y20302D01*
X15015Y20270D01*
X14999Y20236D01*
X14987Y20201D01*
X14976Y20165D01*
X14927D01*
X14917Y20201D01*
X14905Y20236D01*
X14889Y20270D01*
X14871Y20302D01*
X14850Y20333D01*
X14827Y20362D01*
X14802Y20389D01*
X14775Y20415D01*
X14746Y20438D01*
X14715Y20458D01*
X14682Y20476D01*
X14649Y20492D01*
X14614Y20505D01*
X14578Y20515D01*
X14542Y20522D01*
X14505Y20526D01*
X14468Y20528D01*
X14431Y20526D01*
X14394Y20522D01*
X14357Y20515D01*
X14322Y20505D01*
X14287Y20492D01*
X14253Y20476D01*
X14221Y20458D01*
X14190Y20438D01*
X14161Y20415D01*
X14133Y20389D01*
X14108Y20362D01*
X14085Y20333D01*
X14065Y20302D01*
X14046Y20270D01*
X14031Y20236D01*
X14018Y20201D01*
X14008Y20165D01*
X14001Y20129D01*
X13950D01*
X13943Y20165D01*
X13933Y20201D01*
X13920Y20236D01*
X13905Y20270D01*
X13887Y20302D01*
X13866Y20333D01*
X13843Y20362D01*
X13818Y20389D01*
X13791Y20415D01*
X13761Y20438D01*
X13730Y20458D01*
X13698Y20476D01*
X13664Y20492D01*
X13630Y20505D01*
X13594Y20515D01*
X13557Y20522D01*
X13521Y20526D01*
X13483Y20528D01*
X13446Y20526D01*
X13410Y20522D01*
X13373Y20515D01*
X13337Y20505D01*
X13303Y20492D01*
X13269Y20476D01*
X13236Y20458D01*
X13206Y20438D01*
X13176Y20415D01*
X13149Y20389D01*
X13124Y20362D01*
X13101Y20333D01*
X13080Y20302D01*
X13062Y20270D01*
X13047Y20236D01*
X13034Y20201D01*
X13024Y20165D01*
X13016Y20129D01*
X13012Y20092D01*
X13011Y20055D01*
X13012Y20018D01*
X13016Y19981D01*
X13024Y19945D01*
X13034Y19909D01*
X13047Y19874D01*
X13062Y19840D01*
X13080Y19808D01*
X13101Y19777D01*
X13124Y19748D01*
X13149Y19721D01*
X13176Y19696D01*
X13206Y19673D01*
X13236Y19652D01*
X13269Y19634D01*
X13303Y19618D01*
X13337Y19605D01*
X13373Y19595D01*
X13410Y19588D01*
X13446Y19584D01*
X13483Y19582D01*
X13521Y19584D01*
X13557Y19588D01*
X13594Y19595D01*
X13630Y19605D01*
X13664Y19618D01*
X13698Y19634D01*
X13730Y19652D01*
X13761Y19673D01*
X13791Y19696D01*
X13818Y19721D01*
X13843Y19748D01*
X13866Y19777D01*
X13887Y19808D01*
X13905Y19840D01*
X13920Y19874D01*
X13933Y19909D01*
X13943Y19945D01*
X13950Y19981D01*
X14001D01*
X14008Y19945D01*
X14018Y19909D01*
X14031Y19874D01*
X14046Y19840D01*
X14065Y19808D01*
X14085Y19777D01*
X14108Y19748D01*
X14133Y19721D01*
X14161Y19696D01*
X14190Y19673D01*
X14221Y19652D01*
X14253Y19634D01*
X14287Y19618D01*
X14322Y19605D01*
X14357Y19595D01*
X14394Y19588D01*
X14431Y19584D01*
X14468Y19582D01*
X14505Y19584D01*
X14542Y19588D01*
X14578Y19595D01*
X14614Y19605D01*
X14649Y19618D01*
X14682Y19634D01*
X14715Y19652D01*
X14746Y19673D01*
X14775Y19696D01*
X14802Y19721D01*
X14827Y19748D01*
X14850Y19777D01*
X14871Y19808D01*
X14889Y19840D01*
X14905Y19874D01*
X14917Y19909D01*
X14927Y19945D01*
X14976D01*
X14987Y19909D01*
X14999Y19874D01*
X15015Y19840D01*
X15033Y19808D01*
X15054Y19777D01*
X15077Y19748D01*
X15102Y19721D01*
X15129Y19696D01*
X15158Y19673D01*
X15189Y19652D01*
X15222Y19634D01*
X15255Y19618D01*
X15290Y19605D01*
X15326Y19595D01*
X15362Y19588D01*
X15399Y19584D01*
X15436Y19582D01*
X15473Y19584D01*
X15510Y19588D01*
X15547Y19595D01*
X15582Y19605D01*
X15617Y19618D01*
X15651Y19634D01*
X15683Y19652D01*
X15714Y19673D01*
X15743Y19696D01*
X15771Y19721D01*
X15796Y19748D01*
X15819Y19777D01*
X15839Y19808D01*
X15857Y19840D01*
X15873Y19874D01*
X15886Y19909D01*
X15896Y19945D01*
X15903Y19981D01*
X15908Y20018D01*
X15909Y20055D01*
X15908Y20092D01*
X15903Y20129D01*
X15896Y20165D01*
X15886Y20201D01*
X15873Y20236D01*
X15857Y20270D01*
X15839Y20302D01*
X15819Y20333D01*
X15796Y20362D01*
X15771Y20389D01*
X15743Y20415D01*
X15714Y20438D01*
X15683Y20458D01*
X15651Y20476D01*
X15617Y20492D01*
X15582Y20505D01*
X15547Y20515D01*
X15510Y20522D01*
X15473Y20526D01*
X15436Y20528D01*
D02*
G37*
G36*
X24036Y20528D02*
X23999Y20526D01*
X23962Y20522D01*
X23926Y20515D01*
X23890Y20505D01*
X23855Y20492D01*
X23822Y20476D01*
X23789Y20458D01*
X23758Y20438D01*
X23729Y20415D01*
X23702Y20389D01*
X23677Y20362D01*
X23654Y20333D01*
X23633Y20302D01*
X23615Y20270D01*
X23599Y20236D01*
X23587Y20201D01*
X23576Y20165D01*
X23527D01*
X23517Y20201D01*
X23505Y20236D01*
X23489Y20270D01*
X23471Y20302D01*
X23450Y20333D01*
X23427Y20362D01*
X23402Y20389D01*
X23375Y20415D01*
X23346Y20438D01*
X23315Y20458D01*
X23282Y20476D01*
X23249Y20492D01*
X23214Y20505D01*
X23178Y20515D01*
X23142Y20522D01*
X23105Y20526D01*
X23068Y20528D01*
X23031Y20526D01*
X22994Y20522D01*
X22957Y20515D01*
X22922Y20505D01*
X22887Y20492D01*
X22853Y20476D01*
X22821Y20458D01*
X22790Y20438D01*
X22761Y20415D01*
X22733Y20389D01*
X22708Y20362D01*
X22685Y20333D01*
X22665Y20302D01*
X22646Y20270D01*
X22631Y20236D01*
X22618Y20201D01*
X22608Y20165D01*
X22601Y20129D01*
X22550D01*
X22543Y20165D01*
X22533Y20201D01*
X22520Y20236D01*
X22505Y20270D01*
X22487Y20302D01*
X22466Y20333D01*
X22443Y20362D01*
X22418Y20389D01*
X22390Y20415D01*
X22361Y20438D01*
X22330Y20458D01*
X22298Y20476D01*
X22264Y20492D01*
X22230Y20505D01*
X22194Y20515D01*
X22157Y20522D01*
X22121Y20526D01*
X22083Y20528D01*
X22046Y20526D01*
X22009Y20522D01*
X21973Y20515D01*
X21937Y20505D01*
X21903Y20492D01*
X21869Y20476D01*
X21836Y20458D01*
X21806Y20438D01*
X21776Y20415D01*
X21749Y20389D01*
X21724Y20362D01*
X21701Y20333D01*
X21680Y20302D01*
X21662Y20270D01*
X21647Y20236D01*
X21634Y20201D01*
X21624Y20165D01*
X21616Y20129D01*
X21612Y20092D01*
X21611Y20055D01*
X21612Y20018D01*
X21616Y19981D01*
X21624Y19945D01*
X21634Y19909D01*
X21647Y19874D01*
X21662Y19840D01*
X21680Y19808D01*
X21701Y19777D01*
X21724Y19748D01*
X21749Y19721D01*
X21776Y19695D01*
X21806Y19672D01*
X21836Y19652D01*
X21869Y19634D01*
X21903Y19618D01*
X21937Y19605D01*
X21973Y19595D01*
X22009Y19588D01*
X22046Y19584D01*
X22083Y19582D01*
X22121Y19584D01*
X22157Y19588D01*
X22194Y19595D01*
X22230Y19605D01*
X22264Y19618D01*
X22298Y19634D01*
X22330Y19652D01*
X22361Y19672D01*
X22390Y19695D01*
X22418Y19721D01*
X22443Y19748D01*
X22466Y19777D01*
X22487Y19808D01*
X22505Y19840D01*
X22520Y19874D01*
X22533Y19909D01*
X22543Y19945D01*
X22550Y19981D01*
X22601D01*
X22608Y19945D01*
X22618Y19909D01*
X22631Y19874D01*
X22646Y19840D01*
X22665Y19808D01*
X22685Y19777D01*
X22708Y19748D01*
X22733Y19721D01*
X22761Y19695D01*
X22790Y19672D01*
X22821Y19652D01*
X22853Y19634D01*
X22887Y19618D01*
X22922Y19605D01*
X22957Y19595D01*
X22994Y19588D01*
X23031Y19584D01*
X23068Y19582D01*
X23105Y19584D01*
X23142Y19588D01*
X23178Y19595D01*
X23214Y19605D01*
X23249Y19618D01*
X23282Y19634D01*
X23315Y19652D01*
X23346Y19672D01*
X23375Y19695D01*
X23402Y19721D01*
X23427Y19748D01*
X23450Y19777D01*
X23471Y19808D01*
X23489Y19840D01*
X23505Y19874D01*
X23517Y19909D01*
X23527Y19945D01*
X23576D01*
X23587Y19909D01*
X23599Y19874D01*
X23615Y19840D01*
X23633Y19808D01*
X23654Y19777D01*
X23677Y19748D01*
X23702Y19721D01*
X23729Y19695D01*
X23758Y19672D01*
X23789Y19652D01*
X23822Y19634D01*
X23855Y19618D01*
X23890Y19605D01*
X23926Y19595D01*
X23962Y19588D01*
X23999Y19584D01*
X24036Y19582D01*
X24073Y19584D01*
X24110Y19588D01*
X24147Y19595D01*
X24182Y19605D01*
X24217Y19618D01*
X24251Y19634D01*
X24283Y19652D01*
X24314Y19672D01*
X24343Y19695D01*
X24371Y19721D01*
X24396Y19748D01*
X24419Y19777D01*
X24439Y19808D01*
X24457Y19840D01*
X24473Y19874D01*
X24486Y19909D01*
X24496Y19945D01*
X24503Y19981D01*
X24508Y20018D01*
X24509Y20055D01*
X24508Y20092D01*
X24503Y20129D01*
X24496Y20165D01*
X24486Y20201D01*
X24473Y20236D01*
X24457Y20270D01*
X24439Y20302D01*
X24419Y20333D01*
X24396Y20362D01*
X24371Y20389D01*
X24343Y20415D01*
X24314Y20438D01*
X24283Y20458D01*
X24251Y20476D01*
X24217Y20492D01*
X24182Y20505D01*
X24147Y20515D01*
X24110Y20522D01*
X24073Y20526D01*
X24036Y20528D01*
D02*
G37*
G36*
X10418Y20546D02*
X10390Y20543D01*
X10352Y20536D01*
X10315Y20525D01*
X10279Y20512D01*
X10243Y20495D01*
X10210Y20476D01*
X10177Y20455D01*
X10147Y20431D01*
X10118Y20404D01*
X10092Y20376D01*
X10068Y20346D01*
X10046Y20313D01*
X10027Y20279D01*
X10011Y20244D01*
X9998Y20208D01*
X9987Y20170D01*
X9982Y20146D01*
X9931Y20146D01*
X9927Y20165D01*
X9917Y20201D01*
X9905Y20236D01*
X9889Y20270D01*
X9871Y20302D01*
X9850Y20333D01*
X9827Y20362D01*
X9802Y20389D01*
X9775Y20415D01*
X9746Y20438D01*
X9715Y20458D01*
X9682Y20476D01*
X9649Y20492D01*
X9614Y20505D01*
X9578Y20515D01*
X9542Y20522D01*
X9505Y20526D01*
X9468Y20528D01*
X9431Y20526D01*
X9394Y20522D01*
X9357Y20515D01*
X9322Y20505D01*
X9287Y20492D01*
X9253Y20476D01*
X9221Y20458D01*
X9190Y20438D01*
X9161Y20415D01*
X9133Y20389D01*
X9108Y20362D01*
X9085Y20333D01*
X9065Y20302D01*
X9046Y20270D01*
X9031Y20236D01*
X9018Y20201D01*
X9008Y20165D01*
X9001Y20129D01*
X8996Y20092D01*
X8995Y20055D01*
X8996Y20018D01*
X9001Y19981D01*
X9008Y19945D01*
X9018Y19909D01*
X9031Y19874D01*
X9046Y19840D01*
X9065Y19808D01*
X9085Y19777D01*
X9108Y19748D01*
X9133Y19721D01*
X9161Y19696D01*
X9190Y19673D01*
X9221Y19652D01*
X9253Y19634D01*
X9287Y19618D01*
X9322Y19605D01*
X9357Y19595D01*
X9394Y19588D01*
X9431Y19584D01*
X9468Y19582D01*
X9505Y19584D01*
X9542Y19588D01*
X9578Y19595D01*
X9614Y19605D01*
X9649Y19618D01*
X9682Y19634D01*
X9715Y19652D01*
X9746Y19673D01*
X9775Y19696D01*
X9802Y19721D01*
X9827Y19748D01*
X9850Y19777D01*
X9871Y19808D01*
X9889Y19840D01*
X9905Y19874D01*
X9917Y19909D01*
X9927Y19945D01*
X9931Y19964D01*
X9982Y19964D01*
X9987Y19940D01*
X9998Y19902D01*
X10011Y19866D01*
X10027Y19831D01*
X10046Y19797D01*
X10068Y19765D01*
X10092Y19734D01*
X10118Y19706D01*
X10147Y19679D01*
X10177Y19655D01*
X10210Y19634D01*
X10243Y19615D01*
X10279Y19599D01*
X10315Y19585D01*
X10352Y19575D01*
X10390Y19567D01*
X10418Y19564D01*
Y20055D01*
Y20546D01*
D02*
G37*
G36*
X16909Y20528D02*
X15964D01*
Y19583D01*
X16909D01*
Y20528D01*
D02*
G37*
G36*
X25509Y20527D02*
X24564D01*
Y19583D01*
X25509D01*
Y20527D01*
D02*
G37*
G36*
X12468Y20528D02*
X12431Y20526D01*
X12394Y20522D01*
X12357Y20515D01*
X12322Y20505D01*
X12287Y20492D01*
X12253Y20476D01*
X12221Y20458D01*
X12190Y20438D01*
X12161Y20415D01*
X12133Y20389D01*
X12108Y20362D01*
X12085Y20333D01*
X12065Y20302D01*
X12046Y20270D01*
X12031Y20236D01*
X12018Y20201D01*
X12008Y20165D01*
X12001Y20129D01*
X11996Y20092D01*
X11995Y20055D01*
X11996Y20018D01*
X12001Y19981D01*
X12008Y19945D01*
X12018Y19909D01*
X12031Y19874D01*
X12046Y19840D01*
X12065Y19808D01*
X12085Y19777D01*
X12108Y19748D01*
X12133Y19721D01*
X12161Y19696D01*
X12190Y19673D01*
X12221Y19652D01*
X12253Y19634D01*
X12287Y19618D01*
X12322Y19605D01*
X12357Y19595D01*
X12394Y19588D01*
X12431Y19584D01*
X12468Y19582D01*
X12505Y19584D01*
X12542Y19588D01*
X12578Y19595D01*
X12614Y19605D01*
X12649Y19618D01*
X12682Y19634D01*
X12715Y19652D01*
X12746Y19673D01*
X12775Y19696D01*
X12802Y19721D01*
X12827Y19748D01*
X12850Y19777D01*
X12871Y19808D01*
X12889Y19840D01*
X12905Y19874D01*
X12917Y19909D01*
X12927Y19945D01*
X12935Y19981D01*
X12939Y20018D01*
X12941Y20055D01*
X12939Y20092D01*
X12935Y20129D01*
X12927Y20165D01*
X12917Y20201D01*
X12905Y20236D01*
X12889Y20270D01*
X12871Y20302D01*
X12850Y20333D01*
X12827Y20362D01*
X12802Y20389D01*
X12775Y20415D01*
X12746Y20438D01*
X12715Y20458D01*
X12682Y20476D01*
X12649Y20492D01*
X12614Y20505D01*
X12578Y20515D01*
X12542Y20522D01*
X12505Y20526D01*
X12468Y20528D01*
D02*
G37*
G36*
X10518Y20546D02*
Y20055D01*
Y19564D01*
X10545Y19567D01*
X10583Y19575D01*
X10620Y19585D01*
X10657Y19599D01*
X10692Y19615D01*
X10726Y19634D01*
X10758Y19655D01*
X10789Y19679D01*
X10817Y19706D01*
X10843Y19734D01*
X10867Y19765D01*
X10889Y19797D01*
X10908Y19831D01*
X10924Y19866D01*
X10938Y19902D01*
X10948Y19940D01*
X10953Y19964D01*
X11004Y19964D01*
X11008Y19945D01*
X11018Y19909D01*
X11031Y19874D01*
X11046Y19840D01*
X11065Y19808D01*
X11085Y19777D01*
X11108Y19748D01*
X11133Y19721D01*
X11161Y19696D01*
X11190Y19673D01*
X11221Y19652D01*
X11253Y19634D01*
X11287Y19618D01*
X11322Y19605D01*
X11357Y19595D01*
X11394Y19588D01*
X11431Y19584D01*
X11468Y19582D01*
X11505Y19584D01*
X11542Y19588D01*
X11578Y19595D01*
X11614Y19605D01*
X11649Y19618D01*
X11682Y19634D01*
X11715Y19652D01*
X11746Y19673D01*
X11775Y19696D01*
X11802Y19721D01*
X11827Y19748D01*
X11850Y19777D01*
X11871Y19808D01*
X11889Y19840D01*
X11905Y19874D01*
X11917Y19909D01*
X11927Y19945D01*
X11935Y19981D01*
X11939Y20018D01*
X11941Y20055D01*
X11939Y20092D01*
X11935Y20129D01*
X11927Y20165D01*
X11917Y20201D01*
X11905Y20236D01*
X11889Y20270D01*
X11871Y20302D01*
X11850Y20333D01*
X11827Y20362D01*
X11802Y20389D01*
X11775Y20415D01*
X11746Y20438D01*
X11715Y20458D01*
X11682Y20476D01*
X11649Y20492D01*
X11614Y20505D01*
X11578Y20515D01*
X11542Y20522D01*
X11505Y20526D01*
X11468Y20528D01*
X11431Y20526D01*
X11394Y20522D01*
X11357Y20515D01*
X11322Y20505D01*
X11287Y20492D01*
X11253Y20476D01*
X11221Y20458D01*
X11190Y20438D01*
X11161Y20415D01*
X11133Y20389D01*
X11108Y20362D01*
X11085Y20333D01*
X11065Y20302D01*
X11046Y20270D01*
X11031Y20236D01*
X11018Y20201D01*
X11008Y20165D01*
X11004Y20146D01*
X10953Y20146D01*
X10948Y20170D01*
X10938Y20208D01*
X10924Y20244D01*
X10908Y20279D01*
X10889Y20313D01*
X10867Y20346D01*
X10843Y20376D01*
X10817Y20404D01*
X10789Y20431D01*
X10758Y20455D01*
X10726Y20476D01*
X10692Y20495D01*
X10657Y20512D01*
X10620Y20525D01*
X10583Y20536D01*
X10545Y20543D01*
X10518Y20546D01*
D02*
G37*
G36*
X8468Y20528D02*
X8431Y20526D01*
X8394Y20522D01*
X8357Y20515D01*
X8322Y20505D01*
X8287Y20492D01*
X8253Y20476D01*
X8221Y20458D01*
X8190Y20438D01*
X8161Y20415D01*
X8133Y20389D01*
X8108Y20362D01*
X8085Y20333D01*
X8065Y20302D01*
X8046Y20270D01*
X8031Y20236D01*
X8018Y20201D01*
X8008Y20165D01*
X8001Y20129D01*
X7996Y20092D01*
X7995Y20055D01*
X7996Y20018D01*
X8001Y19981D01*
X8008Y19945D01*
X8018Y19909D01*
X8031Y19874D01*
X8046Y19840D01*
X8065Y19808D01*
X8085Y19777D01*
X8108Y19748D01*
X8133Y19721D01*
X8161Y19696D01*
X8190Y19673D01*
X8221Y19652D01*
X8253Y19634D01*
X8287Y19618D01*
X8322Y19605D01*
X8357Y19595D01*
X8394Y19588D01*
X8431Y19584D01*
X8468Y19582D01*
X8505Y19584D01*
X8542Y19588D01*
X8578Y19595D01*
X8614Y19605D01*
X8649Y19618D01*
X8682Y19634D01*
X8715Y19652D01*
X8746Y19673D01*
X8775Y19696D01*
X8802Y19721D01*
X8827Y19748D01*
X8850Y19777D01*
X8871Y19808D01*
X8889Y19840D01*
X8905Y19874D01*
X8917Y19909D01*
X8927Y19945D01*
X8935Y19981D01*
X8939Y20018D01*
X8941Y20055D01*
X8939Y20092D01*
X8935Y20129D01*
X8927Y20165D01*
X8917Y20201D01*
X8905Y20236D01*
X8889Y20270D01*
X8871Y20302D01*
X8850Y20333D01*
X8827Y20362D01*
X8802Y20389D01*
X8775Y20415D01*
X8746Y20438D01*
X8715Y20458D01*
X8682Y20476D01*
X8649Y20492D01*
X8614Y20505D01*
X8578Y20515D01*
X8542Y20522D01*
X8505Y20526D01*
X8468Y20528D01*
D02*
G37*
G36*
X7468D02*
X7431Y20526D01*
X7394Y20522D01*
X7357Y20515D01*
X7322Y20505D01*
X7287Y20492D01*
X7253Y20476D01*
X7221Y20458D01*
X7190Y20438D01*
X7161Y20415D01*
X7133Y20389D01*
X7108Y20362D01*
X7085Y20333D01*
X7065Y20302D01*
X7046Y20270D01*
X7031Y20236D01*
X7018Y20201D01*
X7008Y20165D01*
X7001Y20129D01*
X6996Y20092D01*
X6995Y20055D01*
X6996Y20018D01*
X7001Y19981D01*
X7008Y19945D01*
X7018Y19909D01*
X7031Y19874D01*
X7046Y19840D01*
X7065Y19808D01*
X7085Y19777D01*
X7108Y19748D01*
X7133Y19721D01*
X7161Y19696D01*
X7190Y19673D01*
X7221Y19652D01*
X7253Y19634D01*
X7287Y19618D01*
X7322Y19605D01*
X7357Y19595D01*
X7394Y19588D01*
X7431Y19584D01*
X7468Y19582D01*
X7505Y19584D01*
X7542Y19588D01*
X7578Y19595D01*
X7614Y19605D01*
X7649Y19618D01*
X7682Y19634D01*
X7715Y19652D01*
X7746Y19673D01*
X7775Y19696D01*
X7802Y19721D01*
X7827Y19748D01*
X7850Y19777D01*
X7871Y19808D01*
X7889Y19840D01*
X7905Y19874D01*
X7917Y19909D01*
X7927Y19945D01*
X7935Y19981D01*
X7939Y20018D01*
X7941Y20055D01*
X7939Y20092D01*
X7935Y20129D01*
X7927Y20165D01*
X7917Y20201D01*
X7905Y20236D01*
X7889Y20270D01*
X7871Y20302D01*
X7850Y20333D01*
X7827Y20362D01*
X7802Y20389D01*
X7775Y20415D01*
X7746Y20438D01*
X7715Y20458D01*
X7682Y20476D01*
X7649Y20492D01*
X7614Y20505D01*
X7578Y20515D01*
X7542Y20522D01*
X7505Y20526D01*
X7468Y20528D01*
D02*
G37*
G36*
X21068Y20528D02*
X21031Y20526D01*
X20994Y20522D01*
X20957Y20515D01*
X20922Y20505D01*
X20887Y20492D01*
X20853Y20476D01*
X20821Y20458D01*
X20790Y20438D01*
X20761Y20415D01*
X20733Y20389D01*
X20708Y20362D01*
X20685Y20333D01*
X20665Y20302D01*
X20646Y20270D01*
X20631Y20236D01*
X20618Y20201D01*
X20608Y20165D01*
X20601Y20129D01*
X20596Y20092D01*
X20595Y20055D01*
X20596Y20018D01*
X20601Y19981D01*
X20608Y19945D01*
X20618Y19909D01*
X20631Y19874D01*
X20646Y19840D01*
X20665Y19808D01*
X20685Y19777D01*
X20708Y19748D01*
X20733Y19721D01*
X20761Y19695D01*
X20790Y19672D01*
X20821Y19652D01*
X20853Y19634D01*
X20887Y19618D01*
X20922Y19605D01*
X20957Y19595D01*
X20994Y19588D01*
X21031Y19584D01*
X21068Y19582D01*
X21105Y19584D01*
X21142Y19588D01*
X21178Y19595D01*
X21214Y19605D01*
X21249Y19618D01*
X21282Y19634D01*
X21315Y19652D01*
X21346Y19672D01*
X21375Y19695D01*
X21402Y19721D01*
X21427Y19748D01*
X21450Y19777D01*
X21471Y19808D01*
X21489Y19840D01*
X21505Y19874D01*
X21517Y19909D01*
X21527Y19945D01*
X21535Y19981D01*
X21539Y20018D01*
X21541Y20055D01*
X21539Y20092D01*
X21535Y20129D01*
X21527Y20165D01*
X21517Y20201D01*
X21505Y20236D01*
X21489Y20270D01*
X21471Y20302D01*
X21450Y20333D01*
X21427Y20362D01*
X21402Y20389D01*
X21375Y20415D01*
X21346Y20438D01*
X21315Y20458D01*
X21282Y20476D01*
X21249Y20492D01*
X21214Y20505D01*
X21178Y20515D01*
X21142Y20522D01*
X21105Y20526D01*
X21068Y20528D01*
D02*
G37*
G36*
X20068D02*
X20031Y20526D01*
X19994Y20522D01*
X19957Y20515D01*
X19922Y20505D01*
X19887Y20492D01*
X19853Y20476D01*
X19821Y20458D01*
X19790Y20438D01*
X19761Y20415D01*
X19733Y20389D01*
X19708Y20362D01*
X19685Y20333D01*
X19665Y20302D01*
X19646Y20270D01*
X19631Y20236D01*
X19618Y20201D01*
X19608Y20165D01*
X19601Y20129D01*
X19596Y20092D01*
X19595Y20055D01*
X19596Y20018D01*
X19601Y19981D01*
X19608Y19945D01*
X19618Y19909D01*
X19631Y19874D01*
X19646Y19840D01*
X19665Y19808D01*
X19685Y19777D01*
X19708Y19748D01*
X19733Y19721D01*
X19761Y19695D01*
X19790Y19672D01*
X19821Y19652D01*
X19853Y19634D01*
X19887Y19618D01*
X19922Y19605D01*
X19957Y19595D01*
X19994Y19588D01*
X20031Y19584D01*
X20068Y19582D01*
X20105Y19584D01*
X20142Y19588D01*
X20178Y19595D01*
X20214Y19605D01*
X20249Y19618D01*
X20282Y19634D01*
X20315Y19652D01*
X20346Y19672D01*
X20375Y19695D01*
X20402Y19721D01*
X20427Y19748D01*
X20450Y19777D01*
X20471Y19808D01*
X20489Y19840D01*
X20505Y19874D01*
X20517Y19909D01*
X20527Y19945D01*
X20535Y19981D01*
X20539Y20018D01*
X20541Y20055D01*
X20539Y20092D01*
X20535Y20129D01*
X20527Y20165D01*
X20517Y20201D01*
X20505Y20236D01*
X20489Y20270D01*
X20471Y20302D01*
X20450Y20333D01*
X20427Y20362D01*
X20402Y20389D01*
X20375Y20415D01*
X20346Y20438D01*
X20315Y20458D01*
X20282Y20476D01*
X20249Y20492D01*
X20214Y20505D01*
X20178Y20515D01*
X20142Y20522D01*
X20105Y20526D01*
X20068Y20528D01*
D02*
G37*
G36*
X19068D02*
X19031Y20526D01*
X18994Y20522D01*
X18957Y20515D01*
X18922Y20505D01*
X18887Y20492D01*
X18853Y20476D01*
X18821Y20458D01*
X18790Y20438D01*
X18761Y20415D01*
X18733Y20389D01*
X18708Y20362D01*
X18685Y20333D01*
X18665Y20302D01*
X18646Y20270D01*
X18631Y20236D01*
X18618Y20201D01*
X18608Y20165D01*
X18601Y20129D01*
X18596Y20092D01*
X18595Y20055D01*
X18596Y20018D01*
X18601Y19981D01*
X18608Y19945D01*
X18618Y19909D01*
X18631Y19874D01*
X18646Y19840D01*
X18665Y19808D01*
X18685Y19777D01*
X18708Y19748D01*
X18733Y19721D01*
X18761Y19695D01*
X18790Y19672D01*
X18821Y19652D01*
X18853Y19634D01*
X18887Y19618D01*
X18922Y19605D01*
X18957Y19595D01*
X18994Y19588D01*
X19031Y19584D01*
X19068Y19582D01*
X19105Y19584D01*
X19142Y19588D01*
X19178Y19595D01*
X19214Y19605D01*
X19249Y19618D01*
X19282Y19634D01*
X19315Y19652D01*
X19346Y19672D01*
X19375Y19695D01*
X19402Y19721D01*
X19427Y19748D01*
X19450Y19777D01*
X19471Y19808D01*
X19489Y19840D01*
X19505Y19874D01*
X19517Y19909D01*
X19527Y19945D01*
X19535Y19981D01*
X19539Y20018D01*
X19541Y20055D01*
X19539Y20092D01*
X19535Y20129D01*
X19527Y20165D01*
X19517Y20201D01*
X19505Y20236D01*
X19489Y20270D01*
X19471Y20302D01*
X19450Y20333D01*
X19427Y20362D01*
X19402Y20389D01*
X19375Y20415D01*
X19346Y20438D01*
X19315Y20458D01*
X19282Y20476D01*
X19249Y20492D01*
X19214Y20505D01*
X19178Y20515D01*
X19142Y20522D01*
X19105Y20526D01*
X19068Y20528D01*
D02*
G37*
G36*
X18068D02*
X18031Y20526D01*
X17994Y20522D01*
X17957Y20515D01*
X17922Y20505D01*
X17887Y20492D01*
X17853Y20476D01*
X17821Y20458D01*
X17790Y20438D01*
X17761Y20415D01*
X17733Y20389D01*
X17708Y20362D01*
X17685Y20333D01*
X17665Y20302D01*
X17646Y20270D01*
X17631Y20236D01*
X17618Y20201D01*
X17608Y20165D01*
X17601Y20129D01*
X17596Y20092D01*
X17595Y20055D01*
X17596Y20018D01*
X17601Y19981D01*
X17608Y19945D01*
X17618Y19909D01*
X17631Y19874D01*
X17646Y19840D01*
X17665Y19808D01*
X17685Y19777D01*
X17708Y19748D01*
X17733Y19721D01*
X17761Y19695D01*
X17790Y19672D01*
X17821Y19652D01*
X17853Y19634D01*
X17887Y19618D01*
X17922Y19605D01*
X17957Y19595D01*
X17994Y19588D01*
X18031Y19584D01*
X18068Y19582D01*
X18105Y19584D01*
X18142Y19588D01*
X18178Y19595D01*
X18214Y19605D01*
X18249Y19618D01*
X18282Y19634D01*
X18315Y19652D01*
X18346Y19672D01*
X18375Y19695D01*
X18402Y19721D01*
X18427Y19748D01*
X18450Y19777D01*
X18471Y19808D01*
X18489Y19840D01*
X18505Y19874D01*
X18517Y19909D01*
X18527Y19945D01*
X18535Y19981D01*
X18539Y20018D01*
X18541Y20055D01*
X18539Y20092D01*
X18535Y20129D01*
X18527Y20165D01*
X18517Y20201D01*
X18505Y20236D01*
X18489Y20270D01*
X18471Y20302D01*
X18450Y20333D01*
X18427Y20362D01*
X18402Y20389D01*
X18375Y20415D01*
X18346Y20438D01*
X18315Y20458D01*
X18282Y20476D01*
X18249Y20492D01*
X18214Y20505D01*
X18178Y20515D01*
X18142Y20522D01*
X18105Y20526D01*
X18068Y20528D01*
D02*
G37*
G36*
X9246Y19276D02*
X9221Y19275D01*
X9197Y19270D01*
X9174Y19264D01*
X9152Y19254D01*
X9130Y19243D01*
X9110Y19229D01*
X9092Y19212D01*
X9076Y19194D01*
X9062Y19174D01*
X9050Y19153D01*
X9041Y19131D01*
X9034Y19107D01*
X9030Y19083D01*
X9029Y19059D01*
X9030Y19035D01*
X9034Y19011D01*
X9041Y18987D01*
X9050Y18965D01*
X9062Y18944D01*
X9076Y18924D01*
X9092Y18906D01*
X9110Y18889D01*
X9130Y18875D01*
X9152Y18864D01*
X9174Y18854D01*
X9197Y18848D01*
X9221Y18844D01*
X9246Y18842D01*
X9270Y18844D01*
X9294Y18848D01*
X9317Y18854D01*
X9340Y18864D01*
X9361Y18875D01*
X9381Y18889D01*
X9399Y18906D01*
X9415Y18924D01*
X9429Y18944D01*
X9441Y18965D01*
X9450Y18987D01*
X9457Y19011D01*
X9461Y19035D01*
X9463Y19059D01*
X9461Y19083D01*
X9457Y19107D01*
X9450Y19131D01*
X9441Y19153D01*
X9429Y19174D01*
X9415Y19194D01*
X9399Y19212D01*
X9381Y19229D01*
X9361Y19243D01*
X9340Y19254D01*
X9317Y19264D01*
X9294Y19270D01*
X9270Y19275D01*
X9246Y19276D01*
D02*
G37*
G36*
X10728Y18914D02*
X10704Y18912D01*
X10680Y18908D01*
X10656Y18901D01*
X10634Y18892D01*
X10613Y18880D01*
X10593Y18866D01*
X10575Y18850D01*
X10558Y18832D01*
X10544Y18812D01*
X10533Y18791D01*
X10523Y18768D01*
X10517Y18745D01*
X10512Y18721D01*
X10511Y18697D01*
X10512Y18672D01*
X10517Y18648D01*
X10523Y18625D01*
X10533Y18603D01*
X10544Y18581D01*
X10558Y18561D01*
X10575Y18543D01*
X10593Y18527D01*
X10613Y18513D01*
X10634Y18501D01*
X10656Y18492D01*
X10680Y18485D01*
X10704Y18481D01*
X10728Y18480D01*
X10752Y18481D01*
X10776Y18485D01*
X10800Y18492D01*
X10822Y18501D01*
X10843Y18513D01*
X10863Y18527D01*
X10881Y18543D01*
X10898Y18561D01*
X10912Y18581D01*
X10923Y18603D01*
X10933Y18625D01*
X10939Y18648D01*
X10943Y18672D01*
X10945Y18697D01*
X10943Y18721D01*
X10939Y18745D01*
X10933Y18768D01*
X10923Y18791D01*
X10912Y18812D01*
X10898Y18832D01*
X10881Y18850D01*
X10863Y18866D01*
X10843Y18880D01*
X10822Y18892D01*
X10800Y18901D01*
X10776Y18908D01*
X10752Y18912D01*
X10728Y18914D01*
D02*
G37*
G36*
X8435Y18708D02*
X8410Y18707D01*
X8386Y18703D01*
X8363Y18696D01*
X8341Y18687D01*
X8319Y18675D01*
X8299Y18661D01*
X8281Y18645D01*
X8265Y18627D01*
X8251Y18607D01*
X8239Y18585D01*
X8230Y18563D01*
X8223Y18540D01*
X8219Y18516D01*
X8218Y18491D01*
X8219Y18467D01*
X8223Y18443D01*
X8230Y18420D01*
X8239Y18397D01*
X8251Y18376D01*
X8265Y18356D01*
X8281Y18338D01*
X8299Y18322D01*
X8319Y18308D01*
X8341Y18296D01*
X8363Y18287D01*
X8386Y18280D01*
X8410Y18276D01*
X8435Y18274D01*
X8459Y18276D01*
X8483Y18280D01*
X8506Y18287D01*
X8529Y18296D01*
X8550Y18308D01*
X8570Y18322D01*
X8588Y18338D01*
X8604Y18356D01*
X8618Y18376D01*
X8630Y18397D01*
X8639Y18420D01*
X8646Y18443D01*
X8650Y18467D01*
X8652Y18491D01*
X8650Y18516D01*
X8646Y18540D01*
X8639Y18563D01*
X8630Y18585D01*
X8618Y18607D01*
X8604Y18627D01*
X8588Y18645D01*
X8570Y18661D01*
X8550Y18675D01*
X8529Y18687D01*
X8506Y18696D01*
X8483Y18703D01*
X8459Y18707D01*
X8435Y18708D01*
D02*
G37*
G36*
X14031Y17938D02*
X14006Y17936D01*
X13982Y17932D01*
X13959Y17926D01*
X13937Y17916D01*
X13915Y17904D01*
X13895Y17890D01*
X13877Y17874D01*
X13861Y17856D01*
X13847Y17836D01*
X13835Y17815D01*
X13826Y17793D01*
X13819Y17769D01*
X13815Y17745D01*
X13814Y17721D01*
X13815Y17697D01*
X13819Y17673D01*
X13826Y17649D01*
X13835Y17627D01*
X13847Y17605D01*
X13861Y17586D01*
X13877Y17568D01*
X13895Y17551D01*
X13915Y17537D01*
X13937Y17525D01*
X13959Y17516D01*
X13982Y17509D01*
X14006Y17505D01*
X14031Y17504D01*
X14055Y17505D01*
X14079Y17509D01*
X14102Y17516D01*
X14125Y17525D01*
X14146Y17537D01*
X14166Y17551D01*
X14184Y17568D01*
X14200Y17586D01*
X14214Y17605D01*
X14226Y17627D01*
X14235Y17649D01*
X14242Y17673D01*
X14246Y17697D01*
X14248Y17721D01*
X14246Y17745D01*
X14242Y17769D01*
X14235Y17793D01*
X14226Y17815D01*
X14214Y17836D01*
X14200Y17856D01*
X14184Y17874D01*
X14166Y17890D01*
X14146Y17904D01*
X14125Y17916D01*
X14102Y17926D01*
X14079Y17932D01*
X14055Y17936D01*
X14031Y17938D01*
D02*
G37*
G36*
X8354Y16153D02*
X8329Y16152D01*
X8305Y16148D01*
X8282Y16141D01*
X8259Y16132D01*
X8238Y16120D01*
X8218Y16106D01*
X8200Y16090D01*
X8184Y16072D01*
X8170Y16052D01*
X8158Y16031D01*
X8149Y16008D01*
X8142Y15985D01*
X8138Y15961D01*
X8137Y15937D01*
X8138Y15912D01*
X8142Y15888D01*
X8149Y15865D01*
X8158Y15843D01*
X8170Y15821D01*
X8184Y15801D01*
X8200Y15783D01*
X8218Y15767D01*
X8238Y15753D01*
X8259Y15741D01*
X8282Y15732D01*
X8305Y15725D01*
X8329Y15721D01*
X8354Y15720D01*
X8378Y15721D01*
X8402Y15725D01*
X8425Y15732D01*
X8448Y15741D01*
X8469Y15753D01*
X8489Y15767D01*
X8507Y15783D01*
X8523Y15801D01*
X8537Y15821D01*
X8549Y15843D01*
X8558Y15865D01*
X8565Y15888D01*
X8569Y15912D01*
X8570Y15937D01*
X8569Y15961D01*
X8565Y15985D01*
X8558Y16008D01*
X8549Y16031D01*
X8537Y16052D01*
X8523Y16072D01*
X8507Y16090D01*
X8489Y16106D01*
X8469Y16120D01*
X8448Y16132D01*
X8425Y16141D01*
X8402Y16148D01*
X8378Y16152D01*
X8354Y16153D01*
D02*
G37*
G36*
X11111Y16113D02*
X11087Y16112D01*
X11063Y16107D01*
X11039Y16101D01*
X11017Y16091D01*
X10996Y16080D01*
X10976Y16066D01*
X10958Y16049D01*
X10941Y16031D01*
X10927Y16011D01*
X10916Y15990D01*
X10906Y15968D01*
X10900Y15944D01*
X10896Y15920D01*
X10894Y15896D01*
X10896Y15872D01*
X10900Y15848D01*
X10906Y15824D01*
X10916Y15802D01*
X10927Y15781D01*
X10941Y15761D01*
X10958Y15743D01*
X10976Y15726D01*
X10996Y15712D01*
X11017Y15701D01*
X11039Y15691D01*
X11063Y15685D01*
X11087Y15681D01*
X11111Y15679D01*
X11135Y15681D01*
X11159Y15685D01*
X11183Y15691D01*
X11205Y15701D01*
X11226Y15712D01*
X11246Y15726D01*
X11264Y15743D01*
X11281Y15761D01*
X11295Y15781D01*
X11306Y15802D01*
X11316Y15824D01*
X11322Y15848D01*
X11327Y15872D01*
X11328Y15896D01*
X11327Y15920D01*
X11322Y15944D01*
X11316Y15968D01*
X11306Y15990D01*
X11295Y16011D01*
X11281Y16031D01*
X11264Y16049D01*
X11246Y16066D01*
X11226Y16080D01*
X11205Y16091D01*
X11183Y16101D01*
X11159Y16107D01*
X11135Y16112D01*
X11111Y16113D01*
D02*
G37*
G36*
X2768Y16166D02*
X2739Y16164D01*
X2710Y16161D01*
X2682Y16154D01*
X2654Y16145D01*
X2627Y16134D01*
X2601Y16121D01*
X2576Y16105D01*
X2553Y16087D01*
X2531Y16068D01*
X2512Y16046D01*
X2494Y16023D01*
X2478Y15998D01*
X2465Y15972D01*
X2454Y15945D01*
X2445Y15917D01*
X2438Y15889D01*
X2435Y15860D01*
X2433Y15831D01*
X2435Y15802D01*
X2438Y15773D01*
X2445Y15744D01*
X2454Y15716D01*
X2465Y15689D01*
X2478Y15663D01*
X2494Y15639D01*
X2512Y15615D01*
X2531Y15594D01*
X2553Y15574D01*
X2576Y15556D01*
X2601Y15541D01*
X2627Y15527D01*
X2654Y15516D01*
X2682Y15507D01*
X2710Y15501D01*
X2739Y15497D01*
X2768Y15496D01*
X2797Y15497D01*
X2826Y15501D01*
X2855Y15507D01*
X2883Y15516D01*
X2910Y15527D01*
X2936Y15541D01*
X2960Y15556D01*
X2984Y15574D01*
X3005Y15594D01*
X3025Y15615D01*
X3043Y15639D01*
X3058Y15663D01*
X3072Y15689D01*
X3083Y15716D01*
X3092Y15744D01*
X3098Y15773D01*
X3102Y15802D01*
X3103Y15831D01*
X3102Y15860D01*
X3098Y15889D01*
X3092Y15917D01*
X3083Y15945D01*
X3072Y15972D01*
X3058Y15998D01*
X3043Y16023D01*
X3025Y16046D01*
X3005Y16068D01*
X2984Y16087D01*
X2960Y16105D01*
X2936Y16121D01*
X2910Y16134D01*
X2883Y16145D01*
X2855Y16154D01*
X2826Y16161D01*
X2797Y16164D01*
X2768Y16166D01*
D02*
G37*
G36*
X13065Y15545D02*
X13041Y15544D01*
X13017Y15540D01*
X12993Y15533D01*
X12971Y15524D01*
X12950Y15512D01*
X12930Y15498D01*
X12912Y15482D01*
X12895Y15464D01*
X12881Y15444D01*
X12870Y15422D01*
X12860Y15400D01*
X12854Y15377D01*
X12849Y15353D01*
X12848Y15328D01*
X12849Y15304D01*
X12854Y15280D01*
X12860Y15257D01*
X12870Y15234D01*
X12881Y15213D01*
X12895Y15193D01*
X12912Y15175D01*
X12930Y15159D01*
X12950Y15145D01*
X12971Y15133D01*
X12993Y15124D01*
X13017Y15117D01*
X13041Y15113D01*
X13065Y15111D01*
X13089Y15113D01*
X13113Y15117D01*
X13137Y15124D01*
X13159Y15133D01*
X13180Y15145D01*
X13200Y15159D01*
X13218Y15175D01*
X13235Y15193D01*
X13249Y15213D01*
X13260Y15234D01*
X13270Y15257D01*
X13276Y15280D01*
X13280Y15304D01*
X13282Y15328D01*
X13280Y15353D01*
X13276Y15377D01*
X13270Y15400D01*
X13260Y15422D01*
X13249Y15444D01*
X13235Y15464D01*
X13218Y15482D01*
X13200Y15498D01*
X13180Y15512D01*
X13159Y15524D01*
X13137Y15533D01*
X13113Y15540D01*
X13089Y15544D01*
X13065Y15545D01*
D02*
G37*
G36*
X12571D02*
X12547Y15544D01*
X12523Y15540D01*
X12499Y15533D01*
X12477Y15524D01*
X12455Y15512D01*
X12436Y15498D01*
X12418Y15482D01*
X12401Y15464D01*
X12387Y15444D01*
X12375Y15422D01*
X12366Y15400D01*
X12359Y15377D01*
X12355Y15353D01*
X12354Y15328D01*
X12355Y15304D01*
X12359Y15280D01*
X12366Y15257D01*
X12375Y15234D01*
X12387Y15213D01*
X12401Y15193D01*
X12418Y15175D01*
X12436Y15159D01*
X12455Y15145D01*
X12477Y15133D01*
X12499Y15124D01*
X12523Y15117D01*
X12547Y15113D01*
X12571Y15111D01*
X12595Y15113D01*
X12619Y15117D01*
X12643Y15124D01*
X12665Y15133D01*
X12686Y15145D01*
X12706Y15159D01*
X12724Y15175D01*
X12740Y15193D01*
X12754Y15213D01*
X12766Y15234D01*
X12776Y15257D01*
X12782Y15280D01*
X12786Y15304D01*
X12788Y15328D01*
X12786Y15353D01*
X12782Y15377D01*
X12776Y15400D01*
X12766Y15422D01*
X12754Y15444D01*
X12740Y15464D01*
X12724Y15482D01*
X12706Y15498D01*
X12686Y15512D01*
X12665Y15524D01*
X12643Y15533D01*
X12619Y15540D01*
X12595Y15544D01*
X12571Y15545D01*
D02*
G37*
G36*
X2768Y15378D02*
X2739Y15377D01*
X2710Y15373D01*
X2682Y15367D01*
X2654Y15358D01*
X2627Y15347D01*
X2601Y15333D01*
X2576Y15318D01*
X2553Y15300D01*
X2531Y15280D01*
X2512Y15259D01*
X2494Y15235D01*
X2478Y15211D01*
X2465Y15185D01*
X2454Y15158D01*
X2445Y15130D01*
X2438Y15101D01*
X2435Y15072D01*
X2433Y15043D01*
X2435Y15014D01*
X2438Y14985D01*
X2445Y14957D01*
X2454Y14929D01*
X2465Y14902D01*
X2478Y14876D01*
X2494Y14851D01*
X2512Y14828D01*
X2531Y14806D01*
X2553Y14787D01*
X2576Y14769D01*
X2601Y14753D01*
X2627Y14740D01*
X2654Y14729D01*
X2682Y14720D01*
X2710Y14713D01*
X2739Y14710D01*
X2768Y14708D01*
X2797Y14710D01*
X2826Y14713D01*
X2855Y14720D01*
X2883Y14729D01*
X2910Y14740D01*
X2936Y14753D01*
X2960Y14769D01*
X2984Y14787D01*
X3005Y14806D01*
X3025Y14828D01*
X3043Y14851D01*
X3058Y14876D01*
X3072Y14902D01*
X3083Y14929D01*
X3092Y14957D01*
X3098Y14985D01*
X3102Y15014D01*
X3103Y15043D01*
X3102Y15072D01*
X3098Y15101D01*
X3092Y15130D01*
X3083Y15158D01*
X3072Y15185D01*
X3058Y15211D01*
X3043Y15235D01*
X3025Y15259D01*
X3005Y15280D01*
X2984Y15300D01*
X2960Y15318D01*
X2936Y15333D01*
X2910Y15347D01*
X2883Y15358D01*
X2855Y15367D01*
X2826Y15373D01*
X2797Y15377D01*
X2768Y15378D01*
D02*
G37*
G36*
X22871Y14718D02*
X22847Y14717D01*
X22823Y14713D01*
X22799Y14706D01*
X22777Y14697D01*
X22755Y14685D01*
X22736Y14671D01*
X22718Y14655D01*
X22701Y14636D01*
X22687Y14617D01*
X22675Y14595D01*
X22666Y14573D01*
X22659Y14549D01*
X22655Y14525D01*
X22654Y14501D01*
X22655Y14477D01*
X22659Y14453D01*
X22666Y14430D01*
X22675Y14407D01*
X22687Y14386D01*
X22701Y14366D01*
X22718Y14348D01*
X22736Y14332D01*
X22755Y14318D01*
X22777Y14306D01*
X22799Y14296D01*
X22823Y14290D01*
X22847Y14286D01*
X22871Y14284D01*
X22895Y14286D01*
X22919Y14290D01*
X22943Y14296D01*
X22965Y14306D01*
X22986Y14318D01*
X23006Y14332D01*
X23024Y14348D01*
X23040Y14366D01*
X23054Y14386D01*
X23066Y14407D01*
X23076Y14430D01*
X23082Y14453D01*
X23086Y14477D01*
X23088Y14501D01*
X23086Y14525D01*
X23082Y14549D01*
X23076Y14573D01*
X23066Y14595D01*
X23054Y14617D01*
X23040Y14636D01*
X23024Y14655D01*
X23006Y14671D01*
X22986Y14685D01*
X22965Y14697D01*
X22943Y14706D01*
X22919Y14713D01*
X22895Y14717D01*
X22871Y14718D01*
D02*
G37*
G36*
X19667D02*
X19643Y14717D01*
X19619Y14713D01*
X19596Y14706D01*
X19573Y14697D01*
X19552Y14685D01*
X19532Y14671D01*
X19514Y14655D01*
X19498Y14636D01*
X19484Y14617D01*
X19472Y14595D01*
X19463Y14573D01*
X19456Y14549D01*
X19452Y14525D01*
X19450Y14501D01*
X19452Y14477D01*
X19456Y14453D01*
X19463Y14430D01*
X19472Y14407D01*
X19484Y14386D01*
X19498Y14366D01*
X19514Y14348D01*
X19532Y14332D01*
X19552Y14318D01*
X19573Y14306D01*
X19596Y14296D01*
X19619Y14290D01*
X19643Y14286D01*
X19667Y14284D01*
X19692Y14286D01*
X19716Y14290D01*
X19739Y14296D01*
X19761Y14306D01*
X19783Y14318D01*
X19803Y14332D01*
X19821Y14348D01*
X19837Y14366D01*
X19851Y14386D01*
X19863Y14407D01*
X19872Y14430D01*
X19879Y14453D01*
X19883Y14477D01*
X19884Y14501D01*
X19883Y14525D01*
X19879Y14549D01*
X19872Y14573D01*
X19863Y14595D01*
X19851Y14617D01*
X19837Y14636D01*
X19821Y14655D01*
X19803Y14671D01*
X19783Y14685D01*
X19761Y14697D01*
X19739Y14706D01*
X19716Y14713D01*
X19692Y14717D01*
X19667Y14718D01*
D02*
G37*
G36*
X9750Y14711D02*
X9725Y14710D01*
X9701Y14706D01*
X9678Y14699D01*
X9656Y14689D01*
X9634Y14678D01*
X9614Y14664D01*
X9596Y14647D01*
X9580Y14629D01*
X9566Y14609D01*
X9554Y14588D01*
X9545Y14566D01*
X9538Y14542D01*
X9534Y14518D01*
X9533Y14494D01*
X9534Y14470D01*
X9538Y14446D01*
X9545Y14422D01*
X9554Y14400D01*
X9566Y14379D01*
X9580Y14359D01*
X9596Y14341D01*
X9614Y14325D01*
X9634Y14310D01*
X9656Y14299D01*
X9678Y14289D01*
X9701Y14283D01*
X9725Y14279D01*
X9750Y14277D01*
X9774Y14279D01*
X9798Y14283D01*
X9821Y14289D01*
X9844Y14299D01*
X9865Y14310D01*
X9885Y14325D01*
X9903Y14341D01*
X9919Y14359D01*
X9933Y14379D01*
X9945Y14400D01*
X9954Y14422D01*
X9961Y14446D01*
X9965Y14470D01*
X9966Y14494D01*
X9965Y14518D01*
X9961Y14542D01*
X9954Y14566D01*
X9945Y14588D01*
X9933Y14609D01*
X9919Y14629D01*
X9903Y14647D01*
X9885Y14664D01*
X9865Y14678D01*
X9844Y14689D01*
X9821Y14699D01*
X9798Y14706D01*
X9774Y14710D01*
X9750Y14711D01*
D02*
G37*
G36*
X2768Y14591D02*
X2739Y14590D01*
X2710Y14586D01*
X2682Y14579D01*
X2654Y14571D01*
X2627Y14559D01*
X2601Y14546D01*
X2576Y14530D01*
X2553Y14512D01*
X2531Y14493D01*
X2512Y14471D01*
X2494Y14448D01*
X2478Y14423D01*
X2465Y14397D01*
X2454Y14370D01*
X2445Y14343D01*
X2438Y14314D01*
X2435Y14285D01*
X2433Y14256D01*
X2435Y14227D01*
X2438Y14198D01*
X2445Y14169D01*
X2454Y14141D01*
X2465Y14114D01*
X2478Y14088D01*
X2494Y14064D01*
X2512Y14041D01*
X2531Y14019D01*
X2553Y13999D01*
X2576Y13982D01*
X2601Y13966D01*
X2627Y13952D01*
X2654Y13941D01*
X2682Y13932D01*
X2710Y13926D01*
X2739Y13922D01*
X2768Y13921D01*
X2797Y13922D01*
X2826Y13926D01*
X2855Y13932D01*
X2883Y13941D01*
X2910Y13952D01*
X2936Y13966D01*
X2960Y13982D01*
X2984Y13999D01*
X3005Y14019D01*
X3025Y14041D01*
X3043Y14064D01*
X3058Y14088D01*
X3072Y14114D01*
X3083Y14141D01*
X3092Y14169D01*
X3098Y14198D01*
X3102Y14227D01*
X3103Y14256D01*
X3102Y14285D01*
X3098Y14314D01*
X3092Y14343D01*
X3083Y14370D01*
X3072Y14397D01*
X3058Y14423D01*
X3043Y14448D01*
X3025Y14471D01*
X3005Y14493D01*
X2984Y14512D01*
X2960Y14530D01*
X2936Y14546D01*
X2910Y14559D01*
X2883Y14571D01*
X2855Y14579D01*
X2826Y14586D01*
X2797Y14590D01*
X2768Y14591D01*
D02*
G37*
G36*
X8101Y14338D02*
X8077Y14336D01*
X8053Y14332D01*
X8029Y14326D01*
X8007Y14316D01*
X7986Y14305D01*
X7966Y14291D01*
X7948Y14274D01*
X7932Y14256D01*
X7917Y14236D01*
X7906Y14215D01*
X7896Y14193D01*
X7890Y14169D01*
X7886Y14145D01*
X7884Y14121D01*
X7886Y14097D01*
X7890Y14073D01*
X7896Y14049D01*
X7906Y14027D01*
X7917Y14006D01*
X7932Y13986D01*
X7948Y13968D01*
X7966Y13951D01*
X7986Y13937D01*
X8007Y13926D01*
X8029Y13916D01*
X8053Y13910D01*
X8077Y13905D01*
X8101Y13904D01*
X8125Y13905D01*
X8149Y13910D01*
X8173Y13916D01*
X8195Y13926D01*
X8216Y13937D01*
X8236Y13951D01*
X8254Y13968D01*
X8271Y13986D01*
X8285Y14006D01*
X8296Y14027D01*
X8306Y14049D01*
X8313Y14073D01*
X8317Y14097D01*
X8318Y14121D01*
X8317Y14145D01*
X8313Y14169D01*
X8306Y14193D01*
X8296Y14215D01*
X8285Y14236D01*
X8271Y14256D01*
X8254Y14274D01*
X8236Y14291D01*
X8216Y14305D01*
X8195Y14316D01*
X8173Y14326D01*
X8149Y14332D01*
X8125Y14336D01*
X8101Y14338D01*
D02*
G37*
G36*
X13666Y14329D02*
X13641Y14327D01*
X13617Y14323D01*
X13594Y14317D01*
X13572Y14307D01*
X13550Y14295D01*
X13531Y14281D01*
X13512Y14265D01*
X13496Y14247D01*
X13482Y14227D01*
X13470Y14206D01*
X13461Y14183D01*
X13454Y14160D01*
X13450Y14136D01*
X13449Y14112D01*
X13450Y14088D01*
X13454Y14064D01*
X13461Y14040D01*
X13470Y14018D01*
X13482Y13996D01*
X13496Y13977D01*
X13512Y13958D01*
X13531Y13942D01*
X13550Y13928D01*
X13572Y13916D01*
X13594Y13907D01*
X13617Y13900D01*
X13641Y13896D01*
X13666Y13895D01*
X13690Y13896D01*
X13714Y13900D01*
X13737Y13907D01*
X13760Y13916D01*
X13781Y13928D01*
X13801Y13942D01*
X13819Y13958D01*
X13835Y13977D01*
X13849Y13996D01*
X13861Y14018D01*
X13870Y14040D01*
X13877Y14064D01*
X13881Y14088D01*
X13883Y14112D01*
X13881Y14136D01*
X13877Y14160D01*
X13870Y14183D01*
X13861Y14206D01*
X13849Y14227D01*
X13835Y14247D01*
X13819Y14265D01*
X13801Y14281D01*
X13781Y14295D01*
X13760Y14307D01*
X13737Y14317D01*
X13714Y14323D01*
X13690Y14327D01*
X13666Y14329D01*
D02*
G37*
G36*
X22871Y14218D02*
X22847Y14217D01*
X22823Y14213D01*
X22799Y14206D01*
X22777Y14197D01*
X22755Y14185D01*
X22736Y14171D01*
X22718Y14155D01*
X22701Y14136D01*
X22687Y14117D01*
X22675Y14095D01*
X22666Y14073D01*
X22659Y14049D01*
X22655Y14025D01*
X22654Y14001D01*
X22655Y13977D01*
X22659Y13953D01*
X22666Y13930D01*
X22675Y13907D01*
X22687Y13886D01*
X22701Y13866D01*
X22718Y13848D01*
X22736Y13832D01*
X22755Y13818D01*
X22777Y13806D01*
X22799Y13796D01*
X22823Y13790D01*
X22847Y13786D01*
X22871Y13784D01*
X22895Y13786D01*
X22919Y13790D01*
X22943Y13796D01*
X22965Y13806D01*
X22986Y13818D01*
X23006Y13832D01*
X23024Y13848D01*
X23040Y13866D01*
X23054Y13886D01*
X23066Y13907D01*
X23076Y13930D01*
X23082Y13953D01*
X23086Y13977D01*
X23088Y14001D01*
X23086Y14025D01*
X23082Y14049D01*
X23076Y14073D01*
X23066Y14095D01*
X23054Y14117D01*
X23040Y14136D01*
X23024Y14155D01*
X23006Y14171D01*
X22986Y14185D01*
X22965Y14197D01*
X22943Y14206D01*
X22919Y14213D01*
X22895Y14217D01*
X22871Y14218D01*
D02*
G37*
G36*
X20124D02*
X20100Y14217D01*
X20076Y14213D01*
X20053Y14206D01*
X20030Y14197D01*
X20009Y14185D01*
X19989Y14171D01*
X19971Y14155D01*
X19955Y14136D01*
X19941Y14117D01*
X19929Y14095D01*
X19920Y14073D01*
X19913Y14049D01*
X19909Y14025D01*
X19908Y14001D01*
X19909Y13977D01*
X19913Y13953D01*
X19920Y13930D01*
X19929Y13907D01*
X19941Y13886D01*
X19955Y13866D01*
X19971Y13848D01*
X19989Y13832D01*
X20009Y13818D01*
X20030Y13806D01*
X20053Y13796D01*
X20076Y13790D01*
X20100Y13786D01*
X20124Y13784D01*
X20149Y13786D01*
X20173Y13790D01*
X20196Y13796D01*
X20219Y13806D01*
X20240Y13818D01*
X20260Y13832D01*
X20278Y13848D01*
X20294Y13866D01*
X20308Y13886D01*
X20320Y13907D01*
X20329Y13930D01*
X20336Y13953D01*
X20340Y13977D01*
X20341Y14001D01*
X20340Y14025D01*
X20336Y14049D01*
X20329Y14073D01*
X20320Y14095D01*
X20308Y14117D01*
X20294Y14136D01*
X20278Y14155D01*
X20260Y14171D01*
X20240Y14185D01*
X20219Y14197D01*
X20196Y14206D01*
X20173Y14213D01*
X20149Y14217D01*
X20124Y14218D01*
D02*
G37*
G36*
X2768Y13803D02*
X2739Y13802D01*
X2710Y13798D01*
X2682Y13792D01*
X2654Y13783D01*
X2627Y13772D01*
X2601Y13759D01*
X2576Y13743D01*
X2553Y13725D01*
X2531Y13705D01*
X2512Y13684D01*
X2494Y13661D01*
X2478Y13636D01*
X2465Y13610D01*
X2454Y13583D01*
X2445Y13555D01*
X2438Y13527D01*
X2435Y13498D01*
X2433Y13469D01*
X2435Y13439D01*
X2438Y13410D01*
X2445Y13382D01*
X2454Y13354D01*
X2465Y13327D01*
X2478Y13301D01*
X2494Y13276D01*
X2512Y13253D01*
X2531Y13232D01*
X2553Y13212D01*
X2576Y13194D01*
X2601Y13178D01*
X2627Y13165D01*
X2654Y13154D01*
X2682Y13145D01*
X2710Y13139D01*
X2739Y13135D01*
X2768Y13134D01*
X2797Y13135D01*
X2826Y13139D01*
X2855Y13145D01*
X2883Y13154D01*
X2910Y13165D01*
X2936Y13178D01*
X2960Y13194D01*
X2984Y13212D01*
X3005Y13232D01*
X3025Y13253D01*
X3043Y13276D01*
X3058Y13301D01*
X3072Y13327D01*
X3083Y13354D01*
X3092Y13382D01*
X3098Y13410D01*
X3102Y13439D01*
X3103Y13469D01*
X3102Y13498D01*
X3098Y13527D01*
X3092Y13555D01*
X3083Y13583D01*
X3072Y13610D01*
X3058Y13636D01*
X3043Y13661D01*
X3025Y13684D01*
X3005Y13705D01*
X2984Y13725D01*
X2960Y13743D01*
X2936Y13759D01*
X2910Y13772D01*
X2883Y13783D01*
X2855Y13792D01*
X2826Y13798D01*
X2797Y13802D01*
X2768Y13803D01*
D02*
G37*
G36*
X9750Y13530D02*
X9725Y13529D01*
X9701Y13524D01*
X9678Y13518D01*
X9656Y13508D01*
X9634Y13497D01*
X9614Y13483D01*
X9596Y13466D01*
X9580Y13448D01*
X9566Y13428D01*
X9554Y13407D01*
X9545Y13385D01*
X9538Y13361D01*
X9534Y13337D01*
X9533Y13313D01*
X9534Y13289D01*
X9538Y13265D01*
X9545Y13241D01*
X9554Y13219D01*
X9566Y13198D01*
X9580Y13178D01*
X9596Y13160D01*
X9614Y13143D01*
X9634Y13129D01*
X9656Y13118D01*
X9678Y13108D01*
X9701Y13102D01*
X9725Y13097D01*
X9750Y13096D01*
X9774Y13097D01*
X9798Y13102D01*
X9821Y13108D01*
X9844Y13118D01*
X9865Y13129D01*
X9885Y13143D01*
X9903Y13160D01*
X9919Y13178D01*
X9933Y13198D01*
X9945Y13219D01*
X9954Y13241D01*
X9961Y13265D01*
X9965Y13289D01*
X9966Y13313D01*
X9965Y13337D01*
X9961Y13361D01*
X9954Y13385D01*
X9945Y13407D01*
X9933Y13428D01*
X9919Y13448D01*
X9903Y13466D01*
X9885Y13483D01*
X9865Y13497D01*
X9844Y13508D01*
X9821Y13518D01*
X9798Y13524D01*
X9774Y13529D01*
X9750Y13530D01*
D02*
G37*
G36*
X26485Y12777D02*
X26460Y12775D01*
X26436Y12771D01*
X26413Y12764D01*
X26391Y12755D01*
X26369Y12743D01*
X26349Y12729D01*
X26331Y12713D01*
X26315Y12695D01*
X26301Y12675D01*
X26289Y12654D01*
X26280Y12631D01*
X26273Y12608D01*
X26269Y12584D01*
X26268Y12560D01*
X26269Y12535D01*
X26273Y12511D01*
X26280Y12488D01*
X26289Y12466D01*
X26301Y12444D01*
X26315Y12424D01*
X26331Y12406D01*
X26349Y12390D01*
X26369Y12376D01*
X26391Y12364D01*
X26413Y12355D01*
X26436Y12348D01*
X26460Y12344D01*
X26485Y12343D01*
X26509Y12344D01*
X26533Y12348D01*
X26556Y12355D01*
X26579Y12364D01*
X26600Y12376D01*
X26620Y12390D01*
X26638Y12406D01*
X26654Y12424D01*
X26668Y12444D01*
X26680Y12466D01*
X26689Y12488D01*
X26696Y12511D01*
X26700Y12535D01*
X26702Y12560D01*
X26700Y12584D01*
X26696Y12608D01*
X26689Y12631D01*
X26680Y12654D01*
X26668Y12675D01*
X26654Y12695D01*
X26638Y12713D01*
X26620Y12729D01*
X26600Y12743D01*
X26579Y12755D01*
X26556Y12764D01*
X26533Y12771D01*
X26509Y12775D01*
X26485Y12777D01*
D02*
G37*
G36*
X9750Y12585D02*
X9725Y12584D01*
X9701Y12580D01*
X9678Y12573D01*
X9656Y12564D01*
X9634Y12552D01*
X9614Y12538D01*
X9596Y12521D01*
X9580Y12503D01*
X9566Y12484D01*
X9554Y12462D01*
X9545Y12440D01*
X9538Y12416D01*
X9534Y12392D01*
X9533Y12368D01*
X9534Y12344D01*
X9538Y12320D01*
X9545Y12296D01*
X9554Y12274D01*
X9566Y12253D01*
X9580Y12233D01*
X9596Y12215D01*
X9614Y12199D01*
X9634Y12184D01*
X9656Y12173D01*
X9678Y12163D01*
X9701Y12157D01*
X9725Y12153D01*
X9750Y12151D01*
X9774Y12153D01*
X9798Y12157D01*
X9821Y12163D01*
X9844Y12173D01*
X9865Y12184D01*
X9885Y12199D01*
X9903Y12215D01*
X9919Y12233D01*
X9933Y12253D01*
X9945Y12274D01*
X9954Y12296D01*
X9961Y12320D01*
X9965Y12344D01*
X9966Y12368D01*
X9965Y12392D01*
X9961Y12416D01*
X9954Y12440D01*
X9945Y12462D01*
X9933Y12484D01*
X9919Y12503D01*
X9903Y12521D01*
X9885Y12538D01*
X9865Y12552D01*
X9844Y12564D01*
X9821Y12573D01*
X9798Y12580D01*
X9774Y12584D01*
X9750Y12585D01*
D02*
G37*
G36*
X23572Y12272D02*
X23547Y12271D01*
X23523Y12266D01*
X23500Y12260D01*
X23477Y12250D01*
X23456Y12239D01*
X23436Y12225D01*
X23418Y12208D01*
X23402Y12190D01*
X23388Y12170D01*
X23376Y12149D01*
X23367Y12127D01*
X23360Y12103D01*
X23356Y12079D01*
X23355Y12055D01*
X23356Y12031D01*
X23360Y12007D01*
X23367Y11983D01*
X23376Y11961D01*
X23388Y11940D01*
X23402Y11920D01*
X23418Y11902D01*
X23436Y11885D01*
X23456Y11871D01*
X23477Y11860D01*
X23500Y11850D01*
X23523Y11844D01*
X23547Y11839D01*
X23572Y11838D01*
X23596Y11839D01*
X23620Y11844D01*
X23643Y11850D01*
X23666Y11860D01*
X23687Y11871D01*
X23707Y11885D01*
X23725Y11902D01*
X23741Y11920D01*
X23755Y11940D01*
X23767Y11961D01*
X23776Y11983D01*
X23783Y12007D01*
X23787Y12031D01*
X23788Y12055D01*
X23787Y12079D01*
X23783Y12103D01*
X23776Y12127D01*
X23767Y12149D01*
X23755Y12170D01*
X23741Y12190D01*
X23725Y12208D01*
X23707Y12225D01*
X23687Y12239D01*
X23666Y12250D01*
X23643Y12260D01*
X23620Y12266D01*
X23596Y12271D01*
X23572Y12272D01*
D02*
G37*
G36*
X17194Y12261D02*
X17169Y12259D01*
X17145Y12255D01*
X17122Y12248D01*
X17100Y12239D01*
X17078Y12227D01*
X17058Y12213D01*
X17040Y12197D01*
X17024Y12179D01*
X17010Y12159D01*
X16998Y12138D01*
X16989Y12115D01*
X16982Y12092D01*
X16978Y12068D01*
X16977Y12044D01*
X16978Y12019D01*
X16982Y11995D01*
X16989Y11972D01*
X16998Y11950D01*
X17010Y11928D01*
X17024Y11908D01*
X17040Y11890D01*
X17058Y11874D01*
X17078Y11860D01*
X17100Y11848D01*
X17122Y11839D01*
X17145Y11832D01*
X17169Y11828D01*
X17194Y11827D01*
X17218Y11828D01*
X17242Y11832D01*
X17265Y11839D01*
X17288Y11848D01*
X17309Y11860D01*
X17329Y11874D01*
X17347Y11890D01*
X17363Y11908D01*
X17377Y11928D01*
X17389Y11950D01*
X17398Y11972D01*
X17405Y11995D01*
X17409Y12019D01*
X17411Y12044D01*
X17409Y12068D01*
X17405Y12092D01*
X17398Y12115D01*
X17389Y12138D01*
X17377Y12159D01*
X17363Y12179D01*
X17347Y12197D01*
X17329Y12213D01*
X17309Y12227D01*
X17288Y12239D01*
X17265Y12248D01*
X17242Y12255D01*
X17218Y12259D01*
X17194Y12261D01*
D02*
G37*
G36*
X8101Y12212D02*
X8077Y12210D01*
X8053Y12206D01*
X8029Y12200D01*
X8007Y12190D01*
X7986Y12179D01*
X7966Y12165D01*
X7948Y12148D01*
X7932Y12130D01*
X7917Y12110D01*
X7906Y12089D01*
X7896Y12067D01*
X7890Y12043D01*
X7886Y12019D01*
X7884Y11995D01*
X7886Y11971D01*
X7890Y11947D01*
X7896Y11923D01*
X7906Y11901D01*
X7917Y11880D01*
X7932Y11860D01*
X7948Y11842D01*
X7966Y11825D01*
X7986Y11811D01*
X8007Y11800D01*
X8029Y11790D01*
X8053Y11784D01*
X8077Y11779D01*
X8101Y11778D01*
X8125Y11779D01*
X8149Y11784D01*
X8173Y11790D01*
X8195Y11800D01*
X8216Y11811D01*
X8236Y11825D01*
X8254Y11842D01*
X8271Y11860D01*
X8285Y11880D01*
X8296Y11901D01*
X8306Y11923D01*
X8313Y11947D01*
X8317Y11971D01*
X8318Y11995D01*
X8317Y12019D01*
X8313Y12043D01*
X8306Y12067D01*
X8296Y12089D01*
X8285Y12110D01*
X8271Y12130D01*
X8254Y12148D01*
X8236Y12165D01*
X8216Y12179D01*
X8195Y12190D01*
X8173Y12200D01*
X8149Y12206D01*
X8125Y12210D01*
X8101Y12212D01*
D02*
G37*
G36*
X13194Y11953D02*
X13170Y11951D01*
X13146Y11947D01*
X13122Y11941D01*
X13100Y11931D01*
X13079Y11919D01*
X13059Y11905D01*
X13041Y11889D01*
X13025Y11871D01*
X13010Y11851D01*
X12999Y11830D01*
X12989Y11807D01*
X12983Y11784D01*
X12979Y11760D01*
X12977Y11736D01*
X12979Y11712D01*
X12983Y11688D01*
X12989Y11664D01*
X12999Y11642D01*
X13010Y11620D01*
X13025Y11601D01*
X13041Y11582D01*
X13059Y11566D01*
X13079Y11552D01*
X13100Y11540D01*
X13122Y11531D01*
X13146Y11524D01*
X13170Y11520D01*
X13194Y11519D01*
X13218Y11520D01*
X13242Y11524D01*
X13266Y11531D01*
X13288Y11540D01*
X13309Y11552D01*
X13329Y11566D01*
X13347Y11582D01*
X13364Y11601D01*
X13378Y11620D01*
X13389Y11642D01*
X13399Y11664D01*
X13406Y11688D01*
X13410Y11712D01*
X13411Y11736D01*
X13410Y11760D01*
X13406Y11784D01*
X13399Y11807D01*
X13389Y11830D01*
X13378Y11851D01*
X13364Y11871D01*
X13347Y11889D01*
X13329Y11905D01*
X13309Y11919D01*
X13288Y11931D01*
X13266Y11941D01*
X13242Y11947D01*
X13218Y11951D01*
X13194Y11953D01*
D02*
G37*
G36*
X26491Y11779D02*
X26466Y11777D01*
X26442Y11773D01*
X26419Y11767D01*
X26396Y11757D01*
X26375Y11745D01*
X26355Y11731D01*
X26337Y11715D01*
X26321Y11697D01*
X26307Y11677D01*
X26295Y11656D01*
X26286Y11633D01*
X26279Y11610D01*
X26275Y11586D01*
X26274Y11562D01*
X26275Y11538D01*
X26279Y11514D01*
X26286Y11490D01*
X26295Y11468D01*
X26307Y11446D01*
X26321Y11427D01*
X26337Y11408D01*
X26355Y11392D01*
X26375Y11378D01*
X26396Y11366D01*
X26419Y11357D01*
X26442Y11350D01*
X26466Y11346D01*
X26491Y11345D01*
X26515Y11346D01*
X26539Y11350D01*
X26562Y11357D01*
X26585Y11366D01*
X26606Y11378D01*
X26626Y11392D01*
X26644Y11408D01*
X26660Y11427D01*
X26674Y11446D01*
X26686Y11468D01*
X26695Y11490D01*
X26702Y11514D01*
X26706Y11538D01*
X26707Y11562D01*
X26706Y11586D01*
X26702Y11610D01*
X26695Y11633D01*
X26686Y11656D01*
X26674Y11677D01*
X26660Y11697D01*
X26644Y11715D01*
X26626Y11731D01*
X26606Y11745D01*
X26585Y11757D01*
X26562Y11767D01*
X26539Y11773D01*
X26515Y11777D01*
X26491Y11779D01*
D02*
G37*
G36*
X9750Y11404D02*
X9725Y11403D01*
X9701Y11398D01*
X9678Y11392D01*
X9656Y11382D01*
X9634Y11371D01*
X9614Y11357D01*
X9596Y11340D01*
X9580Y11322D01*
X9566Y11302D01*
X9554Y11281D01*
X9545Y11259D01*
X9538Y11235D01*
X9534Y11211D01*
X9533Y11187D01*
X9534Y11163D01*
X9538Y11139D01*
X9545Y11115D01*
X9554Y11093D01*
X9566Y11072D01*
X9580Y11052D01*
X9596Y11034D01*
X9614Y11017D01*
X9634Y11003D01*
X9656Y10992D01*
X9678Y10982D01*
X9701Y10976D01*
X9725Y10971D01*
X9750Y10970D01*
X9774Y10971D01*
X9798Y10976D01*
X9821Y10982D01*
X9844Y10992D01*
X9865Y11003D01*
X9885Y11017D01*
X9903Y11034D01*
X9919Y11052D01*
X9933Y11072D01*
X9945Y11093D01*
X9954Y11115D01*
X9961Y11139D01*
X9965Y11163D01*
X9966Y11187D01*
X9965Y11211D01*
X9961Y11235D01*
X9954Y11259D01*
X9945Y11281D01*
X9933Y11302D01*
X9919Y11322D01*
X9903Y11340D01*
X9885Y11357D01*
X9865Y11371D01*
X9844Y11382D01*
X9821Y11392D01*
X9798Y11398D01*
X9774Y11403D01*
X9750Y11404D01*
D02*
G37*
G36*
X23567Y11272D02*
X23543Y11271D01*
X23519Y11266D01*
X23495Y11260D01*
X23473Y11250D01*
X23451Y11239D01*
X23432Y11225D01*
X23413Y11208D01*
X23397Y11190D01*
X23383Y11170D01*
X23371Y11149D01*
X23362Y11127D01*
X23355Y11103D01*
X23351Y11079D01*
X23350Y11055D01*
X23351Y11031D01*
X23355Y11007D01*
X23362Y10983D01*
X23371Y10961D01*
X23383Y10940D01*
X23397Y10920D01*
X23413Y10902D01*
X23432Y10885D01*
X23451Y10871D01*
X23473Y10860D01*
X23495Y10850D01*
X23519Y10844D01*
X23543Y10839D01*
X23567Y10838D01*
X23591Y10839D01*
X23615Y10844D01*
X23638Y10850D01*
X23661Y10860D01*
X23682Y10871D01*
X23702Y10885D01*
X23720Y10902D01*
X23736Y10920D01*
X23750Y10940D01*
X23762Y10961D01*
X23772Y10983D01*
X23778Y11007D01*
X23782Y11031D01*
X23784Y11055D01*
X23782Y11079D01*
X23778Y11103D01*
X23772Y11127D01*
X23762Y11149D01*
X23750Y11170D01*
X23736Y11190D01*
X23720Y11208D01*
X23702Y11225D01*
X23682Y11239D01*
X23661Y11250D01*
X23638Y11260D01*
X23615Y11266D01*
X23591Y11271D01*
X23567Y11272D01*
D02*
G37*
G36*
X15190Y11264D02*
X15165Y11262D01*
X15141Y11258D01*
X15118Y11252D01*
X15096Y11242D01*
X15074Y11230D01*
X15055Y11216D01*
X15036Y11200D01*
X15020Y11182D01*
X15006Y11162D01*
X14994Y11141D01*
X14985Y11118D01*
X14978Y11095D01*
X14974Y11071D01*
X14973Y11047D01*
X14974Y11023D01*
X14978Y10999D01*
X14985Y10975D01*
X14994Y10953D01*
X15006Y10931D01*
X15020Y10912D01*
X15036Y10894D01*
X15055Y10877D01*
X15074Y10863D01*
X15096Y10851D01*
X15118Y10842D01*
X15141Y10835D01*
X15165Y10831D01*
X15190Y10830D01*
X15214Y10831D01*
X15238Y10835D01*
X15261Y10842D01*
X15284Y10851D01*
X15305Y10863D01*
X15325Y10877D01*
X15343Y10894D01*
X15359Y10912D01*
X15373Y10931D01*
X15385Y10953D01*
X15394Y10975D01*
X15401Y10999D01*
X15405Y11023D01*
X15407Y11047D01*
X15405Y11071D01*
X15401Y11095D01*
X15394Y11118D01*
X15385Y11141D01*
X15373Y11162D01*
X15359Y11182D01*
X15343Y11200D01*
X15325Y11216D01*
X15305Y11230D01*
X15284Y11242D01*
X15261Y11252D01*
X15238Y11258D01*
X15214Y11262D01*
X15190Y11264D01*
D02*
G37*
G36*
X13194Y11052D02*
X13170Y11050D01*
X13146Y11046D01*
X13123Y11040D01*
X13100Y11030D01*
X13079Y11018D01*
X13059Y11004D01*
X13041Y10988D01*
X13025Y10970D01*
X13011Y10950D01*
X12999Y10929D01*
X12989Y10906D01*
X12983Y10883D01*
X12979Y10859D01*
X12977Y10835D01*
X12979Y10811D01*
X12983Y10787D01*
X12989Y10763D01*
X12999Y10741D01*
X13011Y10719D01*
X13025Y10700D01*
X13041Y10681D01*
X13059Y10665D01*
X13079Y10651D01*
X13100Y10639D01*
X13123Y10630D01*
X13146Y10623D01*
X13170Y10619D01*
X13194Y10618D01*
X13218Y10619D01*
X13242Y10623D01*
X13266Y10630D01*
X13288Y10639D01*
X13310Y10651D01*
X13329Y10665D01*
X13348Y10681D01*
X13364Y10700D01*
X13378Y10719D01*
X13390Y10741D01*
X13399Y10763D01*
X13406Y10787D01*
X13410Y10811D01*
X13411Y10835D01*
X13410Y10859D01*
X13406Y10883D01*
X13399Y10906D01*
X13390Y10929D01*
X13378Y10950D01*
X13364Y10970D01*
X13348Y10988D01*
X13329Y11004D01*
X13310Y11018D01*
X13288Y11030D01*
X13266Y11040D01*
X13242Y11046D01*
X13218Y11050D01*
X13194Y11052D01*
D02*
G37*
G36*
X2799Y11176D02*
X2770Y11175D01*
X2741Y11171D01*
X2713Y11165D01*
X2685Y11156D01*
X2658Y11145D01*
X2632Y11132D01*
X2607Y11116D01*
X2584Y11098D01*
X2563Y11078D01*
X2543Y11057D01*
X2525Y11034D01*
X2509Y11009D01*
X2496Y10983D01*
X2485Y10956D01*
X2476Y10928D01*
X2470Y10900D01*
X2466Y10871D01*
X2465Y10841D01*
X2466Y10812D01*
X2470Y10783D01*
X2476Y10755D01*
X2485Y10727D01*
X2496Y10700D01*
X2509Y10674D01*
X2525Y10649D01*
X2543Y10626D01*
X2563Y10605D01*
X2584Y10585D01*
X2607Y10567D01*
X2632Y10551D01*
X2658Y10538D01*
X2685Y10527D01*
X2713Y10518D01*
X2741Y10512D01*
X2770Y10508D01*
X2799Y10506D01*
X2829Y10508D01*
X2858Y10512D01*
X2886Y10518D01*
X2914Y10527D01*
X2941Y10538D01*
X2967Y10551D01*
X2992Y10567D01*
X3015Y10585D01*
X3036Y10605D01*
X3056Y10626D01*
X3074Y10649D01*
X3090Y10674D01*
X3103Y10700D01*
X3114Y10727D01*
X3123Y10755D01*
X3129Y10783D01*
X3133Y10812D01*
X3134Y10841D01*
X3133Y10871D01*
X3129Y10900D01*
X3123Y10928D01*
X3114Y10956D01*
X3103Y10983D01*
X3090Y11009D01*
X3074Y11034D01*
X3056Y11057D01*
X3036Y11078D01*
X3015Y11098D01*
X2992Y11116D01*
X2967Y11132D01*
X2941Y11145D01*
X2914Y11156D01*
X2886Y11165D01*
X2858Y11171D01*
X2829Y11175D01*
X2799Y11176D01*
D02*
G37*
G36*
X2849Y10406D02*
Y10104D01*
X3152D01*
X3150Y10116D01*
X3144Y10146D01*
X3134Y10176D01*
X3122Y10205D01*
X3108Y10232D01*
X3091Y10258D01*
X3072Y10283D01*
X3051Y10306D01*
X3028Y10327D01*
X3004Y10346D01*
X2978Y10363D01*
X2950Y10377D01*
X2921Y10389D01*
X2892Y10398D01*
X2861Y10405D01*
X2849Y10406D01*
D02*
G37*
G36*
X2749Y10406D02*
X2738Y10405D01*
X2707Y10398D01*
X2678Y10389D01*
X2649Y10377D01*
X2621Y10363D01*
X2595Y10346D01*
X2571Y10327D01*
X2548Y10306D01*
X2527Y10283D01*
X2508Y10258D01*
X2491Y10232D01*
X2477Y10205D01*
X2465Y10176D01*
X2455Y10146D01*
X2449Y10116D01*
X2447Y10104D01*
X2749D01*
Y10406D01*
D02*
G37*
G36*
X9750Y10538D02*
X9725Y10536D01*
X9701Y10532D01*
X9678Y10526D01*
X9656Y10516D01*
X9634Y10504D01*
X9614Y10490D01*
X9596Y10474D01*
X9580Y10456D01*
X9566Y10436D01*
X9554Y10415D01*
X9545Y10392D01*
X9538Y10369D01*
X9534Y10345D01*
X9533Y10321D01*
X9534Y10297D01*
X9538Y10273D01*
X9545Y10249D01*
X9554Y10227D01*
X9566Y10205D01*
X9580Y10186D01*
X9596Y10167D01*
X9614Y10151D01*
X9634Y10137D01*
X9656Y10125D01*
X9678Y10116D01*
X9701Y10109D01*
X9725Y10105D01*
X9750Y10104D01*
X9774Y10105D01*
X9798Y10109D01*
X9821Y10116D01*
X9844Y10125D01*
X9865Y10137D01*
X9885Y10151D01*
X9903Y10167D01*
X9919Y10186D01*
X9933Y10205D01*
X9945Y10227D01*
X9954Y10249D01*
X9961Y10273D01*
X9965Y10297D01*
X9966Y10321D01*
X9965Y10345D01*
X9961Y10369D01*
X9954Y10392D01*
X9945Y10415D01*
X9933Y10436D01*
X9919Y10456D01*
X9903Y10474D01*
X9885Y10490D01*
X9865Y10504D01*
X9844Y10516D01*
X9821Y10526D01*
X9798Y10532D01*
X9774Y10536D01*
X9750Y10538D01*
D02*
G37*
G36*
X12855Y10398D02*
X12828Y10396D01*
X12802Y10392D01*
X12777Y10384D01*
X12752Y10374D01*
X12729Y10361D01*
X12707Y10346D01*
X12687Y10328D01*
X12670Y10309D01*
X12654Y10287D01*
X12642Y10264D01*
X12631Y10239D01*
X12624Y10214D01*
X12620Y10188D01*
X12618Y10161D01*
X12620Y10135D01*
X12624Y10108D01*
X12631Y10083D01*
X12642Y10058D01*
X12654Y10035D01*
X12670Y10014D01*
X12687Y9994D01*
X12707Y9976D01*
X12729Y9961D01*
X12752Y9948D01*
X12777Y9938D01*
X12802Y9930D01*
X12828Y9926D01*
X12855Y9924D01*
X12881Y9926D01*
X12907Y9930D01*
X12933Y9938D01*
X12957Y9948D01*
X12981Y9961D01*
X13002Y9976D01*
X13022Y9994D01*
X13040Y10014D01*
X13055Y10035D01*
X13068Y10058D01*
X13078Y10083D01*
X13085Y10108D01*
X13090Y10135D01*
X13091Y10161D01*
X13090Y10188D01*
X13085Y10214D01*
X13078Y10239D01*
X13068Y10264D01*
X13055Y10287D01*
X13040Y10309D01*
X13022Y10328D01*
X13002Y10346D01*
X12981Y10361D01*
X12957Y10374D01*
X12933Y10384D01*
X12907Y10392D01*
X12881Y10396D01*
X12855Y10398D01*
D02*
G37*
G36*
X21452Y10274D02*
X21427Y10272D01*
X21403Y10268D01*
X21380Y10261D01*
X21357Y10252D01*
X21336Y10240D01*
X21316Y10226D01*
X21298Y10210D01*
X21282Y10192D01*
X21268Y10172D01*
X21256Y10151D01*
X21247Y10128D01*
X21240Y10105D01*
X21236Y10081D01*
X21235Y10057D01*
X21236Y10032D01*
X21240Y10008D01*
X21247Y9985D01*
X21256Y9963D01*
X21268Y9941D01*
X21282Y9921D01*
X21298Y9903D01*
X21316Y9887D01*
X21336Y9873D01*
X21357Y9861D01*
X21380Y9852D01*
X21403Y9845D01*
X21427Y9841D01*
X21452Y9840D01*
X21476Y9841D01*
X21500Y9845D01*
X21523Y9852D01*
X21546Y9861D01*
X21567Y9873D01*
X21587Y9887D01*
X21605Y9903D01*
X21621Y9921D01*
X21635Y9941D01*
X21647Y9963D01*
X21656Y9985D01*
X21663Y10008D01*
X21667Y10032D01*
X21668Y10057D01*
X21667Y10081D01*
X21663Y10105D01*
X21656Y10128D01*
X21647Y10151D01*
X21635Y10172D01*
X21621Y10192D01*
X21605Y10210D01*
X21587Y10226D01*
X21567Y10240D01*
X21546Y10252D01*
X21523Y10261D01*
X21500Y10268D01*
X21476Y10272D01*
X21452Y10274D01*
D02*
G37*
G36*
X23567Y10272D02*
X23543Y10271D01*
X23519Y10266D01*
X23495Y10260D01*
X23473Y10250D01*
X23451Y10239D01*
X23432Y10225D01*
X23413Y10208D01*
X23397Y10190D01*
X23383Y10170D01*
X23371Y10149D01*
X23362Y10127D01*
X23355Y10103D01*
X23351Y10079D01*
X23350Y10055D01*
X23351Y10031D01*
X23355Y10007D01*
X23362Y9983D01*
X23371Y9961D01*
X23383Y9940D01*
X23397Y9920D01*
X23413Y9902D01*
X23432Y9885D01*
X23451Y9871D01*
X23473Y9860D01*
X23495Y9850D01*
X23519Y9844D01*
X23543Y9839D01*
X23567Y9838D01*
X23591Y9839D01*
X23615Y9844D01*
X23638Y9850D01*
X23661Y9860D01*
X23682Y9871D01*
X23702Y9885D01*
X23720Y9902D01*
X23736Y9920D01*
X23750Y9940D01*
X23762Y9961D01*
X23772Y9983D01*
X23778Y10007D01*
X23782Y10031D01*
X23784Y10055D01*
X23782Y10079D01*
X23778Y10103D01*
X23772Y10127D01*
X23762Y10149D01*
X23750Y10170D01*
X23736Y10190D01*
X23720Y10208D01*
X23702Y10225D01*
X23682Y10239D01*
X23661Y10250D01*
X23638Y10260D01*
X23615Y10266D01*
X23591Y10271D01*
X23567Y10272D01*
D02*
G37*
G36*
X3152Y10004D02*
X2849D01*
Y9702D01*
X2861Y9703D01*
X2892Y9710D01*
X2921Y9719D01*
X2950Y9731D01*
X2978Y9746D01*
X3004Y9762D01*
X3028Y9781D01*
X3051Y9802D01*
X3072Y9825D01*
X3091Y9850D01*
X3108Y9876D01*
X3122Y9904D01*
X3134Y9932D01*
X3144Y9962D01*
X3150Y9992D01*
X3152Y10004D01*
D02*
G37*
G36*
X2749D02*
X2447D01*
X2449Y9992D01*
X2455Y9962D01*
X2465Y9932D01*
X2477Y9904D01*
X2491Y9876D01*
X2508Y9850D01*
X2527Y9825D01*
X2548Y9802D01*
X2571Y9781D01*
X2595Y9762D01*
X2621Y9746D01*
X2649Y9731D01*
X2678Y9719D01*
X2707Y9710D01*
X2738Y9703D01*
X2749Y9702D01*
Y10004D01*
D02*
G37*
G36*
X8101Y10081D02*
X8077Y10080D01*
X8053Y10076D01*
X8029Y10069D01*
X8007Y10060D01*
X7986Y10048D01*
X7966Y10034D01*
X7948Y10018D01*
X7932Y9999D01*
X7917Y9980D01*
X7906Y9958D01*
X7896Y9936D01*
X7890Y9912D01*
X7886Y9889D01*
X7884Y9864D01*
X7886Y9840D01*
X7890Y9816D01*
X7896Y9793D01*
X7906Y9770D01*
X7917Y9749D01*
X7932Y9729D01*
X7948Y9711D01*
X7966Y9695D01*
X7986Y9681D01*
X8007Y9669D01*
X8029Y9660D01*
X8053Y9653D01*
X8077Y9649D01*
X8101Y9647D01*
X8125Y9649D01*
X8149Y9653D01*
X8173Y9660D01*
X8195Y9669D01*
X8216Y9681D01*
X8236Y9695D01*
X8254Y9711D01*
X8271Y9729D01*
X8285Y9749D01*
X8296Y9770D01*
X8306Y9793D01*
X8313Y9816D01*
X8317Y9840D01*
X8318Y9864D01*
X8317Y9889D01*
X8313Y9912D01*
X8306Y9936D01*
X8296Y9958D01*
X8285Y9980D01*
X8271Y9999D01*
X8254Y10018D01*
X8236Y10034D01*
X8216Y10048D01*
X8195Y10060D01*
X8173Y10069D01*
X8149Y10076D01*
X8125Y10080D01*
X8101Y10081D01*
D02*
G37*
G36*
X12855Y9807D02*
X12828Y9805D01*
X12802Y9801D01*
X12777Y9793D01*
X12752Y9783D01*
X12729Y9770D01*
X12707Y9755D01*
X12687Y9737D01*
X12670Y9718D01*
X12654Y9696D01*
X12642Y9673D01*
X12631Y9648D01*
X12624Y9623D01*
X12620Y9597D01*
X12618Y9570D01*
X12620Y9544D01*
X12624Y9517D01*
X12631Y9492D01*
X12642Y9467D01*
X12654Y9444D01*
X12670Y9423D01*
X12687Y9403D01*
X12707Y9385D01*
X12729Y9370D01*
X12752Y9357D01*
X12777Y9347D01*
X12802Y9339D01*
X12828Y9335D01*
X12855Y9333D01*
X12881Y9335D01*
X12907Y9339D01*
X12933Y9347D01*
X12957Y9357D01*
X12981Y9370D01*
X13002Y9385D01*
X13022Y9403D01*
X13040Y9423D01*
X13055Y9444D01*
X13068Y9467D01*
X13078Y9492D01*
X13085Y9517D01*
X13090Y9544D01*
X13091Y9570D01*
X13090Y9597D01*
X13085Y9623D01*
X13078Y9648D01*
X13068Y9673D01*
X13055Y9696D01*
X13040Y9718D01*
X13022Y9737D01*
X13002Y9755D01*
X12981Y9770D01*
X12957Y9783D01*
X12933Y9793D01*
X12907Y9801D01*
X12881Y9805D01*
X12855Y9807D01*
D02*
G37*
G36*
X10097Y9625D02*
X10073Y9623D01*
X10049Y9619D01*
X10026Y9613D01*
X10003Y9603D01*
X9982Y9592D01*
X9962Y9577D01*
X9944Y9561D01*
X9928Y9543D01*
X9914Y9523D01*
X9902Y9502D01*
X9893Y9480D01*
X9886Y9456D01*
X9882Y9432D01*
X9880Y9408D01*
X9882Y9384D01*
X9886Y9360D01*
X9893Y9336D01*
X9902Y9314D01*
X9914Y9292D01*
X9928Y9273D01*
X9944Y9255D01*
X9962Y9238D01*
X9982Y9224D01*
X10003Y9212D01*
X10026Y9203D01*
X10049Y9196D01*
X10073Y9192D01*
X10097Y9191D01*
X10122Y9192D01*
X10145Y9196D01*
X10169Y9203D01*
X10191Y9212D01*
X10213Y9224D01*
X10232Y9238D01*
X10251Y9255D01*
X10267Y9273D01*
X10281Y9292D01*
X10293Y9314D01*
X10302Y9336D01*
X10309Y9360D01*
X10313Y9384D01*
X10314Y9408D01*
X10313Y9432D01*
X10309Y9456D01*
X10302Y9480D01*
X10293Y9502D01*
X10281Y9523D01*
X10267Y9543D01*
X10251Y9561D01*
X10232Y9577D01*
X10213Y9592D01*
X10191Y9603D01*
X10169Y9613D01*
X10145Y9619D01*
X10122Y9623D01*
X10097Y9625D01*
D02*
G37*
G36*
X10665Y9422D02*
X10640Y9420D01*
X10616Y9416D01*
X10593Y9409D01*
X10570Y9400D01*
X10549Y9388D01*
X10529Y9374D01*
X10511Y9358D01*
X10495Y9340D01*
X10481Y9320D01*
X10469Y9299D01*
X10460Y9276D01*
X10453Y9253D01*
X10449Y9229D01*
X10448Y9205D01*
X10449Y9180D01*
X10453Y9156D01*
X10460Y9133D01*
X10469Y9111D01*
X10481Y9089D01*
X10495Y9070D01*
X10511Y9051D01*
X10529Y9035D01*
X10549Y9021D01*
X10570Y9009D01*
X10593Y9000D01*
X10616Y8993D01*
X10640Y8989D01*
X10665Y8988D01*
X10689Y8989D01*
X10713Y8993D01*
X10736Y9000D01*
X10759Y9009D01*
X10780Y9021D01*
X10800Y9035D01*
X10818Y9051D01*
X10834Y9070D01*
X10848Y9089D01*
X10860Y9111D01*
X10869Y9133D01*
X10876Y9156D01*
X10880Y9180D01*
X10881Y9205D01*
X10880Y9229D01*
X10876Y9253D01*
X10869Y9276D01*
X10860Y9299D01*
X10848Y9320D01*
X10834Y9340D01*
X10818Y9358D01*
X10800Y9374D01*
X10780Y9388D01*
X10759Y9400D01*
X10736Y9409D01*
X10713Y9416D01*
X10689Y9420D01*
X10665Y9422D01*
D02*
G37*
G36*
X15190Y9053D02*
X15165Y9052D01*
X15141Y9048D01*
X15118Y9041D01*
X15096Y9032D01*
X15074Y9020D01*
X15055Y9006D01*
X15036Y8990D01*
X15020Y8971D01*
X15006Y8952D01*
X14994Y8930D01*
X14985Y8908D01*
X14978Y8885D01*
X14974Y8861D01*
X14973Y8836D01*
X14974Y8812D01*
X14978Y8788D01*
X14985Y8765D01*
X14994Y8742D01*
X15006Y8721D01*
X15020Y8701D01*
X15036Y8683D01*
X15055Y8667D01*
X15074Y8653D01*
X15096Y8641D01*
X15118Y8632D01*
X15141Y8625D01*
X15165Y8621D01*
X15190Y8619D01*
X15214Y8621D01*
X15238Y8625D01*
X15261Y8632D01*
X15284Y8641D01*
X15305Y8653D01*
X15325Y8667D01*
X15343Y8683D01*
X15359Y8701D01*
X15373Y8721D01*
X15385Y8742D01*
X15394Y8765D01*
X15401Y8788D01*
X15405Y8812D01*
X15407Y8836D01*
X15405Y8861D01*
X15401Y8885D01*
X15394Y8908D01*
X15385Y8930D01*
X15373Y8952D01*
X15359Y8971D01*
X15343Y8990D01*
X15325Y9006D01*
X15305Y9020D01*
X15284Y9032D01*
X15261Y9041D01*
X15238Y9048D01*
X15214Y9052D01*
X15190Y9053D01*
D02*
G37*
G36*
X22465Y8752D02*
X22439Y8751D01*
X22413Y8746D01*
X22387Y8739D01*
X22363Y8729D01*
X22339Y8716D01*
X22318Y8701D01*
X22298Y8683D01*
X22280Y8663D01*
X22265Y8642D01*
X22252Y8618D01*
X22242Y8594D01*
X22235Y8568D01*
X22230Y8542D01*
X22229Y8516D01*
X22230Y8489D01*
X22235Y8463D01*
X22242Y8438D01*
X22252Y8413D01*
X22265Y8390D01*
X22280Y8368D01*
X22298Y8348D01*
X22318Y8331D01*
X22339Y8315D01*
X22363Y8303D01*
X22387Y8292D01*
X22413Y8285D01*
X22439Y8281D01*
X22465Y8279D01*
X22492Y8281D01*
X22518Y8285D01*
X22543Y8292D01*
X22568Y8303D01*
X22591Y8315D01*
X22613Y8331D01*
X22633Y8348D01*
X22650Y8368D01*
X22666Y8390D01*
X22679Y8413D01*
X22689Y8438D01*
X22696Y8463D01*
X22700Y8489D01*
X22702Y8516D01*
X22700Y8542D01*
X22696Y8568D01*
X22689Y8594D01*
X22679Y8618D01*
X22666Y8642D01*
X22650Y8663D01*
X22633Y8683D01*
X22613Y8701D01*
X22591Y8716D01*
X22568Y8729D01*
X22543Y8739D01*
X22518Y8746D01*
X22492Y8751D01*
X22465Y8752D01*
D02*
G37*
G36*
X7056Y8611D02*
X7032Y8610D01*
X7008Y8606D01*
X6984Y8599D01*
X6962Y8589D01*
X6941Y8578D01*
X6921Y8564D01*
X6903Y8547D01*
X6886Y8529D01*
X6872Y8509D01*
X6861Y8488D01*
X6851Y8466D01*
X6844Y8442D01*
X6840Y8418D01*
X6839Y8394D01*
X6840Y8370D01*
X6844Y8346D01*
X6851Y8322D01*
X6861Y8300D01*
X6872Y8279D01*
X6886Y8259D01*
X6903Y8241D01*
X6921Y8225D01*
X6941Y8210D01*
X6962Y8199D01*
X6984Y8189D01*
X7008Y8183D01*
X7032Y8179D01*
X7056Y8177D01*
X7080Y8179D01*
X7104Y8183D01*
X7128Y8189D01*
X7150Y8199D01*
X7171Y8210D01*
X7191Y8225D01*
X7209Y8241D01*
X7225Y8259D01*
X7240Y8279D01*
X7251Y8300D01*
X7261Y8322D01*
X7267Y8346D01*
X7271Y8370D01*
X7273Y8394D01*
X7271Y8418D01*
X7267Y8442D01*
X7261Y8466D01*
X7251Y8488D01*
X7240Y8509D01*
X7225Y8529D01*
X7209Y8547D01*
X7191Y8564D01*
X7171Y8578D01*
X7150Y8589D01*
X7128Y8599D01*
X7104Y8606D01*
X7080Y8610D01*
X7056Y8611D01*
D02*
G37*
G36*
X9750Y8412D02*
X9725Y8410D01*
X9701Y8406D01*
X9678Y8400D01*
X9656Y8390D01*
X9634Y8379D01*
X9614Y8364D01*
X9596Y8348D01*
X9580Y8330D01*
X9566Y8310D01*
X9554Y8289D01*
X9545Y8267D01*
X9538Y8243D01*
X9534Y8219D01*
X9533Y8195D01*
X9534Y8171D01*
X9538Y8147D01*
X9545Y8123D01*
X9554Y8101D01*
X9566Y8079D01*
X9580Y8060D01*
X9596Y8042D01*
X9614Y8025D01*
X9634Y8011D01*
X9656Y7999D01*
X9678Y7990D01*
X9701Y7983D01*
X9725Y7979D01*
X9750Y7978D01*
X9774Y7979D01*
X9798Y7983D01*
X9821Y7990D01*
X9844Y7999D01*
X9865Y8011D01*
X9885Y8025D01*
X9903Y8042D01*
X9919Y8060D01*
X9933Y8079D01*
X9945Y8101D01*
X9954Y8123D01*
X9961Y8147D01*
X9965Y8171D01*
X9966Y8195D01*
X9965Y8219D01*
X9961Y8243D01*
X9954Y8267D01*
X9945Y8289D01*
X9933Y8310D01*
X9919Y8330D01*
X9903Y8348D01*
X9885Y8364D01*
X9865Y8379D01*
X9844Y8390D01*
X9821Y8400D01*
X9798Y8406D01*
X9774Y8410D01*
X9750Y8412D01*
D02*
G37*
G36*
X10138Y8084D02*
X10114Y8082D01*
X10090Y8078D01*
X10066Y8072D01*
X10044Y8062D01*
X10022Y8051D01*
X10003Y8036D01*
X9984Y8020D01*
X9968Y8002D01*
X9954Y7982D01*
X9942Y7961D01*
X9933Y7939D01*
X9926Y7915D01*
X9922Y7891D01*
X9921Y7867D01*
X9922Y7843D01*
X9926Y7819D01*
X9933Y7795D01*
X9890Y7770D01*
X9885Y7774D01*
X9865Y7788D01*
X9844Y7800D01*
X9821Y7809D01*
X9798Y7816D01*
X9774Y7820D01*
X9750Y7821D01*
X9725Y7820D01*
X9701Y7816D01*
X9678Y7809D01*
X9656Y7800D01*
X9634Y7788D01*
X9614Y7774D01*
X9596Y7758D01*
X9580Y7740D01*
X9566Y7720D01*
X9554Y7698D01*
X9545Y7676D01*
X9538Y7653D01*
X9534Y7629D01*
X9533Y7604D01*
X9534Y7580D01*
X9538Y7556D01*
X9545Y7533D01*
X9554Y7510D01*
X9566Y7489D01*
X9580Y7469D01*
X9596Y7451D01*
X9614Y7435D01*
X9634Y7421D01*
X9656Y7409D01*
X9678Y7400D01*
X9701Y7393D01*
X9725Y7389D01*
X9750Y7387D01*
X9774Y7389D01*
X9798Y7393D01*
X9821Y7400D01*
X9844Y7409D01*
X9865Y7421D01*
X9885Y7435D01*
X9903Y7451D01*
X9919Y7469D01*
X9933Y7489D01*
X9945Y7510D01*
X9954Y7533D01*
X9961Y7556D01*
X9965Y7580D01*
X9966Y7604D01*
X9965Y7629D01*
X9961Y7653D01*
X9954Y7676D01*
X9998Y7702D01*
X10003Y7697D01*
X10022Y7683D01*
X10044Y7672D01*
X10066Y7662D01*
X10090Y7655D01*
X10114Y7651D01*
X10138Y7650D01*
X10162Y7651D01*
X10186Y7655D01*
X10209Y7662D01*
X10232Y7672D01*
X10253Y7683D01*
X10273Y7697D01*
X10291Y7714D01*
X10307Y7732D01*
X10321Y7752D01*
X10333Y7773D01*
X10343Y7795D01*
X10349Y7819D01*
X10353Y7843D01*
X10355Y7867D01*
X10353Y7891D01*
X10349Y7915D01*
X10343Y7939D01*
X10333Y7961D01*
X10321Y7982D01*
X10307Y8002D01*
X10291Y8020D01*
X10273Y8036D01*
X10253Y8051D01*
X10232Y8062D01*
X10209Y8072D01*
X10186Y8078D01*
X10162Y8082D01*
X10138Y8084D01*
D02*
G37*
G36*
X8101Y7956D02*
X8077Y7955D01*
X8053Y7951D01*
X8029Y7944D01*
X8007Y7935D01*
X7986Y7923D01*
X7966Y7909D01*
X7948Y7893D01*
X7932Y7875D01*
X7917Y7855D01*
X7906Y7834D01*
X7896Y7811D01*
X7890Y7788D01*
X7886Y7764D01*
X7884Y7739D01*
X7886Y7715D01*
X7890Y7691D01*
X7896Y7668D01*
X7906Y7645D01*
X7917Y7624D01*
X7932Y7604D01*
X7948Y7586D01*
X7966Y7570D01*
X7986Y7556D01*
X8007Y7544D01*
X8029Y7535D01*
X8053Y7528D01*
X8077Y7524D01*
X8101Y7523D01*
X8125Y7524D01*
X8149Y7528D01*
X8173Y7535D01*
X8195Y7544D01*
X8216Y7556D01*
X8236Y7570D01*
X8254Y7586D01*
X8271Y7604D01*
X8285Y7624D01*
X8296Y7645D01*
X8306Y7668D01*
X8313Y7691D01*
X8317Y7715D01*
X8318Y7739D01*
X8317Y7764D01*
X8313Y7788D01*
X8306Y7811D01*
X8296Y7834D01*
X8285Y7855D01*
X8271Y7875D01*
X8254Y7893D01*
X8236Y7909D01*
X8216Y7923D01*
X8195Y7935D01*
X8173Y7944D01*
X8149Y7951D01*
X8125Y7955D01*
X8101Y7956D01*
D02*
G37*
G36*
X10665Y7881D02*
X10640Y7880D01*
X10616Y7876D01*
X10593Y7869D01*
X10570Y7860D01*
X10549Y7848D01*
X10529Y7834D01*
X10511Y7818D01*
X10495Y7799D01*
X10481Y7780D01*
X10469Y7758D01*
X10460Y7736D01*
X10453Y7712D01*
X10449Y7688D01*
X10448Y7664D01*
X10449Y7640D01*
X10453Y7616D01*
X10460Y7593D01*
X10469Y7570D01*
X10481Y7549D01*
X10495Y7529D01*
X10511Y7511D01*
X10529Y7495D01*
X10549Y7481D01*
X10570Y7469D01*
X10593Y7459D01*
X10616Y7453D01*
X10640Y7449D01*
X10665Y7447D01*
X10689Y7449D01*
X10713Y7453D01*
X10736Y7459D01*
X10759Y7469D01*
X10780Y7481D01*
X10800Y7495D01*
X10818Y7511D01*
X10834Y7529D01*
X10848Y7549D01*
X10860Y7570D01*
X10869Y7593D01*
X10876Y7616D01*
X10880Y7640D01*
X10881Y7664D01*
X10880Y7688D01*
X10876Y7712D01*
X10869Y7736D01*
X10860Y7758D01*
X10848Y7780D01*
X10834Y7799D01*
X10818Y7818D01*
X10800Y7834D01*
X10780Y7848D01*
X10759Y7860D01*
X10736Y7869D01*
X10713Y7876D01*
X10689Y7880D01*
X10665Y7881D01*
D02*
G37*
G36*
X2809Y7707D02*
X2780Y7706D01*
X2751Y7702D01*
X2722Y7696D01*
X2694Y7687D01*
X2667Y7676D01*
X2641Y7662D01*
X2617Y7646D01*
X2594Y7629D01*
X2572Y7609D01*
X2552Y7587D01*
X2534Y7564D01*
X2519Y7539D01*
X2505Y7514D01*
X2494Y7487D01*
X2485Y7459D01*
X2479Y7430D01*
X2475Y7401D01*
X2474Y7372D01*
X2475Y7343D01*
X2479Y7314D01*
X2485Y7285D01*
X2494Y7257D01*
X2505Y7230D01*
X2519Y7205D01*
X2534Y7180D01*
X2552Y7157D01*
X2572Y7135D01*
X2594Y7115D01*
X2617Y7098D01*
X2641Y7082D01*
X2667Y7068D01*
X2694Y7057D01*
X2722Y7048D01*
X2751Y7042D01*
X2780Y7038D01*
X2809Y7037D01*
X2838Y7038D01*
X2867Y7042D01*
X2896Y7048D01*
X2923Y7057D01*
X2950Y7068D01*
X2976Y7082D01*
X3001Y7098D01*
X3024Y7115D01*
X3046Y7135D01*
X3065Y7157D01*
X3083Y7180D01*
X3099Y7205D01*
X3112Y7230D01*
X3124Y7257D01*
X3132Y7285D01*
X3139Y7314D01*
X3143Y7343D01*
X3144Y7372D01*
X3143Y7401D01*
X3139Y7430D01*
X3132Y7459D01*
X3124Y7487D01*
X3112Y7514D01*
X3099Y7539D01*
X3083Y7564D01*
X3065Y7587D01*
X3046Y7609D01*
X3024Y7629D01*
X3001Y7646D01*
X2976Y7662D01*
X2950Y7676D01*
X2923Y7687D01*
X2896Y7696D01*
X2867Y7702D01*
X2838Y7706D01*
X2809Y7707D01*
D02*
G37*
G36*
X2859Y6937D02*
Y6635D01*
X3161D01*
X3160Y6646D01*
X3153Y6677D01*
X3144Y6706D01*
X3132Y6735D01*
X3117Y6763D01*
X3101Y6789D01*
X3082Y6814D01*
X3061Y6837D01*
X3038Y6858D01*
X3013Y6876D01*
X2987Y6893D01*
X2959Y6907D01*
X2931Y6919D01*
X2901Y6929D01*
X2871Y6935D01*
X2859Y6937D01*
D02*
G37*
G36*
X2759Y6937D02*
X2747Y6935D01*
X2717Y6929D01*
X2687Y6919D01*
X2658Y6907D01*
X2631Y6893D01*
X2605Y6876D01*
X2580Y6858D01*
X2557Y6837D01*
X2536Y6814D01*
X2517Y6789D01*
X2500Y6763D01*
X2486Y6735D01*
X2474Y6706D01*
X2465Y6677D01*
X2458Y6646D01*
X2456Y6635D01*
X2759D01*
Y6937D01*
D02*
G37*
G36*
X24777Y7068D02*
X24748Y7067D01*
X24719Y7063D01*
X24690Y7057D01*
X24662Y7048D01*
X24635Y7037D01*
X24610Y7023D01*
X24585Y7007D01*
X24562Y6990D01*
X24540Y6970D01*
X24520Y6948D01*
X24503Y6925D01*
X24487Y6900D01*
X24473Y6875D01*
X24462Y6848D01*
X24453Y6820D01*
X24447Y6791D01*
X24443Y6762D01*
X24442Y6733D01*
X24443Y6704D01*
X24447Y6675D01*
X24453Y6646D01*
X24462Y6618D01*
X24473Y6591D01*
X24487Y6566D01*
X24503Y6541D01*
X24520Y6518D01*
X24540Y6496D01*
X24562Y6476D01*
X24585Y6459D01*
X24610Y6443D01*
X24635Y6429D01*
X24662Y6418D01*
X24690Y6409D01*
X24719Y6403D01*
X24748Y6399D01*
X24777Y6398D01*
X24806Y6399D01*
X24835Y6403D01*
X24864Y6409D01*
X24892Y6418D01*
X24919Y6429D01*
X24945Y6443D01*
X24969Y6459D01*
X24992Y6476D01*
X25014Y6496D01*
X25034Y6518D01*
X25051Y6541D01*
X25067Y6566D01*
X25081Y6591D01*
X25092Y6618D01*
X25101Y6646D01*
X25107Y6675D01*
X25111Y6704D01*
X25112Y6733D01*
X25111Y6762D01*
X25107Y6791D01*
X25101Y6820D01*
X25092Y6848D01*
X25081Y6875D01*
X25067Y6900D01*
X25051Y6925D01*
X25034Y6948D01*
X25014Y6970D01*
X24992Y6990D01*
X24969Y7007D01*
X24945Y7023D01*
X24919Y7037D01*
X24892Y7048D01*
X24864Y7057D01*
X24835Y7063D01*
X24806Y7067D01*
X24777Y7068D01*
D02*
G37*
G36*
X11192Y6746D02*
X11168Y6744D01*
X11144Y6740D01*
X11121Y6733D01*
X11098Y6724D01*
X11077Y6712D01*
X11057Y6698D01*
X11039Y6682D01*
X11023Y6664D01*
X11008Y6644D01*
X10997Y6623D01*
X10987Y6600D01*
X10981Y6577D01*
X10977Y6553D01*
X10975Y6529D01*
X10977Y6504D01*
X10981Y6480D01*
X10987Y6457D01*
X10997Y6435D01*
X11008Y6413D01*
X11023Y6394D01*
X11039Y6375D01*
X11057Y6359D01*
X11077Y6345D01*
X11098Y6333D01*
X11121Y6324D01*
X11144Y6317D01*
X11168Y6313D01*
X11192Y6312D01*
X11216Y6313D01*
X11240Y6317D01*
X11264Y6324D01*
X11286Y6333D01*
X11308Y6345D01*
X11327Y6359D01*
X11345Y6375D01*
X11362Y6394D01*
X11376Y6413D01*
X11388Y6435D01*
X11397Y6457D01*
X11404Y6480D01*
X11408Y6504D01*
X11409Y6529D01*
X11408Y6553D01*
X11404Y6577D01*
X11397Y6600D01*
X11388Y6623D01*
X11376Y6644D01*
X11362Y6664D01*
X11345Y6682D01*
X11327Y6698D01*
X11308Y6712D01*
X11286Y6724D01*
X11264Y6733D01*
X11240Y6740D01*
X11216Y6744D01*
X11192Y6746D01*
D02*
G37*
G36*
X2759Y6535D02*
X2456D01*
X2458Y6523D01*
X2465Y6492D01*
X2474Y6463D01*
X2486Y6434D01*
X2500Y6406D01*
X2517Y6380D01*
X2536Y6356D01*
X2557Y6333D01*
X2580Y6312D01*
X2605Y6293D01*
X2631Y6276D01*
X2658Y6262D01*
X2687Y6250D01*
X2717Y6241D01*
X2747Y6234D01*
X2759Y6232D01*
Y6535D01*
D02*
G37*
G36*
X3161D02*
X2859D01*
Y6232D01*
X2871Y6234D01*
X2901Y6241D01*
X2931Y6250D01*
X2959Y6262D01*
X2987Y6276D01*
X3013Y6293D01*
X3038Y6312D01*
X3061Y6333D01*
X3082Y6356D01*
X3101Y6380D01*
X3117Y6406D01*
X3132Y6434D01*
X3144Y6463D01*
X3153Y6492D01*
X3160Y6523D01*
X3161Y6535D01*
D02*
G37*
G36*
X5393Y6563D02*
X5367Y6561D01*
X5341Y6557D01*
X5315Y6549D01*
X5291Y6539D01*
X5267Y6526D01*
X5246Y6511D01*
X5226Y6493D01*
X5208Y6474D01*
X5193Y6452D01*
X5180Y6429D01*
X5170Y6404D01*
X5163Y6379D01*
X5158Y6352D01*
X5157Y6326D01*
X5158Y6299D01*
X5163Y6273D01*
X5170Y6248D01*
X5180Y6223D01*
X5193Y6200D01*
X5208Y6178D01*
X5226Y6159D01*
X5246Y6141D01*
X5267Y6126D01*
X5291Y6113D01*
X5315Y6103D01*
X5341Y6095D01*
X5367Y6091D01*
X5393Y6089D01*
X5420Y6091D01*
X5446Y6095D01*
X5471Y6103D01*
X5496Y6113D01*
X5519Y6126D01*
X5541Y6141D01*
X5561Y6159D01*
X5578Y6178D01*
X5594Y6200D01*
X5606Y6223D01*
X5617Y6248D01*
X5624Y6273D01*
X5628Y6299D01*
X5630Y6326D01*
X5628Y6352D01*
X5624Y6379D01*
X5617Y6404D01*
X5606Y6429D01*
X5594Y6452D01*
X5578Y6474D01*
X5561Y6493D01*
X5541Y6511D01*
X5519Y6526D01*
X5496Y6539D01*
X5471Y6549D01*
X5446Y6557D01*
X5420Y6561D01*
X5393Y6563D01*
D02*
G37*
G36*
X24777Y6281D02*
X24748Y6279D01*
X24719Y6275D01*
X24690Y6269D01*
X24662Y6260D01*
X24635Y6249D01*
X24610Y6236D01*
X24585Y6220D01*
X24562Y6202D01*
X24540Y6182D01*
X24520Y6161D01*
X24503Y6138D01*
X24487Y6113D01*
X24473Y6087D01*
X24462Y6060D01*
X24453Y6032D01*
X24447Y6004D01*
X24443Y5975D01*
X24442Y5946D01*
X24443Y5916D01*
X24447Y5887D01*
X24453Y5859D01*
X24462Y5831D01*
X24473Y5804D01*
X24487Y5778D01*
X24503Y5753D01*
X24520Y5730D01*
X24540Y5709D01*
X24562Y5689D01*
X24585Y5671D01*
X24610Y5656D01*
X24635Y5642D01*
X24662Y5631D01*
X24690Y5622D01*
X24719Y5616D01*
X24748Y5612D01*
X24777Y5611D01*
X24806Y5612D01*
X24835Y5616D01*
X24864Y5622D01*
X24892Y5631D01*
X24919Y5642D01*
X24945Y5656D01*
X24969Y5671D01*
X24992Y5689D01*
X25014Y5709D01*
X25034Y5730D01*
X25051Y5753D01*
X25067Y5778D01*
X25081Y5804D01*
X25092Y5831D01*
X25101Y5859D01*
X25107Y5887D01*
X25111Y5916D01*
X25112Y5946D01*
X25111Y5975D01*
X25107Y6004D01*
X25101Y6032D01*
X25092Y6060D01*
X25081Y6087D01*
X25067Y6113D01*
X25051Y6138D01*
X25034Y6161D01*
X25014Y6182D01*
X24992Y6202D01*
X24969Y6220D01*
X24945Y6236D01*
X24919Y6249D01*
X24892Y6260D01*
X24864Y6269D01*
X24835Y6275D01*
X24806Y6279D01*
X24777Y6281D01*
D02*
G37*
G36*
X23317Y5691D02*
X23293Y5690D01*
X23269Y5686D01*
X23245Y5679D01*
X23223Y5670D01*
X23202Y5658D01*
X23182Y5644D01*
X23164Y5628D01*
X23147Y5610D01*
X23133Y5590D01*
X23122Y5569D01*
X23112Y5546D01*
X23105Y5523D01*
X23101Y5499D01*
X23100Y5474D01*
X23101Y5450D01*
X23105Y5426D01*
X23112Y5403D01*
X23122Y5380D01*
X23133Y5359D01*
X23147Y5339D01*
X23164Y5321D01*
X23182Y5305D01*
X23202Y5291D01*
X23223Y5279D01*
X23245Y5270D01*
X23269Y5263D01*
X23293Y5259D01*
X23317Y5258D01*
X23341Y5259D01*
X23365Y5263D01*
X23389Y5270D01*
X23411Y5279D01*
X23432Y5291D01*
X23452Y5305D01*
X23470Y5321D01*
X23486Y5339D01*
X23501Y5359D01*
X23512Y5380D01*
X23522Y5403D01*
X23528Y5426D01*
X23532Y5450D01*
X23534Y5474D01*
X23532Y5499D01*
X23528Y5523D01*
X23522Y5546D01*
X23512Y5569D01*
X23501Y5590D01*
X23486Y5610D01*
X23470Y5628D01*
X23452Y5644D01*
X23432Y5658D01*
X23411Y5670D01*
X23389Y5679D01*
X23365Y5686D01*
X23341Y5690D01*
X23317Y5691D01*
D02*
G37*
G36*
X24777Y5493D02*
X24748Y5492D01*
X24719Y5488D01*
X24690Y5482D01*
X24662Y5473D01*
X24635Y5462D01*
X24610Y5448D01*
X24585Y5433D01*
X24562Y5415D01*
X24540Y5395D01*
X24520Y5374D01*
X24503Y5350D01*
X24487Y5326D01*
X24473Y5300D01*
X24462Y5273D01*
X24453Y5245D01*
X24447Y5216D01*
X24443Y5187D01*
X24442Y5158D01*
X24443Y5129D01*
X24447Y5100D01*
X24453Y5071D01*
X24462Y5044D01*
X24473Y5017D01*
X24487Y4991D01*
X24503Y4966D01*
X24520Y4943D01*
X24540Y4921D01*
X24562Y4902D01*
X24585Y4884D01*
X24610Y4868D01*
X24635Y4855D01*
X24662Y4843D01*
X24690Y4835D01*
X24719Y4828D01*
X24748Y4825D01*
X24777Y4823D01*
X24806Y4825D01*
X24835Y4828D01*
X24864Y4835D01*
X24892Y4843D01*
X24919Y4855D01*
X24945Y4868D01*
X24969Y4884D01*
X24992Y4902D01*
X25014Y4921D01*
X25034Y4943D01*
X25051Y4966D01*
X25067Y4991D01*
X25081Y5017D01*
X25092Y5044D01*
X25101Y5071D01*
X25107Y5100D01*
X25111Y5129D01*
X25112Y5158D01*
X25111Y5187D01*
X25107Y5216D01*
X25101Y5245D01*
X25092Y5273D01*
X25081Y5300D01*
X25067Y5326D01*
X25051Y5350D01*
X25034Y5374D01*
X25014Y5395D01*
X24992Y5415D01*
X24969Y5433D01*
X24945Y5448D01*
X24919Y5462D01*
X24892Y5473D01*
X24864Y5482D01*
X24835Y5488D01*
X24806Y5492D01*
X24777Y5493D01*
D02*
G37*
G36*
Y4706D02*
X24748Y4704D01*
X24719Y4701D01*
X24690Y4694D01*
X24662Y4686D01*
X24635Y4674D01*
X24610Y4661D01*
X24585Y4645D01*
X24562Y4627D01*
X24540Y4608D01*
X24520Y4586D01*
X24503Y4563D01*
X24487Y4538D01*
X24473Y4512D01*
X24462Y4485D01*
X24453Y4457D01*
X24447Y4429D01*
X24443Y4400D01*
X24442Y4371D01*
X24443Y4342D01*
X24447Y4313D01*
X24453Y4284D01*
X24462Y4256D01*
X24473Y4229D01*
X24487Y4203D01*
X24503Y4179D01*
X24520Y4155D01*
X24540Y4134D01*
X24562Y4114D01*
X24585Y4096D01*
X24610Y4081D01*
X24635Y4067D01*
X24662Y4056D01*
X24690Y4047D01*
X24719Y4041D01*
X24748Y4037D01*
X24777Y4036D01*
X24806Y4037D01*
X24835Y4041D01*
X24864Y4047D01*
X24892Y4056D01*
X24919Y4067D01*
X24945Y4081D01*
X24969Y4096D01*
X24992Y4114D01*
X25014Y4134D01*
X25034Y4155D01*
X25051Y4179D01*
X25067Y4203D01*
X25081Y4229D01*
X25092Y4256D01*
X25101Y4284D01*
X25107Y4313D01*
X25111Y4342D01*
X25112Y4371D01*
X25111Y4400D01*
X25107Y4429D01*
X25101Y4457D01*
X25092Y4485D01*
X25081Y4512D01*
X25067Y4538D01*
X25051Y4563D01*
X25034Y4586D01*
X25014Y4608D01*
X24992Y4627D01*
X24969Y4645D01*
X24945Y4661D01*
X24919Y4674D01*
X24892Y4686D01*
X24864Y4694D01*
X24835Y4701D01*
X24806Y4704D01*
X24777Y4706D01*
D02*
G37*
G36*
X10613Y4313D02*
X10589Y4311D01*
X10565Y4307D01*
X10541Y4300D01*
X10519Y4291D01*
X10497Y4279D01*
X10478Y4265D01*
X10459Y4249D01*
X10443Y4231D01*
X10429Y4211D01*
X10417Y4190D01*
X10408Y4167D01*
X10401Y4144D01*
X10397Y4120D01*
X10396Y4096D01*
X10397Y4071D01*
X10401Y4047D01*
X10408Y4024D01*
X10417Y4002D01*
X10429Y3980D01*
X10443Y3960D01*
X10459Y3942D01*
X10478Y3926D01*
X10497Y3912D01*
X10519Y3900D01*
X10541Y3891D01*
X10565Y3884D01*
X10589Y3880D01*
X10613Y3879D01*
X10637Y3880D01*
X10661Y3884D01*
X10684Y3891D01*
X10707Y3900D01*
X10728Y3912D01*
X10748Y3926D01*
X10766Y3942D01*
X10782Y3960D01*
X10796Y3980D01*
X10808Y4002D01*
X10818Y4024D01*
X10824Y4047D01*
X10828Y4071D01*
X10830Y4096D01*
X10828Y4120D01*
X10824Y4144D01*
X10818Y4167D01*
X10808Y4190D01*
X10796Y4211D01*
X10782Y4231D01*
X10766Y4249D01*
X10748Y4265D01*
X10728Y4279D01*
X10707Y4291D01*
X10684Y4300D01*
X10661Y4307D01*
X10637Y4311D01*
X10613Y4313D01*
D02*
G37*
G36*
X21817Y4110D02*
X21792Y4108D01*
X21768Y4104D01*
X21745Y4098D01*
X21722Y4088D01*
X21701Y4077D01*
X21681Y4062D01*
X21663Y4046D01*
X21647Y4028D01*
X21633Y4008D01*
X21621Y3987D01*
X21612Y3965D01*
X21605Y3941D01*
X21601Y3917D01*
X21600Y3893D01*
X21601Y3869D01*
X21605Y3845D01*
X21612Y3821D01*
X21621Y3799D01*
X21633Y3778D01*
X21647Y3758D01*
X21663Y3740D01*
X21681Y3723D01*
X21701Y3709D01*
X21722Y3698D01*
X21745Y3688D01*
X21768Y3681D01*
X21792Y3677D01*
X21817Y3676D01*
X21841Y3677D01*
X21865Y3681D01*
X21888Y3688D01*
X21911Y3698D01*
X21932Y3709D01*
X21952Y3723D01*
X21970Y3740D01*
X21986Y3758D01*
X22000Y3778D01*
X22012Y3799D01*
X22021Y3821D01*
X22028Y3845D01*
X22032Y3869D01*
X22033Y3893D01*
X22032Y3917D01*
X22028Y3941D01*
X22021Y3965D01*
X22012Y3987D01*
X22000Y4008D01*
X21986Y4028D01*
X21970Y4046D01*
X21952Y4062D01*
X21932Y4077D01*
X21911Y4088D01*
X21888Y4098D01*
X21865Y4104D01*
X21841Y4108D01*
X21817Y4110D01*
D02*
G37*
G36*
X8272Y3826D02*
X8248Y3825D01*
X8224Y3820D01*
X8201Y3814D01*
X8178Y3804D01*
X8157Y3793D01*
X8137Y3779D01*
X8119Y3762D01*
X8103Y3744D01*
X8089Y3724D01*
X8077Y3703D01*
X8068Y3681D01*
X8061Y3657D01*
X8057Y3633D01*
X8056Y3609D01*
X8057Y3585D01*
X8061Y3561D01*
X8068Y3537D01*
X8077Y3515D01*
X8089Y3494D01*
X8103Y3474D01*
X8119Y3456D01*
X8137Y3440D01*
X8157Y3425D01*
X8178Y3414D01*
X8201Y3404D01*
X8224Y3398D01*
X8248Y3394D01*
X8272Y3392D01*
X8297Y3394D01*
X8321Y3398D01*
X8344Y3404D01*
X8367Y3414D01*
X8388Y3425D01*
X8408Y3440D01*
X8426Y3456D01*
X8442Y3474D01*
X8456Y3494D01*
X8468Y3515D01*
X8477Y3537D01*
X8484Y3561D01*
X8488Y3585D01*
X8489Y3609D01*
X8488Y3633D01*
X8484Y3657D01*
X8477Y3681D01*
X8468Y3703D01*
X8456Y3724D01*
X8442Y3744D01*
X8426Y3762D01*
X8408Y3779D01*
X8388Y3793D01*
X8367Y3804D01*
X8344Y3814D01*
X8321Y3820D01*
X8297Y3825D01*
X8272Y3826D01*
D02*
G37*
G36*
X11585Y3775D02*
X11560Y3773D01*
X11536Y3769D01*
X11513Y3762D01*
X11490Y3753D01*
X11469Y3741D01*
X11449Y3727D01*
X11431Y3711D01*
X11415Y3693D01*
X11401Y3673D01*
X11389Y3652D01*
X11380Y3629D01*
X11373Y3606D01*
X11369Y3582D01*
X11368Y3558D01*
X11369Y3534D01*
X11373Y3510D01*
X11380Y3486D01*
X11389Y3464D01*
X11401Y3442D01*
X11415Y3423D01*
X11431Y3404D01*
X11449Y3388D01*
X11469Y3374D01*
X11490Y3362D01*
X11513Y3353D01*
X11536Y3346D01*
X11560Y3342D01*
X11585Y3341D01*
X11609Y3342D01*
X11633Y3346D01*
X11656Y3353D01*
X11679Y3362D01*
X11700Y3374D01*
X11720Y3388D01*
X11738Y3404D01*
X11754Y3423D01*
X11768Y3442D01*
X11780Y3464D01*
X11789Y3486D01*
X11796Y3510D01*
X11800Y3534D01*
X11801Y3558D01*
X11800Y3582D01*
X11796Y3606D01*
X11789Y3629D01*
X11780Y3652D01*
X11768Y3673D01*
X11754Y3693D01*
X11738Y3711D01*
X11720Y3727D01*
X11700Y3741D01*
X11679Y3753D01*
X11656Y3762D01*
X11633Y3769D01*
X11609Y3773D01*
X11585Y3775D01*
D02*
G37*
G36*
X2025Y3762D02*
X1907D01*
Y3022D01*
X2292D01*
Y3494D01*
X2291Y3520D01*
X2287Y3546D01*
X2281Y3572D01*
X2272Y3597D01*
X2261Y3620D01*
X2247Y3643D01*
X2231Y3664D01*
X2214Y3683D01*
X2194Y3701D01*
X2173Y3717D01*
X2151Y3730D01*
X2127Y3741D01*
X2102Y3750D01*
X2077Y3757D01*
X2051Y3760D01*
X2025Y3762D01*
D02*
G37*
G36*
X1807D02*
X1690D01*
X1664Y3760D01*
X1638Y3757D01*
X1612Y3750D01*
X1587Y3741D01*
X1564Y3730D01*
X1541Y3717D01*
X1520Y3701D01*
X1501Y3683D01*
X1483Y3664D01*
X1467Y3643D01*
X1454Y3620D01*
X1443Y3597D01*
X1434Y3572D01*
X1427Y3546D01*
X1424Y3520D01*
X1422Y3494D01*
Y3022D01*
X1807D01*
Y3762D01*
D02*
G37*
G36*
X8678Y2650D02*
X8654Y2649D01*
X8630Y2645D01*
X8606Y2638D01*
X8584Y2628D01*
X8563Y2617D01*
X8543Y2603D01*
X8525Y2586D01*
X8508Y2568D01*
X8494Y2548D01*
X8483Y2527D01*
X8473Y2505D01*
X8467Y2481D01*
X8462Y2457D01*
X8461Y2433D01*
X8462Y2409D01*
X8467Y2385D01*
X8473Y2361D01*
X8483Y2339D01*
X8494Y2318D01*
X8508Y2298D01*
X8525Y2280D01*
X8543Y2264D01*
X8563Y2249D01*
X8584Y2238D01*
X8606Y2228D01*
X8630Y2222D01*
X8654Y2218D01*
X8678Y2216D01*
X8702Y2218D01*
X8726Y2222D01*
X8750Y2228D01*
X8772Y2238D01*
X8793Y2249D01*
X8813Y2264D01*
X8831Y2280D01*
X8848Y2298D01*
X8862Y2318D01*
X8873Y2339D01*
X8883Y2361D01*
X8889Y2385D01*
X8893Y2409D01*
X8895Y2433D01*
X8893Y2457D01*
X8889Y2481D01*
X8883Y2505D01*
X8873Y2527D01*
X8862Y2548D01*
X8848Y2568D01*
X8831Y2586D01*
X8813Y2603D01*
X8793Y2617D01*
X8772Y2628D01*
X8750Y2638D01*
X8726Y2645D01*
X8702Y2649D01*
X8678Y2650D01*
D02*
G37*
G36*
X4387Y3741D02*
X4052D01*
X4025Y3739D01*
X3997Y3734D01*
X3971Y3727D01*
X3945Y3716D01*
X3921Y3703D01*
X3898Y3687D01*
X3878Y3668D01*
X3859Y3648D01*
X3843Y3625D01*
X3830Y3601D01*
X3820Y3576D01*
X3812Y3549D01*
X3807Y3522D01*
X3806Y3494D01*
Y2451D01*
X3807Y2423D01*
X3812Y2396D01*
X3820Y2369D01*
X3830Y2344D01*
X3843Y2320D01*
X3859Y2297D01*
X3878Y2277D01*
X3898Y2258D01*
X3921Y2242D01*
X3945Y2229D01*
X3971Y2218D01*
X3997Y2211D01*
X4025Y2206D01*
X4052Y2204D01*
X4387D01*
X4414Y2206D01*
X4442Y2211D01*
X4468Y2218D01*
X4494Y2229D01*
X4518Y2242D01*
X4540Y2258D01*
X4561Y2277D01*
X4579Y2297D01*
X4595Y2320D01*
X4609Y2344D01*
X4619Y2369D01*
X4627Y2396D01*
X4632Y2423D01*
X4633Y2451D01*
Y3494D01*
X4632Y3522D01*
X4627Y3549D01*
X4619Y3576D01*
X4609Y3601D01*
X4595Y3625D01*
X4579Y3648D01*
X4561Y3668D01*
X4540Y3687D01*
X4518Y3703D01*
X4494Y3716D01*
X4468Y3727D01*
X4442Y3734D01*
X4414Y3739D01*
X4387Y3741D01*
D02*
G37*
G36*
X2292Y2922D02*
X1907D01*
Y2183D01*
X2025D01*
X2051Y2184D01*
X2077Y2188D01*
X2102Y2195D01*
X2127Y2204D01*
X2151Y2215D01*
X2173Y2228D01*
X2194Y2244D01*
X2214Y2262D01*
X2231Y2281D01*
X2247Y2302D01*
X2261Y2325D01*
X2272Y2348D01*
X2281Y2373D01*
X2287Y2399D01*
X2291Y2425D01*
X2292Y2451D01*
Y2922D01*
D02*
G37*
G36*
X1807D02*
X1422D01*
Y2451D01*
X1424Y2425D01*
X1427Y2399D01*
X1434Y2373D01*
X1443Y2348D01*
X1454Y2325D01*
X1467Y2302D01*
X1483Y2281D01*
X1501Y2262D01*
X1520Y2244D01*
X1541Y2228D01*
X1564Y2215D01*
X1587Y2204D01*
X1612Y2195D01*
X1638Y2188D01*
X1664Y2184D01*
X1690Y2183D01*
X1807D01*
Y2922D01*
D02*
G37*
G36*
X16018Y1546D02*
X15990Y1543D01*
X15952Y1535D01*
X15915Y1525D01*
X15879Y1511D01*
X15843Y1495D01*
X15810Y1476D01*
X15777Y1455D01*
X15747Y1431D01*
X15718Y1404D01*
X15692Y1376D01*
X15668Y1345D01*
X15646Y1313D01*
X15627Y1279D01*
X15611Y1244D01*
X15598Y1208D01*
X15590Y1182D01*
X15553Y1178D01*
X15539Y1181D01*
X15533Y1201D01*
X15520Y1236D01*
X15505Y1270D01*
X15487Y1302D01*
X15466Y1333D01*
X15443Y1362D01*
X15418Y1389D01*
X15390Y1415D01*
X15361Y1438D01*
X15330Y1458D01*
X15298Y1476D01*
X15264Y1492D01*
X15230Y1505D01*
X15194Y1515D01*
X15157Y1522D01*
X15121Y1526D01*
X15083Y1528D01*
X15046Y1526D01*
X15009Y1522D01*
X14973Y1515D01*
X14937Y1505D01*
X14903Y1492D01*
X14869Y1476D01*
X14836Y1458D01*
X14806Y1438D01*
X14776Y1415D01*
X14749Y1389D01*
X14724Y1362D01*
X14701Y1333D01*
X14680Y1302D01*
X14662Y1270D01*
X14647Y1236D01*
X14634Y1201D01*
X14624Y1165D01*
X14616Y1129D01*
X14612Y1092D01*
X14611Y1055D01*
X14612Y1018D01*
X14616Y981D01*
X14624Y945D01*
X14634Y909D01*
X14647Y874D01*
X14662Y840D01*
X14680Y808D01*
X14701Y777D01*
X14724Y748D01*
X14749Y721D01*
X14776Y695D01*
X14806Y672D01*
X14836Y652D01*
X14869Y634D01*
X14903Y618D01*
X14937Y605D01*
X14973Y595D01*
X15009Y588D01*
X15046Y584D01*
X15083Y582D01*
X15121Y584D01*
X15157Y588D01*
X15194Y595D01*
X15230Y605D01*
X15264Y618D01*
X15298Y634D01*
X15330Y652D01*
X15361Y672D01*
X15390Y695D01*
X15418Y721D01*
X15443Y748D01*
X15466Y777D01*
X15487Y808D01*
X15505Y840D01*
X15520Y874D01*
X15533Y909D01*
X15539Y929D01*
X15553Y932D01*
X15590Y928D01*
X15598Y902D01*
X15611Y866D01*
X15627Y831D01*
X15646Y797D01*
X15668Y765D01*
X15692Y734D01*
X15718Y706D01*
X15747Y679D01*
X15777Y655D01*
X15810Y634D01*
X15843Y615D01*
X15879Y599D01*
X15915Y585D01*
X15952Y575D01*
X15990Y567D01*
X16018Y564D01*
Y1055D01*
Y1546D01*
D02*
G37*
G36*
X24036Y1528D02*
X23999Y1526D01*
X23962Y1522D01*
X23926Y1515D01*
X23890Y1505D01*
X23855Y1492D01*
X23822Y1476D01*
X23789Y1458D01*
X23758Y1438D01*
X23729Y1415D01*
X23702Y1389D01*
X23677Y1362D01*
X23654Y1333D01*
X23633Y1302D01*
X23615Y1270D01*
X23599Y1236D01*
X23587Y1201D01*
X23576Y1165D01*
X23527D01*
X23517Y1201D01*
X23505Y1236D01*
X23489Y1270D01*
X23471Y1302D01*
X23450Y1333D01*
X23427Y1362D01*
X23402Y1389D01*
X23375Y1415D01*
X23346Y1438D01*
X23315Y1458D01*
X23282Y1476D01*
X23249Y1492D01*
X23214Y1505D01*
X23178Y1515D01*
X23142Y1522D01*
X23105Y1526D01*
X23068Y1528D01*
X23031Y1526D01*
X22994Y1522D01*
X22957Y1515D01*
X22922Y1505D01*
X22887Y1492D01*
X22853Y1476D01*
X22821Y1458D01*
X22790Y1438D01*
X22761Y1415D01*
X22733Y1389D01*
X22708Y1362D01*
X22685Y1333D01*
X22665Y1302D01*
X22646Y1270D01*
X22631Y1236D01*
X22618Y1201D01*
X22608Y1165D01*
X22601Y1129D01*
X22550D01*
X22543Y1165D01*
X22533Y1201D01*
X22520Y1236D01*
X22505Y1270D01*
X22487Y1302D01*
X22466Y1333D01*
X22443Y1362D01*
X22418Y1389D01*
X22390Y1415D01*
X22361Y1438D01*
X22330Y1458D01*
X22298Y1476D01*
X22264Y1492D01*
X22230Y1505D01*
X22194Y1515D01*
X22157Y1522D01*
X22121Y1526D01*
X22083Y1528D01*
X22046Y1526D01*
X22009Y1522D01*
X21973Y1515D01*
X21937Y1505D01*
X21903Y1492D01*
X21869Y1476D01*
X21836Y1458D01*
X21806Y1438D01*
X21776Y1415D01*
X21749Y1389D01*
X21724Y1362D01*
X21701Y1333D01*
X21680Y1302D01*
X21662Y1270D01*
X21647Y1236D01*
X21634Y1201D01*
X21624Y1165D01*
X21616Y1129D01*
X21612Y1092D01*
X21611Y1055D01*
X21612Y1018D01*
X21616Y981D01*
X21624Y945D01*
X21634Y909D01*
X21647Y874D01*
X21662Y840D01*
X21680Y808D01*
X21701Y777D01*
X21724Y748D01*
X21749Y721D01*
X21776Y695D01*
X21806Y672D01*
X21836Y652D01*
X21869Y634D01*
X21903Y618D01*
X21937Y605D01*
X21973Y595D01*
X22009Y588D01*
X22046Y584D01*
X22083Y582D01*
X22121Y584D01*
X22157Y588D01*
X22194Y595D01*
X22230Y605D01*
X22264Y618D01*
X22298Y634D01*
X22330Y652D01*
X22361Y672D01*
X22390Y695D01*
X22418Y721D01*
X22443Y748D01*
X22466Y777D01*
X22487Y808D01*
X22505Y840D01*
X22520Y874D01*
X22533Y909D01*
X22543Y945D01*
X22550Y981D01*
X22601D01*
X22608Y945D01*
X22618Y909D01*
X22631Y874D01*
X22646Y840D01*
X22665Y808D01*
X22685Y777D01*
X22708Y748D01*
X22733Y721D01*
X22761Y695D01*
X22790Y672D01*
X22821Y652D01*
X22853Y634D01*
X22887Y618D01*
X22922Y605D01*
X22957Y595D01*
X22994Y588D01*
X23031Y584D01*
X23068Y582D01*
X23105Y584D01*
X23142Y588D01*
X23178Y595D01*
X23214Y605D01*
X23249Y618D01*
X23282Y634D01*
X23315Y652D01*
X23346Y672D01*
X23375Y695D01*
X23402Y721D01*
X23427Y748D01*
X23450Y777D01*
X23471Y808D01*
X23489Y840D01*
X23505Y874D01*
X23517Y909D01*
X23527Y945D01*
X23576D01*
X23587Y909D01*
X23599Y874D01*
X23615Y840D01*
X23633Y808D01*
X23654Y777D01*
X23677Y748D01*
X23702Y721D01*
X23729Y695D01*
X23758Y672D01*
X23789Y652D01*
X23822Y634D01*
X23855Y618D01*
X23890Y605D01*
X23926Y595D01*
X23962Y588D01*
X23999Y584D01*
X24036Y582D01*
X24073Y584D01*
X24110Y588D01*
X24147Y595D01*
X24182Y605D01*
X24217Y618D01*
X24251Y634D01*
X24283Y652D01*
X24314Y672D01*
X24343Y695D01*
X24371Y721D01*
X24396Y748D01*
X24419Y777D01*
X24439Y808D01*
X24457Y840D01*
X24473Y874D01*
X24486Y909D01*
X24496Y945D01*
X24503Y981D01*
X24508Y1018D01*
X24509Y1055D01*
X24508Y1092D01*
X24503Y1129D01*
X24496Y1165D01*
X24486Y1201D01*
X24473Y1236D01*
X24457Y1270D01*
X24439Y1302D01*
X24419Y1333D01*
X24396Y1362D01*
X24371Y1389D01*
X24343Y1415D01*
X24314Y1438D01*
X24283Y1458D01*
X24251Y1476D01*
X24217Y1492D01*
X24182Y1505D01*
X24147Y1515D01*
X24110Y1522D01*
X24073Y1526D01*
X24036Y1528D01*
D02*
G37*
G36*
X3560Y1518D02*
X3088D01*
Y1133D01*
X3828D01*
Y1250D01*
X3826Y1276D01*
X3823Y1302D01*
X3816Y1328D01*
X3807Y1352D01*
X3796Y1376D01*
X3783Y1399D01*
X3767Y1420D01*
X3749Y1439D01*
X3730Y1457D01*
X3709Y1473D01*
X3686Y1486D01*
X3662Y1497D01*
X3638Y1506D01*
X3612Y1513D01*
X3586Y1516D01*
X3560Y1518D01*
D02*
G37*
G36*
X2988D02*
X2517D01*
X2490Y1516D01*
X2464Y1513D01*
X2439Y1506D01*
X2414Y1497D01*
X2391Y1486D01*
X2368Y1473D01*
X2347Y1457D01*
X2327Y1439D01*
X2310Y1420D01*
X2294Y1399D01*
X2281Y1376D01*
X2269Y1352D01*
X2261Y1328D01*
X2254Y1302D01*
X2250Y1276D01*
X2249Y1250D01*
Y1133D01*
X2988D01*
Y1518D01*
D02*
G37*
G36*
X3828Y1033D02*
X3088D01*
Y648D01*
X3560D01*
X3586Y649D01*
X3612Y653D01*
X3638Y659D01*
X3662Y668D01*
X3686Y679D01*
X3709Y693D01*
X3730Y708D01*
X3749Y726D01*
X3767Y746D01*
X3783Y767D01*
X3796Y789D01*
X3807Y813D01*
X3816Y838D01*
X3823Y863D01*
X3826Y889D01*
X3828Y915D01*
Y1033D01*
D02*
G37*
G36*
X2988D02*
X2249D01*
Y915D01*
X2250Y889D01*
X2254Y863D01*
X2261Y838D01*
X2269Y813D01*
X2281Y789D01*
X2294Y767D01*
X2310Y746D01*
X2327Y726D01*
X2347Y708D01*
X2368Y693D01*
X2391Y679D01*
X2414Y668D01*
X2439Y659D01*
X2464Y653D01*
X2490Y649D01*
X2517Y648D01*
X2988D01*
Y1033D01*
D02*
G37*
G36*
X25509Y1527D02*
X24564D01*
Y583D01*
X25509D01*
Y1527D01*
D02*
G37*
G36*
X17086Y1546D02*
Y1055D01*
Y564D01*
X17113Y567D01*
X17152Y575D01*
X17189Y585D01*
X17225Y599D01*
X17261Y615D01*
X17294Y634D01*
X17327Y655D01*
X17357Y679D01*
X17386Y706D01*
X17412Y734D01*
X17436Y765D01*
X17457Y797D01*
X17476Y831D01*
X17493Y866D01*
X17506Y902D01*
X17514Y929D01*
X17564Y923D01*
Y583D01*
X18509D01*
Y1527D01*
X17564D01*
Y1187D01*
X17514Y1181D01*
X17506Y1208D01*
X17493Y1244D01*
X17476Y1279D01*
X17457Y1313D01*
X17436Y1345D01*
X17412Y1376D01*
X17386Y1404D01*
X17357Y1431D01*
X17327Y1455D01*
X17294Y1476D01*
X17261Y1495D01*
X17225Y1511D01*
X17189Y1525D01*
X17152Y1535D01*
X17113Y1543D01*
X17086Y1546D01*
D02*
G37*
G36*
X21068Y1528D02*
X21031Y1526D01*
X20994Y1522D01*
X20957Y1515D01*
X20922Y1505D01*
X20887Y1492D01*
X20853Y1476D01*
X20821Y1458D01*
X20790Y1438D01*
X20761Y1415D01*
X20733Y1389D01*
X20708Y1362D01*
X20685Y1333D01*
X20665Y1302D01*
X20646Y1270D01*
X20631Y1236D01*
X20618Y1201D01*
X20608Y1165D01*
X20601Y1129D01*
X20596Y1092D01*
X20595Y1055D01*
X20596Y1018D01*
X20601Y981D01*
X20608Y945D01*
X20618Y909D01*
X20631Y874D01*
X20646Y840D01*
X20665Y808D01*
X20685Y777D01*
X20708Y748D01*
X20733Y721D01*
X20761Y695D01*
X20790Y672D01*
X20821Y652D01*
X20853Y634D01*
X20887Y618D01*
X20922Y605D01*
X20957Y595D01*
X20994Y588D01*
X21031Y584D01*
X21068Y582D01*
X21105Y584D01*
X21142Y588D01*
X21178Y595D01*
X21214Y605D01*
X21249Y618D01*
X21282Y634D01*
X21315Y652D01*
X21346Y672D01*
X21375Y695D01*
X21402Y721D01*
X21427Y748D01*
X21450Y777D01*
X21471Y808D01*
X21489Y840D01*
X21505Y874D01*
X21517Y909D01*
X21527Y945D01*
X21535Y981D01*
X21539Y1018D01*
X21541Y1055D01*
X21539Y1092D01*
X21535Y1129D01*
X21527Y1165D01*
X21517Y1201D01*
X21505Y1236D01*
X21489Y1270D01*
X21471Y1302D01*
X21450Y1333D01*
X21427Y1362D01*
X21402Y1389D01*
X21375Y1415D01*
X21346Y1438D01*
X21315Y1458D01*
X21282Y1476D01*
X21249Y1492D01*
X21214Y1505D01*
X21178Y1515D01*
X21142Y1522D01*
X21105Y1526D01*
X21068Y1528D01*
D02*
G37*
G36*
X20068D02*
X20031Y1526D01*
X19994Y1522D01*
X19957Y1515D01*
X19922Y1505D01*
X19887Y1492D01*
X19853Y1476D01*
X19821Y1458D01*
X19790Y1438D01*
X19761Y1415D01*
X19733Y1389D01*
X19708Y1362D01*
X19685Y1333D01*
X19665Y1302D01*
X19646Y1270D01*
X19631Y1236D01*
X19618Y1201D01*
X19608Y1165D01*
X19601Y1129D01*
X19596Y1092D01*
X19595Y1055D01*
X19596Y1018D01*
X19601Y981D01*
X19608Y945D01*
X19618Y909D01*
X19631Y874D01*
X19646Y840D01*
X19665Y808D01*
X19685Y777D01*
X19708Y748D01*
X19733Y721D01*
X19761Y695D01*
X19790Y672D01*
X19821Y652D01*
X19853Y634D01*
X19887Y618D01*
X19922Y605D01*
X19957Y595D01*
X19994Y588D01*
X20031Y584D01*
X20068Y582D01*
X20105Y584D01*
X20142Y588D01*
X20178Y595D01*
X20214Y605D01*
X20249Y618D01*
X20282Y634D01*
X20315Y652D01*
X20346Y672D01*
X20375Y695D01*
X20402Y721D01*
X20427Y748D01*
X20450Y777D01*
X20471Y808D01*
X20489Y840D01*
X20505Y874D01*
X20517Y909D01*
X20527Y945D01*
X20535Y981D01*
X20539Y1018D01*
X20541Y1055D01*
X20539Y1092D01*
X20535Y1129D01*
X20527Y1165D01*
X20517Y1201D01*
X20505Y1236D01*
X20489Y1270D01*
X20471Y1302D01*
X20450Y1333D01*
X20427Y1362D01*
X20402Y1389D01*
X20375Y1415D01*
X20346Y1438D01*
X20315Y1458D01*
X20282Y1476D01*
X20249Y1492D01*
X20214Y1505D01*
X20178Y1515D01*
X20142Y1522D01*
X20105Y1526D01*
X20068Y1528D01*
D02*
G37*
G36*
X14068D02*
X14031Y1526D01*
X13994Y1522D01*
X13957Y1515D01*
X13922Y1505D01*
X13887Y1492D01*
X13853Y1476D01*
X13821Y1458D01*
X13790Y1438D01*
X13761Y1415D01*
X13733Y1389D01*
X13708Y1362D01*
X13685Y1333D01*
X13665Y1302D01*
X13646Y1270D01*
X13631Y1236D01*
X13618Y1201D01*
X13608Y1165D01*
X13601Y1129D01*
X13596Y1092D01*
X13595Y1055D01*
X13596Y1018D01*
X13601Y981D01*
X13608Y945D01*
X13618Y909D01*
X13631Y874D01*
X13646Y840D01*
X13665Y808D01*
X13685Y777D01*
X13708Y748D01*
X13733Y721D01*
X13761Y695D01*
X13790Y672D01*
X13821Y652D01*
X13853Y634D01*
X13887Y618D01*
X13922Y605D01*
X13957Y595D01*
X13994Y588D01*
X14031Y584D01*
X14068Y582D01*
X14105Y584D01*
X14142Y588D01*
X14178Y595D01*
X14214Y605D01*
X14249Y618D01*
X14282Y634D01*
X14315Y652D01*
X14346Y672D01*
X14375Y695D01*
X14402Y721D01*
X14427Y748D01*
X14450Y777D01*
X14471Y808D01*
X14489Y840D01*
X14505Y874D01*
X14517Y909D01*
X14527Y945D01*
X14535Y981D01*
X14539Y1018D01*
X14541Y1055D01*
X14539Y1092D01*
X14535Y1129D01*
X14527Y1165D01*
X14517Y1201D01*
X14505Y1236D01*
X14489Y1270D01*
X14471Y1302D01*
X14450Y1333D01*
X14427Y1362D01*
X14402Y1389D01*
X14375Y1415D01*
X14346Y1438D01*
X14315Y1458D01*
X14282Y1476D01*
X14249Y1492D01*
X14214Y1505D01*
X14178Y1515D01*
X14142Y1522D01*
X14105Y1526D01*
X14068Y1528D01*
D02*
G37*
G36*
X13068D02*
X13031Y1526D01*
X12994Y1522D01*
X12957Y1515D01*
X12922Y1505D01*
X12887Y1492D01*
X12853Y1476D01*
X12821Y1458D01*
X12790Y1438D01*
X12761Y1415D01*
X12733Y1389D01*
X12708Y1362D01*
X12685Y1333D01*
X12665Y1302D01*
X12646Y1270D01*
X12631Y1236D01*
X12618Y1201D01*
X12608Y1165D01*
X12601Y1129D01*
X12596Y1092D01*
X12595Y1055D01*
X12596Y1018D01*
X12601Y981D01*
X12608Y945D01*
X12618Y909D01*
X12631Y874D01*
X12646Y840D01*
X12665Y808D01*
X12685Y777D01*
X12708Y748D01*
X12733Y721D01*
X12761Y695D01*
X12790Y672D01*
X12821Y652D01*
X12853Y634D01*
X12887Y618D01*
X12922Y605D01*
X12957Y595D01*
X12994Y588D01*
X13031Y584D01*
X13068Y582D01*
X13105Y584D01*
X13142Y588D01*
X13178Y595D01*
X13214Y605D01*
X13249Y618D01*
X13282Y634D01*
X13315Y652D01*
X13346Y672D01*
X13375Y695D01*
X13402Y721D01*
X13427Y748D01*
X13450Y777D01*
X13471Y808D01*
X13489Y840D01*
X13505Y874D01*
X13517Y909D01*
X13527Y945D01*
X13535Y981D01*
X13539Y1018D01*
X13541Y1055D01*
X13539Y1092D01*
X13535Y1129D01*
X13527Y1165D01*
X13517Y1201D01*
X13505Y1236D01*
X13489Y1270D01*
X13471Y1302D01*
X13450Y1333D01*
X13427Y1362D01*
X13402Y1389D01*
X13375Y1415D01*
X13346Y1438D01*
X13315Y1458D01*
X13282Y1476D01*
X13249Y1492D01*
X13214Y1505D01*
X13178Y1515D01*
X13142Y1522D01*
X13105Y1526D01*
X13068Y1528D01*
D02*
G37*
G36*
X12068D02*
X12031Y1526D01*
X11994Y1522D01*
X11957Y1515D01*
X11922Y1505D01*
X11887Y1492D01*
X11853Y1476D01*
X11821Y1458D01*
X11790Y1438D01*
X11761Y1415D01*
X11733Y1389D01*
X11708Y1362D01*
X11685Y1333D01*
X11665Y1302D01*
X11646Y1270D01*
X11631Y1236D01*
X11618Y1201D01*
X11608Y1165D01*
X11601Y1129D01*
X11596Y1092D01*
X11595Y1055D01*
X11596Y1018D01*
X11601Y981D01*
X11608Y945D01*
X11618Y909D01*
X11631Y874D01*
X11646Y840D01*
X11665Y808D01*
X11685Y777D01*
X11708Y748D01*
X11733Y721D01*
X11761Y695D01*
X11790Y672D01*
X11821Y652D01*
X11853Y634D01*
X11887Y618D01*
X11922Y605D01*
X11957Y595D01*
X11994Y588D01*
X12031Y584D01*
X12068Y582D01*
X12105Y584D01*
X12142Y588D01*
X12178Y595D01*
X12214Y605D01*
X12249Y618D01*
X12282Y634D01*
X12315Y652D01*
X12346Y672D01*
X12375Y695D01*
X12402Y721D01*
X12427Y748D01*
X12450Y777D01*
X12471Y808D01*
X12489Y840D01*
X12505Y874D01*
X12517Y909D01*
X12527Y945D01*
X12535Y981D01*
X12539Y1018D01*
X12541Y1055D01*
X12539Y1092D01*
X12535Y1129D01*
X12527Y1165D01*
X12517Y1201D01*
X12505Y1236D01*
X12489Y1270D01*
X12471Y1302D01*
X12450Y1333D01*
X12427Y1362D01*
X12402Y1389D01*
X12375Y1415D01*
X12346Y1438D01*
X12315Y1458D01*
X12282Y1476D01*
X12249Y1492D01*
X12214Y1505D01*
X12178Y1515D01*
X12142Y1522D01*
X12105Y1526D01*
X12068Y1528D01*
D02*
G37*
G36*
X11068D02*
X11031Y1526D01*
X10994Y1522D01*
X10957Y1515D01*
X10922Y1505D01*
X10887Y1492D01*
X10853Y1476D01*
X10821Y1458D01*
X10790Y1438D01*
X10761Y1415D01*
X10733Y1389D01*
X10708Y1362D01*
X10685Y1333D01*
X10665Y1302D01*
X10646Y1270D01*
X10631Y1236D01*
X10618Y1201D01*
X10608Y1165D01*
X10601Y1129D01*
X10596Y1092D01*
X10595Y1055D01*
X10596Y1018D01*
X10601Y981D01*
X10608Y945D01*
X10618Y909D01*
X10631Y874D01*
X10646Y840D01*
X10665Y808D01*
X10685Y777D01*
X10708Y748D01*
X10733Y721D01*
X10761Y695D01*
X10790Y672D01*
X10821Y652D01*
X10853Y634D01*
X10887Y618D01*
X10922Y605D01*
X10957Y595D01*
X10994Y588D01*
X11031Y584D01*
X11068Y582D01*
X11105Y584D01*
X11142Y588D01*
X11178Y595D01*
X11214Y605D01*
X11249Y618D01*
X11282Y634D01*
X11315Y652D01*
X11346Y672D01*
X11375Y695D01*
X11402Y721D01*
X11427Y748D01*
X11450Y777D01*
X11471Y808D01*
X11489Y840D01*
X11505Y874D01*
X11517Y909D01*
X11527Y945D01*
X11535Y981D01*
X11539Y1018D01*
X11541Y1055D01*
X11539Y1092D01*
X11535Y1129D01*
X11527Y1165D01*
X11517Y1201D01*
X11505Y1236D01*
X11489Y1270D01*
X11471Y1302D01*
X11450Y1333D01*
X11427Y1362D01*
X11402Y1389D01*
X11375Y1415D01*
X11346Y1438D01*
X11315Y1458D01*
X11282Y1476D01*
X11249Y1492D01*
X11214Y1505D01*
X11178Y1515D01*
X11142Y1522D01*
X11105Y1526D01*
X11068Y1528D01*
D02*
G37*
G36*
X16118Y1546D02*
Y1055D01*
Y564D01*
X16145Y567D01*
X16183Y575D01*
X16220Y585D01*
X16257Y599D01*
X16292Y615D01*
X16326Y634D01*
X16358Y655D01*
X16389Y679D01*
X16417Y706D01*
X16443Y734D01*
X16467Y765D01*
X16489Y797D01*
X16508Y831D01*
X16524Y866D01*
X16525Y869D01*
X16579D01*
X16580Y866D01*
X16596Y831D01*
X16615Y797D01*
X16636Y765D01*
X16660Y734D01*
X16687Y706D01*
X16715Y679D01*
X16746Y655D01*
X16778Y634D01*
X16812Y615D01*
X16847Y599D01*
X16884Y585D01*
X16921Y575D01*
X16959Y567D01*
X16986Y564D01*
Y1055D01*
Y1546D01*
X16959Y1543D01*
X16921Y1535D01*
X16884Y1525D01*
X16847Y1511D01*
X16812Y1495D01*
X16778Y1476D01*
X16746Y1455D01*
X16715Y1431D01*
X16687Y1404D01*
X16660Y1376D01*
X16636Y1345D01*
X16615Y1313D01*
X16596Y1279D01*
X16580Y1244D01*
X16579Y1241D01*
X16525D01*
X16524Y1244D01*
X16508Y1279D01*
X16489Y1313D01*
X16467Y1345D01*
X16443Y1376D01*
X16417Y1404D01*
X16389Y1431D01*
X16358Y1455D01*
X16326Y1476D01*
X16292Y1495D01*
X16257Y1511D01*
X16220Y1525D01*
X16183Y1535D01*
X16145Y1543D01*
X16118Y1546D01*
D02*
G37*
%LPD*%
D37*
X2809Y6585D02*
D03*
X2799Y10054D02*
D03*
D39*
X16068Y1055D02*
D03*
X17036D02*
D03*
X10468Y20055D02*
D03*
D40*
X1857Y2972D02*
D03*
D41*
X3038Y1083D02*
D03*
D42*
X16626Y6894D02*
D03*
X6691Y15637D02*
D03*
X9651Y3244D02*
D03*
X12431Y6430D02*
D03*
X17228Y14511D02*
D03*
X17732Y12501D02*
D03*
X26491Y10492D02*
D03*
X11864Y9733D02*
D03*
X10746Y2616D02*
D03*
X11435Y15288D02*
D03*
X10422Y15450D02*
D03*
X23804Y12958D02*
D03*
M02*
