G04 Layer_Color=255*
%FSLAX24Y24*%
%MOIN*%
G70*
G01*
G75*
%ADD10R,0.0315X0.0295*%
%ADD11C,0.0394*%
%ADD12R,0.0295X0.0315*%
%ADD13R,0.0433X0.0787*%
%ADD14R,0.0315X0.0315*%
%ADD15R,0.0354X0.0276*%
%ADD16R,0.0315X0.0315*%
%ADD17R,0.0787X0.0433*%
%ADD18R,0.0512X0.0591*%
%ADD19O,0.0669X0.0118*%
%ADD20R,0.0472X0.0984*%
%ADD21R,0.0610X0.0512*%
%ADD22R,0.1500X0.0500*%
%ADD23R,0.0276X0.0118*%
%ADD24R,0.0394X0.0373*%
%ADD25R,0.0394X0.0372*%
%ADD26R,0.0118X0.0276*%
%ADD27R,0.0373X0.0394*%
%ADD28R,0.0372X0.0394*%
%ADD29R,0.0157X0.0079*%
%ADD30R,0.0197X0.0197*%
%ADD31R,0.0394X0.0394*%
%ADD32R,0.0079X0.0256*%
%ADD39C,0.0512*%
%ADD40R,0.0787X0.0787*%
%ADD41C,0.0787*%
G04:AMPARAMS|DCode=42|XSize=66.9mil|YSize=137.8mil|CornerRadius=16.7mil|HoleSize=0mil|Usage=FLASHONLY|Rotation=180.000|XOffset=0mil|YOffset=0mil|HoleType=Round|Shape=RoundedRectangle|*
%AMROUNDEDRECTD42*
21,1,0.0669,0.1043,0,0,180.0*
21,1,0.0335,0.1378,0,0,180.0*
1,1,0.0335,-0.0167,0.0522*
1,1,0.0335,0.0167,0.0522*
1,1,0.0335,0.0167,-0.0522*
1,1,0.0335,-0.0167,-0.0522*
%
%ADD42ROUNDEDRECTD42*%
G04:AMPARAMS|DCode=43|XSize=66.9mil|YSize=137.8mil|CornerRadius=16.7mil|HoleSize=0mil|Usage=FLASHONLY|Rotation=270.000|XOffset=0mil|YOffset=0mil|HoleType=Round|Shape=RoundedRectangle|*
%AMROUNDEDRECTD43*
21,1,0.0669,0.1043,0,0,270.0*
21,1,0.0335,0.1378,0,0,270.0*
1,1,0.0335,-0.0522,-0.0167*
1,1,0.0335,-0.0522,0.0167*
1,1,0.0335,0.0522,0.0167*
1,1,0.0335,0.0522,-0.0167*
%
%ADD43ROUNDEDRECTD43*%
%ADD44C,0.0315*%
D10*
X22871Y12309D02*
D03*
Y11778D02*
D03*
Y10724D02*
D03*
Y11255D02*
D03*
X22425Y12873D02*
D03*
Y13404D02*
D03*
X11138Y3575D02*
D03*
Y3044D02*
D03*
Y4389D02*
D03*
Y4921D02*
D03*
X7041Y17282D02*
D03*
Y17814D02*
D03*
X7671D02*
D03*
Y17282D02*
D03*
X21654Y12873D02*
D03*
Y13404D02*
D03*
X19059Y13972D02*
D03*
Y13441D02*
D03*
D11*
X12085Y2758D02*
D03*
Y5202D02*
D03*
Y4374D02*
D03*
X12095Y3558D02*
D03*
X7552Y4136D02*
D03*
Y2909D02*
D03*
Y5323D02*
D03*
X11019Y10083D02*
D03*
Y11767D02*
D03*
X11101Y7124D02*
D03*
D12*
X11900Y6083D02*
D03*
X12431D02*
D03*
X10643Y6083D02*
D03*
X11174D02*
D03*
X8675Y2915D02*
D03*
X9207D02*
D03*
X9493Y3899D02*
D03*
X10025D02*
D03*
X8900Y14494D02*
D03*
X9432D02*
D03*
X8900Y13313D02*
D03*
X9432D02*
D03*
X8900Y13904D02*
D03*
X9432D02*
D03*
X8900Y12368D02*
D03*
X9432D02*
D03*
X8900Y11778D02*
D03*
X9432D02*
D03*
X8900Y11187D02*
D03*
X9432D02*
D03*
X8900Y10321D02*
D03*
X9432D02*
D03*
X8900Y9730D02*
D03*
X9432D02*
D03*
X8900Y8195D02*
D03*
X9432D02*
D03*
X8900Y9140D02*
D03*
X9432D02*
D03*
X8900Y7604D02*
D03*
X9432D02*
D03*
X8900Y7014D02*
D03*
X9432D02*
D03*
X14156Y8980D02*
D03*
X13625D02*
D03*
X14156Y10161D02*
D03*
X13625D02*
D03*
X14156Y9570D02*
D03*
X13625D02*
D03*
X14156Y11145D02*
D03*
X13625D02*
D03*
X14156Y12326D02*
D03*
X13625D02*
D03*
X14156Y11736D02*
D03*
X13625D02*
D03*
X9390Y16545D02*
D03*
X8858D02*
D03*
X7663Y15637D02*
D03*
X7131D02*
D03*
X11458Y17478D02*
D03*
X10926D02*
D03*
X9390Y15653D02*
D03*
X8858D02*
D03*
X21069Y12125D02*
D03*
X20537D02*
D03*
X13035Y17843D02*
D03*
X13567D02*
D03*
D13*
X8733Y4333D02*
D03*
D14*
Y5081D02*
D03*
D15*
X15780Y9624D02*
D03*
Y9231D02*
D03*
X15190Y9624D02*
D03*
Y9231D02*
D03*
X15780Y11835D02*
D03*
Y11442D02*
D03*
X15190Y11835D02*
D03*
Y11442D02*
D03*
X7198Y13728D02*
D03*
Y14121D02*
D03*
X7788Y13728D02*
D03*
Y14121D02*
D03*
X7198Y7346D02*
D03*
Y7739D02*
D03*
X7788Y7346D02*
D03*
Y7739D02*
D03*
X7198Y11602D02*
D03*
Y11995D02*
D03*
X7788Y11602D02*
D03*
Y11995D02*
D03*
X7198Y9471D02*
D03*
Y9864D02*
D03*
X7788Y9471D02*
D03*
Y9864D02*
D03*
D16*
X10728Y18207D02*
D03*
D17*
X11476D02*
D03*
D18*
X9540Y17640D02*
D03*
X8870D02*
D03*
D19*
X10422Y16556D02*
D03*
Y16359D02*
D03*
Y16162D02*
D03*
Y15965D02*
D03*
Y15769D02*
D03*
X12037Y16556D02*
D03*
Y16359D02*
D03*
Y16162D02*
D03*
Y15965D02*
D03*
Y15769D02*
D03*
D20*
X2147Y20019D02*
D03*
X4116D02*
D03*
X3131D02*
D03*
Y17853D02*
D03*
X4116D02*
D03*
X2147D02*
D03*
D21*
X15133Y4736D02*
D03*
X18263D02*
D03*
Y2964D02*
D03*
X15133D02*
D03*
X20200Y8506D02*
D03*
X23330D02*
D03*
Y6734D02*
D03*
X20200D02*
D03*
X20212Y4742D02*
D03*
X23342D02*
D03*
Y2970D02*
D03*
X20212D02*
D03*
D22*
X24741Y12055D02*
D03*
X26491D02*
D03*
X24741Y11055D02*
D03*
X26491D02*
D03*
X24741Y10055D02*
D03*
X26491D02*
D03*
D23*
X11390Y13867D02*
D03*
Y13612D02*
D03*
Y13101D02*
D03*
Y13357D02*
D03*
X10665D02*
D03*
Y13101D02*
D03*
Y13612D02*
D03*
Y13867D02*
D03*
X11864Y10481D02*
D03*
Y10736D02*
D03*
Y11247D02*
D03*
Y10991D02*
D03*
X12589D02*
D03*
Y11247D02*
D03*
Y10736D02*
D03*
Y10481D02*
D03*
X11390Y8814D02*
D03*
Y8559D02*
D03*
Y8048D02*
D03*
Y8304D02*
D03*
X10665D02*
D03*
Y8048D02*
D03*
Y8559D02*
D03*
Y8814D02*
D03*
X13790Y16464D02*
D03*
Y16209D02*
D03*
Y15698D02*
D03*
Y15954D02*
D03*
X13065D02*
D03*
Y15698D02*
D03*
Y16209D02*
D03*
Y16464D02*
D03*
D24*
X11175Y13739D02*
D03*
X12079Y10608D02*
D03*
X11175Y8687D02*
D03*
X13575Y16337D02*
D03*
D25*
X11175Y13229D02*
D03*
X12079Y11118D02*
D03*
X11175Y8177D02*
D03*
X13575Y15826D02*
D03*
D26*
X9641Y5255D02*
D03*
X9896D02*
D03*
X10407D02*
D03*
X10151D02*
D03*
Y4530D02*
D03*
X10407D02*
D03*
X9896D02*
D03*
X9641D02*
D03*
D27*
X9768Y5040D02*
D03*
D28*
X10278Y5040D02*
D03*
D29*
X10027Y2933D02*
D03*
X10027Y3093D02*
D03*
X10457Y2776D02*
D03*
Y2616D02*
D03*
D30*
X10313Y3021D02*
D03*
X10150Y2694D02*
D03*
D31*
X20361Y13441D02*
D03*
D32*
X20065Y13000D02*
D03*
X20262D02*
D03*
X20459D02*
D03*
X20656D02*
D03*
X20065Y13881D02*
D03*
X20262D02*
D03*
X20459D02*
D03*
X20656D02*
D03*
D39*
X2768Y14256D02*
D03*
Y13469D02*
D03*
Y15043D02*
D03*
Y15831D02*
D03*
X2809Y6585D02*
D03*
Y7372D02*
D03*
X2799Y10054D02*
D03*
Y10841D02*
D03*
X24777Y4371D02*
D03*
Y5158D02*
D03*
Y6733D02*
D03*
Y5946D02*
D03*
D40*
X25036Y1055D02*
D03*
X18036D02*
D03*
X25036Y20055D02*
D03*
X16436Y20055D02*
D03*
D41*
X24036Y1055D02*
D03*
X23068D02*
D03*
X22083D02*
D03*
X21068D02*
D03*
X20068D02*
D03*
X13068D02*
D03*
X14068D02*
D03*
X15083D02*
D03*
X16068D02*
D03*
X17036D02*
D03*
X12068D02*
D03*
X11068D02*
D03*
X20068Y20055D02*
D03*
X21068D02*
D03*
X22083D02*
D03*
X23068D02*
D03*
X24036D02*
D03*
X19068D02*
D03*
X18068D02*
D03*
X7468Y20055D02*
D03*
X8468D02*
D03*
X9468D02*
D03*
X10468D02*
D03*
X15436D02*
D03*
X14468D02*
D03*
X13483D02*
D03*
X12468D02*
D03*
X11468D02*
D03*
D42*
X4219Y2972D02*
D03*
X1857D02*
D03*
D43*
X3038Y1083D02*
D03*
D44*
X21533Y11340D02*
D03*
Y10868D02*
D03*
M02*
