G04 Layer_Color=2752767*
%FSLAX24Y24*%
%MOIN*%
G70*
G01*
G75*
%ADD117C,0.0020*%
%ADD118C,0.0027*%
D117*
X2688Y14176D02*
Y14336D01*
X2848D01*
Y14176D01*
X2688D01*
Y13389D02*
Y13549D01*
X2848D01*
Y13389D01*
X2688D01*
Y14963D02*
Y15123D01*
X2848D01*
Y14963D01*
X2688D01*
Y15751D02*
Y15911D01*
X2848D01*
Y15751D01*
X2688D01*
X2729Y6505D02*
Y6665D01*
X2889D01*
Y6505D01*
X2729D01*
Y7292D02*
Y7452D01*
X2889D01*
Y7292D01*
X2729D01*
X2719Y9974D02*
Y10134D01*
X2879D01*
Y9974D01*
X2719D01*
Y10761D02*
Y10921D01*
X2879D01*
Y10761D01*
X2719D01*
X4219Y2892D02*
X4139Y3052D01*
X4299D01*
X4219Y2892D01*
X3038Y1003D02*
X2958Y1163D01*
X3118D01*
X3038Y1003D01*
X1857Y2892D02*
X1777Y3052D01*
X1937D01*
X1857Y2892D01*
X24697Y4291D02*
Y4451D01*
X24857D01*
Y4291D01*
X24697D01*
Y5078D02*
Y5238D01*
X24857D01*
Y5078D01*
X24697D01*
Y6653D02*
Y6813D01*
X24857D01*
Y6653D01*
X24697D01*
Y5866D02*
Y6026D01*
X24857D01*
Y5866D01*
X24697D01*
X21533Y11260D02*
X21573Y11300D01*
X21613D01*
X21573Y11340D01*
X21613Y11380D01*
X21573D01*
X21533Y11420D01*
X21493Y11380D01*
X21453D01*
X21493Y11340D01*
X21453Y11300D01*
X21493D01*
X21533Y11260D01*
Y10788D02*
X21573Y10828D01*
X21613D01*
X21573Y10868D01*
X21613Y10908D01*
X21573D01*
X21533Y10948D01*
X21493Y10908D01*
X21453D01*
X21493Y10868D01*
X21453Y10828D01*
X21493D01*
X21533Y10788D01*
X23480Y11437D02*
X23520Y11517D01*
X23480Y11597D01*
X23560Y11557D01*
X23640Y11597D01*
X23600Y11517D01*
X23640Y11437D01*
X23560Y11477D01*
X23480Y11437D01*
X20723Y11599D02*
X20763Y11679D01*
X20723Y11759D01*
X20803Y11719D01*
X20883Y11759D01*
X20843Y11679D01*
X20883Y11599D01*
X20803Y11639D01*
X20723Y11599D01*
X18168Y11639D02*
X18208Y11719D01*
X18168Y11799D01*
X18248Y11759D01*
X18328Y11799D01*
X18288Y11719D01*
X18328Y11639D01*
X18248Y11679D01*
X18168Y11639D01*
X18979Y12896D02*
X19019Y12976D01*
X18979Y13056D01*
X19059Y13016D01*
X19139Y13056D01*
X19099Y12976D01*
X19139Y12896D01*
X19059Y12936D01*
X18979Y12896D01*
X16546Y6814D02*
X16586Y6894D01*
X16546Y6974D01*
X16626Y6934D01*
X16706Y6974D01*
X16666Y6894D01*
X16706Y6814D01*
X16626Y6854D01*
X16546Y6814D01*
X6611Y15557D02*
X6651Y15637D01*
X6611Y15717D01*
X6691Y15677D01*
X6771Y15717D01*
X6731Y15637D01*
X6771Y15557D01*
X6691Y15597D01*
X6611Y15557D01*
X8021Y14041D02*
X8061Y14121D01*
X8021Y14201D01*
X8101Y14161D01*
X8181Y14201D01*
X8141Y14121D01*
X8181Y14041D01*
X8101Y14081D01*
X8021Y14041D01*
Y11915D02*
X8061Y11995D01*
X8021Y12075D01*
X8101Y12035D01*
X8181Y12075D01*
X8141Y11995D01*
X8181Y11915D01*
X8101Y11955D01*
X8021Y11915D01*
Y9784D02*
X8061Y9864D01*
X8021Y9944D01*
X8101Y9904D01*
X8181Y9944D01*
X8141Y9864D01*
X8181Y9784D01*
X8101Y9824D01*
X8021Y9784D01*
Y7659D02*
X8061Y7739D01*
X8021Y7819D01*
X8101Y7779D01*
X8181Y7819D01*
X8141Y7739D01*
X8181Y7659D01*
X8101Y7699D01*
X8021Y7659D01*
X9670Y14414D02*
X9710Y14494D01*
X9670Y14574D01*
X9750Y14534D01*
X9830Y14574D01*
X9790Y14494D01*
X9830Y14414D01*
X9750Y14454D01*
X9670Y14414D01*
X9670Y13233D02*
X9710Y13313D01*
X9670Y13393D01*
X9750Y13353D01*
X9830Y13393D01*
X9790Y13313D01*
X9830Y13233D01*
X9750Y13273D01*
X9670Y13233D01*
Y12288D02*
X9710Y12368D01*
X9670Y12448D01*
X9750Y12408D01*
X9830Y12448D01*
X9790Y12368D01*
X9830Y12288D01*
X9750Y12328D01*
X9670Y12288D01*
Y11107D02*
X9710Y11187D01*
X9670Y11267D01*
X9750Y11227D01*
X9830Y11267D01*
X9790Y11187D01*
X9830Y11107D01*
X9750Y11147D01*
X9670Y11107D01*
Y10241D02*
X9710Y10321D01*
X9670Y10401D01*
X9750Y10361D01*
X9830Y10401D01*
X9790Y10321D01*
X9830Y10241D01*
X9750Y10281D01*
X9670Y10241D01*
Y8115D02*
X9710Y8195D01*
X9670Y8275D01*
X9750Y8235D01*
X9830Y8275D01*
X9790Y8195D01*
X9830Y8115D01*
X9750Y8155D01*
X9670Y8115D01*
Y7524D02*
X9710Y7604D01*
X9670Y7684D01*
X9750Y7644D01*
X9830Y7684D01*
X9790Y7604D01*
X9830Y7524D01*
X9750Y7564D01*
X9670Y7524D01*
X9571Y3164D02*
X9611Y3244D01*
X9571Y3324D01*
X9651Y3284D01*
X9731Y3324D01*
X9691Y3244D01*
X9731Y3164D01*
X9651Y3204D01*
X9571Y3164D01*
X10585Y9125D02*
X10625Y9205D01*
X10585Y9285D01*
X10665Y9245D01*
X10745Y9285D01*
X10705Y9205D01*
X10745Y9125D01*
X10665Y9165D01*
X10585Y9125D01*
X8192Y3529D02*
X8232Y3609D01*
X8192Y3689D01*
X8272Y3649D01*
X8352Y3689D01*
X8312Y3609D01*
X8352Y3529D01*
X8272Y3569D01*
X8192Y3529D01*
X10533Y4016D02*
X10573Y4096D01*
X10533Y4176D01*
X10613Y4136D01*
X10693Y4176D01*
X10653Y4096D01*
X10693Y4016D01*
X10613Y4056D01*
X10533Y4016D01*
X12351Y6350D02*
X12391Y6430D01*
X12351Y6510D01*
X12431Y6470D01*
X12511Y6510D01*
X12471Y6430D01*
X12511Y6350D01*
X12431Y6390D01*
X12351Y6350D01*
X26411Y10412D02*
X26451Y10492D01*
X26411Y10572D01*
X26491Y10532D01*
X26571Y10572D01*
X26531Y10492D01*
X26571Y10412D01*
X26491Y10452D01*
X26411Y10412D01*
X15110Y10967D02*
X15150Y11047D01*
X15110Y11127D01*
X15190Y11087D01*
X15270Y11127D01*
X15230Y11047D01*
X15270Y10967D01*
X15190Y11007D01*
X15110Y10967D01*
Y8756D02*
X15150Y8836D01*
X15110Y8916D01*
X15190Y8876D01*
X15270Y8916D01*
X15230Y8836D01*
X15270Y8756D01*
X15190Y8796D01*
X15110Y8756D01*
X11784Y9653D02*
X11824Y9733D01*
X11784Y9813D01*
X11864Y9773D01*
X11944Y9813D01*
X11904Y9733D01*
X11944Y9653D01*
X11864Y9693D01*
X11784Y9653D01*
X21737Y3813D02*
X21777Y3893D01*
X21737Y3973D01*
X21817Y3933D01*
X21897Y3973D01*
X21857Y3893D01*
X21897Y3813D01*
X21817Y3853D01*
X21737Y3813D01*
X5393Y6246D02*
X5433Y6286D01*
X5473D01*
X5433Y6326D01*
X5473Y6366D01*
X5433D01*
X5393Y6406D01*
X5353Y6366D01*
X5313D01*
X5353Y6326D01*
X5313Y6286D01*
X5353D01*
X5393Y6246D01*
X8598Y2353D02*
X8638Y2433D01*
X8598Y2513D01*
X8678Y2473D01*
X8758Y2513D01*
X8718Y2433D01*
X8758Y2353D01*
X8678Y2393D01*
X8598Y2353D01*
X11112Y6449D02*
X11152Y6529D01*
X11112Y6609D01*
X11192Y6569D01*
X11272Y6609D01*
X11232Y6529D01*
X11272Y6449D01*
X11192Y6489D01*
X11112Y6449D01*
X10585Y7584D02*
X10625Y7664D01*
X10585Y7744D01*
X10665Y7704D01*
X10745Y7744D01*
X10705Y7664D01*
X10745Y7584D01*
X10665Y7624D01*
X10585Y7584D01*
X11505Y3478D02*
X11545Y3558D01*
X11505Y3638D01*
X11585Y3598D01*
X11665Y3638D01*
X11625Y3558D01*
X11665Y3478D01*
X11585Y3518D01*
X11505Y3478D01*
X11031Y15816D02*
X11071Y15896D01*
X11031Y15976D01*
X11111Y15936D01*
X11191Y15976D01*
X11151Y15896D01*
X11191Y15816D01*
X11111Y15856D01*
X11031Y15816D01*
X8355Y18411D02*
X8395Y18491D01*
X8355Y18571D01*
X8435Y18531D01*
X8515Y18571D01*
X8475Y18491D01*
X8515Y18411D01*
X8435Y18451D01*
X8355Y18411D01*
X13586Y14032D02*
X13626Y14112D01*
X13586Y14192D01*
X13666Y14152D01*
X13746Y14192D01*
X13706Y14112D01*
X13746Y14032D01*
X13666Y14072D01*
X13586Y14032D01*
X8274Y15857D02*
X8314Y15937D01*
X8274Y16017D01*
X8354Y15977D01*
X8434Y16017D01*
X8394Y15937D01*
X8434Y15857D01*
X8354Y15897D01*
X8274Y15857D01*
X10666Y2536D02*
X10706Y2616D01*
X10666Y2696D01*
X10746Y2656D01*
X10826Y2696D01*
X10786Y2616D01*
X10826Y2536D01*
X10746Y2576D01*
X10666Y2536D01*
X13114Y11656D02*
X13154Y11736D01*
X13114Y11816D01*
X13194Y11776D01*
X13274Y11816D01*
X13234Y11736D01*
X13274Y11656D01*
X13194Y11696D01*
X13114Y11656D01*
X13114Y10755D02*
X13154Y10835D01*
X13114Y10915D01*
X13194Y10875D01*
X13274Y10915D01*
X13234Y10835D01*
X13274Y10755D01*
X13194Y10795D01*
X13114Y10755D01*
X12491Y15248D02*
X12531Y15328D01*
X12491Y15408D01*
X12571Y15368D01*
X12651Y15408D01*
X12611Y15328D01*
X12651Y15248D01*
X12571Y15288D01*
X12491Y15248D01*
X13951Y17641D02*
X13991Y17721D01*
X13951Y17801D01*
X14031Y17761D01*
X14111Y17801D01*
X14071Y17721D01*
X14111Y17641D01*
X14031Y17681D01*
X13951Y17641D01*
X22465Y8436D02*
X22505Y8476D01*
X22545D01*
X22505Y8516D01*
X22545Y8556D01*
X22505D01*
X22465Y8596D01*
X22425Y8556D01*
X22385D01*
X22425Y8516D01*
X22385Y8476D01*
X22425D01*
X22465Y8436D01*
X23237Y5394D02*
X23277Y5474D01*
X23237Y5554D01*
X23317Y5514D01*
X23397Y5554D01*
X23357Y5474D01*
X23397Y5394D01*
X23317Y5434D01*
X23237Y5394D01*
X9166Y18979D02*
X9206Y19059D01*
X9166Y19139D01*
X9246Y19099D01*
X9326Y19139D01*
X9286Y19059D01*
X9326Y18979D01*
X9246Y19019D01*
X9166Y18979D01*
X10648Y18617D02*
X10688Y18697D01*
X10648Y18777D01*
X10728Y18737D01*
X10808Y18777D01*
X10768Y18697D01*
X10808Y18617D01*
X10728Y18657D01*
X10648Y18617D01*
X11355Y15208D02*
X11395Y15288D01*
X11355Y15368D01*
X11435Y15328D01*
X11515Y15368D01*
X11475Y15288D01*
X11515Y15208D01*
X11435Y15248D01*
X11355Y15208D01*
X10342Y15370D02*
X10382Y15450D01*
X10342Y15530D01*
X10422Y15490D01*
X10502Y15530D01*
X10462Y15450D01*
X10502Y15370D01*
X10422Y15410D01*
X10342Y15370D01*
X12985Y15248D02*
X13025Y15328D01*
X12985Y15408D01*
X13065Y15368D01*
X13145Y15408D01*
X13105Y15328D01*
X13145Y15248D01*
X13065Y15288D01*
X12985Y15248D01*
X10058Y7787D02*
X10098Y7867D01*
X10058Y7947D01*
X10138Y7907D01*
X10218Y7947D01*
X10178Y7867D01*
X10218Y7787D01*
X10138Y7827D01*
X10058Y7787D01*
X6976Y8314D02*
X7016Y8394D01*
X6976Y8474D01*
X7056Y8434D01*
X7136Y8474D01*
X7096Y8394D01*
X7136Y8314D01*
X7056Y8354D01*
X6976Y8314D01*
X23492Y11975D02*
X23532Y12055D01*
X23492Y12135D01*
X23572Y12095D01*
X23652Y12135D01*
X23612Y12055D01*
X23652Y11975D01*
X23572Y12015D01*
X23492Y11975D01*
X23487Y10975D02*
X23527Y11055D01*
X23487Y11135D01*
X23567Y11095D01*
X23647Y11135D01*
X23607Y11055D01*
X23647Y10975D01*
X23567Y11015D01*
X23487Y10975D01*
X26411Y11482D02*
X26451Y11562D01*
X26411Y11642D01*
X26491Y11602D01*
X26571Y11642D01*
X26531Y11562D01*
X26571Y11482D01*
X26491Y11522D01*
X26411Y11482D01*
X26405Y12480D02*
X26445Y12560D01*
X26405Y12640D01*
X26485Y12600D01*
X26565Y12640D01*
X26525Y12560D01*
X26565Y12480D01*
X26485Y12520D01*
X26405Y12480D01*
X12855Y9490D02*
X12895Y9530D01*
X12935D01*
X12895Y9570D01*
X12935Y9610D01*
X12895D01*
X12855Y9650D01*
X12815Y9610D01*
X12775D01*
X12815Y9570D01*
X12775Y9530D01*
X12815D01*
X12855Y9490D01*
Y10081D02*
X12895Y10121D01*
X12935D01*
X12895Y10161D01*
X12935Y10201D01*
X12895D01*
X12855Y10241D01*
X12815Y10201D01*
X12775D01*
X12815Y10161D01*
X12775Y10121D01*
X12815D01*
X12855Y10081D01*
X10017Y9328D02*
X10057Y9408D01*
X10017Y9488D01*
X10097Y9448D01*
X10177Y9488D01*
X10137Y9408D01*
X10177Y9328D01*
X10097Y9368D01*
X10017Y9328D01*
X17073Y13059D02*
X17113Y13139D01*
X17073Y13219D01*
X17153Y13179D01*
X17233Y13219D01*
X17193Y13139D01*
X17233Y13059D01*
X17153Y13099D01*
X17073Y13059D01*
X16708Y14032D02*
X16748Y14112D01*
X16708Y14192D01*
X16788Y14152D01*
X16868Y14192D01*
X16828Y14112D01*
X16868Y14032D01*
X16788Y14072D01*
X16708Y14032D01*
X20871Y13910D02*
X20911Y13990D01*
X20871Y14070D01*
X20951Y14030D01*
X21031Y14070D01*
X20991Y13990D01*
X21031Y13910D01*
X20951Y13950D01*
X20871Y13910D01*
X21128Y14204D02*
X21168Y14284D01*
X21128Y14364D01*
X21208Y14324D01*
X21288Y14364D01*
X21248Y14284D01*
X21288Y14204D01*
X21208Y14244D01*
X21128Y14204D01*
X19466Y14194D02*
X19506Y14274D01*
X19466Y14354D01*
X19546Y14314D01*
X19626Y14354D01*
X19586Y14274D01*
X19626Y14194D01*
X19546Y14234D01*
X19466Y14194D01*
X24535Y15046D02*
X24575Y15126D01*
X24535Y15206D01*
X24615Y15166D01*
X24695Y15206D01*
X24655Y15126D01*
X24695Y15046D01*
X24615Y15086D01*
X24535Y15046D01*
X25062Y15005D02*
X25102Y15085D01*
X25062Y15165D01*
X25142Y15125D01*
X25222Y15165D01*
X25182Y15085D01*
X25222Y15005D01*
X25142Y15045D01*
X25062Y15005D01*
Y13545D02*
X25102Y13625D01*
X25062Y13705D01*
X25142Y13665D01*
X25222Y13705D01*
X25182Y13625D01*
X25222Y13545D01*
X25142Y13585D01*
X25062Y13545D01*
X16708Y15329D02*
X16748Y15409D01*
X16708Y15489D01*
X16788Y15449D01*
X16868Y15489D01*
X16828Y15409D01*
X16868Y15329D01*
X16788Y15369D01*
X16708Y15329D01*
X21372Y9977D02*
X21412Y10057D01*
X21372Y10137D01*
X21452Y10097D01*
X21532Y10137D01*
X21492Y10057D01*
X21532Y9977D01*
X21452Y10017D01*
X21372Y9977D01*
X23480D02*
X23520Y10057D01*
X23480Y10137D01*
X23560Y10097D01*
X23640Y10137D01*
X23600Y10057D01*
X23640Y9977D01*
X23560Y10017D01*
X23480Y9977D01*
X21737Y13829D02*
X21777Y13909D01*
X21737Y13989D01*
X21817Y13949D01*
X21897Y13989D01*
X21857Y13909D01*
X21897Y13829D01*
X21817Y13869D01*
X21737Y13829D01*
X20332Y13401D02*
Y13361D01*
X20412D01*
Y13401D01*
X20452D01*
Y13481D01*
X20412D01*
Y13521D01*
X20332D01*
Y13481D01*
X20292D01*
Y13401D01*
X20332D01*
D118*
X25116Y1055D02*
G03*
X25116Y1055I-80J0D01*
G01*
X24116D02*
G03*
X24116Y1055I-80J0D01*
G01*
X23148D02*
G03*
X23148Y1055I-80J0D01*
G01*
X22163D02*
G03*
X22163Y1055I-80J0D01*
G01*
X21148D02*
G03*
X21148Y1055I-80J0D01*
G01*
X20148D02*
G03*
X20148Y1055I-80J0D01*
G01*
X13148D02*
G03*
X13148Y1055I-80J0D01*
G01*
X14148D02*
G03*
X14148Y1055I-80J0D01*
G01*
X15163D02*
G03*
X15163Y1055I-80J0D01*
G01*
X16148D02*
G03*
X16148Y1055I-80J0D01*
G01*
X17116D02*
G03*
X17116Y1055I-80J0D01*
G01*
X18116D02*
G03*
X18116Y1055I-80J0D01*
G01*
X12148D02*
G03*
X12148Y1055I-80J0D01*
G01*
X11148D02*
G03*
X11148Y1055I-80J0D01*
G01*
X20148Y20055D02*
G03*
X20148Y20055I-80J0D01*
G01*
X21148D02*
G03*
X21148Y20055I-80J0D01*
G01*
X22163D02*
G03*
X22163Y20055I-80J0D01*
G01*
X23148D02*
G03*
X23148Y20055I-80J0D01*
G01*
X24116D02*
G03*
X24116Y20055I-80J0D01*
G01*
X25116D02*
G03*
X25116Y20055I-80J0D01*
G01*
X19148D02*
G03*
X19148Y20055I-80J0D01*
G01*
X18148D02*
G03*
X18148Y20055I-80J0D01*
G01*
X7548Y20055D02*
G03*
X7548Y20055I-80J0D01*
G01*
X8548D02*
G03*
X8548Y20055I-80J0D01*
G01*
X9548D02*
G03*
X9548Y20055I-80J0D01*
G01*
X10548D02*
G03*
X10548Y20055I-80J0D01*
G01*
X16516D02*
G03*
X16516Y20055I-80J0D01*
G01*
X15516D02*
G03*
X15516Y20055I-80J0D01*
G01*
X14548D02*
G03*
X14548Y20055I-80J0D01*
G01*
X13563D02*
G03*
X13563Y20055I-80J0D01*
G01*
X12548D02*
G03*
X12548Y20055I-80J0D01*
G01*
X11548D02*
G03*
X11548Y20055I-80J0D01*
G01*
M02*
