G04 Layer_Color=8421504*
%FSLAX24Y24*%
%MOIN*%
G70*
G01*
G75*
%ADD59R,0.0283X0.0283*%
%ADD60R,0.0193X0.0169*%
%ADD61R,0.0316X0.0296*%
%ADD62R,0.0296X0.0316*%
%ADD63R,0.0434X0.0788*%
%ADD64R,0.0316X0.0316*%
%ADD65R,0.0355X0.0276*%
%ADD66R,0.0316X0.0316*%
%ADD67R,0.0788X0.0434*%
%ADD68R,0.0513X0.0591*%
%ADD69O,0.0670X0.0119*%
%ADD70R,0.0473X0.0985*%
%ADD71R,0.0611X0.0513*%
%ADD72R,0.1501X0.0501*%
%ADD73R,0.0276X0.0119*%
%ADD74R,0.0394X0.0374*%
%ADD75R,0.0394X0.0373*%
%ADD76R,0.0119X0.0276*%
%ADD77R,0.0374X0.0394*%
%ADD78R,0.0373X0.0394*%
%ADD79R,0.0158X0.0080*%
%ADD80R,0.0198X0.0198*%
%ADD81R,0.0080X0.0257*%
D59*
X20365Y13441D02*
D03*
D60*
X20461Y13344D02*
D03*
D61*
X22871Y12309D02*
D03*
Y11778D02*
D03*
Y10724D02*
D03*
Y11255D02*
D03*
X22425Y12873D02*
D03*
Y13404D02*
D03*
X11138Y3575D02*
D03*
Y3044D02*
D03*
Y4389D02*
D03*
Y4921D02*
D03*
X7041Y17282D02*
D03*
Y17814D02*
D03*
X7671D02*
D03*
Y17282D02*
D03*
X21654Y12873D02*
D03*
Y13404D02*
D03*
X19059Y13972D02*
D03*
Y13441D02*
D03*
D62*
X11900Y6083D02*
D03*
X12431D02*
D03*
X10643Y6083D02*
D03*
X11174D02*
D03*
X8675Y2915D02*
D03*
X9207D02*
D03*
X9493Y3899D02*
D03*
X10025D02*
D03*
X8900Y14494D02*
D03*
X9432D02*
D03*
X8900Y13313D02*
D03*
X9432D02*
D03*
X8900Y13904D02*
D03*
X9432D02*
D03*
X8900Y12368D02*
D03*
X9432D02*
D03*
X8900Y11778D02*
D03*
X9432D02*
D03*
X8900Y11187D02*
D03*
X9432D02*
D03*
X8900Y10321D02*
D03*
X9432D02*
D03*
X8900Y9730D02*
D03*
X9432D02*
D03*
X8900Y8195D02*
D03*
X9432D02*
D03*
X8900Y9140D02*
D03*
X9432D02*
D03*
X8900Y7604D02*
D03*
X9432D02*
D03*
X8900Y7014D02*
D03*
X9432D02*
D03*
X14156Y8980D02*
D03*
X13625D02*
D03*
X14156Y10161D02*
D03*
X13625D02*
D03*
X14156Y9570D02*
D03*
X13625D02*
D03*
X14156Y11145D02*
D03*
X13625D02*
D03*
X14156Y12326D02*
D03*
X13625D02*
D03*
X14156Y11736D02*
D03*
X13625D02*
D03*
X9390Y16545D02*
D03*
X8858D02*
D03*
X7663Y15637D02*
D03*
X7131D02*
D03*
X11458Y17478D02*
D03*
X10926D02*
D03*
X9390Y15653D02*
D03*
X8858D02*
D03*
X21069Y12125D02*
D03*
X20537D02*
D03*
X13035Y17843D02*
D03*
X13567D02*
D03*
D63*
X8733Y4333D02*
D03*
D64*
Y5081D02*
D03*
D65*
X15780Y9624D02*
D03*
Y9231D02*
D03*
X15190Y9624D02*
D03*
Y9231D02*
D03*
X15780Y11835D02*
D03*
Y11442D02*
D03*
X15190Y11835D02*
D03*
Y11442D02*
D03*
X7198Y13728D02*
D03*
Y14121D02*
D03*
X7788Y13728D02*
D03*
Y14121D02*
D03*
X7198Y7346D02*
D03*
Y7739D02*
D03*
X7788Y7346D02*
D03*
Y7739D02*
D03*
X7198Y11602D02*
D03*
Y11995D02*
D03*
X7788Y11602D02*
D03*
Y11995D02*
D03*
X7198Y9471D02*
D03*
Y9864D02*
D03*
X7788Y9471D02*
D03*
Y9864D02*
D03*
D66*
X10728Y18207D02*
D03*
D67*
X11476D02*
D03*
D68*
X9540Y17640D02*
D03*
X8870D02*
D03*
D69*
X10422Y16556D02*
D03*
Y16359D02*
D03*
Y16162D02*
D03*
Y15965D02*
D03*
Y15769D02*
D03*
X12037Y16556D02*
D03*
Y16359D02*
D03*
Y16162D02*
D03*
Y15965D02*
D03*
Y15769D02*
D03*
D70*
X2147Y20019D02*
D03*
X4116D02*
D03*
X3131D02*
D03*
Y17853D02*
D03*
X4116D02*
D03*
X2147D02*
D03*
D71*
X15133Y4736D02*
D03*
X18263D02*
D03*
Y2964D02*
D03*
X15133D02*
D03*
X20200Y8506D02*
D03*
X23330D02*
D03*
Y6734D02*
D03*
X20200D02*
D03*
X20212Y4742D02*
D03*
X23342D02*
D03*
Y2970D02*
D03*
X20212D02*
D03*
D72*
X24741Y12055D02*
D03*
X26491D02*
D03*
X24741Y11055D02*
D03*
X26491D02*
D03*
X24741Y10055D02*
D03*
X26491D02*
D03*
D73*
X11390Y13867D02*
D03*
Y13612D02*
D03*
Y13101D02*
D03*
Y13357D02*
D03*
X10665D02*
D03*
Y13101D02*
D03*
Y13612D02*
D03*
Y13867D02*
D03*
X11864Y10481D02*
D03*
Y10736D02*
D03*
Y11247D02*
D03*
Y10991D02*
D03*
X12589D02*
D03*
Y11247D02*
D03*
Y10736D02*
D03*
Y10481D02*
D03*
X11390Y8814D02*
D03*
Y8559D02*
D03*
Y8048D02*
D03*
Y8304D02*
D03*
X10665D02*
D03*
Y8048D02*
D03*
Y8559D02*
D03*
Y8814D02*
D03*
X13790Y16464D02*
D03*
Y16209D02*
D03*
Y15698D02*
D03*
Y15954D02*
D03*
X13065D02*
D03*
Y15698D02*
D03*
Y16209D02*
D03*
Y16464D02*
D03*
D74*
X11175Y13739D02*
D03*
X12079Y10608D02*
D03*
X11175Y8687D02*
D03*
X13575Y16337D02*
D03*
D75*
X11175Y13229D02*
D03*
X12079Y11118D02*
D03*
X11175Y8177D02*
D03*
X13575Y15826D02*
D03*
D76*
X9641Y5255D02*
D03*
X9896D02*
D03*
X10407D02*
D03*
X10151D02*
D03*
Y4530D02*
D03*
X10407D02*
D03*
X9896D02*
D03*
X9641D02*
D03*
D77*
X9768Y5040D02*
D03*
D78*
X10278Y5040D02*
D03*
D79*
X10027Y2933D02*
D03*
X10027Y3093D02*
D03*
X10457Y2776D02*
D03*
Y2616D02*
D03*
D80*
X10313Y3021D02*
D03*
X10150Y2694D02*
D03*
D81*
X20065Y13000D02*
D03*
X20262D02*
D03*
X20459D02*
D03*
X20656D02*
D03*
X20065Y13881D02*
D03*
X20262D02*
D03*
X20459D02*
D03*
X20656D02*
D03*
M02*
