G04 Layer_Physical_Order=3*
G04 Layer_Color=16440176*
%FSLAX24Y24*%
%MOIN*%
G70*
G01*
G75*
%ADD34C,0.0197*%
%ADD35C,0.0394*%
%ADD37C,0.0118*%
%ADD38C,0.0080*%
%ADD40R,0.0787X0.0787*%
%ADD41C,0.0787*%
%ADD44C,0.0315*%
%ADD45C,0.0276*%
D34*
X21817Y3893D02*
Y4582D01*
X11468Y18645D02*
Y20055D01*
X12468Y18632D02*
Y20055D01*
X10863Y18041D02*
X11468Y18645D01*
X4663Y7056D02*
X5393Y6326D01*
X4219Y6608D02*
X5799Y5028D01*
X21370D01*
X21817Y4582D01*
X4219Y6608D02*
Y16142D01*
X6119Y18041D01*
X10863D01*
X11435Y17599D02*
X12468Y18632D01*
X6367Y17599D02*
X11435D01*
X4663Y7056D02*
Y15896D01*
X6367Y17599D01*
D35*
X17843Y15450D02*
X18654Y16261D01*
X22628D01*
X23068Y16701D01*
Y20055D01*
X25036Y16358D02*
Y20055D01*
X23966Y15288D02*
X25036Y16358D01*
X16626Y6894D02*
Y11922D01*
X17843Y13139D01*
Y15450D01*
X19732Y12936D02*
X21851D01*
X19789Y15288D02*
X23966D01*
X19132Y13536D02*
Y14631D01*
Y13536D02*
X19732Y12936D01*
X19132Y14631D02*
X19789Y15288D01*
X22465Y8516D02*
X22546Y8597D01*
Y12246D01*
X21854Y12939D02*
X22546Y12246D01*
D37*
X17843Y11395D02*
X18167Y11719D01*
X17843Y6981D02*
Y11395D01*
X14468Y18622D02*
Y20055D01*
X13483Y18674D02*
Y20055D01*
X10665Y7664D02*
X11070Y8070D01*
X12553Y16707D02*
X14468Y18622D01*
X16436Y18585D02*
Y20055D01*
X14152Y16302D02*
X16436Y18585D01*
X11111Y15896D02*
X15369D01*
X18068Y18595D01*
Y20055D01*
X24169Y13909D02*
X25385Y12693D01*
X3771Y16359D02*
X7468Y20055D01*
X3771Y6367D02*
Y16359D01*
X11963Y17153D02*
X13483Y18674D01*
X11435Y6888D02*
X12889Y5434D01*
X5109Y9854D02*
X6245Y8719D01*
X6488Y17153D02*
X11963D01*
X5109Y9854D02*
Y15774D01*
X6488Y17153D01*
X6610Y16707D02*
X12553D01*
X5474Y10057D02*
Y15572D01*
X6610Y16707D01*
X5880Y10300D02*
Y15409D01*
X6772Y16302D01*
X14152D01*
X24036Y1055D02*
Y1246D01*
X25993Y3204D01*
X23763Y2352D02*
X25385Y3974D01*
Y12693D01*
X23560Y1987D02*
X24087D01*
X23068Y1494D02*
X23560Y1987D01*
X23068Y1055D02*
Y1494D01*
X22083Y1055D02*
Y1200D01*
X23236Y2352D01*
X23763D01*
X17843Y6981D02*
X19025Y5799D01*
X11585Y3558D02*
X12060Y3082D01*
X21776D01*
X22263Y3568D01*
X11233Y2757D02*
X21938D01*
X22587Y3406D01*
X19025Y5799D02*
X21898D01*
X22587Y5109D01*
Y3406D02*
Y5109D01*
X3771Y6367D02*
X5542Y4596D01*
X9395D01*
X11233Y2757D01*
X12889Y5434D02*
X21654D01*
X22263Y4826D01*
Y3568D02*
Y4826D01*
X21898Y6894D02*
X23317Y5474D01*
X18451Y13195D02*
Y15126D01*
X22083Y18920D02*
Y20055D01*
X21614Y18451D02*
X22083Y18920D01*
X24087Y1987D02*
X25709Y3609D01*
X13065Y15288D02*
Y15328D01*
X12571Y15328D02*
X12866Y15624D01*
X13194Y11736D02*
X14963Y13505D01*
Y15044D01*
X14384Y15624D02*
X14963Y15044D01*
X12866Y15624D02*
X14384D01*
X14355Y13666D02*
Y15004D01*
X12165Y11476D02*
X14355Y13666D01*
X13382Y9124D02*
X13666Y9408D01*
X12165D02*
Y11476D01*
Y9408D02*
X12449Y9124D01*
X13382D01*
X13666Y9408D02*
Y10503D01*
X16220Y13057D01*
X13194Y10835D02*
X15572Y13212D01*
X11070Y8070D02*
Y9489D01*
X9703Y9703D02*
X10856D01*
X11070Y9489D01*
X11435Y6888D02*
Y9611D01*
X11070Y9976D02*
X11435Y9611D01*
X9489Y9976D02*
X11070D01*
X5474Y10057D02*
X6488Y9043D01*
X9043D01*
X9703Y9703D01*
X5880Y10300D02*
X6732Y9448D01*
X8962D01*
X9489Y9976D01*
X7056Y8394D02*
X8232D01*
X9022Y7604D01*
X9750D01*
X24036Y16494D02*
Y20055D01*
X12490Y11032D02*
X13194Y11736D01*
X12490Y9854D02*
Y11032D01*
Y9854D02*
X12774Y9570D01*
X12855D01*
X13065Y15328D02*
X14031D01*
X14355Y15004D01*
X6245Y8719D02*
X9408D01*
X10097Y9408D01*
X21370Y13990D02*
X21735Y14355D01*
X20951Y13990D02*
X21370D01*
X25993Y3204D02*
Y13463D01*
X21735Y14355D02*
X24412D01*
X25709Y13057D01*
Y3609D02*
Y13057D01*
X24615Y14842D02*
Y15126D01*
X18451Y15126D02*
X19059Y15734D01*
X23276D01*
X24036Y16494D01*
X21208Y14284D02*
X21766Y14842D01*
X24615D01*
X25993Y13463D01*
X16220Y13057D02*
Y15491D01*
X19181Y18451D01*
X21614D01*
X15572Y13212D02*
Y15491D01*
X19068Y18987D01*
Y20055D01*
X21898Y6894D02*
Y10341D01*
X13068Y1055D02*
Y1632D01*
X13828Y2393D01*
X22141D01*
X22911Y3163D01*
Y5312D01*
X21452Y6772D02*
X22911Y5312D01*
X21452Y6772D02*
Y10057D01*
X21817Y13909D02*
X24169D01*
X18451Y13195D02*
X19399Y12246D01*
X21695D01*
X21898Y10341D02*
X22152Y10595D01*
Y11789D01*
X21695Y12246D02*
X22152Y11789D01*
D38*
X12571Y15328D02*
Y15328D01*
D40*
X25036Y20055D02*
D03*
X16436Y20055D02*
D03*
D41*
X24036Y1055D02*
D03*
X23068D02*
D03*
X22083D02*
D03*
X13068D02*
D03*
X22083Y20055D02*
D03*
X23068D02*
D03*
X24036D02*
D03*
X19068D02*
D03*
X18068D02*
D03*
X7468Y20055D02*
D03*
X14468D02*
D03*
X13483D02*
D03*
X12468D02*
D03*
X11468D02*
D03*
D44*
X5393Y6326D02*
D03*
X22465Y8516D02*
D03*
X12855Y9570D02*
D03*
D45*
X18248Y11719D02*
D03*
X16626Y6894D02*
D03*
X9750Y7604D02*
D03*
X21817Y3893D02*
D03*
X10665Y7664D02*
D03*
X11585Y3558D02*
D03*
X11111Y15896D02*
D03*
X13194Y11736D02*
D03*
X13194Y10835D02*
D03*
X12571Y15328D02*
D03*
X23317Y5474D02*
D03*
X13065Y15328D02*
D03*
X7056Y8394D02*
D03*
X10097Y9408D02*
D03*
X20951Y13990D02*
D03*
X21208Y14284D02*
D03*
X24615Y15126D02*
D03*
X25142Y13625D02*
D03*
X21452Y10057D02*
D03*
X21817Y13909D02*
D03*
M02*
