M48
;Layer_Color=9474304
;FILE_FORMAT=2:4
INCH
;TYPE=PLATED
T1F00S00C0.0079
T2F00S00C0.0118
T3F00S00C0.0157
T4F00S00C0.0315
T5F00S00C0.0394
%
T01
X040372Y043441
T02
X028678Y032433
X028272Y033609
X029651Y033244
X030746Y032616
X030613Y034096
X031192Y036529
X030665Y037664
X030138Y037867
X029750Y037604
Y038195
X030097Y039408
X030665Y039205
X029750Y040321
Y041187
Y042368
Y043313
X029750Y044494
X030422Y045450
X031111Y045896
X028354Y045937
X026691Y045637
X028101Y044121
Y041995
Y039864
Y037739
X027056Y038394
X031864Y039733
X033194Y040835
X033194Y041736
X035190Y041047
Y038836
X036626Y036894
X032431Y036430
X031585Y033558
X041817Y033893
X043317Y035474
X043560Y040057
X043567Y041055
X043560Y041517
X043572Y042055
X045142Y043625
Y045085
X044615Y045126
X041817Y043909
X040951Y043990
X041208Y044284
X039546Y044274
X039059Y042976
X037153Y043139
X036788Y044112
Y045409
X033065Y045328
X032571
X031435Y045288
X033666Y044112
X038248Y041719
X040803Y041679
X041452Y040057
X046491Y040492
Y041562
X046485Y042560
X034031Y047721
X030728Y048697
X029246Y049059
X028435Y048491
T03
X025393Y036326
X032855Y039570
Y040161
X041533Y040868
Y041340
X042465Y038516
T04
X022809Y036585
Y037372
X022799Y040054
Y040841
X022768Y043468
Y044256
Y045043
Y045831
X044777Y036733
Y035946
Y035158
Y034371
T05
X032068Y031055
X033068
X034068
X035083
X036068
X037036
X038036
X040068
X041068
X042083
X043068
X044036
X045036
X031068
X031468Y050055
X032468
X033483
X034468
X035436
X036436
X038068Y050055
X039068
X040068
X041068
X042083
X043068
X044036
X045036
X030468Y050055
X029468
X028468
X027468
M30
