G04 Layer_Color=255*
%FSLAX24Y24*%
%MOIN*%
G70*
G01*
G75*
%ADD10R,0.0157X0.0079*%
%ADD11R,0.0197X0.0197*%
%ADD12R,0.0372X0.0394*%
%ADD13R,0.0373X0.0394*%
%ADD14R,0.0118X0.0276*%
%ADD15R,0.0394X0.0372*%
%ADD16R,0.0394X0.0373*%
%ADD17R,0.0276X0.0118*%
%ADD18R,0.0315X0.0295*%
%ADD19R,0.0295X0.0315*%
%ADD20R,0.1500X0.0500*%
%ADD21R,0.0610X0.0512*%
%ADD22R,0.0472X0.0984*%
%ADD23O,0.0906X0.0236*%
%ADD24O,0.0669X0.0118*%
%ADD25R,0.0512X0.0591*%
%ADD26R,0.0787X0.0433*%
%ADD27R,0.0315X0.0315*%
%ADD28R,0.0354X0.0276*%
%ADD29C,0.0394*%
%ADD30R,0.0315X0.0315*%
%ADD31R,0.0433X0.0787*%
%ADD37C,0.0512*%
%ADD38C,0.0787*%
%ADD39R,0.0787X0.0787*%
G04:AMPARAMS|DCode=40|XSize=66.9mil|YSize=137.8mil|CornerRadius=16.7mil|HoleSize=0mil|Usage=FLASHONLY|Rotation=0.000|XOffset=0mil|YOffset=0mil|HoleType=Round|Shape=RoundedRectangle|*
%AMROUNDEDRECTD40*
21,1,0.0669,0.1043,0,0,0.0*
21,1,0.0335,0.1378,0,0,0.0*
1,1,0.0335,0.0167,-0.0522*
1,1,0.0335,-0.0167,-0.0522*
1,1,0.0335,-0.0167,0.0522*
1,1,0.0335,0.0167,0.0522*
%
%ADD40ROUNDEDRECTD40*%
G04:AMPARAMS|DCode=41|XSize=66.9mil|YSize=137.8mil|CornerRadius=16.7mil|HoleSize=0mil|Usage=FLASHONLY|Rotation=270.000|XOffset=0mil|YOffset=0mil|HoleType=Round|Shape=RoundedRectangle|*
%AMROUNDEDRECTD41*
21,1,0.0669,0.1043,0,0,270.0*
21,1,0.0335,0.1378,0,0,270.0*
1,1,0.0335,-0.0522,-0.0167*
1,1,0.0335,-0.0522,0.0167*
1,1,0.0335,0.0522,0.0167*
1,1,0.0335,0.0522,-0.0167*
%
%ADD41ROUNDEDRECTD41*%
D10*
X10457Y2616D02*
D03*
Y2776D02*
D03*
X10027Y3093D02*
D03*
X10027Y2933D02*
D03*
D11*
X10150Y2694D02*
D03*
X10313Y3021D02*
D03*
D12*
X10278Y5040D02*
D03*
D13*
X9768Y5040D02*
D03*
D14*
X9641Y4530D02*
D03*
X9896D02*
D03*
X10407D02*
D03*
X10151D02*
D03*
Y5255D02*
D03*
X10407D02*
D03*
X9896D02*
D03*
X9641D02*
D03*
D15*
X13575Y15826D02*
D03*
X11175Y8177D02*
D03*
X12079Y11118D02*
D03*
X11175Y13229D02*
D03*
D16*
X13575Y16337D02*
D03*
X11175Y8687D02*
D03*
X12079Y10608D02*
D03*
X11175Y13739D02*
D03*
D17*
X13065Y16464D02*
D03*
Y16209D02*
D03*
Y15698D02*
D03*
Y15954D02*
D03*
X13790D02*
D03*
Y15698D02*
D03*
Y16209D02*
D03*
Y16464D02*
D03*
X10665Y8814D02*
D03*
Y8559D02*
D03*
Y8048D02*
D03*
Y8304D02*
D03*
X11390D02*
D03*
Y8048D02*
D03*
Y8559D02*
D03*
Y8814D02*
D03*
X12589Y10481D02*
D03*
Y10736D02*
D03*
Y11247D02*
D03*
Y10991D02*
D03*
X11864D02*
D03*
Y11247D02*
D03*
Y10736D02*
D03*
Y10481D02*
D03*
X10665Y13867D02*
D03*
Y13612D02*
D03*
Y13101D02*
D03*
Y13357D02*
D03*
X11390D02*
D03*
Y13101D02*
D03*
Y13612D02*
D03*
Y13867D02*
D03*
D18*
X17598Y14511D02*
D03*
Y13979D02*
D03*
X23307Y12958D02*
D03*
Y13489D02*
D03*
X16850Y13509D02*
D03*
Y14041D02*
D03*
X7671Y17282D02*
D03*
Y17814D02*
D03*
X7041D02*
D03*
Y17282D02*
D03*
X11138Y4921D02*
D03*
Y4389D02*
D03*
Y3044D02*
D03*
Y3575D02*
D03*
D19*
X20246Y15389D02*
D03*
X20778D02*
D03*
X8858Y15653D02*
D03*
X9390D02*
D03*
X13567Y17843D02*
D03*
X13035D02*
D03*
X10926Y17478D02*
D03*
X11458D02*
D03*
X7131Y15637D02*
D03*
X7663D02*
D03*
X8858Y16545D02*
D03*
X9390D02*
D03*
X13625Y11736D02*
D03*
X14156D02*
D03*
X13625Y12326D02*
D03*
X14156D02*
D03*
X13625Y11145D02*
D03*
X14156D02*
D03*
X13625Y9570D02*
D03*
X14156D02*
D03*
X13625Y10161D02*
D03*
X14156D02*
D03*
X13625Y8980D02*
D03*
X14156D02*
D03*
X9432Y7014D02*
D03*
X8900D02*
D03*
X9432Y7604D02*
D03*
X8900D02*
D03*
X9432Y9140D02*
D03*
X8900D02*
D03*
X9432Y8195D02*
D03*
X8900D02*
D03*
X9432Y9730D02*
D03*
X8900D02*
D03*
X9432Y10321D02*
D03*
X8900D02*
D03*
X9432Y11187D02*
D03*
X8900D02*
D03*
X9432Y11778D02*
D03*
X8900D02*
D03*
X9432Y12368D02*
D03*
X8900D02*
D03*
X9432Y13904D02*
D03*
X8900D02*
D03*
X9432Y13313D02*
D03*
X8900D02*
D03*
X9432Y14494D02*
D03*
X8900D02*
D03*
X10025Y3899D02*
D03*
X9493D02*
D03*
X9207Y2915D02*
D03*
X8675D02*
D03*
X11174Y6083D02*
D03*
X10643D02*
D03*
X12431Y6083D02*
D03*
X11900D02*
D03*
D20*
X26491Y10055D02*
D03*
X24741D02*
D03*
X26491Y11055D02*
D03*
X24741D02*
D03*
X26491Y12055D02*
D03*
X24741D02*
D03*
D21*
X20212Y2970D02*
D03*
X23342D02*
D03*
Y4742D02*
D03*
X20212D02*
D03*
X20200Y6734D02*
D03*
X23330D02*
D03*
Y8506D02*
D03*
X20200D02*
D03*
X15133Y2964D02*
D03*
X18263D02*
D03*
Y4736D02*
D03*
X15133D02*
D03*
D22*
X2147Y17853D02*
D03*
X4116D02*
D03*
X3131D02*
D03*
Y20019D02*
D03*
X4116D02*
D03*
X2147D02*
D03*
D23*
X18676Y14501D02*
D03*
Y14001D02*
D03*
Y13501D02*
D03*
Y13001D02*
D03*
Y12501D02*
D03*
Y12001D02*
D03*
Y11501D02*
D03*
Y11001D02*
D03*
X22259Y14501D02*
D03*
Y14001D02*
D03*
Y13501D02*
D03*
Y13001D02*
D03*
Y12501D02*
D03*
Y12001D02*
D03*
Y11501D02*
D03*
Y11001D02*
D03*
D24*
X12037Y15769D02*
D03*
Y15965D02*
D03*
Y16162D02*
D03*
Y16359D02*
D03*
Y16556D02*
D03*
X10422Y15769D02*
D03*
Y15965D02*
D03*
Y16162D02*
D03*
Y16359D02*
D03*
Y16556D02*
D03*
D25*
X8870Y17640D02*
D03*
X9540D02*
D03*
D26*
X11476Y18207D02*
D03*
D27*
X10728D02*
D03*
D28*
X7788Y9864D02*
D03*
Y9471D02*
D03*
X7198Y9864D02*
D03*
Y9471D02*
D03*
X7788Y11995D02*
D03*
Y11602D02*
D03*
X7198Y11995D02*
D03*
Y11602D02*
D03*
X7788Y7739D02*
D03*
Y7346D02*
D03*
X7198Y7739D02*
D03*
Y7346D02*
D03*
X7788Y14121D02*
D03*
Y13728D02*
D03*
X7198Y14121D02*
D03*
Y13728D02*
D03*
X15190Y11442D02*
D03*
Y11835D02*
D03*
X15780Y11442D02*
D03*
Y11835D02*
D03*
X15190Y9231D02*
D03*
Y9624D02*
D03*
X15780Y9231D02*
D03*
Y9624D02*
D03*
D29*
X11101Y7124D02*
D03*
X11019Y11767D02*
D03*
Y10083D02*
D03*
X7552Y5323D02*
D03*
Y2909D02*
D03*
Y4136D02*
D03*
X12095Y3558D02*
D03*
X12085Y4374D02*
D03*
Y5202D02*
D03*
Y2758D02*
D03*
D30*
X8733Y5081D02*
D03*
D31*
Y4333D02*
D03*
D37*
X24777Y5946D02*
D03*
Y6733D02*
D03*
Y5158D02*
D03*
Y4371D02*
D03*
X2799Y10841D02*
D03*
Y10054D02*
D03*
X2809Y7372D02*
D03*
Y6585D02*
D03*
X2768Y15831D02*
D03*
Y15043D02*
D03*
Y13469D02*
D03*
Y14256D02*
D03*
D38*
X11468Y20055D02*
D03*
X12468D02*
D03*
X13483D02*
D03*
X14468D02*
D03*
X15436D02*
D03*
X10468D02*
D03*
X9468D02*
D03*
X8468D02*
D03*
X7468D02*
D03*
X18068Y20055D02*
D03*
X19068D02*
D03*
X24036D02*
D03*
X23068D02*
D03*
X22083D02*
D03*
X21068D02*
D03*
X20068D02*
D03*
X11068Y1055D02*
D03*
X12068D02*
D03*
X17036D02*
D03*
X16068D02*
D03*
X15083D02*
D03*
X14068D02*
D03*
X13068D02*
D03*
X20068D02*
D03*
X21068D02*
D03*
X22083D02*
D03*
X23068D02*
D03*
X24036D02*
D03*
D39*
X16436Y20055D02*
D03*
X25036Y20055D02*
D03*
X18036Y1055D02*
D03*
X25036D02*
D03*
D40*
X1857Y2972D02*
D03*
X4219D02*
D03*
D41*
X3038Y1083D02*
D03*
M02*
