G04 Layer_Color=2752767*
%FSLAX24Y24*%
%MOIN*%
G70*
G01*
G75*
%ADD113C,0.0020*%
%ADD114C,0.0027*%
D113*
X24697Y5866D02*
Y6026D01*
X24857D01*
Y5866D01*
X24697D01*
Y6653D02*
Y6813D01*
X24857D01*
Y6653D01*
X24697D01*
Y5078D02*
Y5238D01*
X24857D01*
Y5078D01*
X24697D01*
Y4291D02*
Y4451D01*
X24857D01*
Y4291D01*
X24697D01*
X1857Y2892D02*
X1777Y3052D01*
X1937D01*
X1857Y2892D01*
X3038Y1003D02*
X2958Y1163D01*
X3118D01*
X3038Y1003D01*
X4219Y2892D02*
X4139Y3052D01*
X4299D01*
X4219Y2892D01*
X2719Y10761D02*
Y10921D01*
X2879D01*
Y10761D01*
X2719D01*
Y9974D02*
Y10134D01*
X2879D01*
Y9974D01*
X2719D01*
X2729Y7292D02*
Y7452D01*
X2889D01*
Y7292D01*
X2729D01*
Y6505D02*
Y6665D01*
X2889D01*
Y6505D01*
X2729D01*
X2688Y15751D02*
Y15911D01*
X2848D01*
Y15751D01*
X2688D01*
Y14963D02*
Y15123D01*
X2848D01*
Y14963D01*
X2688D01*
Y13389D02*
Y13549D01*
X2848D01*
Y13389D01*
X2688D01*
Y14176D02*
Y14336D01*
X2848D01*
Y14176D01*
X2688D01*
X10097Y9328D02*
X10137Y9368D01*
X10177D01*
X10137Y9408D01*
X10177Y9448D01*
X10137D01*
X10097Y9488D01*
X10057Y9448D01*
X10017D01*
X10057Y9408D01*
X10017Y9368D01*
X10057D01*
X10097Y9328D01*
X12775Y10081D02*
X12815Y10161D01*
X12775Y10241D01*
X12855Y10201D01*
X12935Y10241D01*
X12895Y10161D01*
X12935Y10081D01*
X12855Y10121D01*
X12775Y10081D01*
Y9490D02*
X12815Y9570D01*
X12775Y9650D01*
X12855Y9610D01*
X12935Y9650D01*
X12895Y9570D01*
X12935Y9490D01*
X12855Y9530D01*
X12775Y9490D01*
X23804Y12878D02*
X23844Y12918D01*
X23884D01*
X23844Y12958D01*
X23884Y12998D01*
X23844D01*
X23804Y13038D01*
X23764Y12998D01*
X23724D01*
X23764Y12958D01*
X23724Y12918D01*
X23764D01*
X23804Y12878D01*
X26485Y12480D02*
X26525Y12520D01*
X26565D01*
X26525Y12560D01*
X26565Y12600D01*
X26525D01*
X26485Y12640D01*
X26445Y12600D01*
X26405D01*
X26445Y12560D01*
X26405Y12520D01*
X26445D01*
X26485Y12480D01*
X26491Y11482D02*
X26531Y11522D01*
X26571D01*
X26531Y11562D01*
X26571Y11602D01*
X26531D01*
X26491Y11642D01*
X26451Y11602D01*
X26411D01*
X26451Y11562D01*
X26411Y11522D01*
X26451D01*
X26491Y11482D01*
X23567Y9975D02*
X23607Y10015D01*
X23647D01*
X23607Y10055D01*
X23647Y10095D01*
X23607D01*
X23567Y10135D01*
X23527Y10095D01*
X23487D01*
X23527Y10055D01*
X23487Y10015D01*
X23527D01*
X23567Y9975D01*
Y10975D02*
X23607Y11015D01*
X23647D01*
X23607Y11055D01*
X23647Y11095D01*
X23607D01*
X23567Y11135D01*
X23527Y11095D01*
X23487D01*
X23527Y11055D01*
X23487Y11015D01*
X23527D01*
X23567Y10975D01*
X23572Y11975D02*
X23612Y12015D01*
X23652D01*
X23612Y12055D01*
X23652Y12095D01*
X23612D01*
X23572Y12135D01*
X23532Y12095D01*
X23492D01*
X23532Y12055D01*
X23492Y12015D01*
X23532D01*
X23572Y11975D01*
X7056Y8314D02*
X7096Y8354D01*
X7136D01*
X7096Y8394D01*
X7136Y8434D01*
X7096D01*
X7056Y8474D01*
X7016Y8434D01*
X6976D01*
X7016Y8394D01*
X6976Y8354D01*
X7016D01*
X7056Y8314D01*
X10138Y7787D02*
X10178Y7827D01*
X10218D01*
X10178Y7867D01*
X10218Y7907D01*
X10178D01*
X10138Y7947D01*
X10098Y7907D01*
X10058D01*
X10098Y7867D01*
X10058Y7827D01*
X10098D01*
X10138Y7787D01*
X13065Y15248D02*
X13105Y15288D01*
X13145D01*
X13105Y15328D01*
X13145Y15368D01*
X13105D01*
X13065Y15408D01*
X13025Y15368D01*
X12985D01*
X13025Y15328D01*
X12985Y15288D01*
X13025D01*
X13065Y15248D01*
X10422Y15370D02*
X10462Y15410D01*
X10502D01*
X10462Y15450D01*
X10502Y15490D01*
X10462D01*
X10422Y15530D01*
X10382Y15490D01*
X10342D01*
X10382Y15450D01*
X10342Y15410D01*
X10382D01*
X10422Y15370D01*
X11435Y15208D02*
X11475Y15248D01*
X11515D01*
X11475Y15288D01*
X11515Y15328D01*
X11475D01*
X11435Y15368D01*
X11395Y15328D01*
X11355D01*
X11395Y15288D01*
X11355Y15248D01*
X11395D01*
X11435Y15208D01*
X10728Y18617D02*
X10768Y18657D01*
X10808D01*
X10768Y18697D01*
X10808Y18737D01*
X10768D01*
X10728Y18777D01*
X10688Y18737D01*
X10648D01*
X10688Y18697D01*
X10648Y18657D01*
X10688D01*
X10728Y18617D01*
X9246Y18979D02*
X9286Y19019D01*
X9326D01*
X9286Y19059D01*
X9326Y19099D01*
X9286D01*
X9246Y19139D01*
X9206Y19099D01*
X9166D01*
X9206Y19059D01*
X9166Y19019D01*
X9206D01*
X9246Y18979D01*
X16626Y6814D02*
X16666Y6854D01*
X16706D01*
X16666Y6894D01*
X16706Y6934D01*
X16666D01*
X16626Y6974D01*
X16586Y6934D01*
X16546D01*
X16586Y6894D01*
X16546Y6854D01*
X16586D01*
X16626Y6814D01*
X23317Y5394D02*
X23357Y5434D01*
X23397D01*
X23357Y5474D01*
X23397Y5514D01*
X23357D01*
X23317Y5554D01*
X23277Y5514D01*
X23237D01*
X23277Y5474D01*
X23237Y5434D01*
X23277D01*
X23317Y5394D01*
X22385Y8436D02*
X22425Y8516D01*
X22385Y8596D01*
X22465Y8556D01*
X22545Y8596D01*
X22505Y8516D01*
X22545Y8436D01*
X22465Y8476D01*
X22385Y8436D01*
X21452Y9977D02*
X21492Y10017D01*
X21532D01*
X21492Y10057D01*
X21532Y10097D01*
X21492D01*
X21452Y10137D01*
X21412Y10097D01*
X21372D01*
X21412Y10057D01*
X21372Y10017D01*
X21412D01*
X21452Y9977D01*
X14031Y17641D02*
X14071Y17681D01*
X14111D01*
X14071Y17721D01*
X14111Y17761D01*
X14071D01*
X14031Y17801D01*
X13991Y17761D01*
X13951D01*
X13991Y17721D01*
X13951Y17681D01*
X13991D01*
X14031Y17641D01*
X12571Y15248D02*
X12611Y15288D01*
X12651D01*
X12611Y15328D01*
X12651Y15368D01*
X12611D01*
X12571Y15408D01*
X12531Y15368D01*
X12491D01*
X12531Y15328D01*
X12491Y15288D01*
X12531D01*
X12571Y15248D01*
X13194Y10755D02*
X13234Y10795D01*
X13274D01*
X13234Y10835D01*
X13274Y10875D01*
X13234D01*
X13194Y10915D01*
X13154Y10875D01*
X13114D01*
X13154Y10835D01*
X13114Y10795D01*
X13154D01*
X13194Y10755D01*
X13194Y11656D02*
X13234Y11696D01*
X13274D01*
X13234Y11736D01*
X13274Y11776D01*
X13234D01*
X13194Y11816D01*
X13154Y11776D01*
X13114D01*
X13154Y11736D01*
X13114Y11696D01*
X13154D01*
X13194Y11656D01*
X10746Y2536D02*
X10786Y2576D01*
X10826D01*
X10786Y2616D01*
X10826Y2656D01*
X10786D01*
X10746Y2696D01*
X10706Y2656D01*
X10666D01*
X10706Y2616D01*
X10666Y2576D01*
X10706D01*
X10746Y2536D01*
X17194Y11964D02*
X17234Y12004D01*
X17274D01*
X17234Y12044D01*
X17274Y12084D01*
X17234D01*
X17194Y12124D01*
X17154Y12084D01*
X17114D01*
X17154Y12044D01*
X17114Y12004D01*
X17154D01*
X17194Y11964D01*
X20124Y13921D02*
X20164Y13961D01*
X20204D01*
X20164Y14001D01*
X20204Y14041D01*
X20164D01*
X20124Y14081D01*
X20084Y14041D01*
X20044D01*
X20084Y14001D01*
X20044Y13961D01*
X20084D01*
X20124Y13921D01*
X8354Y15857D02*
X8394Y15897D01*
X8434D01*
X8394Y15937D01*
X8434Y15977D01*
X8394D01*
X8354Y16017D01*
X8314Y15977D01*
X8274D01*
X8314Y15937D01*
X8274Y15897D01*
X8314D01*
X8354Y15857D01*
X13666Y14032D02*
X13706Y14072D01*
X13746D01*
X13706Y14112D01*
X13746Y14152D01*
X13706D01*
X13666Y14192D01*
X13626Y14152D01*
X13586D01*
X13626Y14112D01*
X13586Y14072D01*
X13626D01*
X13666Y14032D01*
X8435Y18411D02*
X8475Y18451D01*
X8515D01*
X8475Y18491D01*
X8515Y18531D01*
X8475D01*
X8435Y18571D01*
X8395Y18531D01*
X8355D01*
X8395Y18491D01*
X8355Y18451D01*
X8395D01*
X8435Y18411D01*
X11111Y15816D02*
X11151Y15856D01*
X11191D01*
X11151Y15896D01*
X11191Y15936D01*
X11151D01*
X11111Y15976D01*
X11071Y15936D01*
X11031D01*
X11071Y15896D01*
X11031Y15856D01*
X11071D01*
X11111Y15816D01*
X11585Y3478D02*
X11625Y3518D01*
X11665D01*
X11625Y3558D01*
X11665Y3598D01*
X11625D01*
X11585Y3638D01*
X11545Y3598D01*
X11505D01*
X11545Y3558D01*
X11505Y3518D01*
X11545D01*
X11585Y3478D01*
X10665Y7584D02*
X10705Y7624D01*
X10745D01*
X10705Y7664D01*
X10745Y7704D01*
X10705D01*
X10665Y7744D01*
X10625Y7704D01*
X10585D01*
X10625Y7664D01*
X10585Y7624D01*
X10625D01*
X10665Y7584D01*
X11192Y6449D02*
X11232Y6489D01*
X11272D01*
X11232Y6529D01*
X11272Y6569D01*
X11232D01*
X11192Y6609D01*
X11152Y6569D01*
X11112D01*
X11152Y6529D01*
X11112Y6489D01*
X11152D01*
X11192Y6449D01*
X8678Y2353D02*
X8718Y2393D01*
X8758D01*
X8718Y2433D01*
X8758Y2473D01*
X8718D01*
X8678Y2513D01*
X8638Y2473D01*
X8598D01*
X8638Y2433D01*
X8598Y2393D01*
X8638D01*
X8678Y2353D01*
X5313Y6246D02*
X5353Y6326D01*
X5313Y6406D01*
X5393Y6366D01*
X5473Y6406D01*
X5433Y6326D01*
X5473Y6246D01*
X5393Y6286D01*
X5313Y6246D01*
X21817Y3813D02*
X21857Y3853D01*
X21897D01*
X21857Y3893D01*
X21897Y3933D01*
X21857D01*
X21817Y3973D01*
X21777Y3933D01*
X21737D01*
X21777Y3893D01*
X21737Y3853D01*
X21777D01*
X21817Y3813D01*
X19667Y14421D02*
X19707Y14461D01*
X19747D01*
X19707Y14501D01*
X19747Y14541D01*
X19707D01*
X19667Y14581D01*
X19627Y14541D01*
X19587D01*
X19627Y14501D01*
X19587Y14461D01*
X19627D01*
X19667Y14421D01*
X17275Y6854D02*
X17315Y6894D01*
X17355D01*
X17315Y6934D01*
X17355Y6974D01*
X17315D01*
X17275Y7014D01*
X17235Y6974D01*
X17195D01*
X17235Y6934D01*
X17195Y6894D01*
X17235D01*
X17275Y6854D01*
X15115Y6966D02*
X15155Y7006D01*
X15195D01*
X15155Y7046D01*
X15195Y7086D01*
X15155D01*
X15115Y7126D01*
X15075Y7086D01*
X15035D01*
X15075Y7046D01*
X15035Y7006D01*
X15075D01*
X15115Y6966D01*
X11864Y9653D02*
X11904Y9693D01*
X11944D01*
X11904Y9733D01*
X11944Y9773D01*
X11904D01*
X11864Y9813D01*
X11824Y9773D01*
X11784D01*
X11824Y9733D01*
X11784Y9693D01*
X11824D01*
X11864Y9653D01*
X15190Y8756D02*
X15230Y8796D01*
X15270D01*
X15230Y8836D01*
X15270Y8876D01*
X15230D01*
X15190Y8916D01*
X15150Y8876D01*
X15110D01*
X15150Y8836D01*
X15110Y8796D01*
X15150D01*
X15190Y8756D01*
Y10967D02*
X15230Y11007D01*
X15270D01*
X15230Y11047D01*
X15270Y11087D01*
X15230D01*
X15190Y11127D01*
X15150Y11087D01*
X15110D01*
X15150Y11047D01*
X15110Y11007D01*
X15150D01*
X15190Y10967D01*
X26491Y10412D02*
X26531Y10452D01*
X26571D01*
X26531Y10492D01*
X26571Y10532D01*
X26531D01*
X26491Y10572D01*
X26451Y10532D01*
X26411D01*
X26451Y10492D01*
X26411Y10452D01*
X26451D01*
X26491Y10412D01*
X17732Y12421D02*
X17772Y12461D01*
X17812D01*
X17772Y12501D01*
X17812Y12541D01*
X17772D01*
X17732Y12581D01*
X17692Y12541D01*
X17652D01*
X17692Y12501D01*
X17652Y12461D01*
X17692D01*
X17732Y12421D01*
X17228Y14431D02*
X17268Y14471D01*
X17308D01*
X17268Y14511D01*
X17308Y14551D01*
X17268D01*
X17228Y14591D01*
X17188Y14551D01*
X17148D01*
X17188Y14511D01*
X17148Y14471D01*
X17188D01*
X17228Y14431D01*
X22871Y13921D02*
X22911Y13961D01*
X22951D01*
X22911Y14001D01*
X22951Y14041D01*
X22911D01*
X22871Y14081D01*
X22831Y14041D01*
X22791D01*
X22831Y14001D01*
X22791Y13961D01*
X22831D01*
X22871Y13921D01*
Y14421D02*
X22911Y14461D01*
X22951D01*
X22911Y14501D01*
X22951Y14541D01*
X22911D01*
X22871Y14581D01*
X22831Y14541D01*
X22791D01*
X22831Y14501D01*
X22791Y14461D01*
X22831D01*
X22871Y14421D01*
X12431Y6350D02*
X12471Y6390D01*
X12511D01*
X12471Y6430D01*
X12511Y6470D01*
X12471D01*
X12431Y6510D01*
X12391Y6470D01*
X12351D01*
X12391Y6430D01*
X12351Y6390D01*
X12391D01*
X12431Y6350D01*
X10613Y4016D02*
X10653Y4056D01*
X10693D01*
X10653Y4096D01*
X10693Y4136D01*
X10653D01*
X10613Y4176D01*
X10573Y4136D01*
X10533D01*
X10573Y4096D01*
X10533Y4056D01*
X10573D01*
X10613Y4016D01*
X8272Y3529D02*
X8312Y3569D01*
X8352D01*
X8312Y3609D01*
X8352Y3649D01*
X8312D01*
X8272Y3689D01*
X8232Y3649D01*
X8192D01*
X8232Y3609D01*
X8192Y3569D01*
X8232D01*
X8272Y3529D01*
X10665Y9125D02*
X10705Y9165D01*
X10745D01*
X10705Y9205D01*
X10745Y9245D01*
X10705D01*
X10665Y9285D01*
X10625Y9245D01*
X10585D01*
X10625Y9205D01*
X10585Y9165D01*
X10625D01*
X10665Y9125D01*
X9651Y3164D02*
X9691Y3204D01*
X9731D01*
X9691Y3244D01*
X9731Y3284D01*
X9691D01*
X9651Y3324D01*
X9611Y3284D01*
X9571D01*
X9611Y3244D01*
X9571Y3204D01*
X9611D01*
X9651Y3164D01*
X9750Y7524D02*
X9790Y7564D01*
X9830D01*
X9790Y7604D01*
X9830Y7644D01*
X9790D01*
X9750Y7684D01*
X9710Y7644D01*
X9670D01*
X9710Y7604D01*
X9670Y7564D01*
X9710D01*
X9750Y7524D01*
Y8115D02*
X9790Y8155D01*
X9830D01*
X9790Y8195D01*
X9830Y8235D01*
X9790D01*
X9750Y8275D01*
X9710Y8235D01*
X9670D01*
X9710Y8195D01*
X9670Y8155D01*
X9710D01*
X9750Y8115D01*
Y10241D02*
X9790Y10281D01*
X9830D01*
X9790Y10321D01*
X9830Y10361D01*
X9790D01*
X9750Y10401D01*
X9710Y10361D01*
X9670D01*
X9710Y10321D01*
X9670Y10281D01*
X9710D01*
X9750Y10241D01*
Y11107D02*
X9790Y11147D01*
X9830D01*
X9790Y11187D01*
X9830Y11227D01*
X9790D01*
X9750Y11267D01*
X9710Y11227D01*
X9670D01*
X9710Y11187D01*
X9670Y11147D01*
X9710D01*
X9750Y11107D01*
Y12288D02*
X9790Y12328D01*
X9830D01*
X9790Y12368D01*
X9830Y12408D01*
X9790D01*
X9750Y12448D01*
X9710Y12408D01*
X9670D01*
X9710Y12368D01*
X9670Y12328D01*
X9710D01*
X9750Y12288D01*
Y13233D02*
X9790Y13273D01*
X9830D01*
X9790Y13313D01*
X9830Y13353D01*
X9790D01*
X9750Y13393D01*
X9710Y13353D01*
X9670D01*
X9710Y13313D01*
X9670Y13273D01*
X9710D01*
X9750Y13233D01*
X9750Y14414D02*
X9790Y14454D01*
X9830D01*
X9790Y14494D01*
X9830Y14534D01*
X9790D01*
X9750Y14574D01*
X9710Y14534D01*
X9670D01*
X9710Y14494D01*
X9670Y14454D01*
X9710D01*
X9750Y14414D01*
X8101Y7659D02*
X8141Y7699D01*
X8181D01*
X8141Y7739D01*
X8181Y7779D01*
X8141D01*
X8101Y7819D01*
X8061Y7779D01*
X8021D01*
X8061Y7739D01*
X8021Y7699D01*
X8061D01*
X8101Y7659D01*
Y9784D02*
X8141Y9824D01*
X8181D01*
X8141Y9864D01*
X8181Y9904D01*
X8141D01*
X8101Y9944D01*
X8061Y9904D01*
X8021D01*
X8061Y9864D01*
X8021Y9824D01*
X8061D01*
X8101Y9784D01*
Y11915D02*
X8141Y11955D01*
X8181D01*
X8141Y11995D01*
X8181Y12035D01*
X8141D01*
X8101Y12075D01*
X8061Y12035D01*
X8021D01*
X8061Y11995D01*
X8021Y11955D01*
X8061D01*
X8101Y11915D01*
Y14041D02*
X8141Y14081D01*
X8181D01*
X8141Y14121D01*
X8181Y14161D01*
X8141D01*
X8101Y14201D01*
X8061Y14161D01*
X8021D01*
X8061Y14121D01*
X8021Y14081D01*
X8061D01*
X8101Y14041D01*
X6691Y15557D02*
X6731Y15597D01*
X6771D01*
X6731Y15637D01*
X6771Y15677D01*
X6731D01*
X6691Y15717D01*
X6651Y15677D01*
X6611D01*
X6651Y15637D01*
X6611Y15597D01*
X6651D01*
X6691Y15557D01*
D114*
X11548Y20055D02*
G03*
X11548Y20055I-80J0D01*
G01*
X12548D02*
G03*
X12548Y20055I-80J0D01*
G01*
X13563D02*
G03*
X13563Y20055I-80J0D01*
G01*
X14548D02*
G03*
X14548Y20055I-80J0D01*
G01*
X15516D02*
G03*
X15516Y20055I-80J0D01*
G01*
X16516D02*
G03*
X16516Y20055I-80J0D01*
G01*
X10548D02*
G03*
X10548Y20055I-80J0D01*
G01*
X9548D02*
G03*
X9548Y20055I-80J0D01*
G01*
X8548D02*
G03*
X8548Y20055I-80J0D01*
G01*
X7548D02*
G03*
X7548Y20055I-80J0D01*
G01*
X18148Y20055D02*
G03*
X18148Y20055I-80J0D01*
G01*
X19148D02*
G03*
X19148Y20055I-80J0D01*
G01*
X25116D02*
G03*
X25116Y20055I-80J0D01*
G01*
X24116D02*
G03*
X24116Y20055I-80J0D01*
G01*
X23148D02*
G03*
X23148Y20055I-80J0D01*
G01*
X22163D02*
G03*
X22163Y20055I-80J0D01*
G01*
X21148D02*
G03*
X21148Y20055I-80J0D01*
G01*
X20148D02*
G03*
X20148Y20055I-80J0D01*
G01*
X11148Y1055D02*
G03*
X11148Y1055I-80J0D01*
G01*
X12148D02*
G03*
X12148Y1055I-80J0D01*
G01*
X18116D02*
G03*
X18116Y1055I-80J0D01*
G01*
X17116D02*
G03*
X17116Y1055I-80J0D01*
G01*
X16148D02*
G03*
X16148Y1055I-80J0D01*
G01*
X15163D02*
G03*
X15163Y1055I-80J0D01*
G01*
X14148D02*
G03*
X14148Y1055I-80J0D01*
G01*
X13148D02*
G03*
X13148Y1055I-80J0D01*
G01*
X20148D02*
G03*
X20148Y1055I-80J0D01*
G01*
X21148D02*
G03*
X21148Y1055I-80J0D01*
G01*
X22163D02*
G03*
X22163Y1055I-80J0D01*
G01*
X23148D02*
G03*
X23148Y1055I-80J0D01*
G01*
X24116D02*
G03*
X24116Y1055I-80J0D01*
G01*
X25116D02*
G03*
X25116Y1055I-80J0D01*
G01*
M02*
