G04 Layer_Color=15269887*
%FSLAX24Y24*%
%MOIN*%
G70*
G01*
G75*
%ADD36C,0.0100*%
%ADD49C,0.0098*%
%ADD50C,0.0059*%
%ADD52C,0.0079*%
%ADD53C,0.0039*%
%ADD54C,0.0200*%
%ADD55C,0.0010*%
%ADD56C,0.0060*%
%ADD57C,0.0070*%
G36*
X25210Y12702D02*
X25117D01*
Y12914D01*
X25041D01*
X25027Y12915D01*
X25013Y12916D01*
X25002Y12917D01*
X24991Y12918D01*
X24982Y12919D01*
X24973Y12921D01*
X24965Y12923D01*
X24958Y12924D01*
X24953Y12926D01*
X24948Y12927D01*
X24944Y12928D01*
X24941Y12929D01*
X24939Y12930D01*
X24938Y12931D01*
X24925Y12938D01*
X24913Y12947D01*
X24903Y12957D01*
X24895Y12966D01*
X24888Y12974D01*
X24883Y12982D01*
X24880Y12987D01*
X24879Y12988D01*
Y12988D01*
X24872Y13005D01*
X24866Y13022D01*
X24862Y13039D01*
X24858Y13055D01*
X24857Y13069D01*
Y13076D01*
X24856Y13081D01*
Y13085D01*
Y13088D01*
Y13090D01*
Y13091D01*
X24857Y13115D01*
X24860Y13137D01*
X24864Y13155D01*
X24869Y13171D01*
X24873Y13178D01*
X24875Y13184D01*
X24877Y13189D01*
X24879Y13193D01*
X24881Y13197D01*
X24883Y13199D01*
X24883Y13200D01*
Y13201D01*
X24894Y13216D01*
X24905Y13227D01*
X24917Y13237D01*
X24927Y13245D01*
X24937Y13250D01*
X24944Y13254D01*
X24949Y13256D01*
X24950Y13257D01*
X24951D01*
X24957Y13258D01*
X24963Y13259D01*
X24971Y13261D01*
X24979Y13262D01*
X24997Y13263D01*
X25016Y13264D01*
X25033Y13265D01*
X25210D01*
Y12702D01*
D02*
G37*
G36*
X25497Y13273D02*
X25515Y13271D01*
X25530Y13268D01*
X25543Y13265D01*
X25554Y13261D01*
X25562Y13258D01*
X25567Y13256D01*
X25568Y13255D01*
X25569D01*
X25582Y13247D01*
X25593Y13238D01*
X25603Y13229D01*
X25612Y13220D01*
X25618Y13212D01*
X25622Y13205D01*
X25626Y13201D01*
X25626Y13200D01*
Y13199D01*
X25633Y13185D01*
X25638Y13171D01*
X25642Y13157D01*
X25645Y13144D01*
X25646Y13133D01*
X25647Y13124D01*
Y13121D01*
Y13118D01*
Y13118D01*
Y13117D01*
X25646Y13103D01*
X25645Y13088D01*
X25642Y13076D01*
X25639Y13065D01*
X25636Y13056D01*
X25634Y13048D01*
X25632Y13044D01*
X25631Y13043D01*
X25625Y13030D01*
X25617Y13019D01*
X25610Y13010D01*
X25603Y13003D01*
X25597Y12996D01*
X25592Y12992D01*
X25588Y12988D01*
X25587Y12988D01*
X25576Y12980D01*
X25562Y12973D01*
X25547Y12966D01*
X25533Y12960D01*
X25520Y12955D01*
X25515Y12953D01*
X25510Y12952D01*
X25506Y12950D01*
X25502Y12949D01*
X25501Y12948D01*
X25500D01*
X25488Y12945D01*
X25477Y12942D01*
X25467Y12938D01*
X25459Y12935D01*
X25451Y12933D01*
X25444Y12930D01*
X25438Y12928D01*
X25433Y12927D01*
X25426Y12923D01*
X25420Y12921D01*
X25417Y12920D01*
X25417Y12919D01*
X25411Y12916D01*
X25405Y12913D01*
X25401Y12908D01*
X25397Y12905D01*
X25392Y12900D01*
X25391Y12898D01*
Y12898D01*
X25387Y12893D01*
X25386Y12887D01*
X25382Y12877D01*
Y12872D01*
X25382Y12868D01*
Y12866D01*
Y12865D01*
X25382Y12853D01*
X25386Y12843D01*
X25389Y12833D01*
X25394Y12825D01*
X25398Y12819D01*
X25402Y12814D01*
X25406Y12811D01*
X25407Y12810D01*
X25417Y12803D01*
X25427Y12798D01*
X25438Y12794D01*
X25448Y12791D01*
X25458Y12789D01*
X25466Y12788D01*
X25472D01*
X25487Y12789D01*
X25502Y12794D01*
X25513Y12798D01*
X25524Y12805D01*
X25534Y12813D01*
X25542Y12823D01*
X25549Y12833D01*
X25555Y12843D01*
X25560Y12853D01*
X25564Y12863D01*
X25567Y12872D01*
X25570Y12880D01*
X25572Y12887D01*
X25572Y12892D01*
X25573Y12896D01*
Y12897D01*
X25664Y12886D01*
X25661Y12868D01*
X25659Y12852D01*
X25655Y12837D01*
X25651Y12822D01*
X25645Y12808D01*
X25639Y12796D01*
X25633Y12785D01*
X25626Y12774D01*
X25619Y12764D01*
X25612Y12755D01*
X25596Y12740D01*
X25579Y12727D01*
X25562Y12717D01*
X25546Y12709D01*
X25530Y12703D01*
X25515Y12699D01*
X25502Y12696D01*
X25491Y12694D01*
X25482Y12693D01*
X25475D01*
X25457Y12694D01*
X25442Y12695D01*
X25427Y12697D01*
X25412Y12700D01*
X25400Y12704D01*
X25388Y12709D01*
X25377Y12713D01*
X25368Y12718D01*
X25361Y12722D01*
X25353Y12726D01*
X25347Y12730D01*
X25342Y12734D01*
X25339Y12738D01*
X25337Y12739D01*
X25335Y12741D01*
X25334Y12742D01*
X25326Y12752D01*
X25319Y12762D01*
X25312Y12772D01*
X25307Y12782D01*
X25299Y12803D01*
X25294Y12823D01*
X25292Y12831D01*
X25291Y12839D01*
X25290Y12847D01*
X25289Y12853D01*
X25288Y12858D01*
Y12862D01*
Y12864D01*
Y12865D01*
X25289Y12883D01*
X25291Y12900D01*
X25293Y12915D01*
X25297Y12928D01*
X25300Y12938D01*
X25302Y12945D01*
X25304Y12950D01*
X25305Y12952D01*
X25312Y12964D01*
X25319Y12976D01*
X25327Y12986D01*
X25335Y12994D01*
X25342Y13001D01*
X25348Y13005D01*
X25352Y13008D01*
X25353Y13009D01*
X25359Y13013D01*
X25367Y13018D01*
X25382Y13026D01*
X25399Y13033D01*
X25416Y13039D01*
X25431Y13045D01*
X25437Y13047D01*
X25443Y13049D01*
X25448Y13051D01*
X25452Y13052D01*
X25454Y13053D01*
X25455D01*
X25467Y13056D01*
X25477Y13059D01*
X25487Y13063D01*
X25496Y13066D01*
X25504Y13069D01*
X25511Y13072D01*
X25517Y13075D01*
X25522Y13078D01*
X25531Y13082D01*
X25536Y13085D01*
X25539Y13087D01*
X25540Y13088D01*
X25546Y13093D01*
X25551Y13100D01*
X25554Y13106D01*
X25556Y13112D01*
X25557Y13118D01*
X25558Y13122D01*
Y13124D01*
Y13125D01*
X25557Y13133D01*
X25555Y13141D01*
X25552Y13148D01*
X25548Y13153D01*
X25545Y13158D01*
X25542Y13162D01*
X25539Y13163D01*
X25538Y13164D01*
X25530Y13169D01*
X25520Y13173D01*
X25511Y13176D01*
X25502Y13178D01*
X25493Y13179D01*
X25486Y13180D01*
X25480D01*
X25467Y13179D01*
X25455Y13178D01*
X25445Y13174D01*
X25437Y13171D01*
X25430Y13168D01*
X25425Y13164D01*
X25422Y13163D01*
X25422Y13162D01*
X25414Y13153D01*
X25408Y13144D01*
X25404Y13133D01*
X25400Y13123D01*
X25397Y13113D01*
X25396Y13106D01*
X25395Y13103D01*
X25394Y13100D01*
Y13099D01*
Y13098D01*
X25301Y13103D01*
X25302Y13118D01*
X25304Y13133D01*
X25307Y13145D01*
X25310Y13158D01*
X25313Y13168D01*
X25317Y13179D01*
X25322Y13188D01*
X25327Y13197D01*
X25331Y13204D01*
X25335Y13211D01*
X25339Y13217D01*
X25342Y13221D01*
X25346Y13224D01*
X25348Y13227D01*
X25349Y13228D01*
X25350Y13229D01*
X25359Y13237D01*
X25368Y13244D01*
X25379Y13250D01*
X25389Y13255D01*
X25411Y13263D01*
X25431Y13268D01*
X25441Y13271D01*
X25449Y13272D01*
X25457Y13272D01*
X25464Y13273D01*
X25470Y13274D01*
X25477D01*
X25497Y13273D01*
D02*
G37*
G36*
X25923D02*
X25940Y13271D01*
X25955Y13267D01*
X25970Y13263D01*
X25983Y13257D01*
X25996Y13252D01*
X26007Y13245D01*
X26017Y13239D01*
X26026Y13232D01*
X26035Y13226D01*
X26041Y13220D01*
X26047Y13214D01*
X26051Y13210D01*
X26055Y13207D01*
X26056Y13204D01*
X26057Y13203D01*
X26069Y13188D01*
X26079Y13170D01*
X26087Y13153D01*
X26095Y13134D01*
X26101Y13115D01*
X26106Y13097D01*
X26110Y13078D01*
X26114Y13060D01*
X26116Y13043D01*
X26119Y13028D01*
X26120Y13014D01*
X26121Y13002D01*
Y12993D01*
X26122Y12985D01*
Y12980D01*
Y12979D01*
Y12978D01*
X26121Y12953D01*
X26120Y12930D01*
X26116Y12908D01*
X26112Y12887D01*
X26107Y12868D01*
X26102Y12850D01*
X26096Y12833D01*
X26090Y12819D01*
X26084Y12806D01*
X26078Y12794D01*
X26073Y12784D01*
X26068Y12777D01*
X26064Y12770D01*
X26060Y12765D01*
X26059Y12763D01*
X26058Y12762D01*
X26047Y12749D01*
X26035Y12739D01*
X26024Y12730D01*
X26011Y12722D01*
X25999Y12715D01*
X25987Y12709D01*
X25976Y12705D01*
X25964Y12701D01*
X25953Y12699D01*
X25943Y12696D01*
X25934Y12695D01*
X25926Y12694D01*
X25920D01*
X25916Y12693D01*
X25911D01*
X25898Y12694D01*
X25886Y12694D01*
X25862Y12699D01*
X25841Y12706D01*
X25832Y12710D01*
X25824Y12714D01*
X25816Y12719D01*
X25810Y12723D01*
X25804Y12726D01*
X25800Y12729D01*
X25796Y12732D01*
X25793Y12734D01*
X25791Y12735D01*
X25791Y12736D01*
X25781Y12745D01*
X25773Y12754D01*
X25759Y12776D01*
X25746Y12799D01*
X25736Y12822D01*
X25732Y12833D01*
X25729Y12843D01*
X25726Y12852D01*
X25724Y12859D01*
X25722Y12866D01*
X25721Y12871D01*
X25720Y12874D01*
Y12875D01*
X25811Y12910D01*
X25816Y12888D01*
X25822Y12869D01*
X25828Y12853D01*
X25835Y12841D01*
X25841Y12831D01*
X25846Y12824D01*
X25849Y12820D01*
X25850Y12818D01*
X25860Y12809D01*
X25871Y12802D01*
X25881Y12797D01*
X25891Y12794D01*
X25900Y12792D01*
X25907Y12791D01*
X25911Y12790D01*
X25913D01*
X25922Y12791D01*
X25931Y12792D01*
X25947Y12797D01*
X25961Y12804D01*
X25972Y12813D01*
X25982Y12820D01*
X25989Y12828D01*
X25993Y12833D01*
X25995Y12833D01*
Y12834D01*
X26000Y12843D01*
X26005Y12853D01*
X26009Y12865D01*
X26012Y12877D01*
X26018Y12902D01*
X26021Y12927D01*
X26023Y12938D01*
X26024Y12949D01*
X26025Y12959D01*
Y12968D01*
X26026Y12975D01*
Y12980D01*
Y12984D01*
Y12985D01*
Y13003D01*
X26024Y13021D01*
X26022Y13037D01*
X26021Y13051D01*
X26018Y13064D01*
X26016Y13077D01*
X26013Y13088D01*
X26010Y13097D01*
X26006Y13105D01*
X26004Y13113D01*
X26001Y13118D01*
X25999Y13123D01*
X25996Y13127D01*
X25996Y13130D01*
X25994Y13131D01*
Y13132D01*
X25987Y13140D01*
X25981Y13147D01*
X25974Y13153D01*
X25967Y13158D01*
X25953Y13166D01*
X25940Y13171D01*
X25928Y13174D01*
X25919Y13176D01*
X25916Y13177D01*
X25911D01*
X25897Y13176D01*
X25886Y13173D01*
X25876Y13169D01*
X25866Y13164D01*
X25859Y13160D01*
X25853Y13156D01*
X25850Y13153D01*
X25849Y13152D01*
X25840Y13142D01*
X25832Y13131D01*
X25826Y13119D01*
X25821Y13108D01*
X25817Y13098D01*
X25815Y13089D01*
X25814Y13086D01*
Y13083D01*
X25813Y13083D01*
Y13082D01*
X25721Y13108D01*
X25724Y13122D01*
X25728Y13134D01*
X25732Y13146D01*
X25736Y13158D01*
X25741Y13168D01*
X25746Y13177D01*
X25751Y13184D01*
X25755Y13192D01*
X25759Y13198D01*
X25763Y13204D01*
X25766Y13209D01*
X25770Y13213D01*
X25772Y13216D01*
X25774Y13218D01*
X25775Y13220D01*
X25776D01*
X25786Y13229D01*
X25796Y13237D01*
X25807Y13245D01*
X25818Y13252D01*
X25829Y13257D01*
X25840Y13261D01*
X25861Y13267D01*
X25870Y13270D01*
X25878Y13272D01*
X25886Y13272D01*
X25892Y13273D01*
X25898Y13274D01*
X25906D01*
X25923Y13273D01*
D02*
G37*
G36*
X26288Y12702D02*
X26195D01*
Y13265D01*
X26288D01*
Y12702D01*
D02*
G37*
G36*
X18368Y12541D02*
X18376Y12540D01*
X18382Y12538D01*
X18388Y12535D01*
X18392Y12533D01*
X18396Y12531D01*
X18398Y12530D01*
X18399Y12529D01*
X18406Y12523D01*
X18412Y12515D01*
X18418Y12505D01*
X18424Y12497D01*
X18429Y12488D01*
X18433Y12481D01*
X18436Y12476D01*
X18437Y12476D01*
Y12533D01*
X18519D01*
Y12125D01*
X18430D01*
Y12251D01*
Y12268D01*
Y12284D01*
X18429Y12298D01*
Y12311D01*
X18428Y12324D01*
Y12335D01*
X18427Y12344D01*
X18427Y12352D01*
Y12360D01*
X18426Y12366D01*
Y12371D01*
X18425Y12376D01*
Y12378D01*
X18424Y12381D01*
Y12382D01*
X18422Y12395D01*
X18418Y12405D01*
X18415Y12414D01*
X18412Y12421D01*
X18409Y12426D01*
X18407Y12429D01*
X18405Y12431D01*
X18404Y12431D01*
X18398Y12436D01*
X18393Y12440D01*
X18387Y12442D01*
X18382Y12444D01*
X18378Y12445D01*
X18375Y12446D01*
X18372D01*
X18364Y12445D01*
X18357Y12443D01*
X18350Y12440D01*
X18344Y12436D01*
X18338Y12433D01*
X18334Y12430D01*
X18332Y12428D01*
X18331Y12427D01*
X18303Y12519D01*
X18173Y12125D01*
X18093D01*
X17959Y12533D01*
X18050D01*
X18114Y12324D01*
X18133Y12255D01*
X18152Y12324D01*
X18214Y12533D01*
X18307D01*
X18304Y12522D01*
X18313Y12528D01*
X18323Y12533D01*
X18333Y12537D01*
X18342Y12540D01*
X18350Y12541D01*
X18356Y12542D01*
X18361D01*
X18368Y12541D01*
D02*
G37*
G36*
X19625Y12125D02*
X19434D01*
X19419Y12126D01*
X19405D01*
X19393Y12126D01*
X19382Y12127D01*
X19373D01*
X19365Y12128D01*
X19358Y12129D01*
X19352Y12130D01*
X19348D01*
X19344Y12131D01*
X19341D01*
X19340Y12131D01*
X19338D01*
X19324Y12136D01*
X19310Y12144D01*
X19298Y12152D01*
X19288Y12161D01*
X19280Y12170D01*
X19273Y12177D01*
X19270Y12182D01*
X19268Y12183D01*
Y12184D01*
X19258Y12201D01*
X19250Y12218D01*
X19245Y12236D01*
X19241Y12252D01*
X19240Y12266D01*
X19239Y12272D01*
Y12278D01*
X19238Y12282D01*
Y12286D01*
Y12287D01*
Y12288D01*
X19239Y12306D01*
X19241Y12323D01*
X19245Y12337D01*
X19250Y12350D01*
X19254Y12361D01*
X19258Y12368D01*
X19260Y12372D01*
X19261Y12374D01*
X19270Y12386D01*
X19281Y12397D01*
X19292Y12406D01*
X19302Y12412D01*
X19312Y12417D01*
X19320Y12421D01*
X19325Y12423D01*
X19325Y12424D01*
X19326D01*
X19315Y12431D01*
X19306Y12438D01*
X19299Y12446D01*
X19291Y12454D01*
X19286Y12461D01*
X19282Y12467D01*
X19280Y12471D01*
X19279Y12472D01*
X19273Y12485D01*
X19268Y12498D01*
X19265Y12510D01*
X19263Y12522D01*
X19261Y12531D01*
X19260Y12540D01*
Y12545D01*
Y12545D01*
Y12546D01*
X19261Y12562D01*
X19264Y12577D01*
X19267Y12590D01*
X19271Y12602D01*
X19275Y12611D01*
X19279Y12619D01*
X19281Y12623D01*
X19282Y12625D01*
X19290Y12637D01*
X19299Y12647D01*
X19308Y12655D01*
X19315Y12662D01*
X19323Y12667D01*
X19329Y12671D01*
X19332Y12673D01*
X19334Y12674D01*
X19340Y12676D01*
X19347Y12679D01*
X19364Y12682D01*
X19381Y12685D01*
X19399Y12686D01*
X19415Y12687D01*
X19422Y12688D01*
X19625D01*
Y12125D01*
D02*
G37*
G36*
X18981D02*
X18806D01*
X18786Y12126D01*
X18767Y12127D01*
X18751Y12130D01*
X18738Y12133D01*
X18727Y12136D01*
X18720Y12138D01*
X18715Y12140D01*
X18713Y12141D01*
X18700Y12147D01*
X18688Y12155D01*
X18678Y12162D01*
X18669Y12170D01*
X18662Y12176D01*
X18657Y12182D01*
X18653Y12186D01*
X18652Y12187D01*
X18643Y12200D01*
X18635Y12214D01*
X18627Y12228D01*
X18622Y12242D01*
X18617Y12254D01*
X18613Y12264D01*
X18612Y12268D01*
X18611Y12271D01*
X18610Y12272D01*
Y12273D01*
X18604Y12294D01*
X18600Y12316D01*
X18597Y12337D01*
X18595Y12357D01*
Y12366D01*
X18594Y12375D01*
Y12382D01*
X18593Y12388D01*
Y12393D01*
Y12397D01*
Y12400D01*
Y12401D01*
X18594Y12430D01*
X18596Y12456D01*
X18597Y12468D01*
X18598Y12479D01*
X18600Y12489D01*
X18601Y12498D01*
X18602Y12506D01*
X18604Y12514D01*
X18606Y12520D01*
X18607Y12525D01*
X18607Y12530D01*
X18608Y12533D01*
X18609Y12535D01*
Y12535D01*
X18616Y12555D01*
X18622Y12573D01*
X18630Y12588D01*
X18637Y12600D01*
X18643Y12611D01*
X18648Y12619D01*
X18652Y12623D01*
X18653Y12625D01*
X18664Y12636D01*
X18674Y12646D01*
X18685Y12655D01*
X18694Y12661D01*
X18702Y12666D01*
X18708Y12670D01*
X18712Y12672D01*
X18714Y12673D01*
X18727Y12678D01*
X18743Y12681D01*
X18759Y12685D01*
X18775Y12686D01*
X18789Y12687D01*
X18795D01*
X18800Y12688D01*
X18981D01*
Y12125D01*
D02*
G37*
G36*
X20235D02*
X20142D01*
Y12337D01*
X20066D01*
X20052Y12338D01*
X20038Y12339D01*
X20027Y12340D01*
X20016Y12341D01*
X20007Y12342D01*
X19998Y12344D01*
X19990Y12346D01*
X19983Y12347D01*
X19978Y12349D01*
X19973Y12350D01*
X19969Y12351D01*
X19966Y12352D01*
X19964Y12353D01*
X19963Y12354D01*
X19950Y12361D01*
X19938Y12370D01*
X19928Y12380D01*
X19920Y12389D01*
X19914Y12397D01*
X19908Y12405D01*
X19905Y12410D01*
X19904Y12411D01*
Y12411D01*
X19897Y12428D01*
X19891Y12445D01*
X19887Y12462D01*
X19884Y12478D01*
X19882Y12492D01*
Y12499D01*
X19881Y12504D01*
Y12508D01*
Y12511D01*
Y12513D01*
Y12514D01*
X19882Y12538D01*
X19885Y12560D01*
X19889Y12578D01*
X19894Y12594D01*
X19898Y12601D01*
X19900Y12607D01*
X19902Y12612D01*
X19904Y12616D01*
X19906Y12620D01*
X19908Y12622D01*
X19908Y12623D01*
Y12624D01*
X19919Y12639D01*
X19930Y12650D01*
X19942Y12660D01*
X19952Y12668D01*
X19962Y12673D01*
X19969Y12677D01*
X19974Y12679D01*
X19975Y12680D01*
X19976D01*
X19982Y12681D01*
X19988Y12682D01*
X19996Y12684D01*
X20004Y12685D01*
X20022Y12686D01*
X20041Y12687D01*
X20058Y12688D01*
X20235D01*
Y12125D01*
D02*
G37*
G36*
X19805D02*
X19717D01*
Y12233D01*
X19805D01*
Y12125D01*
D02*
G37*
G36*
X19116Y2818D02*
X19133Y2815D01*
X19147Y2812D01*
X19160Y2807D01*
X19170Y2802D01*
X19179Y2798D01*
X19184Y2795D01*
X19184Y2794D01*
X19185D01*
X19199Y2784D01*
X19211Y2772D01*
X19222Y2760D01*
X19231Y2747D01*
X19238Y2737D01*
X19244Y2728D01*
X19245Y2725D01*
X19247Y2722D01*
X19248Y2721D01*
Y2720D01*
X19255Y2701D01*
X19261Y2682D01*
X19265Y2664D01*
X19268Y2647D01*
X19269Y2632D01*
X19270Y2627D01*
X19271Y2621D01*
Y2617D01*
Y2613D01*
Y2612D01*
Y2611D01*
X19270Y2592D01*
X19269Y2574D01*
X19267Y2557D01*
X19264Y2542D01*
X19259Y2527D01*
X19255Y2513D01*
X19251Y2502D01*
X19246Y2491D01*
X19242Y2481D01*
X19238Y2472D01*
X19234Y2466D01*
X19229Y2460D01*
X19226Y2455D01*
X19224Y2452D01*
X19223Y2450D01*
X19222Y2449D01*
X19213Y2439D01*
X19203Y2431D01*
X19192Y2423D01*
X19182Y2417D01*
X19171Y2411D01*
X19161Y2407D01*
X19142Y2400D01*
X19133Y2398D01*
X19124Y2396D01*
X19117Y2394D01*
X19111Y2393D01*
X19106Y2393D01*
X19099D01*
X19081Y2393D01*
X19065Y2397D01*
X19051Y2401D01*
X19038Y2405D01*
X19028Y2410D01*
X19019Y2413D01*
X19014Y2417D01*
X19014Y2418D01*
X19013D01*
X18999Y2428D01*
X18986Y2440D01*
X18975Y2453D01*
X18966Y2466D01*
X18959Y2477D01*
X18954Y2486D01*
X18952Y2489D01*
X18950Y2492D01*
X18949Y2493D01*
Y2494D01*
X18941Y2513D01*
X18935Y2533D01*
X18931Y2552D01*
X18929Y2570D01*
X18926Y2585D01*
Y2592D01*
X18925Y2597D01*
Y2602D01*
Y2605D01*
Y2607D01*
Y2607D01*
X18926Y2623D01*
X18927Y2638D01*
X18933Y2667D01*
X18936Y2680D01*
X18940Y2692D01*
X18944Y2703D01*
X18949Y2713D01*
X18953Y2723D01*
X18957Y2732D01*
X18961Y2738D01*
X18964Y2745D01*
X18968Y2749D01*
X18970Y2753D01*
X18971Y2755D01*
X18972Y2756D01*
X18981Y2767D01*
X18990Y2777D01*
X19000Y2785D01*
X19011Y2792D01*
X19022Y2798D01*
X19032Y2803D01*
X19043Y2808D01*
X19053Y2812D01*
X19062Y2814D01*
X19070Y2816D01*
X19079Y2817D01*
X19085Y2818D01*
X19091Y2819D01*
X19099D01*
X19116Y2818D01*
D02*
G37*
G36*
X18709D02*
X18716Y2817D01*
X18723Y2815D01*
X18729Y2812D01*
X18733Y2810D01*
X18736Y2808D01*
X18739Y2807D01*
X18740Y2806D01*
X18746Y2800D01*
X18752Y2792D01*
X18759Y2782D01*
X18765Y2774D01*
X18770Y2765D01*
X18774Y2758D01*
X18776Y2753D01*
X18777Y2752D01*
Y2810D01*
X18860D01*
Y2402D01*
X18770D01*
Y2527D01*
Y2545D01*
Y2561D01*
X18770Y2575D01*
Y2588D01*
X18769Y2601D01*
Y2612D01*
X18768Y2621D01*
X18767Y2629D01*
Y2637D01*
X18766Y2642D01*
Y2648D01*
X18765Y2652D01*
Y2655D01*
X18765Y2657D01*
Y2659D01*
X18762Y2672D01*
X18759Y2682D01*
X18755Y2691D01*
X18752Y2697D01*
X18750Y2702D01*
X18747Y2706D01*
X18745Y2707D01*
X18745Y2708D01*
X18739Y2713D01*
X18734Y2717D01*
X18728Y2719D01*
X18723Y2721D01*
X18719Y2722D01*
X18715Y2722D01*
X18712D01*
X18705Y2722D01*
X18698Y2720D01*
X18690Y2717D01*
X18685Y2713D01*
X18679Y2710D01*
X18675Y2707D01*
X18672Y2705D01*
X18671Y2704D01*
X18643Y2798D01*
X18654Y2805D01*
X18664Y2810D01*
X18674Y2814D01*
X18683Y2817D01*
X18690Y2818D01*
X18696Y2819D01*
X18701D01*
X18709Y2818D01*
D02*
G37*
G36*
X20397Y2402D02*
X20311D01*
Y2846D01*
X20219Y2402D01*
X20130D01*
X20037Y2846D01*
Y2402D01*
X19950D01*
Y2965D01*
X20091D01*
X20174Y2579D01*
X20258Y2965D01*
X20397D01*
Y2402D01*
D02*
G37*
G36*
X19461Y2891D02*
Y2810D01*
X19502D01*
Y2724D01*
X19461D01*
Y2546D01*
Y2533D01*
Y2522D01*
X19460Y2512D01*
Y2502D01*
Y2494D01*
X19459Y2487D01*
Y2481D01*
X19458Y2475D01*
X19458Y2466D01*
X19457Y2460D01*
X19456Y2456D01*
Y2455D01*
X19453Y2444D01*
X19449Y2435D01*
X19444Y2427D01*
X19440Y2420D01*
X19436Y2415D01*
X19433Y2412D01*
X19430Y2409D01*
X19429Y2408D01*
X19421Y2403D01*
X19412Y2399D01*
X19403Y2397D01*
X19394Y2394D01*
X19386Y2393D01*
X19380Y2393D01*
X19374D01*
X19360Y2393D01*
X19347Y2395D01*
X19335Y2398D01*
X19324Y2401D01*
X19316Y2403D01*
X19309Y2406D01*
X19306Y2408D01*
X19304Y2408D01*
X19313Y2492D01*
X19321Y2489D01*
X19328Y2487D01*
X19333Y2485D01*
X19339Y2484D01*
X19343Y2483D01*
X19345Y2482D01*
X19348D01*
X19353Y2483D01*
X19358Y2485D01*
X19362Y2487D01*
X19364Y2490D01*
X19368Y2495D01*
X19369Y2497D01*
Y2497D01*
Y2500D01*
X19370Y2502D01*
X19371Y2511D01*
Y2521D01*
X19372Y2532D01*
Y2542D01*
Y2551D01*
Y2554D01*
Y2557D01*
Y2558D01*
Y2559D01*
Y2724D01*
X19312D01*
Y2810D01*
X19372D01*
Y2954D01*
X19461Y2891D01*
D02*
G37*
G36*
X17813Y2818D02*
X17821Y2817D01*
X17827Y2815D01*
X17833Y2812D01*
X17837Y2810D01*
X17841Y2808D01*
X17843Y2807D01*
X17844Y2806D01*
X17851Y2800D01*
X17857Y2792D01*
X17863Y2782D01*
X17869Y2774D01*
X17874Y2765D01*
X17878Y2758D01*
X17881Y2753D01*
X17882Y2752D01*
Y2810D01*
X17964D01*
Y2402D01*
X17875D01*
Y2527D01*
Y2545D01*
Y2561D01*
X17874Y2575D01*
Y2588D01*
X17873Y2601D01*
Y2612D01*
X17872Y2621D01*
X17872Y2629D01*
Y2637D01*
X17871Y2642D01*
Y2648D01*
X17870Y2652D01*
Y2655D01*
X17869Y2657D01*
Y2659D01*
X17867Y2672D01*
X17863Y2682D01*
X17860Y2691D01*
X17857Y2697D01*
X17854Y2702D01*
X17852Y2706D01*
X17850Y2707D01*
X17849Y2708D01*
X17843Y2713D01*
X17838Y2717D01*
X17832Y2719D01*
X17827Y2721D01*
X17823Y2722D01*
X17820Y2722D01*
X17817D01*
X17809Y2722D01*
X17802Y2720D01*
X17795Y2717D01*
X17789Y2713D01*
X17783Y2710D01*
X17779Y2707D01*
X17777Y2705D01*
X17776Y2704D01*
X17748Y2796D01*
X17618Y2402D01*
X17538D01*
X17404Y2810D01*
X17495D01*
X17559Y2601D01*
X17578Y2532D01*
X17597Y2601D01*
X17659Y2810D01*
X17752D01*
X17749Y2799D01*
X17758Y2805D01*
X17768Y2810D01*
X17778Y2814D01*
X17787Y2817D01*
X17795Y2818D01*
X17801Y2819D01*
X17806D01*
X17813Y2818D01*
D02*
G37*
G36*
X19725D02*
X19742Y2815D01*
X19756Y2812D01*
X19769Y2807D01*
X19779Y2802D01*
X19787Y2798D01*
X19792Y2795D01*
X19793Y2794D01*
X19794D01*
X19807Y2784D01*
X19820Y2772D01*
X19831Y2760D01*
X19840Y2747D01*
X19847Y2737D01*
X19852Y2728D01*
X19854Y2725D01*
X19856Y2722D01*
X19857Y2721D01*
Y2720D01*
X19864Y2701D01*
X19870Y2682D01*
X19874Y2664D01*
X19877Y2647D01*
X19878Y2632D01*
X19879Y2627D01*
X19880Y2621D01*
Y2617D01*
Y2613D01*
Y2612D01*
Y2611D01*
X19879Y2592D01*
X19877Y2574D01*
X19876Y2557D01*
X19872Y2542D01*
X19868Y2527D01*
X19864Y2513D01*
X19860Y2502D01*
X19855Y2491D01*
X19851Y2481D01*
X19847Y2472D01*
X19842Y2466D01*
X19838Y2460D01*
X19835Y2455D01*
X19833Y2452D01*
X19832Y2450D01*
X19831Y2449D01*
X19822Y2439D01*
X19812Y2431D01*
X19801Y2423D01*
X19791Y2417D01*
X19780Y2411D01*
X19770Y2407D01*
X19751Y2400D01*
X19742Y2398D01*
X19733Y2396D01*
X19726Y2394D01*
X19720Y2393D01*
X19715Y2393D01*
X19708D01*
X19690Y2393D01*
X19674Y2397D01*
X19660Y2401D01*
X19647Y2405D01*
X19637Y2410D01*
X19628Y2413D01*
X19623Y2417D01*
X19623Y2418D01*
X19622D01*
X19608Y2428D01*
X19595Y2440D01*
X19584Y2453D01*
X19575Y2466D01*
X19568Y2477D01*
X19563Y2486D01*
X19561Y2489D01*
X19559Y2492D01*
X19558Y2493D01*
Y2494D01*
X19550Y2513D01*
X19544Y2533D01*
X19540Y2552D01*
X19538Y2570D01*
X19535Y2585D01*
Y2592D01*
X19534Y2597D01*
Y2602D01*
Y2605D01*
Y2607D01*
Y2607D01*
X19535Y2623D01*
X19536Y2638D01*
X19542Y2667D01*
X19545Y2680D01*
X19549Y2692D01*
X19553Y2703D01*
X19558Y2713D01*
X19562Y2723D01*
X19566Y2732D01*
X19570Y2738D01*
X19573Y2745D01*
X19577Y2749D01*
X19579Y2753D01*
X19580Y2755D01*
X19581Y2756D01*
X19590Y2767D01*
X19599Y2777D01*
X19609Y2785D01*
X19620Y2792D01*
X19631Y2798D01*
X19641Y2803D01*
X19652Y2808D01*
X19662Y2812D01*
X19671Y2814D01*
X19679Y2816D01*
X19688Y2817D01*
X19694Y2818D01*
X19700Y2819D01*
X19708D01*
X19725Y2818D01*
D02*
G37*
G36*
X18426Y2402D02*
X18251D01*
X18231Y2403D01*
X18212Y2404D01*
X18196Y2407D01*
X18183Y2410D01*
X18172Y2413D01*
X18165Y2415D01*
X18160Y2417D01*
X18158Y2418D01*
X18145Y2424D01*
X18133Y2432D01*
X18123Y2439D01*
X18114Y2447D01*
X18107Y2453D01*
X18102Y2459D01*
X18098Y2462D01*
X18097Y2464D01*
X18088Y2477D01*
X18080Y2491D01*
X18072Y2505D01*
X18067Y2519D01*
X18062Y2531D01*
X18058Y2541D01*
X18057Y2545D01*
X18056Y2547D01*
X18055Y2549D01*
Y2550D01*
X18049Y2571D01*
X18045Y2592D01*
X18042Y2614D01*
X18040Y2634D01*
Y2643D01*
X18039Y2652D01*
Y2659D01*
X18038Y2665D01*
Y2670D01*
Y2674D01*
Y2677D01*
Y2677D01*
X18039Y2707D01*
X18041Y2732D01*
X18042Y2745D01*
X18043Y2756D01*
X18045Y2766D01*
X18046Y2775D01*
X18047Y2783D01*
X18049Y2791D01*
X18051Y2797D01*
X18052Y2802D01*
X18052Y2807D01*
X18053Y2810D01*
X18054Y2812D01*
Y2812D01*
X18061Y2832D01*
X18067Y2850D01*
X18075Y2865D01*
X18082Y2877D01*
X18088Y2888D01*
X18093Y2896D01*
X18096Y2900D01*
X18098Y2901D01*
X18109Y2913D01*
X18119Y2923D01*
X18130Y2931D01*
X18139Y2938D01*
X18147Y2943D01*
X18153Y2947D01*
X18157Y2949D01*
X18159Y2950D01*
X18172Y2955D01*
X18188Y2958D01*
X18204Y2961D01*
X18220Y2963D01*
X18234Y2964D01*
X18240D01*
X18245Y2965D01*
X18426D01*
Y2402D01*
D02*
G37*
%LPC*%
G36*
X25117Y13170D02*
X25052D01*
X25043Y13169D01*
X25035D01*
X25022Y13168D01*
X25012Y13167D01*
X25004Y13166D01*
X24999Y13164D01*
X24997Y13163D01*
X24996D01*
X24989Y13160D01*
X24983Y13157D01*
X24978Y13152D01*
X24973Y13148D01*
X24970Y13143D01*
X24968Y13140D01*
X24966Y13138D01*
X24965Y13137D01*
X24961Y13129D01*
X24958Y13121D01*
X24956Y13113D01*
X24954Y13106D01*
X24953Y13099D01*
X24953Y13094D01*
Y13091D01*
Y13089D01*
X24953Y13079D01*
X24954Y13070D01*
X24957Y13063D01*
X24958Y13056D01*
X24961Y13050D01*
X24963Y13046D01*
X24964Y13043D01*
X24965Y13043D01*
X24970Y13036D01*
X24975Y13030D01*
X24980Y13026D01*
X24985Y13022D01*
X24989Y13019D01*
X24993Y13018D01*
X24995Y13016D01*
X24996D01*
X25004Y13013D01*
X25014Y13012D01*
X25026Y13011D01*
X25038Y13010D01*
X25048Y13009D01*
X25117D01*
Y13170D01*
D02*
G37*
G36*
X19532Y12371D02*
X19436D01*
X19427Y12370D01*
X19420D01*
X19405Y12368D01*
X19395Y12367D01*
X19387Y12366D01*
X19382Y12364D01*
X19379Y12363D01*
X19378D01*
X19371Y12360D01*
X19365Y12356D01*
X19360Y12352D01*
X19355Y12348D01*
X19352Y12344D01*
X19350Y12341D01*
X19348Y12339D01*
X19347Y12338D01*
X19343Y12331D01*
X19340Y12324D01*
X19338Y12316D01*
X19336Y12309D01*
X19335Y12303D01*
X19335Y12298D01*
Y12294D01*
Y12293D01*
X19335Y12284D01*
X19336Y12275D01*
X19338Y12267D01*
X19340Y12261D01*
X19343Y12256D01*
X19345Y12252D01*
X19345Y12250D01*
X19346Y12249D01*
X19350Y12243D01*
X19355Y12238D01*
X19360Y12234D01*
X19364Y12231D01*
X19368Y12228D01*
X19371Y12226D01*
X19373Y12226D01*
X19374D01*
X19377Y12225D01*
X19381Y12224D01*
X19392Y12222D01*
X19404Y12221D01*
X19416Y12221D01*
X19427Y12220D01*
X19532D01*
Y12371D01*
D02*
G37*
G36*
Y12594D02*
X19443D01*
X19434Y12593D01*
X19425D01*
X19418Y12592D01*
X19406D01*
X19402Y12591D01*
X19398D01*
X19393Y12590D01*
X19390Y12590D01*
X19390D01*
X19384Y12588D01*
X19379Y12585D01*
X19370Y12578D01*
X19367Y12575D01*
X19365Y12572D01*
X19364Y12570D01*
X19363Y12570D01*
X19359Y12564D01*
X19356Y12557D01*
X19353Y12545D01*
X19352Y12539D01*
X19351Y12535D01*
Y12531D01*
Y12530D01*
X19352Y12520D01*
X19354Y12511D01*
X19355Y12504D01*
X19358Y12497D01*
X19361Y12492D01*
X19363Y12489D01*
X19365Y12486D01*
X19365Y12485D01*
X19370Y12480D01*
X19377Y12476D01*
X19383Y12472D01*
X19389Y12470D01*
X19394Y12468D01*
X19398Y12467D01*
X19401Y12466D01*
X19405D01*
X19409Y12465D01*
X19430D01*
X19441Y12465D01*
X19532D01*
Y12594D01*
D02*
G37*
G36*
X18887Y12593D02*
X18826D01*
X18810Y12592D01*
X18797Y12591D01*
X18786Y12590D01*
X18779Y12590D01*
X18774Y12589D01*
X18771Y12588D01*
X18770D01*
X18761Y12585D01*
X18752Y12581D01*
X18745Y12576D01*
X18738Y12572D01*
X18733Y12567D01*
X18729Y12564D01*
X18726Y12561D01*
X18726Y12560D01*
X18719Y12552D01*
X18714Y12543D01*
X18709Y12533D01*
X18706Y12524D01*
X18702Y12515D01*
X18701Y12509D01*
X18699Y12505D01*
Y12504D01*
Y12503D01*
X18696Y12489D01*
X18694Y12472D01*
X18692Y12456D01*
X18691Y12441D01*
Y12426D01*
X18690Y12421D01*
Y12415D01*
Y12411D01*
Y12407D01*
Y12406D01*
Y12405D01*
Y12383D01*
X18691Y12364D01*
X18692Y12347D01*
X18694Y12333D01*
X18696Y12322D01*
X18697Y12314D01*
X18698Y12309D01*
X18699Y12308D01*
Y12307D01*
X18702Y12295D01*
X18706Y12283D01*
X18710Y12274D01*
X18713Y12266D01*
X18716Y12261D01*
X18718Y12256D01*
X18720Y12254D01*
X18721Y12253D01*
X18731Y12242D01*
X18741Y12235D01*
X18746Y12231D01*
X18750Y12230D01*
X18752Y12229D01*
X18753Y12228D01*
X18761Y12226D01*
X18771Y12223D01*
X18782Y12221D01*
X18793Y12221D01*
X18803D01*
X18811Y12220D01*
X18887D01*
Y12593D01*
D02*
G37*
G36*
X20142D02*
X20077D01*
X20068Y12592D01*
X20060D01*
X20047Y12591D01*
X20037Y12590D01*
X20029Y12589D01*
X20024Y12587D01*
X20022Y12586D01*
X20021D01*
X20014Y12583D01*
X20008Y12580D01*
X20003Y12575D01*
X19998Y12570D01*
X19995Y12566D01*
X19993Y12563D01*
X19991Y12560D01*
X19990Y12560D01*
X19986Y12552D01*
X19983Y12544D01*
X19981Y12536D01*
X19979Y12529D01*
X19978Y12522D01*
X19978Y12517D01*
Y12514D01*
Y12512D01*
X19978Y12502D01*
X19979Y12493D01*
X19982Y12485D01*
X19983Y12479D01*
X19986Y12473D01*
X19988Y12469D01*
X19989Y12466D01*
X19990Y12465D01*
X19995Y12459D01*
X20000Y12453D01*
X20005Y12449D01*
X20010Y12445D01*
X20014Y12442D01*
X20018Y12441D01*
X20020Y12439D01*
X20021D01*
X20029Y12436D01*
X20039Y12435D01*
X20051Y12434D01*
X20063Y12433D01*
X20073Y12432D01*
X20142D01*
Y12593D01*
D02*
G37*
G36*
X19100Y2731D02*
X19099D01*
X19087Y2729D01*
X19075Y2726D01*
X19066Y2721D01*
X19057Y2715D01*
X19050Y2708D01*
X19045Y2703D01*
X19042Y2700D01*
X19041Y2698D01*
X19033Y2685D01*
X19027Y2671D01*
X19022Y2655D01*
X19019Y2640D01*
X19018Y2627D01*
X19017Y2621D01*
X19016Y2616D01*
Y2612D01*
Y2608D01*
Y2607D01*
Y2606D01*
X19017Y2584D01*
X19019Y2565D01*
X19024Y2549D01*
X19028Y2536D01*
X19033Y2526D01*
X19036Y2518D01*
X19039Y2514D01*
X19040Y2512D01*
X19049Y2502D01*
X19059Y2494D01*
X19069Y2488D01*
X19078Y2485D01*
X19086Y2482D01*
X19092Y2482D01*
X19096Y2481D01*
X19098D01*
X19110Y2482D01*
X19121Y2486D01*
X19131Y2491D01*
X19139Y2497D01*
X19147Y2502D01*
X19152Y2507D01*
X19155Y2510D01*
X19156Y2512D01*
X19164Y2525D01*
X19170Y2540D01*
X19174Y2555D01*
X19177Y2571D01*
X19179Y2584D01*
X19179Y2590D01*
X19180Y2596D01*
Y2600D01*
Y2603D01*
Y2605D01*
Y2606D01*
X19179Y2627D01*
X19177Y2646D01*
X19173Y2662D01*
X19169Y2675D01*
X19164Y2685D01*
X19160Y2692D01*
X19158Y2697D01*
X19157Y2698D01*
X19148Y2709D01*
X19138Y2717D01*
X19128Y2723D01*
X19119Y2727D01*
X19110Y2729D01*
X19104Y2730D01*
X19100Y2731D01*
D02*
G37*
G36*
X19709D02*
X19708D01*
X19696Y2729D01*
X19684Y2726D01*
X19675Y2721D01*
X19666Y2715D01*
X19659Y2708D01*
X19654Y2703D01*
X19651Y2700D01*
X19650Y2698D01*
X19642Y2685D01*
X19636Y2671D01*
X19631Y2655D01*
X19628Y2640D01*
X19627Y2627D01*
X19626Y2621D01*
X19625Y2616D01*
Y2612D01*
Y2608D01*
Y2607D01*
Y2606D01*
X19626Y2584D01*
X19628Y2565D01*
X19633Y2549D01*
X19637Y2536D01*
X19642Y2526D01*
X19645Y2518D01*
X19648Y2514D01*
X19649Y2512D01*
X19658Y2502D01*
X19668Y2494D01*
X19678Y2488D01*
X19687Y2485D01*
X19695Y2482D01*
X19701Y2482D01*
X19705Y2481D01*
X19707D01*
X19719Y2482D01*
X19730Y2486D01*
X19740Y2491D01*
X19748Y2497D01*
X19756Y2502D01*
X19761Y2507D01*
X19764Y2510D01*
X19765Y2512D01*
X19773Y2525D01*
X19779Y2540D01*
X19783Y2555D01*
X19786Y2571D01*
X19787Y2584D01*
X19788Y2590D01*
X19789Y2596D01*
Y2600D01*
Y2603D01*
Y2605D01*
Y2606D01*
X19788Y2627D01*
X19786Y2646D01*
X19782Y2662D01*
X19777Y2675D01*
X19773Y2685D01*
X19769Y2692D01*
X19767Y2697D01*
X19766Y2698D01*
X19757Y2709D01*
X19747Y2717D01*
X19737Y2723D01*
X19728Y2727D01*
X19719Y2729D01*
X19713Y2730D01*
X19709Y2731D01*
D02*
G37*
G36*
X18332Y2870D02*
X18271D01*
X18255Y2869D01*
X18242Y2868D01*
X18231Y2867D01*
X18224Y2867D01*
X18219Y2866D01*
X18216Y2865D01*
X18215D01*
X18206Y2862D01*
X18197Y2858D01*
X18190Y2853D01*
X18183Y2849D01*
X18178Y2844D01*
X18174Y2841D01*
X18171Y2838D01*
X18171Y2837D01*
X18164Y2829D01*
X18159Y2820D01*
X18154Y2810D01*
X18151Y2801D01*
X18147Y2792D01*
X18146Y2786D01*
X18144Y2782D01*
Y2781D01*
Y2780D01*
X18141Y2766D01*
X18139Y2749D01*
X18137Y2733D01*
X18136Y2717D01*
Y2703D01*
X18135Y2697D01*
Y2692D01*
Y2687D01*
Y2684D01*
Y2682D01*
Y2682D01*
Y2660D01*
X18136Y2641D01*
X18137Y2624D01*
X18139Y2610D01*
X18141Y2599D01*
X18142Y2591D01*
X18143Y2586D01*
X18144Y2585D01*
Y2584D01*
X18147Y2572D01*
X18151Y2560D01*
X18155Y2551D01*
X18158Y2543D01*
X18161Y2537D01*
X18163Y2533D01*
X18165Y2531D01*
X18166Y2530D01*
X18176Y2519D01*
X18186Y2512D01*
X18191Y2508D01*
X18195Y2507D01*
X18197Y2506D01*
X18198Y2505D01*
X18206Y2502D01*
X18216Y2500D01*
X18227Y2498D01*
X18238Y2497D01*
X18248D01*
X18256Y2497D01*
X18332D01*
Y2870D01*
D02*
G37*
%LPD*%
D36*
X24611Y9555D02*
X26611D01*
Y12555D01*
X24611D02*
X26611D01*
X24611Y9555D02*
Y12555D01*
X25733Y21067D02*
X25734Y21066D01*
X14916Y2896D02*
X15351D01*
X19594Y6673D02*
Y7108D01*
X17640Y3285D02*
Y7867D01*
X20316Y3285D02*
Y7867D01*
X17640D02*
X20316D01*
X17640Y3285D02*
X20316D01*
X17640Y8313D02*
X20316D01*
X17640Y11841D02*
X20316D01*
Y8313D02*
Y11841D01*
X17640Y8313D02*
Y11841D01*
X21573Y2352D02*
X23925D01*
Y3650D01*
X21573Y2352D02*
Y3650D01*
X23925D01*
X14882Y4947D02*
X16748D01*
X14558Y4623D02*
X14882Y4947D01*
X14558Y2595D02*
Y4623D01*
X16748Y2595D02*
Y4947D01*
X14558Y2595D02*
X16748D01*
D49*
X19079Y9321D02*
G03*
X19079Y9321I-39J0D01*
G01*
X19635Y5132D02*
G03*
X19635Y5132I-39J0D01*
G01*
D50*
X19197Y9911D02*
Y10187D01*
X19316Y10620D02*
X19827D01*
X19316Y9478D02*
X19827D01*
Y10265D02*
Y10620D01*
Y9478D02*
Y9832D01*
X18730Y5290D02*
X19005D01*
X18297Y5408D02*
Y5920D01*
X19438Y5408D02*
Y5920D01*
X18297D02*
X18651D01*
X19084D02*
X19438D01*
X15297Y4782D02*
Y4546D01*
X15179D01*
X15140Y4585D01*
Y4743D01*
X15179Y4782D01*
X15297D01*
X15061Y4743D02*
X15022Y4782D01*
X14943D01*
X14904Y4743D01*
Y4703D01*
X14943Y4664D01*
X14982D01*
X14943D01*
X14904Y4625D01*
Y4585D01*
X14943Y4546D01*
X15022D01*
X15061Y4585D01*
X16144Y4739D02*
X16184Y4778D01*
X16262D01*
X16302Y4739D01*
Y4581D01*
X16262Y4542D01*
X16184D01*
X16144Y4581D01*
X15908Y4778D02*
X15987Y4739D01*
X16065Y4660D01*
Y4581D01*
X16026Y4542D01*
X15947D01*
X15908Y4581D01*
Y4620D01*
X15947Y4660D01*
X16065D01*
X23105Y3232D02*
Y3468D01*
X22987D01*
X22947Y3429D01*
Y3350D01*
X22987Y3311D01*
X23105D01*
X23026D02*
X22947Y3232D01*
X22869Y3429D02*
X22829Y3468D01*
X22751D01*
X22711Y3429D01*
Y3390D01*
X22751Y3350D01*
X22790D01*
X22751D01*
X22711Y3311D01*
Y3272D01*
X22751Y3232D01*
X22829D01*
X22869Y3272D01*
X22632Y3232D02*
X22554D01*
X22593D01*
Y3468D01*
X22632Y3429D01*
X27042Y9103D02*
Y9339D01*
X26924D01*
X26885Y9300D01*
Y9221D01*
X26924Y9182D01*
X27042D01*
X26649Y9339D02*
X26727Y9300D01*
X26806Y9221D01*
Y9143D01*
X26767Y9103D01*
X26688D01*
X26649Y9143D01*
Y9182D01*
X26688Y9221D01*
X26806D01*
X19589Y7706D02*
Y7470D01*
X19471D01*
X19431Y7509D01*
Y7666D01*
X19471Y7706D01*
X19589D01*
X19235Y7470D02*
Y7706D01*
X19353Y7588D01*
X19195D01*
X19622Y10864D02*
Y11021D01*
X19662Y11060D01*
X19740D01*
X19780Y11021D01*
Y10864D01*
X19740Y10824D01*
X19662D01*
X19701Y10903D02*
X19622Y10824D01*
X19662D02*
X19622Y10864D01*
X19543Y11060D02*
X19386D01*
Y11021D01*
X19543Y10864D01*
Y10824D01*
X19473Y6204D02*
Y6362D01*
X19512Y6401D01*
X19591D01*
X19630Y6362D01*
Y6204D01*
X19591Y6165D01*
X19512D01*
X19552Y6244D02*
X19473Y6165D01*
X19512D02*
X19473Y6204D01*
X19394Y6362D02*
X19355Y6401D01*
X19276D01*
X19237Y6362D01*
Y6322D01*
X19276Y6283D01*
X19237Y6244D01*
Y6204D01*
X19276Y6165D01*
X19355D01*
X19394Y6204D01*
Y6244D01*
X19355Y6283D01*
X19394Y6322D01*
Y6362D01*
X19355Y6283D02*
X19276D01*
X18517Y11286D02*
Y11522D01*
X18399D01*
X18360Y11483D01*
Y11404D01*
X18399Y11365D01*
X18517D01*
X18439D02*
X18360Y11286D01*
X18281Y11483D02*
X18242Y11522D01*
X18163D01*
X18124Y11483D01*
Y11443D01*
X18163Y11404D01*
X18203D01*
X18163D01*
X18124Y11365D01*
Y11325D01*
X18163Y11286D01*
X18242D01*
X18281Y11325D01*
X17927Y11286D02*
Y11522D01*
X18045Y11404D01*
X17888D01*
X18507Y9627D02*
Y9863D01*
X18389D01*
X18350Y9824D01*
Y9745D01*
X18389Y9706D01*
X18507D01*
X18428D02*
X18350Y9627D01*
X18271Y9824D02*
X18232Y9863D01*
X18153D01*
X18113Y9824D01*
Y9785D01*
X18153Y9745D01*
X18192D01*
X18153D01*
X18113Y9706D01*
Y9667D01*
X18153Y9627D01*
X18232D01*
X18271Y9667D01*
X17877Y9863D02*
X18035D01*
Y9745D01*
X17956Y9785D01*
X17917D01*
X17877Y9745D01*
Y9667D01*
X17917Y9627D01*
X17995D01*
X18035Y9667D01*
X19509Y4521D02*
Y4758D01*
X19391D01*
X19351Y4718D01*
Y4639D01*
X19391Y4600D01*
X19509D01*
X19430D02*
X19351Y4521D01*
X19273Y4718D02*
X19233Y4758D01*
X19154D01*
X19115Y4718D01*
Y4679D01*
X19154Y4639D01*
X19194D01*
X19154D01*
X19115Y4600D01*
Y4561D01*
X19154Y4521D01*
X19233D01*
X19273Y4561D01*
X18879Y4758D02*
X18958Y4718D01*
X19036Y4639D01*
Y4561D01*
X18997Y4521D01*
X18918D01*
X18879Y4561D01*
Y4600D01*
X18918Y4639D01*
X19036D01*
D52*
X18130Y10626D02*
Y10704D01*
X18366Y10626D02*
Y10704D01*
X18130Y9044D02*
Y9123D01*
X18366Y9044D02*
Y9123D01*
X22750Y2720D02*
X22829D01*
X22750Y2957D02*
X22829D01*
X19356Y3898D02*
Y3976D01*
X19120Y3898D02*
Y3976D01*
D53*
X15436Y3021D02*
Y4316D01*
X14826Y3011D02*
Y4306D01*
X18174Y7193D02*
X19469D01*
X18184Y6583D02*
X19479D01*
D54*
X24411Y12555D02*
G03*
X24411Y12555I-100J0D01*
G01*
D55*
X19492Y18433D02*
X19562D01*
X19472Y18423D02*
X19592D01*
X18212D02*
X18412D01*
X24092Y18413D02*
X24272D01*
X23152D02*
X23342D01*
X22512D02*
X22662D01*
X21242D02*
X21832D01*
X19832D02*
X20652D01*
X19462D02*
X19602D01*
X19032D02*
X19242D01*
X18212D02*
X18422D01*
X17572D02*
X17672D01*
X24082Y18403D02*
X24272D01*
X23152D02*
X23342D01*
X22502D02*
X22672D01*
X21192D02*
X21832D01*
X19832D02*
X20652D01*
X19452D02*
X19612D01*
X19032D02*
X19232D01*
X18222D02*
X18432D01*
X17552D02*
X17702D01*
X24082Y18393D02*
X24272D01*
X23162D02*
X23342D01*
X22502D02*
X22672D01*
X21152D02*
X21832D01*
X19832D02*
X20652D01*
X19442D02*
X19612D01*
X19022D02*
X19222D01*
X18232D02*
X18432D01*
X17532D02*
X17712D01*
X24082Y18383D02*
X24262D01*
X23162D02*
X23352D01*
X22502D02*
X22672D01*
X21122D02*
X21832D01*
X19832D02*
X20652D01*
X19442D02*
X19622D01*
X19022D02*
X19222D01*
X18232D02*
X18442D01*
X17522D02*
X17722D01*
X24072Y18373D02*
X24262D01*
X23162D02*
X23352D01*
X22492D02*
X22682D01*
X21102D02*
X21832D01*
X19832D02*
X20652D01*
X19432D02*
X19622D01*
X19012D02*
X19212D01*
X18242D02*
X18442D01*
X17512D02*
X17732D01*
X24072Y18363D02*
X24262D01*
X23172D02*
X23362D01*
X22492D02*
X22682D01*
X21082D02*
X21832D01*
X19832D02*
X20652D01*
X19432D02*
X19622D01*
X19002D02*
X19202D01*
X18242D02*
X18452D01*
X17502D02*
X17742D01*
X24072Y18353D02*
X24252D01*
X23172D02*
X23362D01*
X22482D02*
X22692D01*
X21062D02*
X21832D01*
X19832D02*
X20652D01*
X19432D02*
X19622D01*
X19002D02*
X19202D01*
X18252D02*
X18462D01*
X17502D02*
X17752D01*
X24062Y18343D02*
X24252D01*
X23182D02*
X23362D01*
X22482D02*
X22692D01*
X21042D02*
X21832D01*
X19832D02*
X20652D01*
X19432D02*
X19632D01*
X18992D02*
X19192D01*
X18262D02*
X18462D01*
X17492D02*
X17752D01*
X24062Y18333D02*
X24242D01*
X23182D02*
X23372D01*
X22482D02*
X22692D01*
X21032D02*
X21832D01*
X19832D02*
X20652D01*
X19432D02*
X19622D01*
X18982D02*
X19182D01*
X18262D02*
X18472D01*
X17492D02*
X17762D01*
X24062Y18323D02*
X24242D01*
X23182D02*
X23372D01*
X22472D02*
X22702D01*
X21022D02*
X21832D01*
X19832D02*
X20652D01*
X19432D02*
X19622D01*
X18982D02*
X19182D01*
X18272D02*
X18482D01*
X17482D02*
X17762D01*
X24052Y18313D02*
X24242D01*
X23192D02*
X23372D01*
X22472D02*
X22702D01*
X21002D02*
X21832D01*
X19832D02*
X20652D01*
X19432D02*
X19622D01*
X18972D02*
X19172D01*
X18282D02*
X18482D01*
X17482D02*
X17772D01*
X24052Y18303D02*
X24232D01*
X23192D02*
X23382D01*
X22462D02*
X22712D01*
X20992D02*
X21832D01*
X19832D02*
X20652D01*
X19442D02*
X19622D01*
X18962D02*
X19172D01*
X18282D02*
X18492D01*
X17482D02*
X17772D01*
X24052Y18293D02*
X24232D01*
X23192D02*
X23382D01*
X22462D02*
X22712D01*
X20982D02*
X21832D01*
X19832D02*
X20652D01*
X19442D02*
X19612D01*
X18962D02*
X19162D01*
X18292D02*
X18492D01*
X17472D02*
X17772D01*
X24042Y18283D02*
X24232D01*
X23202D02*
X23382D01*
X22462D02*
X22712D01*
X20972D02*
X21832D01*
X19832D02*
X20652D01*
X19452D02*
X19612D01*
X18952D02*
X19152D01*
X18302D02*
X18502D01*
X17472D02*
X17772D01*
X24042Y18273D02*
X24222D01*
X23202D02*
X23392D01*
X22452D02*
X22722D01*
X21652D02*
X21832D01*
X20972D02*
X21272D01*
X20482D02*
X20652D01*
X19462D02*
X19602D01*
X18952D02*
X19152D01*
X18302D02*
X18512D01*
X17472D02*
X17782D01*
X24032Y18263D02*
X24222D01*
X23212D02*
X23392D01*
X22452D02*
X22722D01*
X21652D02*
X21832D01*
X20962D02*
X21232D01*
X20482D02*
X20652D01*
X19472D02*
X19592D01*
X18942D02*
X19142D01*
X18312D02*
X18512D01*
X17442D02*
X17802D01*
X24032Y18253D02*
X24212D01*
X23212D02*
X23392D01*
X22452D02*
X22722D01*
X21652D02*
X21832D01*
X20952D02*
X21202D01*
X20482D02*
X20652D01*
X19492D02*
X19562D01*
X18932D02*
X19132D01*
X18322D02*
X18522D01*
X17422D02*
X17832D01*
X24032Y18243D02*
X24212D01*
X23212D02*
X23402D01*
X22442D02*
X22732D01*
X21652D02*
X21832D01*
X20942D02*
X21182D01*
X20482D02*
X20652D01*
X18932D02*
X19132D01*
X18322D02*
X18532D01*
X17402D02*
X17852D01*
X24022Y18233D02*
X24212D01*
X23222D02*
X23402D01*
X22442D02*
X22732D01*
X21652D02*
X21832D01*
X20942D02*
X21162D01*
X20482D02*
X20652D01*
X18922D02*
X19122D01*
X18332D02*
X18532D01*
X17382D02*
X17872D01*
X24022Y18223D02*
X24202D01*
X23222D02*
X23402D01*
X22432D02*
X22742D01*
X21652D02*
X21832D01*
X20932D02*
X21152D01*
X20482D02*
X20652D01*
X18912D02*
X19112D01*
X18332D02*
X18542D01*
X17782D02*
X17882D01*
X17482D02*
X17762D01*
X17362D02*
X17472D01*
X24022Y18213D02*
X24202D01*
X23222D02*
X23412D01*
X22432D02*
X22742D01*
X21652D02*
X21832D01*
X20932D02*
X21132D01*
X20482D02*
X20652D01*
X18912D02*
X19112D01*
X18342D02*
X18542D01*
X17802D02*
X17902D01*
X17492D02*
X17762D01*
X17352D02*
X17442D01*
X24012Y18203D02*
X24202D01*
X23232D02*
X23412D01*
X22432D02*
X22742D01*
X21652D02*
X21832D01*
X20922D02*
X21122D01*
X20482D02*
X20652D01*
X18902D02*
X19102D01*
X18352D02*
X18552D01*
X17822D02*
X17912D01*
X17492D02*
X17752D01*
X17332D02*
X17422D01*
X24012Y18193D02*
X24192D01*
X23232D02*
X23412D01*
X22592D02*
X22752D01*
X22422D02*
X22582D01*
X21652D02*
X21832D01*
X20912D02*
X21112D01*
X20482D02*
X20652D01*
X18892D02*
X19102D01*
X18352D02*
X18562D01*
X17842D02*
X17932D01*
X17502D02*
X17752D01*
X17322D02*
X17402D01*
X24012Y18183D02*
X24192D01*
X23242D02*
X23422D01*
X22592D02*
X22752D01*
X22422D02*
X22582D01*
X21652D02*
X21832D01*
X20912D02*
X21102D01*
X20482D02*
X20652D01*
X18892D02*
X19092D01*
X18362D02*
X18562D01*
X17862D02*
X17942D01*
X17502D02*
X17742D01*
X17312D02*
X17392D01*
X24002Y18173D02*
X24182D01*
X23242D02*
X23422D01*
X22602D02*
X22762D01*
X22412D02*
X22572D01*
X21652D02*
X21832D01*
X20912D02*
X21102D01*
X20482D02*
X20652D01*
X18882D02*
X19082D01*
X18372D02*
X18572D01*
X17882D02*
X17952D01*
X17512D02*
X17732D01*
X17292D02*
X17372D01*
X24002Y18163D02*
X24182D01*
X23242D02*
X23422D01*
X22602D02*
X22762D01*
X22412D02*
X22572D01*
X21652D02*
X21832D01*
X20902D02*
X21092D01*
X20482D02*
X20652D01*
X18882D02*
X19082D01*
X18372D02*
X18582D01*
X17892D02*
X17962D01*
X17522D02*
X17722D01*
X17282D02*
X17362D01*
X24002Y18153D02*
X24182D01*
X23252D02*
X23432D01*
X22602D02*
X22762D01*
X22412D02*
X22562D01*
X21652D02*
X21832D01*
X20902D02*
X21092D01*
X20482D02*
X20652D01*
X18872D02*
X19072D01*
X18382D02*
X18582D01*
X17902D02*
X17972D01*
X17542D02*
X17712D01*
X17272D02*
X17342D01*
X23992Y18143D02*
X24172D01*
X23252D02*
X23432D01*
X22612D02*
X22772D01*
X22402D02*
X22562D01*
X21652D02*
X21832D01*
X20902D02*
X21082D01*
X20482D02*
X20652D01*
X18862D02*
X19062D01*
X18392D02*
X18592D01*
X17912D02*
X17982D01*
X17552D02*
X17692D01*
X17262D02*
X17332D01*
X23992Y18133D02*
X24172D01*
X23252D02*
X23442D01*
X22612D02*
X22772D01*
X22402D02*
X22562D01*
X21652D02*
X21832D01*
X20892D02*
X21072D01*
X20482D02*
X20652D01*
X18862D02*
X19062D01*
X18392D02*
X18592D01*
X17932D02*
X17992D01*
X17572D02*
X17672D01*
X17252D02*
X17322D01*
X23992Y18123D02*
X24172D01*
X23262D02*
X23442D01*
X22622D02*
X22772D01*
X22402D02*
X22552D01*
X21652D02*
X21832D01*
X20892D02*
X21072D01*
X20482D02*
X20652D01*
X18852D02*
X19052D01*
X18402D02*
X18602D01*
X17942D02*
X18002D01*
X17242D02*
X17312D01*
X23982Y18113D02*
X24162D01*
X23262D02*
X23442D01*
X22622D02*
X22782D01*
X22392D02*
X22552D01*
X21652D02*
X21832D01*
X20892D02*
X21072D01*
X20482D02*
X20652D01*
X18842D02*
X19042D01*
X18402D02*
X18612D01*
X17952D02*
X18012D01*
X17242D02*
X17302D01*
X23982Y18103D02*
X24162D01*
X23272D02*
X23452D01*
X22622D02*
X22782D01*
X22392D02*
X22552D01*
X21652D02*
X21832D01*
X20892D02*
X21062D01*
X20482D02*
X20652D01*
X18842D02*
X19042D01*
X18412D02*
X18612D01*
X17962D02*
X18022D01*
X17232D02*
X17292D01*
X23982Y18093D02*
X24152D01*
X23272D02*
X23452D01*
X22632D02*
X22792D01*
X22382D02*
X22542D01*
X21652D02*
X21832D01*
X20882D02*
X21062D01*
X20482D02*
X20652D01*
X18832D02*
X19032D01*
X18422D02*
X18622D01*
X17972D02*
X18022D01*
X17222D02*
X17282D01*
X23972Y18083D02*
X24152D01*
X23272D02*
X23452D01*
X22632D02*
X22792D01*
X22382D02*
X22542D01*
X21652D02*
X21832D01*
X20882D02*
X21062D01*
X20482D02*
X20652D01*
X18822D02*
X19022D01*
X18422D02*
X18622D01*
X17972D02*
X18032D01*
X17212D02*
X17272D01*
X23972Y18073D02*
X24152D01*
X23282D02*
X23462D01*
X22632D02*
X22792D01*
X22382D02*
X22542D01*
X21652D02*
X21832D01*
X20882D02*
X21062D01*
X20482D02*
X20652D01*
X19452D02*
X19612D01*
X18822D02*
X19022D01*
X18432D02*
X18612D01*
X17982D02*
X18042D01*
X17212D02*
X17262D01*
X23972Y18063D02*
X24142D01*
X23282D02*
X23462D01*
X22642D02*
X22802D01*
X22372D02*
X22532D01*
X21652D02*
X21832D01*
X20882D02*
X21062D01*
X20482D02*
X20652D01*
X19452D02*
X19612D01*
X18812D02*
X19012D01*
X18442D02*
X18612D01*
X17992D02*
X18052D01*
X17202D02*
X17262D01*
X23962Y18053D02*
X24142D01*
X23282D02*
X23462D01*
X22642D02*
X22802D01*
X22372D02*
X22532D01*
X21652D02*
X21832D01*
X20882D02*
X21052D01*
X20482D02*
X20652D01*
X19452D02*
X19612D01*
X18812D02*
X19012D01*
X18442D02*
X18602D01*
X18002D02*
X18052D01*
X17192D02*
X17252D01*
X23962Y18043D02*
X24142D01*
X23292D02*
X23472D01*
X22642D02*
X22802D01*
X22362D02*
X22522D01*
X21652D02*
X21832D01*
X20882D02*
X21052D01*
X20482D02*
X20652D01*
X19452D02*
X19612D01*
X18802D02*
X19002D01*
X18452D02*
X18602D01*
X18002D02*
X18062D01*
X17192D02*
X17242D01*
X23962Y18033D02*
X24132D01*
X23292D02*
X23472D01*
X22652D02*
X22812D01*
X22362D02*
X22522D01*
X21652D02*
X21832D01*
X20882D02*
X21052D01*
X20482D02*
X20652D01*
X19452D02*
X19612D01*
X18792D02*
X18992D01*
X18462D02*
X18592D01*
X18012D02*
X18062D01*
X17182D02*
X17242D01*
X23952Y18023D02*
X24132D01*
X23292D02*
X23472D01*
X22652D02*
X22812D01*
X22362D02*
X22522D01*
X21652D02*
X21832D01*
X20882D02*
X21052D01*
X20482D02*
X20652D01*
X19452D02*
X19612D01*
X18792D02*
X18992D01*
X18462D02*
X18582D01*
X18012D02*
X18072D01*
X17182D02*
X17232D01*
X23952Y18013D02*
X24132D01*
X23302D02*
X23482D01*
X22662D02*
X22822D01*
X22352D02*
X22512D01*
X21652D02*
X21832D01*
X20882D02*
X21052D01*
X20482D02*
X20652D01*
X19452D02*
X19612D01*
X18782D02*
X18982D01*
X18472D02*
X18582D01*
X18022D02*
X18072D01*
X17172D02*
X17232D01*
X23942Y18003D02*
X24122D01*
X23302D02*
X23482D01*
X22662D02*
X22822D01*
X22352D02*
X22512D01*
X21652D02*
X21832D01*
X20882D02*
X21052D01*
X20482D02*
X20652D01*
X19452D02*
X19612D01*
X18772D02*
X18972D01*
X18482D02*
X18572D01*
X18032D02*
X18082D01*
X17172D02*
X17222D01*
X23942Y17993D02*
X24122D01*
X23312D02*
X23482D01*
X22662D02*
X22822D01*
X22352D02*
X22512D01*
X21652D02*
X21832D01*
X20882D02*
X21052D01*
X20482D02*
X20652D01*
X19452D02*
X19612D01*
X18772D02*
X18972D01*
X18482D02*
X18562D01*
X18032D02*
X18082D01*
X17162D02*
X17212D01*
X23942Y17983D02*
X24112D01*
X23312D02*
X23492D01*
X22672D02*
X22832D01*
X22342D02*
X22502D01*
X21652D02*
X21832D01*
X20882D02*
X21052D01*
X20482D02*
X20652D01*
X19452D02*
X19612D01*
X18762D02*
X18962D01*
X18492D02*
X18562D01*
X18032D02*
X18092D01*
X17162D02*
X17212D01*
X23932Y17973D02*
X24112D01*
X23312D02*
X23492D01*
X22672D02*
X22832D01*
X22342D02*
X22502D01*
X21652D02*
X21832D01*
X20882D02*
X21052D01*
X20482D02*
X20652D01*
X19452D02*
X19612D01*
X18752D02*
X18952D01*
X18492D02*
X18552D01*
X18042D02*
X18092D01*
X17162D02*
X17212D01*
X23932Y17963D02*
X24112D01*
X23322D02*
X23492D01*
X22672D02*
X22842D01*
X22332D02*
X22502D01*
X21652D02*
X21832D01*
X20882D02*
X21062D01*
X20482D02*
X20652D01*
X19452D02*
X19612D01*
X18752D02*
X18952D01*
X18502D02*
X18552D01*
X18042D02*
X18092D01*
X17152D02*
X17202D01*
X23932Y17953D02*
X24102D01*
X23322D02*
X23502D01*
X22682D02*
X22842D01*
X22332D02*
X22492D01*
X21652D02*
X21832D01*
X20882D02*
X21062D01*
X20482D02*
X20652D01*
X19452D02*
X19612D01*
X18742D02*
X18942D01*
X18512D02*
X18542D01*
X18052D02*
X18102D01*
X17152D02*
X17202D01*
X23922Y17943D02*
X24102D01*
X23322D02*
X23502D01*
X22682D02*
X22842D01*
X22332D02*
X22492D01*
X21652D02*
X21832D01*
X20882D02*
X21062D01*
X20482D02*
X20652D01*
X19452D02*
X19612D01*
X18742D02*
X18932D01*
X18512D02*
X18532D01*
X18052D02*
X18142D01*
X17102D02*
X17202D01*
X23922Y17933D02*
X24102D01*
X23332D02*
X23502D01*
X22692D02*
X22852D01*
X22322D02*
X22482D01*
X21652D02*
X21832D01*
X20892D02*
X21062D01*
X20482D02*
X20652D01*
X19452D02*
X19612D01*
X18732D02*
X18932D01*
X18522D02*
X18532D01*
X18032D02*
X18172D01*
X17082D02*
X17222D01*
X23922Y17923D02*
X24092D01*
X23332D02*
X23512D01*
X22692D02*
X22852D01*
X22322D02*
X22482D01*
X21652D02*
X21832D01*
X20892D02*
X21062D01*
X20482D02*
X20652D01*
X19452D02*
X19612D01*
X18722D02*
X18922D01*
X18012D02*
X18182D01*
X17062D02*
X17232D01*
X23912Y17913D02*
X24092D01*
X23342D02*
X23512D01*
X22692D02*
X22852D01*
X22312D02*
X22482D01*
X21652D02*
X21832D01*
X20892D02*
X21072D01*
X20482D02*
X20652D01*
X19452D02*
X19612D01*
X18722D02*
X18922D01*
X18002D02*
X18202D01*
X17052D02*
X17252D01*
X23912Y17903D02*
X24082D01*
X23342D02*
X23522D01*
X22702D02*
X22862D01*
X22312D02*
X22472D01*
X21652D02*
X21832D01*
X20892D02*
X21072D01*
X20482D02*
X20652D01*
X19452D02*
X19612D01*
X18712D02*
X18912D01*
X17992D02*
X18212D01*
X17042D02*
X17262D01*
X23912Y17893D02*
X24082D01*
X23342D02*
X23522D01*
X22702D02*
X22862D01*
X22312D02*
X22472D01*
X21652D02*
X21832D01*
X20892D02*
X21082D01*
X20482D02*
X20652D01*
X19452D02*
X19612D01*
X18702D02*
X18902D01*
X17982D02*
X18212D01*
X17032D02*
X17272D01*
X23902Y17883D02*
X24082D01*
X23352D02*
X23522D01*
X22702D02*
X22872D01*
X22302D02*
X22472D01*
X21652D02*
X21832D01*
X20902D02*
X21082D01*
X20482D02*
X20652D01*
X19452D02*
X19612D01*
X18702D02*
X18902D01*
X17972D02*
X18222D01*
X17022D02*
X17272D01*
X23902Y17873D02*
X24072D01*
X23352D02*
X23532D01*
X22712D02*
X22872D01*
X22302D02*
X22462D01*
X21652D02*
X21832D01*
X20902D02*
X21092D01*
X20482D02*
X20652D01*
X19452D02*
X19612D01*
X18692D02*
X18892D01*
X17972D02*
X18232D01*
X17022D02*
X17282D01*
X23902Y17863D02*
X24072D01*
X23352D02*
X23532D01*
X22712D02*
X22872D01*
X22302D02*
X22462D01*
X21652D02*
X21832D01*
X20902D02*
X21102D01*
X20482D02*
X20652D01*
X19452D02*
X19612D01*
X18682D02*
X18882D01*
X17962D02*
X18232D01*
X17012D02*
X17282D01*
X23892Y17853D02*
X24072D01*
X23362D02*
X23532D01*
X22712D02*
X22882D01*
X22292D02*
X22462D01*
X21652D02*
X21832D01*
X20912D02*
X21102D01*
X19912D02*
X20652D01*
X19452D02*
X19612D01*
X18682D02*
X18882D01*
X17962D02*
X18242D01*
X17012D02*
X17292D01*
X23892Y17843D02*
X24062D01*
X23362D02*
X23542D01*
X22722D02*
X22882D01*
X22292D02*
X22452D01*
X21652D02*
X21832D01*
X20912D02*
X21112D01*
X19912D02*
X20652D01*
X19452D02*
X19612D01*
X18672D02*
X18872D01*
X17952D02*
X18242D01*
X17012D02*
X17292D01*
X23892Y17833D02*
X24062D01*
X23372D02*
X23542D01*
X22722D02*
X22892D01*
X22282D02*
X22452D01*
X21652D02*
X21832D01*
X20922D02*
X21122D01*
X19912D02*
X20652D01*
X19452D02*
X19612D01*
X18672D02*
X18862D01*
X17952D02*
X18242D01*
X17002D02*
X17292D01*
X23882Y17823D02*
X24052D01*
X23372D02*
X23542D01*
X22732D02*
X22892D01*
X22282D02*
X22442D01*
X21652D02*
X21832D01*
X20922D02*
X21132D01*
X19912D02*
X20652D01*
X19452D02*
X19612D01*
X18662D02*
X18862D01*
X17952D02*
X18242D01*
X17002D02*
X17302D01*
X23882Y17813D02*
X24052D01*
X23372D02*
X23552D01*
X22732D02*
X22892D01*
X22282D02*
X22442D01*
X21652D02*
X21832D01*
X20932D02*
X21152D01*
X19912D02*
X20652D01*
X19452D02*
X19612D01*
X18652D02*
X18852D01*
X17952D02*
X18252D01*
X17002D02*
X17302D01*
X23882Y17803D02*
X24052D01*
X23382D02*
X23552D01*
X22732D02*
X22902D01*
X22272D02*
X22442D01*
X21652D02*
X21832D01*
X20932D02*
X21162D01*
X19912D02*
X20652D01*
X19452D02*
X19612D01*
X18652D02*
X18852D01*
X17952D02*
X18252D01*
X17002D02*
X17302D01*
X23872Y17793D02*
X24042D01*
X23382D02*
X23552D01*
X22742D02*
X22902D01*
X22272D02*
X22432D01*
X21652D02*
X21832D01*
X20942D02*
X21182D01*
X19912D02*
X20652D01*
X19452D02*
X19612D01*
X18642D02*
X18842D01*
X17952D02*
X18252D01*
X17002D02*
X17302D01*
X23872Y17783D02*
X24042D01*
X23382D02*
X23562D01*
X22742D02*
X22902D01*
X22272D02*
X22432D01*
X21652D02*
X21832D01*
X20952D02*
X21202D01*
X19912D02*
X20652D01*
X19452D02*
X19612D01*
X18632D02*
X18832D01*
X17952D02*
X18242D01*
X17002D02*
X17302D01*
X23872Y17773D02*
X24042D01*
X23392D02*
X23562D01*
X22742D02*
X22912D01*
X22262D02*
X22432D01*
X21652D02*
X21832D01*
X20952D02*
X21242D01*
X19912D02*
X20652D01*
X19452D02*
X19612D01*
X18632D02*
X18832D01*
X17952D02*
X18242D01*
X17002D02*
X17292D01*
X23862Y17763D02*
X24032D01*
X23392D02*
X23562D01*
X22752D02*
X22912D01*
X22262D02*
X22422D01*
X21652D02*
X21832D01*
X20962D02*
X21312D01*
X19912D02*
X20652D01*
X19452D02*
X19612D01*
X18622D02*
X18832D01*
X17952D02*
X18242D01*
X17002D02*
X17292D01*
X23862Y17753D02*
X24032D01*
X23402D02*
X23572D01*
X22752D02*
X22922D01*
X22252D02*
X22422D01*
X20972D02*
X21832D01*
X19912D02*
X20652D01*
X19452D02*
X19612D01*
X18632D02*
X18832D01*
X17962D02*
X18242D01*
X17012D02*
X17292D01*
X23852Y17743D02*
X24022D01*
X23402D02*
X23572D01*
X22752D02*
X22922D01*
X22252D02*
X22422D01*
X20982D02*
X21832D01*
X19912D02*
X20652D01*
X19452D02*
X19612D01*
X18642D02*
X18842D01*
X17962D02*
X18232D01*
X17012D02*
X17292D01*
X23852Y17733D02*
X24022D01*
X23402D02*
X23572D01*
X22762D02*
X22922D01*
X22252D02*
X22412D01*
X20992D02*
X21832D01*
X19912D02*
X20652D01*
X19452D02*
X19612D01*
X18642D02*
X18852D01*
X17962D02*
X18232D01*
X17022D02*
X17282D01*
X23852Y17723D02*
X24022D01*
X23412D02*
X23582D01*
X22762D02*
X22932D01*
X22242D02*
X22412D01*
X21002D02*
X21832D01*
X19912D02*
X20652D01*
X19452D02*
X19612D01*
X18652D02*
X18852D01*
X17972D02*
X18222D01*
X17022D02*
X17272D01*
X23842Y17713D02*
X24012D01*
X23412D02*
X23582D01*
X22772D02*
X22932D01*
X22242D02*
X22402D01*
X21012D02*
X21832D01*
X20482D02*
X20652D01*
X19452D02*
X19612D01*
X18652D02*
X18862D01*
X17982D02*
X18222D01*
X17032D02*
X17272D01*
X23842Y17703D02*
X24012D01*
X23412D02*
X23582D01*
X22772D02*
X22942D01*
X22232D02*
X22402D01*
X21032D02*
X21832D01*
X20482D02*
X20652D01*
X19452D02*
X19612D01*
X18662D02*
X18872D01*
X17992D02*
X18212D01*
X17042D02*
X17262D01*
X23842Y17693D02*
X24012D01*
X23422D02*
X23592D01*
X22772D02*
X22942D01*
X22232D02*
X22402D01*
X21042D02*
X21832D01*
X20482D02*
X20652D01*
X19452D02*
X19612D01*
X18672D02*
X18872D01*
X18002D02*
X18202D01*
X17052D02*
X17252D01*
X23832Y17683D02*
X24002D01*
X23422D02*
X23592D01*
X22782D02*
X22942D01*
X22232D02*
X22392D01*
X21062D02*
X21832D01*
X20482D02*
X20652D01*
X19452D02*
X19612D01*
X18672D02*
X18882D01*
X18012D02*
X18192D01*
X17062D02*
X17242D01*
X23832Y17673D02*
X24002D01*
X23432D02*
X23602D01*
X22782D02*
X22952D01*
X22222D02*
X22392D01*
X21082D02*
X21832D01*
X20482D02*
X20652D01*
X19452D02*
X19612D01*
X18682D02*
X18892D01*
X18022D02*
X18172D01*
X17072D02*
X17222D01*
X23832Y17663D02*
X24002D01*
X23432D02*
X23602D01*
X22782D02*
X22952D01*
X22222D02*
X22392D01*
X21102D02*
X21832D01*
X20482D02*
X20652D01*
X19452D02*
X19612D01*
X18692D02*
X18892D01*
X18042D02*
X18152D01*
X17102D02*
X17202D01*
X23822Y17653D02*
X23992D01*
X23432D02*
X23602D01*
X22792D02*
X22952D01*
X22222D02*
X22382D01*
X21132D02*
X21832D01*
X20482D02*
X20652D01*
X19452D02*
X19612D01*
X18692D02*
X18902D01*
X18052D02*
X18112D01*
X17142D02*
X17202D01*
X23822Y17643D02*
X23992D01*
X23442D02*
X23612D01*
X22792D02*
X22962D01*
X22212D02*
X22382D01*
X21162D02*
X21832D01*
X20482D02*
X20652D01*
X19452D02*
X19612D01*
X18702D02*
X18902D01*
X18042D02*
X18092D01*
X17152D02*
X17202D01*
X23822Y17633D02*
X23982D01*
X23442D02*
X23612D01*
X22792D02*
X22962D01*
X22212D02*
X22372D01*
X21212D02*
X21832D01*
X20482D02*
X20652D01*
X19452D02*
X19612D01*
X18712D02*
X18912D01*
X18042D02*
X18092D01*
X17152D02*
X17212D01*
X23812Y17623D02*
X23982D01*
X23442D02*
X23612D01*
X22802D02*
X22972D01*
X22202D02*
X22372D01*
X21302D02*
X21832D01*
X20482D02*
X20652D01*
X19452D02*
X19612D01*
X18712D02*
X18922D01*
X18042D02*
X18092D01*
X17162D02*
X17212D01*
X23812Y17613D02*
X23982D01*
X23452D02*
X23622D01*
X22802D02*
X22972D01*
X22202D02*
X22372D01*
X21652D02*
X21832D01*
X20482D02*
X20652D01*
X19452D02*
X19612D01*
X18722D02*
X18922D01*
X18032D02*
X18082D01*
X17162D02*
X17212D01*
X23812Y17603D02*
X23972D01*
X23452D02*
X23622D01*
X22812D02*
X22972D01*
X22202D02*
X22362D01*
X21652D02*
X21832D01*
X20482D02*
X20652D01*
X19452D02*
X19612D01*
X18732D02*
X18932D01*
X18032D02*
X18082D01*
X17172D02*
X17222D01*
X23802Y17593D02*
X23972D01*
X23462D02*
X23622D01*
X22802D02*
X22982D01*
X22192D02*
X22362D01*
X21652D02*
X21832D01*
X20482D02*
X20652D01*
X19452D02*
X19612D01*
X18732D02*
X18942D01*
X18512D02*
X18532D01*
X18022D02*
X18072D01*
X17172D02*
X17222D01*
X23802Y17583D02*
X23972D01*
X23462D02*
X23632D01*
X22192D02*
X22982D01*
X21652D02*
X21832D01*
X20482D02*
X20652D01*
X19452D02*
X19612D01*
X18742D02*
X18942D01*
X18512D02*
X18542D01*
X18022D02*
X18072D01*
X17182D02*
X17232D01*
X23802Y17573D02*
X23962D01*
X23462D02*
X23632D01*
X22182D02*
X22992D01*
X21652D02*
X21832D01*
X20482D02*
X20652D01*
X19452D02*
X19612D01*
X18752D02*
X18952D01*
X18502D02*
X18542D01*
X18012D02*
X18062D01*
X17182D02*
X17232D01*
X23792Y17563D02*
X23962D01*
X23472D02*
X23632D01*
X22182D02*
X22992D01*
X21652D02*
X21832D01*
X20482D02*
X20652D01*
X19452D02*
X19612D01*
X18752D02*
X18962D01*
X18492D02*
X18552D01*
X18002D02*
X18062D01*
X17192D02*
X17242D01*
X23792Y17553D02*
X23952D01*
X23472D02*
X23642D01*
X22182D02*
X22992D01*
X21652D02*
X21832D01*
X20482D02*
X20652D01*
X19452D02*
X19612D01*
X18762D02*
X18962D01*
X18492D02*
X18562D01*
X18002D02*
X18052D01*
X17192D02*
X17252D01*
X23792Y17543D02*
X23952D01*
X23472D02*
X23642D01*
X22172D02*
X23002D01*
X21652D02*
X21832D01*
X20482D02*
X20652D01*
X19452D02*
X19612D01*
X18762D02*
X18972D01*
X18482D02*
X18562D01*
X17992D02*
X18052D01*
X17202D02*
X17252D01*
X23782Y17533D02*
X23952D01*
X23482D02*
X23642D01*
X22172D02*
X23002D01*
X21652D02*
X21832D01*
X20482D02*
X20652D01*
X19452D02*
X19612D01*
X18772D02*
X18982D01*
X18482D02*
X18572D01*
X17982D02*
X18042D01*
X17202D02*
X17262D01*
X23782Y17523D02*
X23942D01*
X23482D02*
X23652D01*
X22172D02*
X23002D01*
X21652D02*
X21832D01*
X20482D02*
X20652D01*
X19452D02*
X19612D01*
X18782D02*
X18982D01*
X18472D02*
X18582D01*
X17982D02*
X18032D01*
X17212D02*
X17272D01*
X23782Y17513D02*
X23942D01*
X23482D02*
X23652D01*
X22162D02*
X23012D01*
X21652D02*
X21832D01*
X20482D02*
X20652D01*
X19452D02*
X19612D01*
X18782D02*
X18992D01*
X18462D02*
X18582D01*
X17972D02*
X18032D01*
X17222D02*
X17282D01*
X23772Y17503D02*
X23942D01*
X23492D02*
X23652D01*
X22162D02*
X23012D01*
X21652D02*
X21832D01*
X20482D02*
X20652D01*
X19452D02*
X19612D01*
X18792D02*
X19002D01*
X18462D02*
X18592D01*
X17962D02*
X18022D01*
X17232D02*
X17292D01*
X23772Y17493D02*
X23932D01*
X23492D02*
X23662D01*
X22152D02*
X23022D01*
X21652D02*
X21832D01*
X20482D02*
X20652D01*
X19452D02*
X19612D01*
X18802D02*
X19002D01*
X18452D02*
X18602D01*
X17952D02*
X18012D01*
X17232D02*
X17302D01*
X23762Y17483D02*
X23932D01*
X23502D02*
X23662D01*
X22152D02*
X23022D01*
X21652D02*
X21832D01*
X20482D02*
X20652D01*
X19452D02*
X19612D01*
X18802D02*
X19012D01*
X18442D02*
X18602D01*
X17942D02*
X18002D01*
X17242D02*
X17312D01*
X23762Y17473D02*
X23922D01*
X23502D02*
X23662D01*
X22152D02*
X23022D01*
X21652D02*
X21832D01*
X20482D02*
X20652D01*
X19452D02*
X19612D01*
X18812D02*
X19012D01*
X18442D02*
X18612D01*
X17932D02*
X17992D01*
X17582D02*
X17662D01*
X17252D02*
X17322D01*
X23762Y17463D02*
X23922D01*
X23502D02*
X23672D01*
X22142D02*
X23032D01*
X21652D02*
X21832D01*
X20482D02*
X20652D01*
X19452D02*
X19612D01*
X18822D02*
X19022D01*
X18432D02*
X18622D01*
X17922D02*
X17992D01*
X17562D02*
X17692D01*
X17262D02*
X17332D01*
X23752Y17453D02*
X23922D01*
X23512D02*
X23672D01*
X22142D02*
X23032D01*
X21652D02*
X21832D01*
X20482D02*
X20652D01*
X19452D02*
X19612D01*
X18822D02*
X19032D01*
X18432D02*
X18622D01*
X17912D02*
X17982D01*
X17542D02*
X17702D01*
X17272D02*
X17342D01*
X23752Y17443D02*
X23912D01*
X23512D02*
X23682D01*
X22862D02*
X23032D01*
X22132D02*
X22312D01*
X21652D02*
X21832D01*
X20482D02*
X20652D01*
X19452D02*
X19612D01*
X18832D02*
X19032D01*
X18422D02*
X18622D01*
X17892D02*
X17972D01*
X17532D02*
X17722D01*
X17282D02*
X17352D01*
X23752Y17433D02*
X23912D01*
X23512D02*
X23682D01*
X22872D02*
X23042D01*
X22132D02*
X22302D01*
X21652D02*
X21832D01*
X20482D02*
X20652D01*
X19452D02*
X19612D01*
X18842D02*
X19042D01*
X18412D02*
X18622D01*
X17882D02*
X17952D01*
X17522D02*
X17732D01*
X17292D02*
X17372D01*
X23742Y17423D02*
X23912D01*
X23522D02*
X23682D01*
X22872D02*
X23042D01*
X22132D02*
X22302D01*
X21652D02*
X21832D01*
X20482D02*
X20652D01*
X19452D02*
X19612D01*
X18842D02*
X19052D01*
X18412D02*
X18612D01*
X17862D02*
X17942D01*
X17512D02*
X17742D01*
X17302D02*
X17382D01*
X23742Y17413D02*
X23902D01*
X23522D02*
X23692D01*
X22882D02*
X23052D01*
X22122D02*
X22292D01*
X21652D02*
X21832D01*
X20482D02*
X20652D01*
X19452D02*
X19612D01*
X18852D02*
X19052D01*
X18402D02*
X18612D01*
X17852D02*
X17932D01*
X17502D02*
X17752D01*
X17312D02*
X17402D01*
X23742Y17403D02*
X23902D01*
X23532D02*
X23692D01*
X22882D02*
X23052D01*
X22122D02*
X22292D01*
X21652D02*
X21832D01*
X20482D02*
X20652D01*
X19452D02*
X19612D01*
X18862D02*
X19062D01*
X18392D02*
X18602D01*
X17832D02*
X17922D01*
X17492D02*
X17752D01*
X17332D02*
X17422D01*
X23732Y17393D02*
X23892D01*
X23532D02*
X23692D01*
X22882D02*
X23052D01*
X22112D02*
X22292D01*
X21652D02*
X21832D01*
X20482D02*
X20652D01*
X19452D02*
X19612D01*
X18862D02*
X19072D01*
X18392D02*
X18592D01*
X17812D02*
X17902D01*
X17492D02*
X17762D01*
X17342D02*
X17442D01*
X23732Y17383D02*
X23892D01*
X23532D02*
X23702D01*
X22892D02*
X23062D01*
X22112D02*
X22282D01*
X21652D02*
X21832D01*
X20482D02*
X20652D01*
X19452D02*
X19612D01*
X18872D02*
X19072D01*
X18382D02*
X18592D01*
X17782D02*
X17892D01*
X17482D02*
X17762D01*
X17362D02*
X17462D01*
X23732Y17373D02*
X23892D01*
X23542D02*
X23702D01*
X22892D02*
X23062D01*
X22112D02*
X22282D01*
X21652D02*
X21832D01*
X20482D02*
X20652D01*
X19452D02*
X19612D01*
X18872D02*
X19082D01*
X18382D02*
X18582D01*
X17372D02*
X17872D01*
X23722Y17363D02*
X23882D01*
X23542D02*
X23702D01*
X22892D02*
X23072D01*
X22102D02*
X22282D01*
X21652D02*
X21832D01*
X20482D02*
X20652D01*
X19452D02*
X19612D01*
X18882D02*
X19092D01*
X18372D02*
X18572D01*
X17392D02*
X17852D01*
X23722Y17353D02*
X23882D01*
X23542D02*
X23712D01*
X22902D02*
X23072D01*
X22102D02*
X22272D01*
X21652D02*
X21832D01*
X20482D02*
X20652D01*
X19452D02*
X19612D01*
X18892D02*
X19092D01*
X18362D02*
X18572D01*
X17412D02*
X17832D01*
X23722Y17343D02*
X23882D01*
X23552D02*
X23712D01*
X22902D02*
X23072D01*
X22102D02*
X22272D01*
X21652D02*
X21832D01*
X20482D02*
X20652D01*
X19452D02*
X19612D01*
X18892D02*
X19102D01*
X18362D02*
X18562D01*
X17432D02*
X17812D01*
X23552Y17333D02*
X23872D01*
X22902D02*
X23082D01*
X22092D02*
X22262D01*
X21652D02*
X21832D01*
X20482D02*
X20652D01*
X19452D02*
X19612D01*
X18902D02*
X19102D01*
X18352D02*
X18562D01*
X17462D02*
X17782D01*
X23562Y17323D02*
X23872D01*
X22912D02*
X23082D01*
X22092D02*
X22262D01*
X21652D02*
X21832D01*
X20482D02*
X20652D01*
X19452D02*
X19612D01*
X18912D02*
X19112D01*
X18342D02*
X18552D01*
X17472D02*
X17772D01*
X23562Y17313D02*
X23862D01*
X22912D02*
X23082D01*
X22082D02*
X22262D01*
X21652D02*
X21832D01*
X20482D02*
X20652D01*
X19452D02*
X19612D01*
X18912D02*
X19122D01*
X18342D02*
X18542D01*
X17472D02*
X17772D01*
X23562Y17303D02*
X23862D01*
X22922D02*
X23092D01*
X22082D02*
X22252D01*
X21652D02*
X21832D01*
X20482D02*
X20652D01*
X19452D02*
X19612D01*
X18922D02*
X19122D01*
X18332D02*
X18542D01*
X17482D02*
X17772D01*
X23572Y17293D02*
X23862D01*
X22922D02*
X23092D01*
X22082D02*
X22252D01*
X21652D02*
X21832D01*
X20482D02*
X20652D01*
X19452D02*
X19612D01*
X18932D02*
X19132D01*
X18332D02*
X18532D01*
X17482D02*
X17772D01*
X23572Y17283D02*
X23852D01*
X22922D02*
X23102D01*
X22072D02*
X22252D01*
X21652D02*
X21832D01*
X20482D02*
X20652D01*
X19452D02*
X19612D01*
X18932D02*
X19142D01*
X18322D02*
X18532D01*
X17482D02*
X17762D01*
X23572Y17273D02*
X23852D01*
X22932D02*
X23102D01*
X22072D02*
X22242D01*
X21652D02*
X21832D01*
X20482D02*
X20652D01*
X19452D02*
X19612D01*
X18942D02*
X19142D01*
X18312D02*
X18522D01*
X17482D02*
X17762D01*
X23582Y17263D02*
X23852D01*
X22932D02*
X23102D01*
X22072D02*
X22242D01*
X21652D02*
X21832D01*
X20482D02*
X20652D01*
X19452D02*
X19612D01*
X18952D02*
X19152D01*
X18312D02*
X18512D01*
X17492D02*
X17762D01*
X23582Y17253D02*
X23842D01*
X22932D02*
X23112D01*
X22062D02*
X22242D01*
X21652D02*
X21832D01*
X20482D02*
X20652D01*
X19452D02*
X19612D01*
X18952D02*
X19162D01*
X18302D02*
X18512D01*
X17492D02*
X17752D01*
X23592Y17243D02*
X23842D01*
X22942D02*
X23112D01*
X22062D02*
X22232D01*
X21652D02*
X21832D01*
X19822D02*
X20652D01*
X19452D02*
X19612D01*
X18962D02*
X19162D01*
X18302D02*
X18502D01*
X17502D02*
X17742D01*
X23592Y17233D02*
X23842D01*
X22942D02*
X23122D01*
X22052D02*
X22232D01*
X21652D02*
X21832D01*
X19822D02*
X20652D01*
X19452D02*
X19612D01*
X18972D02*
X19172D01*
X18292D02*
X18492D01*
X17512D02*
X17742D01*
X23592Y17223D02*
X23832D01*
X22942D02*
X23122D01*
X22052D02*
X22222D01*
X21652D02*
X21832D01*
X19822D02*
X20652D01*
X19452D02*
X19612D01*
X18972D02*
X19182D01*
X18282D02*
X18492D01*
X17522D02*
X17732D01*
X23602Y17213D02*
X23832D01*
X22952D02*
X23122D01*
X22052D02*
X22222D01*
X21652D02*
X21832D01*
X19822D02*
X20652D01*
X19452D02*
X19612D01*
X18982D02*
X19182D01*
X18282D02*
X18482D01*
X17532D02*
X17722D01*
X23602Y17203D02*
X23822D01*
X22952D02*
X23132D01*
X22042D02*
X22222D01*
X21652D02*
X21832D01*
X19822D02*
X20652D01*
X19452D02*
X19612D01*
X18982D02*
X19192D01*
X18272D02*
X18482D01*
X17542D02*
X17702D01*
X23602Y17193D02*
X23822D01*
X22962D02*
X23132D01*
X22042D02*
X22212D01*
X21652D02*
X21832D01*
X19822D02*
X20652D01*
X19452D02*
X19612D01*
X18992D02*
X19202D01*
X18262D02*
X18472D01*
X17562D02*
X17682D01*
X23612Y17183D02*
X23822D01*
X22962D02*
X23132D01*
X22032D02*
X22212D01*
X21652D02*
X21832D01*
X19822D02*
X20652D01*
X19452D02*
X19612D01*
X19002D02*
X19202D01*
X18262D02*
X18462D01*
X17602D02*
X17652D01*
X23612Y17173D02*
X23812D01*
X22962D02*
X23142D01*
X22032D02*
X22212D01*
X21652D02*
X21832D01*
X19822D02*
X20652D01*
X19452D02*
X19612D01*
X19002D02*
X19212D01*
X18252D02*
X18462D01*
X23622Y17163D02*
X23812D01*
X22972D02*
X23142D01*
X22032D02*
X22202D01*
X21652D02*
X21832D01*
X19822D02*
X20652D01*
X19452D02*
X19612D01*
X19012D02*
X19212D01*
X18252D02*
X18452D01*
X23622Y17153D02*
X23812D01*
X22972D02*
X23152D01*
X22022D02*
X22202D01*
X21652D02*
X21832D01*
X19822D02*
X20652D01*
X19452D02*
X19612D01*
X19022D02*
X19222D01*
X18242D02*
X18442D01*
X23622Y17143D02*
X23802D01*
X22972D02*
X23152D01*
X22022D02*
X22192D01*
X21652D02*
X21832D01*
X19822D02*
X20652D01*
X19452D02*
X19612D01*
X19022D02*
X19232D01*
X18232D02*
X18442D01*
X23632Y17133D02*
X23802D01*
X22982D02*
X23152D01*
X22022D02*
X22192D01*
X21652D02*
X21832D01*
X19822D02*
X20652D01*
X19452D02*
X19612D01*
X19032D02*
X19232D01*
X18232D02*
X18432D01*
X23632Y17123D02*
X23792D01*
X22982D02*
X23162D01*
X22012D02*
X22192D01*
X21652D02*
X21832D01*
X19822D02*
X20652D01*
X19452D02*
X19612D01*
X19042D02*
X19242D01*
X18222D02*
X18432D01*
X23632Y17113D02*
X23792D01*
X22982D02*
X23162D01*
X22012D02*
X22182D01*
X21652D02*
X21832D01*
X19822D02*
X20652D01*
X19452D02*
X19612D01*
X19042D02*
X19252D01*
X18212D02*
X18422D01*
X18212Y17103D02*
X18412D01*
X18202Y17093D02*
X18412D01*
X18202Y17083D02*
X18402D01*
X18192Y17073D02*
X18402D01*
X18182Y17063D02*
X18392D01*
X18182Y17053D02*
X18382D01*
X18172Y17043D02*
X18382D01*
X18162Y17033D02*
X18372D01*
X18162Y17023D02*
X18362D01*
X18152Y17013D02*
X18362D01*
X21842Y17003D02*
X21902D01*
X18152D02*
X18352D01*
X22402Y16993D02*
X22672D01*
X21792D02*
X21952D01*
X21472D02*
X21522D01*
X21112D02*
X21162D01*
X20752D02*
X20802D01*
X20232D02*
X20642D01*
X19852D02*
X20112D01*
X19112D02*
X19522D01*
X18772D02*
X18992D01*
X18142D02*
X18352D01*
X22352Y16983D02*
X22672D01*
X21762D02*
X21972D01*
X21462D02*
X21522D01*
X21102D02*
X21162D01*
X20752D02*
X20812D01*
X20232D02*
X20642D01*
X19802D02*
X20112D01*
X19112D02*
X19522D01*
X18722D02*
X18992D01*
X18132D02*
X18342D01*
X22332Y16973D02*
X22672D01*
X21742D02*
X21992D01*
X21462D02*
X21522D01*
X21102D02*
X21172D01*
X20752D02*
X20812D01*
X20232D02*
X20642D01*
X19782D02*
X20112D01*
X19112D02*
X19522D01*
X18692D02*
X18992D01*
X18132D02*
X18332D01*
X22312Y16963D02*
X22672D01*
X21722D02*
X22012D01*
X21462D02*
X21522D01*
X21102D02*
X21172D01*
X20752D02*
X20812D01*
X20232D02*
X20642D01*
X19762D02*
X20112D01*
X19112D02*
X19522D01*
X18672D02*
X18992D01*
X18122D02*
X18332D01*
X22292Y16953D02*
X22672D01*
X21892D02*
X22022D01*
X21712D02*
X21842D01*
X21462D02*
X21512D01*
X21102D02*
X21172D01*
X20752D02*
X20812D01*
X20232D02*
X20642D01*
X19742D02*
X20112D01*
X19112D02*
X19522D01*
X18652D02*
X18992D01*
X18112D02*
X18322D01*
X22612Y16943D02*
X22672D01*
X22282D02*
X22402D01*
X21942D02*
X22032D01*
X21702D02*
X21802D01*
X21452D02*
X21512D01*
X21092D02*
X21182D01*
X20762D02*
X20822D01*
X20582D02*
X20642D01*
X20052D02*
X20112D01*
X19732D02*
X19852D01*
X19462D02*
X19522D01*
X18942D02*
X18992D01*
X18642D02*
X18772D01*
X18112D02*
X18312D01*
X22612Y16933D02*
X22672D01*
X22272D02*
X22362D01*
X21962D02*
X22042D01*
X21692D02*
X21782D01*
X21452D02*
X21512D01*
X21092D02*
X21182D01*
X20762D02*
X20822D01*
X20582D02*
X20642D01*
X20052D02*
X20112D01*
X19722D02*
X19812D01*
X19462D02*
X19522D01*
X18942D02*
X18992D01*
X18632D02*
X18732D01*
X18102D02*
X18312D01*
X22612Y16923D02*
X22672D01*
X22262D02*
X22342D01*
X21972D02*
X22052D01*
X21682D02*
X21762D01*
X21452D02*
X21512D01*
X21092D02*
X21182D01*
X20762D02*
X20822D01*
X20582D02*
X20642D01*
X20052D02*
X20112D01*
X19712D02*
X19792D01*
X19462D02*
X19522D01*
X18942D02*
X18992D01*
X18612D02*
X18702D01*
X18102D02*
X18302D01*
X22612Y16913D02*
X22672D01*
X22262D02*
X22332D01*
X21992D02*
X22062D01*
X21672D02*
X21752D01*
X21452D02*
X21502D01*
X21082D02*
X21182D01*
X20762D02*
X20822D01*
X20582D02*
X20642D01*
X20052D02*
X20112D01*
X19702D02*
X19782D01*
X19462D02*
X19522D01*
X18942D02*
X18992D01*
X18602D02*
X18692D01*
X18092D02*
X18302D01*
X22612Y16903D02*
X22672D01*
X22252D02*
X22322D01*
X22002D02*
X22072D01*
X21662D02*
X21732D01*
X21442D02*
X21502D01*
X21142D02*
X21192D01*
X21082D02*
X21132D01*
X20772D02*
X20832D01*
X20582D02*
X20642D01*
X20052D02*
X20112D01*
X19702D02*
X19772D01*
X19462D02*
X19522D01*
X18942D02*
X18992D01*
X18602D02*
X18672D01*
X18082D02*
X18292D01*
X22612Y16893D02*
X22672D01*
X22242D02*
X22312D01*
X22012D02*
X22072D01*
X21662D02*
X21722D01*
X21442D02*
X21502D01*
X21142D02*
X21192D01*
X21082D02*
X21132D01*
X20772D02*
X20832D01*
X20582D02*
X20642D01*
X20052D02*
X20112D01*
X19692D02*
X19762D01*
X19462D02*
X19522D01*
X18942D02*
X18992D01*
X18592D02*
X18662D01*
X18082D02*
X18282D01*
X22612Y16883D02*
X22672D01*
X22242D02*
X22302D01*
X22022D02*
X22082D01*
X21652D02*
X21722D01*
X21442D02*
X21502D01*
X21142D02*
X21192D01*
X21072D02*
X21132D01*
X20772D02*
X20832D01*
X20582D02*
X20642D01*
X20052D02*
X20112D01*
X19692D02*
X19752D01*
X19462D02*
X19522D01*
X18942D02*
X18992D01*
X18582D02*
X18652D01*
X18072D02*
X18282D01*
X22612Y16873D02*
X22672D01*
X22232D02*
X22302D01*
X22022D02*
X22092D01*
X21652D02*
X21712D01*
X21442D02*
X21492D01*
X21142D02*
X21202D01*
X21072D02*
X21122D01*
X20782D02*
X20832D01*
X20582D02*
X20642D01*
X20052D02*
X20112D01*
X19682D02*
X19752D01*
X19462D02*
X19522D01*
X18942D02*
X18992D01*
X18572D02*
X18642D01*
X18072D02*
X18272D01*
X22612Y16863D02*
X22672D01*
X22232D02*
X22292D01*
X22032D02*
X22092D01*
X21642D02*
X21702D01*
X21432D02*
X21492D01*
X21152D02*
X21202D01*
X21072D02*
X21122D01*
X20782D02*
X20842D01*
X20582D02*
X20642D01*
X20052D02*
X20112D01*
X19682D02*
X19742D01*
X19462D02*
X19522D01*
X18942D02*
X18992D01*
X18572D02*
X18632D01*
X18062D02*
X18272D01*
X22612Y16853D02*
X22672D01*
X22232D02*
X22292D01*
X22032D02*
X22102D01*
X21642D02*
X21702D01*
X21432D02*
X21492D01*
X21152D02*
X21202D01*
X21072D02*
X21122D01*
X20782D02*
X20842D01*
X20582D02*
X20642D01*
X20052D02*
X20112D01*
X19682D02*
X19742D01*
X19462D02*
X19522D01*
X18942D02*
X18992D01*
X18562D02*
X18622D01*
X18052D02*
X18262D01*
X22612Y16843D02*
X22672D01*
X22232D02*
X22282D01*
X22042D02*
X22102D01*
X21632D02*
X21692D01*
X21432D02*
X21492D01*
X21152D02*
X21202D01*
X21062D02*
X21112D01*
X20782D02*
X20842D01*
X20582D02*
X20642D01*
X20052D02*
X20112D01*
X19682D02*
X19732D01*
X19462D02*
X19522D01*
X18942D02*
X18992D01*
X18562D02*
X18622D01*
X18052D02*
X18252D01*
X22612Y16833D02*
X22672D01*
X22222D02*
X22282D01*
X22042D02*
X22102D01*
X21632D02*
X21692D01*
X21432D02*
X21482D01*
X21152D02*
X21212D01*
X21062D02*
X21112D01*
X20792D02*
X20842D01*
X20582D02*
X20642D01*
X20052D02*
X20112D01*
X19672D02*
X19732D01*
X19462D02*
X19522D01*
X18942D02*
X18992D01*
X18552D02*
X18612D01*
X18042D02*
X18252D01*
X22612Y16823D02*
X22672D01*
X22222D02*
X22282D01*
X22052D02*
X22112D01*
X21632D02*
X21682D01*
X21422D02*
X21482D01*
X21162D02*
X21212D01*
X21062D02*
X21112D01*
X20792D02*
X20852D01*
X20582D02*
X20642D01*
X20052D02*
X20112D01*
X19672D02*
X19732D01*
X19462D02*
X19522D01*
X18942D02*
X18992D01*
X18552D02*
X18612D01*
X18032D02*
X18242D01*
X22612Y16813D02*
X22672D01*
X22222D02*
X22282D01*
X22052D02*
X22112D01*
X21622D02*
X21682D01*
X21422D02*
X21482D01*
X21162D02*
X21212D01*
X21052D02*
X21112D01*
X20792D02*
X20852D01*
X20582D02*
X20642D01*
X20052D02*
X20112D01*
X19672D02*
X19732D01*
X19462D02*
X19522D01*
X18942D02*
X18992D01*
X18542D02*
X18602D01*
X18032D02*
X18232D01*
X22612Y16803D02*
X22672D01*
X22222D02*
X22282D01*
X22052D02*
X22112D01*
X21622D02*
X21682D01*
X21422D02*
X21482D01*
X21162D02*
X21222D01*
X21052D02*
X21102D01*
X20792D02*
X20852D01*
X20582D02*
X20642D01*
X20052D02*
X20112D01*
X19672D02*
X19732D01*
X19462D02*
X19522D01*
X18942D02*
X18992D01*
X18542D02*
X18602D01*
X18022D02*
X18232D01*
X22612Y16793D02*
X22672D01*
X22222D02*
X22282D01*
X22062D02*
X22122D01*
X21622D02*
X21682D01*
X21422D02*
X21472D01*
X21172D02*
X21222D01*
X21052D02*
X21102D01*
X20802D02*
X20852D01*
X20582D02*
X20642D01*
X20052D02*
X20112D01*
X19672D02*
X19732D01*
X19462D02*
X19522D01*
X18942D02*
X18992D01*
X18542D02*
X18602D01*
X18022D02*
X18222D01*
X22612Y16783D02*
X22672D01*
X22222D02*
X22282D01*
X22062D02*
X22122D01*
X21622D02*
X21672D01*
X21412D02*
X21472D01*
X21172D02*
X21222D01*
X21052D02*
X21102D01*
X20802D02*
X20862D01*
X20582D02*
X20642D01*
X20052D02*
X20112D01*
X19672D02*
X19732D01*
X19462D02*
X19522D01*
X18942D02*
X18992D01*
X18542D02*
X18592D01*
X18012D02*
X18222D01*
X22612Y16773D02*
X22672D01*
X22222D02*
X22282D01*
X22062D02*
X22122D01*
X21612D02*
X21672D01*
X21412D02*
X21472D01*
X21172D02*
X21232D01*
X21042D02*
X21092D01*
X20802D02*
X20862D01*
X20582D02*
X20642D01*
X20052D02*
X20112D01*
X19672D02*
X19732D01*
X19462D02*
X19522D01*
X18942D02*
X18992D01*
X18532D02*
X18592D01*
X18002D02*
X18212D01*
X22612Y16763D02*
X22672D01*
X22222D02*
X22282D01*
X22062D02*
X22122D01*
X21612D02*
X21672D01*
X21412D02*
X21472D01*
X21182D02*
X21232D01*
X21042D02*
X21092D01*
X20802D02*
X20862D01*
X20582D02*
X20642D01*
X20052D02*
X20112D01*
X19682D02*
X19732D01*
X19462D02*
X19522D01*
X18942D02*
X18992D01*
X18532D02*
X18592D01*
X18002D02*
X18202D01*
X22612Y16753D02*
X22672D01*
X22232D02*
X22282D01*
X22062D02*
X22122D01*
X21612D02*
X21672D01*
X21412D02*
X21462D01*
X21182D02*
X21232D01*
X21042D02*
X21092D01*
X20812D02*
X20862D01*
X20582D02*
X20642D01*
X20052D02*
X20112D01*
X19682D02*
X19742D01*
X19462D02*
X19522D01*
X18942D02*
X18992D01*
X18532D02*
X18592D01*
X17992D02*
X18202D01*
X22612Y16743D02*
X22672D01*
X22232D02*
X22292D01*
X22072D02*
X22122D01*
X21612D02*
X21672D01*
X21402D02*
X21462D01*
X21182D02*
X21232D01*
X21032D02*
X21092D01*
X20812D02*
X20872D01*
X20582D02*
X20642D01*
X20052D02*
X20112D01*
X19682D02*
X19742D01*
X19462D02*
X19522D01*
X18942D02*
X18992D01*
X18532D02*
X18592D01*
X17982D02*
X18192D01*
X22612Y16733D02*
X22672D01*
X22232D02*
X22292D01*
X22072D02*
X22122D01*
X21612D02*
X21672D01*
X21402D02*
X21462D01*
X21182D02*
X21242D01*
X21032D02*
X21082D01*
X20812D02*
X20872D01*
X20582D02*
X20642D01*
X20052D02*
X20112D01*
X19682D02*
X19752D01*
X19462D02*
X19522D01*
X18942D02*
X18992D01*
X18532D02*
X18582D01*
X17982D02*
X18182D01*
X22612Y16723D02*
X22672D01*
X22232D02*
X22302D01*
X22072D02*
X22122D01*
X21612D02*
X21672D01*
X21402D02*
X21462D01*
X21192D02*
X21242D01*
X21032D02*
X21082D01*
X20812D02*
X20872D01*
X20582D02*
X20642D01*
X20052D02*
X20112D01*
X19692D02*
X19752D01*
X19462D02*
X19522D01*
X18942D02*
X18992D01*
X18532D02*
X18582D01*
X17972D02*
X18182D01*
X22612Y16713D02*
X22672D01*
X22242D02*
X22302D01*
X22072D02*
X22122D01*
X21612D02*
X21672D01*
X21402D02*
X21452D01*
X21192D02*
X21242D01*
X21032D02*
X21082D01*
X20822D02*
X20872D01*
X20582D02*
X20642D01*
X20052D02*
X20112D01*
X19692D02*
X19762D01*
X19462D02*
X19522D01*
X18942D02*
X18992D01*
X18532D02*
X18582D01*
X17972D02*
X18172D01*
X22612Y16703D02*
X22672D01*
X22242D02*
X22312D01*
X22072D02*
X22122D01*
X21612D02*
X21672D01*
X21392D02*
X21452D01*
X21192D02*
X21252D01*
X21022D02*
X21072D01*
X20822D02*
X20882D01*
X20582D02*
X20642D01*
X20052D02*
X20112D01*
X19702D02*
X19772D01*
X19462D02*
X19522D01*
X18942D02*
X18992D01*
X18532D02*
X18582D01*
X17962D02*
X18172D01*
X22612Y16693D02*
X22672D01*
X22252D02*
X22322D01*
X22072D02*
X22122D01*
X21612D02*
X21672D01*
X21392D02*
X21452D01*
X21202D02*
X21252D01*
X21022D02*
X21072D01*
X20822D02*
X20882D01*
X20272D02*
X20642D01*
X20052D02*
X20112D01*
X19712D02*
X19782D01*
X19162D02*
X19522D01*
X18942D02*
X18992D01*
X18532D02*
X18582D01*
X17952D02*
X18162D01*
X22612Y16683D02*
X22672D01*
X22262D02*
X22332D01*
X22072D02*
X22122D01*
X21612D02*
X21672D01*
X21392D02*
X21452D01*
X21202D02*
X21252D01*
X21022D02*
X21072D01*
X20822D02*
X20882D01*
X20272D02*
X20642D01*
X20052D02*
X20112D01*
X19712D02*
X19792D01*
X19162D02*
X19522D01*
X18942D02*
X18992D01*
X18532D02*
X18582D01*
X17952D02*
X18152D01*
X22612Y16673D02*
X22672D01*
X22262D02*
X22352D01*
X22072D02*
X22122D01*
X21612D02*
X21672D01*
X21392D02*
X21442D01*
X21202D02*
X21252D01*
X21012D02*
X21072D01*
X20832D02*
X20882D01*
X20272D02*
X20642D01*
X20052D02*
X20112D01*
X19722D02*
X19812D01*
X19162D02*
X19522D01*
X18942D02*
X18992D01*
X18532D02*
X18582D01*
X17942D02*
X18152D01*
X22612Y16663D02*
X22672D01*
X22272D02*
X22372D01*
X22072D02*
X22122D01*
X21612D02*
X21672D01*
X21382D02*
X21442D01*
X21212D02*
X21262D01*
X21012D02*
X21062D01*
X20832D02*
X20892D01*
X20272D02*
X20642D01*
X20052D02*
X20112D01*
X19732D02*
X19852D01*
X19162D02*
X19522D01*
X18942D02*
X18992D01*
X18532D02*
X18582D01*
X17932D02*
X18142D01*
X22282Y16653D02*
X22672D01*
X22072D02*
X22122D01*
X21612D02*
X21672D01*
X21382D02*
X21442D01*
X21212D02*
X21262D01*
X21012D02*
X21062D01*
X20832D02*
X20892D01*
X20282D02*
X20642D01*
X19752D02*
X20112D01*
X19162D02*
X19522D01*
X18942D02*
X18992D01*
X18532D02*
X18582D01*
X17932D02*
X18142D01*
X22292Y16643D02*
X22672D01*
X22072D02*
X22122D01*
X21612D02*
X21672D01*
X21382D02*
X21442D01*
X21212D02*
X21262D01*
X21002D02*
X21062D01*
X20832D02*
X20892D01*
X20582D02*
X20642D01*
X19762D02*
X20112D01*
X19462D02*
X19522D01*
X18942D02*
X18992D01*
X18532D02*
X18582D01*
X17922D02*
X18132D01*
X22312Y16633D02*
X22672D01*
X22072D02*
X22122D01*
X21612D02*
X21672D01*
X21382D02*
X21432D01*
X21212D02*
X21272D01*
X21002D02*
X21052D01*
X20842D02*
X20892D01*
X20582D02*
X20642D01*
X19782D02*
X20112D01*
X19462D02*
X19522D01*
X18942D02*
X18992D01*
X18532D02*
X18582D01*
X17922D02*
X18122D01*
X22332Y16623D02*
X22672D01*
X22072D02*
X22122D01*
X21612D02*
X21672D01*
X21372D02*
X21432D01*
X21222D02*
X21272D01*
X21002D02*
X21052D01*
X20842D02*
X20892D01*
X20582D02*
X20642D01*
X19802D02*
X20112D01*
X19462D02*
X19522D01*
X18942D02*
X18992D01*
X18532D02*
X18582D01*
X17912D02*
X18122D01*
X22372Y16613D02*
X22672D01*
X22072D02*
X22122D01*
X21612D02*
X21672D01*
X21372D02*
X21432D01*
X21222D02*
X21272D01*
X21002D02*
X21052D01*
X20842D02*
X20902D01*
X20582D02*
X20642D01*
X19802D02*
X20112D01*
X19462D02*
X19522D01*
X18942D02*
X18992D01*
X18532D02*
X18582D01*
X17902D02*
X18112D01*
X22612Y16603D02*
X22672D01*
X22072D02*
X22122D01*
X21612D02*
X21672D01*
X21372D02*
X21422D01*
X21222D02*
X21282D01*
X20992D02*
X21052D01*
X20842D02*
X20902D01*
X20582D02*
X20642D01*
X20052D02*
X20112D01*
X19802D02*
X19862D01*
X19462D02*
X19522D01*
X18942D02*
X18992D01*
X18532D02*
X18582D01*
X17902D02*
X18102D01*
X22612Y16593D02*
X22672D01*
X22072D02*
X22122D01*
X21612D02*
X21672D01*
X21372D02*
X21422D01*
X21232D02*
X21282D01*
X20992D02*
X21042D01*
X20852D02*
X20902D01*
X20582D02*
X20642D01*
X20052D02*
X20112D01*
X19792D02*
X19852D01*
X19462D02*
X19522D01*
X18942D02*
X18992D01*
X18532D02*
X18592D01*
X17892D02*
X18102D01*
X22612Y16583D02*
X22672D01*
X22062D02*
X22122D01*
X21612D02*
X21672D01*
X21362D02*
X21422D01*
X21232D02*
X21282D01*
X20992D02*
X21042D01*
X20852D02*
X20912D01*
X20582D02*
X20642D01*
X20052D02*
X20112D01*
X19782D02*
X19852D01*
X19462D02*
X19522D01*
X18942D02*
X18992D01*
X18532D02*
X18592D01*
X17882D02*
X18092D01*
X22612Y16573D02*
X22672D01*
X22062D02*
X22122D01*
X21612D02*
X21672D01*
X21362D02*
X21422D01*
X21232D02*
X21282D01*
X20982D02*
X21042D01*
X20852D02*
X20912D01*
X20582D02*
X20642D01*
X20052D02*
X20112D01*
X19782D02*
X19842D01*
X19462D02*
X19522D01*
X18942D02*
X18992D01*
X18532D02*
X18592D01*
X17882D02*
X18092D01*
X22612Y16563D02*
X22672D01*
X22062D02*
X22122D01*
X21612D02*
X21672D01*
X21362D02*
X21412D01*
X21232D02*
X21292D01*
X20982D02*
X21032D01*
X20852D02*
X20912D01*
X20582D02*
X20642D01*
X20052D02*
X20112D01*
X19772D02*
X19842D01*
X19462D02*
X19522D01*
X18942D02*
X18992D01*
X18532D02*
X18592D01*
X17872D02*
X18082D01*
X22612Y16553D02*
X22672D01*
X22062D02*
X22122D01*
X21622D02*
X21672D01*
X21362D02*
X21412D01*
X21242D02*
X21292D01*
X20982D02*
X21032D01*
X20862D02*
X20912D01*
X20582D02*
X20642D01*
X20052D02*
X20112D01*
X19772D02*
X19832D01*
X19462D02*
X19522D01*
X18942D02*
X18992D01*
X18532D02*
X18592D01*
X17872D02*
X18072D01*
X22612Y16543D02*
X22672D01*
X22062D02*
X22122D01*
X21622D02*
X21682D01*
X21352D02*
X21412D01*
X21242D02*
X21292D01*
X20982D02*
X21032D01*
X20862D02*
X20912D01*
X20582D02*
X20642D01*
X20052D02*
X20112D01*
X19762D02*
X19822D01*
X19462D02*
X19522D01*
X18942D02*
X18992D01*
X18542D02*
X18602D01*
X17862D02*
X18072D01*
X22612Y16533D02*
X22672D01*
X22062D02*
X22112D01*
X21622D02*
X21682D01*
X21352D02*
X21412D01*
X21242D02*
X21302D01*
X20972D02*
X21022D01*
X20862D02*
X20922D01*
X20582D02*
X20642D01*
X20052D02*
X20112D01*
X19762D02*
X19822D01*
X19462D02*
X19522D01*
X18942D02*
X18992D01*
X18542D02*
X18602D01*
X17852D02*
X18062D01*
X22612Y16523D02*
X22672D01*
X22052D02*
X22112D01*
X21622D02*
X21682D01*
X21352D02*
X21402D01*
X21252D02*
X21302D01*
X20972D02*
X21022D01*
X20872D02*
X20922D01*
X20582D02*
X20642D01*
X20052D02*
X20112D01*
X19752D02*
X19812D01*
X19462D02*
X19522D01*
X18942D02*
X18992D01*
X18542D02*
X18602D01*
X17852D02*
X18052D01*
X22612Y16513D02*
X22672D01*
X22052D02*
X22112D01*
X21632D02*
X21682D01*
X21352D02*
X21402D01*
X21252D02*
X21302D01*
X20972D02*
X21022D01*
X20872D02*
X20922D01*
X20582D02*
X20642D01*
X20052D02*
X20112D01*
X19742D02*
X19812D01*
X19462D02*
X19522D01*
X18942D02*
X18992D01*
X18552D02*
X18612D01*
X17842D02*
X18052D01*
X22612Y16503D02*
X22672D01*
X22052D02*
X22102D01*
X21632D02*
X21692D01*
X21342D02*
X21402D01*
X21252D02*
X21302D01*
X20962D02*
X21022D01*
X20872D02*
X20922D01*
X20582D02*
X20642D01*
X20052D02*
X20112D01*
X19742D02*
X19802D01*
X19462D02*
X19522D01*
X18942D02*
X18992D01*
X18552D02*
X18612D01*
X17832D02*
X18042D01*
X22612Y16493D02*
X22672D01*
X22042D02*
X22102D01*
X21632D02*
X21692D01*
X21342D02*
X21402D01*
X21262D02*
X21312D01*
X20962D02*
X21012D01*
X20872D02*
X20932D01*
X20582D02*
X20642D01*
X20052D02*
X20112D01*
X19732D02*
X19792D01*
X19462D02*
X19522D01*
X18942D02*
X18992D01*
X18552D02*
X18622D01*
X17832D02*
X18042D01*
X22612Y16483D02*
X22672D01*
X22042D02*
X22102D01*
X21642D02*
X21702D01*
X21342D02*
X21392D01*
X21262D02*
X21312D01*
X20962D02*
X21012D01*
X20882D02*
X20932D01*
X20582D02*
X20642D01*
X20052D02*
X20112D01*
X19732D02*
X19792D01*
X19462D02*
X19522D01*
X18942D02*
X18992D01*
X18562D02*
X18622D01*
X17822D02*
X18032D01*
X22612Y16473D02*
X22672D01*
X22032D02*
X22092D01*
X21642D02*
X21702D01*
X21342D02*
X21392D01*
X21262D02*
X21312D01*
X20962D02*
X21012D01*
X20882D02*
X20932D01*
X20582D02*
X20642D01*
X20052D02*
X20112D01*
X19722D02*
X19782D01*
X19462D02*
X19522D01*
X18942D02*
X18992D01*
X18572D02*
X18632D01*
X17822D02*
X18022D01*
X22612Y16463D02*
X22672D01*
X22032D02*
X22092D01*
X21642D02*
X21712D01*
X21342D02*
X21392D01*
X21262D02*
X21322D01*
X20952D02*
X21002D01*
X20882D02*
X20932D01*
X20582D02*
X20642D01*
X20052D02*
X20112D01*
X19712D02*
X19782D01*
X19462D02*
X19522D01*
X18942D02*
X18992D01*
X18572D02*
X18642D01*
X17812D02*
X18022D01*
X22612Y16453D02*
X22672D01*
X22022D02*
X22082D01*
X21652D02*
X21712D01*
X21332D02*
X21392D01*
X21272D02*
X21322D01*
X20952D02*
X21002D01*
X20882D02*
X20932D01*
X20582D02*
X20642D01*
X20052D02*
X20112D01*
X19712D02*
X19772D01*
X19462D02*
X19522D01*
X18942D02*
X18992D01*
X18582D02*
X18652D01*
X17802D02*
X18012D01*
X22612Y16443D02*
X22672D01*
X22012D02*
X22082D01*
X21662D02*
X21722D01*
X21332D02*
X21382D01*
X21272D02*
X21322D01*
X20952D02*
X21002D01*
X20892D02*
X20942D01*
X20582D02*
X20642D01*
X20052D02*
X20112D01*
X19702D02*
X19772D01*
X19462D02*
X19522D01*
X18942D02*
X18992D01*
X18592D02*
X18662D01*
X17802D02*
X18012D01*
X22612Y16433D02*
X22672D01*
X22002D02*
X22072D01*
X21662D02*
X21732D01*
X21332D02*
X21382D01*
X21272D02*
X21322D01*
X20952D02*
X21002D01*
X20892D02*
X20942D01*
X20582D02*
X20642D01*
X20052D02*
X20112D01*
X19702D02*
X19762D01*
X19462D02*
X19522D01*
X18942D02*
X18992D01*
X18592D02*
X18672D01*
X17792D02*
X18002D01*
X22612Y16423D02*
X22672D01*
X21992D02*
X22062D01*
X21672D02*
X21742D01*
X21282D02*
X21382D01*
X20892D02*
X20992D01*
X20582D02*
X20642D01*
X20052D02*
X20112D01*
X19692D02*
X19752D01*
X19462D02*
X19522D01*
X18942D02*
X18992D01*
X18602D02*
X18682D01*
X17792D02*
X17992D01*
X22612Y16413D02*
X22672D01*
X21982D02*
X22062D01*
X21682D02*
X21752D01*
X21282D02*
X21382D01*
X20892D02*
X20992D01*
X20582D02*
X20642D01*
X20052D02*
X20112D01*
X19682D02*
X19752D01*
X19462D02*
X19522D01*
X18942D02*
X18992D01*
X18612D02*
X18702D01*
X17782D02*
X17992D01*
X22612Y16403D02*
X22672D01*
X21962D02*
X22052D01*
X21692D02*
X21772D01*
X21282D02*
X21372D01*
X20902D02*
X20992D01*
X20582D02*
X20642D01*
X20052D02*
X20112D01*
X19682D02*
X19742D01*
X19462D02*
X19522D01*
X18942D02*
X18992D01*
X18622D02*
X18722D01*
X17772D02*
X17982D01*
X22612Y16393D02*
X22672D01*
X21942D02*
X22042D01*
X21702D02*
X21792D01*
X21292D02*
X21372D01*
X20902D02*
X20982D01*
X20582D02*
X20642D01*
X20052D02*
X20112D01*
X19672D02*
X19742D01*
X19462D02*
X19522D01*
X18942D02*
X18992D01*
X18642D02*
X18752D01*
X17772D02*
X17972D01*
X22612Y16383D02*
X22672D01*
X21912D02*
X22022D01*
X21712D02*
X21822D01*
X21292D02*
X21372D01*
X20902D02*
X20982D01*
X20232D02*
X20642D01*
X20052D02*
X20112D01*
X19672D02*
X19732D01*
X19112D02*
X19522D01*
X18652D02*
X18992D01*
X17762D02*
X17972D01*
X22612Y16373D02*
X22672D01*
X21722D02*
X22012D01*
X21292D02*
X21372D01*
X20902D02*
X20982D01*
X20232D02*
X20642D01*
X20052D02*
X20112D01*
X19662D02*
X19722D01*
X19112D02*
X19522D01*
X18662D02*
X18992D01*
X17752D02*
X17962D01*
X22612Y16363D02*
X22672D01*
X21732D02*
X22002D01*
X21292D02*
X21362D01*
X20912D02*
X20982D01*
X20232D02*
X20642D01*
X20052D02*
X20112D01*
X19652D02*
X19722D01*
X19112D02*
X19522D01*
X18692D02*
X18992D01*
X17752D02*
X17962D01*
X22612Y16353D02*
X22672D01*
X21752D02*
X21982D01*
X21302D02*
X21362D01*
X20912D02*
X20972D01*
X20232D02*
X20642D01*
X20052D02*
X20112D01*
X19652D02*
X19712D01*
X19112D02*
X19522D01*
X18712D02*
X18992D01*
X17742D02*
X17952D01*
X22612Y16343D02*
X22672D01*
X21782D02*
X21962D01*
X21302D02*
X21362D01*
X20912D02*
X20972D01*
X20232D02*
X20642D01*
X20052D02*
X20112D01*
X19642D02*
X19712D01*
X19112D02*
X19522D01*
X18752D02*
X18992D01*
X17742D02*
X17942D01*
X21812Y16333D02*
X21912D01*
D56*
X18051Y10763D02*
Y11128D01*
Y10202D02*
Y10567D01*
X18445Y10763D02*
Y11128D01*
Y10202D02*
Y10567D01*
X18051Y11128D02*
X18445D01*
X18051Y10202D02*
X18445D01*
X18051Y9182D02*
Y9546D01*
Y8621D02*
Y8985D01*
X18445Y9182D02*
Y9546D01*
Y8621D02*
Y8985D01*
X18051Y9546D02*
X18445D01*
X18051Y8621D02*
X18445D01*
X22327Y2642D02*
Y3035D01*
X23252Y2642D02*
Y3035D01*
X22327Y2642D02*
X22691D01*
X22888D02*
X23252D01*
X22327Y3035D02*
X22691D01*
X22888D02*
X23252D01*
X19435Y3474D02*
Y3839D01*
Y4035D02*
Y4400D01*
X19042Y3474D02*
Y3839D01*
Y4035D02*
Y4400D01*
Y3474D02*
X19435D01*
X19042Y4400D02*
X19435D01*
D57*
X15758Y3868D02*
Y4237D01*
X15765Y4244D01*
X16520Y3868D02*
Y4244D01*
X15765D02*
X16520D01*
X15765Y2892D02*
X16520D01*
Y3268D01*
X15758Y2899D02*
X15765Y2892D01*
X15758Y2899D02*
Y3268D01*
M02*
